<?xml version="1.0" encoding="UTF-8"?>
<!DOCTYPE svg PUBLIC "-//W3C//DTD SVG 1.1//EN" "http://www.w3.org/Graphics/SVG/1.1/DTD/svg11.dtd">
<svg xmlns="http://www.w3.org/2000/svg" version="1.1" width="3097px" height="5000px" style="shape-rendering:geometricPrecision; text-rendering:geometricPrecision; image-rendering:optimizeQuality; fill-rule:evenodd; clip-rule:evenodd" xmlns:xlink="http://www.w3.org/1999/xlink">
<g><path style="opacity:0.994" fill="#000000" d="M 1516.5,35.5 C 1678.75,32.149 1833.09,65.3157 1979.5,135C 2083.83,185.426 2179.5,248.426 2266.5,324C 2380.1,424.304 2479.6,536.471 2565,660.5C 2677.98,826.423 2770.64,1003.76 2843,1192.5C 2931.94,1425.59 2994.94,1665.59 3032,1912.5C 3097.92,2352.73 3090.59,2791.73 3010,3229.5C 2966.53,3463.22 2898.87,3689.55 2807,3908.5C 2728.13,4096.02 2628.13,4270.35 2507,4431.5C 2418.32,4548.18 2316.15,4651.68 2200.5,4742C 2110.63,4810.96 2012.63,4866.63 1906.5,4909C 1639.15,5008.96 1376.15,4998.63 1117.5,4878C 1038.49,4840.19 964.49,4794.86 895.5,4742C 779.848,4651.68 677.681,4548.18 589,4431.5C 480.804,4287.7 389.47,4133.03 315,3967.5C 209.527,3730.73 133.193,3484.73 86,3229.5C 5.40861,2791.73 -1.92473,2352.73 64,1912.5C 103.42,1647.48 173.087,1390.81 273,1142.5C 347.934,957.229 442.934,783.896 558,622.5C 627.956,526.649 706.456,437.816 793.5,356C 878.152,278.023 971.152,211.69 1072.5,157C 1211.48,83.1675 1359.48,42.6675 1516.5,35.5 Z"/></g>
<g><path style="opacity:1" fill="#d80d14" d="M 1508.5,110.5 C 1675.98,106.955 1833.65,144.455 1981.5,223C 2078.96,276.06 2168.29,340.394 2249.5,416C 2361.07,522.161 2457.57,639.994 2539,769.5C 2645.9,940.315 2732.23,1121.32 2798,1312.5C 2883.64,1562.38 2940.31,1818.71 2968,2081.5C 3010.44,2478.33 2992.44,2872.33 2914,3263.5C 2870.71,3476.03 2806.71,3682.03 2722,3881.5C 2652.83,4042.58 2567.83,4193.91 2467,4335.5C 2419.14,4401.05 2367.14,4463.38 2311,4522.5C 2230.7,4606.13 2141.87,4678.63 2044.5,4740C 1933.6,4809.09 1813.6,4854.75 1684.5,4877C 1497.32,4905.1 1318.32,4878.43 1147.5,4797C 1049.37,4749.45 959.371,4690.12 877.5,4619C 769.202,4523.08 674.369,4415.91 593,4297.5C 483.545,4136.62 393.878,3964.62 324,3781.5C 239.104,3558.25 178.438,3328.59 142,3092.5C 93.7878,2776.37 84.1211,2459.04 113,2140.5C 136.943,1878.41 188.943,1622.07 269,1371.5C 325.953,1196.27 399.286,1028.27 489,867.5C 564.281,734.273 653.281,610.939 756,497.5C 834.216,413.232 920.716,339.399 1015.5,276C 1099,221.088 1188.67,178.755 1284.5,149C 1357.74,126.994 1432.41,114.161 1508.5,110.5 Z"/></g>
<g><path style="opacity:1" fill="#010000" d="M 1512.5,201.5 C 1626.41,198.449 1736.41,217.616 1842.5,259C 1932.74,295.43 2016.08,343.096 2092.5,402C 2173.77,465.935 2247.94,537.435 2315,616.5C 2410.17,731.749 2492.17,856.083 2561,989.5C 2657.88,1179.78 2732.88,1378.45 2786,1585.5C 2862.18,1884.47 2900.02,2188.3 2899.5,2497C 2899.65,2786.02 2866.81,3071.18 2801,3352.5C 2752.23,3559.16 2682.23,3758.16 2591,3949.5C 2524.2,4088.55 2443.87,4218.55 2350,4339.5C 2281.66,4425.84 2205.16,4504.34 2120.5,4575C 2044.59,4636.82 1961.59,4687.82 1871.5,4728C 1624.72,4830.53 1383.06,4819.53 1146.5,4695C 1035.61,4634.16 936.113,4558 848,4466.5C 750.663,4364.2 665.996,4252.53 594,4131.5C 503.652,3978.17 429.652,3817.17 372,3648.5C 290.486,3408.94 236.486,3163.27 210,2911.5C 171.73,2559.32 182.397,2208.65 242,1859.5C 282.076,1622.19 348.409,1392.52 441,1170.5C 514.288,995.823 606.954,833.156 719,682.5C 785.405,595.75 859.905,516.25 942.5,444C 1016.65,380.223 1097.98,326.889 1186.5,284C 1289.72,234.529 1398.39,207.029 1512.5,201.5 Z"/></g>
<g><path style="opacity:1" fill="#fefefe" d="M 1512.5,289.5 C 1619.02,285.643 1721.68,303.476 1820.5,343C 1912.21,380.822 1996.21,430.822 2072.5,493C 2158.67,564.16 2235.5,643.994 2303,732.5C 2408.45,872.634 2496.12,1023.97 2566,1186.5C 2670.98,1432.41 2742.31,1687.74 2780,1952.5C 2663.53,1695.37 2485.36,1492.54 2245.5,1344C 1999.76,1197.4 1733.76,1133.07 1447.5,1151C 1124.47,1177.4 845.469,1300.74 610.5,1521C 489.225,1637.94 392.392,1772.44 320,1924.5C 360.028,1660.42 433.695,1406.08 541,1161.5C 612.813,999.08 702.813,848.413 811,709.5C 889.548,610.279 979.715,523.446 1081.5,449C 1151.67,398.908 1227.67,359.241 1309.5,330C 1375.49,307.435 1443.16,293.935 1512.5,289.5 Z"/></g>
<g><path style="opacity:1" fill="#010101" d="M 1551.5,455.5 C 1620.36,452.9 1684.7,468.4 1744.5,502C 1759.85,511.678 1774.35,522.512 1788,534.5C 1788.67,535.167 1788.67,535.833 1788,536.5C 1767.73,555.93 1747.57,575.597 1727.5,595.5C 1689.26,562.84 1644.92,544.34 1594.5,540C 1510.03,533.842 1439.2,561.675 1382,623.5C 1325.34,692.504 1316.01,767.504 1354,848.5C 1395.01,918.296 1455.84,959.129 1536.5,971C 1597.76,977.952 1654.43,965.286 1706.5,933C 1716.26,926.408 1725.59,919.241 1734.5,911.5C 1755.95,930.113 1776.95,949.28 1797.5,969C 1738.31,1021.42 1668.98,1050.08 1589.5,1055C 1493.86,1060.45 1409.86,1032.45 1337.5,971C 1249.06,888.114 1220.56,787.947 1252,670.5C 1279.6,593.567 1329.43,535.733 1401.5,497C 1448.72,472.73 1498.72,458.897 1551.5,455.5 Z"/></g>
<g><path style="opacity:1" fill="#010101" d="M 1140.5,562.5 C 1141.5,562.5 1142.5,562.5 1143.5,562.5C 1189.89,730.607 1236.22,898.773 1282.5,1067C 1282.36,1067.77 1282.02,1068.44 1281.5,1069C 1273.42,1070.69 1265.42,1072.69 1257.5,1075C 1235.2,1080.49 1212.86,1085.49 1190.5,1090C 1178.18,1049.9 1166.18,1009.74 1154.5,969.5C 1071.4,1000.78 988.397,1032.28 905.5,1064C 874.693,1124.45 844.527,1185.28 815,1246.5C 768.403,1277.36 721.57,1307.53 674.5,1337C 789.779,1102.27 904.946,867.441 1020,632.5C 1060.08,608.904 1100.24,585.571 1140.5,562.5 Z"/></g>
<g><path style="opacity:1" fill="#010101" d="M 1941.5,562.5 C 1965.01,574.423 1988.68,586.089 2012.5,597.5C 2033.36,702.299 2054.53,806.965 2076,911.5C 2098.75,848.246 2122.08,785.246 2146,722.5C 2167.95,735.553 2189.78,748.719 2211.5,762C 2265.5,948 2319.5,1134 2373.5,1320C 2373.33,1320.5 2373.17,1321 2373,1321.5C 2339.17,1297.59 2305.17,1273.92 2271,1250.5C 2234.04,1140.95 2196.71,1031.62 2159,922.5C 2128.17,994.167 2097.33,1065.83 2066.5,1137.5C 2055.19,1138.5 2043.85,1138.83 2032.5,1138.5C 2008.91,1024.03 1984.74,909.695 1960,795.5C 1930,891.5 1900,987.5 1870,1083.5C 1869.44,1084.02 1868.77,1084.36 1868,1084.5C 1844.93,1078.28 1821.77,1072.44 1798.5,1067C 1797.94,1066.28 1797.61,1065.44 1797.5,1064.5C 1845.63,897.201 1893.63,729.868 1941.5,562.5 Z"/></g>
<g><path style="opacity:1" fill="#fcfcfc" d="M 1085.5,682.5 C 1087.07,683.681 1087.9,685.347 1088,687.5C 1103.48,752.767 1118.65,818.1 1133.5,883.5C 1072.68,906.89 1012.01,930.89 951.5,955.5C 951.167,955.167 950.833,954.833 950.5,954.5C 995.513,863.807 1040.51,773.14 1085.5,682.5 Z"/></g>
<g><path style="opacity:1" fill="#d90e15" d="M 1494.5,1238.5 C 1510.83,1238.5 1527.17,1238.5 1543.5,1238.5C 1543.5,2079.17 1543.5,2919.83 1543.5,3760.5C 1464.77,3760.68 1386.77,3753.34 1309.5,3738.5C 1308.5,2912.17 1308.17,2085.83 1308.5,1259.5C 1370.2,1248.53 1432.2,1241.53 1494.5,1238.5 Z"/></g>
<g><path style="opacity:1" fill="#fefefe" d="M 1633.5,1241.5 C 1742.3,1249.42 1848.3,1270.75 1951.5,1305.5C 1951.5,1634.17 1951.5,1962.83 1951.5,2291.5C 1845.5,2291.5 1739.5,2291.5 1633.5,2291.5C 1633.5,1941.5 1633.5,1591.5 1633.5,1241.5 Z"/></g>
<g><path style="opacity:1" fill="#d90e15" d="M 1070.5,1329.5 C 1071.83,1719.17 1072.5,2109.17 1072.5,2499.5C 1072.33,2889.5 1072.17,3279.5 1072,3669.5C 989.36,3635.86 911.36,3594.19 838,3544.5C 837.167,2847.5 837.333,2150.5 838.5,1453.5C 911.413,1404.37 988.746,1363.04 1070.5,1329.5 Z"/></g>
<g><path style="opacity:1" fill="#d90e15" d="M 2799.5,2613.5 C 2625.21,2615.16 2450.88,2616.16 2276.5,2616.5C 2276.67,2919.5 2276.5,3222.5 2276,3525.5C 2203.03,3578.08 2124.87,3622.08 2041.5,3657.5C 2041.5,3310.5 2041.5,2963.5 2041.5,2616.5C 1906,2615.5 1770.33,2615.17 1634.5,2615.5C 1634.5,2537.5 1634.5,2459.5 1634.5,2381.5C 1770.17,2381.5 1905.83,2381.5 2041.5,2381.5C 2041.33,2034.5 2041.5,1687.5 2042,1340.5C 2124.86,1376.58 2202.86,1420.58 2276,1472.5C 2276.5,1775.5 2276.67,2078.5 2276.5,2381.5C 2450.83,2381.5 2625.17,2381.5 2799.5,2381.5C 2806.11,2458.84 2806.11,2536.17 2799.5,2613.5 Z"/></g>
<g><path style="opacity:1" fill="#fefefe" d="M 2367.5,1545.5 C 2533.31,1689.02 2654.14,1864.02 2730,2070.5C 2755.89,2142.38 2775.05,2216.05 2787.5,2291.5C 2647.5,2291.5 2507.5,2291.5 2367.5,2291.5C 2367.5,2042.83 2367.5,1794.17 2367.5,1545.5 Z"/></g>
<g><path style="opacity:1" fill="#d80d14" d="M 600.5,1661.5 C 601.667,2220 601.833,2778.67 601,3337.5C 500.506,3224.29 422.506,3096.63 367,2954.5C 366.333,2651.17 366.333,2347.83 367,2044.5C 422.582,1902.56 500.415,1774.89 600.5,1661.5 Z"/></g>
<g><path style="opacity:1" fill="#a80608" d="M 1634.5,2381.5 C 1634.5,2459.5 1634.5,2537.5 1634.5,2615.5C 1770.33,2615.17 1906,2615.5 2041.5,2616.5C 1905.5,2616.5 1769.5,2616.5 1633.5,2616.5C 1633.17,2538 1633.5,2459.66 1634.5,2381.5 Z"/></g>
<g><path style="opacity:1" fill="#bb0608" d="M 2799.5,2613.5 C 2799.5,2614.5 2799.5,2615.5 2799.5,2616.5C 2625.17,2616.5 2450.83,2616.5 2276.5,2616.5C 2450.88,2616.16 2625.21,2615.16 2799.5,2613.5 Z"/></g>
<g><path style="opacity:1" fill="#787878" d="M 1634.5,2698.5 C 1634.5,3051.17 1634.5,3403.83 1634.5,3756.5C 1635.5,3756.5 1636.5,3756.5 1637.5,3756.5C 1636.43,3757.43 1635.1,3757.77 1633.5,3757.5C 1633.17,3404.33 1633.5,3051.33 1634.5,2698.5 Z"/></g>
<g><path style="opacity:1" fill="#fefefe" d="M 1634.5,2698.5 C 1740.17,2698.5 1845.83,2698.5 1951.5,2698.5C 1951.67,3029.83 1951.5,3361.17 1951,3692.5C 1849.39,3727.47 1744.89,3748.81 1637.5,3756.5C 1636.5,3756.5 1635.5,3756.5 1634.5,3756.5C 1634.5,3403.83 1634.5,3051.17 1634.5,2698.5 Z"/></g>
<g><path style="opacity:1" fill="#fefefe" d="M 2367.5,2698.5 C 2507.83,2698.5 2648.17,2698.5 2788.5,2698.5C 2737.08,3000.77 2596.91,3252.44 2368,3453.5C 2367.5,3201.83 2367.33,2950.17 2367.5,2698.5 Z"/></g>
<g><path style="opacity:1" fill="#fefefe" d="M 2783.5,3036.5 C 2746.79,3305.82 2675.63,3565.82 2570,3816.5C 2505.75,3967.42 2426.41,4109.08 2332,4241.5C 2263.85,4335.34 2186.02,4420.84 2098.5,4498C 2022.57,4563.67 1938.57,4617.34 1846.5,4659C 1622.17,4753.34 1402.5,4743.34 1187.5,4629C 1098.63,4580.14 1017.63,4520.47 944.5,4450C 845.694,4352.92 760.194,4245.76 688,4128.5C 593.927,3974.67 517.26,3812.34 458,3641.5C 393.099,3453.9 345.766,3261.9 316,3065.5C 443.675,3335.72 638.175,3543.22 899.5,3688C 1166.92,3829.96 1450.59,3878.96 1750.5,3835C 1974.75,3799.33 2177.09,3713.66 2357.5,3578C 2360.82,3577.5 2364.15,3577.33 2367.5,3577.5C 2366.81,3573.71 2367.81,3570.55 2370.5,3568C 2553.39,3425.95 2691.06,3248.78 2783.5,3036.5 Z"/></g>
<g><path style="opacity:1" fill="#010101" d="M 1026.5,3850.5 C 1049.57,3858.91 1072.57,3867.41 1095.5,3876C 1048.77,4004.46 1002.44,4132.96 956.5,4261.5C 952.681,4261.4 949.014,4260.56 945.5,4259C 921.235,4249.88 896.902,4241.05 872.5,4232.5C 873.195,4228.05 874.362,4223.72 876,4219.5C 906.5,4135.33 937,4051.17 967.5,3967C 967.355,3966.23 967.022,3965.56 966.5,3965C 933.795,3953.27 901.128,3941.43 868.5,3929.5C 867.386,3928.28 867.219,3926.94 868,3925.5C 874.138,3908.95 879.971,3892.29 885.5,3875.5C 901.656,3881.83 918.322,3886.66 935.5,3890C 953.839,3892.91 971.839,3891.57 989.5,3886C 1006.57,3879.09 1018.91,3867.26 1026.5,3850.5 Z"/></g>
<g><path style="opacity:1" fill="#010101" d="M 2029.5,3853.5 C 2078.2,3849.94 2118.37,3866.61 2150,3903.5C 2167.65,3925.79 2181.98,3950.12 2193,3976.5C 2207.34,4010.19 2217.34,4045.19 2223,4081.5C 2228.27,4116.97 2224.27,4151.3 2211,4184.5C 2197.05,4214.45 2175.55,4237.28 2146.5,4253C 2112.53,4270.49 2076.53,4277.49 2038.5,4274C 1999.09,4267.63 1970.43,4246.63 1952.5,4211C 1952.64,4210.23 1952.98,4209.56 1953.5,4209C 1980.47,4199.73 2007.47,4190.56 2034.5,4181.5C 2051.93,4208.2 2075.27,4214.7 2104.5,4201C 2127.24,4189.56 2139.74,4171.06 2142,4145.5C 2144.37,4120.04 2141.04,4095.37 2132,4071.5C 2131.11,4070.29 2130.27,4070.29 2129.5,4071.5C 2120.95,4092.55 2106.61,4108.39 2086.5,4119C 2044.22,4141.83 2000.55,4145.16 1955.5,4129C 1916.62,4108.44 1892.45,4076.61 1883,4033.5C 1868.27,3961.46 1893.44,3908.63 1958.5,3875C 1981.24,3864.27 2004.9,3857.1 2029.5,3853.5 Z"/></g>
<g><path style="opacity:1" fill="#010101" d="M 1257.5,3920.5 C 1300.91,3917.91 1341.58,3927.08 1379.5,3948C 1427.98,3979.1 1442.81,4021.93 1424,4076.5C 1412.31,4100.18 1393.81,4116.01 1368.5,4124C 1378.29,4131.46 1387.79,4139.29 1397,4147.5C 1416.08,4168.43 1424.08,4193.1 1421,4221.5C 1409.97,4291.87 1369.13,4332.03 1298.5,4342C 1250.72,4346.25 1206.05,4336.58 1164.5,4313C 1112.12,4275.72 1095.62,4226.22 1115,4164.5C 1125.41,4137.09 1144.24,4117.92 1171.5,4107C 1178.23,4104.66 1184.9,4102.32 1191.5,4100C 1155.2,4076.2 1142.03,4043.04 1152,4000.5C 1163.28,3964.55 1186.78,3940.38 1222.5,3928C 1234.01,3924.27 1245.68,3921.77 1257.5,3920.5 Z"/></g>
<g><path style="opacity:1" fill="#fdfdfd" d="M 2021.5,3922.5 C 2048.11,3918.56 2068.94,3927.56 2084,3949.5C 2099.5,3971.64 2104.5,3995.98 2099,4022.5C 2091.46,4042.37 2077.63,4055.87 2057.5,4063C 2043.79,4067.84 2029.79,4069.18 2015.5,4067C 2003.34,4063.5 1993.51,4056.67 1986,4046.5C 1969.67,4023.81 1962.67,3998.48 1965,3970.5C 1969.99,3953.52 1980.16,3940.68 1995.5,3932C 2004,3928.02 2012.66,3924.85 2021.5,3922.5 Z"/></g>
<g><path style="opacity:1" fill="#010101" d="M 1648.5,3933.5 C 1723.37,3930.25 1773.87,3963.58 1800,4033.5C 1820.61,4097.33 1825.28,4162.33 1814,4228.5C 1792.88,4313.42 1738.38,4356.09 1650.5,4356.5C 1609.76,4356.66 1575.6,4341.99 1548,4312.5C 1535.86,4297.55 1528.03,4280.55 1524.5,4261.5C 1552.14,4259.04 1579.8,4256.7 1607.5,4254.5C 1609.17,4254.83 1610.83,4255.17 1612.5,4255.5C 1621.77,4283.32 1641.11,4295.15 1670.5,4291C 1697.48,4286.35 1715.65,4271.18 1725,4245.5C 1732.85,4220.65 1735.02,4195.31 1731.5,4169.5C 1720.8,4185.37 1706.47,4196.54 1688.5,4203C 1651.71,4214.65 1615.04,4214.32 1578.5,4202C 1538.81,4184.63 1513.97,4154.8 1504,4112.5C 1497.14,4078.98 1499.81,4046.32 1512,4014.5C 1529.72,3978.38 1557.89,3954.55 1596.5,3943C 1613.62,3938.03 1630.95,3934.87 1648.5,3933.5 Z"/></g>
<g><path style="opacity:1" fill="#fdfdfd" d="M 1274.5,3986.5 C 1289.25,3985.45 1303.58,3987.29 1317.5,3992C 1341.44,4004.75 1350.6,4024.58 1345,4051.5C 1336.77,4076.88 1319.27,4089.22 1292.5,4088.5C 1264.52,4088.33 1245.35,4075.33 1235,4049.5C 1229.34,4016.39 1242.5,3995.39 1274.5,3986.5 Z"/></g>
<g><path style="opacity:1" fill="#fdfdfd" d="M 1642.5,4000.5 C 1685.55,3996.41 1711.38,4015.41 1720,4057.5C 1722.33,4072.26 1722,4086.93 1719,4101.5C 1709.47,4126.69 1691.3,4141.19 1664.5,4145C 1620.43,4148.7 1595.6,4128.53 1590,4084.5C 1585.65,4063.94 1588.65,4044.61 1599,4026.5C 1610.15,4012.18 1624.65,4003.51 1642.5,4000.5 Z"/></g>
<g><path style="opacity:1" fill="#fdfdfd" d="M 1249.5,4147.5 C 1271.21,4145.44 1290.88,4150.61 1308.5,4163C 1328.13,4182.52 1333.96,4205.69 1326,4232.5C 1311.71,4269.07 1285.21,4283.23 1246.5,4275C 1212.45,4264.43 1196.62,4241.27 1199,4205.5C 1202.27,4174.08 1219.1,4154.75 1249.5,4147.5 Z"/></g>
</svg>
