<?xml version="1.0" encoding="UTF-8"?>
<!DOCTYPE svg PUBLIC "-//W3C//DTD SVG 1.1//EN" "http://www.w3.org/Graphics/SVG/1.1/DTD/svg11.dtd">
<svg xmlns="http://www.w3.org/2000/svg" version="1.1" width="1200px" height="1840px" style="shape-rendering:geometricPrecision; text-rendering:geometricPrecision; image-rendering:optimizeQuality; fill-rule:evenodd; clip-rule:evenodd" xmlns:xlink="http://www.w3.org/1999/xlink">
<g><path style="opacity:0.992" fill="#dddde1" d="M 566.5,-0.5 C 588.5,-0.5 610.5,-0.5 632.5,-0.5C 710.201,7.56616 781.201,33.7328 845.5,78C 901.174,117.673 949.674,164.84 991,219.5C 1062.43,317.046 1114.77,424.379 1148,541.5C 1177.52,645.295 1194.69,750.961 1199.5,858.5C 1199.5,899.167 1199.5,939.833 1199.5,980.5C 1193.93,1114.18 1168.77,1244.18 1124,1370.5C 1086.55,1476.08 1032.22,1571.41 961,1656.5C 913.759,1711.44 858.593,1756.27 795.5,1791C 743.935,1818.05 689.269,1834.22 631.5,1839.5C 610.5,1839.5 589.5,1839.5 568.5,1839.5C 488.752,1831.75 416.085,1804.92 350.5,1759C 296.118,1719.62 248.618,1673.12 208,1619.5C 135.955,1521.07 83.288,1412.73 50,1294.5C 20.9158,1191.67 4.08248,1087 -0.5,980.5C -0.5,939.833 -0.5,899.167 -0.5,858.5C 4.98095,722.634 30.8143,590.634 77,462.5C 115.493,356.774 170.826,261.441 243,176.5C 274.794,141.359 309.627,109.859 347.5,82C 413.212,35.2612 486.212,7.76122 566.5,-0.5 Z"/></g>
<g><path style="opacity:1" fill="#1b2838" d="M 1051.5,411.5 C 1033.11,438.911 1012.78,464.911 990.5,489.5C 989.5,646.999 989.167,804.666 989.5,962.5C 1044.83,962.5 1100.17,962.5 1155.5,962.5C 1154.92,974.556 1154.25,986.556 1153.5,998.5C 1086.83,998.5 1020.17,998.5 953.5,998.5C 953.833,841.165 953.5,683.832 952.5,526.5C 911.685,561.765 866.352,590.265 816.5,612C 815.748,612.671 815.414,613.504 815.5,614.5C 814.5,742.332 814.167,870.332 814.5,998.5C 748.998,998.168 683.665,998.501 618.5,999.5C 618.5,1045.17 618.5,1090.83 618.5,1136.5C 683.833,1136.5 749.167,1136.5 814.5,1136.5C 814.5,1333.83 814.5,1531.17 814.5,1728.5C 802.942,1735.87 791.108,1742.87 779,1749.5C 778.833,1557.33 778.333,1365.33 777.5,1173.5C 724.5,1173.5 671.5,1173.5 618.5,1173.5C 618.5,1380.83 618.5,1588.17 618.5,1795.5C 567.134,1798.73 517.468,1791.07 469.5,1772.5C 469.667,1395.5 469.5,1018.5 469,641.5C 434.41,632.858 400.91,621.025 368.5,606C 349.611,596.391 330.944,586.557 312.5,576.5C 311.521,940.83 311.187,1305.16 311.5,1669.5C 249.301,1608.77 199.635,1539.1 162.5,1460.5C 162.833,1117.67 162.5,775 161.5,432.5C 157.255,424.917 152.588,417.583 147.5,410.5C 187.473,317.043 243.806,234.876 316.5,164C 361.512,121.703 412.846,89.0367 470.5,66C 584.271,26.5721 692.938,37.5721 796.5,99C 863.608,141.103 920.108,194.603 966,259.5C 983.665,284.821 1000.33,310.821 1016,337.5C 1028.29,361.255 1040.46,385.089 1052.5,409C 1051.75,409.671 1051.41,410.504 1051.5,411.5 Z"/></g>
<g><path style="opacity:1" fill="#fdfdfd" d="M 691.5,229.5 C 691.831,252.006 691.497,274.34 690.5,296.5C 688.275,293.111 685.275,290.611 681.5,289C 678.688,287.451 675.688,286.618 672.5,286.5C 660.011,285.505 647.344,285.171 634.5,285.5C 634.17,302.675 634.503,319.675 635.5,336.5C 635.333,360.169 635.5,383.836 636,407.5C 638.696,415.768 641.863,423.768 645.5,431.5C 618.831,431.667 592.165,431.5 565.5,431C 565.043,430.586 564.709,430.086 564.5,429.5C 569.094,422.648 572.927,415.315 576,407.5C 576.667,307.833 576.667,208.167 576,108.5C 573.079,100.998 569.912,93.6644 566.5,86.5C 592.454,83.3503 618.454,82.8503 644.5,85C 673.179,91.5597 701.013,100.726 728,112.5C 728.833,131.509 728.666,150.509 727.5,169.5C 718.32,162.405 708.32,156.572 697.5,152C 679.729,145.075 661.562,139.575 643,135.5C 639.455,135.039 636.788,136.372 635,139.5C 634.5,171.498 634.333,203.498 634.5,235.5C 647.837,235.667 661.171,235.5 674.5,235C 680.081,232.976 685.415,230.476 690.5,227.5C 691.298,227.957 691.631,228.624 691.5,229.5 Z"/></g>
<g><path style="opacity:1" fill="#fdfdfd" d="M 370.5,432.5 C 357.344,431.504 344.01,431.171 330.5,431.5C 330.5,430.5 330.5,429.5 330.5,428.5C 335.895,421.372 339.395,413.372 341,404.5C 341.667,342.833 341.667,281.167 341,219.5C 339.615,212.124 335.448,207.291 328.5,205C 354.656,178.955 382.656,155.289 412.5,134C 432.76,120.39 454.76,116.723 478.5,123C 513.214,136.24 528.048,161.407 523,198.5C 519.774,220.277 511.607,239.944 498.5,257.5C 530.499,268.01 548.999,290.01 554,323.5C 557.302,375.074 534.802,409.907 486.5,428C 482.109,429.181 477.776,430.514 473.5,432C 439.168,432.5 404.835,432.667 370.5,432.5 Z"/></g>
<g><path style="opacity:1" fill="#1c2939" d="M 437.5,179.5 C 456.514,178.012 466.181,186.845 466.5,206C 466.267,215.031 463.434,223.198 458,230.5C 440.709,249.562 419.876,263.229 395.5,271.5C 394.497,251.176 394.33,230.843 395,210.5C 407.128,197.181 421.295,186.847 437.5,179.5 Z"/></g>
<g><path style="opacity:1" fill="#fdfdfd" d="M 801.5,179.5 C 828.572,176.466 851.405,184.799 870,204.5C 870.455,208.814 869.455,212.814 867,216.5C 861,227.167 855,237.833 849,248.5C 833.454,231.783 815.621,228.95 795.5,240C 782.693,250.155 774.86,263.322 772,279.5C 767.623,302.208 768.956,324.541 776,346.5C 787.773,370.299 806.606,378.799 832.5,372C 840.207,369.065 847.374,365.231 854,360.5C 854.772,360.645 855.439,360.978 856,361.5C 860.983,375.111 865.983,388.778 871,402.5C 871.781,403.944 871.614,405.277 870.5,406.5C 858.281,417.608 843.948,424.441 827.5,427C 769.446,431.561 732.946,405.727 718,349.5C 716.566,342.898 715.566,336.232 715,329.5C 708.861,287.487 718.194,249.487 743,215.5C 758.567,196.973 778.067,184.973 801.5,179.5 Z"/></g>
<g><path style="opacity:1" fill="#828992" d="M 691.5,229.5 C 692.829,252.004 692.829,274.67 691.5,297.5C 690.893,297.376 690.56,297.043 690.5,296.5C 691.497,274.34 691.831,252.006 691.5,229.5 Z"/></g>
<g><path style="opacity:1" fill="#878e96" d="M 672.5,286.5 C 660.167,286.5 647.833,286.5 635.5,286.5C 635.5,303.167 635.5,319.833 635.5,336.5C 634.503,319.675 634.17,302.675 634.5,285.5C 647.344,285.171 660.011,285.505 672.5,286.5 Z"/></g>
<g><path style="opacity:1" fill="#1c2939" d="M 451.5,304.5 C 476.857,301.699 492.357,312.699 498,337.5C 499.661,350.349 495.161,360.516 484.5,368C 468.89,376.257 452.224,380.591 434.5,381C 421.838,381.5 409.171,381.667 396.5,381.5C 396.333,364.83 396.5,348.163 397,331.5C 412.903,317.798 431.07,308.798 451.5,304.5 Z"/></g>
<g><path style="opacity:1" fill="#9f1f33" d="M 147.5,410.5 C 152.588,417.583 157.255,424.917 161.5,432.5C 161.833,774.667 161.5,1116.67 160.5,1458.5C 110.475,1354.25 76.6414,1244.92 59,1130.5C 27.6728,929.834 40.6728,732.168 98,537.5C 110.443,497.292 125.109,457.958 142,419.5C 143.357,416.102 145.19,413.102 147.5,410.5 Z"/></g>
<g><path style="opacity:1" fill="#fefefe" d="M 1051.5,411.5 C 1052.5,411.414 1053.33,411.748 1054,412.5C 1109.11,538.59 1141.77,670.257 1152,807.5C 1156.05,858.752 1157.55,910.085 1156.5,961.5C 1101.17,961.5 1045.83,961.5 990.5,961.5C 990.5,804.167 990.5,646.833 990.5,489.5C 1012.78,464.911 1033.11,438.911 1051.5,411.5 Z"/></g>
<g><path style="opacity:1" fill="#acb0b6" d="M 330.5,428.5 C 330.5,429.5 330.5,430.5 330.5,431.5C 344.01,431.171 357.344,431.504 370.5,432.5C 356.5,432.5 342.5,432.5 328.5,432.5C 328.229,430.62 328.896,429.287 330.5,428.5 Z"/></g>
<g><path style="opacity:1" fill="#fcfcfc" d="M 628.5,460.5 C 647.485,460.911 661.318,469.577 670,486.5C 676.226,498.24 678.726,510.74 677.5,524C 678.48,539.764 674.647,554.264 666,567.5C 652.887,585.54 636.053,590.374 615.5,582C 596.339,566.5 587.339,546.334 588.5,521.5C 588.293,500.757 595.627,483.257 610.5,469C 616.006,464.898 622.006,462.065 628.5,460.5 Z"/></g>
<g><path style="opacity:1" fill="#fbfcfc" d="M 727.5,461.5 C 753.167,460.247 769.667,471.914 777,496.5C 781.391,521.999 773.891,543.166 754.5,560C 738.755,570.548 721.755,573.215 703.5,568C 701.58,562.803 700.913,557.303 701.5,551.5C 710.25,551.91 718.916,551.41 727.5,550C 733.635,547.698 737.969,543.531 740.5,537.5C 729.523,537.006 719.189,534.172 709.5,529C 697.567,518.461 693.067,505.294 696,489.5C 701.076,473.916 711.576,464.583 727.5,461.5 Z"/></g>
<g><path style="opacity:1" fill="#fcfcfc" d="M 514.5,462.5 C 534.479,460.074 549.645,467.407 560,484.5C 567.63,503.533 569.63,523.199 566,543.5C 554.533,576.983 532.033,588.15 498.5,577C 494.916,574.959 491.416,572.792 488,570.5C 487.5,564.175 487.334,557.842 487.5,551.5C 494.059,554.078 500.726,556.578 507.5,559C 517.965,561.657 526.798,559.157 534,551.5C 535.154,547.553 535.987,543.553 536.5,539.5C 525.37,542.341 514.036,543.174 502.5,542C 490.224,536.394 483.391,526.894 482,513.5C 478.711,487.396 489.545,470.396 514.5,462.5 Z"/></g>
<g><path style="opacity:1" fill="#fdfdfd" d="M 436.5,464.5 C 444.84,464.691 453.174,465.024 461.5,465.5C 461.5,500.167 461.5,534.833 461.5,569.5C 451.85,566.26 442.35,562.593 433,558.5C 432.667,536.5 432.333,514.5 432,492.5C 431.667,492.167 431.333,491.833 431,491.5C 425.328,493.182 419.494,493.849 413.5,493.5C 413.5,488.5 413.5,483.5 413.5,478.5C 423.591,477.629 431.258,472.963 436.5,464.5 Z"/></g>
<g><path style="opacity:1" fill="#1e2a3a" d="M 517.5,484.5 C 533.682,484.197 540.515,492.197 538,508.5C 533.351,519.581 525.518,523.081 514.5,519C 507.779,512.584 505.612,504.75 508,495.5C 509.627,490.382 512.793,486.715 517.5,484.5 Z"/></g>
<g><path style="opacity:1" fill="#1e2b3b" d="M 732.5,484.5 C 745.066,483.985 751.233,489.985 751,502.5C 748.137,513.505 741.303,517.671 730.5,515C 722.244,508.275 720.411,500.108 725,490.5C 727.114,487.879 729.614,485.879 732.5,484.5 Z"/></g>
<g><path style="opacity:1" fill="#1c2939" d="M 629.5,486.5 C 638.159,486.584 644.325,490.584 648,498.5C 649.732,502.363 651.066,506.363 652,510.5C 652.667,518.833 652.667,527.167 652,535.5C 650.272,544.127 646.105,551.294 639.5,557C 632.832,559.773 626.998,558.607 622,553.5C 618.246,547.992 615.58,541.992 614,535.5C 613.333,526.167 613.333,516.833 614,507.5C 616.287,498.212 621.454,491.212 629.5,486.5 Z"/></g>
<g><path style="opacity:1" fill="#9f1f33" d="M 1153.5,998.5 C 1151.29,1044.95 1146.29,1090.95 1138.5,1136.5C 1076.83,1136.5 1015.17,1136.5 953.5,1136.5C 953.5,1289.5 953.5,1442.5 953.5,1595.5C 915.253,1647.08 869.586,1690.75 816.5,1726.5C 815.833,1529.83 815.167,1333.17 814.5,1136.5C 749.167,1136.5 683.833,1136.5 618.5,1136.5C 618.5,1090.83 618.5,1045.17 618.5,999.5C 684.167,999.5 749.833,999.5 815.5,999.5C 815.5,871.167 815.5,742.833 815.5,614.5C 815.414,613.504 815.748,612.671 816.5,612C 866.352,590.265 911.685,561.765 952.5,526.5C 953.5,683.832 953.833,841.165 953.5,998.5C 1020.17,998.5 1086.83,998.5 1153.5,998.5 Z"/></g>
<g><path style="opacity:1" fill="#9e1f33" d="M 469.5,1772.5 C 409.759,1748.65 357.093,1714.32 311.5,1669.5C 311.187,1305.16 311.521,940.83 312.5,576.5C 330.944,586.557 349.611,596.391 368.5,606C 400.91,621.025 434.41,632.858 469,641.5C 469.5,1018.5 469.667,1395.5 469.5,1772.5 Z"/></g>
<g><path style="opacity:1" fill="#fefefe" d="M 777.5,627.5 C 777.5,738.833 777.5,850.167 777.5,961.5C 724.833,961.5 672.167,961.5 619.5,961.5C 619.5,860.167 619.5,758.833 619.5,657.5C 673.357,654.207 726.024,644.207 777.5,627.5 Z"/></g>
<g><path style="opacity:1" fill="#aeb3b9" d="M 777.5,627.5 C 778.499,738.999 778.833,850.665 778.5,962.5C 725.167,962.5 671.833,962.5 618.5,962.5C 618.167,860.665 618.501,758.999 619.5,657.5C 619.5,758.833 619.5,860.167 619.5,961.5C 672.167,961.5 724.833,961.5 777.5,961.5C 777.5,850.167 777.5,738.833 777.5,627.5 Z"/></g>
<g><path style="opacity:1" fill="#974a59" d="M 815.5,614.5 C 815.5,742.833 815.5,871.167 815.5,999.5C 749.833,999.5 684.167,999.5 618.5,999.5C 683.665,998.501 748.998,998.168 814.5,998.5C 814.167,870.332 814.5,742.332 815.5,614.5 Z"/></g>
<g><path style="opacity:1" fill="#1b2838" d="M 1138.5,1136.5 C 1136.6,1148.89 1134.6,1161.22 1132.5,1173.5C 1085.17,1173.5 1037.83,1173.5 990.5,1173.5C 989.667,1297.33 989.167,1421.33 989,1545.5C 977.692,1562.62 965.859,1579.29 953.5,1595.5C 953.5,1442.5 953.5,1289.5 953.5,1136.5C 1015.17,1136.5 1076.83,1136.5 1138.5,1136.5 Z"/></g>
<g><path style="opacity:1" fill="#fefefe" d="M 777.5,1173.5 C 777.667,1365.83 777.5,1558.17 777,1750.5C 727.482,1777.25 674.648,1792.25 618.5,1795.5C 618.5,1588.17 618.5,1380.83 618.5,1173.5C 671.5,1173.5 724.5,1173.5 777.5,1173.5 Z"/></g>
<g><path style="opacity:1" fill="#fefefe" d="M 990.5,1173.5 C 1037.83,1173.5 1085.17,1173.5 1132.5,1173.5C 1112.52,1280.61 1077.69,1382.61 1028,1479.5C 1016.59,1500.66 1004.42,1521.33 991.5,1541.5C 990.5,1418.84 990.167,1296.17 990.5,1173.5 Z"/></g>
<g><path style="opacity:1" fill="#af5b69" d="M 161.5,432.5 C 162.5,775 162.833,1117.67 162.5,1460.5C 161.5,1460.17 160.833,1459.5 160.5,1458.5C 161.5,1116.67 161.833,774.667 161.5,432.5 Z"/></g>
<g><path style="opacity:1" fill="#844f5d" d="M 814.5,1136.5 C 815.167,1333.17 815.833,1529.83 816.5,1726.5C 816.167,1727.5 815.5,1728.17 814.5,1728.5C 814.5,1531.17 814.5,1333.83 814.5,1136.5 Z"/></g>
</svg>
