<?xml version="1.0" encoding="UTF-8"?>
<!DOCTYPE svg PUBLIC "-//W3C//DTD SVG 1.1//EN" "http://www.w3.org/Graphics/SVG/1.1/DTD/svg11.dtd">
<svg xmlns="http://www.w3.org/2000/svg" version="1.1" width="1250px" height="1250px" style="shape-rendering:geometricPrecision; text-rendering:geometricPrecision; image-rendering:optimizeQuality; fill-rule:evenodd; clip-rule:evenodd" xmlns:xlink="http://www.w3.org/1999/xlink">
<g><path style="opacity:0.936" fill="#f6db22" d="M 462.5,39.5 C 476.143,38.4413 487.643,42.7746 497,52.5C 497.833,54.1667 498.667,55.8333 499.5,57.5C 495.326,60.0877 490.993,62.421 486.5,64.5C 476.856,55.0058 465.856,52.8391 453.5,58C 447.399,62.3595 447.066,67.0262 452.5,72C 464.441,75.0905 476.441,78.0905 488.5,81C 497.743,85.8087 502.409,93.4754 502.5,104C 500.903,120.264 491.903,129.264 475.5,131C 461.89,133.362 449.223,131.029 437.5,124C 432.928,120.179 429.595,115.512 427.5,110C 432.008,107.246 436.674,104.746 441.5,102.5C 450.548,115.237 462.548,119.071 477.5,114C 486.358,109.138 487.358,103.138 480.5,96C 478.043,94.4379 475.376,93.4379 472.5,93C 460.292,92.4303 448.958,89.0969 438.5,83C 430.252,73.0987 429.419,62.5987 436,51.5C 443.294,43.9098 452.128,39.9098 462.5,39.5 Z"/></g>
<g><path style="opacity:0.944" fill="#f6db22" d="M 794.5,41.5 C 833.505,40.0048 851.005,58.6714 847,97.5C 841.22,119.762 826.72,131.095 803.5,131.5C 779.907,131.069 765.407,119.402 760,96.5C 756.017,73.3063 764.184,56.1396 784.5,45C 787.98,43.8974 791.313,42.7308 794.5,41.5 Z M 800.5,56.5 C 818.16,56.4093 828.327,65.076 831,82.5C 831.904,105.931 820.737,116.765 797.5,115C 786.23,112.063 779.397,104.897 777,93.5C 773.8,73.8586 781.633,61.5253 800.5,56.5 Z"/></g>
<g><path style="opacity:0.939" fill="#f6db22" d="M 1149.5,41.5 C 1165.77,39.0596 1179.77,43.3929 1191.5,54.5C 1188.17,58.5 1184.5,62.1667 1180.5,65.5C 1165.4,54.3285 1150.9,54.9952 1137,67.5C 1127.25,82.875 1128.75,97.0417 1141.5,110C 1155.6,117.915 1168.93,116.749 1181.5,106.5C 1184.99,110.125 1188.49,113.791 1192,117.5C 1192.67,118.167 1192.67,118.833 1192,119.5C 1172.88,133.711 1152.72,135.211 1131.5,124C 1117.67,112.855 1111.83,98.3547 1114,80.5C 1117.18,59.368 1129.02,46.368 1149.5,41.5 Z"/></g>
<g><path style="opacity:0.964" fill="#f6db22" d="M 56.5,42.5 C 62.1667,42.5 67.8333,42.5 73.5,42.5C 73.5,54.8333 73.5,67.1667 73.5,79.5C 87.1667,79.5 100.833,79.5 114.5,79.5C 114.5,67.1667 114.5,54.8333 114.5,42.5C 120.167,42.5 125.833,42.5 131.5,42.5C 131.5,71.5 131.5,100.5 131.5,129.5C 125.833,129.5 120.167,129.5 114.5,129.5C 114.5,117.833 114.5,106.167 114.5,94.5C 100.833,94.5 87.1667,94.5 73.5,94.5C 73.5,106.167 73.5,117.833 73.5,129.5C 67.8333,129.5 62.1667,129.5 56.5,129.5C 56.5,100.5 56.5,71.5 56.5,42.5 Z"/></g>
<g><path style="opacity:0.942" fill="#f6db22" d="M 143.5,42.5 C 165.167,42.5 186.833,42.5 208.5,42.5C 208.5,48.1667 208.5,53.8333 208.5,59.5C 192.5,59.5 176.5,59.5 160.5,59.5C 160.5,65.8333 160.5,72.1667 160.5,78.5C 176.167,78.5 191.833,78.5 207.5,78.5C 207.5,83.8333 207.5,89.1667 207.5,94.5C 191.833,94.5 176.167,94.5 160.5,94.5C 160.5,100.5 160.5,106.5 160.5,112.5C 176.5,112.5 192.5,112.5 208.5,112.5C 208.5,118.167 208.5,123.833 208.5,129.5C 186.833,129.5 165.167,129.5 143.5,129.5C 143.5,100.5 143.5,71.5 143.5,42.5 Z"/></g>
<g><path style="opacity:0.941" fill="#f6db22" d="M 217.5,42.5 C 223.167,42.5 228.833,42.5 234.5,42.5C 234.5,66.1667 234.5,89.8333 234.5,113.5C 249.167,113.5 263.833,113.5 278.5,113.5C 278.5,118.833 278.5,124.167 278.5,129.5C 258.167,129.5 237.833,129.5 217.5,129.5C 217.5,100.5 217.5,71.5 217.5,42.5 Z"/></g>
<g><path style="opacity:0.935" fill="#f6db22" d="M 282.5,42.5 C 288.5,42.5 294.5,42.5 300.5,42.5C 300.5,66.1667 300.5,89.8333 300.5,113.5C 315.515,113.833 330.515,113.499 345.5,112.5C 355.639,89.4163 365.973,66.4163 376.5,43.5C 382.833,42.1667 389.167,42.1667 395.5,43.5C 408.734,71.9638 421.401,100.63 433.5,129.5C 427.132,129.83 420.798,129.496 414.5,128.5C 412.5,123.833 410.5,119.167 408.5,114.5C 393.5,113.167 378.5,113.167 363.5,114.5C 361.567,119.532 359.234,124.365 356.5,129C 331.836,129.5 307.169,129.667 282.5,129.5C 282.5,100.5 282.5,71.5 282.5,42.5 Z M 385.5,62.5 C 390.476,73.732 395.476,85.0653 400.5,96.5C 390.833,97.8333 381.167,97.8333 371.5,96.5C 376.371,85.2114 381.038,73.878 385.5,62.5 Z"/></g>
<g><path style="opacity:0.938" fill="#f6db22" d="M 517.5,42.5 C 523.868,42.1703 530.202,42.5037 536.5,43.5C 544.741,64.9759 553.241,86.3092 562,107.5C 570.333,86.1667 578.667,64.8333 587,43.5C 593.444,42.19 599.944,42.19 606.5,43.5C 594.433,72.042 582.766,100.709 571.5,129.5C 565.132,129.83 558.798,129.496 552.5,128.5C 540.433,99.958 528.766,71.2913 517.5,42.5 Z"/></g>
<g><path style="opacity:0.936" fill="#f6db22" d="M 608.5,42.5 C 630.5,42.5 652.5,42.5 674.5,42.5C 674.5,48.1667 674.5,53.8333 674.5,59.5C 658.167,59.5 641.833,59.5 625.5,59.5C 625.5,65.8333 625.5,72.1667 625.5,78.5C 641.167,78.5 656.833,78.5 672.5,78.5C 672.5,83.8333 672.5,89.1667 672.5,94.5C 656.833,94.5 641.167,94.5 625.5,94.5C 625.5,100.5 625.5,106.5 625.5,112.5C 641.833,112.5 658.167,112.5 674.5,112.5C 674.5,118.167 674.5,123.833 674.5,129.5C 652.5,129.5 630.5,129.5 608.5,129.5C 608.5,100.5 608.5,71.5 608.5,42.5 Z"/></g>
<g><path style="opacity:0.951" fill="#f6db22" d="M 683.5,42.5 C 698.504,42.3334 713.504,42.5001 728.5,43C 750.418,47.3083 758.918,60.475 754,82.5C 750.652,91.608 744.152,97.108 734.5,99C 743.038,107.869 751.204,117.036 759,126.5C 759.483,127.448 759.649,128.448 759.5,129.5C 753.158,129.666 746.825,129.5 740.5,129C 731.796,119.964 723.462,110.631 715.5,101C 710.511,100.501 705.511,100.334 700.5,100.5C 700.5,110.167 700.5,119.833 700.5,129.5C 694.833,129.5 689.167,129.5 683.5,129.5C 683.5,100.5 683.5,71.5 683.5,42.5 Z M 700.5,58.5 C 710.557,58.1355 720.557,58.6355 730.5,60C 738.234,64.8645 740.067,71.3645 736,79.5C 734.457,81.3783 732.624,82.8783 730.5,84C 720.58,85.4234 710.58,85.9234 700.5,85.5C 700.5,76.5 700.5,67.5 700.5,58.5 Z"/></g>
<g><path style="opacity:0.949" fill="#f6db22" d="M 855.5,42.5 C 860.179,42.3342 864.845,42.5008 869.5,43C 884,61.5 898.5,80 913,98.5C 913.5,79.8363 913.667,61.1696 913.5,42.5C 919.167,42.5 924.833,42.5 930.5,42.5C 930.5,71.5 930.5,100.5 930.5,129.5C 925.821,129.666 921.155,129.499 916.5,129C 901.62,111.122 887.12,92.9551 873,74.5C 872.5,92.8303 872.333,111.164 872.5,129.5C 866.833,129.5 861.167,129.5 855.5,129.5C 855.5,100.5 855.5,71.5 855.5,42.5 Z"/></g>
<g><path style="opacity:0.943" fill="#f6db22" d="M 971.5,42.5 C 977.833,42.5 984.167,42.5 990.5,42.5C 1002.6,71.3695 1015.27,100.036 1028.5,128.5C 1022.17,129.833 1015.83,129.833 1009.5,128.5C 1007.45,123.52 1005.12,118.686 1002.5,114C 987.822,113.167 973.155,113.334 958.5,114.5C 956.022,119.288 953.689,124.121 951.5,129C 945.509,129.499 939.509,129.666 933.5,129.5C 945.776,100.342 958.443,71.3416 971.5,42.5 Z M 980.5,63.5 C 985.725,74.2907 990.725,85.2907 995.5,96.5C 985.517,97.6656 975.517,97.8322 965.5,97C 970.643,85.8817 975.643,74.715 980.5,63.5 Z"/></g>
<g><path style="opacity:0.952" fill="#f6db22" d="M 1049.5,42.5 C 1070.17,42.5 1090.83,42.5 1111.5,42.5C 1111.5,48.1667 1111.5,53.8333 1111.5,59.5C 1096.5,59.5 1081.5,59.5 1066.5,59.5C 1066.5,66.8333 1066.5,74.1667 1066.5,81.5C 1080.83,81.5 1095.17,81.5 1109.5,81.5C 1109.5,86.8333 1109.5,92.1667 1109.5,97.5C 1095.17,97.5 1080.83,97.5 1066.5,97.5C 1066.5,108.167 1066.5,118.833 1066.5,129.5C 1060.83,129.5 1055.17,129.5 1049.5,129.5C 1049.5,100.5 1049.5,71.5 1049.5,42.5 Z"/></g>
<g><path style="opacity:0.994" fill="#f6db22" d="M 312.5,221.5 C 315.534,224.505 318.368,227.838 321,231.5C 386.944,326.443 453.277,421.11 520,515.5C 510.401,682.175 500.235,848.842 489.5,1015.5C 409.504,897.326 329.671,778.993 250,660.5C 247.527,659.88 245.027,659.214 242.5,658.5C 224.821,657.825 207.155,656.992 189.5,656C 179.342,653.836 171.509,648.336 166,639.5C 160.551,630.153 156.884,620.153 155,609.5C 151.699,576.791 148.032,544.125 144,511.5C 137.237,485.068 121.404,466.235 96.5,455C 83.835,449 70.5016,446.167 56.5,446.5C 56.5,431.5 56.5,416.5 56.5,401.5C 82.5,401.5 108.5,401.5 134.5,401.5C 134.333,383.83 134.5,366.164 135,348.5C 137.535,337.627 144.035,330.127 154.5,326C 198.098,307.533 241.431,288.533 284.5,269C 288,265.5 291.5,262 295,258.5C 300.847,246.14 306.681,233.807 312.5,221.5 Z M 202.5,354.5 C 222.932,367.083 243.265,379.916 263.5,393C 266.147,394.625 267.814,396.959 268.5,400C 224.512,401.748 180.512,401.914 136.5,400.5C 137.648,398.851 138.981,397.351 140.5,396C 161.749,382.887 182.416,369.054 202.5,354.5 Z"/></g>
<g><path style="opacity:0.994" fill="#f6db22" d="M 934.5,221.5 C 935.496,221.414 936.329,221.748 937,222.5C 942.667,234.5 948.333,246.5 954,258.5C 958.199,263.034 962.699,267.201 967.5,271C 1013.03,290.619 1058.37,310.619 1103.5,331C 1108.93,335.699 1112.43,341.532 1114,348.5C 1114.5,366.164 1114.67,383.83 1114.5,401.5C 1140.5,401.5 1166.5,401.5 1192.5,401.5C 1192.5,416.5 1192.5,431.5 1192.5,446.5C 1161.43,446.952 1136.26,459.285 1117,483.5C 1111.36,492.117 1107.36,501.45 1105,511.5C 1100.97,544.125 1097.3,576.791 1094,609.5C 1091.52,625.285 1084.69,638.785 1073.5,650C 1069.32,653.09 1064.65,655.09 1059.5,656C 1041.85,656.992 1024.18,657.825 1006.5,658.5C 1003.97,659.214 1001.47,659.88 999,660.5C 919.329,778.993 839.496,897.326 759.5,1015.5C 748.765,848.842 738.599,682.175 729,515.5C 797.766,417.617 866.266,319.617 934.5,221.5 Z M 1044.5,354.5 C 1065.61,368.561 1086.94,382.395 1108.5,396C 1110.02,397.351 1111.35,398.851 1112.5,400.5C 1068.49,401.914 1024.49,401.748 980.5,400C 981.186,396.959 982.853,394.625 985.5,393C 1005.57,380.64 1025.24,367.807 1044.5,354.5 Z"/></g>
<g><path style="opacity:0.986" fill="#f6db22" d="M 56.5,471.5 C 95.6311,473.796 117.464,494.463 122,533.5C 124.909,562.519 127.909,591.519 131,620.5C 133.875,634.417 140.042,646.584 149.5,657C 118.498,657.469 87.4981,657.969 56.5,658.5C 56.5,596.167 56.5,533.833 56.5,471.5 Z"/></g>
<g><path style="opacity:0.986" fill="#f6db22" d="M 1183.5,471.5 C 1186.5,471.5 1189.5,471.5 1192.5,471.5C 1192.5,533.833 1192.5,596.167 1192.5,658.5C 1161.5,657.969 1130.5,657.469 1099.5,657C 1108.06,647.714 1113.9,636.88 1117,624.5C 1118.98,616.609 1120.32,608.609 1121,600.5C 1121.72,572.579 1124.72,544.912 1130,517.5C 1138.18,490.814 1156.01,475.481 1183.5,471.5 Z"/></g>
<g><path style="opacity:0.972" fill="#f6db22" d="M 559.5,573.5 C 580.915,601.983 602.582,630.317 624.5,658.5C 646.474,630.564 667.974,602.231 689,573.5C 691.286,603.78 692.786,634.113 693.5,664.5C 647.5,664.5 601.5,664.5 555.5,664.5C 556.38,634.139 557.713,603.806 559.5,573.5 Z"/></g>
<g><path style="opacity:0.967" fill="#f6db22" d="M 552.5,706.5 C 600.5,706.5 648.5,706.5 696.5,706.5C 697.535,721.498 698.535,736.498 699.5,751.5C 649.5,751.5 599.5,751.5 549.5,751.5C 550.465,736.498 551.465,721.498 552.5,706.5 Z"/></g>
<g><path style="opacity:0.995" fill="#f6db22" d="M 547.5,793.5 C 598.833,793.5 650.167,793.5 701.5,793.5C 701.945,808.179 702.612,822.846 703.5,837.5C 650.833,837.5 598.167,837.5 545.5,837.5C 546.388,822.846 547.055,808.179 547.5,793.5 Z"/></g>
<g><path style="opacity:0.968" fill="#f6db22" d="M 543.5,879.5 C 597.5,879.5 651.5,879.5 705.5,879.5C 706.357,894.49 707.023,909.49 707.5,924.5C 652.167,924.5 596.833,924.5 541.5,924.5C 541.977,909.49 542.643,894.49 543.5,879.5 Z"/></g>
<g><path style="opacity:0.988" fill="#f6db22" d="M 539.5,965.5 C 596.167,965.5 652.833,965.5 709.5,965.5C 711.745,1003.14 713.245,1040.81 714,1078.5C 684.362,1122.3 654.529,1165.97 624.5,1209.5C 594.471,1165.97 564.638,1122.3 535,1078.5C 535.755,1040.81 537.255,1003.14 539.5,965.5 Z"/></g>
</svg>
