<?xml version="1.0" encoding="UTF-8"?>
<!DOCTYPE svg PUBLIC "-//W3C//DTD SVG 1.1//EN" "http://www.w3.org/Graphics/SVG/1.1/DTD/svg11.dtd">
<svg xmlns="http://www.w3.org/2000/svg" version="1.1" width="1200px" height="1200px" style="shape-rendering:geometricPrecision; text-rendering:geometricPrecision; image-rendering:optimizeQuality; fill-rule:evenodd; clip-rule:evenodd" xmlns:xlink="http://www.w3.org/1999/xlink">
<g><path style="opacity:0.993" fill="#a19061" d="M 565.5,-0.5 C 588.167,-0.5 610.833,-0.5 633.5,-0.5C 824.667,14.8053 976.834,99.1386 1090,252.5C 1155.4,346.199 1191.9,450.199 1199.5,564.5C 1199.5,587.5 1199.5,610.5 1199.5,633.5C 1184.19,824.668 1099.86,976.835 946.5,1090C 852.505,1155.61 748.172,1192.11 633.5,1199.5C 610.833,1199.5 588.167,1199.5 565.5,1199.5C 374.332,1184.19 222.165,1099.86 109,946.5C 43.5979,852.801 7.09792,748.801 -0.5,634.5C -0.5,611.167 -0.5,587.833 -0.5,564.5C 15.1004,373.741 99.4337,221.908 252.5,109C 346.494,43.3887 450.827,6.88871 565.5,-0.5 Z"/></g>
<g><path style="opacity:1" fill="#0366aa" d="M 565.5,37.5 C 742.084,31.4162 891.25,91.7496 1013,218.5C 1128.56,348.217 1176.56,499.883 1157,673.5C 1134.3,826.126 1062.8,949.959 942.5,1045C 814.088,1141.1 670.088,1177.77 510.5,1155C 344.652,1124.89 215.818,1039.72 124,899.5C 56.1339,789.385 28.1339,669.718 40,540.5C 61.7256,374.138 139.559,241.305 273.5,142C 361.063,80.0885 458.396,45.2552 565.5,37.5 Z"/></g>
<g><path style="opacity:1" fill="#010101" d="M 569.5,99.5 C 723.789,93.9434 854.956,145.61 963,254.5C 1071.32,374.143 1114.98,514.476 1094,675.5C 1071.38,811.316 1005.55,920.483 896.5,1003C 784.038,1082.28 659.371,1112.61 522.5,1094C 366.445,1066.46 247.612,985.29 166,850.5C 93.8251,718.239 80.4918,580.239 126,436.5C 178.275,292.225 275.442,191.058 417.5,133C 466.758,114.844 517.424,103.678 569.5,99.5 Z"/></g>
<g><path style="opacity:1" fill="#a29161" d="M 573.5,159.5 C 725.671,155.355 849.838,211.688 946,328.5C 1034.2,446.163 1059.87,576.497 1023,719.5C 983.124,849.108 901.957,942.942 779.5,1001C 655.066,1053.97 531.399,1052.3 408.5,996C 274.091,926.783 192.924,817.616 165,668.5C 144.305,508.823 193.138,374.989 311.5,267C 386.941,202.798 474.275,166.964 573.5,159.5 Z"/></g>
<g><path style="opacity:1" fill="#fefefe" d="M 573.5,199.5 C 688.164,194.88 788.164,230.38 873.5,306C 897.941,329.609 919.274,355.609 937.5,384C 923.333,400.167 909.167,416.333 895,432.5C 836.836,335.128 751.336,278.295 638.5,262C 506.926,251.054 401.426,297.888 322,402.5C 260.954,492.11 244.62,589.444 273,694.5C 307.295,802.462 377.128,877.296 482.5,919C 579.85,952.198 673.85,944.531 764.5,896C 820.385,862.948 864.719,818.448 897.5,762.5C 911.49,777.993 925.324,793.659 939,809.5C 937.004,813.813 934.671,818.146 932,822.5C 856.36,929.299 752.86,988.132 621.5,999C 476.832,1003.24 360.999,948.074 274,833.5C 211.877,743.928 188.543,644.928 204,536.5C 223.087,427.191 276.921,339.691 365.5,274C 427.917,230.026 497.251,205.193 573.5,199.5 Z"/></g>
<g><path style="opacity:1" fill="#fefefe" d="M 575.5,277.5 C 593.872,277.279 612.206,277.946 630.5,279.5C 630.5,319.5 630.5,359.5 630.5,399.5C 609.833,399.5 589.167,399.5 568.5,399.5C 568.333,359.499 568.5,319.499 569,279.5C 571.277,278.883 573.444,278.216 575.5,277.5 Z"/></g>
<g><path style="opacity:1" fill="#fefefe" d="M 522.5,348.5 C 521.502,371.327 521.169,394.327 521.5,417.5C 583.002,417.168 644.336,417.501 705.5,418.5C 687.827,436.84 670.494,455.506 653.5,474.5C 610.167,474.5 566.833,474.5 523.5,474.5C 523.831,504.005 523.498,533.338 522.5,562.5C 502.54,540.037 482.374,517.704 462,495.5C 461.667,455.833 461.333,416.167 461,376.5C 447.833,362 434.667,347.5 421.5,333C 460.135,305.283 503.135,288.45 550.5,282.5C 550.5,302.167 550.5,321.833 550.5,341.5C 540.78,342.719 531.447,345.052 522.5,348.5 Z"/></g>
<g><path style="opacity:1" fill="#fefefe" d="M 648.5,282.5 C 696.124,289.206 739.791,306.039 779.5,333C 766.298,347.865 752.798,362.365 739,376.5C 710.888,359.694 680.721,348.36 648.5,342.5C 648.5,322.5 648.5,302.5 648.5,282.5 Z"/></g>
<g><path style="opacity:1" fill="#fefefe" d="M 552.5,619.5 C 552.831,649.671 552.498,679.671 551.5,709.5C 506.138,659.807 460.805,610.141 415.5,560.5C 414.831,660.598 414.164,761.264 413.5,862.5C 390.695,846.868 370.528,828.201 353,806.5C 352.667,701.5 352.333,596.5 352,491.5C 340,478.167 328,464.833 316,451.5C 324.583,432.366 335.749,414.699 349.5,398.5C 350.002,397.479 350.668,397.312 351.5,398C 418.707,471.704 485.707,545.537 552.5,619.5 Z"/></g>
<g><path style="opacity:1" fill="#fefefe" d="M 785.5,860.5 C 784.836,759.931 784.169,659.931 783.5,560.5C 738.902,610.27 694.069,659.937 649,709.5C 648.333,679.167 648.333,648.833 649,618.5C 715.344,544.658 781.844,470.992 848.5,397.5C 861.775,413.217 873.442,430.051 883.5,448C 871.719,462.118 859.552,475.952 847,489.5C 846.667,595.167 846.333,700.833 846,806.5C 827.8,826.876 807.633,844.876 785.5,860.5 Z"/></g>
<g><path style="opacity:1" fill="#b5a781" d="M 522.5,348.5 C 522.5,371.167 522.5,393.833 522.5,416.5C 583.837,416.167 645.17,416.5 706.5,417.5C 706.376,418.107 706.043,418.44 705.5,418.5C 644.336,417.501 583.002,417.168 521.5,417.5C 521.169,394.327 521.502,371.327 522.5,348.5 Z"/></g>
<g><path style="opacity:1" fill="#d1c9b1" d="M 653.5,474.5 C 610.67,475.499 567.67,475.832 524.5,475.5C 524.833,504.841 524.5,534.174 523.5,563.5C 522.893,563.376 522.56,563.043 522.5,562.5C 523.498,533.338 523.831,504.005 523.5,474.5C 566.833,474.5 610.167,474.5 653.5,474.5 Z"/></g>
<g><path style="opacity:1" fill="#fefefe" d="M 568.5,492.5 C 589.167,492.5 609.833,492.5 630.5,492.5C 630.5,634.833 630.5,777.167 630.5,919.5C 609.851,922.072 589.184,922.072 568.5,919.5C 568.5,777.167 568.5,634.833 568.5,492.5 Z"/></g>
<g><path style="opacity:1" fill="#d5ceb8" d="M 415.5,560.5 C 415.833,661.502 415.5,762.502 414.5,863.5C 413.893,863.376 413.56,863.043 413.5,862.5C 414.164,761.264 414.831,660.598 415.5,560.5 Z"/></g>
<g><path style="opacity:1" fill="#d5ceb8" d="M 785.5,860.5 C 785.44,861.043 785.107,861.376 784.5,861.5C 783.5,761.169 783.167,660.836 783.5,560.5C 784.169,659.931 784.836,759.931 785.5,860.5 Z"/></g>
<g><path style="opacity:1" fill="#c0b595" d="M 552.5,619.5 C 553.83,649.669 553.83,680.003 552.5,710.5C 551.893,710.376 551.56,710.043 551.5,709.5C 552.498,679.671 552.831,649.671 552.5,619.5 Z"/></g>
<g><path style="opacity:1" fill="#fefefe" d="M 459.5,635.5 C 480.504,657.673 501.004,680.339 521,703.5C 521.833,772.502 521.667,841.502 520.5,910.5C 499.571,905.287 479.405,897.953 460,888.5C 459.5,804.167 459.333,719.834 459.5,635.5 Z"/></g>
</svg>
