<?xml version="1.0" encoding="UTF-8"?>
<!DOCTYPE svg PUBLIC "-//W3C//DTD SVG 1.1//EN" "http://www.w3.org/Graphics/SVG/1.1/DTD/svg11.dtd">
<svg xmlns="http://www.w3.org/2000/svg" version="1.1" width="5000px" height="3400px" style="shape-rendering:geometricPrecision; text-rendering:geometricPrecision; image-rendering:optimizeQuality; fill-rule:evenodd; clip-rule:evenodd" xmlns:xlink="http://www.w3.org/1999/xlink">
<g><path style="opacity:0.569" fill="#c69b17" d="M 871.5,50.5 C 597.666,50.1669 323.999,50.5002 50.5,51.5C 49.9569,51.44 49.6236,51.1067 49.5,50.5C 186.5,50.1667 323.5,49.8333 460.5,49.5C 597.667,49.5 734.667,49.8333 871.5,50.5 Z"/></g>
<g><path style="opacity:1" fill="#d8a802" d="M 871.5,50.5 C 1160.17,50.3333 1448.83,50.5 1737.5,51C 1850.18,56.0017 1956.18,85.0017 2055.5,138C 2114.63,170.431 2166.8,211.931 2212,262.5C 2240.35,300.186 2272.85,334.019 2309.5,364C 2403.35,434.766 2505.01,448.099 2614.5,404C 2664.89,382.323 2711.22,354.323 2753.5,320C 2788.43,289.407 2822.43,257.74 2855.5,225C 2901.94,180.774 2953.94,144.441 3011.5,116C 3084.92,82.7275 3161.92,63.0609 3242.5,57C 3258.15,55.6938 3273.81,54.6938 3289.5,54C 3674.17,53.3333 4058.83,53.3333 4443.5,54C 4612.17,54.1667 4780.83,54.6667 4949.5,55.5C 4933.18,72.3216 4915.52,87.4882 4896.5,101C 4819.64,154.591 4735.97,194.591 4645.5,221C 4620.33,228.293 4595,234.959 4569.5,241C 4493.59,314.956 4402.92,360.289 4297.5,377C 4282.33,394.498 4265,409.498 4245.5,422C 4186.48,456.825 4123.15,480.491 4055.5,493C 4021.59,529.843 3980.25,554.843 3931.5,568C 3915.35,572.231 3899.01,575.564 3882.5,578C 3863.44,602.881 3839.44,621.548 3810.5,634C 3778.88,647.39 3745.88,654.39 3711.5,655C 3696.17,655.5 3680.84,655.667 3665.5,655.5C 3649.07,653.537 3632.41,652.87 3615.5,653.5C 3614.31,664.152 3613.31,674.819 3612.5,685.5C 3628.7,680.895 3644.03,674.395 3658.5,666C 3661.48,663.175 3663.81,660.008 3665.5,656.5C 3678.17,656.333 3690.84,656.5 3703.5,657C 3661.78,712.805 3606.45,747.305 3537.5,760.5C 3524.21,762.661 3510.88,764.495 3497.5,766C 3480.56,781.916 3461.22,794.25 3439.5,803C 3414.42,812.52 3388.75,820.02 3362.5,825.5C 3353.64,841.86 3340.97,854.36 3324.5,863C 3293.4,878.693 3260.4,887.359 3225.5,889C 3225.96,889.414 3226.29,889.914 3226.5,890.5C 3221.03,900.475 3213.36,908.308 3203.5,914C 3187.03,923.38 3169.36,929.38 3150.5,932C 3076.18,1001.99 2988.18,1044.49 2886.5,1059.5C 2878.7,1079.11 2867.87,1096.77 2854,1112.5C 2833,1134.84 2810.17,1155.01 2785.5,1173C 2794.47,1186.44 2801.14,1200.94 2805.5,1216.5C 2808.19,1223.92 2809.86,1231.59 2810.5,1239.5C 2810.34,1240.87 2810.51,1242.21 2811,1243.5C 2811.33,1242.83 2811.67,1242.17 2812,1241.5C 2812.4,1241.73 2812.57,1242.06 2812.5,1242.5C 2812.33,1244.86 2811.99,1247.19 2811.5,1249.5C 2810.6,1250.21 2810.26,1251.21 2810.5,1252.5C 2807.47,1271.73 2798.8,1287.89 2784.5,1301C 2759.37,1323.56 2731.37,1341.56 2700.5,1355C 2717.24,1330.37 2725.4,1303.21 2725,1273.5C 2723.37,1264.89 2719.2,1257.89 2712.5,1252.5C 2707.65,1247.24 2701.65,1244.41 2694.5,1244C 2695.44,1246.72 2695.78,1249.55 2695.5,1252.5C 2694.36,1267.08 2688.86,1279.74 2679,1290.5C 2663.48,1306.36 2645.98,1319.52 2626.5,1330C 2613.17,1336.92 2599.67,1343.42 2586,1349.5C 2593.9,1337.37 2600.57,1324.37 2606,1310.5C 2611.79,1292.55 2610.46,1275.22 2602,1258.5C 2600.95,1256.38 2599.45,1254.72 2597.5,1253.5C 2593.49,1247.16 2588.16,1242.16 2581.5,1238.5C 2581.31,1243.37 2581.31,1248.37 2581.5,1253.5C 2580.77,1268.86 2575.27,1282.2 2565,1293.5C 2547.93,1309.79 2528.1,1321.62 2505.5,1329C 2491.4,1333.93 2477.07,1337.59 2462.5,1340C 2474.23,1326.38 2482.73,1310.88 2488,1293.5C 2490.32,1283.39 2489.99,1273.39 2487,1263.5C 2485.64,1260.1 2483.81,1257.1 2481.5,1254.5C 2475.63,1244.8 2467.63,1237.3 2457.5,1232C 2452.49,1228.99 2447.15,1226.82 2441.5,1225.5C 2412.34,1224.5 2383,1224.17 2353.5,1224.5C 2353.5,1229.5 2353.5,1234.5 2353.5,1239.5C 2353.25,1244.51 2352.92,1249.51 2352.5,1254.5C 2346.76,1281.12 2333.43,1303.29 2312.5,1321C 2287.2,1341.65 2258.53,1355.32 2226.5,1362C 2242.25,1341.67 2252.41,1318.84 2257,1293.5C 2259.26,1277.71 2254.1,1265.04 2241.5,1255.5C 2236.88,1251.94 2231.71,1249.27 2226,1247.5C 2225.2,1250.37 2225.37,1253.03 2226.5,1255.5C 2226.93,1276.62 2220.1,1294.95 2206,1310.5C 2201.6,1315.06 2197.1,1319.4 2192.5,1323.5C 2173.08,1339.7 2151.41,1351.37 2127.5,1358.5C 2137.52,1339.28 2144.02,1318.95 2147,1297.5C 2148.49,1282.48 2144.99,1268.81 2136.5,1256.5C 2128.52,1246.13 2118.18,1240.13 2105.5,1238.5C 2108.24,1244.18 2109.57,1250.18 2109.5,1256.5C 2108.71,1272.86 2103.38,1287.53 2093.5,1300.5C 2078.01,1317.82 2060.01,1331.99 2039.5,1343C 2025.55,1350.65 2011.22,1357.15 1996.5,1362.5C 1991.54,1363.88 1986.54,1364.72 1981.5,1365C 1987.67,1360.17 1993.17,1354.67 1998,1348.5C 2014.42,1321.68 2025.76,1293.02 2032,1262.5C 2030.97,1260.65 2029.8,1258.99 2028.5,1257.5C 2028.17,1256.5 2027.5,1255.83 2026.5,1255.5C 2022.64,1251.48 2018.31,1247.98 2013.5,1245C 1995.89,1237.19 1978.22,1229.69 1960.5,1222.5C 1929.05,1214.44 1902.05,1198.6 1879.5,1175C 1881.49,1174.06 1883.49,1173.23 1885.5,1172.5C 1909.05,1179.89 1933.05,1186.06 1957.5,1191C 2010.13,1199.71 2061.47,1194.71 2111.5,1176C 2142.61,1164.53 2171.61,1149.19 2198.5,1130C 2189.68,1132.16 2180.68,1133.83 2171.5,1135C 2126.6,1136.71 2082.1,1133.21 2038,1124.5C 2036.63,1124.16 2035.47,1123.49 2034.5,1122.5C 2033.3,1122.85 2033.3,1123.35 2034.5,1124C 2008.94,1147.79 1980.28,1167.12 1948.5,1182C 1943.83,1182.17 1939.16,1181.83 1934.5,1181C 1918.88,1177.84 1903.22,1175.01 1887.5,1172.5C 1914.69,1162.15 1941.36,1150.31 1967.5,1137C 1980.79,1129.71 1992.95,1120.88 2004,1110.5C 2004.5,1109.5 2005,1108.5 2005.5,1107.5C 1995.9,1103.7 1986.9,1098.87 1978.5,1093C 1974.98,1090.13 1972.32,1086.63 1970.5,1082.5C 1984.2,1076.87 1998.2,1071.71 2012.5,1067C 2030.12,1060.69 2047.12,1053.02 2063.5,1044C 2068.08,1041.42 2072.08,1038.09 2075.5,1034C 2019.86,1021.79 1966.19,1003.79 1914.5,980C 1889.49,968.426 1867.66,952.592 1849,932.5C 1845.33,927.838 1842.17,922.838 1839.5,917.5C 1805.23,915.018 1772.56,906.518 1741.5,892C 1718.05,880.22 1700.22,862.72 1688,839.5C 1647.89,846.573 1614.22,834.906 1587,804.5C 1582.17,797.667 1577.33,790.833 1572.5,784C 1535.38,782.304 1502.72,769.637 1474.5,746C 1468.11,738.948 1461.78,731.948 1455.5,725C 1406.9,718.108 1361.23,702.774 1318.5,679C 1306.62,671.128 1295.96,661.795 1286.5,651C 1224.23,640.775 1165.57,620.442 1110.5,590C 1091.34,578.398 1074,564.398 1058.5,548C 1008.79,543.793 964.121,526.793 924.5,497C 916.091,489.587 908.091,481.921 900.5,474C 834.108,467.991 774.108,445.658 720.5,407C 705.479,394.312 691.479,380.645 678.5,366C 606.184,354.235 539.184,328.902 477.5,290C 453.662,274.166 432.996,254.833 415.5,232C 348.701,222.176 284.367,203.843 222.5,177C 196.033,164.942 171.033,150.609 147.5,134C 122.167,113.333 96.8333,92.6667 71.5,72C 63.9957,65.6621 56.9957,58.8287 50.5,51.5C 323.999,50.5002 597.666,50.1669 871.5,50.5 Z M 1049.5,535.5 C 1053.3,538.796 1056.96,542.296 1060.5,546C 1059.83,546.667 1059.17,546.667 1058.5,546C 1054.89,542.902 1051.89,539.402 1049.5,535.5 Z"/></g>
<g><path style="opacity:1" fill="#f1e6c4" d="M 942.5,90.5 C 679.999,90.1669 417.666,90.5002 155.5,91.5C 154.711,91.2172 154.044,90.7172 153.5,90C 416.667,89.167 679.667,89.3337 942.5,90.5 Z"/></g>
<g><path style="opacity:1" fill="#f5e9c4" d="M 4050.5,90.5 C 4313.33,89.3337 4576.33,89.167 4839.5,90C 4838.96,90.7172 4838.29,91.2172 4837.5,91.5C 4575.33,90.5002 4313,90.1669 4050.5,90.5 Z"/></g>
<g><path style="opacity:1" fill="#fefefe" d="M 942.5,90.5 C 967.105,125.098 999.105,150.431 1038.5,166.5C 841.667,167.5 644.667,167.833 447.5,167.5C 383.657,166.936 320.657,159.436 258.5,145C 224.886,137.143 194.219,123.143 166.5,103C 162.63,99.2977 158.963,95.4643 155.5,91.5C 417.666,90.5002 679.999,90.1669 942.5,90.5 Z"/></g>
<g><path style="opacity:1" fill="#fefefd" d="M 1713.5,469.5 C 1921.67,468.667 2130,468.167 2338.5,468C 2337.96,467.283 2337.29,466.783 2336.5,466.5C 2306.8,454.822 2280.14,438.322 2256.5,417C 2052.83,416.667 1849.17,416.333 1645.5,416C 1623.31,414.259 1601.64,409.926 1580.5,403C 1572.51,399.675 1565.17,395.341 1558.5,390C 1554.87,386.215 1551.87,382.049 1549.5,377.5C 1763.5,376.833 1977.5,376.167 2191.5,375.5C 2167.51,334.348 2133.85,303.848 2090.5,284C 1851.5,283.667 1612.5,283.333 1373.5,283C 1351.46,280.765 1331.13,273.765 1312.5,262C 1304.55,256.22 1298.22,249.054 1293.5,240.5C 1544.17,239.667 1794.83,239.167 2045.5,239C 2003.53,205.672 1957.53,179.005 1907.5,159C 1896.15,155.66 1884.82,152.327 1873.5,149C 1619.87,147.671 1366.2,147.004 1112.5,147C 1081.64,142.832 1053.64,131.832 1028.5,114C 1020.63,107.059 1014.63,98.8926 1010.5,89.5C 1266.18,89.0124 1521.85,89.5124 1777.5,91C 1920.65,108.015 2045.99,164.015 2153.5,259C 2185.53,291.361 2217.86,323.361 2250.5,355C 2282.14,384.643 2316.48,410.643 2353.5,433C 2376.48,444.93 2400.81,452.597 2426.5,456C 2446.19,457.273 2465.86,458.773 2485.5,460.5C 2497.58,480.335 2509.92,500.002 2522.5,519.5C 2480.98,524.08 2441.64,516.914 2404.5,498C 2198.17,497.667 1991.83,497.333 1785.5,497C 1768.65,495.547 1752.32,491.88 1736.5,486C 1727.32,482.427 1719.65,476.927 1713.5,469.5 Z"/></g>
<g><path style="opacity:1" fill="#fefefe" d="M 3232.5,90.5 C 3257.19,90.1424 3281.86,90.6424 3306.5,92C 3527.17,92.5 3747.83,92.6667 3968.5,92.5C 3969.26,103.474 3965.26,112.307 3956.5,119C 3936.06,133.043 3913.73,143.043 3889.5,149C 3655.5,149.667 3421.5,149.667 3187.5,149C 3172.29,146.754 3157.29,147.754 3142.5,152C 3118.75,159.699 3095.75,169.366 3073.5,181C 3046.32,196.417 3019.99,213.084 2994.5,231C 3231.16,232.721 3467.83,233.721 3704.5,234C 3696.37,244.462 3686.71,253.129 3675.5,260C 3645.05,276.633 3612.39,285.966 3577.5,288C 3363.83,288.333 3150.17,288.667 2936.5,289C 2898.5,316.667 2860.5,344.333 2822.5,372C 3028.83,371.691 3235.17,371.691 3441.5,372C 3450.83,372.333 3460.17,372.667 3469.5,373C 3432.92,398.606 3392.26,412.94 3347.5,416C 3155.83,416.333 2964.17,416.667 2772.5,417C 2750.84,427.777 2728.17,435.777 2704.5,441C 2690.73,442.086 2677.07,441.419 2663.5,439C 2660.83,438 2658.17,437 2655.5,436C 2654.17,435.333 2654.17,434.667 2655.5,434C 2726.96,390.881 2793.63,341.215 2855.5,285C 2878.86,261.969 2902.53,239.302 2926.5,217C 3014.95,142.627 3116.95,100.46 3232.5,90.5 Z"/></g>
<g><path style="opacity:1" fill="#fefefe" d="M 4050.5,90.5 C 4313,90.1669 4575.33,90.5002 4837.5,91.5C 4825.99,104.5 4812.33,114.667 4796.5,122C 4767.84,135.542 4737.84,145.208 4706.5,151C 4653.69,161.314 4600.36,166.814 4546.5,167.5C 4349,167.833 4151.67,167.5 3954.5,166.5C 3993.9,150.425 4025.9,125.092 4050.5,90.5 Z"/></g>
<g><path style="opacity:1" fill="#dec26e" d="M 1038.5,166.5 C 1039.29,166.783 1039.96,167.283 1040.5,168C 842.666,168.833 645,168.666 447.5,167.5C 644.667,167.833 841.667,167.5 1038.5,166.5 Z"/></g>
<g><path style="opacity:1" fill="#e7c96e" d="M 3954.5,166.5 C 4151.67,167.5 4349,167.833 4546.5,167.5C 4348.67,168.666 4150.67,168.833 3952.5,168C 3953.04,167.283 3953.71,166.783 3954.5,166.5 Z"/></g>
<g><path style="opacity:1" fill="#e5ce8a" d="M 1232.5,242.5 C 987.333,242.167 742.333,242.5 497.5,243.5C 496.957,243.44 496.624,243.107 496.5,242.5C 742,241.167 987.333,241.167 1232.5,242.5 Z"/></g>
<g><path style="opacity:1" fill="#ecd38b" d="M 3761.5,242.5 C 4006.67,241.334 4252,241.167 4497.5,242C 4496.96,242.717 4496.29,243.217 4495.5,243.5C 4251,242.5 4006.33,242.167 3761.5,242.5 Z"/></g>
<g><path style="opacity:1" fill="#fefefe" d="M 1232.5,242.5 C 1257.21,275.711 1288.88,300.044 1327.5,315.5C 1140.67,316.5 953.667,316.833 766.5,316.5C 707.287,315.65 648.954,308.15 591.5,294C 563.443,286.633 537.443,274.966 513.5,259C 507.663,254.33 502.33,249.163 497.5,243.5C 742.333,242.5 987.333,242.167 1232.5,242.5 Z"/></g>
<g><path style="opacity:1" fill="#fefefe" d="M 3761.5,242.5 C 4006.33,242.167 4251,242.5 4495.5,243.5C 4483.99,256.5 4470.33,266.667 4454.5,274C 4426.57,286.717 4397.57,296.05 4367.5,302C 4317.95,311.182 4267.95,316.015 4217.5,316.5C 4033.33,316.833 3849.33,316.5 3665.5,315.5C 3704.14,299.852 3736.14,275.518 3761.5,242.5 Z"/></g>
<g><path style="opacity:1" fill="#e6cf8c" d="M 1327.5,315.5 C 1328.29,315.783 1328.96,316.283 1329.5,317C 1141.67,317.833 954,317.666 766.5,316.5C 953.667,316.833 1140.67,316.5 1327.5,315.5 Z"/></g>
<g><path style="opacity:1" fill="#ecd48d" d="M 3665.5,315.5 C 3849.33,316.5 4033.33,316.833 4217.5,316.5C 4033,317.666 3848.33,317.833 3663.5,317C 3664.04,316.283 3664.71,315.783 3665.5,315.5 Z"/></g>
<g><path style="opacity:1" fill="#f2e7c4" d="M 1479.5,375.5 C 1234.67,375.167 989.999,375.5 745.5,376.5C 744.711,376.217 744.044,375.717 743.5,375C 989,374.167 1234.33,374.334 1479.5,375.5 Z"/></g>
<g><path style="opacity:1" fill="#f5e9c4" d="M 3513.5,375.5 C 3758.67,374.334 4004,374.167 4249.5,375C 4248.96,375.717 4248.29,376.217 4247.5,376.5C 4003,375.5 3758.33,375.167 3513.5,375.5 Z"/></g>
<g><path style="opacity:1" fill="#fefefe" d="M 1479.5,375.5 C 1506.06,405.043 1538.06,426.709 1575.5,440.5C 1387.67,441.5 1199.67,441.833 1011.5,441.5C 954.53,440.337 898.197,433.837 842.5,422C 814.688,415.462 788.354,405.129 763.5,391C 756.881,386.867 750.881,382.034 745.5,376.5C 989.999,375.5 1234.67,375.167 1479.5,375.5 Z"/></g>
<g><path style="opacity:1" fill="#f3e8c4" d="M 2191.5,375.5 C 1977.5,376.167 1763.5,376.833 1549.5,377.5C 1548.96,377.44 1548.62,377.107 1548.5,376.5C 1762.83,375.5 1977.17,375.167 2191.5,375.5 Z"/></g>
<g><path style="opacity:1" fill="#fefefe" d="M 3513.5,375.5 C 3758.33,375.167 4003,375.5 4247.5,376.5C 4234.93,388.137 4220.59,397.304 4204.5,404C 4185.22,411.537 4165.55,417.871 4145.5,423C 4091.43,434.113 4036.77,440.28 3981.5,441.5C 3793.33,441.833 3605.33,441.5 3417.5,440.5C 3454.6,426.29 3486.6,404.623 3513.5,375.5 Z"/></g>
<g><path style="opacity:1" fill="#e7d08c" d="M 1575.5,440.5 C 1576.29,440.783 1576.96,441.283 1577.5,442C 1388.67,442.833 1200,442.666 1011.5,441.5C 1199.67,441.833 1387.67,441.5 1575.5,440.5 Z"/></g>
<g><path style="opacity:1" fill="#ecd48c" d="M 3417.5,440.5 C 3605.33,441.5 3793.33,441.833 3981.5,441.5C 3793,442.666 3604.33,442.833 3415.5,442C 3416.04,441.283 3416.71,440.783 3417.5,440.5 Z"/></g>
<g><path style="opacity:1" fill="#fefefe" d="M 3003.5,580.5 C 3002.96,580.56 3002.62,580.893 3002.5,581.5C 3066.5,582.5 3130.5,582.833 3194.5,582.5C 3212.78,584.115 3221.45,594.115 3220.5,612.5C 3259.27,594.784 3298.27,577.617 3337.5,561C 3382.5,560.333 3427.5,560.333 3472.5,561C 3504.85,562.547 3532.02,575.047 3554,598.5C 3568.28,616.674 3576.28,637.34 3578,660.5C 3578.67,674.833 3578.67,689.167 3578,703.5C 3563.29,671.468 3538.79,650.968 3504.5,642C 3494.25,639.816 3483.92,638.15 3473.5,637C 3377.17,636.333 3280.83,636.333 3184.5,637C 3177.02,646.645 3169.36,656.145 3161.5,665.5C 3169.81,666.332 3178.15,666.832 3186.5,667C 3285.19,667.449 3383.86,668.783 3482.5,671C 3499.52,674.68 3515.18,681.347 3529.5,691C 3540.57,699.4 3548.57,710.067 3553.5,723C 3411.5,723.667 3269.5,723.667 3127.5,723C 3118.41,714.965 3107.74,710.631 3095.5,710C 3075.87,709.705 3057.21,713.871 3039.5,722.5C 3035.98,721.938 3032.65,722.771 3029.5,725C 3030.5,725.333 3031.5,725.667 3032.5,726C 3001.33,744.821 2968.99,761.487 2935.5,776C 2913.78,784.678 2891.45,791.011 2868.5,795C 2843.72,796.389 2820.72,790.723 2799.5,778C 2780.37,763.171 2777.2,745.338 2790,724.5C 2792.83,721 2795.67,717.5 2798.5,714C 2778.04,715.555 2757.71,714.555 2737.5,711C 2733.27,709.885 2729.27,708.219 2725.5,706C 2720.08,701.754 2718.25,696.254 2720,689.5C 2726.32,677.846 2734.82,668.012 2745.5,660C 2750.89,655.611 2756.56,651.611 2762.5,648C 2750.72,644.043 2742.89,636.21 2739,624.5C 2737.89,615.493 2740.22,607.493 2746,600.5C 2753.37,591.405 2761.87,583.572 2771.5,577C 2787.41,566.209 2804.08,556.709 2821.5,548.5C 2822.29,548.217 2822.96,547.717 2823.5,547C 2773.83,546.5 2724.17,546.333 2674.5,546.5C 2640.54,543.174 2608.54,533.341 2578.5,517C 2555.57,502.737 2537.4,483.904 2524,460.5C 2521.07,455.966 2518.73,451.3 2517,446.5C 2519.83,448.494 2522.33,450.828 2524.5,453.5C 2763.85,454.009 3003.18,454.843 3242.5,456C 3268.32,458.992 3290.15,469.826 3308,488.5C 3320.08,504.089 3325.75,521.755 3325,541.5C 3322.81,547.188 3318.64,550.355 3312.5,551C 3305.87,552.045 3299.21,552.711 3292.5,553C 3203.5,553.494 3114.5,553.494 3025.5,553C 3018.33,562.33 3011,571.497 3003.5,580.5 Z"/></g>
<g><path style="opacity:1" fill="#e3c66f" d="M 2336.5,466.5 C 2337.29,466.783 2337.96,467.283 2338.5,468C 2130,468.167 1921.67,468.667 1713.5,469.5C 1712.96,469.44 1712.62,469.107 1712.5,468.5C 1920.67,467.833 2128.67,467.167 2336.5,466.5 Z"/></g>
<g><path style="opacity:1" fill="#dab952" d="M 1647.5,478.5 C 1423.67,478.167 1200,478.5 976.5,479.5C 975.957,479.44 975.624,479.107 975.5,478.5C 1199.67,477.167 1423.67,477.167 1647.5,478.5 Z"/></g>
<g><path style="opacity:1" fill="#e2bf52" d="M 4016.5,479.5 C 3793.17,478.167 3569.83,478.167 3346.5,479.5C 3345.96,479.44 3345.62,479.107 3345.5,478.5C 3569.5,477.167 3793.5,477.167 4017.5,478.5C 4017.38,479.107 4017.04,479.44 4016.5,479.5 Z"/></g>
<g><path style="opacity:1" fill="#fefefe" d="M 976.5,479.5 C 1200,478.5 1423.67,478.167 1647.5,478.5C 1677.61,497.389 1709.28,513.389 1742.5,526.5C 1591.5,527.167 1440.5,527.833 1289.5,528.5C 1223.16,529.921 1157.16,526.088 1091.5,517C 1058.29,512.699 1026.29,504.032 995.5,491C 988.806,487.658 982.473,483.825 976.5,479.5 Z"/></g>
<g><path style="opacity:1" fill="#fefefe" d="M 3346.5,479.5 C 3569.83,478.167 3793.17,478.167 4016.5,479.5C 3996.95,491.601 3975.95,500.434 3953.5,506C 3900.08,517.009 3846.08,523.009 3791.5,524C 3649.5,523.674 3507.5,523.507 3365.5,523.5C 3366.46,508.995 3362.63,495.995 3354,484.5C 3351.6,482.585 3349.1,480.919 3346.5,479.5 Z"/></g>
<g><path style="opacity:1" fill="#f2e7c4" d="M 1742.5,526.5 C 1743.47,526.987 1744.47,527.487 1745.5,528C 1593.5,528.5 1441.5,528.667 1289.5,528.5C 1440.5,527.833 1591.5,527.167 1742.5,526.5 Z"/></g>
<g><path style="opacity:1" fill="#fefefe" d="M 2412.5,597.5 C 2413.29,597.217 2413.96,596.717 2414.5,596C 2393.33,595.171 2372.33,595.337 2351.5,596.5C 2219.5,596.878 2087.5,597.378 1955.5,598C 1937.53,593.504 1920.2,587.171 1903.5,579C 1899.4,576.63 1895.74,573.797 1892.5,570.5C 2080.17,569.833 2267.83,569.167 2455.5,568.5C 2480.6,554.519 2507.43,546.519 2536,544.5C 2542.22,544.458 2548.39,544.958 2554.5,546C 2565.55,552.194 2576.89,557.861 2588.5,563C 2595.57,565.756 2602.9,567.09 2610.5,567C 2593.01,582.92 2573.34,595.586 2551.5,605C 2499.33,626.052 2445,634.885 2388.5,631.5C 2390.72,615.971 2398.72,604.638 2412.5,597.5 Z"/></g>
<g><path style="opacity:1" fill="#ebd28b" d="M 2674.5,546.5 C 2724.17,546.333 2773.83,546.5 2823.5,547C 2822.96,547.717 2822.29,548.217 2821.5,548.5C 2772.5,547.833 2723.5,547.167 2674.5,546.5 Z"/></g>
<g><path style="opacity:1" fill="#f4e8c4" d="M 2455.5,568.5 C 2267.83,569.167 2080.17,569.833 1892.5,570.5C 1891.71,570.217 1891.04,569.717 1890.5,569C 2078.83,568.5 2267.17,568.333 2455.5,568.5 Z"/></g>
<g><path style="opacity:1" fill="#f5e9c4" d="M 3578.5,569.5 C 3667.67,568.334 3757,568.168 3846.5,569C 3845.96,569.717 3845.29,570.217 3844.5,570.5C 3756,569.501 3667.33,569.167 3578.5,569.5 Z"/></g>
<g><path style="opacity:1" fill="#fefefe" d="M 3578.5,569.5 C 3667.33,569.167 3756,569.501 3844.5,570.5C 3809.91,593.09 3771.91,606.923 3730.5,612C 3687.16,612.833 3643.83,612.667 3600.5,611.5C 3592.12,598.077 3584.79,584.077 3578.5,569.5 Z"/></g>
<g><path style="opacity:1" fill="#fefefd" d="M 2638.5,617.5 C 2626.99,617.828 2615.65,617.495 2604.5,616.5C 2617.66,601.835 2630.66,587.001 2643.5,572C 2673.16,571.5 2702.83,571.333 2732.5,571.5C 2730.09,581.476 2724.75,589.643 2716.5,596C 2704.15,603.839 2690.82,609.505 2676.5,613C 2663.96,615.634 2651.3,617.134 2638.5,617.5 Z"/></g>
<g><path style="opacity:1" fill="#fefdfc" d="M 1907.5,614.5 C 1761.5,615.167 1615.5,615.833 1469.5,616.5C 1399.93,619.818 1330.6,617.318 1261.5,609C 1229.79,604.995 1199.46,596.328 1170.5,583C 1165.99,580.247 1161.66,577.247 1157.5,574C 1381.5,573.333 1605.5,573.333 1829.5,574C 1836.49,579.494 1843.82,584.494 1851.5,589C 1869.77,598.3 1888.44,606.8 1907.5,614.5 Z"/></g>
<g><path style="opacity:1" fill="#e2bf52" d="M 3003.5,580.5 C 3067.17,581.167 3130.83,581.833 3194.5,582.5C 3130.5,582.833 3066.5,582.5 3002.5,581.5C 3002.62,580.893 3002.96,580.56 3003.5,580.5 Z"/></g>
<g><path style="opacity:1" fill="#f0dda8" d="M 2351.5,596.5 C 2372.33,595.337 2393.33,595.171 2414.5,596C 2413.96,596.717 2413.29,597.217 2412.5,597.5C 2392.34,596.503 2372.01,596.17 2351.5,596.5 Z"/></g>
<g><path style="opacity:1" fill="#eddca8" d="M 1907.5,614.5 C 1908.47,614.987 1909.47,615.487 1910.5,616C 1763.5,616.5 1616.5,616.667 1469.5,616.5C 1615.5,615.833 1761.5,615.167 1907.5,614.5 Z"/></g>
<g><path style="opacity:1" fill="#e8ce7e" d="M 2604.5,616.5 C 2615.65,617.495 2626.99,617.828 2638.5,617.5C 2626.99,618.824 2615.33,618.824 2603.5,617.5C 2603.62,616.893 2603.96,616.56 2604.5,616.5 Z"/></g>
<g><path style="opacity:1" fill="#fefefd" d="M 2565.5,626.5 C 2567.2,626.34 2568.87,626.506 2570.5,627C 2578.72,632.936 2586.72,639.103 2594.5,645.5C 2549.54,698.461 2492.2,721.961 2422.5,716C 2417.31,715.471 2412.31,714.304 2407.5,712.5C 2429.32,695.517 2446.99,675.017 2460.5,651C 2497.64,651.409 2532.64,643.242 2565.5,626.5 Z"/></g>
<g><path style="opacity:1" fill="#fefefd" d="M 2701.5,634.5 C 2702.55,634.351 2703.55,634.517 2704.5,635C 2708.63,640.134 2713.13,644.968 2718,649.5C 2718.32,650.908 2717.98,652.241 2717,653.5C 2676.24,704.421 2624.07,722.254 2560.5,707C 2585.31,693.586 2606.64,675.919 2624.5,654C 2651.73,653.128 2677.4,646.628 2701.5,634.5 Z"/></g>
<g><path style="opacity:1" fill="#ead28b" d="M 2404.5,653.5 C 2276.33,653.167 2148.33,653.5 2020.5,654.5C 2019.96,654.44 2019.62,654.107 2019.5,653.5C 2148,652.168 2276.33,652.168 2404.5,653.5 Z"/></g>
<g><path style="opacity:1" fill="#e8d18b" d="M 1975.5,654.5 C 1762.33,654.167 1549.33,654.5 1336.5,655.5C 1335.96,655.44 1335.62,655.107 1335.5,654.5C 1549,653.167 1762.33,653.167 1975.5,654.5 Z"/></g>
<g><path style="opacity:1" fill="#fefefe" d="M 2404.5,653.5 C 2403.3,667.731 2396.96,679.231 2385.5,688C 2370.55,697.971 2354.21,704.971 2336.5,709C 2321.97,712.144 2307.31,714.31 2292.5,715.5C 2291.21,715.737 2290.21,715.404 2289.5,714.5C 2295.71,702.279 2302.38,690.279 2309.5,678.5C 2229.84,677.667 2150.17,677.167 2070.5,677C 2055.08,673.086 2040.41,667.42 2026.5,660C 2024.24,658.383 2022.24,656.55 2020.5,654.5C 2148.33,653.5 2276.33,653.167 2404.5,653.5 Z"/></g>
<g><path style="opacity:0.999" fill="#fefdfc" d="M 3665.5,655.5 C 3665.5,655.833 3665.5,656.167 3665.5,656.5C 3663.81,660.008 3661.48,663.175 3658.5,666C 3644.03,674.395 3628.7,680.895 3612.5,685.5C 3613.31,674.819 3614.31,664.152 3615.5,653.5C 3632.41,652.87 3649.07,653.537 3665.5,655.5 Z"/></g>
<g><path style="opacity:1" fill="#fefefe" d="M 1336.5,655.5 C 1549.33,654.5 1762.33,654.167 1975.5,654.5C 1980.56,661.379 1986.89,666.879 1994.5,671C 2010.19,680.07 2026.53,687.903 2043.5,694.5C 1911.5,695.167 1779.5,695.833 1647.5,696.5C 1569.72,700.962 1492.39,697.128 1415.5,685C 1396.61,681.363 1378.28,676.03 1360.5,669C 1351.99,665.248 1343.99,660.748 1336.5,655.5 Z"/></g>
<g><path style="opacity:1" fill="#eedca8" d="M 2043.5,694.5 C 2044.76,694.461 2045.76,694.961 2046.5,696C 1913.5,696.5 1780.5,696.667 1647.5,696.5C 1779.5,695.833 1911.5,695.167 2043.5,694.5 Z"/></g>
<g><path style="opacity:1" fill="#fefefd" d="M 2692.5,709.5 C 2693.34,718.335 2697.34,725.835 2704.5,732C 2713.37,738.27 2722.71,743.77 2732.5,748.5C 2691.75,792.659 2644.08,801.992 2589.5,776.5C 2588.29,775.726 2588.29,774.893 2589.5,774C 2607.72,766.617 2619.38,753.45 2624.5,734.5C 2621.86,735.263 2619.19,735.43 2616.5,735C 2643.16,730.171 2668.49,721.671 2692.5,709.5 Z"/></g>
<g><path style="opacity:1" fill="#e5c973" d="M 2289.5,714.5 C 2290.21,715.404 2291.21,715.737 2292.5,715.5C 2281.71,717.376 2270.71,718.209 2259.5,718C 2269.6,717.22 2279.6,716.053 2289.5,714.5 Z"/></g>
<g><path style="opacity:1" fill="#fefefd" d="M 2230.5,783.5 C 2230.84,782.662 2231.51,782.328 2232.5,782.5C 2237.17,783.003 2241.84,783.169 2246.5,783C 2267.57,771.914 2287.57,759.247 2306.5,745C 2310.87,740.967 2314.87,736.634 2318.5,732C 2338.37,729.526 2358.2,726.693 2378,723.5C 2380.79,724.961 2382.96,727.128 2384.5,730C 2390.01,734.586 2396.34,737.253 2403.5,738C 2408.93,738.259 2414.26,738.426 2419.5,738.5C 2405.62,753.443 2389.29,764.943 2370.5,773C 2336.06,786.431 2300.39,791.431 2263.5,788C 2252.5,786.367 2241.5,784.867 2230.5,783.5 Z"/></g>
<g><path style="opacity:1" fill="#fefefd" d="M 2417.5,782.5 C 2417.5,781.833 2417.5,781.167 2417.5,780.5C 2437.36,774.808 2451.03,762.308 2458.5,743C 2484.88,740.823 2510.54,735.323 2535.5,726.5C 2551.45,731.153 2567.45,735.486 2583.5,739.5C 2576.86,751.312 2567.86,761.145 2556.5,769C 2527.22,787.651 2495.22,794.984 2460.5,791C 2445.84,789.669 2431.51,786.836 2417.5,782.5 Z"/></g>
<g><path style="opacity:1" fill="#e5c76f" d="M 2250.5,729.5 C 2228.66,729.169 2206.99,729.503 2185.5,730.5C 2184.71,730.217 2184.04,729.717 2183.5,729C 2206,728.17 2228.34,728.337 2250.5,729.5 Z"/></g>
<g><path style="opacity:1" fill="#fefefc" d="M 2185.5,730.5 C 2206.99,729.503 2228.66,729.169 2250.5,729.5C 2250.49,739.675 2245.83,746.842 2236.5,751C 2232.71,752.646 2228.88,754.146 2225,755.5C 2222.68,755.091 2220.51,754.257 2218.5,753C 2207.62,745.279 2196.62,737.779 2185.5,730.5 Z"/></g>
<g><path style="opacity:1" fill="#e8d18b" d="M 2147.5,735.5 C 1936.5,734.167 1725.5,734.167 1514.5,735.5C 1513.53,735.013 1512.53,734.513 1511.5,734C 1724.17,733.333 1936.83,733.333 2149.5,734C 2148.96,734.717 2148.29,735.217 2147.5,735.5 Z"/></g>
<g><path style="opacity:1" fill="#fefefe" d="M 1514.5,735.5 C 1725.5,734.167 1936.5,734.167 2147.5,735.5C 2145.62,736.659 2145.12,738.326 2146,740.5C 2147.83,743.667 2150.33,746.167 2153.5,748C 2165.31,754.904 2177.64,760.738 2190.5,765.5C 2050,766.5 1909.33,766.833 1768.5,766.5C 1696.2,766.707 1624.53,760.207 1553.5,747C 1540.33,743.732 1527.33,739.899 1514.5,735.5 Z"/></g>
<g><path style="opacity:1" fill="#fefefd" d="M 3140.5,785.5 C 3095.83,784.833 3051.17,784.167 3006.5,783.5C 3018.3,774.425 3030.97,766.591 3044.5,760C 3047.42,758.86 3050.42,758.027 3053.5,757.5C 3184.49,758.328 3315.49,758.828 3446.5,759C 3441.13,763.684 3435.13,767.35 3428.5,770C 3411.01,776.251 3393.01,780.585 3374.5,783C 3335.77,787.142 3296.94,789.309 3258,789.5C 3218.78,789.464 3179.62,788.13 3140.5,785.5 Z"/></g>
<g><path style="opacity:1" fill="#debc54" d="M 2190.5,765.5 C 2191.29,765.783 2191.96,766.283 2192.5,767C 2051,767.833 1909.67,767.666 1768.5,766.5C 1909.33,766.833 2050,766.5 2190.5,765.5 Z"/></g>
<g><path style="opacity:1" fill="#f2e0b1" d="M 2232.5,782.5 C 2231.51,782.328 2230.84,782.662 2230.5,783.5C 2219.46,782.328 2208.46,780.828 2197.5,779C 2209.39,779.108 2221.06,780.275 2232.5,782.5 Z"/></g>
<g><path style="opacity:1" fill="#f1deaa" d="M 2417.5,780.5 C 2417.5,781.167 2417.5,781.833 2417.5,782.5C 2412.02,782.839 2406.69,783.673 2401.5,785C 2406.66,782.104 2411.99,780.604 2417.5,780.5 Z"/></g>
<g><path style="opacity:1" fill="#e7c970" d="M 3006.5,783.5 C 3051.17,784.167 3095.83,784.833 3140.5,785.5C 3095.17,785.667 3049.83,785.5 3004.5,785C 3005.04,784.283 3005.71,783.783 3006.5,783.5 Z"/></g>
<g><path style="opacity:1" fill="#fefefd" d="M 2568.5,790.5 C 2570.6,791.412 2572.6,792.579 2574.5,794C 2577.8,798.3 2581.46,802.3 2585.5,806C 2599.13,812.395 2613.46,816.395 2628.5,818C 2642.45,819.814 2656.45,821.147 2670.5,822C 2639.91,841.756 2606.91,856.089 2571.5,865C 2542.91,871.065 2515.57,867.732 2489.5,855C 2480.68,849.914 2473.01,843.414 2466.5,835.5C 2497.34,826.501 2527,814.667 2555.5,800C 2558.83,798 2562.17,796 2565.5,794C 2566.71,792.961 2567.71,791.794 2568.5,790.5 Z"/></g>
<g><path style="opacity:1" fill="#fefefd" d="M 2288.5,847.5 C 2288.83,846.833 2289.17,846.167 2289.5,845.5C 2303.6,836.938 2315.94,826.271 2326.5,813.5C 2345.07,809.22 2362.9,802.887 2380,794.5C 2390.54,800.518 2401.71,805.018 2413.5,808C 2425.41,810.489 2437.41,812.489 2449.5,814C 2435.19,831.168 2417.19,842.834 2395.5,849C 2359.69,858 2324.02,857.5 2288.5,847.5 Z"/></g>
<g><path style="opacity:1" fill="#fefefe" d="M 1637.5,800.5 C 1820.83,799.833 2004.17,799.167 2187.5,798.5C 2196.04,796.249 2197.54,798.582 2192,805.5C 2183.47,814.364 2174.64,822.864 2165.5,831C 2063.17,831.667 1960.83,831.667 1858.5,831C 1808.21,829.67 1758.21,825.337 1708.5,818C 1684.29,814.082 1660.63,808.248 1637.5,800.5 Z"/></g>
<g><path style="opacity:1" fill="#f3e8c4" d="M 2187.5,798.5 C 2004.17,799.167 1820.83,799.833 1637.5,800.5C 1636.53,800.013 1635.53,799.513 1634.5,799C 1818.83,798.5 2003.17,798.333 2187.5,798.5 Z"/></g>
<g><path style="opacity:1" fill="#fefdfb" d="M 2250.5,836.5 C 2249,836.989 2247.67,837.655 2246.5,838.5C 2229.1,845.193 2211.1,849.526 2192.5,851.5C 2191.5,851.5 2190.5,851.5 2189.5,851.5C 2199.73,835.768 2210.56,820.435 2222,805.5C 2240.59,812.75 2259.76,817.583 2279.5,820C 2270.75,827.044 2261.08,832.544 2250.5,836.5 Z"/></g>
<g><path style="opacity:1" fill="#fefefd" d="M 3112.5,821.5 C 3186.34,821.167 3260,821.501 3333.5,822.5C 3314.3,829.041 3294.64,833.875 3274.5,837C 3229.73,843.481 3184.73,847.147 3139.5,848C 3074.81,848.898 3010.14,848.065 2945.5,845.5C 2950.2,835.924 2955.54,826.757 2961.5,818C 2962.45,817.517 2963.45,817.351 2964.5,817.5C 2964.5,818.833 2964.5,820.167 2964.5,821.5C 3013.83,821.5 3063.17,821.5 3112.5,821.5 Z"/></g>
<g><path style="opacity:1" fill="#e7c96f" d="M 3112.5,821.5 C 3187,820.334 3261.67,820.168 3336.5,821C 3335.47,821.513 3334.47,822.013 3333.5,822.5C 3260,821.501 3186.34,821.167 3112.5,821.5 Z"/></g>
<g><path style="opacity:1" fill="#f1dfae" d="M 2250.5,836.5 C 2263.18,840.373 2276.18,843.373 2289.5,845.5C 2289.17,846.167 2288.83,846.833 2288.5,847.5C 2274.57,844.184 2260.57,841.184 2246.5,838.5C 2247.67,837.655 2249,836.989 2250.5,836.5 Z"/></g>
<g><path style="opacity:1" fill="#fefdfb" d="M 2673.5,849.5 C 2675.17,849.5 2676.83,849.5 2678.5,849.5C 2678.59,853.059 2677.76,856.392 2676,859.5C 2639.9,918.964 2587.4,943.464 2518.5,933C 2544.61,925.077 2565.61,909.91 2581.5,887.5C 2595.26,885.193 2608.59,881.359 2621.5,876C 2639.05,867.392 2656.38,858.559 2673.5,849.5 Z"/></g>
<g><path style="opacity:1" fill="#ead088" d="M 2189.5,851.5 C 2190.5,851.5 2191.5,851.5 2192.5,851.5C 2185.06,853.386 2177.4,854.22 2169.5,854C 2176.13,852.838 2182.8,852.005 2189.5,851.5 Z"/></g>
<g><path style="opacity:1" fill="#fefefd" d="M 2450.5,860.5 C 2451.68,860.281 2452.68,860.614 2453.5,861.5C 2458.13,871.629 2465.8,878.462 2476.5,882C 2494.35,887.753 2512.68,890.42 2531.5,890C 2516.67,902.495 2501.01,913.828 2484.5,924C 2447.71,942.933 2409.04,947.933 2368.5,939C 2353.97,935.934 2339.97,931.268 2326.5,925C 2343.66,915.005 2356,900.838 2363.5,882.5C 2363.29,881.914 2362.96,881.414 2362.5,881C 2383.11,883.09 2403.11,880.423 2422.5,873C 2432.03,869.109 2441.36,864.942 2450.5,860.5 Z"/></g>
<g><path style="opacity:1" fill="#fefefc" d="M 2087.5,918.5 C 2087.5,917.833 2087.83,917.5 2088.5,917.5C 2091.72,917.797 2094.72,917.13 2097.5,915.5C 2098.39,916.325 2098.72,917.325 2098.5,918.5C 2106.81,919.592 2115.15,920.592 2123.5,921.5C 2126.59,921.493 2129.59,920.993 2132.5,920C 2167.89,905.659 2202.56,889.993 2236.5,873C 2242.57,868.097 2249.23,864.264 2256.5,861.5C 2267.88,867.858 2279.55,873.691 2291.5,879C 2301.68,883.544 2312.34,885.544 2323.5,885C 2321.51,891.489 2318.34,897.322 2314,902.5C 2300.71,914.499 2285.21,922.332 2267.5,926C 2236.7,931.662 2205.7,932.995 2174.5,930C 2148.84,927.64 2123.34,924.14 2098,919.5C 2088.27,927.635 2078.77,936.135 2069.5,945C 2041.97,945.099 2014.47,945.933 1987,947.5C 1943.45,946.153 1901.61,936.986 1861.5,920C 1938.86,919.838 2014.19,919.338 2087.5,918.5 Z"/></g>
<g><path style="opacity:1" fill="#fefefd" d="M 1755.5,868.5 C 1884.83,867.833 2014.17,867.167 2143.5,866.5C 2145.95,864.767 2148.61,863.933 2151.5,864C 2142.46,874.703 2132.46,884.369 2121.5,893C 2056.5,894.37 1991.5,894.704 1926.5,894C 1886.3,892.094 1846.3,888.094 1806.5,882C 1789.28,878.279 1772.28,873.779 1755.5,868.5 Z"/></g>
<g><path style="opacity:1" fill="#fefefd" d="M 3164.5,869.5 C 3185.17,870.167 3205.83,870.833 3226.5,871.5C 3216.69,877.068 3206.36,881.568 3195.5,885C 3157.98,893.294 3119.98,897.628 3081.5,898C 3026.78,899.365 2972.11,898.365 2917.5,895C 2914.09,894.703 2910.75,894.036 2907.5,893C 2912.33,883.67 2917.66,874.67 2923.5,866C 2924.45,865.517 2925.45,865.351 2926.5,865.5C 2926.5,866.833 2926.5,868.167 2926.5,869.5C 3005.83,869.5 3085.17,869.5 3164.5,869.5 Z"/></g>
<g><path style="opacity:1" fill="#e3c66f" d="M 2143.5,866.5 C 2014.17,867.167 1884.83,867.833 1755.5,868.5C 1754.71,868.217 1754.04,867.717 1753.5,867C 1883.5,866.5 2013.5,866.333 2143.5,866.5 Z"/></g>
<g><path style="opacity:1" fill="#f3e6be" d="M 3164.5,869.5 C 3185.84,869.333 3207.17,869.5 3228.5,870C 3227.96,870.717 3227.29,871.217 3226.5,871.5C 3205.83,870.833 3185.17,870.167 3164.5,869.5 Z"/></g>
<g><path style="opacity:1" fill="#fefefe" d="M 2809.5,907.5 C 2835.56,904.009 2856.39,912.676 2872,933.5C 2878.93,945.318 2879.27,957.318 2873,969.5C 2869.75,976.34 2865.75,982.673 2861,988.5C 2843.2,1007.32 2823.36,1023.48 2801.5,1037C 2773.93,1053.79 2745.26,1068.45 2715.5,1081C 2708.61,1083.14 2701.61,1084.81 2694.5,1086C 2675.19,1087.67 2655.86,1089 2636.5,1090C 2598.17,1090.67 2559.83,1090.67 2521.5,1090C 2574,1060.26 2625.66,1029.26 2676.5,997C 2699.75,982.041 2721.08,964.707 2740.5,945C 2760.69,927.241 2783.69,914.741 2809.5,907.5 Z"/></g>
<g><path style="opacity:1" fill="#efdaa2" d="M 2088.5,917.5 C 2087.83,917.5 2087.5,917.833 2087.5,918.5C 2075.82,916.902 2064.15,915.069 2052.5,913C 2064.75,913.424 2076.75,914.924 2088.5,917.5 Z"/></g>
<g><path style="opacity:1" fill="#fefefd" d="M 2899.5,926.5 C 2903.95,927.149 2908.28,928.316 2912.5,930C 2985.5,930.333 3058.5,930.667 3131.5,931C 3089.73,948.15 3046.23,957.317 3001,958.5C 2975.21,956.876 2949.38,956.043 2923.5,956C 2914.3,948.463 2906.13,939.963 2899,930.5C 2898.42,929.072 2898.59,927.738 2899.5,926.5 Z"/></g>
<g><path style="opacity:1" fill="#fefefd" d="M 2318.5,944.5 C 2340.55,941.182 2360.21,946.348 2377.5,960C 2395.36,977.342 2397.19,996.176 2383,1016.5C 2370.15,1030.36 2355.32,1041.52 2338.5,1050C 2290.36,1073.16 2240.36,1091.16 2188.5,1104C 2136.74,1101.42 2085.07,1097.76 2033.5,1093C 2097.41,1063.89 2157.74,1028.89 2214.5,988C 2246.32,966.586 2280.99,952.086 2318.5,944.5 Z"/></g>
<g><path style="opacity:1" fill="#fefefd" d="M 2508.5,1111.5 C 2522.23,1115.39 2536.23,1118.23 2550.5,1120C 2592.19,1125.73 2633.86,1125.73 2675.5,1120C 2685.74,1118.19 2695.74,1115.85 2705.5,1113C 2680.75,1139.89 2651.09,1159.55 2616.5,1172C 2571.14,1187.45 2524.47,1193.78 2476.5,1191C 2463.51,1189.59 2450.51,1188.26 2437.5,1187C 2425.72,1185.22 2414.05,1182.89 2402.5,1180C 2433.32,1167.26 2461.98,1150.93 2488.5,1131C 2495.06,1124.27 2501.73,1117.77 2508.5,1111.5 Z"/></g>
<g><path style="opacity:1" fill="#fefefc" d="M 1885.5,1172.5 C 1886.17,1172.5 1886.83,1172.5 1887.5,1172.5C 1903.22,1175.01 1918.88,1177.84 1934.5,1181C 1939.16,1181.83 1943.83,1182.17 1948.5,1182C 1980.28,1167.12 2008.94,1147.79 2034.5,1124C 2033.3,1123.35 2033.3,1122.85 2034.5,1122.5C 2035.47,1123.49 2036.63,1124.16 2038,1124.5C 2082.1,1133.21 2126.6,1136.71 2171.5,1135C 2180.68,1133.83 2189.68,1132.16 2198.5,1130C 2171.61,1149.19 2142.61,1164.53 2111.5,1176C 2061.47,1194.71 2010.13,1199.71 1957.5,1191C 1933.05,1186.06 1909.05,1179.89 1885.5,1172.5 Z"/></g>
<g><path style="opacity:1" fill="#fefdfa" d="M 2642.5,1205.5 C 2647.78,1204.93 2652.78,1205.76 2657.5,1208C 2659.04,1209.58 2660.21,1211.41 2661,1213.5C 2661.77,1218.9 2661.44,1224.24 2660,1229.5C 2657.71,1236.75 2654.87,1243.75 2651.5,1250.5C 2644.29,1242.45 2635.63,1236.62 2625.5,1233C 2621.83,1232.33 2618.17,1232.33 2614.5,1233C 2610.63,1235.6 2606.63,1237.6 2602.5,1239C 2603.74,1237.85 2604.74,1236.51 2605.5,1235C 2600.52,1233.89 2595.52,1232.89 2590.5,1232C 2606.49,1220.4 2623.83,1211.57 2642.5,1205.5 Z"/></g>
<g><path style="opacity:1" fill="#fefdfa" d="M 2162.5,1208.5 C 2180,1206.79 2186.17,1214.46 2181,1231.5C 2178.45,1238.98 2175.62,1246.32 2172.5,1253.5C 2166.1,1246.8 2158.77,1241.3 2150.5,1237C 2140.71,1233.69 2132.04,1235.52 2124.5,1242.5C 2123.72,1240.67 2124.38,1239.17 2126.5,1238C 2121.44,1237.05 2116.44,1235.88 2111.5,1234.5C 2127.32,1223.42 2144.32,1214.76 2162.5,1208.5 Z"/></g>
<g><path style="opacity:1" fill="#fefdfa" d="M 2514.5,1210.5 C 2534.18,1208.66 2540.01,1216.66 2532,1234.5C 2529.39,1240.43 2526.05,1245.76 2522,1250.5C 2506.93,1242.05 2492.1,1233.22 2477.5,1224C 2489.45,1218.18 2501.79,1213.68 2514.5,1210.5 Z"/></g>
<g><path style="opacity:1" fill="#fefdfa" d="M 2042.5,1213.5 C 2048.24,1213.21 2053.91,1213.71 2059.5,1215C 2061.55,1215.93 2063.05,1217.43 2064,1219.5C 2064.79,1223.93 2064.46,1228.26 2063,1232.5C 2059.7,1239.76 2055.87,1246.76 2051.5,1253.5C 2036.24,1244.9 2021.24,1235.9 2006.5,1226.5C 2018.19,1220.94 2030.19,1216.61 2042.5,1213.5 Z"/></g>
<g><path style="opacity:1" fill="#fefdfa" d="M 2743.5,1215.5 C 2750.17,1215.33 2756.84,1215.5 2763.5,1216C 2766.28,1217.11 2768.45,1218.95 2770,1221.5C 2770.29,1233.94 2766.79,1245.28 2759.5,1255.5C 2746.39,1242.18 2730.39,1236.68 2711.5,1239C 2706.12,1237.88 2700.78,1236.55 2695.5,1235C 2710.82,1226.68 2726.82,1220.18 2743.5,1215.5 Z"/></g>
<g><path style="opacity:0.989" fill="#15366f" d="M 2805.5,1216.5 C 2968.5,1216.5 3131.5,1216.5 3294.5,1216.5C 3294.67,1598.5 3294.5,1980.5 3294,2362.5C 3280.51,2564.34 3216.51,2748.01 3102,2913.5C 3017.64,3031.54 2913.8,3128.38 2790.5,3204C 2685.63,3267.76 2573.97,3316.26 2455.5,3349.5C 2392.98,3334.49 2332.32,3313.99 2273.5,3288C 2131.28,3225.4 2005.78,3138.9 1897,3028.5C 1743.55,2865.93 1647.55,2673.6 1609,2451.5C 1603.21,2418.99 1598.55,2386.33 1595,2353.5C 1594.5,1976.5 1594.33,1599.5 1594.5,1222.5C 1716.5,1222.5 1838.5,1222.5 1960.5,1222.5C 1978.22,1229.69 1995.89,1237.19 2013.5,1245C 2018.31,1247.98 2022.64,1251.48 2026.5,1255.5C 1894.33,1256.5 1762,1256.83 1629.5,1256.5C 1629.17,1617.33 1629.5,1978 1630.5,2338.5C 1637.62,2407.22 1650.12,2474.89 1668,2541.5C 1673.82,2561.8 1680.32,2581.8 1687.5,2601.5C 1711.38,2674.93 1743.71,2744.6 1784.5,2810.5C 1817.72,2865.92 1856.05,2917.59 1899.5,2965.5C 1930.26,2999.26 1962.93,3030.93 1997.5,3060.5C 2028.44,3086.78 2060.77,3111.11 2094.5,3133.5C 2125.99,3155.76 2158.99,3175.76 2193.5,3193.5C 2276.16,3239.49 2363.49,3273.82 2455.5,3296.5C 2581.97,3259.59 2700.3,3205.42 2810.5,3134C 3037.39,2978.3 3180.22,2765.46 3239,2495.5C 3250.09,2444.75 3256.59,2393.41 3258.5,2341.5C 3259.5,1978.33 3259.83,1615 3259.5,1251.5C 3109.83,1252.17 2960.5,1251.5 2811.5,1249.5C 2811.99,1247.19 2812.33,1244.86 2812.5,1242.5C 2813.61,1241.05 2813.78,1239.39 2813,1237.5C 2812.58,1238.76 2811.75,1239.42 2810.5,1239.5C 2809.86,1231.59 2808.19,1223.92 2805.5,1216.5 Z"/></g>
<g><path style="opacity:0.951" fill="#87d7f7" d="M 3490.5,1216.5 C 3550.55,1215.75 3591.72,1243.09 3614,1298.5C 3628.39,1350.82 3615.55,1394.98 3575.5,1431C 3542.83,1455.82 3506.49,1463.15 3466.5,1453C 3417.15,1436.65 3388.31,1402.81 3380,1351.5C 3376.04,1298.58 3396.54,1258.42 3441.5,1231C 3457.03,1222.99 3473.36,1218.15 3490.5,1216.5 Z M 3488.5,1233.5 C 3531.91,1230.62 3564.74,1247.62 3587,1284.5C 3606.06,1324.37 3603.73,1363.04 3580,1400.5C 3550.65,1436.14 3513.49,1447.97 3468.5,1436C 3423.79,1418.27 3400.46,1385.27 3398.5,1337C 3402.05,1279.3 3432.05,1244.8 3488.5,1233.5 Z M 3472.5,1281.5 C 3490.91,1280.99 3509.24,1281.83 3527.5,1284C 3537.77,1287.27 3543.1,1294.27 3543.5,1305C 3542.55,1319.28 3534.89,1326.95 3520.5,1328C 3504.5,1328.5 3488.5,1328.67 3472.5,1328.5C 3472.5,1312.83 3472.5,1297.17 3472.5,1281.5 Z"/></g>
<g><path style="opacity:1" fill="#fefdf9" d="M 2263.5,1222.5 C 2269.51,1222.33 2275.51,1222.5 2281.5,1223C 2289.68,1225.68 2293.35,1231.35 2292.5,1240C 2292.03,1246.43 2290.53,1252.6 2288,1258.5C 2281.57,1250.09 2273.07,1244.92 2262.5,1243C 2253.79,1242.8 2245.12,1242.13 2236.5,1241C 2232.7,1239.93 2229.03,1238.59 2225.5,1237C 2237.71,1230.72 2250.37,1225.89 2263.5,1222.5 Z"/></g>
<g><path style="opacity:1" fill="#62634d" d="M 2441.5,1225.5 C 2412.5,1225.5 2383.5,1225.5 2354.5,1225.5C 2354.82,1230.36 2354.49,1235.03 2353.5,1239.5C 2353.5,1234.5 2353.5,1229.5 2353.5,1224.5C 2383,1224.17 2412.34,1224.5 2441.5,1225.5 Z"/></g>
<g><path style="opacity:1" fill="#193770" d="M 2441.5,1225.5 C 2447.15,1226.82 2452.49,1228.99 2457.5,1232C 2467.63,1237.3 2475.63,1244.8 2481.5,1254.5C 2438.5,1254.5 2395.5,1254.5 2352.5,1254.5C 2352.92,1249.51 2353.25,1244.51 2353.5,1239.5C 2354.49,1235.03 2354.82,1230.36 2354.5,1225.5C 2383.5,1225.5 2412.5,1225.5 2441.5,1225.5 Z"/></g>
<g><path style="opacity:1" fill="#1c396f" d="M 2136.5,1256.5 C 2127.5,1256.5 2118.5,1256.5 2109.5,1256.5C 2109.57,1250.18 2108.24,1244.18 2105.5,1238.5C 2118.18,1240.13 2128.52,1246.13 2136.5,1256.5 Z"/></g>
<g><path style="opacity:1" fill="#243e72" d="M 2597.5,1253.5 C 2592.17,1253.5 2586.83,1253.5 2581.5,1253.5C 2581.31,1248.37 2581.31,1243.37 2581.5,1238.5C 2588.16,1242.16 2593.49,1247.16 2597.5,1253.5 Z"/></g>
<g><path style="opacity:1" fill="#746b49" d="M 2812.5,1242.5 C 2812.57,1242.06 2812.4,1241.73 2812,1241.5C 2811.67,1242.17 2811.33,1242.83 2811,1243.5C 2810.51,1242.21 2810.34,1240.87 2810.5,1239.5C 2811.75,1239.42 2812.58,1238.76 2813,1237.5C 2813.78,1239.39 2813.61,1241.05 2812.5,1242.5 Z"/></g>
<g><path style="opacity:1" fill="#1c396f" d="M 2712.5,1252.5 C 2706.83,1252.5 2701.17,1252.5 2695.5,1252.5C 2695.78,1249.55 2695.44,1246.72 2694.5,1244C 2701.65,1244.41 2707.65,1247.24 2712.5,1252.5 Z"/></g>
<g><path style="opacity:1" fill="#21396c" d="M 2241.5,1255.5 C 2236.5,1255.5 2231.5,1255.5 2226.5,1255.5C 2225.37,1253.03 2225.2,1250.37 2226,1247.5C 2231.71,1249.27 2236.88,1251.94 2241.5,1255.5 Z"/></g>
<g><path style="opacity:1" fill="#94a3bd" d="M 2811.5,1249.5 C 2960.5,1251.5 3109.83,1252.17 3259.5,1251.5C 3259.83,1615 3259.5,1978.33 3258.5,2341.5C 3258.5,1978.5 3258.5,1615.5 3258.5,1252.5C 3109.17,1252.5 2959.83,1252.5 2810.5,1252.5C 2810.26,1251.21 2810.6,1250.21 2811.5,1249.5 Z"/></g>
<g><path style="opacity:1" fill="#fefefe" d="M 2695.5,1252.5 C 2701.17,1252.5 2706.83,1252.5 2712.5,1252.5C 2719.2,1257.89 2723.37,1264.89 2725,1273.5C 2725.4,1303.21 2717.24,1330.37 2700.5,1355C 2731.37,1341.56 2759.37,1323.56 2784.5,1301C 2798.8,1287.89 2807.47,1271.73 2810.5,1252.5C 2959.83,1252.5 3109.17,1252.5 3258.5,1252.5C 3258.5,1615.5 3258.5,1978.5 3258.5,2341.5C 3256.59,2393.41 3250.09,2444.75 3239,2495.5C 3180.22,2765.46 3037.39,2978.3 2810.5,3134C 2700.3,3205.42 2581.97,3259.59 2455.5,3296.5C 2363.49,3273.82 2276.16,3239.49 2193.5,3193.5C 2192.5,3134.24 2192.17,3074.9 2192.5,3015.5C 2255.4,3052.78 2321.4,3083.28 2390.5,3107C 2411.24,3113.78 2432.24,3119.61 2453.5,3124.5C 2559.9,3093.79 2659.24,3048.29 2751.5,2988C 2933.95,2862.39 3050.79,2691.22 3102,2474.5C 3106.72,2451.89 3111.06,2429.22 3115,2406.5C 3117.93,2383.56 3120.26,2360.56 3122,2337.5C 3122.5,2154.17 3122.67,1970.83 3122.5,1787.5C 2828.5,1787.5 2534.5,1787.5 2240.5,1787.5C 2224.5,1787.5 2208.5,1787.5 2192.5,1787.5C 2192.5,1632.83 2192.5,1478.17 2192.5,1323.5C 2197.1,1319.4 2201.6,1315.06 2206,1310.5C 2220.1,1294.95 2226.93,1276.62 2226.5,1255.5C 2231.5,1255.5 2236.5,1255.5 2241.5,1255.5C 2254.1,1265.04 2259.26,1277.71 2257,1293.5C 2252.41,1318.84 2242.25,1341.67 2226.5,1362C 2258.53,1355.32 2287.2,1341.65 2312.5,1321C 2333.43,1303.29 2346.76,1281.12 2352.5,1254.5C 2395.5,1254.5 2438.5,1254.5 2481.5,1254.5C 2483.81,1257.1 2485.64,1260.1 2487,1263.5C 2489.99,1273.39 2490.32,1283.39 2488,1293.5C 2482.73,1310.88 2474.23,1326.38 2462.5,1340C 2477.07,1337.59 2491.4,1333.93 2505.5,1329C 2528.1,1321.62 2547.93,1309.79 2565,1293.5C 2575.27,1282.2 2580.77,1268.86 2581.5,1253.5C 2586.83,1253.5 2592.17,1253.5 2597.5,1253.5C 2599.45,1254.72 2600.95,1256.38 2602,1258.5C 2610.46,1275.22 2611.79,1292.55 2606,1310.5C 2600.57,1324.37 2593.9,1337.37 2586,1349.5C 2599.67,1343.42 2613.17,1336.92 2626.5,1330C 2645.98,1319.52 2663.48,1306.36 2679,1290.5C 2688.86,1279.74 2694.36,1267.08 2695.5,1252.5 Z"/></g>
<g><path style="opacity:1" fill="#f5f5f5" d="M 2109.5,1256.5 C 2118.5,1256.5 2127.5,1256.5 2136.5,1256.5C 2144.99,1268.81 2148.49,1282.48 2147,1297.5C 2144.02,1318.95 2137.52,1339.28 2127.5,1358.5C 2151.41,1351.37 2173.08,1339.7 2192.5,1323.5C 2192.5,1478.17 2192.5,1632.83 2192.5,1787.5C 2159.5,1787.5 2126.5,1787.5 2093.5,1787.5C 2093.5,1749.17 2093.5,1710.83 2093.5,1672.5C 2110.86,1654.26 2117.69,1632.59 2114,1607.5C 2112.46,1601.57 2110.13,1595.91 2107,1590.5C 2103.67,1585.83 2100.33,1581.17 2097,1576.5C 2081.63,1561.47 2065.97,1546.8 2050,1532.5C 2039.28,1513.69 2041.78,1496.86 2057.5,1482C 2067.52,1476.71 2078.18,1475.04 2089.5,1477C 2104.87,1482.57 2114.04,1493.4 2117,1509.5C 2118.16,1516.45 2118.66,1523.45 2118.5,1530.5C 2122.03,1531.01 2125.2,1530.34 2128,1528.5C 2133.35,1507.45 2138.85,1486.45 2144.5,1465.5C 2141.1,1465.18 2137.77,1465.51 2134.5,1466.5C 2131.05,1471.64 2126.21,1473.98 2120,1473.5C 2110.91,1472.18 2102.07,1469.85 2093.5,1466.5C 2093.5,1411.17 2093.5,1355.83 2093.5,1300.5C 2103.38,1287.53 2108.71,1272.86 2109.5,1256.5 Z"/></g>
<g><path style="opacity:1" fill="#687b9b" d="M 2026.5,1255.5 C 2027.5,1255.83 2028.17,1256.5 2028.5,1257.5C 1985.5,1257.5 1942.5,1257.5 1899.5,1257.5C 1861.17,1257.5 1822.83,1257.5 1784.5,1257.5C 1752.17,1257.5 1719.83,1257.5 1687.5,1257.5C 1668.5,1257.5 1649.5,1257.5 1630.5,1257.5C 1630.5,1617.83 1630.5,1978.17 1630.5,2338.5C 1629.5,1978 1629.17,1617.33 1629.5,1256.5C 1762,1256.83 1894.33,1256.5 2026.5,1255.5 Z"/></g>
<g><path style="opacity:1" fill="#d8d8d8" d="M 1687.5,1257.5 C 1687.5,1705.5 1687.5,2153.5 1687.5,2601.5C 1680.32,2581.8 1673.82,2561.8 1668,2541.5C 1650.12,2474.89 1637.62,2407.22 1630.5,2338.5C 1630.5,1978.17 1630.5,1617.83 1630.5,1257.5C 1649.5,1257.5 1668.5,1257.5 1687.5,1257.5 Z"/></g>
<g><path style="opacity:1" fill="#dddddd" d="M 1687.5,1257.5 C 1719.83,1257.5 1752.17,1257.5 1784.5,1257.5C 1784.5,1388.5 1784.5,1519.5 1784.5,1650.5C 1783.68,1648.61 1782.84,1646.61 1782,1644.5C 1781.5,1636.84 1781.33,1629.17 1781.5,1621.5C 1778.17,1621.5 1774.83,1621.5 1771.5,1621.5C 1765.75,1645.74 1760.42,1670.08 1755.5,1694.5C 1758.9,1694.82 1762.23,1694.49 1765.5,1693.5C 1768.9,1683.63 1775.24,1680.63 1784.5,1684.5C 1784.5,1718.83 1784.5,1753.17 1784.5,1787.5C 1822.83,1787.5 1861.17,1787.5 1899.5,1787.5C 1931.83,1787.5 1964.17,1787.5 1996.5,1787.5C 2028.83,1787.5 2061.17,1787.5 2093.5,1787.5C 2126.5,1787.5 2159.5,1787.5 2192.5,1787.5C 2208.5,1787.5 2224.5,1787.5 2240.5,1787.5C 2082.67,1788.5 1924.67,1788.83 1766.5,1788.5C 1766.33,1967.83 1766.5,2147.17 1767,2326.5C 1771.54,2366.06 1777.7,2405.39 1785.5,2444.5C 1784.5,2566.33 1784.17,2688.33 1784.5,2810.5C 1743.71,2744.6 1711.38,2674.93 1687.5,2601.5C 1687.5,2153.5 1687.5,1705.5 1687.5,1257.5 Z"/></g>
<g><path style="opacity:1" fill="#e3e3e3" d="M 1784.5,1257.5 C 1822.83,1257.5 1861.17,1257.5 1899.5,1257.5C 1899.5,1328.17 1899.5,1398.83 1899.5,1469.5C 1877.01,1461.89 1855.01,1463.06 1833.5,1473C 1807.37,1489.43 1796.54,1512.93 1801,1543.5C 1805.01,1554.17 1810.67,1563.83 1818,1572.5C 1831.97,1585.47 1845.64,1598.8 1859,1612.5C 1875.04,1633.17 1874.21,1653.17 1856.5,1672.5C 1843.14,1683.47 1828.14,1686.3 1811.5,1681C 1797.66,1675 1788.66,1664.84 1784.5,1650.5C 1784.5,1519.5 1784.5,1388.5 1784.5,1257.5 Z"/></g>
<g><path style="opacity:1" fill="#eaeaea" d="M 1899.5,1257.5 C 1942.5,1257.5 1985.5,1257.5 2028.5,1257.5C 2029.8,1258.99 2030.97,1260.65 2032,1262.5C 2025.76,1293.02 2014.42,1321.68 1998,1348.5C 1993.17,1354.67 1987.67,1360.17 1981.5,1365C 1986.54,1364.72 1991.54,1363.88 1996.5,1362.5C 1996.5,1463.83 1996.5,1565.17 1996.5,1666.5C 1991.44,1660.39 1987.94,1653.39 1986,1645.5C 1984.9,1637.54 1984.4,1629.54 1984.5,1621.5C 1981.22,1621.22 1978.06,1621.55 1975,1622.5C 1969.29,1646.4 1964.13,1670.4 1959.5,1694.5C 1962.52,1694.66 1965.52,1694.5 1968.5,1694C 1970.81,1689.36 1974.14,1685.69 1978.5,1683C 1985.04,1682.64 1991.04,1684.14 1996.5,1687.5C 1996.5,1720.83 1996.5,1754.17 1996.5,1787.5C 1964.17,1787.5 1931.83,1787.5 1899.5,1787.5C 1899.5,1745.17 1899.5,1702.83 1899.5,1660.5C 1915.39,1635.13 1915.39,1609.8 1899.5,1584.5C 1899.17,1551.33 1899.5,1518.33 1900.5,1485.5C 1906.13,1490.66 1909.97,1496.99 1912,1504.5C 1914,1513.05 1914.84,1521.72 1914.5,1530.5C 1918.03,1531.01 1921.2,1530.34 1924,1528.5C 1929.66,1507.53 1935.16,1486.53 1940.5,1465.5C 1937.48,1465.34 1934.48,1465.5 1931.5,1466C 1925.77,1473.1 1918.44,1475.43 1909.5,1473C 1906.11,1471.92 1902.77,1470.76 1899.5,1469.5C 1899.5,1398.83 1899.5,1328.17 1899.5,1257.5 Z"/></g>
<g><path style="opacity:0.934" fill="#86d7f6" d="M 3454.5,1269.5 C 3478.17,1269.33 3501.84,1269.5 3525.5,1270C 3556.55,1273.9 3567.72,1291.06 3559,1321.5C 3555.5,1329 3550,1334.5 3542.5,1338C 3535.36,1340.5 3528.03,1342.16 3520.5,1343C 3533.83,1363.33 3547.17,1383.67 3560.5,1404C 3553.25,1404.81 3546.09,1404.65 3539,1403.5C 3526.63,1383.25 3514.13,1363.08 3501.5,1343C 3491.84,1342.5 3482.17,1342.33 3472.5,1342.5C 3472.5,1363.17 3472.5,1383.83 3472.5,1404.5C 3466.5,1404.5 3460.5,1404.5 3454.5,1404.5C 3454.5,1359.5 3454.5,1314.5 3454.5,1269.5 Z M 3472.5,1281.5 C 3472.5,1297.17 3472.5,1312.83 3472.5,1328.5C 3488.5,1328.67 3504.5,1328.5 3520.5,1328C 3534.89,1326.95 3542.55,1319.28 3543.5,1305C 3543.1,1294.27 3537.77,1287.27 3527.5,1284C 3509.24,1281.83 3490.91,1280.99 3472.5,1281.5 Z"/></g>
<g><path style="opacity:1" fill="#efefef" d="M 2093.5,1300.5 C 2093.5,1355.83 2093.5,1411.17 2093.5,1466.5C 2073.25,1461.98 2053.92,1464.48 2035.5,1474C 2003.35,1496.42 1995.85,1525.25 2013,1560.5C 2017.78,1567.72 2023.28,1574.39 2029.5,1580.5C 2040.79,1590.29 2051.62,1600.62 2062,1611.5C 2079.89,1634.54 2078.06,1656.04 2056.5,1676C 2033.82,1688.6 2013.82,1685.43 1996.5,1666.5C 1996.5,1565.17 1996.5,1463.83 1996.5,1362.5C 2011.22,1357.15 2025.55,1350.65 2039.5,1343C 2060.01,1331.99 2078.01,1317.82 2093.5,1300.5 Z"/></g>
<g><path style="opacity:1" fill="#173770" d="M 3066.5,1464.5 C 3091.16,1461.44 3113.82,1466.6 3134.5,1480C 3158.26,1500.8 3167.43,1526.97 3162,1558.5C 3153.59,1606.81 3129.76,1645.64 3090.5,1675C 3062.24,1693.38 3031.58,1699.04 2998.5,1692C 2973.91,1683.74 2957.74,1667.24 2950,1642.5C 2943.33,1605.81 2949.67,1571.48 2969,1539.5C 2984.35,1515.27 3003.85,1495.1 3027.5,1479C 3039.98,1472.47 3052.98,1467.64 3066.5,1464.5 Z"/></g>
<g><path style="opacity:1" fill="#183770" d="M 1899.5,1469.5 C 1902.77,1470.76 1906.11,1471.92 1909.5,1473C 1918.44,1475.43 1925.77,1473.1 1931.5,1466C 1934.48,1465.5 1937.48,1465.34 1940.5,1465.5C 1935.16,1486.53 1929.66,1507.53 1924,1528.5C 1921.2,1530.34 1918.03,1531.01 1914.5,1530.5C 1914.84,1521.72 1914,1513.05 1912,1504.5C 1909.97,1496.99 1906.13,1490.66 1900.5,1485.5C 1896.47,1481.15 1891.47,1478.31 1885.5,1477C 1861.87,1472.55 1846.71,1481.72 1840,1504.5C 1838.53,1514.61 1840.53,1523.94 1846,1532.5C 1859.5,1544.67 1873,1556.83 1886.5,1569C 1891.07,1574.06 1895.41,1579.23 1899.5,1584.5C 1915.39,1609.8 1915.39,1635.13 1899.5,1660.5C 1878.89,1687.33 1851.55,1698.5 1817.5,1694C 1806.17,1691.95 1795.17,1688.78 1784.5,1684.5C 1775.24,1680.63 1768.9,1683.63 1765.5,1693.5C 1762.23,1694.49 1758.9,1694.82 1755.5,1694.5C 1760.42,1670.08 1765.75,1645.74 1771.5,1621.5C 1774.83,1621.5 1778.17,1621.5 1781.5,1621.5C 1781.33,1629.17 1781.5,1636.84 1782,1644.5C 1782.84,1646.61 1783.68,1648.61 1784.5,1650.5C 1788.66,1664.84 1797.66,1675 1811.5,1681C 1828.14,1686.3 1843.14,1683.47 1856.5,1672.5C 1874.21,1653.17 1875.04,1633.17 1859,1612.5C 1845.64,1598.8 1831.97,1585.47 1818,1572.5C 1810.67,1563.83 1805.01,1554.17 1801,1543.5C 1796.54,1512.93 1807.37,1489.43 1833.5,1473C 1855.01,1463.06 1877.01,1461.89 1899.5,1469.5 Z"/></g>
<g><path style="opacity:1" fill="#173770" d="M 2093.5,1466.5 C 2102.07,1469.85 2110.91,1472.18 2120,1473.5C 2126.21,1473.98 2131.05,1471.64 2134.5,1466.5C 2137.77,1465.51 2141.1,1465.18 2144.5,1465.5C 2138.85,1486.45 2133.35,1507.45 2128,1528.5C 2125.2,1530.34 2122.03,1531.01 2118.5,1530.5C 2118.66,1523.45 2118.16,1516.45 2117,1509.5C 2114.04,1493.4 2104.87,1482.57 2089.5,1477C 2078.18,1475.04 2067.52,1476.71 2057.5,1482C 2041.78,1496.86 2039.28,1513.69 2050,1532.5C 2065.97,1546.8 2081.63,1561.47 2097,1576.5C 2100.33,1581.17 2103.67,1585.83 2107,1590.5C 2110.13,1595.91 2112.46,1601.57 2114,1607.5C 2117.69,1632.59 2110.86,1654.26 2093.5,1672.5C 2072.97,1690.61 2048.97,1697.78 2021.5,1694C 2012.93,1692.61 2004.6,1690.44 1996.5,1687.5C 1991.04,1684.14 1985.04,1682.64 1978.5,1683C 1974.14,1685.69 1970.81,1689.36 1968.5,1694C 1965.52,1694.5 1962.52,1694.66 1959.5,1694.5C 1964.13,1670.4 1969.29,1646.4 1975,1622.5C 1978.06,1621.55 1981.22,1621.22 1984.5,1621.5C 1984.4,1629.54 1984.9,1637.54 1986,1645.5C 1987.94,1653.39 1991.44,1660.39 1996.5,1666.5C 2013.82,1685.43 2033.82,1688.6 2056.5,1676C 2078.06,1656.04 2079.89,1634.54 2062,1611.5C 2051.62,1600.62 2040.79,1590.29 2029.5,1580.5C 2023.28,1574.39 2017.78,1567.72 2013,1560.5C 1995.85,1525.25 2003.35,1496.42 2035.5,1474C 2053.92,1464.48 2073.25,1461.98 2093.5,1466.5 Z"/></g>
<g><path style="opacity:1" fill="#17376f" d="M 2450.5,1691.5 C 2429.14,1692.16 2408.14,1691.49 2387.5,1689.5C 2387.26,1687.53 2387.59,1685.7 2388.5,1684C 2398.34,1681.5 2406.51,1676.33 2413,1668.5C 2463.78,1601.38 2514.95,1534.55 2566.5,1468C 2569.48,1467.5 2572.48,1467.34 2575.5,1467.5C 2576.87,1533.85 2578.7,1600.18 2581,1666.5C 2580.48,1673.67 2583.31,1678.84 2589.5,1682C 2593.5,1682.88 2597.5,1683.71 2601.5,1684.5C 2602.47,1686.74 2602.81,1689.08 2602.5,1691.5C 2569.49,1691.83 2536.49,1691.5 2503.5,1690.5C 2504.37,1688.25 2504.71,1685.92 2504.5,1683.5C 2512.97,1683.71 2520.8,1681.71 2528,1677.5C 2529.52,1675.26 2530.86,1672.93 2532,1670.5C 2533.38,1654.87 2533.88,1639.21 2533.5,1623.5C 2509.82,1623.17 2486.16,1623.5 2462.5,1624.5C 2455.53,1634.64 2448.36,1644.64 2441,1654.5C 2438.06,1659.37 2435.4,1664.37 2433,1669.5C 2431.85,1673.83 2432.68,1677.66 2435.5,1681C 2440.66,1682.96 2445.99,1683.8 2451.5,1683.5C 2451.81,1686.39 2451.47,1689.05 2450.5,1691.5 Z"/></g>
<g><path style="opacity:1" fill="#17376f" d="M 2248.5,1469.5 C 2282.17,1469.5 2315.83,1469.5 2349.5,1469.5C 2349.5,1472.5 2349.5,1475.5 2349.5,1478.5C 2341.36,1478.36 2333.69,1480.19 2326.5,1484C 2323.47,1486.56 2321.3,1489.73 2320,1493.5C 2304.43,1549.32 2289.43,1605.32 2275,1661.5C 2272.64,1669.04 2274.8,1674.54 2281.5,1678C 2312.46,1681.93 2340.46,1674.93 2365.5,1657C 2375.55,1647.8 2383.88,1637.3 2390.5,1625.5C 2393.04,1625.05 2395.71,1625.05 2398.5,1625.5C 2392.97,1646.62 2386.97,1667.62 2380.5,1688.5C 2321.5,1689.5 2262.5,1689.83 2203.5,1689.5C 2203.5,1686.5 2203.5,1683.5 2203.5,1680.5C 2214.16,1680.76 2221.66,1676.09 2226,1666.5C 2241.27,1612.36 2255.93,1558.02 2270,1503.5C 2271.68,1497.1 2271.68,1490.77 2270,1484.5C 2267.71,1482.06 2264.87,1480.56 2261.5,1480C 2257.17,1479.42 2252.83,1478.92 2248.5,1478.5C 2248.5,1475.5 2248.5,1472.5 2248.5,1469.5 Z"/></g>
<g><path style="opacity:1" fill="#173770" d="M 2670.5,1676.5 C 2669.96,1676.56 2669.62,1676.89 2669.5,1677.5C 2681.66,1678.82 2693.66,1678.82 2705.5,1677.5C 2744.19,1675.31 2773.86,1657.81 2794.5,1625C 2797.08,1625.26 2799.75,1625.42 2802.5,1625.5C 2794.9,1646.62 2786.9,1667.62 2778.5,1688.5C 2723.5,1689.5 2668.5,1689.83 2613.5,1689.5C 2612.92,1685.13 2613.76,1681.13 2616,1677.5C 2668.36,1612.64 2720.52,1547.64 2772.5,1482.5C 2726.1,1475.35 2689.43,1490.85 2662.5,1529C 2661.33,1529.17 2660.17,1529.33 2659,1529.5C 2656.62,1529.74 2654.78,1528.91 2653.5,1527C 2660.8,1508.09 2668.3,1489.25 2676,1470.5C 2726.76,1469.5 2777.59,1469.17 2828.5,1469.5C 2828.67,1472.85 2828.5,1476.18 2828,1479.5C 2774.91,1544.75 2722.41,1610.42 2670.5,1676.5 Z"/></g>
<g><path style="opacity:1" fill="#16366f" d="M 2855.5,1469.5 C 2887.83,1469.5 2920.17,1469.5 2952.5,1469.5C 2952.5,1472.5 2952.5,1475.5 2952.5,1478.5C 2941.78,1478.44 2933.95,1483.11 2929,1492.5C 2914.32,1545.86 2899.65,1599.19 2885,1652.5C 2883.95,1657.3 2883.12,1662.14 2882.5,1667C 2882.01,1672.7 2884.35,1676.7 2889.5,1679C 2895.14,1680.1 2900.8,1680.93 2906.5,1681.5C 2906.5,1684.17 2906.5,1686.83 2906.5,1689.5C 2874.17,1689.5 2841.83,1689.5 2809.5,1689.5C 2809.19,1686.75 2809.52,1684.09 2810.5,1681.5C 2819.03,1680.82 2825.87,1677.15 2831,1670.5C 2832.53,1667.58 2833.86,1664.58 2835,1661.5C 2848.54,1609.68 2862.54,1558.01 2877,1506.5C 2877.91,1501.68 2878.75,1496.84 2879.5,1492C 2880.08,1486.36 2877.75,1482.69 2872.5,1481C 2866.89,1479.73 2861.22,1478.9 2855.5,1478.5C 2855.5,1475.5 2855.5,1472.5 2855.5,1469.5 Z"/></g>
<g><path style="opacity:1" fill="#fdfefe" d="M 3072.5,1475.5 C 3092.74,1471.96 3106.58,1479.63 3114,1498.5C 3115.55,1510.12 3115.89,1521.78 3115,1533.5C 3109.56,1574.28 3096.89,1612.62 3077,1648.5C 3069.36,1663.47 3057.86,1674.31 3042.5,1681C 3013.96,1689.46 2997.8,1678.96 2994,1649.5C 2992.98,1625.96 2995.98,1602.96 3003,1580.5C 3009.91,1556.01 3019.58,1532.68 3032,1510.5C 3041.43,1493.89 3054.93,1482.22 3072.5,1475.5 Z"/></g>
<g><path style="opacity:1" fill="#e4e4e5" d="M 1900.5,1485.5 C 1899.5,1518.33 1899.17,1551.33 1899.5,1584.5C 1895.41,1579.23 1891.07,1574.06 1886.5,1569C 1873,1556.83 1859.5,1544.67 1846,1532.5C 1840.53,1523.94 1838.53,1514.61 1840,1504.5C 1846.71,1481.72 1861.87,1472.55 1885.5,1477C 1891.47,1478.31 1896.47,1481.15 1900.5,1485.5 Z"/></g>
<g><path style="opacity:1" fill="#fafafc" d="M 2531.5,1530.5 C 2532.95,1556.99 2533.62,1583.65 2533.5,1610.5C 2513.49,1610.83 2493.49,1610.5 2473.5,1609.5C 2493.09,1583.31 2512.42,1556.98 2531.5,1530.5 Z"/></g>
<g><path style="opacity:1" fill="#173770" d="M 1923.5,1646.5 C 1935.78,1645.2 1944.95,1649.86 1951,1660.5C 1954.11,1677.47 1947.61,1688.63 1931.5,1694C 1918.81,1696.08 1909.98,1691.24 1905,1679.5C 1902.36,1663.44 1908.53,1652.44 1923.5,1646.5 Z"/></g>
<g><path style="opacity:1" fill="#183770" d="M 2137.5,1646.5 C 2152.15,1644.56 2161.65,1650.56 2166,1664.5C 2166.97,1679.72 2160.13,1689.56 2145.5,1694C 2131.81,1696.24 2122.98,1690.74 2119,1677.5C 2117.1,1662.25 2123.27,1651.92 2137.5,1646.5 Z"/></g>
<g><path style="opacity:1" fill="#e3e3e3" d="M 1899.5,1660.5 C 1899.5,1702.83 1899.5,1745.17 1899.5,1787.5C 1861.17,1787.5 1822.83,1787.5 1784.5,1787.5C 1784.5,1753.17 1784.5,1718.83 1784.5,1684.5C 1795.17,1688.78 1806.17,1691.95 1817.5,1694C 1851.55,1698.5 1878.89,1687.33 1899.5,1660.5 Z"/></g>
<g><path style="opacity:1" fill="#f0f0f0" d="M 2093.5,1672.5 C 2093.5,1710.83 2093.5,1749.17 2093.5,1787.5C 2061.17,1787.5 2028.83,1787.5 1996.5,1787.5C 1996.5,1754.17 1996.5,1720.83 1996.5,1687.5C 2004.6,1690.44 2012.93,1692.61 2021.5,1694C 2048.97,1697.78 2072.97,1690.61 2093.5,1672.5 Z"/></g>
<g><path style="opacity:1" fill="#b7c1d2" d="M 2670.5,1676.5 C 2681.99,1677.49 2693.65,1677.83 2705.5,1677.5C 2693.66,1678.82 2681.66,1678.82 2669.5,1677.5C 2669.62,1676.89 2669.96,1676.56 2670.5,1676.5 Z"/></g>
<g><path style="opacity:1" fill="#8c9cb8" d="M 2387.5,1689.5 C 2408.14,1691.49 2429.14,1692.16 2450.5,1691.5C 2429.34,1692.5 2408.01,1692.83 2386.5,1692.5C 2386.26,1691.21 2386.6,1690.21 2387.5,1689.5 Z"/></g>
<g><path style="opacity:1" fill="#173770" d="M 2240.5,1787.5 C 2534.5,1787.5 2828.5,1787.5 3122.5,1787.5C 3122.67,1970.83 3122.5,2154.17 3122,2337.5C 3120.26,2360.56 3117.93,2383.56 3115,2406.5C 3111.06,2429.22 3106.72,2451.89 3102,2474.5C 3050.79,2691.22 2933.95,2862.39 2751.5,2988C 2659.24,3048.29 2559.9,3093.79 2453.5,3124.5C 2432.24,3119.61 2411.24,3113.78 2390.5,3107C 2321.4,3083.28 2255.4,3052.78 2192.5,3015.5C 2158.75,2994.09 2126.08,2971.09 2094.5,2946.5C 2061.03,2919.37 2029.36,2890.04 1999.5,2858.5C 1962.64,2818.67 1929.64,2776 1900.5,2730.5C 1856.95,2659.06 1823.45,2583.06 1800,2502.5C 1795.03,2483.1 1790.19,2463.77 1785.5,2444.5C 1777.7,2405.39 1771.54,2366.06 1767,2326.5C 1766.5,2147.17 1766.33,1967.83 1766.5,1788.5C 1924.67,1788.83 2082.67,1788.5 2240.5,1787.5 Z"/></g>
<g><path style="opacity:1" fill="#fefefe" d="M 2229.5,1820.5 C 2380.83,1820.5 2532.17,1820.5 2683.5,1820.5C 2683.5,2211.5 2683.5,2602.5 2683.5,2993.5C 2615.17,3034.73 2542.51,3066.06 2465.5,3087.5C 2460.99,3087.71 2456.66,3088.71 2452.5,3090.5C 2450.93,3089.69 2449.26,3089.36 2447.5,3089.5C 2435.73,3087.72 2424.39,3084.72 2413.5,3080.5C 2407.78,3077.93 2401.78,3075.93 2395.5,3074.5C 2389.5,3071.72 2383.17,3069.72 2376.5,3068.5C 2325.58,3051.04 2276.91,3028.7 2230.5,3001.5C 2229.5,2607.9 2229.17,2214.24 2229.5,1820.5 Z"/></g>
<g><path style="opacity:1" fill="#83d7f8" d="M 2683.5,1820.5 C 2818.5,1820.5 2953.5,1820.5 3088.5,1820.5C 3088.67,1995.83 3088.5,2171.17 3088,2346.5C 3074.77,2522.61 3012.43,2678.61 2901,2814.5C 2838.65,2887.07 2766.15,2946.73 2683.5,2993.5C 2683.5,2602.5 2683.5,2211.5 2683.5,1820.5 Z"/></g>
<g><path style="opacity:1" fill="#83d7f8" d="M 2228.5,1821.5 C 2228.5,2214.5 2228.5,2607.5 2228.5,3000.5C 2014.56,2878.01 1878.73,2696.68 1821,2456.5C 1812.48,2417.52 1805.81,2378.19 1801,2338.5C 1800.5,2166.17 1800.33,1993.83 1800.5,1821.5C 1943.17,1821.5 2085.83,1821.5 2228.5,1821.5 Z"/></g>
<g><path style="opacity:1" fill="#e0f4fc" d="M 2229.5,1820.5 C 2229.17,2214.24 2229.5,2607.9 2230.5,3001.5C 2229.51,3001.67 2228.84,3001.34 2228.5,3000.5C 2228.5,2607.5 2228.5,2214.5 2228.5,1821.5C 2228.5,1820.83 2228.83,1820.5 2229.5,1820.5 Z"/></g>
<g><path style="opacity:1" fill="#e3e3e3" d="M 1785.5,2444.5 C 1790.19,2463.77 1795.03,2483.1 1800,2502.5C 1823.45,2583.06 1856.95,2659.06 1900.5,2730.5C 1899.5,2808.66 1899.17,2887 1899.5,2965.5C 1856.05,2917.59 1817.72,2865.92 1784.5,2810.5C 1784.17,2688.33 1784.5,2566.33 1785.5,2444.5 Z"/></g>
<g><path style="opacity:1" fill="#e9e9ea" d="M 1900.5,2730.5 C 1929.64,2776 1962.64,2818.67 1999.5,2858.5C 1998.5,2858.59 1997.67,2858.25 1997,2857.5C 1996.17,2925.21 1996.34,2992.87 1997.5,3060.5C 1962.93,3030.93 1930.26,2999.26 1899.5,2965.5C 1899.17,2887 1899.5,2808.66 1900.5,2730.5 Z"/></g>
<g><path style="opacity:1" fill="#efeff0" d="M 1999.5,2858.5 C 2029.36,2890.04 2061.03,2919.37 2094.5,2946.5C 2093.17,3008.74 2093.17,3071.07 2094.5,3133.5C 2060.77,3111.11 2028.44,3086.78 1997.5,3060.5C 1996.34,2992.87 1996.17,2925.21 1997,2857.5C 1997.67,2858.25 1998.5,2858.59 1999.5,2858.5 Z"/></g>
<g><path style="opacity:1" fill="#f5f5f6" d="M 2094.5,2946.5 C 2126.08,2971.09 2158.75,2994.09 2192.5,3015.5C 2192.17,3074.9 2192.5,3134.24 2193.5,3193.5C 2158.99,3175.76 2125.99,3155.76 2094.5,3133.5C 2093.17,3071.07 2093.17,3008.74 2094.5,2946.5 Z"/></g>
<g><path style="opacity:1" fill="#81bdde" d="M 2376.5,3068.5 C 2383.17,3069.72 2389.5,3071.72 2395.5,3074.5C 2388.83,3073.28 2382.5,3071.28 2376.5,3068.5 Z"/></g>
<g><path style="opacity:1" fill="#7ebdde" d="M 2395.5,3074.5 C 2401.78,3075.93 2407.78,3077.93 2413.5,3080.5C 2407.09,3079.47 2401.09,3077.47 2395.5,3074.5 Z"/></g>
<g><path style="opacity:1" fill="#81bedf" d="M 2465.5,3087.5 C 2461.33,3088.97 2457,3090.3 2452.5,3091.5C 2450.58,3091.2 2448.91,3090.53 2447.5,3089.5C 2449.26,3089.36 2450.93,3089.69 2452.5,3090.5C 2456.66,3088.71 2460.99,3087.71 2465.5,3087.5 Z"/></g>
</svg>
