<svg xmlns="http://www.w3.org/2000/svg" viewBox="0 0 638 789"><title>as-roıma-logo-freelogovectors.net</title><path d="M531.68147,770.49834a583.4144,583.4144,0,0,1-174.232-159.00926A554.68106,554.68106,0,0,1,267.6449,417.641l-1.502-6.15069L260.69064,384.98a555.34972,555.34972,0,0,1,.50317-201.62848l1.99015-10.79937,10.69424-2.253a536.29617,536.29617,0,0,0,134.17365-50.317c89.49668-50.24942,119.70941-82.13688,120.02482-82.42977L540.04012,24.5l11.96342,13.08993c.24033.27036,30.43051,32.09023,119.94222,82.45229a536.83717,536.83717,0,0,0,134.14358,50.317l10.71679,2.253,1.99014,10.76934A554.82448,554.82448,0,0,1,819.307,384.98l-1.69725,9.5377-5.257,23.13079a554.23784,554.23784,0,0,1-89.7896,193.82557,583.309,583.309,0,0,1-174.232,159.00927L540.02508,775.5l-8.3361-5.01667Z" transform="translate(-221 -5.5)"/><path d="M804.97036,183.59185a557.092,557.092,0,0,1-139.94887-52.20951C569.86981,78.06133,539.995,45.40786,539.995,45.40786S510.12027,78.09136,414.9911,131.3673a557.28759,557.28759,0,0,1-139.94885,52.20951,539.87112,539.87112,0,0,0,3.372,215.73228H801.56836a539.86373,539.86373,0,0,0,3.387-215.73225" transform="translate(-221 -5.5)" style="fill:#ffba00"/><path d="M539.95,761.27608c137.74841-82.26461,228.40161-210.94854,260.09382-354.38935H279.85617C311.56339,550.32777,402.2016,679.01147,539.95,761.27608" transform="translate(-221 -5.5)" style="fill:#990a2c"/><path d="M353.19885,498.99687c0-17.70859,0-20.99055-.2328-24.7153-.2328-3.95783-1.164-5.82776-5.01667-6.65375a24.37431,24.37431,0,0,0-4.55108-.33805c-1.2842,0-1.99015-.23286-1.99015-1.04395s.8261-1.05885,2.576-1.05885c6.19572,0,13.518.353,15.97376.353,3.95777,0,12.83459-.353,16.43941-.353a37.28737,37.28737,0,0,1,21.44858,5.01668,20.2095,20.2095,0,0,1,7.93056,15.97388c0,8.62889-3.61984,16.52209-15.38045,26.12731,10.36378,13.06,18.42956,23.43117,25.30121,30.66339a23.11521,23.11521,0,0,0,13.05988,7.923,18.55683,18.55683,0,0,0,3.26683.353c.94626,0,1.39684.35294,1.39684.93118,0,.93119-.82611,1.164-2.20793,1.164H420.13544a23.98779,23.98779,0,0,1-12.48164-2.208A56.20363,56.20363,0,0,1,391.68,533.9935c-4.66372-6.406-10.02584-14.33657-11.52787-16.08641a2.43359,2.43359,0,0,0-2.10279-.81109l-10.13849-.23286c-.59331,0-.93125.23286-.93125.93119v1.62975c0,10.83688,0,20.0518.58581,24.94815.35294,3.38693,1.04389,5.94786,4.55108,6.42114a54.07181,54.07181,0,0,0,5.71512.45814c.93124,0,1.39684.35295,1.39684.93875,0,.826-.8111,1.164-2.32809,1.164-6.759,0-15.39552-.35295-17.1378-.35295-2.253,0-9.55274.35295-14.22392.35295-1.502,0-2.32808-.35295-2.32808-1.164,0-.5858.47316-.93875,1.87-.93875a20.12167,20.12167,0,0,0,4.19807-.45814c2.32058-.473,2.89887-3.004,3.372-6.42114.57074-4.889.57074-14.10371.57074-24.82049V499.03446Zm13.76583,9.21469c0,1.27681.2403,1.74985,1.04389,2.1028a30.34655,30.34655,0,0,0,8.8618,1.164,11.58831,11.58831,0,0,0,8.261-1.99026,20.53241,20.53241,0,0,0,6.88667-17.48331c0-16.52209-10.94958-21.35839-17.84376-21.35839a26.297,26.297,0,0,0-6.18071.45814c-.8111.23286-1.04389.7059-1.04389,1.63709v35.4472Z" transform="translate(-221 -5.5)" style="fill:#1d1d1b"/><path d="M428.50913,509.25528a44.90218,44.90218,0,0,1,43.97067-45.81494q2.09311-.043,4.18347.10909c29.02619,0,47.10274,16.91263,47.10274,43.55791a46.11144,46.11144,0,0,1-44.3211,47.83477q-1.97244.07494-3.94568-.01857a44.40656,44.40656,0,0,1-46.935-41.72532q-.11671-1.98808-.05512-3.98052m78.93006,2.208c0-26.12732-15.02-42.31892-34.163-42.31892-13.41283,0-28.67313,7.46485-28.67313,36.50605,0,24.24226,13.39036,43.483,35.78514,43.483,8.15585,0,27.036-3.95783,27.036-37.6552" transform="translate(-221 -5.5)" style="fill:#1d1d1b"/><path d="M541.95521,466.58364c.353-1.97513,1.04394-3.00395,1.97513-3.00395s1.62964.5858,3.14674,3.61978l31.82743,64.81133,31.70722-65.62243c.93119-1.86993,1.502-2.80868,2.576-2.80868s1.74984,1.164,2.10279,3.61978l10.59657,71.345c1.04395,7.34475,2.253,10.71678,5.71513,11.77562a23.555,23.555,0,0,0,7.23211,1.164c1.04394,0,1.86993.1201,1.86993.8111,0,.93118-1.4119,1.28413-3.004,1.28413-2.91388,0-19.00029-.24041-23.67147-.5858-2.681-.24042-3.372-.5858-3.372-1.28413,0-.58581.47315-.93875,1.28424-1.27681s1.059-1.74984.58581-5.02423l-6.99181-50.715h-.47316l-25.4063,51.99176c-2.681,5.48971-3.26683,6.53366-4.32579,6.53366s-2.253-2.32808-4.07792-5.84289c-2.79368-5.35473-12.01605-23.19831-13.41283-26.46514-1.04394-2.44085-8.05076-16.2065-12.11368-24.94816h-.45814l-6.06062,45.4581a44.0736,44.0736,0,0,0-.353,5.48972c0,2.208,1.502,3.26683,3.49212,3.755a22.89683,22.89683,0,0,0,4.904.5858c.92374,0,1.74984.23285,1.74984.826,0,1.04395-1.074,1.2768-2.80123,1.2768-4.889,0-10.13855-.35295-12.23378-.35295-2.253,0-7.81791.35295-11.54289.35295-1.149,0-2.10279-.23285-2.10279-1.2768,0-.5858.69089-.826,1.85493-.826a14.91925,14.91925,0,0,0,3.49212-.35295c3.26683-.70589,4.19813-5.25709,4.76881-9.21469l11.5579-75.1Z" transform="translate(-221 -5.5)" style="fill:#1d1d1b"/><path d="M669.71528,523.607c-.5858,0-.826.23286-1.04395.93119L662.37052,540.512a22.37835,22.37835,0,0,0-1.76474,7.1119c0,2.10279,1.05885,3.61978,4.67129,3.61978h1.74984c1.3969,0,1.74985.23285,1.74985.93118,0,.93119-.7059,1.164-1.97514,1.164-3.755,0-8.74165-.35295-12.36143-.35295-1.29926,0-7.6828.35295-13.76589.35295-1.50209,0-2.208-.24042-2.208-1.164,0-.70589.45814-.93118,1.39689-.93118s2.681-.1201,3.61978-.23286c5.35473-.70589,7.57761-4.66372,9.90569-10.514l29.289-72.27619c1.41179-3.38692,2.10279-4.66372,3.26683-4.66372,1.04395,0,1.73472,1.04394,2.89876,3.755,2.79379,6.406,21.46359,53.0506,28.91354,70.77432,4.446,10.514,7.8178,12.11368,10.24375,12.70682a25.40682,25.40682,0,0,0,4.90414.45814c.93875,0,1.50209.12009,1.50209.93875,0,.93875-1.074,1.164-5.36962,1.164s-12.72194,0-22.0494-.24042c-2.10279-.10519-3.49212-.10519-3.49212-.93118,0-.7059.45815-.93119,1.63708-1.04395a1.90719,1.90719,0,0,0,1.14961-2.44038,1.88711,1.88711,0,0,0-.10566-.24065l-9.335-24.03209a1.14152,1.14152,0,0,0-1.164-.81109H669.67792Zm23.78411-5.82776c.57068,0,.7059-.353.57068-.691L683.5937,488.4c-.1201-.473-.24042-1.05884-.5858-1.05884s-.58581.5858-.691,1.05884l-10.74681,28.53791c-.1052.45814,0,.81109.45814.81109Z" transform="translate(-221 -5.5)" style="fill:#1d1d1b"/><path d="M356.26291,496.39835c0-17.73862,0-20.99055-.2328-24.7153-.2328-3.95783-1.164-5.82777-5.01667-6.65376a24.15471,24.15471,0,0,0-4.506-.35294c-1.29921,0-1.99015-.23286-1.99015-1.04395s.82611-1.04395,2.576-1.04395c6.18071,0,13.518.35295,15.97376.35295,3.95777,0,12.81958-.35295,16.43941-.35295a37.19617,37.19617,0,0,1,21.44858,5.02424,20.17963,20.17963,0,0,1,7.89292,15.9285c0,8.62889-3.60483,16.52209-15.38046,26.11219,10.3788,13.06,18.42956,23.43873,25.30122,30.66339a23.2815,23.2815,0,0,0,13.05988,7.923,18.55579,18.55579,0,0,0,3.26683.35295c.93124,0,1.39684.35295,1.39684.93119,0,.92362-.8111,1.164-2.20793,1.164H423.21456a23.85346,23.85346,0,0,1-12.48164-2.208,56.12979,56.12979,0,0,1-15.95875-17.15281c-4.66372-6.406-10.02584-14.33657-11.54289-16.08641a2.44811,2.44811,0,0,0-2.10279-.826L370.99,514.18189c-.59331,0-.93125.23285-.93125.93875v1.62218c0,10.83688,0,20.0518.5858,24.95572.35295,3.372,1.04389,5.933,4.55108,6.406a54.38934,54.38934,0,0,0,5.71513.473c.93124,0,1.39683.35294,1.39683.93875,0,.826-.81109,1.164-2.32057,1.164-6.759,0-15.39552-.35295-17.15282-.35295-2.20793,0-9.55274.35295-14.22392.35295-1.502,0-2.32808-.35295-2.32808-1.164,0-.58581.45809-.93875,1.87-.93875a19.02567,19.02567,0,0,0,4.19807-.473c2.32808-.45814,2.89887-3.004,3.372-6.406.57074-4.90415.57074-14.11884.57074-24.83562V496.34564Zm13.76583,9.21469c0,1.2768.23279,1.74984,1.04389,2.10279a30.41654,30.41654,0,0,0,8.8618,1.164,11.67881,11.67881,0,0,0,8.261-1.99026,20.53235,20.53235,0,0,0,6.88667-17.47574c0-16.52209-10.9646-21.35839-17.84376-21.35839a26.29531,26.29531,0,0,0-6.1657.46571c-.82611.23285-1.04389.70589-1.04389,1.65221V505.613Z" transform="translate(-221 -5.5)" style="fill:#ffba00"/><path d="M431.58825,506.69458a44.90221,44.90221,0,0,1,43.97068-45.81495q2.0931-.043,4.18346.1091c29.0262,0,47.10275,16.8975,47.10275,43.5579a46.09638,46.09638,0,0,1-44.29876,47.82652q-1.97226.07563-3.94557-.01788a44.42171,44.42171,0,0,1-46.93543-41.757q-.11517-1.97227-.05467-3.94889m78.93006,2.208c0-26.12732-15.02-42.31892-34.163-42.31892-13.41282,0-28.68825,7.46485-28.68825,36.49116,0,24.24225,13.39781,43.483,35.80016,43.483,8.14083,0,27.036-3.95783,27.036-37.6552" transform="translate(-221 -5.5)" style="fill:#ffba00"/><path d="M545.01176,463.95509c.35295-1.97513,1.04395-3.00395,1.99015-3.00395s1.62963.5858,3.14673,3.61978l31.82743,64.81134,31.72224-65.63733c.93118-1.855,1.502-2.79379,2.56093-2.79379s1.74984,1.164,2.10279,3.61978l10.61159,71.345c1.059,7.34476,2.208,10.73168,5.71512,11.77563a23.47975,23.47975,0,0,0,7.22466,1.164c1.04395,0,1.88507.12009,1.88507.81109,0,.93875-1.41191,1.2768-3.004,1.2768-2.92889,0-19.00785-.23285-23.65645-.57067-2.681-.23286-3.387-.5858-3.387-1.28414,0-.5858.45814-.93875,1.28425-1.2768.69088-.24042,1.04395-1.76474.5858-5.02424l-6.99181-50.715h-.47315L582.7348,544.06443c-2.681,5.48972-3.26683,6.53367-4.31078,6.53367s-2.253-2.34321-4.07793-5.82777c-2.79367-5.35472-12.016-23.21344-13.41282-26.46514-1.04395-2.45574-8.03576-16.2065-12.11368-24.95572h-.45815l-6.06807,45.48813a43.72828,43.72828,0,0,0-.35294,5.47481c0,2.208,1.502,3.26684,3.49212,3.755a22.96548,22.96548,0,0,0,4.889.58581c.93118,0,1.76485.23285,1.76485.81109,0,1.04395-1.04395,1.2768-2.80124,1.2768-4.904,0-10.146-.353-12.23377-.353-2.253,0-7.83293.353-11.54289.353-1.164,0-2.10279-.23285-2.10279-1.2768,0-.5858.69088-.81109,1.85492-.81109a14.37963,14.37963,0,0,0,3.49213-.36808c3.26683-.691,4.19057-5.25709,4.7688-9.21469l11.54289-75.1Z" transform="translate(-221 -5.5)" style="fill:#ffba00"/><path d="M672.79452,521.00112c-.59336,0-.81109.23285-1.05884.93118l-6.30081,15.97388a22.92793,22.92793,0,0,0-1.73472,7.1119c0,2.10279,1.04395,3.61978,4.66373,3.61978h1.74984c1.3969,0,1.74984.23286,1.74984.93119,0,.92362-.691,1.164-1.97513,1.164-3.755,0-8.75655-.35295-12.36143-.35295-1.28414,0-7.68281.35295-13.75076.35295-1.5021,0-2.25291-.24042-2.25291-1.164,0-.7059.473-.93119,1.41179-.93119s2.681-.12009,3.60488-.23285c5.35473-.7059,7.57761-4.66373,9.92082-10.514l29.289-72.27618c1.4118-3.38693,2.1028-4.66373,3.26684-4.66373,1.04394,0,1.73471,1.04395,2.89875,3.755,2.79379,6.406,21.44847,53.0506,28.91355,70.7592,4.43087,10.514,7.8029,12.12857,10.25864,12.70681a25.3867,25.3867,0,0,0,4.889.47305c.93875,0,1.50209.10519,1.50209.93118s-1.04395,1.164-5.35473,1.164-12.70681,0-22.04939-.24041c-2.10279-.09764-3.48456-.09764-3.48456-.92363,0-.70589.45814-.93118,1.62975-1.04394a1.9072,1.9072,0,0,0,1.1496-2.44039,1.88636,1.88636,0,0,0-.10566-.24064l-9.335-24.0321a1.11144,1.11144,0,0,0-1.164-.81109h-25.9921Zm23.78411-5.82777c.5858,0,.7059-.353.5858-.7059l-10.514-28.68825c-.12009-.45815-.24042-1.04395-.5858-1.04395s-.5858.5858-.7059,1.04395L674.642,514.35469c-.1201.45815,0,.8111.45814.8111Z" transform="translate(-221 -5.5)" style="fill:#ffba00"/><path d="M498.4947,621.09442A12.24871,12.24871,0,0,0,510.61228,633.473q.39621.00413.79207-.01719a11.56474,11.56474,0,0,0,8.34355-2.94391,1.50138,1.50138,0,0,0,.32293-.70589.57073.57073,0,0,0-.50318-.58581c-.25532,0-.57079.32293-1.27669.751a9.84653,9.84653,0,0,1-4.29577.75105c-2.253,0-8.41116-2.25291-8.41116-12.08366,0-5.43723,3.04911-9.52272,7.60007-9.52272,4.88146,0,9.62036,4.98665,9.62036,16.3117a35.84548,35.84548,0,0,1-16.46193,29.61944c-.30792.25531-.75105.63828-.75105,1.08153a.66841.66841,0,0,0,.57079.63829,1.92206,1.92206,0,0,0,1.14147-.27044c7.8555-3.70985,23.37111-14.96,23.37111-32.87138a15.77072,15.77072,0,0,0-15.95875-17.40056,14.89215,14.89215,0,0,0-16.14863,13.51974q-.06136.692-.058,1.3875" transform="translate(-221 -5.5)"/><path d="M464.40692,617.7751a.71485.71485,0,0,0,.51819.7059,2.79747,2.79747,0,0,0,.8787-.24042,45.65764,45.65764,0,0,1,7.35977-3.07913c.94631,0,.94631.75105.94631,2.25291v8.44142l.06761,10.17613c.0526,6.13557-.06761,11.5728-.31547,14.389-.20272,2.04274-.52576,2.94391-2.53091,3.38692a39.76085,39.76085,0,0,1-5.08429.43569c-.25531,0-.50318.20283-.50318.65341s.383.57068,1.08142.57068c4.0479,0,9.37994-.18771,10.82943-.18771,1.70481,0,5.76016.18771,10.58156.18771.67588,0,1.00636-.1201,1.00636-.57068a.60061.60061,0,0,0-.54523-.65158l-.02556-.00183a36.10325,36.10325,0,0,1-4.19057-.383c-2.03518-.45058-2.34309-1.41179-2.53091-3.45454-.25531-2.81625-.25531-8.261-.25531-14.389V624.17378c0-9.76291.383-16.124.383-16.62706,0-.63829-.1877-1.35175-.75105-1.35175a3.75535,3.75535,0,0,0-1.65221.84112c-2.208,1.6671-14.37415,9.718-14.637,9.85321a1.149,1.149,0,0,0-.6384.8936" transform="translate(-221 -5.5)"/><path d="M536.33016,654.36366a.90116.90116,0,0,0,.8787.8936h24.82049c3.99531,0,5.01668-.20283,5.5123-1.92265a75.10262,75.10262,0,0,0,1.83246-9.14708c0-.63829-.0526-1.21652-.50318-1.21652s-.57079.25531-.75105,1.02882a7.44987,7.44987,0,0,1-7.20965,5.69254c-2.3581.31536-9.82307.383-10.897.383h-4.31077c-.32293,0-.45059-.20284-.13522-.45815,8.18587-6.60127,21.779-17.40057,21.779-29.80715,0-7.51-4.74635-13.63066-15.89114-13.63066a23.85,23.85,0,0,0-11.46027,2.42571c-.69088.45815-.751.751-.751,1.28414,0,1.855.30791,7.16461.383,7.73529.0526.751.2403,1.21652.57079,1.21652.6384,0,.8261-.57067.8261-1.21652a10.387,10.387,0,0,1,2.64356-6.13557,8.95877,8.95877,0,0,1,6.759-2.30562c3.15419,0,8.674,2.03518,8.674,12.15127,0,13.5179-12.61675,23.46875-21.47861,31.33926-.62327.57067-1.26167,1.14914-1.26167,1.6671" transform="translate(-221 -5.5)"/><path d="M576.29831,618.03775c0,.63829.0526.96121.50318.96121s.57079-.31536.6384-.826a6.34609,6.34609,0,0,1,2.10279-3.84507,11.89476,11.89476,0,0,1,5.93285-1.14914h16.42434a231.486,231.486,0,0,0-18.6023,39.80291,9.21255,9.21255,0,0,0-.45059,2.62854c0,.57068.18771.751.87871.751,2.84627,0,7.98315-2.61342,7.98315-3.89022a15.14176,15.14176,0,0,1,0-2.35811,153.33648,153.33648,0,0,1,16.08641-41.13975,2.25268,2.25268,0,0,0,.43557-1.14915c0-.32292-.31548-.51819-1.502-.51819h-20.277a36.79765,36.79765,0,0,1-8.5614-.63829c-.39053,0-.62327.25532-.62327.8936s-.94632,8.13339-.94632,10.514" transform="translate(-221 -5.5)"/><path d="M500.485,619.25451a12.249,12.249,0,0,0,12.13271,12.364q.38864.00343.77694-.01742a11.56478,11.56478,0,0,0,8.34355-2.94391,1.50138,1.50138,0,0,0,.32293-.70589.57071.57071,0,0,0-.473-.54845c-.25532,0-.58581.31536-1.27669.751a9.84638,9.84638,0,0,1-4.29577.751c-2.253,0-8.41116-2.30562-8.41116-12.08365,0-5.43724,3.0491-9.52272,7.60007-9.52272,4.88145,0,9.62035,4.98665,9.62035,16.31169a35.82282,35.82282,0,0,1-16.44691,29.60432c-.31548.27044-.75105.65341-.75105,1.09643a.6834.6834,0,0,0,.57079.63829,1.92206,1.92206,0,0,0,1.14147-.27044c7.8555-3.70985,23.37111-14.96,23.37111-32.87138a15.7708,15.7708,0,0,0-15.95875-17.40057,14.89217,14.89217,0,0,0-16.14863,13.51975q-.06137.692-.058,1.38749" transform="translate(-221 -5.5)" style="fill:#bdbbba"/><path d="M466.397,615.92006a.71485.71485,0,0,0,.51819.7059,2.79747,2.79747,0,0,0,.8787-.24042,45.55751,45.55751,0,0,1,7.34476-3.07913c.96132,0,.96132.751.96132,2.25291V623.948l.06761,10.161c.0526,6.15069-.06761,11.58793-.31547,14.389-.18771,2.05764-.51819,2.95147-2.53091,3.40205a39.76085,39.76085,0,0,1-5.08429.43569c-.25531,0-.50318.20283-.50318.65341s.383.57067,1.08142.57067c4.04034,0,9.37994-.1877,10.82943-.1877,1.70481,0,5.76016.1877,10.58157.1877.67587,0,1.00636-.12009,1.00636-.57067a.60062.60062,0,0,0-.54524-.65158l-.02555-.00183a36.20624,36.20624,0,0,1-4.19057-.383c-2.03519-.45059-2.3431-1.4118-2.53092-3.45454-.2403-2.80112-.2403-8.261-.2403-14.389V622.28092c0-9.76291.383-16.124.383-16.62706,0-.63829-.1877-1.35174-.751-1.35174a3.75522,3.75522,0,0,0-1.65221.84111c-2.208,1.66711-14.38917,9.718-14.637,9.83808a1.16356,1.16356,0,0,0-.6384.8936" transform="translate(-221 -5.5)" style="fill:#bdbbba"/><path d="M538.30529,652.51619a.90881.90881,0,0,0,.8787.8936h24.8205c3.9953,0,5.01667-.18771,5.50484-1.92265a72.471,72.471,0,0,0,1.83991-9.14709c0-.63828-.05259-1.20919-.50318-1.20919s-.57079.25532-.751,1.01393a7.44988,7.44988,0,0,1-7.20965,5.69254c-2.35811.31537-9.82307.39054-10.897.39054h-4.31078c-.32293,0-.45058-.20283-.13522-.45815,8.18587-6.60127,21.779-17.40056,21.779-29.80714,0-7.51-4.73878-13.63067-15.89114-13.63067a23.84424,23.84424,0,0,0-11.46026,2.42571c-.69089.45815-.751.7059-.751,1.28414,0,1.83991.31548,7.16461.383,7.72039.0526.751.2403,1.21653.57079,1.21653.6384,0,.82611-.57068.82611-1.21653a10.4019,10.4019,0,0,1,2.64355-6.12823,8.907,8.907,0,0,1,6.72149-2.32052c3.15418,0,8.674,2.04275,8.674,12.16617,0,13.5179-12.61675,23.46875-21.47861,31.32413-.6384.57068-1.26167,1.14915-1.26167,1.66711" transform="translate(-221 -5.5)" style="fill:#bdbbba"/><path d="M578.296,616.18294c0,.63829.0526.96121.50318.96121s.57079-.31536.6384-.826a6.34609,6.34609,0,0,1,2.10279-3.84507,11.89476,11.89476,0,0,1,5.93285-1.14914h16.42434a231.02135,231.02135,0,0,0-18.60231,39.80291,9.13417,9.13417,0,0,0-.45058,2.61341c0,.57068.18771.751.87871.751,2.84627,0,7.98315-2.62855,7.98315-3.90512a15.11213,15.11213,0,0,1,0-2.3581A153.32561,153.32561,0,0,1,609.793,607.08834a2.25268,2.25268,0,0,0,.43557-1.14914c0-.31536-.31548-.50307-1.502-.50307h-20.277a36.79815,36.79815,0,0,1-8.5614-.63828c-.39054,0-.62327.25531-.62327.8936s-.94632,8.13339-.94632,10.514" transform="translate(-221 -5.5)" style="fill:#bdbbba"/><path d="M754.26288,355.03013c-1.43442-1.83992-3.049-3.755-4.73128-5.81276-7.51-9.10216-24.19722-31.542-24.19722-31.542,0-72.79444-13.05988-86.365-26.46525-97.78769-11.82823-10.07093-30.66333-15.21526-50.91029-18.33192a120.59982,120.59982,0,0,0-18.51968-1.26167c-6.96179,0-13.518.368-20.11179.751-5.44474.31542-100.36363,4.29571-130.82419-.85612a167.5709,167.5709,0,0,0-42.6042,1.66722c-5.02418.59331-32.42819,4.98665-35.665-.24031a11.02452,11.02452,0,0,1-.32292-5.52736,16.60471,16.60471,0,0,0-1.02888-12.6168c-4.108-5.71512-8.59145-11.88082-11.03971-11.88082a59.53875,59.53875,0,0,0-9.22979,7.23211,17.273,17.273,0,0,0-3.50716,12.65433c.09763,3.26683-.1352,2.65851-.383,2.86885-.42056.43557-17.87381.43557-22.30471.751a18.02406,18.02406,0,0,0-3.11666-9.763,47.26119,47.26119,0,0,1-3.50716-12.016s-6.33092,10.9646-8.45626,13.901a43.20484,43.20484,0,0,0-6.26334,10.43139,17.10086,17.10086,0,0,0-.751,4.98665c-.08263,1.21664-.25535,3.82261-.751,4.21309a13.18758,13.18758,0,0,0-5.52736,10.07093,19.18671,19.18671,0,0,0,.60832,4.76887,26.86442,26.86442,0,0,1,.60832,4.07792c-.28537.20278-.65339.42056-1.00634.65336-3.004,1.92253-7.04437,4.56609-6.804,9.28236a25.091,25.091,0,0,0,4.29571,13.74331c.65338,1.08142,1.26167,2.1704,2.00515,3.50719a24.87205,24.87205,0,0,1,1.83995,7.2622c.59328,3.71-2.86132,7.76531-.48814,10.07844a24.87281,24.87281,0,0,0,14.55437,3.2368c.96127,0,4.60363-.12015,5.50485-.12015a18.09527,18.09527,0,0,1,3.26686.2328,173.67049,173.67049,0,0,0,19.84894,2.38819,125.79364,125.79364,0,0,1,25.74429,3.89016,243.76056,243.76056,0,0,1,47.05765,19.526c.89372.45809,1.68223.89371,2.49333,1.2992,5.9329,3.004,7.20959,2.61348,9.98831,10.81442s-2.35816,72.096-3.5222,78.65973c-1.76486,10.64918-5.13683,17.13036-10.70178,19.13551a24.95608,24.95608,0,0,0-13.39033,14.11884c-.93125,1.83247-.751,3.9953-1.95259,5.85034,0,0-2.42574,2.62855-1.5846,3.31943a29.19374,29.19374,0,0,0,8.32109-1.14146c2.56091.16524-.23279,1.502,2.38819,1.502a40.38166,40.38166,0,0,0,21.779-4.55108c3.28184,0,1.1115,4.19814,4.108,3.63479,9.31238-1.71982,10.19109-8.86174,11.31754-15.68842,1.92254-11.5579,1.62969-13.57807,2.89887-14.637s5.42222.67587,6.51865-.5858a160.77656,160.77656,0,0,0,.383-16.92752,157.55978,157.55978,0,0,1,6.9242-33.9677l.16524-.54076c.706-2.32064,1.77236-5.09174,2.91389-8.06578a69.57264,69.57264,0,0,0,6.28585-25.4589,6.42862,6.42862,0,0,1,5.76016,3.40206c.30041.42055.79608,1.24666,1.3443,2.14037,3.67237,6.008,5.61,7.6827,7.98315,7.6827a2.96008,2.96008,0,0,0,.751-.1052c3.94276-1.02882,6.08308-4.37828,8.32109-8.76423s4.506-8.82427,8.20845-9.65788a2.15529,2.15529,0,0,1,.54071-.0526,16.04891,16.04891,0,0,1,11.35513,7.38229c6.66888,10.34126,12.369,3.10158,12.9097,2.253.751-1.19407,6.08308-10.01083,7.44239-12.016,1.59961-2.4558,2.61348-2.73363,2.94391-2.73363h.16524c3.2218.48817,17.40068,17.53585,22.43988,16.37937,4.919-.54077,10.34876-19.21057,13.34527-19.21057a2.04748,2.04748,0,0,1,.47316.08262,35.53271,35.53271,0,0,1,3.50719,4.8665c3.79253,5.6926,4.59611,9.50015,7.58511,9.50015.94626,0,2.61348-.82611,3.61984-3.30442.27038-.65336,1.41941-3.46961,1.5846-3.755.16524.20277,2.6435,8.67409,8.83178,1.179a1.87614,1.87614,0,0,1-.13517-.35295.70523.70523,0,0,1-.10513.15018.70523.70523,0,0,0,.10513-.15018.39082.39082,0,0,1-.10513-.13516.39082.39082,0,0,0,.10513.13516c.82611-1.92253,12.16623,9.25234,17.58845,13.67576,4.94906,4.50605,9.1021,8.49379,9.45511,8.80926,11.67805,10.43145,26.20237,23.38613,29.04865,37.49a60.89069,60.89069,0,0,1-1.08142,26.35261,6.75938,6.75938,0,0,1-1.38183,3.26683,9.81682,9.81682,0,0,1-3.372.45058c-.751,0-1.54707,0-2.4633.06761-3.97278.27033-6.70641,4.50605-9.11712,8.26105-1.1115,1.7723-2.52335,3.18421-3.28184,4.506s.45809,3.45465,1.164,3.89022a47.3771,47.3771,0,0,0,10.10847,2.15539,7.02729,7.02729,0,0,0,1.74984-.20271,16.02467,16.02467,0,0,0,5.51235.86369,19.74409,19.74409,0,0,0,16.37931-6.99181,160.13069,160.13069,0,0,0,8.8618-23.281c.25531-.89371.54071-1.76485.8261-2.62854.55572-1.73483,1.28419-3.65737,2.05776-5.64007,2.74864-7.157,7.41236-14.82473,5.35461-21.83911a40.17832,40.17832,0,0,0-7.2772-10.514c-2.1028-2.83126-10.05587-13.24013-12.49666-16.85991,7.465,7.17951,28.11747,17.87384,33.35943,30.37794a116.1495,116.1495,0,0,1-.40554,27.6443c-.15018,2.32064-.27039,4.68619-.33794,7.07443-.20277,7.51-2.4107,8.87688-9.93571,9.63537-6.58627.67587-9.56776,10.36384-11.18238,15.54576-.09764.28533-.17275.57079-.2403.8261l-.751,2.4107,2.53085.45059c.97628.16524,2.05776.368,3.2218.5858a110.28023,110.28023,0,0,0,18.21177,3.82261,18.25711,18.25711,0,0,0,14.18639-4.78382,39.54716,39.54716,0,0,0,6.54123-18.06154c.51819-2.46331,3.18426-11.22,4.19057-14.40418,6.2183-19.96161,12.384-27.62929,1.885-39.052M332.98192,258.827c-2.253,1.41941-3.11666-2.54587-3.11666-2.54587-.62333-1.55457-.69091-3.25182.2328-3.90517,1.69727,1.08142,3.79256,1.04389,4.36332,2.05775a4.123,4.123,0,0,1-1.502,4.40085" transform="translate(-221 -5.5)"/><path d="M458.54907,422.58248c-.21784.1201-.47316.16525-.54077.05249l-.59325-.826c-.09763-.1052,0-.32293.2403-.48817l.47316-.353c.20272-.13522.45058-.16524.54077,0l.59325.826c.06761.1052,0,.31536-.2403.50307Z" transform="translate(-221 -5.5)" style="fill:#bdbbba"/><path d="M634.29821,312.47841a9.80882,9.80882,0,0,1-1.5846.47315,3.66458,3.66458,0,0,0,1.23165.33794,1.71957,1.71957,0,0,1,.353-.81109" transform="translate(-221 -5.5)" style="fill:#bdbbba"/><path d="M630.44546,312.76375a4.55189,4.55189,0,0,0-1.69736-.93119,2.69572,2.69572,0,0,0-.57068-.08262,1.07331,1.07331,0,0,0-.50306.08262l-.36808.17269.06761-.368a1.104,1.104,0,0,1,1.11156-.751,2.25282,2.25282,0,0,1,.81109.17269,2.50831,2.50831,0,0,1,1.44938,1.502l.17281.65341Z" transform="translate(-221 -5.5)"/><path d="M622.515,311.24687a1.104,1.104,0,0,1,1.11155-.751,2.25255,2.25255,0,0,1,.826.17269l.45815.21784.24041.12021-.751.59325-.09763-.0526a4.29786,4.29786,0,0,1-.43569-.16524c-.24775,0-.42056-.03759-.59336-.03759a1.61585,1.61585,0,0,0-.52576.06761l-.353.17269.09764-.39053Z" transform="translate(-221 -5.5)"/><path d="M624.43,310.85634l.43568.21784-.43568.35295s-.32293-.12021-.48817-.16525a2.17839,2.17839,0,0,0-1.19406.03759s.24041-.92374,1.69735-.43557" transform="translate(-221 -5.5)"/><path d="M639.47256,416.61205c-9.763,0-11.01713-15.81608-11.265-18.65479a13.36825,13.36825,0,0,1-6.62385-3.15419,2.14986,2.14986,0,0,0-.45814-.28534c.06761,1.149.1052,2.39569.12021,3.55229.12021,1.80244.45814,6.54122.60826,7.78789l.03759.1202a7.555,7.555,0,0,1-3.41707,8.26105,8.01379,8.01379,0,0,1-4.01031,1.00636,14.31278,14.31278,0,0,1-3.1166-.42056,1.71776,1.71776,0,0,0-.43557-.0526l-.751-.10519c-1.04394-.13522-2.45574-.28534-3.56729-.368h-.30035c-2.03518,0-7.81791.35294-8.75666.47315h-.62328a9.76289,9.76289,0,0,1-6.008-2.64355,4.73881,4.73881,0,0,1-.33794-6.23332l.383-.57079.54077-.353a6.31584,6.31584,0,0,1,2.81625-1.164c1.21664-.751,3.07913-1.83991,5.93285-3.45465-2.50834-4.919-13.56306-21.88415-3.92769-27.23876a63.56107,63.56107,0,0,1,14.269-5.08428c.0526-.35295.15023-.67588.21784-1.00636a8.80787,8.80787,0,0,0,.1052-2.76366,9.52269,9.52269,0,0,1-4.33324,1.27669,4.42051,4.42051,0,0,1-1.19406-.15023,19.59313,19.59313,0,0,1-8.02063-6.19573c-.75105-1.00636-3.53716-6.1131-6.15069-10.9195a38.45252,38.45252,0,0,1-8.17086-.69088c-.67588-.24031-1.502-.45815-6.08309-4.29577a5.33947,5.33947,0,0,1-2.03518-4.73879,4.461,4.461,0,0,1,2.3957-3.31943,1.11216,1.11216,0,0,1,.28533-.13522,5.11439,5.11439,0,0,1,3.2218-1.93754l.45815-.1052h.55577a5.3543,5.3543,0,0,1,2.89888.8787,4.032,4.032,0,0,1,.47315-1.5846,4.99409,4.99409,0,0,1,4.61869-2.64355,9.19851,9.19851,0,0,1,3.755.89371l.20272.1052.21784.15023c.45815.27033.52576.27033.57079.27033a36.79012,36.79012,0,0,1,3.52215,1.074c1.20907.50318,2.00515,1.164,4.21314,4.98665l3.52215,3.52214a15.95846,15.95846,0,0,1,4.21314-6.008,9.19251,9.19251,0,0,1,3.49213-1.62963c.27032-.09764.65341-.20272.89371-.27033a11.4274,11.4274,0,0,1,1.76486-1.26167,4.41516,4.41516,0,0,1,.20271-.54077c-.54077-.75105-1.149-1.66722-1.66722-2.49333a9.1319,9.1319,0,0,1-1.14147-5.89537v-.39054c.24031-3.755,4.889-6.88672,4.904-6.90918a14.187,14.187,0,0,1,1.62964-.82611c.93875-1.074,2.57595-2.89887,3.71-3.92769a9.95693,9.95693,0,0,1,3.41707-1.93755,6.30082,6.30082,0,0,1,6.33839-3.07913c1.04395,0,4.41586.21785,5.52731.39054a6.34613,6.34613,0,0,1,4.85143,3.755,5.60256,5.60256,0,0,1,3.64235,5.09173l.751.751a7.63,7.63,0,0,1,2.05775,3.92769,12.26385,12.26385,0,0,1,.89372,6.67645,11.85078,11.85078,0,0,1-2.1704,7.61519c-.15024.47316-.28534.8637-.40555,1.19407a14.344,14.344,0,0,1,5.257,9.65782c.33793,1.21664,1.80244,6.39856,2.591,9.80806a18.31674,18.31674,0,0,1-.751,9.763l-.17269.52575-.368.45058c-.32293.43557-1.92254,2.591-2.59841,3.41707a7.23249,7.23249,0,0,1-3.87521,2.45573c.42056,1.62964.82611,3.34946,1.11144,4.94907A22.58243,22.58243,0,0,1,654.598,386.8952a10.408,10.408,0,0,1-.751,3.49212,13.519,13.519,0,0,1,.33794,4.67118,25.6333,25.6333,0,0,1,3.58976,5.74514,3.92345,3.92345,0,0,1,.27032.54077c5.79775,12.63187-8.71163,13.59308-9.62035,13.27772a18.57241,18.57241,0,0,1-9.012,1.99015" transform="translate(-221 -5.5)"/><path d="M638.5337,310.00766c-.89372-.12021-3.98029-.383-4.88146-.383-4.29576,0-2.05775,2.17785-2.05775,2.17785a11.46783,11.46783,0,0,0-4.83642,1.74984c-1.43437,1.29926-4.04034,4.37827-4.04034,4.37827a12.77353,12.77353,0,0,0-1.86994.82611,6.85662,6.85662,0,0,0-3.004,3.65736,5.36227,5.36227,0,0,0,.52576,3.95772,39.54547,39.54547,0,0,0,2.3581,3.45465,1.7723,1.7723,0,0,1,0,1.55457c-.353.82611-.93119,2.9289-.93119,2.9289a12.88016,12.88016,0,0,0-2.681,1.73483c-.60826.7059-3.55228,1.14147-4.22815,1.73483a12.85751,12.85751,0,0,0-3.90523,6.66889,10.85268,10.85268,0,0,0-2.253,3.00395l-7.68269-7.7503s-.99135-3.13173-2.42572-3.63479c-.47315-.18771-3.89022-1.32929-4.70131-1.66722-2.86128-1.04395-3.34945-.21785-2.76365.54076a10.01929,10.01929,0,0,0,2.76365,1.88507c.43557.2403.6384,3.28184-6.62385,2.11035-.28533-.0526-2.253-1.26168-3.42451-1.71982-3.1166-1.02882-2.576,1.95256-1.92253,2.49333a39.31989,39.31989,0,0,0,4.506,3.9953c.67587.20271,9.48514.57079,9.48514.57079s6.008,11.38521,6.87159,12.53424a18.18881,18.18881,0,0,0,5.57991,4.59611,9.01188,9.01188,0,0,0,7.42737-4.86644l.75105,14.87733a78.49676,78.49676,0,0,0-16.3117,5.15934c-5.20438,4.108,3.98029,19.78136,7.097,23.94191.96132,1.36687.2403,1.66722.2403,1.66722s-9.63537,5.30958-9.763,5.78273a2.0353,2.0353,0,0,0-1.69725.31548s-.45058.6384-.12021.96132a5.25669,5.25669,0,0,0,3.18421,1.3969c1.23165-.12021,8.06578-.52576,9.65783-.45815s3.61978.353,4.6337.45815,3.25182.99135,4.98665,0,1.502-2.62855,1.29927-4.29577-.63841-8.10325-.63841-8.10325-.1877-7.465-.32292-8.37369a21.88693,21.88693,0,0,0,5.50484.59325c.97634-.54077,1.95256,1.11144,1.95256,1.11144s3.19922,2.47832,4.59612,2.253,1.69724-.39054,2.42571-2.50834c.50318-.751.93119-.57079.93119,1.38188s-.93119,20.13431,7.65267,19.78136a19.414,19.414,0,0,0,9.13218-2.74864,3.40218,3.40218,0,0,0,3.5673,1.32929c5.43723-1.99015,2.4633-6.90919,1.99015-7.66768s-2.89888-6.2183-4.506-6.3384a22.94169,22.94169,0,0,0-.7059-6.66888,12.08065,12.08065,0,0,0,1.19407-3.50714,19.31557,19.31557,0,0,0-4.506-9.11717,81.852,81.852,0,0,0-3.004-12.07609,32.96,32.96,0,0,0,4.123,1.28425,2.53107,2.53107,0,0,0,2.39569-1.08142c.65341-.75105,2.4633-3.19922,2.4633-3.19922a14.34483,14.34483,0,0,0,.5858-7.44239c-.84111-3.70241-2.57594-9.763-2.57594-9.763s-.82611-5.88036-3.755-7.20965-3.50714-1.23165-3.50714-1.23165-.93118-1.26167-.2403-1.502a6.48929,6.48929,0,0,0,2.12537-1.502,12.9073,12.9073,0,0,0,.85612-2.42572s1.69725-.85613,1.69725-5.77517a7.9912,7.9912,0,0,0-.75105-5.03925,3.55181,3.55181,0,0,0-1.02882-2.42571l-1.90007-2.03518s.27032-2.53091-.89372-2.83126-2.00516-.59325-2.00516-.59325-.08262-2.61354-2.07276-2.95148" transform="translate(-221 -5.5)" style="fill:#bdbbba"/><path d="M640.02823,324.44186c-.1201-.353-.27044-.54077-.52576-.54077l-.17281.03759-.09763.10519a1.7873,1.7873,0,0,1-1.35174.751,1.9901,1.9901,0,0,1-1.14915-.42056,1.29168,1.29168,0,0,0,1.3969,1.41191,2.48557,2.48557,0,0,0,1.88506-1.074l.08251-.12021-.05249-.15023Z" transform="translate(-221 -5.5)"/><path d="M602.37314,403.77a11.36267,11.36267,0,0,0-14.86231-2.79367c-.15024-.12021-.28534-.27033-.42056-.383-1.14147-.87871-4.50605-2.89888-6.12812-3.83763a15.63693,15.63693,0,0,0-4.17556-3.57474,37.99133,37.99133,0,0,0-9.47012-3.50714,32.80147,32.80147,0,0,0-1.61462-9.703,93.6599,93.6599,0,0,0,.67587-10.64918,46.15294,46.15294,0,0,0,7.30728.84112,9.59681,9.59681,0,0,0,3.18421-.45814,12.94759,12.94759,0,0,0,7.41237-4.26563l.33794-.54077.13522-.60826a13.24023,13.24023,0,0,0-1.69725-9.763,86.19556,86.19556,0,0,0-10.39386-11.64053c.12021-1.70481.23286-3.372.23286-3.387a5.60286,5.60286,0,0,0-1.83992-4.506,66.91477,66.91477,0,0,0-5.18936-5.257,8.08187,8.08187,0,0,0-3.89022-1.04395,4.36964,4.36964,0,0,0-1.32929.18771c-3.5673.751-3.21423,6.19572-3.08658,6.66888a10.69657,10.69657,0,0,0-1.41935-.7059,8.7792,8.7792,0,0,0-4.814-2.47831,6.56369,6.56369,0,0,0-3.97284-1.32928h-.35306a4.10035,4.10035,0,0,0-3.45465,1.24666,7.8253,7.8253,0,0,0-4.4609,2.83126,8.68166,8.68166,0,0,0-3.18421,3.25182A10.87421,10.87421,0,0,0,532.838,343.029l-.35294.90872a11.48291,11.48291,0,0,0-1.074,6.99181.46537.46537,0,0,1,.06761.23286,9.4399,9.4399,0,0,0-6.31594,4.71632,49.22447,49.22447,0,0,0-2.02017,4.7538c-.85613.08262-10.852,1.26167-10.63416,6.008a5.2569,5.2569,0,0,0,2.11035,3.90523,4.50609,4.50609,0,0,0-.13522,4.66373,5.55734,5.55734,0,0,0,2.83126,2.54592,10.51488,10.51488,0,0,0,1.77231,3.52215,14.10768,14.10768,0,0,0,3.00395,2.81625,20.54,20.54,0,0,0-5.76016,2.89887,8.68914,8.68914,0,0,0-3.63227,11.73907q.15969.30288.34287.59234A94.80382,94.80382,0,0,0,524.11128,410.867c-.31548.31547-7.23211,13.02229,4.07792,13.518,2.56094,4.32579,11.325-1.90008,11.64053-2.05776.65341.12021,12.429.20272,9.31989-8.92935.751-.09763,4.88145-1.26168,5.05426-1.26168a16.76236,16.76236,0,0,0,8.91434,2.03519,44.09828,44.09828,0,0,0,5.52731-.28534c.35294-.06761.751-.18771,1.26167-.28534a17.10885,17.10885,0,0,0,5.59491,5.85034c3.004,1.69725,9.763,4.70131,12.016,5.71512a17.70788,17.70788,0,0,0,8.3361,4.40085c9.98832,0,6.90919-9.07958,7.07443-9.59021a25.66919,25.66919,0,0,0-.48816-16.34172" transform="translate(-221 -5.5)"/><path d="M567.42912,355.676a19.52582,19.52582,0,0,0-5.89538-1.68223,8.604,8.604,0,0,0-2.32064-1.08142s2.42572-1.80244,2.35811-3.07912c-1.69724-8.644-4.61869-9.29743-4.61869-9.29743a4.31048,4.31048,0,0,0-3.40205-2.253c-.42056-1.83991-3.99531-2.1704-3.99531-2.1704a3.00385,3.00385,0,0,0-2.3581-1.11144,2.32827,2.32827,0,0,0-1.95256,1.14147,3.755,3.755,0,0,0-3.61978,2.15538,4.50593,4.50593,0,0,0-2.74864,2.89888s-1.26167.28533-2.42571,3.25182a11.07725,11.07725,0,0,0-1.29927,5.60992,10.45343,10.45343,0,0,0,1.6372,3.15419,8.3217,8.3217,0,0,1-2.45574,1.32928c-1.28425.39054-4.506.65341-5.73013,3.19922a68.94425,68.94425,0,0,0-2.94391,7.51,4.66315,4.66315,0,0,0-1.73483-.57079,14.62328,14.62328,0,0,0-5.50484.7059c-.45815.35295-2.10279.54077-2.07277,1.179.1052,1.83992,3.00395,1.149,3.00395,1.149l-.67587,3.98029s-1.21664,1.19407-.92374,1.73483a1.15646,1.15646,0,0,0,1.28425.6384c.5182-.06761,1.3443-1.02882,1.3443-1.02882a11.49031,11.49031,0,0,0,1.68223,6.008,10.3504,10.3504,0,0,0,3.63479,3.004,3.8595,3.8595,0,0,0,2.42572,0,8.8931,8.8931,0,0,0,3.41706-2.80124c.15024-.65341.751-2.80124.751-2.80124s.8787-3.42451,1.29926-3.49212.79608.45815.79608.45815v6.95422a31.31693,31.31693,0,0,0-2.76365,6.58626,22.37243,22.37243,0,0,0-13.1951,3.42451c-4.506,3.04911-2.94391,5.82777-2.11035,7.29216s14.40417,14.55441,14.83974,15.02c-.1877.48817.23286,1.02882-.42056,1.02882h-1.43436s-2.08778-.751-2.46331,0c-.85612,2.02017,1.32929,1.80244,1.41936,2.193s-1.74984-.32293-2.04274.751a3.93538,3.93538,0,0,0,.89371,3.55229c.5858.751,1.99015.383,2.39569.52575s.57079.84112,1.6372,1.074c2.4107.93119,7.66768-3.34945,8.35868-3.30442a4.29557,4.29557,0,0,0,5.63662-2.266q.04178-.09764.0785-.19733a4.82142,4.82142,0,0,0-.54077-3.28184,15.84553,15.84553,0,0,0-2.1704-2.86129s2.05776-.65341,2.50834-.8261c0,0,.27033-.23286.97634.09763a16.85208,16.85208,0,0,0,4.56609.85613c.89371,0,4.28076-1.62964,4.799-1.35175a24.54537,24.54537,0,0,0,5.09173,1.77231,45.73712,45.73712,0,0,0,7.31473-.13522c1.31428-.25532,3.97285-1.04395,3.97285-1.04395a17.55,17.55,0,0,0,5.59491,7.08944c3.357,1.88506,12.384,5.82777,12.384,5.82777s3.6348,3.755,6.008,3.755a2.80874,2.80874,0,0,0,3.004-2.52335,15.278,15.278,0,0,1,.383-4.43087,44.02862,44.02862,0,0,0,1.04395-7.38235c.13522-1.90752.751-7.24712-4.33324-8.00561-.8261-.12021-2.57595-.47316-2.89887-.45815-.751.06761-.368,1.83992-.62328,1.149a1.32171,1.32171,0,0,0-1.502-.86369,1.95261,1.95261,0,0,0-1.32929,1.62964c.0526.79608.383,2.89887.383,2.89887l-5.30957-4.22816c-1.164-.93119-6.12812-3.79259-6.12812-3.79259a26.49778,26.49778,0,0,0-3.50713-3.22179,28.98972,28.98972,0,0,0-11.3176-3.68739,37.94837,37.94837,0,0,0-1.88506-12.9548,85.03111,85.03111,0,0,0,.45058-12.90964c-.27033-1.08142,1.39689-1.95256,2.253-1.95256a39.60749,39.60749,0,0,0,11.18238.93118s4.29577-1.074,5.257-2.64355a9.76317,9.76317,0,0,0-1.21664-6.759A92.17648,92.17648,0,0,0,568.43548,344.561c.25531-1.83992.42055-5.20438.42055-5.20438a1.87743,1.87743,0,0,0-.48816-1.20908c-.52576-.52575-3.82261-4.29576-4.25818-4.68618a4.12327,4.12327,0,0,0-2.50834-.65342c-.59325.1727-.39054,1.502-.0526,1.83992s1.35174,1.20907,1.35174,1.20907l.52576,1.43437s-.66086.353-.79608.67587a5.031,5.031,0,0,0,.13522,2.35811,2.14825,2.14825,0,0,0,1.04395.52575s-.751,1.61462-1.502,1.68223c-.60826-.89371-1.6372-3.57474-2.54593-2.711a1.99018,1.99018,0,0,0-.42055,1.92254,22.42778,22.42778,0,0,0,2.03518,4.73133,10.518,10.518,0,0,0,1.074.97634,74.80241,74.80241,0,0,1,4.8214,8.37369" transform="translate(-221 -5.5)" style="fill:#bdbbba"/><path d="M621.78643,312.50843a3.83011,3.83011,0,0,1-3.80748-3.43952c-.15012-.50318-1.4118-3.46967-2.56094-6.11311-6.26345-14.622-5.76016-9.2823-5.15946-11.6105,1.074-4.21314,6.82657-4.68618,11.08486-4.68618,1.00636,0,1.76474,0,2.00516.03758a7.315,7.315,0,0,1,5.25709,2.208,10.64882,10.64882,0,0,1,2.94391,7.27715,109.44969,109.44969,0,0,1-4.71621,12.46662l-.08251.15024c-2.25291,3.71-4.28075,3.755-4.97152,3.755" transform="translate(-221 -5.5)"/><path d="M375.50353,240.067c-3.13167-3.65737-5.40721-9.80806-3.357-10.9195s3.99533.43557,5.257,1.11144c1.84,1.01381,2.79374.32293,2.64351-2.12536-.06762-1.92254-.2854-3.755-.50319-5.4448a27.55387,27.55387,0,0,0-5.52736-13.34522,18.12156,18.12156,0,0,0-20.277-3.95771,14.02834,14.02834,0,0,0-4.44591,5.76016c-.45061.86369.8261,2.07276.45061,3.004a55.1976,55.1976,0,0,1-10.10847,16.64963,83.36058,83.36058,0,0,1,34.546,16.34173c1.78737,1.29926-1.63717,8.56139-2.83126,8.20088-.62333-.06761,2.10279-6.1131.06758-7.23211a107.53037,107.53037,0,0,0-21.86911-8.42618c-1.69727-.59325-6.57125,2.50834-7.85547,1.3443a27.39506,27.39506,0,0,0-7.61514-5.15934c.20277.10519.85613.59325,1.11147,2.86885.6759,5.76015-10.07091,0-.96127,9.22982,2.57592,2.54592,4.98665,4.506,6.90919,3.71,2.89887-.03759,1.5846.368,1.885,1.04395l1.55458,3.67237c.30041.75105.63834.63841.751-.09763l.751-3.8602a1.62212,1.62212,0,0,1,1.61465-1.29926s13.78084.31548,16.522.57079,3.004,1.29926,3.004,1.29926a3.22177,3.22177,0,0,1-1.08145,4.19057c-1.70478,1.3443-5.78271-1.502-9.07959,1.16405a26.90917,26.90917,0,0,1-9.763,3.86019,1.86255,1.86255,0,0,1-1.885-1.00636l-1.66722-3.755c-.27036-.751-.57076-.65341-.6759.1052l-.39051,4.86644c-.06758.75105-.27035,1.36687-.45811,1.36687s-.60832-.52575-.93125-1.19406l-.15017-.19538a.81855.81855,0,0,0-1.502-.20272l-.86366.96133a.9238.9238,0,0,1-1.5846-.15024l-.32292-.54076a.751.751,0,0,0-1.41188,0l-.51819.86369c-.383.6384-.9087.5858-1.149-.1052l-.18777-.57079c-.24033-.7059-.69091-.751-.9763-.0526-.21779.50318-.54071.60826-.751.31548-.45812.45814-.81109.81109-.94626.92374-.3905.40554-1.36681,1.26167-1.39686,2.04274s.96126,1.21664,5.71512,2.17785,26.82571-8.02063,33.795-6.54123c8.06575,1.66722,11.15232-4.94906,11.72311-13.518,0-.20272-.06761-.7059-.16524-1.36687a67.46864,67.46864,0,0,0-5.05423-6.54123" transform="translate(-221 -5.5)" style="fill:#bdbbba"/><path d="M723.53194,412.91721c-.751,1.35174-3.28929,1.62975-4.19068,1.95267-1.86994.751-3.5673,1.88507-3.48456,3.18433a59.53317,59.53317,0,0,0,0,7.127c.31536.67587,2.8614,1.50209,3.402.67587.383-.52576-.03759-4.82141.43568-7.76532.09764-.43568.39054-2.178,1.23166-2.591.31536-.09763,3.25193-1.36687,2.59852-2.59852" transform="translate(-221 -5.5)" style="fill:#bdbbba"/><path d="M511.307,306.523c2.253-.21784,5.39219-.79608,6.451,0a8.00543,8.00543,0,0,1,2.53091,5.257,63.36857,63.36857,0,0,1-6.008,11.06973c-.383.39054-.92374,1.69725-1.93755.368a106.0695,106.0695,0,0,1-2.74864-15.12519s-.28534-1.36688,1.69724-1.5846" transform="translate(-221 -5.5)" style="fill:#bdbbba"/><path d="M751.88226,359.61118c-3.00395-4.40085-10.63405-12.21877-13.68315-15.90616-4.0628-5.02423-22.62764-26.77316-22.62764-26.77316s-5.30957-32.9163-7.58517-40.38127c-1.44938-4.814-5.45969-39.48754-32.34562-58.34517,1.50209-2.44072,18.88776,11.265,25.151,21.85413,11.40779,19.2406,16.25922,69.59516,16.25922,69.59516s7.27714-76.87242-33.44206-93.124c-29.16129-12.18118-43.73827-10.24363-43.73827-10.24363a25.53414,25.53414,0,0,0-8.04263,35.20347l.00687.01088c2.39569,4.50605,28.94357,45.20267,30.64826,48.42447,15.1252,28.32018,63.19672,61.34167,71.93837,70.35365.45814.45814,8.75655,5.89538,9.335,11.89584.1052,1.11144-11.265-6.47362-11.11488-5.09174a342.06622,342.06622,0,0,1-.353,44.63188c-.27044,3.60477-.45058,4.13052-2.65857,4.919s-4.43087-1.27668-5.78261,2.44073c-1.50209,4.14553-.93875,7.17951,2.87629,7.17951s9.60523,2.02017,13.25526-12.016c3.6725-14.15631,11.72315-39.28484,14.11884-48.5221.59337-2.253-1.17917-4.61869-2.25291-6.11311" transform="translate(-221 -5.5)" style="fill:#bdbbba"/><path d="M345.36589,185.81483a69.33251,69.33251,0,0,1,3.13167,12.016c-.03753,2.6961-.86363,2.87636-.86363,2.87636l-9.47012,4.14553a19.39865,19.39865,0,0,0,3.14668-5.39219,64.96284,64.96284,0,0,0,4.06291-13.6607" transform="translate(-221 -5.5)" style="fill:#bdbbba"/><path d="M677.5482,407.45752a1.75737,1.75737,0,0,0-1.83235.50306,18.77348,18.77348,0,0,0-1.29926,5.78262,2.66609,2.66609,0,0,0,3.11672.5858c2.00515-.751,6.16581-3.87509,4.83653-4.88145a22.04252,22.04252,0,0,0-4.83653-1.99026" transform="translate(-221 -5.5)" style="fill:#bdbbba"/><path d="M673.90585,405.2721a4.14641,4.14641,0,0,0-2.64344.8936,10.51436,10.51436,0,0,0-2.3957,4.81385c.1052,1.074,1.7047,2.8614,2.50846,1.7723s4.551-7.57761,2.53091-7.46485" transform="translate(-221 -5.5)" style="fill:#bdbbba"/><path d="M325.96756,234.17162c-2.12533,3.357,4.01035,6.28592,5.57993,4.50605a3.755,3.755,0,0,0-5.57993-4.50605" transform="translate(-221 -5.5)" style="fill:#bdbbba"/><path d="M435.23061,418.26449s-3.53716,7.08944-3.61978,7.83292.08262,1.21653.47316,1.21653a3.95791,3.95791,0,0,0,2.5984-.28534,63.29612,63.29612,0,0,0,4.66373-8.60643,3.00421,3.00421,0,0,0-4.11551-.15012" transform="translate(-221 -5.5)" style="fill:#bdbbba"/><path d="M709.59325,366.10737c1.78743-6.30093-4.09306-6.95423-6.12824,1.19406-.691,2.79368-8.80926,32.293-9.70286,40.0659-.03758.40555.24042.75105.60827.27033.10519,2.696,14.43419-38.714,15.21526-41.54531" transform="translate(-221 -5.5)" style="fill:#bdbbba"/><path d="M446.58565,205.57361a169.43407,169.43407,0,0,1-45.13512,2.44073c-8.60648-1.17906-9.012-6.48863-7.44989-11.15236-7.96809,7.88553-12.18123,4.8139-12.369,3.83762-.2854-1.24666,2.9439,0,5.0542-2.10279a15.24546,15.24546,0,0,0,1.68223-13.0899c-1.66722-3.57474.17275-2.92889.17275-2.92889a8.19334,8.19334,0,0,1,6.33845,5.76015c1.27669-5.30957-6.008-11.92586-8.42623-10.39386a12.45161,12.45161,0,0,0-6.50364,11.22c.84112,7.112.31542,10.66419-1.99014,10.514-15.58323-.67587-33.044-2.74864-42.73943,7.31473a41.21484,41.21484,0,0,1,20.77265-6.90918c9.012.85612,27.51666,2.68108,28.6281,24.37747a99.393,99.393,0,0,0,.20277,10.514c.21779,3.004-2.6435,1.09649-2.6435,2.42572.15018,6.008,4.41586,5.0542,4.0479,10.27365-1.502,21.35845-11.3251,20.87029-11.3251,20.87029s11.87332,1.68223,17.76113-18.26432c0,11.42274-1.23165,14.269-5.82777,18.775a19.68379,19.68379,0,0,0,16.40934-9.25233,24.14452,24.14452,0,0,0,10.67919,12.016,28.12509,28.12509,0,0,1-1.80238-18.15917c2.03524,13.32276,5.40721,18.26431,12.26385,21.1782a21.56881,21.56881,0,0,1-6.66888-19.66121,33.7274,33.7274,0,0,0,12.09861,17.46823,37.6106,37.6106,0,0,1-4.3333-15.32791c4.61864,9.94322,9.59028,10.76932,9.59028,10.76932a37.15183,37.15183,0,0,1-9.012-18.5497c-.15017-.17275,5.42222,7.127,9.89068,7.127a33.31443,33.31443,0,0,1-9.55274-17.55086c3.42457,4.506,5.9329,7.39736,9.95823,7.8029a34.24556,34.24556,0,0,1-7.20959-17.4833c3.84512,4.83642,3.18426,6.38349,10.46141,8.37363a16.522,16.522,0,0,1-3.372-13.81837,16.522,16.522,0,0,0,11.80571,5.82777,18.024,18.024,0,0,1-4.37833-11.13734,25.44354,25.44354,0,0,0,12.63932,2.54586,11.41517,11.41517,0,0,1-2.95142-8.96694,32.63055,32.63055,0,0,0,11.42274,0c-2.73363-1.76485-5.13682-4.29571-4.506-4.07792,2.04275.751,5.3922-1.00636,9.763-1.69725a32.7365,32.7365,0,0,1,8.30608-.751,78.36708,78.36708,0,0,0-31.77483-.21778" transform="translate(-221 -5.5)" style="fill:#bdbbba"/><path d="M590.33452,294.5671s-9.14719-.5858-9.87566,2.253a81.46071,81.46071,0,0,0,4.919,19.44343c1.11144,2.80123,4.22815-3.71,4.22815-3.71a80.189,80.189,0,0,0,4.71633-11.72314c0-1.46451.12021-6.30093-3.9953-6.26334" transform="translate(-221 -5.5)" style="fill:#bdbbba"/><path d="M554.59453,296.01659s-9.11718-.55578-9.83808,2.208a72.39614,72.39614,0,0,0,3.83762,17.656c.89371,2.72618,2.86128-1.36687,2.86128-1.36687.96133-1.78743,8.26105-11.01713,8.26105-12.21876,0-1.4645-.97634-6.2709-5.13688-6.26334" transform="translate(-221 -5.5)" style="fill:#bdbbba"/><path d="M618.60222,205.88152c-2.86128.16525-26.69055,2.86129-42.57424,2.89888-12.65433.03758-26.08228-.5708-33.22421-.31548a8.69487,8.69487,0,0,0-2.253.09763h0c-10.64917-.47315-44.68448-.97633-44.68448-.97633a53.13328,53.13328,0,0,0-42.056,46.83986c-3.08658,23.68659-1.61463,31.21906,3.755,42.469a74.61184,74.61184,0,0,1,9.36492,28.68826c-.08262,4.04034-7.24712-16.86748-7.142-14.50937a651.96368,651.96368,0,0,1-5.60992,90.67578c-2.88386,13.84839-5.64751,6.8716-8.92936,12.65433-.50318.90872-7.60007,13.81092-7.44239,13.946s3.5673-.39054,7.1645-.751c4.19057-.13522,7.64522-11.5579,10.514-11.5579.45814,0-3.15419,9.1998-2.61354,9.012,3.004-.75105,7.84794-1.96757,7.51.383a2.298,2.298,0,0,0,2.591-.97634c.86369-1.04394,4.814-18.775,7.20965-27.95222.57079-1.547,4.50605-.65341,5.59492-.25531,2.14037-4.32579-1.29927-18.775,4.919-38.87172,6.1131-19.78136,12.58672-36.89659,9.68785-42.05605-.32293-.55578-10.7844,13.3302-11.00213,12.767-.67587-1.5846,34.10292-60.08,27.344-90.30771-.09763-1.08142-.57079-2.32063-.57079-3.18421-.03758-.21784,3.9953,1.46451,9.012,2.79368,6.50364,2.04274,12.23377,3.08657,14.20146,10.61159,2.3581,14.57686,9.10216,35.17688,22.80789,36.3934-6.19573-5.67753-14.18645-34.6737-13.22513-46.622,3.84508,19.45843,15.68843,47.59836,25.47391,46.3517a85.49282,85.49282,0,0,1-10.161-32.01514c3.52214,9.24483,11.92586,29.53682,18.27938,29.66448,16.61216.35295,20.85521-7.19452,33.14159-9.95829,27.47906-6.23331,34.6737,4.29577,38.87172,6.48863a258.67356,258.67356,0,0,1-22.4774-38.87172c-6.008-12.429,4.17555-24.783,21.59881-32.46572,3.42451-1.502-19.66115-1.28425-25.08337-1.149" transform="translate(-221 -5.5)" style="fill:#bdbbba"/><path d="M623.27351,289.85834s-9.16221-.5858-9.83808,2.208,5.74526,13.458,7.73529,16.43936c1.43448,2.12537,2.88386-1.38188,2.88386-1.38188a68.132,68.132,0,0,0,4.29565-10.9721c0-1.46451-.96121-6.2709-5.09185-6.2709" transform="translate(-221 -5.5)" style="fill:#bdbbba"/><path d="M535.37639,282.19066c-4.31077-1.502-9.59021-10.41632-11.16736-14.269a38.30156,38.30156,0,0,1-2.77866-19.3082,110.85484,110.85484,0,0,0,5.257,16.78485,154.32244,154.32244,0,0,0,8.68905,16.79231" transform="translate(-221 -5.5)" style="fill:#bdbbba"/><path d="M628.33511,397.61176a11.58721,11.58721,0,0,0-6.759-3.55217c-1.66711-.21773-1.99026-.27044-2.1704,1.36687a14.40583,14.40583,0,0,0,.06761,4.31078c.43568,2.4633.65341,1.7723,2.89876,1.9a46.04508,46.04508,0,0,0,4.919.27044c1.55457-.13522,1.9-.17281,1.9-1.62219,0-1.08153.383-2.42571-.8787-2.83137" transform="translate(-221 -5.5)"/><path d="M353.78459,214.20256s2.79374-4.814,6.19573-5.78273c2.49333-.7059,5.12181.751,9.012,3.33444s6.008,6.69146,9.763,5.62494c1.32928-.383-2.95141,4.40084-6.6839,3.0491-.92373-.353-6.51865-9.703-12.016-9.55274a13.97581,13.97581,0,0,0-6.30087,3.33444" transform="translate(-221 -5.5)"/><path d="M363.818,209.74166a7.04452,7.04452,0,0,0-7.24712,1.83992c1.19406-3.04911,6.66888-1.17906,9.012-.16525a16.79291,16.79291,0,0,1,4.43088,6.008,10.0334,10.0334,0,0,0-5.257-3.1692c-3.43958-.30792-3.8076,4.26563-3.8076,4.26563l-1.77236,2.1704s.25532.55578,2.91389.55578a46.26867,46.26867,0,0,0,13.21011-1.24667c1.23165-1.11144-6.54123-8.86174-11.55791-10.31124m1.00636,9.93572a1.93007,1.93007,0,0,1,0-3.755,2.06525,2.06525,0,0,1,1.885,1.92253,2.02018,2.02018,0,0,1-1.885,1.86994" transform="translate(-221 -5.5)"/><path d="M411.942,237.46859s1.54707,5.257,3.21429,6.30093,6.008-5.45981,6.008-5.45981a32.17954,32.17954,0,0,1-5.64,9.763c-2.15539-1.61462-3.004-3.58975-3.55223-10.61159" transform="translate(-221 -5.5)"/><path d="M418.24292,243.364a22.33388,22.33388,0,0,0,4.19057,6.23331c1.66722,1.00636,5.50485-5.17435,5.50485-5.17435a47.50113,47.50113,0,0,1-5.15935,9.51516,10.81442,10.81442,0,0,1-4.506-10.55911" transform="translate(-221 -5.5)"/><path d="M403.7261,252.22572s3.07913,5.62493,4.88152,6.33094c3.11665,1.27669,3.31943-6.90918,3.31943-6.90918s1.2992,9.07958-2.1103,12.08354c-2.87636-1.66722-4.37833-2.80124-6.08308-11.5053" transform="translate(-221 -5.5)"/><path d="M411.49148,248.92886a18.67792,18.67792,0,0,0,3.18426,6.12812c1.56959,1.17905,4.83642-7.63021,4.83642-7.63021a46.82323,46.82323,0,0,1-3.55223,13.0899,15.891,15.891,0,0,1-4.506-11.58792" transform="translate(-221 -5.5)"/><path d="M417.79229,252.91671a17.10649,17.10649,0,0,0,4.8139,5.47482c1.84.82611,3.07912-6.75895,3.07912-6.75895s.50318,8.644-1.71976,11.13734a12.01607,12.01607,0,0,1-6.1657-9.87567" transform="translate(-221 -5.5)"/><path d="M419.49709,232.03136s2.89887,6.58626,4.82141,7.60007,4.83642-6.08308,4.83642-6.08308-1.46445,7.73529-4.94907,10.161c-2.35816-2.1028-3.08663-3.42452-4.70125-11.678" transform="translate(-221 -5.5)"/><path d="M414.57805,226.30117s1.83247,4.97164,3.46961,5.84278,4.506-5.84278,4.506-5.84278a30.85106,30.85106,0,0,1-4.3333,11.18994c-1.77236-1.43437-2.59847-3.82261-3.64236-11.18994" transform="translate(-221 -5.5)"/><path d="M424.66394,224.56634a14.92118,14.92118,0,0,0,2.944,5.2195c1.4119.90873,3.61978-2.84627,3.61978-2.84627s-.8637,5.948-3.50714,6.72148c-1.07391-.97633-2.253-2.89887-3.049-9.0946" transform="translate(-221 -5.5)"/><path d="M432.42175,219.59476s.85613,4.01031,2.04274,4.86644,3.33445-2.83126,3.33445-2.83126a9.087,9.087,0,0,1-3.43953,6.48862,9.47012,9.47012,0,0,1-1.93755-8.5238" transform="translate(-221 -5.5)"/><path d="M439.67644,213.71445s.84111,3.9953,2.03518,4.86644,3.33444-2.83126,3.33444-2.83126-.39054,5.45981-3.357,6.06807a13.05234,13.05234,0,0,1-1.99014-8.08824" transform="translate(-221 -5.5)"/><path d="M405.35574,242.52274s2.65851,4.74635,3.90517,4.86644,3.57475-4.86644,3.57475-4.86644-1.1115,6.70647-3.57475,8.06578a14.20112,14.20112,0,0,1-3.90517-8.06578" transform="translate(-221 -5.5)"/><path d="M421.1418,220.18062s1.09648,3.9427,2.32808,4.73133,3.15418-3.004,3.15418-3.004-.63834,5.62493-2.76365,7.27714a10.01842,10.01842,0,0,1-2.72612-8.96694" transform="translate(-221 -5.5)"/><path d="M485.21721,210.7706s15.58323-5.91784,19.27062,19.09047c1.66722-9.14719-.40555-20.02922-6.72148-23.281s-12.54925,4.21314-12.54925,4.21314" transform="translate(-221 -5.5)"/><path d="M363.64525,199.115a33.84765,33.84765,0,0,1,29.94237,30.36292,35.46978,35.46978,0,0,0-11.663-26.96087c-.82611-.50318-3.95778-2.05776-1.65221-7.17957a28.03464,28.03464,0,0,0-16.64219,3.755" transform="translate(-221 -5.5)"/><path d="M650.15921,395.88437a37.24583,37.24583,0,0,1-2.62855,14.75713h1.38177a25.79975,25.79975,0,0,0,1.855-5.64007,64.81385,64.81385,0,0,0,.31536-8.10336l-.92362-1.00636Z" transform="translate(-221 -5.5)"/><path d="M635.08673,314.34846a3.4855,3.4855,0,0,1-.03759,1.5846s-.338,1.23165,1.29926,2.03518a5.257,5.257,0,0,1,2.04274,1.95256c.09764.15023.17281.28534.25532.39053a1.26927,1.26927,0,0,1,.15012,1.32929,1.50166,1.50166,0,0,1-.40544.751.69083.69083,0,0,0-.21772.7059v.0526a2.34312,2.34312,0,0,0,1.17916,1.502c.1052.12021.52576.6384.1052,1.90753l-.12009.383c-.5182,1.36687-.08251,4.7538.751,4.50605s.63829-3.1166.8936-3.46967a5.55659,5.55659,0,0,0,.60826-3.31943,1.04361,1.04361,0,0,0-.35294-.751c-.75105-.47316-1.00636-.82611-1.00636-.93119a1.015,1.015,0,0,1,.21772-.32292,8.73787,8.73787,0,0,0,.473-.751,2.86892,2.86892,0,0,0-.20283-2.1704,7.39867,7.39867,0,0,0-2.53092-2.681c-.751-.20272-1.14158-.60826-1.14914-1.01381,0-.20272.03759-.50318.05248-.75105a2.47937,2.47937,0,0,0-.12009-1.6522,6.95442,6.95442,0,0,0-6.11311-3.004l-1.58459,1.73483s2.83137-1.4119,5.84289,2.03518" transform="translate(-221 -5.5)"/><path d="M622.96548,319.07223c.94632-.03758,1.62219,1.502,1.68224,1.83992s-.18771.31547-.65342.21784-.8936-1.04395-1.86993-1.00636-.99124.751-1.32929.751,1.20919-1.69724,2.1704-1.7723" transform="translate(-221 -5.5)"/><path d="M630.2801,316.52631a2.25322,2.25322,0,0,1,1.29926,1.41191,5.01722,5.01722,0,0,0-1.78743-1.00636,1.95265,1.95265,0,0,0-1.21652.03758s.24042-.96132,1.69736-.45814" transform="translate(-221 -5.5)"/><path d="M644.59432,371.16908l-.85624-4.108-.473-1.44938-7.39724-13.8484-.30046-.50318a7.57366,7.57366,0,0,0-1.04395-1.08142.22182.22182,0,0,1,.16525-.383,24.7817,24.7817,0,0,0,8.171-1.29926,65.34609,65.34609,0,0,0,8.02063,8.41117,83.05376,83.05376,0,0,0-7.31473-10.66419,33.47973,33.47973,0,0,0,.57067-4.7538,5.475,5.475,0,0,0-3.26683-2.53091.16554.16554,0,0,0-.12009.03759c-.18771-.28534-.28534-.52576-.35295-.60827l-.12009-.21784c-.57068-.93119-.99124-1.66722-1.29926-2.14038,1.44937.45815,2.87629.93119,3.004.97634l.796.06761.826-1.149-6.00791-2.04274c-.55578-.16525-1.14915-1.32929-1.19407-2.253,0-.67588,4.21315-4.814,3.372-5.06928-1.59972-.54076-5.50484,3.63479-5.57245,4.83642a5.2565,5.2565,0,0,0,1.08153,3.30442,1.90785,1.90785,0,0,0-.473,1.149c-7.44995.50318-10.17613,3.21423-10.514,4.5811a63.72168,63.72168,0,0,1,8.10336-2.72618c-1.39689,1.29926.85624,3.84507.85624,3.84507a1.59227,1.59227,0,0,0-1.73471,0c-1.41936,1.08142,0,3.40206.31536,3.90524a1.96048,1.96048,0,0,0-1.19407.368c-.751.85612.691,2.64355,1.7047,3.755.50306.50318-1.7047.35294-8.03576-4.34825.17281,4.5811,7.78778,7.34475,10.20616,7.38234.06761.06761,9.80806,17.94133,10.10852,18.57973m-12.61674-24.52771c.43568-.50318,1.6671.65341,1.99026.35295s-2.53092-3.57474-1.62975-4.22816c1.04394-.751,2.32052,1.80245,2.89875,1.36688s.33806-.75105.17281-1.12646a26.45579,26.45579,0,0,0-1.29926-2.42571c-.09763-.12021-1.41179-2.17041-.54065-2.61354.8936-.28534,1.80233,1.19407,2.02028,1.44938.08251.06761,1.73472,3.07913,2.4633,2.696s-1.26167-4.85143-1.26167-4.85143c-.15012-.42056-.96121-1.55457-.54065-1.90007s.86357-.24031,2.00515,1.29926a36.60663,36.60663,0,0,0,3.57486,5.57245,4.44637,4.44637,0,0,0-.40543-2.00516c.62339.48817,1.80233.8111,1.73472,1.68224a9.60822,9.60822,0,0,1-.57068,3.2894,17.07044,17.07044,0,0,1-9.70286,3.45465c-.15012-.20271-1.41179-1.43436-.90873-2.03518" transform="translate(-221 -5.5)"/><path d="M614.29912,370.51578l-1.00636.60826-1.5846.96133a63.4586,63.4586,0,0,0,12.81958,20.55486l.20283-.57067a58.9913,58.9913,0,0,1-10.41632-21.56123" transform="translate(-221 -5.5)"/><path d="M637.6927,378.22105c-3.82261.5858-6.47362,13.12-6.47362,13.12.90873-1.17917.93875.85624.93875.85624s3.0491-10.64918,5.715-11.72315a16.14455,16.14455,0,0,1,6.66888-.65341,10.25059,10.25059,0,0,0-6.84169-1.5846" transform="translate(-221 -5.5)"/><path d="M608.44121,358.44713a112.37879,112.37879,0,0,0-1.04394-12.1437l-.55578.57079-.93875-.57079a42.31268,42.31268,0,0,0,2.53091,12.1437" transform="translate(-221 -5.5)"/><path d="M611.21988,348.902l.93118,9.763,1.66711-.96133-.42056-7.142s.796.383,1.08154.13522-1.32929-1.69724-1.41936-3.50713c-.06761-1.29926,1.41936-3.004,1.164-3.14674s-.751.32292-.751.32292c.09763-1.17905.20283-2.4633.28533-3.30441a12.46954,12.46954,0,0,1,1.66711-3.49969,6.84932,6.84932,0,0,0-4.07792,5.15934l-.24042,3.07913a6.67338,6.67338,0,0,0-.31536,1.5846,3.17671,3.17671,0,0,0,.473,1.502" transform="translate(-221 -5.5)"/><path d="M607.08191,379.67787c-.45059,2.46331,9.7629,12.01605,9.7629,12.01605l2.83138-1.32929a99.29662,99.29662,0,0,1-12.61674-10.67919" transform="translate(-221 -5.5)"/><path d="M615.50063,336.69064a29.65972,29.65972,0,0,1,7.20954,3.41706c.63828-1.08141-3.92781-3.63479-6.06062-4.37827-1.2768,0-1.36687.28534-1.41179.42056a.50317.50317,0,0,0,.25531.54077" transform="translate(-221 -5.5)"/><path d="M522.98483,368.64573c1.149-.20272,3.07912-2.38813,2.73362-2.53092s-1.26167,1.32929-3.00395,1.32929a9.42555,9.42555,0,0,1-1.99015-.27033h-.13522c-.25531.353-1.7723.59325-1.7723.59325l.20272.93119,1.502-.353a5.16668,5.16668,0,0,0,2.46331.28534" transform="translate(-221 -5.5)"/><path d="M557.223,342.113c1.23165-1.28425-1.164-2.76366-1.23165-2.95147,0,0,1.70481,2.208.35295,1.58459-1.164-1.81745-5.66253-3.16919-5.82777-3.34945s.57079-1.02882,3.0491.85613c.20272-.35295-1.35174-1.83247-3.49212-1.66722a1.08144,1.08144,0,0,0-.45814-.751.135.135,0,0,0-.1052-.03758c-.0526,0-.16525,0-.12021.03758.20272.21784.52576.751.16524.751s-.67587-.7059-.751-.82611c-.2403-.39053-1.27669.16525-.67587.67588.16524.1202.43557.21784.70589.383s.16525.28534-.09763.21784a4.04131,4.04131,0,0,0-1.20908-.17269,3.6514,3.6514,0,0,0-1.36687.2403c-.17269.08262-.353,0-.13522-.20272a1.95245,1.95245,0,0,1,.65341-.32292c.85613-.5858-.5858-1.62963-.85613-.17269a.99121.99121,0,0,1-.45814.50318c-.6384,0,.06761-1.00636,0-1.00636s-.09763.09763-.12021.10519a1.35981,1.35981,0,0,0-.52575.7059c-.16525,0-2.69605.15023-3.04911,1.502,1.88507-1.36687,2.86129-1.29926,2.73363-.751-.0526.21784-2.253,1.46451-3.14674,2.32063-.751.54077-1.80244,1.83247-1.99014,1.88507-.368.06761-.43557-.66086.08262-1.59961-1.19407,1.12645-.96133,2.02017-.66086,2.53091a5.43728,5.43728,0,0,0,.33793,4.59612,17.68616,17.68616,0,0,0,5.05427,4.40084c.368-.2403-4.19814-4.29576-4.55109-6.008-.751-4.14553,4.86645-7.78789,6.65388-7.98316a1.60724,1.60724,0,0,0,1.35174.45059c1.28425-.03759,1.3969-.45059,1.43437-.45059,1.4119-.17269,8.20845,2.35811,7.51,7.39736-.25532,1.5846-.89372,3.48467-.60826,3.67238s.57079-.6384,1.24666-2.00516a5.46743,5.46743,0,0,0,.12021-4.61869" transform="translate(-221 -5.5)"/><path d="M523.81849,389.98178c6.51866-.67588,18.4295,19.48846,18.82,19.9466s1.149-.52575,1.149-.52575c-.48817-.85625-10.90449-22.27469-19.96162-19.42085" transform="translate(-221 -5.5)"/><path d="M532.78555,356.44943a84.50226,84.50226,0,0,0,.17269,18.69994l1.43437-1.83992c-.20272-1.08142-.35295-6.47361-.35295-7.26213a12.37671,12.37671,0,0,0,8.20089-3.357,29.52221,29.52221,0,0,1-5.52731.55578c-1.99014-.33794-2.50833-1.164-2.61353-1.78743,0-.17269-.751-5.05426-1.32929-4.98665" transform="translate(-221 -5.5)"/><path d="M531.93687,385.66344l-1.24666.86357c9.012,4.79895,14.44176,22.31961,14.50937,22.47752v.20283l2.89887,1.00636s-6.85659-20.36716-16.1916-24.54272" transform="translate(-221 -5.5)"/><path d="M553.17506,409.19223c.383.60826,2.4633-.45814,2.4633-.45814v-.21773a21.4559,21.4559,0,0,1,6.54123-15.02s-7.41237,1.50209-9.012,15.66585" transform="translate(-221 -5.5)"/><path d="M589.90652,407.6678l-1.68224-1.14915a34.54375,34.54375,0,0,1,.751,5.4448.48057.48057,0,0,1-.2403.45058c-.03759.08251-.09764.1052-.1052.15012-.6384.751-.21784,3.34956-.21784,3.34956a11.56685,11.56685,0,0,1,1.502-2.3581,1.04349,1.04349,0,0,0,.21784-.21773c.383-.36807.43557-.62339.27032-2.10279-.05259-.54065-.47315-3.55217-.47315-3.55217" transform="translate(-221 -5.5)"/><path d="M563.13346,356.2843a18.63439,18.63439,0,0,0-.90872,5.05426,2.696,2.696,0,0,1-3.42452,2.49332,20.278,20.278,0,0,1-4.59611-1.11144c1.149,2.253,6.54122,3.387,7.88552,5.257a12.84431,12.84431,0,0,1,.54077,2.72618h1.074v-3.7024l1.074-.33794c-.47316-7.6977-1.31427-10.43145-1.6372-10.34883" transform="translate(-221 -5.5)"/><path d="M541.16658,352.89726a43.066,43.066,0,0,0-4.904.35294l-3.26684.67588.96133.69088a45.99157,45.99157,0,0,1,7.127-.86369,5.2578,5.2578,0,0,1,1.14146.1052c2.44073.57079,5.35461,1.55457,5.3922,1.179a14.26964,14.26964,0,0,0-5.10674-2.08778c-.32293,0-.751-.0526-1.32929-.0526" transform="translate(-221 -5.5)"/><path d="M562.22474,354.10633l.2403-.12021.09763-.1202.08262-.1727-.1202-.21784-1.28425-.751c-.13522-.03758-6.36854-.05259-6.36854-.05259a14.577,14.577,0,0,0-6.06807,2.34309c.353.368,3.82261-1.14147,6.23332-1.41936a31.66792,31.66792,0,0,1,7.20965.52576" transform="translate(-221 -5.5)"/><path d="M575.02162,364.67288c-.90872-.97633-8.18587-9.65782-8.20844-9.763a.6191.6191,0,0,0-.50318-.39053c-.26288,0-1.01381.03758-1.08142.30035a39.17819,39.17819,0,0,0,7.45,8.52381c1.11144,1.00636,1.99014,1.55457,2.3581,1.29926" transform="translate(-221 -5.5)"/><path d="M530.11942,412.08366c.35295.50306,1.00636,1.44937,1.00636,1.44937a7.03725,7.03725,0,0,1,2.42571-3.0491,17.57842,17.57842,0,0,1,5.35461-2.07277,7.72015,7.72015,0,0,0-8.76422,3.68739" transform="translate(-221 -5.5)"/><path d="M527.904,376.53125c.82611,0,1.04395-.75105,1.074-1.6372l.16525-.15023a5.03229,5.03229,0,0,0,1.29926-2.32063c.39053,2.11035,1.43436,6.30092.67587,7.39735l-1.21664,1.26168,1.26167-.75105a2.25306,2.25306,0,0,0,1.059-2.53091c-.15023-.81109-1.4119-7.51-1.4119-7.51l-.03759-.30791a4.2727,4.2727,0,0,0-.751-2.35811,4.37837,4.37837,0,0,0-3.004-1.73483s3.45465,2.32808,3.004,4.73134-.85612,2.53091-.85612,2.54592l-.5182-.54077v1.36687c-.1202.69089-.30035.97634-.751.93119-1.31427,0-2.32063,1.78743-3.755,1.38188s-2.02017-1.502-2.86129-2.14037.39054-1.73483.39054-1.73483a.984.984,0,0,0-.39054-.7059c-.35294-.23285-.92374,1.20908-.92374,1.20908s-.81109,2.04274.30792,2.79367c1.99014,1.29926,1.32928,1.26168,3.46966,1.92254s1.99015-1.21664,3.755-1.19407" transform="translate(-221 -5.5)"/><rect width="638" height="789" style="fill:none"/></svg>