<?xml version="1.0" encoding="UTF-8"?>
<!DOCTYPE svg PUBLIC "-//W3C//DTD SVG 1.1//EN" "http://www.w3.org/Graphics/SVG/1.1/DTD/svg11.dtd">
<svg xmlns="http://www.w3.org/2000/svg" version="1.1" width="1200px" height="1520px" style="shape-rendering:geometricPrecision; text-rendering:geometricPrecision; image-rendering:optimizeQuality; fill-rule:evenodd; clip-rule:evenodd" xmlns:xlink="http://www.w3.org/1999/xlink">
<g><path style="opacity:0.988" fill="#1f1a17" d="M 3.5,3.5 C 401.5,3.5 799.5,3.5 1197.5,3.5C 1197.97,255.507 1197.47,507.507 1196,759.5C 1186.58,905.775 1140.58,1039.11 1058,1159.5C 971.756,1282.09 863.256,1379.59 732.5,1452C 691.983,1474.09 650.316,1493.76 607.5,1511C 602.5,1513 597.5,1513 592.5,1511C 424.735,1444.57 284.568,1341.07 172,1200.5C 97.814,1104.77 47.1474,997.439 20,878.5C 11.3872,838.264 6.05386,797.598 4,756.5C 3.5,505.5 3.33333,254.5 3.5,3.5 Z"/></g>
<g><path style="opacity:1" fill="#0b5882" d="M 858.5,21.5 C 858.5,21.1667 858.5,20.8333 858.5,20.5C 965.5,20.5 1072.5,20.5 1179.5,20.5C 1179.5,30.1667 1179.5,39.8333 1179.5,49.5C 1179.17,49.5 1178.83,49.5 1178.5,49.5C 1178.5,40.1667 1178.5,30.8333 1178.5,21.5C 1071.83,21.5 965.167,21.5 858.5,21.5 Z"/></g>
<g><path style="opacity:1" fill="#9e9c9b" d="M 858.5,20.5 C 858.5,20.8333 858.5,21.1667 858.5,21.5C 857.833,21.5 857.167,21.5 856.5,21.5C 578.167,21.5 299.833,21.5 21.5,21.5C 21.5,184.167 21.5,346.833 21.5,509.5C 21.1667,509.5 20.8333,509.5 20.5,509.5C 20.5,346.5 20.5,183.5 20.5,20.5C 299.833,20.5 579.167,20.5 858.5,20.5 Z"/></g>
<g><path style="opacity:1" fill="#fefefe" d="M 856.5,21.5 C 578.366,184.404 300.033,347.071 21.5,509.5C 21.5,346.833 21.5,184.167 21.5,21.5C 299.833,21.5 578.167,21.5 856.5,21.5 Z"/></g>
<g><path style="opacity:1" fill="#0179bb" d="M 856.5,21.5 C 857.167,21.5 857.833,21.5 858.5,21.5C 965.167,21.5 1071.83,21.5 1178.5,21.5C 1178.5,30.8333 1178.5,40.1667 1178.5,49.5C 1177.83,49.5 1177.5,49.8333 1177.5,50.5C 1019.89,142.31 862.222,234.143 704.5,326C 699.797,326.379 695.463,325.213 691.5,322.5C 701.801,317.511 712.468,313.511 723.5,310.5C 705.417,279.036 679.083,268.369 644.5,278.5C 631.078,264.791 614.745,256.957 595.5,255C 556.017,251.957 521.017,262.957 490.5,288C 475.978,300.549 466.144,316.049 461,334.5C 460.667,339.167 460.333,343.833 460,348.5C 436.844,356.323 421.844,371.99 415,395.5C 413.012,402.361 412.178,409.361 412.5,416.5C 390.105,420.767 367.772,420.434 345.5,415.5C 339.388,434.726 329.888,452.059 317,467.5C 268.643,524.545 211.476,570.379 145.5,605C 138.32,608.06 130.986,610.727 123.5,613C 142.177,621.003 161.51,627.003 181.5,631C 128.664,662.252 75.6642,693.252 22.5,724C 21.5201,731.079 21.1868,738.245 21.5,745.5C 20.5007,667.002 20.1674,588.335 20.5,509.5C 20.8333,509.5 21.1667,509.5 21.5,509.5C 300.033,347.071 578.366,184.404 856.5,21.5 Z"/></g>
<g><path style="opacity:1" fill="#d0cfd0" d="M 1177.5,50.5 C 1177.5,49.8333 1177.83,49.5 1178.5,49.5C 1178.83,49.5 1179.17,49.5 1179.5,49.5C 1179.5,123.833 1179.5,198.167 1179.5,272.5C 1179.17,272.5 1178.83,272.5 1178.5,272.5C 1178.83,198.331 1178.5,124.331 1177.5,50.5 Z"/></g>
<g><path style="opacity:1" fill="#fdfdfd" d="M 1177.5,50.5 C 1178.5,124.331 1178.83,198.331 1178.5,272.5C 1073.69,334.074 968.692,395.407 863.5,456.5C 862.479,457.002 862.312,457.668 863,458.5C 865.167,460.667 867.333,462.833 869.5,465C 902.457,466.982 935.29,470.149 968,474.5C 970.255,474.434 972.422,474.101 974.5,473.5C 975.274,474.147 976.274,474.48 977.5,474.5C 1007.83,469.7 1037.83,463.367 1067.5,455.5C 1062.28,471.275 1054.45,485.608 1044,498.5C 1030.9,513.448 1017.07,526.781 1002.5,538.5C 1060.7,504.236 1119.03,470.236 1177.5,436.5C 1178.5,509.331 1178.83,582.331 1178.5,655.5C 1116.11,691.443 1053.95,727.777 992,764.5C 989.212,806.78 987.046,849.113 985.5,891.5C 944.86,882.187 912.526,860.52 888.5,826.5C 887.635,825.417 886.635,825.251 885.5,826C 859.965,840.93 834.632,856.096 809.5,871.5C 817.434,884.946 827.434,896.779 839.5,907C 857.14,921.628 876.14,934.295 896.5,945C 845.994,945.836 798.661,958.502 754.5,983C 675.108,1026.04 608.275,1083.87 554,1156.5C 548.667,1164.5 543.333,1172.5 538,1180.5C 541.058,1131.66 539.058,1082.99 532,1034.5C 531.586,1034.04 531.086,1033.71 530.5,1033.5C 424.149,1095.53 317.816,1157.53 211.5,1219.5C 169.987,1171.52 134.653,1119.18 105.5,1062.5C 154.002,1033.75 202.669,1005.25 251.5,977C 263.395,966.115 273.395,953.782 281.5,940C 265.052,939.93 248.718,941.43 232.5,944.5C 231.5,944.167 230.5,943.833 229.5,943.5C 239.539,928.754 246.873,912.754 251.5,895.5C 253.583,888.674 254.916,881.674 255.5,874.5C 236.675,877.304 218.009,880.971 199.5,885.5C 198.833,885.167 198.167,884.833 197.5,884.5C 205.197,869.245 210.363,853.245 213,836.5C 159.355,867.734 105.855,899.067 52.5,930.5C 33.9348,870.36 23.6014,808.693 21.5,745.5C 21.1868,738.245 21.5201,731.079 22.5,724C 75.6642,693.252 128.664,662.252 181.5,631C 161.51,627.003 142.177,621.003 123.5,613C 130.986,610.727 138.32,608.06 145.5,605C 211.476,570.379 268.643,524.545 317,467.5C 329.888,452.059 339.388,434.726 345.5,415.5C 367.772,420.434 390.105,420.767 412.5,416.5C 412.178,409.361 413.012,402.361 415,395.5C 421.844,371.99 436.844,356.323 460,348.5C 460.333,343.833 460.667,339.167 461,334.5C 466.144,316.049 475.978,300.549 490.5,288C 521.017,262.957 556.017,251.957 595.5,255C 614.745,256.957 631.078,264.791 644.5,278.5C 679.083,268.369 705.417,279.036 723.5,310.5C 712.468,313.511 701.801,317.511 691.5,322.5C 695.463,325.213 699.797,326.379 704.5,326C 862.222,234.143 1019.89,142.31 1177.5,50.5 Z"/></g>
<g><path style="opacity:1" fill="#1f1a17" d="M 213.5,778.5 C 214.043,778.44 214.376,778.107 214.5,777.5C 191.337,776.171 168.337,776.171 145.5,777.5C 144.131,791.409 141.465,805.076 137.5,818.5C 117.845,819.5 98.178,819.833 78.5,819.5C 73.911,801.29 71.2443,782.79 70.5,764C 70.4745,746.859 73.1412,730.192 78.5,714C 98.5083,713.167 118.508,713.334 138.5,714.5C 143.1,727.103 145.434,740.103 145.5,753.5C 175.833,753.5 206.167,753.5 236.5,753.5C 238.987,740.967 240.487,728.301 241,715.5C 241.167,699.49 241.667,683.49 242.5,667.5C 266.729,658.99 291.729,654.656 317.5,654.5C 322.087,644.452 322.753,634.119 319.5,623.5C 263.921,628.074 208.921,624.407 154.5,612.5C 175.335,605.469 194.668,595.636 212.5,583C 254.68,553.496 292.514,518.996 326,479.5C 337.223,465.263 346.389,449.763 353.5,433C 384.491,436.457 415.158,434.457 445.5,427C 456.69,423.826 466.19,417.993 474,409.5C 476.98,404.552 478.48,399.218 478.5,393.5C 460.55,392.446 444.05,396.779 429,406.5C 432.274,391.796 439.774,379.63 451.5,370C 458.968,365.182 466.802,361.015 475,357.5C 476.093,334.147 485.593,314.98 503.5,300C 533.796,276.208 567.796,268.208 605.5,276C 618.172,279.333 628.505,286.167 636.5,296.5C 643.161,294.668 649.828,292.835 656.5,291C 670.675,288.284 683.675,290.951 695.5,299C 697.351,300.684 699.018,302.517 700.5,304.5C 685.66,305.172 673.16,310.839 663,321.5C 661.813,323.044 661.48,324.711 662,326.5C 679.406,333.916 697.573,338.416 716.5,340C 762.922,343.58 809.255,342.58 855.5,337C 906.922,331.137 957.589,321.804 1007.5,309C 976.376,351.792 939.043,388.125 895.5,418C 876.502,430.501 857.169,442.501 837.5,454C 845.681,462.014 853.681,470.181 861.5,478.5C 898.073,480.7 934.573,483.7 971,487.5C 977.868,487.452 984.702,486.952 991.5,486C 1009.58,481.991 1027.58,477.991 1045.5,474C 1026.62,500.213 1003.29,521.546 975.5,538C 965.5,543.333 955.5,548.667 945.5,554C 960.13,568.465 976.796,579.965 995.5,588.5C 1002.38,628.15 1013.72,666.483 1029.5,703.5C 999.366,697.141 981.866,709.141 977,739.5C 975.127,783.848 972.96,828.181 970.5,872.5C 945.284,861.802 924.45,845.469 908,823.5C 898.918,809.518 888.085,797.018 875.5,786C 847.557,772.445 823.723,777.612 804,801.5C 783.893,828.002 782.227,855.669 799,884.5C 812.867,904.365 830.033,920.865 850.5,934C 826.807,934.923 804.141,940.256 782.5,950C 707.69,985.8 641.523,1033.63 584,1093.5C 573.373,1104.77 563.707,1116.77 555,1129.5C 555.697,1091.53 552.697,1053.86 546,1016.5C 542.11,991.402 534.776,967.402 524,944.5C 521.833,941.667 519.667,938.833 517.5,936C 516.5,935.333 515.5,935.333 514.5,936C 502.352,952.466 493.518,970.632 488,990.5C 485.164,1002.2 482.33,1013.86 479.5,1025.5C 450.356,1015.04 420.356,1008.2 389.5,1005C 341.655,999.601 293.655,996.935 245.5,997C 270.185,977.82 291.185,955.32 308.5,929.5C 299.953,925.575 290.953,923.908 281.5,924.5C 271.627,924.593 261.961,925.76 252.5,928C 258.62,921.262 262.787,913.429 265,904.5C 270.088,888.893 272.922,872.893 273.5,856.5C 267.802,856.596 262.135,857.096 256.5,858C 243.781,860.478 231.114,862.812 218.5,865C 228.599,845.768 233.599,825.268 233.5,803.5C 217.81,803.156 202.143,802.322 186.5,801C 196.567,794.766 205.567,787.266 213.5,778.5 Z"/></g>
<g><path style="opacity:1" fill="#db351b" d="M 1178.5,272.5 C 1178.83,272.5 1179.17,272.5 1179.5,272.5C 1179.67,299.502 1179.5,326.502 1179,353.5C 1110.95,393.727 1042.78,433.727 974.5,473.5C 972.422,474.101 970.255,474.434 968,474.5C 935.29,470.149 902.457,466.982 869.5,465C 867.333,462.833 865.167,460.667 863,458.5C 862.312,457.668 862.479,457.002 863.5,456.5C 968.692,395.407 1073.69,334.074 1178.5,272.5 Z"/></g>
<g><path style="opacity:1" fill="#d0cfcf" d="M 1177.5,436.5 C 1177.56,435.957 1177.89,435.624 1178.5,435.5C 1179.5,508.83 1179.83,582.164 1179.5,655.5C 1179.17,655.5 1178.83,655.5 1178.5,655.5C 1178.83,582.331 1178.5,509.331 1177.5,436.5 Z"/></g>
<g><path style="opacity:1" fill="#0279bb" d="M 1178.5,655.5 C 1178.83,655.5 1179.17,655.5 1179.5,655.5C 1182.52,731.284 1176.52,806.284 1161.5,880.5C 891.5,1037.83 621.5,1195.17 351.5,1352.5C 350.5,1351.83 349.5,1351.17 348.5,1350.5C 346.858,1349.2 345.191,1347.86 343.5,1346.5C 341.858,1345.2 340.191,1343.86 338.5,1342.5C 336.858,1341.2 335.191,1339.86 333.5,1338.5C 331.525,1336.86 329.525,1335.2 327.5,1333.5C 325.525,1331.86 323.525,1330.2 321.5,1328.5C 321.5,1327.83 321.167,1327.5 320.5,1327.5C 318.858,1326.2 317.191,1324.86 315.5,1323.5C 315.5,1322.83 315.167,1322.5 314.5,1322.5C 314.5,1321.83 314.167,1321.5 313.5,1321.5C 311.525,1319.86 309.525,1318.2 307.5,1316.5C 307.5,1315.83 307.167,1315.5 306.5,1315.5C 306.5,1314.83 306.167,1314.5 305.5,1314.5C 303.192,1312.53 300.858,1310.53 298.5,1308.5C 298.5,1307.83 298.167,1307.5 297.5,1307.5C 297.5,1306.83 297.167,1306.5 296.5,1306.5C 293.526,1303.86 290.526,1301.2 287.5,1298.5C 287.5,1297.83 287.167,1297.5 286.5,1297.5C 286.5,1296.83 286.167,1296.5 285.5,1296.5C 285.5,1295.83 285.167,1295.5 284.5,1295.5C 284.5,1294.83 284.167,1294.5 283.5,1294.5C 276.526,1287.86 269.526,1281.19 262.5,1274.5C 262.5,1273.83 262.167,1273.5 261.5,1273.5C 261.5,1272.83 261.167,1272.5 260.5,1272.5C 243.799,1255.13 227.466,1237.47 211.5,1219.5C 317.816,1157.53 424.149,1095.53 530.5,1033.5C 531.086,1033.71 531.586,1034.04 532,1034.5C 539.058,1082.99 541.058,1131.66 538,1180.5C 543.333,1172.5 548.667,1164.5 554,1156.5C 608.275,1083.87 675.108,1026.04 754.5,983C 798.661,958.502 845.994,945.836 896.5,945C 876.14,934.295 857.14,921.628 839.5,907C 827.434,896.779 817.434,884.946 809.5,871.5C 834.632,856.096 859.965,840.93 885.5,826C 886.635,825.251 887.635,825.417 888.5,826.5C 912.526,860.52 944.86,882.187 985.5,891.5C 987.046,849.113 989.212,806.78 992,764.5C 1053.95,727.777 1116.11,691.443 1178.5,655.5 Z"/></g>
<g><path style="opacity:1" fill="#888583" d="M 145.5,777.5 C 168.337,776.171 191.337,776.171 214.5,777.5C 214.376,778.107 214.043,778.44 213.5,778.5C 191.006,777.503 168.339,777.169 145.5,777.5 Z"/></g>
<g><path style="opacity:1" fill="#db351b" d="M 251.5,895.5 C 193.184,929.472 134.851,963.472 76.5,997.5C 66.5476,975.984 58.5476,953.651 52.5,930.5C 105.855,899.067 159.355,867.734 213,836.5C 210.363,853.245 205.197,869.245 197.5,884.5C 198.167,884.833 198.833,885.167 199.5,885.5C 218.009,880.971 236.675,877.304 255.5,874.5C 254.916,881.674 253.583,888.674 251.5,895.5 Z"/></g>
<g><path style="opacity:0.999" fill="#fefefe" d="M 1161.5,880.5 C 1130.29,1011 1070.79,1126.33 983,1226.5C 971.493,1238.87 959.993,1251.2 948.5,1263.5C 947.833,1263.5 947.5,1263.83 947.5,1264.5C 946.833,1264.5 946.5,1264.83 946.5,1265.5C 945.833,1265.5 945.5,1265.83 945.5,1266.5C 944.833,1266.5 944.5,1266.83 944.5,1267.5C 943.833,1267.5 943.5,1267.83 943.5,1268.5C 942.833,1268.5 942.5,1268.83 942.5,1269.5C 941.833,1269.5 941.5,1269.83 941.5,1270.5C 940.833,1270.5 940.5,1270.83 940.5,1271.5C 939.833,1271.5 939.5,1271.83 939.5,1272.5C 938.833,1272.5 938.5,1272.83 938.5,1273.5C 937.833,1273.5 937.5,1273.83 937.5,1274.5C 936.833,1274.5 936.5,1274.83 936.5,1275.5C 935.833,1275.5 935.5,1275.83 935.5,1276.5C 934.833,1276.5 934.5,1276.83 934.5,1277.5C 933.833,1277.5 933.5,1277.83 933.5,1278.5C 932.833,1278.5 932.5,1278.83 932.5,1279.5C 931.833,1279.5 931.5,1279.83 931.5,1280.5C 930.833,1280.5 930.5,1280.83 930.5,1281.5C 929.833,1281.5 929.5,1281.83 929.5,1282.5C 928.833,1282.5 928.5,1282.83 928.5,1283.5C 923.807,1287.86 919.141,1292.19 914.5,1296.5C 913.833,1296.5 913.5,1296.83 913.5,1297.5C 912.833,1297.5 912.5,1297.83 912.5,1298.5C 911.833,1298.5 911.5,1298.83 911.5,1299.5C 910.833,1299.5 910.5,1299.83 910.5,1300.5C 907.808,1302.86 905.141,1305.2 902.5,1307.5C 901.833,1307.5 901.5,1307.83 901.5,1308.5C 900.833,1308.5 900.5,1308.83 900.5,1309.5C 899.833,1309.5 899.5,1309.83 899.5,1310.5C 897.475,1312.2 895.475,1313.86 893.5,1315.5C 892.833,1315.5 892.5,1315.83 892.5,1316.5C 891.833,1316.5 891.5,1316.83 891.5,1317.5C 889.475,1319.2 887.475,1320.86 885.5,1322.5C 884.833,1322.5 884.5,1322.83 884.5,1323.5C 883.833,1323.5 883.5,1323.83 883.5,1324.5C 881.809,1325.86 880.142,1327.2 878.5,1328.5C 877.833,1328.5 877.5,1328.83 877.5,1329.5C 875.809,1330.86 874.142,1332.2 872.5,1333.5C 871.833,1333.5 871.5,1333.83 871.5,1334.5C 869.809,1335.86 868.142,1337.2 866.5,1338.5C 864.475,1340.2 862.475,1341.86 860.5,1343.5C 855.809,1347.2 851.142,1350.86 846.5,1354.5C 771.287,1412.55 689.121,1459.21 600,1494.5C 509.836,1459.03 427.002,1411.7 351.5,1352.5C 621.5,1195.17 891.5,1037.83 1161.5,880.5 Z"/></g>
</svg>
