<?xml version="1.0" encoding="UTF-8"?>
<!DOCTYPE svg PUBLIC "-//W3C//DTD SVG 1.1//EN" "http://www.w3.org/Graphics/SVG/1.1/DTD/svg11.dtd">
<svg xmlns="http://www.w3.org/2000/svg" version="1.1" width="4534px" height="5000px" style="shape-rendering:geometricPrecision; text-rendering:geometricPrecision; image-rendering:optimizeQuality; fill-rule:evenodd; clip-rule:evenodd" xmlns:xlink="http://www.w3.org/1999/xlink">
<g><path style="opacity:0.996" fill="#a6a4a5" d="M 4533.5,2483.5 C 4533.5,2484.17 4533.5,2484.83 4533.5,2485.5C 4474.71,2529.78 4416.04,2574.28 4357.5,2619C 4409.77,2754.83 4450.94,2893.99 4481,3036.5C 4498.89,3122.26 4508.72,3208.93 4510.5,3296.5C 4511.21,3410.13 4495.71,3521.47 4464,3630.5C 4416.98,3780.1 4336.48,3908.27 4222.5,4015C 4146.89,4084.14 4064.22,4143.47 3974.5,4193C 3887.77,4240.53 3798.1,4281.86 3705.5,4317C 3550.82,4374.34 3393.15,4422 3232.5,4460C 3039.2,4505.69 2844.53,4544.53 2648.5,4576.5C 2676.78,4676.45 2705.45,4776.28 2734.5,4876C 2734,4876.17 2733.5,4876.33 2733,4876.5C 2624.87,4830.1 2516.87,4783.43 2409,4736.5C 2333,4819.17 2257,4901.83 2181,4984.5C 2147.4,4899.87 2113.9,4815.21 2080.5,4730.5C 1952.27,4769.58 1823.94,4808.24 1695.5,4846.5C 1729.43,4751.72 1763.76,4657.05 1798.5,4562.5C 1630.15,4532.93 1462.81,4498.43 1296.5,4459C 1148.37,4423.89 1002.7,4380.55 859.5,4329C 755.809,4290.99 655.476,4245.65 558.5,4193C 467.572,4142.74 383.905,4082.41 307.5,4012C 152.377,3863.93 61.2108,3682.76 34,3468.5C 16.3778,3336.45 20.0445,3204.78 45,3073.5C 74.9312,2918.05 118.431,2766.55 175.5,2619C 116.957,2574.28 58.2901,2529.78 -0.5,2485.5C -0.5,2484.83 -0.5,2484.17 -0.5,2483.5C 57.5935,2440.24 115.26,2396.41 172.5,2352C 142.04,2310.7 111.374,2269.54 80.5,2228.5C 141.5,2200.5 202.5,2172.5 263.5,2144.5C 245.333,2107.5 227.167,2070.5 209,2033.5C 208.251,2032.36 208.417,2031.36 209.5,2030.5C 291.789,2007.34 374.122,1984.34 456.5,1961.5C 486.681,1866.1 504.847,1768.43 511,1668.5C 513.237,1561.97 501.571,1456.97 476,1353.5C 447.14,1236.58 408.14,1123.25 359,1013.5C 320.178,927.186 277.178,843.186 230,761.5C 229.333,760.167 229.333,758.833 230,757.5C 309.045,651.911 388.212,546.411 467.5,441C 518.825,439.835 570.158,439.168 621.5,439C 706.471,437.814 791.138,432.148 875.5,422C 948.403,413.353 1019.74,397.687 1089.5,375C 1136.35,359.408 1180.02,337.742 1220.5,310C 1239.91,295.596 1257.74,279.429 1274,261.5C 1291.49,238.521 1308.49,215.188 1325,191.5C 1363.25,131.985 1402.25,72.9855 1442,14.5C 1496.5,78.5605 1553.67,140.394 1613.5,200C 1669.55,254.743 1730.21,303.409 1795.5,346C 1912.43,418.417 2039.76,459.417 2177.5,469C 2271.06,475.466 2364.06,470.799 2456.5,455C 2563.59,434.935 2662.59,395.269 2753.5,336C 2814.89,294.634 2872.23,247.967 2925.5,196C 2960.43,161.073 2994.26,125.24 3027,88.5C 3048.33,63.8333 3069.67,39.1667 3091,14.5C 3099.25,25.993 3107.25,37.6596 3115,49.5C 3142.25,93.6758 3170.25,137.342 3199,180.5C 3225.13,219.847 3254.96,256.347 3288.5,290C 3318.93,318.381 3353.6,340.381 3392.5,356C 3452.25,380.021 3513.91,397.354 3577.5,408C 3693.69,427.297 3810.69,437.63 3928.5,439C 3974.18,439.195 4019.84,439.862 4065.5,441C 4145.21,546.939 4224.54,653.106 4303.5,759.5C 4227.25,891.011 4163.08,1028.34 4111,1171.5C 4076.67,1267.16 4051.34,1365.16 4035,1465.5C 4015.45,1582.5 4017.11,1699.16 4040,1815.5C 4049.64,1864.73 4061.47,1913.4 4075.5,1961.5C 4158.24,1984.19 4240.91,2007.19 4323.5,2030.5C 4324.58,2031.36 4324.75,2032.36 4324,2033.5C 4305.83,2070.5 4287.67,2107.5 4269.5,2144.5C 4330.5,2172.5 4391.5,2200.5 4452.5,2228.5C 4421.63,2269.54 4390.96,2310.7 4360.5,2352C 4417.74,2396.41 4475.41,2440.24 4533.5,2483.5 Z"/></g>
<g><path style="opacity:1" fill="#231f20" d="M 1451.5,226.5 C 1496.9,277.403 1545.57,325.236 1597.5,370C 1787.06,525.822 2005.4,604.655 2252.5,606.5C 2536.02,609.65 2781.02,515.483 2987.5,324C 3020.14,292.863 3051.14,260.363 3080.5,226.5C 3102.47,260.968 3124.64,295.301 3147,329.5C 3193.01,391.863 3251.18,439.029 3321.5,471C 3394.52,503.447 3470.52,526.447 3549.5,540C 3673.57,560.979 3798.57,572.312 3924.5,574C 3950.83,574.333 3977.17,574.667 4003.5,575C 4055.53,643.565 4107.2,712.398 4158.5,781.5C 4054.99,968.197 3979.16,1165.53 3931,1373.5C 3912.17,1460.99 3901.67,1549.49 3899.5,1639C 3900.19,1728.02 3910.69,1815.86 3931,1902.5C 3944.6,1960.2 3960.6,2017.2 3979,2073.5C 4036.39,2090.06 4093.89,2106.39 4151.5,2122.5C 4136.08,2153.01 4120.91,2183.68 4106,2214.5C 4105.33,2215.5 4105.33,2216.5 4106,2217.5C 4158.49,2242.33 4211.32,2266.49 4264.5,2290C 4239.71,2323.08 4215.04,2356.24 4190.5,2389.5C 4237.67,2425.83 4285,2461.99 4332.5,2498C 4294.19,2527.82 4255.53,2557.15 4216.5,2586C 4214.4,2588.02 4212.4,2590.02 4210.5,2592C 4277.59,2751.03 4328.76,2915.19 4364,3084.5C 4376.18,3148.3 4384.18,3212.63 4388,3277.5C 4390.98,3373.11 4381.64,3467.44 4360,3560.5C 4325.63,3697.28 4259.63,3815.94 4162,3916.5C 4095,3982.2 4021.17,4038.7 3940.5,4086C 3845.73,4139.89 3747.4,4185.89 3645.5,4224C 3500.35,4276.41 3352.68,4320.41 3202.5,4356C 3046.78,4392.54 2890.11,4424.88 2732.5,4453C 2652.87,4466.75 2573.2,4480.25 2493.5,4493.5C 2511.24,4554.98 2528.58,4616.31 2545.5,4677.5C 2490.5,4653.77 2435.5,4629.94 2380.5,4606C 2379.17,4605.33 2377.83,4605.33 2376.5,4606C 2324.97,4661.2 2273.8,4716.7 2223,4772.5C 2200.3,4714.26 2177.47,4655.93 2154.5,4597.5C 2153.67,4597.17 2152.83,4596.83 2152,4596.5C 2065.75,4622.11 1979.58,4648.11 1893.5,4674.5C 1892.39,4673.28 1892.22,4671.94 1893,4670.5C 1916.62,4607.69 1939.79,4544.69 1962.5,4481.5C 1783.29,4451.95 1604.96,4417.78 1427.5,4379C 1287.84,4347.59 1149.84,4310.59 1013.5,4268C 891.448,4229.5 773.115,4181.16 658.5,4123C 584.072,4084.14 514.072,4038.81 448.5,3987C 269.572,3841.68 170.072,3653.51 150,3422.5C 141.03,3335.57 143.03,3248.9 156,3162.5C 168.111,3083.51 184.778,3005.51 206,2928.5C 238.027,2813.69 276.86,2701.52 322.5,2592C 281.853,2560.69 241.186,2529.36 200.5,2498C 248,2461.99 295.333,2425.83 342.5,2389.5C 317.641,2356.47 292.974,2323.31 268.5,2290C 321.232,2265.64 374.065,2241.48 427,2217.5C 427.667,2216.5 427.667,2215.5 427,2214.5C 412.089,2183.68 396.923,2153.01 381.5,2122.5C 438.581,2105.62 495.915,2089.62 553.5,2074.5C 588.844,1971.45 613.344,1865.78 627,1757.5C 635.612,1680.83 635.612,1604.17 627,1527.5C 615.132,1426.95 594.465,1328.28 565,1231.5C 517.219,1074.93 453.719,924.928 374.5,781.5C 425.802,712.398 477.468,643.565 529.5,575C 655.993,575.302 781.993,567.636 907.5,552C 976.633,542.593 1044.63,528.26 1111.5,509C 1161.26,493.741 1208.93,473.407 1254.5,448C 1315.43,412.07 1364.93,364.236 1403,304.5C 1419.02,278.332 1435.19,252.332 1451.5,226.5 Z"/></g>
<g><path style="opacity:1" fill="#fefefe" d="M 2133.5,810.5 C 2133.5,1193.5 2133.5,1576.5 2133.5,1959.5C 2089.17,1959.5 2044.83,1959.5 2000.5,1959.5C 2000.83,1900.33 2000.5,1841.33 1999.5,1782.5C 1998.87,1738.62 1995.7,1694.95 1990,1651.5C 1984.2,1612.48 1973.87,1574.81 1959,1538.5C 1945.19,1505.97 1923.35,1480.47 1893.5,1462C 1868.31,1449.36 1841.64,1444.7 1813.5,1448C 1804.05,1449.02 1794.88,1451.19 1786,1454.5C 1785.5,1454.17 1785,1453.83 1784.5,1453.5C 1788.5,1444.16 1793,1435.16 1798,1426.5C 1838.74,1418.9 1879.57,1411.9 1920.5,1405.5C 1919.77,1390.17 1919.1,1374.84 1918.5,1359.5C 1879.5,1356.72 1840.5,1354.06 1801.5,1351.5C 1803.85,1338.41 1806.69,1325.41 1810,1312.5C 1810.39,1311.57 1811.05,1310.91 1812,1310.5C 1842.82,1327.97 1873.65,1327.8 1904.5,1310C 1919.07,1299.59 1929.74,1286.09 1936.5,1269.5C 1967.37,1285.32 1997.37,1283.82 2026.5,1265C 2059.05,1238.59 2068.55,1205.42 2055,1165.5C 2044.69,1143.86 2028.52,1128.36 2006.5,1119C 2040.24,1090.39 2048.74,1055.56 2032,1014.5C 2012.13,980.982 1982.63,966.148 1943.5,970C 1936.77,971.646 1930.1,973.479 1923.5,975.5C 1918.16,939.655 1898.16,916.155 1863.5,905C 1824.16,896.769 1793,908.935 1770,941.5C 1765.15,949.235 1761.98,957.568 1760.5,966.5C 1726.51,968.914 1702.34,985.581 1688,1016.5C 1677.08,1045.83 1680.58,1073.33 1698.5,1099C 1665.64,1131.53 1660.48,1168.03 1683,1208.5C 1695.4,1225.44 1711.57,1237.11 1731.5,1243.5C 1713.64,1267.24 1695.3,1290.57 1676.5,1313.5C 1665.26,1286.62 1653.93,1259.79 1642.5,1233C 1627.74,1233.85 1613.07,1235.68 1598.5,1238.5C 1598.17,1239 1597.83,1239.5 1597.5,1240C 1601.95,1279.79 1605.78,1319.62 1609,1359.5C 1595.32,1334.14 1578.16,1311.31 1557.5,1291C 1522.47,1261.35 1485.47,1258.68 1446.5,1283C 1424.3,1299.9 1405.13,1319.73 1389,1342.5C 1388.33,1338.5 1388.33,1334.5 1389,1330.5C 1393.06,1293.69 1396.9,1256.86 1400.5,1220C 1400.25,1218.67 1399.58,1217.67 1398.5,1217C 1384.22,1214.54 1369.89,1212.87 1355.5,1212C 1343.96,1238.62 1332.79,1265.45 1322,1292.5C 1303.31,1269.31 1284.81,1245.98 1266.5,1222.5C 1312.93,1205.34 1333.1,1172 1327,1122.5C 1324.78,1114.05 1321.44,1106.05 1317,1098.5C 1311.3,1091.3 1305.46,1084.3 1299.5,1077.5C 1321.97,1044.23 1322.13,1010.9 1300,977.5C 1284.23,957.866 1263.73,947.032 1238.5,945C 1227.19,908.328 1202.52,886.995 1164.5,881C 1125.35,879.49 1097.18,896.323 1080,931.5C 1077.21,938.95 1075.38,946.617 1074.5,954.5C 1027.8,939.117 991.631,952.117 966,993.5C 949.033,1035.11 957.866,1069.94 992.5,1098C 947.537,1118.09 930.37,1152.26 941,1200.5C 951.391,1231.56 972.558,1250.72 1004.5,1258C 1024.44,1261.12 1043.27,1257.96 1061,1248.5C 1083.97,1294.84 1120.47,1311 1170.5,1297C 1176.28,1294.95 1181.61,1292.11 1186.5,1288.5C 1190.97,1302.17 1194.3,1316.17 1196.5,1330.5C 1157.45,1332.55 1118.45,1335.22 1079.5,1338.5C 1079.32,1353.86 1078.65,1369.19 1077.5,1384.5C 1118.82,1391.55 1160.15,1398.72 1201.5,1406C 1206.12,1415.36 1210.45,1424.86 1214.5,1434.5C 1159.85,1429.42 1116.68,1449.09 1085,1493.5C 1067.72,1520.39 1055.06,1549.39 1047,1580.5C 1033.69,1636.68 1026.35,1693.68 1025,1751.5C 1024.33,1805.5 1024.33,1859.5 1025,1913.5C 1026.21,1927.48 1027.04,1941.48 1027.5,1955.5C 1027.5,1956.83 1027.5,1958.17 1027.5,1959.5C 954.331,1959.83 881.331,1959.5 808.5,1958.5C 824,1893.5 835.834,1827.83 844,1761.5C 855.356,1654.57 853.356,1547.9 838,1441.5C 822.06,1333.13 798.727,1226.46 768,1121.5C 739.935,1025.3 707.935,930.635 672,837.5C 665.367,820.239 658.201,803.239 650.5,786.5C 751.428,782.553 852.095,775.053 952.5,764C 1041.15,752.871 1128.15,734.204 1213.5,708C 1272.85,688.15 1329.19,662.15 1382.5,630C 1419.21,606.313 1452.71,578.48 1483,546.5C 1613.65,662.083 1764.49,739.583 1935.5,779C 2000.9,793.957 2066.9,804.457 2133.5,810.5 Z"/></g>
<g><path style="opacity:1" fill="#01a44e" d="M 3208.5,1968.5 C 3128.83,1968.5 3049.17,1968.5 2969.5,1968.5C 2969.5,1524.17 2969.5,1079.83 2969.5,635.5C 3009.9,608.276 3048.57,578.61 3085.5,546.5C 3121.54,585.055 3162.37,617.388 3208,643.5C 3208.5,1085.17 3208.67,1526.83 3208.5,1968.5 Z"/></g>
<g><path style="opacity:1" fill="#01a44e" d="M 3520.5,749.5 C 3603.98,763.387 3687.98,773.22 3772.5,779C 3820.84,781.401 3869.18,783.901 3917.5,786.5C 3838.75,975.708 3779.92,1171.04 3741,1372.5C 3728.65,1443.66 3720.65,1515.33 3717,1587.5C 3715.38,1677.51 3722.38,1766.85 3738,1855.5C 3745.4,1893.43 3753.57,1931.1 3762.5,1968.5C 3681.83,1968.5 3601.17,1968.5 3520.5,1968.5C 3520.5,1562.17 3520.5,1155.83 3520.5,749.5 Z"/></g>
<g><path style="opacity:1" fill="#01a44e" d="M 2668.5,1968.5 C 2588.83,1968.5 2509.17,1968.5 2429.5,1968.5C 2429.5,1582.5 2429.5,1196.5 2429.5,810.5C 2509.94,803.721 2589.27,790.054 2667.5,769.5C 2668.5,1169.17 2668.83,1568.83 2668.5,1968.5 Z"/></g>
<g><path style="opacity:1" fill="#fcfcfc" d="M 1147.5,923.5 C 1163.99,921.406 1177.82,926.406 1189,938.5C 1192.22,942.281 1194.39,946.614 1195.5,951.5C 1195.47,953.029 1194.8,954.196 1193.5,955C 1174.34,965.799 1161.17,981.632 1154,1002.5C 1152.77,1003.11 1151.44,1003.44 1150,1003.5C 1123.34,995.784 1112.68,978.117 1118,950.5C 1123.95,937.043 1133.78,928.043 1147.5,923.5 Z"/></g>
<g><path style="opacity:1" fill="#fcfcfc" d="M 1832.5,944.5 C 1854.68,942.503 1870.51,951.503 1880,971.5C 1884.14,987.11 1880.97,1000.94 1870.5,1013C 1863.77,1019.12 1855.93,1022.95 1847,1024.5C 1846.17,1024.17 1845.33,1023.83 1844.5,1023.5C 1836.76,1002.01 1822.92,985.68 1803,974.5C 1802.52,972.087 1802.85,969.754 1804,967.5C 1810.25,955.646 1819.75,947.979 1832.5,944.5 Z"/></g>
<g><path style="opacity:1" fill="#fcfcfc" d="M 1227.5,986.5 C 1249.77,985.876 1264.94,995.876 1273,1016.5C 1276.35,1034.12 1271.18,1048.62 1257.5,1060C 1242.06,1069.57 1226.39,1069.91 1210.5,1061C 1191.09,1044.72 1187.59,1025.55 1200,1003.5C 1207.3,994.611 1216.46,988.945 1227.5,986.5 Z"/></g>
<g><path style="opacity:1" fill="#fcfcfc" d="M 1031.5,990.5 C 1057.23,987.934 1073.73,998.934 1081,1023.5C 1080.86,1056.97 1064.02,1072.47 1030.5,1070C 1007.51,1061.54 997.675,1045.04 1001,1020.5C 1005.76,1004.9 1015.93,994.904 1031.5,990.5 Z"/></g>
<g><path style="opacity:1" fill="#fcfcfc" d="M 1755.5,1008.5 C 1778.66,1006.15 1794.82,1015.48 1804,1036.5C 1808.14,1058.25 1800.64,1074.59 1781.5,1085.5C 1767.85,1081.23 1753.85,1079.4 1739.5,1080C 1723.14,1064.7 1719.97,1046.86 1730,1026.5C 1736.49,1017.49 1744.99,1011.49 1755.5,1008.5 Z"/></g>
<g><path style="opacity:1" fill="#fcfcfc" d="M 1949.5,1011.5 C 1975.04,1009.67 1991.2,1021 1998,1045.5C 1998.82,1070.7 1986.99,1086.2 1962.5,1092C 1939.58,1092.95 1924.74,1082.45 1918,1060.5C 1914.92,1035.3 1925.42,1018.97 1949.5,1011.5 Z"/></g>
<g><path style="opacity:1" fill="#fcfcfc" d="M 1122.5,1039.5 C 1127.18,1040.89 1131.85,1042.39 1136.5,1044C 1141.77,1045.19 1147.1,1045.69 1152.5,1045.5C 1154.72,1054.65 1158.22,1063.32 1163,1071.5C 1168.2,1078.35 1173.7,1084.85 1179.5,1091C 1169.02,1105.37 1163.36,1121.53 1162.5,1139.5C 1144.49,1135.89 1126.82,1137.06 1109.5,1143C 1105.64,1144.18 1102.14,1146.01 1099,1148.5C 1092.55,1132.41 1082.38,1119.25 1068.5,1109C 1099.82,1096.18 1117.82,1073.01 1122.5,1039.5 Z"/></g>
<g><path style="opacity:1" fill="#fcfcfc" d="M 1872.5,1060.5 C 1873.5,1060.5 1874.5,1060.5 1875.5,1060.5C 1880.12,1093.96 1898.12,1117.13 1929.5,1130C 1915.92,1140.57 1905.76,1153.74 1899,1169.5C 1879.19,1158.93 1858.36,1156.27 1836.5,1161.5C 1835.4,1143.13 1829.4,1126.63 1818.5,1112C 1831.95,1099.93 1840.95,1085.1 1845.5,1067.5C 1855.04,1066.75 1864.04,1064.42 1872.5,1060.5 Z"/></g>
<g><path style="opacity:1" fill="#fcfcfc" d="M 1236.5,1101.5 C 1261.68,1098.99 1278.18,1109.66 1286,1133.5C 1288.33,1157.84 1277.83,1173.67 1254.5,1181C 1229.89,1184.12 1213.72,1173.95 1206,1150.5C 1203,1125.8 1213.17,1109.47 1236.5,1101.5 Z"/></g>
<g><path style="opacity:1" fill="#fcfcfc" d="M 1744.5,1122.5 C 1767.9,1120.77 1783.73,1130.77 1792,1152.5C 1795.42,1179.72 1783.92,1196.55 1757.5,1203C 1732.4,1203.9 1717.24,1192.07 1712,1167.5C 1711.47,1144.21 1722.3,1129.21 1744.5,1122.5 Z"/></g>
<g><path style="opacity:1" fill="#fcfcfc" d="M 1010.5,1136.5 C 1028.44,1133.86 1042.94,1139.53 1054,1153.5C 1065.34,1174.53 1062.17,1193.03 1044.5,1209C 1029.53,1218.21 1014.2,1218.88 998.5,1211C 979.881,1196.9 975.047,1179.07 984,1157.5C 990.1,1146.88 998.933,1139.88 1010.5,1136.5 Z"/></g>
<g><path style="opacity:1" fill="#fcfcfc" d="M 1968.5,1157.5 C 1993.17,1155.07 2009.67,1165.41 2018,1188.5C 2020.63,1212.75 2010.46,1228.92 1987.5,1237C 1962.14,1240.3 1945.64,1229.8 1938,1205.5C 1935.78,1181.57 1945.95,1165.57 1968.5,1157.5 Z"/></g>
<g><path style="opacity:1" fill="#fcfcfc" d="M 1132.5,1179.5 C 1148.29,1177.75 1161.46,1182.75 1172,1194.5C 1182.6,1210.04 1183.27,1226.04 1174,1242.5C 1163.32,1256.51 1149.16,1262.34 1131.5,1260C 1108.32,1252.15 1097.82,1235.98 1100,1211.5C 1104.79,1194.54 1115.62,1183.88 1132.5,1179.5 Z"/></g>
<g><path style="opacity:1" fill="#fcfcfc" d="M 1851.5,1200.5 C 1874.83,1199.91 1890.33,1210.57 1898,1232.5C 1900.68,1257.33 1890.18,1273.49 1866.5,1281C 1840.63,1283.82 1824.46,1272.65 1818,1247.5C 1816.6,1222.75 1827.77,1207.08 1851.5,1200.5 Z"/></g>
<g><path style="opacity:1" fill="#fefefe" d="M 1631.5,1781.5 C 1546.5,1781.5 1461.5,1781.5 1376.5,1781.5C 1376.82,1776.97 1376.48,1772.63 1375.5,1768.5C 1374.42,1730.2 1370.59,1692.2 1364,1654.5C 1361.65,1583.38 1369.31,1513.38 1387,1444.5C 1395.64,1411.24 1409.64,1380.57 1429,1352.5C 1442.28,1335.55 1459.11,1323.71 1479.5,1317C 1502.24,1311.44 1522.57,1316.1 1540.5,1331C 1557.24,1347.09 1570.08,1365.93 1579,1387.5C 1597.45,1432.97 1610.45,1479.97 1618,1528.5C 1627.72,1586.45 1633.88,1644.78 1636.5,1703.5C 1633.8,1729.43 1632.14,1755.43 1631.5,1781.5 Z"/></g>
<g><path style="opacity:1" fill="#fefefe" d="M 1184.5,1482.5 C 1219.16,1480.91 1246.66,1494.25 1267,1522.5C 1283.96,1548.09 1296.3,1575.76 1304,1605.5C 1313.69,1642.61 1320.36,1680.28 1324,1718.5C 1325.85,1739.8 1327.02,1761.13 1327.5,1782.5C 1242.5,1782.5 1157.5,1782.5 1072.5,1782.5C 1072.41,1724.59 1077.91,1667.26 1089,1610.5C 1094.46,1584.13 1103.46,1559.13 1116,1535.5C 1130.88,1507.34 1153.72,1489.67 1184.5,1482.5 Z"/></g>
<g><path style="opacity:1" fill="#fefefe" d="M 1819.5,1495.5 C 1851.29,1492.81 1877.12,1503.81 1897,1528.5C 1912.96,1551.42 1924.29,1576.42 1931,1603.5C 1945.09,1662.3 1951.59,1721.96 1950.5,1782.5C 1860.5,1782.5 1770.5,1782.5 1680.5,1782.5C 1680.44,1714.7 1692.94,1649.37 1718,1586.5C 1728.59,1562.59 1743.09,1541.42 1761.5,1523C 1778.24,1508.13 1797.57,1498.96 1819.5,1495.5 Z"/></g>
<g><path style="opacity:1" fill="#e1e1e1" d="M 1375.5,1768.5 C 1376.48,1772.63 1376.82,1776.97 1376.5,1781.5C 1461.5,1781.5 1546.5,1781.5 1631.5,1781.5C 1546.33,1782.5 1461,1782.83 1375.5,1782.5C 1375.5,1777.83 1375.5,1773.17 1375.5,1768.5 Z"/></g>
<g><path style="opacity:1" fill="#fefefe" d="M 1072.5,1806.5 C 1157.5,1806.5 1242.5,1806.5 1327.5,1806.5C 1327.5,1857.83 1327.5,1909.17 1327.5,1960.5C 1243.83,1960.5 1160.17,1960.5 1076.5,1960.5C 1072.88,1909.24 1071.55,1857.91 1072.5,1806.5 Z"/></g>
<g><path style="opacity:1" fill="#fefefe" d="M 1376.5,1806.5 C 1461.17,1806.5 1545.83,1806.5 1630.5,1806.5C 1629.78,1857.51 1628.78,1908.51 1627.5,1959.5C 1543.83,1959.5 1460.17,1959.5 1376.5,1959.5C 1376.5,1908.5 1376.5,1857.5 1376.5,1806.5 Z"/></g>
<g><path style="opacity:1" fill="#fefefe" d="M 1950.5,1959.5 C 1859.17,1959.5 1767.83,1959.5 1676.5,1959.5C 1676.5,1951.5 1676.5,1943.5 1676.5,1935.5C 1677.39,1892.5 1678.39,1849.5 1679.5,1806.5C 1770.17,1806.5 1860.83,1806.5 1951.5,1806.5C 1951.35,1857.5 1951.02,1908.5 1950.5,1959.5 Z"/></g>
<g><path style="opacity:1" fill="#c5c4c4" d="M 1027.5,1955.5 C 1028.45,1956.92 1028.78,1958.59 1028.5,1960.5C 954.83,1960.83 881.164,1960.5 807.5,1959.5C 807.624,1958.89 807.957,1958.56 808.5,1958.5C 881.331,1959.5 954.331,1959.83 1027.5,1959.5C 1027.5,1958.17 1027.5,1956.83 1027.5,1955.5 Z"/></g>
<g><path style="opacity:1" fill="#a4a3a3" d="M 1376.5,1806.5 C 1376.5,1857.5 1376.5,1908.5 1376.5,1959.5C 1460.17,1959.5 1543.83,1959.5 1627.5,1959.5C 1543.67,1960.5 1459.67,1960.83 1375.5,1960.5C 1375.17,1909 1375.5,1857.66 1376.5,1806.5 Z"/></g>
<g><path style="opacity:1" fill="#a7a6a6" d="M 1676.5,1935.5 C 1676.5,1943.5 1676.5,1951.5 1676.5,1959.5C 1767.83,1959.5 1859.17,1959.5 1950.5,1959.5C 1859,1960.5 1767.33,1960.83 1675.5,1960.5C 1675.17,1951.98 1675.51,1943.65 1676.5,1935.5 Z"/></g>
<g><path style="opacity:1" fill="#a19fa0" d="M 2133.5,810.5 C 2134.5,1193.67 2134.83,1577 2134.5,1960.5C 2089.5,1960.5 2044.5,1960.5 1999.5,1960.5C 1999.5,1901.17 1999.5,1841.83 1999.5,1782.5C 2000.5,1841.33 2000.83,1900.33 2000.5,1959.5C 2044.83,1959.5 2089.17,1959.5 2133.5,1959.5C 2133.5,1576.5 2133.5,1193.5 2133.5,810.5 Z"/></g>
<g><path style="opacity:1" fill="#295535" d="M 2429.5,810.5 C 2429.5,1196.5 2429.5,1582.5 2429.5,1968.5C 2509.17,1968.5 2588.83,1968.5 2668.5,1968.5C 2588.67,1969.5 2508.67,1969.83 2428.5,1969.5C 2428.17,1583 2428.5,1196.67 2429.5,810.5 Z"/></g>
<g><path style="opacity:1" fill="#295535" d="M 2969.5,635.5 C 2969.5,1079.83 2969.5,1524.17 2969.5,1968.5C 3049.17,1968.5 3128.83,1968.5 3208.5,1968.5C 3128.67,1969.5 3048.67,1969.83 2968.5,1969.5C 2968.17,1524.67 2968.5,1080 2969.5,635.5 Z"/></g>
<g><path style="opacity:1" fill="#02a54f" d="M 4026.5,2623.5 C 2864.83,2624.17 1703.5,2623.5 542.5,2621.5C 590.146,2517.73 637.312,2413.73 684,2309.5C 712.068,2245.05 737.568,2179.72 760.5,2113.5C 1776.17,2113.17 2791.83,2113.5 3807.5,2114.5C 3830.38,2179.28 3855.54,2243.28 3883,2306.5C 3930.3,2412.43 3978.13,2518.09 4026.5,2623.5 Z"/></g>
<g><path style="opacity:1" fill="#fefefe" d="M 2980.5,2199.5 C 3001.34,2199.42 3022,2201.25 3042.5,2205C 3091.48,2216.64 3118.32,2247.48 3123,2297.5C 3125.79,2347.44 3114.79,2394.11 3090,2437.5C 3074.99,2463.19 3053.82,2481.69 3026.5,2493C 2981.32,2505.9 2943.15,2494.73 2912,2459.5C 2893.14,2436.12 2879.81,2409.78 2872,2380.5C 2862.59,2348.01 2860.26,2315.01 2865,2281.5C 2872.11,2248.78 2890.94,2225.61 2921.5,2212C 2940.57,2204.42 2960.24,2200.25 2980.5,2199.5 Z"/></g>
<g><path style="opacity:1" fill="#fefefe" d="M 3451.5,2199.5 C 3477.33,2198.79 3502.66,2201.95 3527.5,2209C 3567.74,2223.91 3589.91,2252.74 3594,2295.5C 3598.34,2356.12 3582.34,2410.45 3546,2458.5C 3512.93,2495.81 3472.76,2506.64 3425.5,2491C 3399.88,2478.71 3380.05,2460.21 3366,2435.5C 3338.34,2386.53 3328.67,2334.2 3337,2278.5C 3345.62,2243.88 3366.78,2220.71 3400.5,2209C 3417.24,2203.74 3434.24,2200.57 3451.5,2199.5 Z"/></g>
<g><path style="opacity:1" fill="#7ed097" d="M 987.5,2206.5 C 1014.67,2205.17 1042,2205.17 1069.5,2206.5C 1069.38,2207.11 1069.04,2207.44 1068.5,2207.5C 1041.67,2206.5 1014.67,2206.17 987.5,2206.5 Z"/></g>
<g><path style="opacity:1" fill="#7fd198" d="M 2644.5,2206.5 C 2671.34,2205.17 2698.34,2205.17 2725.5,2206.5C 2725.38,2207.11 2725.04,2207.44 2724.5,2207.5C 2698.01,2206.5 2671.34,2206.17 2644.5,2206.5 Z"/></g>
<g><path style="opacity:1" fill="#fefefe" d="M 987.5,2206.5 C 1014.67,2206.17 1041.67,2206.5 1068.5,2207.5C 1052.16,2240.19 1037.99,2273.86 1026,2308.5C 1022.08,2321.27 1019.08,2334.27 1017,2347.5C 1015.07,2362.51 1015.07,2377.51 1017,2392.5C 1022.65,2413.81 1036.48,2425.31 1058.5,2427C 1071.83,2427.5 1085.16,2427.67 1098.5,2427.5C 1098.5,2353.83 1098.5,2280.17 1098.5,2206.5C 1123.5,2206.5 1148.5,2206.5 1173.5,2206.5C 1173.5,2301.5 1173.5,2396.5 1173.5,2491.5C 1130.83,2491.5 1088.17,2491.5 1045.5,2491.5C 983.168,2490 947.668,2458.34 939,2396.5C 936.929,2369.18 938.929,2342.18 945,2315.5C 955.17,2277.47 969.337,2241.14 987.5,2206.5 Z"/></g>
<g><path style="opacity:1" fill="#95d9a9" d="M 1098.5,2206.5 C 1123.66,2205.5 1148.99,2205.17 1174.5,2205.5C 1174.5,2301.17 1174.5,2396.83 1174.5,2492.5C 1131.33,2492.83 1088.33,2492.5 1045.5,2491.5C 1088.17,2491.5 1130.83,2491.5 1173.5,2491.5C 1173.5,2396.5 1173.5,2301.5 1173.5,2206.5C 1148.5,2206.5 1123.5,2206.5 1098.5,2206.5 Z"/></g>
<g><path style="opacity:1" fill="#fefefe" d="M 1371.5,2206.5 C 1404.17,2206.5 1436.83,2206.5 1469.5,2206.5C 1474.91,2227.88 1480.58,2249.22 1486.5,2270.5C 1459.5,2270.33 1432.5,2270.5 1405.5,2271C 1395.21,2273.43 1392.71,2279.26 1398,2288.5C 1422.67,2315.83 1447.33,2343.17 1472,2370.5C 1479,2379.15 1485,2388.49 1490,2398.5C 1499.8,2423.57 1496.8,2446.9 1481,2468.5C 1469.87,2479.98 1456.37,2487.15 1440.5,2490C 1403.86,2491.45 1367.2,2491.95 1330.5,2491.5C 1324.41,2470.28 1318.74,2448.94 1313.5,2427.5C 1341.84,2427.67 1370.17,2427.5 1398.5,2427C 1408.21,2425.75 1411.37,2420.58 1408,2411.5C 1387.8,2387.79 1367.14,2364.46 1346,2341.5C 1334.02,2328.53 1324.02,2314.19 1316,2298.5C 1305.02,2269.01 1310.86,2243.51 1333.5,2222C 1344.99,2213.79 1357.66,2208.62 1371.5,2206.5 Z"/></g>
<g><path style="opacity:1" fill="#fefefe" d="M 1800.5,2206.5 C 1831.84,2206.33 1863.17,2206.5 1894.5,2207C 1900.86,2227.96 1906.53,2249.12 1911.5,2270.5C 1884.83,2270.33 1858.16,2270.5 1831.5,2271C 1821.7,2272.77 1818.86,2278.27 1823,2287.5C 1847.96,2316.13 1873.3,2344.46 1899,2372.5C 1910.32,2385.47 1917.65,2400.47 1921,2417.5C 1923.44,2448.46 1910.94,2470.96 1883.5,2485C 1877.59,2486.98 1871.59,2488.64 1865.5,2490C 1828.86,2491.45 1792.2,2491.95 1755.5,2491.5C 1750.47,2470.34 1744.8,2449.34 1738.5,2428.5C 1767.16,2427.67 1795.83,2427.17 1824.5,2427C 1832.39,2425.78 1835.56,2421.28 1834,2413.5C 1832.92,2411 1831.59,2408.67 1830,2406.5C 1803.29,2377.4 1777.29,2347.73 1752,2317.5C 1735.24,2294.64 1731.91,2269.98 1742,2243.5C 1754.84,2220.66 1774.34,2208.33 1800.5,2206.5 Z"/></g>
<g><path style="opacity:1" fill="#fefefe" d="M 2018.5,2334.5 C 2017.6,2335.21 2017.26,2336.21 2017.5,2337.5C 2042.34,2337.83 2067.01,2337.5 2091.5,2336.5C 2092.5,2321.68 2092.83,2306.68 2092.5,2291.5C 2117.5,2291.5 2142.5,2291.5 2167.5,2291.5C 2167.5,2358.17 2167.5,2424.83 2167.5,2491.5C 2142.5,2491.5 2117.5,2491.5 2092.5,2491.5C 2092.83,2461.33 2092.5,2431.33 2091.5,2401.5C 2064.5,2401.5 2037.5,2401.5 2010.5,2401.5C 2011.57,2434.04 2020.9,2464.04 2038.5,2491.5C 2018.4,2504.96 1998.24,2518.3 1978,2531.5C 1948.31,2487.92 1933.14,2439.59 1932.5,2386.5C 1932.53,2338.57 1947.7,2296.24 1978,2259.5C 2009.14,2226.21 2047.64,2208.71 2093.5,2207C 2116.5,2206.33 2139.5,2206.33 2162.5,2207C 2168.31,2228.13 2173.98,2249.29 2179.5,2270.5C 2154.5,2270.33 2129.5,2270.5 2104.5,2271C 2064.08,2272.45 2035.92,2291.62 2020,2328.5C 2019.19,2330.44 2018.69,2332.44 2018.5,2334.5 Z"/></g>
<g><path style="opacity:1" fill="#fefefe" d="M 2319.5,2491.5 C 2286.09,2491.83 2252.76,2491.49 2219.5,2490.5C 2213.9,2469.61 2208.56,2448.61 2203.5,2427.5C 2231.84,2427.67 2260.17,2427.5 2288.5,2427C 2294.37,2426.29 2297.71,2423.12 2298.5,2417.5C 2298.42,2413.76 2297.25,2410.43 2295,2407.5C 2270.3,2380.46 2245.96,2353.13 2222,2325.5C 2212.72,2314.28 2206.05,2301.61 2202,2287.5C 2195.94,2245.26 2213.44,2218.76 2254.5,2208C 2289.48,2206.57 2324.48,2206.07 2359.5,2206.5C 2364.89,2227.9 2370.22,2249.24 2375.5,2270.5C 2348.83,2270.33 2322.16,2270.5 2295.5,2271C 2287.56,2272.25 2284.4,2276.75 2286,2284.5C 2287.5,2288.16 2289.5,2291.5 2292,2294.5C 2314.67,2319.17 2337.33,2343.83 2360,2368.5C 2372.27,2382.03 2380.6,2397.7 2385,2415.5C 2386.72,2460.96 2364.89,2486.29 2319.5,2491.5 Z"/></g>
<g><path style="opacity:1" fill="#fefefe" d="M 2516.5,2491.5 C 2483.09,2491.83 2449.76,2491.49 2416.5,2490.5C 2410.84,2469.85 2405.18,2449.19 2399.5,2428.5C 2428.16,2427.67 2456.83,2427.17 2485.5,2427C 2496.34,2423.67 2498.51,2417.17 2492,2407.5C 2467.3,2380.46 2442.96,2353.13 2419,2325.5C 2402.56,2306.52 2395.56,2284.52 2398,2259.5C 2404.78,2230.39 2422.94,2213.23 2452.5,2208C 2470.8,2206.88 2489.13,2206.38 2507.5,2206.5C 2523.5,2206.83 2539.5,2207.17 2555.5,2207.5C 2561.37,2228.45 2567.04,2249.45 2572.5,2270.5C 2545.83,2270.33 2519.16,2270.5 2492.5,2271C 2489.14,2272.01 2485.97,2273.51 2483,2275.5C 2481.62,2282.37 2483.29,2288.37 2488,2293.5C 2510.33,2317.83 2532.67,2342.17 2555,2366.5C 2563.57,2376.64 2570.91,2387.64 2577,2399.5C 2587.48,2429.45 2581.31,2455.28 2558.5,2477C 2545.82,2485.5 2531.82,2490.34 2516.5,2491.5 Z"/></g>
<g><path style="opacity:1" fill="#fefefe" d="M 2644.5,2206.5 C 2671.34,2206.17 2698.01,2206.5 2724.5,2207.5C 2707.76,2241.55 2693.26,2276.55 2681,2312.5C 2672.46,2338.24 2669.79,2364.57 2673,2391.5C 2677.82,2411.98 2690.65,2423.82 2711.5,2427C 2725.83,2427.5 2740.16,2427.67 2754.5,2427.5C 2755.5,2354 2755.83,2280.34 2755.5,2206.5C 2780.17,2206.5 2804.83,2206.5 2829.5,2206.5C 2829.5,2301.5 2829.5,2396.5 2829.5,2491.5C 2787.17,2491.5 2744.83,2491.5 2702.5,2491.5C 2636.81,2489.64 2600.97,2455.97 2595,2390.5C 2592.92,2365.16 2594.92,2340.16 2601,2315.5C 2610.91,2277.27 2625.41,2240.93 2644.5,2206.5 Z"/></g>
<g><path style="opacity:1" fill="#fefefe" d="M 3158.5,2206.5 C 3183.5,2206.5 3208.5,2206.5 3233.5,2206.5C 3233.5,2280.17 3233.5,2353.83 3233.5,2427.5C 3266.51,2427.17 3299.51,2427.5 3332.5,2428.5C 3326.43,2449.67 3320.43,2470.84 3314.5,2492C 3262.5,2492.5 3210.5,2492.67 3158.5,2492.5C 3158.5,2397.17 3158.5,2301.83 3158.5,2206.5 Z"/></g>
<g><path style="opacity:1" fill="#06a54f" d="M 2982.5,2266.5 C 2998.52,2265.08 3013.85,2267.58 3028.5,2274C 3038.3,2281.77 3043.8,2291.94 3045,2304.5C 3046.82,2339.24 3040.15,2372.24 3025,2403.5C 3019.95,2412.55 3013.45,2420.38 3005.5,2427C 2995.72,2432.18 2986.38,2431.52 2977.5,2425C 2965.76,2413.24 2957.26,2399.41 2952,2383.5C 2942.47,2355.55 2939.14,2326.89 2942,2297.5C 2944.79,2285.08 2951.95,2276.25 2963.5,2271C 2969.79,2268.68 2976.12,2267.18 2982.5,2266.5 Z"/></g>
<g><path style="opacity:1" fill="#06a54f" d="M 3451.5,2266.5 C 3463.59,2266.09 3475.59,2266.93 3487.5,2269C 3506.03,2274.53 3515.53,2287.03 3516,2306.5C 3518.24,2346.21 3508.91,2382.88 3488,2416.5C 3483.29,2422.56 3477.45,2427.06 3470.5,2430C 3459.8,2431.99 3450.97,2428.82 3444,2420.5C 3433.72,2407.28 3426.06,2392.62 3421,2376.5C 3413.54,2353.41 3410.54,2329.75 3412,2305.5C 3413.27,2294.66 3417.44,2285.16 3424.5,2277C 3432.7,2271.21 3441.7,2267.71 3451.5,2266.5 Z"/></g>
<g><path style="opacity:1" fill="#85d39d" d="M 2167.5,2291.5 C 2142.5,2291.5 2117.5,2291.5 2092.5,2291.5C 2092.83,2306.68 2092.5,2321.68 2091.5,2336.5C 2091.5,2321.17 2091.5,2305.83 2091.5,2290.5C 2117.01,2290.17 2142.34,2290.5 2167.5,2291.5 Z"/></g>
<g><path style="opacity:1" fill="#a7e0b8" d="M 2702.5,2491.5 C 2744.83,2491.5 2787.17,2491.5 2829.5,2491.5C 2829.5,2396.5 2829.5,2301.5 2829.5,2206.5C 2804.83,2206.5 2780.17,2206.5 2755.5,2206.5C 2755.83,2280.34 2755.5,2354 2754.5,2427.5C 2754.5,2353.5 2754.5,2279.5 2754.5,2205.5C 2779.83,2205.5 2805.17,2205.5 2830.5,2205.5C 2830.5,2301.17 2830.5,2396.83 2830.5,2492.5C 2787.66,2492.83 2745,2492.5 2702.5,2491.5 Z"/></g>
<g><path style="opacity:1" fill="#97daab" d="M 2018.5,2334.5 C 2042.48,2336.49 2066.81,2337.16 2091.5,2336.5C 2067.01,2337.5 2042.34,2337.83 2017.5,2337.5C 2017.26,2336.21 2017.6,2335.21 2018.5,2334.5 Z"/></g>
<g><path style="opacity:1" fill="#fdfefd" d="M 1217.5,2427.5 C 1238.5,2427.5 1259.5,2427.5 1280.5,2427.5C 1280.5,2449.17 1280.5,2470.83 1280.5,2492.5C 1259.5,2492.5 1238.5,2492.5 1217.5,2492.5C 1217.5,2470.83 1217.5,2449.17 1217.5,2427.5 Z"/></g>
<g><path style="opacity:1" fill="#fefefe" d="M 1582.5,2427.5 C 1582.5,2448.83 1582.5,2470.17 1582.5,2491.5C 1561.5,2491.5 1540.5,2491.5 1519.5,2491.5C 1519.5,2470.17 1519.5,2448.83 1519.5,2427.5C 1540.5,2427.5 1561.5,2427.5 1582.5,2427.5 Z"/></g>
<g><path style="opacity:1" fill="#a1ddb2" d="M 1582.5,2427.5 C 1583.5,2448.99 1583.83,2470.66 1583.5,2492.5C 1561.99,2492.83 1540.66,2492.5 1519.5,2491.5C 1540.5,2491.5 1561.5,2491.5 1582.5,2491.5C 1582.5,2470.17 1582.5,2448.83 1582.5,2427.5 Z"/></g>
<g><path style="opacity:1" fill="#98daac" d="M 2091.5,2401.5 C 2092.5,2431.33 2092.83,2461.33 2092.5,2491.5C 2117.5,2491.5 2142.5,2491.5 2167.5,2491.5C 2142.34,2492.5 2117.01,2492.83 2091.5,2492.5C 2091.5,2462.17 2091.5,2431.83 2091.5,2401.5 Z"/></g>
<g><path style="opacity:1" fill="#94d9a9" d="M 2219.5,2490.5 C 2252.76,2491.49 2286.09,2491.83 2319.5,2491.5C 2303,2492.17 2286.34,2492.5 2269.5,2492.5C 2252.49,2492.5 2235.82,2491.83 2219.5,2490.5 Z"/></g>
<g><path style="opacity:1" fill="#94d9a9" d="M 2416.5,2490.5 C 2449.76,2491.49 2483.09,2491.83 2516.5,2491.5C 2500,2492.17 2483.34,2492.5 2466.5,2492.5C 2449.49,2492.5 2432.82,2491.83 2416.5,2490.5 Z"/></g>
<g><path style="opacity:1" fill="#253227" d="M 542.5,2621.5 C 1703.5,2623.5 2864.83,2624.17 4026.5,2623.5C 2865,2624.5 1703.33,2624.83 541.5,2624.5C 541.263,2623.21 541.596,2622.21 542.5,2621.5 Z"/></g>
<g><path style="opacity:1" fill="#01a44e" d="M 848.5,2768.5 C 848.833,3173 848.5,3577.33 847.5,3981.5C 752.783,3939.18 666.116,3884.68 587.5,3818C 451.306,3698.45 376.14,3547.95 362,3366.5C 356.485,3277.5 361.818,3189.17 378,3101.5C 400.722,2987.61 434.389,2876.94 479,2769.5C 602.097,2768.5 725.263,2768.17 848.5,2768.5 Z"/></g>
<g><path style="opacity:1" fill="#01a44e" d="M 3042.5,2768.5 C 3043.83,3242.24 3043.83,3716.07 3042.5,4190C 2872.44,4227.34 2702.94,4266.17 2534,4306.5C 2522.24,4265.87 2510.07,4225.37 2497.5,4185C 2675.62,4119.88 2809.45,4003.71 2899,3836.5C 2988.94,3653.97 3001.27,3466.3 2936,3273.5C 2862.37,3080.2 2730.87,2941.7 2541.5,2858C 2368.97,2787.89 2194.64,2783.22 2018.5,2844C 1843.88,2910.29 1712.72,3025.79 1625,3190.5C 1557.69,3324.7 1534.36,3466.36 1555,3615.5C 1587.45,3810.64 1682.28,3967.48 1839.5,4086C 1881.2,4116.36 1925.87,4141.86 1973.5,4162.5C 1964.93,4203.79 1955.26,4244.79 1944.5,4285.5C 1904.87,4275.84 1865.21,4266.34 1825.5,4257C 1703.05,4230.15 1580.72,4202.65 1458.5,4174.5C 1458.5,3705.83 1458.5,3237.17 1458.5,2768.5C 1986.5,2768.5 2514.5,2768.5 3042.5,2768.5 Z"/></g>
<g><path style="opacity:1" fill="#01a44e" d="M 4088.5,2768.5 C 4132.38,2873.98 4165.88,2982.65 4189,3094.5C 4208.34,3196.18 4213,3298.51 4203,3401.5C 4182.16,3565.55 4110.32,3702.39 3987.5,3812C 3921.71,3869.25 3849.71,3917.59 3771.5,3957C 3733.86,3976.16 3695.53,3993.66 3656.5,4009.5C 3655.5,3596 3655.17,3182.33 3655.5,2768.5C 3799.83,2768.5 3944.17,2768.5 4088.5,2768.5 Z"/></g>
<g><path style="opacity:1" fill="#2c7c44" d="M 848.5,2768.5 C 849.167,2970.67 849.5,3173 849.5,3375.5C 849.167,3577.83 848.833,3780.17 848.5,3982.5C 847.893,3982.38 847.56,3982.04 847.5,3981.5C 848.5,3577.33 848.833,3173 848.5,2768.5 Z"/></g>
<g><path style="opacity:1" fill="#fefefe" d="M 2227.5,2848.5 C 2365.95,2843.17 2494.28,2875.83 2612.5,2946.5C 2612.83,2947 2613.17,2947.5 2613.5,2948C 2603.4,3006.11 2593.57,3064.28 2584,3122.5C 2526.57,3123.66 2469.07,3123.83 2411.5,3123C 2329.92,3078.29 2248.42,3033.46 2167,2988.5C 2166.33,2987.17 2166.33,2985.83 2167,2984.5C 2180.7,2939.68 2194.7,2895.02 2209,2850.5C 2215.27,2849.85 2221.43,2849.18 2227.5,2848.5 Z"/></g>
<g><path style="opacity:1" fill="#fdfdfd" d="M 2700.5,3011.5 C 2802.94,3100.35 2871.94,3210.35 2907.5,3341.5C 2866.41,3337.05 2825.41,3331.88 2784.5,3326C 2748.54,3272.59 2712.71,3219.09 2677,3165.5C 2675.52,3162.3 2675.18,3158.96 2676,3155.5C 2684.49,3107.55 2692.66,3059.55 2700.5,3011.5 Z"/></g>
<g><path style="opacity:1" fill="#fefefe" d="M 2085.5,3055.5 C 2086.87,3055.34 2088.21,3055.51 2089.5,3056C 2172.42,3102.29 2255.75,3147.79 2339.5,3192.5C 2343.41,3253 2347.41,3313.5 2351.5,3374C 2351.17,3375.17 2350.83,3376.33 2350.5,3377.5C 2248.15,3441.83 2145.48,3505.33 2042.5,3568C 1999.97,3537.31 1957.31,3506.81 1914.5,3476.5C 1913.33,3462.18 1913.17,3447.84 1914,3433.5C 1917.33,3330.83 1920.67,3228.17 1924,3125.5C 1924.03,3122.63 1924.86,3120.13 1926.5,3118C 1979.94,3097.91 2032.94,3077.07 2085.5,3055.5 Z"/></g>
<g><path style="opacity:1" fill="#fefefe" d="M 1747.5,3088.5 C 1774.13,3101.9 1800.3,3116.23 1826,3131.5C 1823.41,3255.19 1819.74,3378.86 1815,3502.5C 1795.63,3524.2 1776.63,3546.2 1758,3568.5C 1756.28,3570.56 1754.28,3572.22 1752,3573.5C 1699.87,3566.97 1647.7,3560.64 1595.5,3554.5C 1586.83,3379.19 1637.5,3223.86 1747.5,3088.5 Z"/></g>
<g><path style="opacity:1" fill="#fefefe" d="M 2780.5,3423.5 C 2829.55,3428.76 2878.55,3434.42 2927.5,3440.5C 2943.78,3632.12 2890.61,3801.12 2768,3947.5C 2766.28,3949.56 2764.28,3951.22 2762,3952.5C 2725.86,3936.1 2689.86,3919.43 2654,3902.5C 2651.69,3775.84 2650.36,3649.18 2650,3522.5C 2693.68,3489.64 2737.18,3456.64 2780.5,3423.5 Z"/></g>
<g><path style="opacity:1" fill="#fefefe" d="M 2412.5,3452.5 C 2458.94,3478.22 2505.27,3504.22 2551.5,3530.5C 2553.84,3654.82 2555.51,3779.16 2556.5,3903.5C 2507.52,3925.07 2458.69,3947.07 2410,3969.5C 2308.68,3908.68 2207.68,3847.34 2107,3785.5C 2104.01,3742.16 2100.85,3698.82 2097.5,3655.5C 2097.83,3652.83 2098.17,3650.17 2098.5,3647.5C 2203.23,3582.47 2307.9,3517.47 2412.5,3452.5 Z"/></g>
<g><path style="opacity:1" fill="#295b37" d="M 4088.5,2768.5 C 3944.17,2768.5 3799.83,2768.5 3655.5,2768.5C 3655.17,3182.33 3655.5,3596 3656.5,4009.5C 3656.44,4010.04 3656.11,4010.38 3655.5,4010.5C 3654.5,3596.17 3654.17,3181.83 3654.5,2767.5C 3799.33,2767.17 3944,2767.5 4088.5,2768.5 Z"/></g>
<g><path style="opacity:1" fill="#2b6a3d" d="M 3042.5,2768.5 C 2514.5,2768.5 1986.5,2768.5 1458.5,2768.5C 1458.5,3237.17 1458.5,3705.83 1458.5,4174.5C 1457.5,3705.67 1457.17,3236.67 1457.5,2767.5C 1986,2767.17 2514.33,2767.5 3042.5,2768.5 Z"/></g>
<g><path style="opacity:1" fill="#fefefe" d="M 1609.5,3654.5 C 1610.79,3653.84 1612.29,3653.51 1614,3653.5C 1653.45,3658.6 1692.95,3663.44 1732.5,3668C 1774.12,3732.08 1815.62,3796.25 1857,3860.5C 1845.69,3910.24 1833.19,3959.74 1819.5,4009C 1818.83,4009.67 1818.17,4009.67 1817.5,4009C 1711.22,3912.62 1641.89,3794.45 1609.5,3654.5 Z"/></g>
<g><path style="opacity:1" fill="#fefefe" d="M 2048.5,3866.5 C 2051.32,3866.25 2053.99,3866.75 2056.5,3868C 2159.17,3930.33 2261.83,3992.67 2364.5,4055C 2365.15,4058.08 2365.48,4061.25 2365.5,4064.5C 2363.74,4099.85 2361.74,4135.19 2359.5,4170.5C 2196.94,4192.39 2045.94,4160.72 1906.5,4075.5C 1904.66,4073.47 1904.16,4071.14 1905,4068.5C 1920.64,4007.6 1936.14,3946.6 1951.5,3885.5C 1983.98,3879.27 2016.31,3872.94 2048.5,3866.5 Z"/></g>
</svg>
