<?xml version="1.0" encoding="UTF-8"?>
<!DOCTYPE svg PUBLIC "-//W3C//DTD SVG 1.1//EN" "http://www.w3.org/Graphics/SVG/1.1/DTD/svg11.dtd">
<svg xmlns="http://www.w3.org/2000/svg" version="1.1" width="1200px" height="1200px" style="shape-rendering:geometricPrecision; text-rendering:geometricPrecision; image-rendering:optimizeQuality; fill-rule:evenodd; clip-rule:evenodd" xmlns:xlink="http://www.w3.org/1999/xlink">
<g><path style="opacity:0.952" fill="#8b7c36" d="M 551.5,11.5 C 570.472,10.9734 580.805,20.14 582.5,39C 582.39,48.3845 578.89,56.2178 572,62.5C 569.926,64.4521 567.759,66.2854 565.5,68C 575.193,75.0216 582.693,83.8549 588,94.5C 592.494,107.447 590.827,119.447 583,130.5C 572,139.749 559.834,141.583 546.5,136C 536.382,129.267 531.382,119.767 531.5,107.5C 531.936,101.544 533.436,95.8775 536,90.5C 539.453,85.3788 543.286,80.5455 547.5,76C 537.268,68.1242 530.768,57.9575 528,45.5C 526.699,27.7472 534.533,16.4139 551.5,11.5 Z M 552.5,18.5 C 561.842,18.7569 567.675,23.4236 570,32.5C 572.668,45.1655 569.002,55.4989 559,63.5C 550.9,58.3006 544.9,51.3006 541,42.5C 537.729,30.7139 541.563,22.7139 552.5,18.5 Z M 552.5,81.5 C 562.52,86.4389 570.353,93.7722 576,103.5C 578.274,111.315 577.941,118.982 575,126.5C 566.293,134.795 557.959,134.461 550,125.5C 542.037,110.248 542.87,95.5812 552.5,81.5 Z"/></g>
<g><path style="opacity:0.954" fill="#8b7c36" d="M 634.5,12.5 C 649.893,11.4471 660.393,18.1138 666,32.5C 675.643,64.3128 670.31,93.3128 650,119.5C 637.767,132.801 622.6,139.301 604.5,139C 603.62,137.644 603.286,136.144 603.5,134.5C 620.208,132.067 633.041,123.734 642,109.5C 645.835,103.168 649.001,96.5015 651.5,89.5C 623.623,100.52 608.623,90.6862 606.5,60C 606.16,44.0044 611.493,30.3377 622.5,19C 626.147,16.0127 630.147,13.8461 634.5,12.5 Z M 636.5,19.5 C 642.185,18.8929 646.685,20.8929 650,25.5C 654.608,34.0993 656.441,43.2659 655.5,53C 655.7,61.6206 654.867,70.1206 653,78.5C 643.421,88.0168 634.421,87.6835 626,77.5C 621.391,62.198 621.391,46.8647 626,31.5C 627.991,26.0196 631.491,22.0196 636.5,19.5 Z"/></g>
<g><path style="opacity:0.951" fill="#8b7c36" d="M 474.5,23.5 C 475.79,24.0577 476.623,25.0577 477,26.5C 484.746,63.2282 492.746,99.8949 501,136.5C 501.833,137.333 502.667,138.167 503.5,139C 507.5,139.333 511.5,139.667 515.5,140C 516.337,141.011 516.67,142.178 516.5,143.5C 502.572,146.552 488.572,149.219 474.5,151.5C 474.33,150.178 474.663,149.011 475.5,148C 478.912,146.545 482.079,144.712 485,142.5C 485.167,140.5 485.333,138.5 485.5,136.5C 479.787,105.765 473.12,75.2651 465.5,45C 463.833,44.3333 462.167,44.3333 460.5,45C 457.714,47.0596 454.714,48.5596 451.5,49.5C 451.351,48.448 451.517,47.448 452,46.5C 459.702,38.9649 467.202,31.2983 474.5,23.5 Z"/></g>
<g><path style="opacity:0.955" fill="#8b7c36" d="M 741.5,30.5 C 747.623,30.1766 753.623,30.8432 759.5,32.5C 760.246,33.7362 760.579,35.0695 760.5,36.5C 742.838,35.7477 728.671,42.4144 718,56.5C 713.797,61.738 709.964,67.238 706.5,73C 730.295,67.1142 743.295,76.4475 745.5,101C 744.92,122.511 735.586,138.844 717.5,150C 706.246,153.888 696.746,151.388 689,142.5C 680.975,130.698 677.975,117.698 680,103.5C 684.176,65.019 704.676,40.6856 741.5,30.5 Z M 706.5,79.5 C 722.651,78.8184 730.317,86.6517 729.5,103C 729.368,117.738 724.701,130.738 715.5,142C 705.981,146.995 699.148,144.495 695,134.5C 692.097,118.784 693.43,103.451 699,88.5C 700.642,84.6997 703.142,81.6997 706.5,79.5 Z"/></g>
<g><path style="opacity:0.979" fill="#8b7c36" d="M 384.5,42.5 C 385.675,42.281 386.675,42.6143 387.5,43.5C 363.776,81.4258 336.776,116.926 306.5,150C 303.672,152.248 300.672,154.248 297.5,156C 295.167,156.667 292.833,156.667 290.5,156C 288.975,152.34 287.975,148.507 287.5,144.5C 291.376,116.247 304.043,92.7474 325.5,74C 342.961,59.2707 362.628,48.7707 384.5,42.5 Z"/></g>
<g><path style="opacity:0.979" fill="#8b7c36" d="M 810.5,43.5 C 810.917,42.8761 811.584,42.5427 812.5,42.5C 858.203,54.3799 890.037,82.0465 908,125.5C 909.691,131.754 910.857,138.088 911.5,144.5C 911.964,157.071 906.964,159.904 896.5,153C 888.333,146.167 880.833,138.667 874,130.5C 851.424,102.439 830.257,73.4395 810.5,43.5 Z"/></g>
<g><path style="opacity:0.972" fill="#8b7c36" d="M 276.5,79.5 C 277.5,79.5 278.5,79.5 279.5,79.5C 279.167,120.497 272.667,160.497 260,199.5C 258.667,202.167 257.333,204.833 256,207.5C 253.733,208.935 251.733,208.602 250,206.5C 244.264,198.362 240.764,189.362 239.5,179.5C 246.695,144.247 259.028,110.913 276.5,79.5 Z"/></g>
<g><path style="opacity:0.974" fill="#8b7c36" d="M 919.5,79.5 C 921.017,79.5106 922.184,80.1772 923,81.5C 939.009,110.197 950.675,140.53 958,172.5C 959.692,185.067 956.692,196.4 949,206.5C 947.267,208.602 945.267,208.935 943,207.5C 936.339,193.873 931.673,179.54 929,164.5C 922.397,136.466 919.231,108.133 919.5,79.5 Z"/></g>
<g><path style="opacity:0.98" fill="#8b7c36" d="M 803.5,84.5 C 832.669,108.832 862.002,132.999 891.5,157C 901.637,166.136 911.47,175.636 921,185.5C 934.858,205.738 943.192,228.072 946,252.5C 910.31,218.466 873.143,186.299 834.5,156C 815.551,136.014 805.218,112.181 803.5,84.5 Z"/></g>
<g><path style="opacity:0.979" fill="#8b7c36" d="M 394.5,84.5 C 393.872,107.546 386.706,128.546 373,147.5C 369.833,150.667 366.667,153.833 363.5,157C 348.211,168.62 333.211,180.62 318.5,193C 296.667,212.833 274.833,232.667 253,252.5C 255.946,227.326 264.613,204.326 279,183.5C 290.867,171.965 303.033,160.798 315.5,150C 342.023,128.302 368.357,106.469 394.5,84.5 Z"/></g>
<g><path style="opacity:0.975" fill="#8b7c36" d="M 200.5,157.5 C 201.5,157.5 202.5,157.5 203.5,157.5C 204.957,178.047 201.457,197.713 193,216.5C 183.689,238.476 171.856,258.809 157.5,277.5C 154.517,250.866 157.684,224.866 167,199.5C 173.276,181.412 184.443,167.412 200.5,157.5 Z"/></g>
<g><path style="opacity:0.976" fill="#8b7c36" d="M 996.5,157.5 C 1004.04,160.538 1010.54,165.205 1016,171.5C 1026.2,184.564 1033.2,199.231 1037,215.5C 1040.77,231.787 1042.93,248.287 1043.5,265C 1043.67,269.331 1043,273.498 1041.5,277.5C 1019.12,249.072 1003.96,217.072 996,181.5C 995.2,173.421 995.367,165.421 996.5,157.5 Z"/></g>
<g><path style="opacity:0.996" fill="#7f7f7f" d="M 929.5,834.5 C 886.444,776.746 843.61,718.746 801,660.5C 795.701,653.508 790.201,646.841 784.5,640.5C 784.5,640.167 784.5,639.833 784.5,639.5C 785.843,555.67 786.509,471.67 786.5,387.5C 724.167,387.5 661.833,387.5 599.5,387.5C 599.167,387.5 598.833,387.5 598.5,387.5C 536.5,387.5 474.5,387.5 412.5,387.5C 411.836,471.507 412.503,555.173 414.5,638.5C 414.167,639.167 413.833,639.833 413.5,640.5C 369.866,698.409 326.7,756.743 284,815.5C 278.969,822.022 273.803,828.356 268.5,834.5C 210.528,759.614 181.195,674.447 180.5,579C 182.69,454.322 229.357,349.989 320.5,266C 426.412,176.099 548.079,143.766 685.5,169C 821.92,201.257 920.42,280.424 981,406.5C 1021.49,499.674 1028.49,595.341 1002,693.5C 987.242,745.69 963.076,792.69 929.5,834.5 Z"/></g>
<g><path style="opacity:0.981" fill="#8b7c36" d="M 974.5,193.5 C 976.074,193.937 977.241,194.937 978,196.5C 988.582,217.345 1000.92,237.012 1015,255.5C 1034.28,293.294 1045.78,333.294 1049.5,375.5C 1049.78,380.119 1048.95,384.452 1047,388.5C 1036.75,375.009 1027.75,360.676 1020,345.5C 993.498,310.811 976.498,271.811 969,228.5C 968.333,220.833 968.333,213.167 969,205.5C 970.037,201.095 971.871,197.095 974.5,193.5 Z"/></g>
<g><path style="opacity:0.979" fill="#8b7c36" d="M 222.5,193.5 C 224.017,193.511 225.184,194.177 226,195.5C 229.843,201.974 231.343,208.974 230.5,216.5C 226.047,261.718 210.213,302.384 183,338.5C 175.252,352.331 167.252,365.998 159,379.5C 156.966,382.909 154.466,385.909 151.5,388.5C 150.808,387.975 150.308,387.308 150,386.5C 148.397,365.72 150.73,345.386 157,325.5C 164.234,301.461 173.234,278.127 184,255.5C 198.609,235.952 211.442,215.285 222.5,193.5 Z"/></g>
<g><path style="opacity:1" fill="#fafafa" d="M 688.5,195.5 C 697.112,194.795 705.445,195.962 713.5,199C 717.722,202.066 722.056,204.899 726.5,207.5C 729.314,207.019 730.648,205.352 730.5,202.5C 731.5,202.5 732.5,202.5 733.5,202.5C 731.686,214.194 729.686,225.861 727.5,237.5C 726.5,237.5 725.5,237.5 724.5,237.5C 726.651,225.919 723.985,215.752 716.5,207C 700.653,196.49 687.486,199.323 677,215.5C 665.941,235.463 661.274,256.797 663,279.5C 668.538,295.359 679.704,302.192 696.5,300C 703.338,296.829 709.338,292.495 714.5,287C 715.483,286.409 716.15,286.743 716.5,288C 704.201,304.657 688.534,308.991 669.5,301C 656.388,293.631 648.554,282.465 646,267.5C 643.87,239.847 653.703,217.68 675.5,201C 679.717,198.549 684.05,196.715 688.5,195.5 Z"/></g>
<g><path style="opacity:1" fill="#fafafa" d="M 599.5,201.5 C 605.833,201.5 612.167,201.5 618.5,201.5C 619.353,207.856 619.353,214.19 618.5,220.5C 617.593,215.519 615.26,211.352 611.5,208C 602.173,207.5 592.839,207.334 583.5,207.5C 584,219.161 584.333,230.827 584.5,242.5C 591.921,242.891 599.254,242.391 606.5,241C 610.506,237.821 612.506,233.655 612.5,228.5C 614.106,238.773 615.106,249.107 615.5,259.5C 614.5,259.5 613.5,259.5 612.5,259.5C 613.204,255.197 611.87,251.697 608.5,249C 600.841,248.5 593.174,248.334 585.5,248.5C 585.27,261.235 586.103,273.902 588,286.5C 595.42,287.647 602.92,287.813 610.5,287C 615.239,285.881 619.072,283.381 622,279.5C 623.306,275.554 625.139,271.888 627.5,268.5C 627.833,269.167 628.167,269.833 628.5,270.5C 626.358,277.401 624.691,284.401 623.5,291.5C 605.84,292.533 588.173,293.533 570.5,294.5C 568.167,294.167 565.833,293.833 563.5,293.5C 565.942,292.006 568.609,291.006 571.5,290.5C 572.333,289.5 573.167,288.5 574,287.5C 573.738,261.789 572.405,236.123 570,210.5C 569.626,209.584 569.126,208.75 568.5,208C 565.182,207.121 561.848,206.287 558.5,205.5C 558.709,204.914 559.043,204.414 559.5,204C 572.99,203.153 586.323,202.319 599.5,201.5 Z"/></g>
<g><path style="opacity:0.973" fill="#8b7c36" d="M 361.5,207.5 C 362.5,207.5 363.5,207.5 364.5,207.5C 364.649,208.552 364.483,209.552 364,210.5C 347.938,226.238 330.438,240.071 311.5,252C 291.963,262.96 271.297,270.127 249.5,273.5C 275.795,233.011 313.129,211.011 361.5,207.5 Z"/></g>
<g><path style="opacity:1" fill="#fbfbfb" d="M 531.5,208.5 C 533.776,208.756 534.943,210.09 535,212.5C 536.598,220.06 538.432,227.56 540.5,235C 540.167,235.833 539.833,236.667 539.5,237.5C 536.558,229.428 531.225,223.595 523.5,220C 509.36,215.957 502.527,221.124 503,235.5C 505.5,240.667 509.333,244.5 514.5,247C 524.281,250.724 533.948,254.724 543.5,259C 556.925,269.92 559.091,282.753 550,297.5C 546.547,301.145 542.38,303.645 537.5,305C 530.167,305.333 522.833,305.667 515.5,306C 514.95,307.845 513.95,309.345 512.5,310.5C 508.391,301.072 506.058,291.406 505.5,281.5C 508.884,287.08 512.884,292.246 517.5,297C 523.796,300.785 530.462,301.452 537.5,299C 539.624,297.878 541.457,296.378 543,294.5C 546.927,284.499 544.427,276.666 535.5,271C 525.048,266.608 514.715,261.941 504.5,257C 494.372,249.568 490.872,239.735 494,227.5C 497.29,220.879 502.457,216.379 509.5,214C 515.849,213.725 522.182,213.725 528.5,214C 530.607,212.736 531.607,210.903 531.5,208.5 Z"/></g>
<g><path style="opacity:0.972" fill="#8b7c36" d="M 833.5,209.5 C 856.463,208.302 878.129,213.468 898.5,225C 919.876,236.542 936.876,252.709 949.5,273.5C 918.83,268.835 891.163,257.002 866.5,238C 855.038,229.038 844.038,219.538 833.5,209.5 Z"/></g>
<g><path style="opacity:0.973" fill="#8b7c36" d="M 123.5,220.5 C 124.496,220.414 125.329,220.748 126,221.5C 133.703,243.976 139.036,266.976 142,290.5C 142.833,308.842 142.666,327.176 141.5,345.5C 135.822,341.134 131.322,335.8 128,329.5C 119.017,313.55 113.017,296.55 110,278.5C 109.426,265.454 111.426,252.787 116,240.5C 118.409,233.771 120.909,227.104 123.5,220.5 Z"/></g>
<g><path style="opacity:0.971" fill="#8b7c36" d="M 1072.5,220.5 C 1074.41,220.574 1075.58,221.574 1076,223.5C 1084.93,242.205 1088.93,261.871 1088,282.5C 1084.52,301.613 1077.52,319.28 1067,335.5C 1064.37,339.132 1061.37,342.465 1058,345.5C 1056.85,336.824 1056.35,327.99 1056.5,319C 1055.91,300.319 1057.41,281.819 1061,263.5C 1064.94,249.177 1068.78,234.844 1072.5,220.5 Z"/></g>
<g><path style="opacity:1" fill="#fafafa" d="M 457.5,233.5 C 458.376,233.369 459.043,233.702 459.5,234.5C 462.082,239.333 464.915,244 468,248.5C 468.563,249.725 468.23,250.725 467,251.5C 464.42,246.584 460.42,243.584 455,242.5C 445.958,245.104 437.458,248.937 429.5,254C 434.771,263.876 439.771,273.876 444.5,284C 452.14,282.263 458.973,278.763 465,273.5C 465.852,269.482 465.352,265.649 463.5,262C 463.833,261.5 464.167,261 464.5,260.5C 469.159,267.812 473.326,275.479 477,283.5C 477.991,285.447 478.325,287.447 478,289.5C 476.188,286.72 474.021,284.22 471.5,282C 468.833,281.333 466.167,281.333 463.5,282C 457.921,284.296 452.588,286.963 447.5,290C 452.69,300.879 458.023,311.713 463.5,322.5C 465.421,323.641 467.421,323.808 469.5,323C 476.276,320.446 482.609,317.113 488.5,313C 490.377,310.749 491.877,308.249 493,305.5C 493.172,300.798 493.672,296.132 494.5,291.5C 495.192,292.025 495.692,292.692 496,293.5C 497.785,300.798 498.285,308.131 497.5,315.5C 480.167,323.833 462.833,332.167 445.5,340.5C 444.479,339.998 444.312,339.332 445,338.5C 448.508,336.835 450.674,334.168 451.5,330.5C 441.692,306.549 430.525,283.215 418,260.5C 413.885,259.615 409.718,259.448 405.5,260C 422.77,250.866 440.103,242.033 457.5,233.5 Z"/></g>
<g><path style="opacity:1" fill="#fafafa" d="M 790.5,248.5 C 791.586,248.62 792.253,249.287 792.5,250.5C 786.761,277.602 780.594,304.602 774,331.5C 772.228,337.467 773.728,342.301 778.5,346C 777.833,346.167 777.167,346.333 776.5,346.5C 767.928,341.935 759.595,336.935 751.5,331.5C 754.057,331.218 756.723,331.051 759.5,331C 763.21,324.176 765.544,316.843 766.5,309C 766.241,307.739 765.574,306.739 764.5,306C 759.334,303.252 754.334,300.252 749.5,297C 748.5,296.333 747.5,296.333 746.5,297C 741.032,301.467 735.865,306.3 731,311.5C 730.434,314.979 731.767,317.645 735,319.5C 735.688,320.332 735.521,320.998 734.5,321.5C 727.502,318.003 720.835,314.003 714.5,309.5C 717.785,308.676 721.118,308.176 724.5,308C 726.833,306.333 729.167,304.667 731.5,303C 751.24,284.817 770.907,266.65 790.5,248.5 Z"/></g>
<g><path style="opacity:1" fill="#828282" d="M 773.5,271.5 C 774.376,271.369 775.043,271.702 775.5,272.5C 772.991,282.204 770.324,291.871 767.5,301.5C 761.947,298.898 756.947,295.564 752.5,291.5C 759.52,284.812 766.52,278.145 773.5,271.5 Z"/></g>
<g><path style="opacity:1" fill="#fafafa" d="M 382.5,272.5 C 383.097,272.735 383.43,273.235 383.5,274C 381.041,276.747 380.208,279.914 381,283.5C 399.314,304.648 417.814,325.648 436.5,346.5C 432.52,347.344 428.52,347.177 424.5,346C 400.374,340.291 376.208,334.791 352,329.5C 351.5,329.833 351,330.167 350.5,330.5C 363.948,346.117 377.948,361.284 392.5,376C 397.229,377.256 401.229,376.089 404.5,372.5C 404.833,372.833 405.167,373.167 405.5,373.5C 399.157,379.842 392.491,385.842 385.5,391.5C 385.167,391.167 384.833,390.833 384.5,390.5C 386.102,388.292 387.436,385.959 388.5,383.5C 388.281,382.062 387.781,380.729 387,379.5C 371.685,362.018 356.185,344.684 340.5,327.5C 335.293,324.859 330.127,324.859 325,327.5C 324.5,327.167 324,326.833 323.5,326.5C 327.791,322.342 332.125,318.176 336.5,314C 337.667,313.833 338.833,313.667 340,313.5C 364.335,319.167 388.668,324.834 413,330.5C 413.5,330.167 414,329.833 414.5,329.5C 402.386,315.217 389.72,301.384 376.5,288C 372.018,286.989 368.184,288.156 365,291.5C 364.333,290.5 364.333,289.5 365,288.5C 371.029,283.301 376.862,277.967 382.5,272.5 Z"/></g>
<g><path style="opacity:1" fill="#fbfbfb" d="M 848.5,287.5 C 850.932,288.75 853.266,290.25 855.5,292C 862.65,297.983 869.317,304.483 875.5,311.5C 875.167,311.833 874.833,312.167 874.5,312.5C 871.562,309.031 867.896,307.864 863.5,309C 846.297,327.201 829.464,345.701 813,364.5C 812.333,365.833 812.333,367.167 813,368.5C 818.289,374.796 824.456,379.962 831.5,384C 838.801,384.792 845.634,383.292 852,379.5C 852.5,379.833 853,380.167 853.5,380.5C 847.073,385.464 840.239,389.798 833,393.5C 818.039,381.04 803.539,368.04 789.5,354.5C 789.833,354.167 790.167,353.833 790.5,353.5C 792.945,355.278 795.611,356.611 798.5,357.5C 799.938,357.281 801.271,356.781 802.5,356C 820.075,337.762 836.908,318.929 853,299.5C 853.667,297.833 853.667,296.167 853,294.5C 851.25,292.266 849.75,289.932 848.5,287.5 Z"/></g>
<g><path style="opacity:0.972" fill="#8b7c36" d="M 68.5,300.5 C 76.9901,300.487 81.4901,304.82 82,313.5C 84.9778,334.776 85.3111,356.109 83,377.5C 81.5975,394.859 79.9308,412.192 78,429.5C 77.8295,431.715 77.1628,433.715 76,435.5C 68.3416,408.209 62.3416,380.543 58,352.5C 55.8937,335.478 58.227,319.145 65,303.5C 66.1451,302.364 67.3117,301.364 68.5,300.5 Z"/></g>
<g><path style="opacity:0.971" fill="#8b7c36" d="M 1123.5,300.5 C 1129.35,299.84 1133.51,302.173 1136,307.5C 1141.86,326.23 1142.86,345.23 1139,364.5C 1134.95,388.587 1129.45,412.254 1122.5,435.5C 1118.15,404.763 1115.15,373.93 1113.5,343C 1114.2,332.503 1115.37,322.003 1117,311.5C 1118.16,307.178 1120.32,303.511 1123.5,300.5 Z"/></g>
<g><path style="opacity:0.97" fill="#8b7c36" d="M 232.5,318.5 C 233.693,318.97 234.36,319.97 234.5,321.5C 230.432,341.636 221.599,359.302 208,374.5C 190.879,393.468 171.046,408.801 148.5,420.5C 147.417,419.635 147.251,418.635 148,417.5C 161.46,390.415 178.96,366.248 200.5,345C 210.773,335.548 221.44,326.715 232.5,318.5 Z"/></g>
<g><path style="opacity:0.969" fill="#8b7c36" d="M 963.5,318.5 C 991.689,335.854 1014.86,358.521 1033,386.5C 1039.67,397.177 1045.84,408.177 1051.5,419.5C 1050.64,420.583 1049.64,420.749 1048.5,420C 1021.03,405.533 998.198,385.7 980,360.5C 971.428,347.693 965.928,333.693 963.5,318.5 Z"/></g>
<g><path style="opacity:0.979" fill="#8b7c36" d="M 108.5,338.5 C 109.496,338.414 110.329,338.748 111,339.5C 123.682,358.889 129.515,380.223 128.5,403.5C 128.499,411.535 127.999,419.535 127,427.5C 122.341,454.451 118.008,481.451 114,508.5C 112.396,522.834 112.229,537.167 113.5,551.5C 113.444,552.737 112.944,553.737 112,554.5C 100.035,539.963 92.702,523.296 90,504.5C 88.3354,471.771 89.3354,439.105 93,406.5C 97.853,383.755 103.02,361.088 108.5,338.5 Z"/></g>
<g><path style="opacity:0.98" fill="#8b7c36" d="M 1088.5,338.5 C 1089.97,339.347 1090.8,340.68 1091,342.5C 1095.67,361.172 1100.33,379.838 1105,398.5C 1109.75,434.055 1111.08,469.722 1109,505.5C 1105.87,522.748 1099.2,538.415 1089,552.5C 1087.99,553.337 1086.82,553.67 1085.5,553.5C 1086.89,538.489 1086.72,523.489 1085,508.5C 1081.54,484.08 1077.54,459.747 1073,435.5C 1068.02,410.59 1069.02,385.923 1076,361.5C 1079.15,353.198 1083.31,345.532 1088.5,338.5 Z"/></g>
<g><path style="opacity:1" fill="#fbfbfb" d="M 313.5,343.5 C 314.376,343.369 315.043,343.702 315.5,344.5C 312.172,347.755 311.339,351.422 313,355.5C 332.872,371.85 353.372,387.35 374.5,402C 375.833,402.667 377.167,402.667 378.5,402C 380.167,400.333 381.833,398.667 383.5,397C 384.332,396.312 384.998,396.479 385.5,397.5C 379.246,407.254 372.413,416.588 365,425.5C 364.5,425 364,424.5 363.5,424C 366.097,420.912 366.931,417.412 366,413.5C 345.951,396.235 324.784,380.569 302.5,366.5C 299.326,367.339 296.659,369.005 294.5,371.5C 294.167,371.167 293.833,370.833 293.5,370.5C 299.932,361.292 306.599,352.292 313.5,343.5 Z"/></g>
<g><path style="opacity:1" fill="#f9f9f9" d="M 891.5,367.5 C 907.069,365.007 920.235,369.341 931,380.5C 935.798,387.018 938.131,394.351 938,402.5C 940.473,403.12 942.973,403.786 945.5,404.5C 937.947,410.197 930.113,415.531 922,420.5C 920.743,420.15 920.409,419.483 921,418.5C 931.136,410.758 934.47,400.758 931,388.5C 924.36,378.726 915.193,375.226 903.5,378C 886.336,383.494 871.502,392.66 859,405.5C 851.014,419.584 853.514,431.417 866.5,441C 872.3,443.151 878.3,443.984 884.5,443.5C 884.5,444.5 884.5,445.5 884.5,446.5C 857.759,446.591 845.259,433.258 847,406.5C 851.251,393.153 859.418,382.986 871.5,376C 877.92,372.282 884.586,369.449 891.5,367.5 Z"/></g>
<g><path style="opacity:1" fill="#fefefe" d="M 598.5,387.5 C 537.191,471.148 475.858,554.815 414.5,638.5C 412.503,555.173 411.836,471.507 412.5,387.5C 474.5,387.5 536.5,387.5 598.5,387.5 Z"/></g>
<g><path style="opacity:1" fill="#fefefe" d="M 599.5,387.5 C 661.833,387.5 724.167,387.5 786.5,387.5C 786.509,471.67 785.843,555.67 784.5,639.5C 722.833,555.5 661.167,471.5 599.5,387.5 Z"/></g>
<g><path style="opacity:1" fill="#000000" d="M 598.5,387.5 C 598.833,387.5 599.167,387.5 599.5,387.5C 661.167,471.5 722.833,555.5 784.5,639.5C 784.5,639.833 784.5,640.167 784.5,640.5C 780.334,677.997 769.334,713.33 751.5,746.5C 700.601,678.383 649.935,610.05 599.5,541.5C 548.601,609.617 497.935,677.95 447.5,746.5C 429.174,713.518 417.84,678.184 413.5,640.5C 413.833,639.833 414.167,639.167 414.5,638.5C 475.858,554.815 537.191,471.148 598.5,387.5 Z"/></g>
<g><path style="opacity:0.974" fill="#8b7c36" d="M 33.5,396.5 C 50.3012,415.072 62.8012,436.405 71,460.5C 77.2688,481.882 81.4355,503.549 83.5,525.5C 65.8425,500.205 49.6758,473.872 35,446.5C 29.5077,429.947 29.0077,413.281 33.5,396.5 Z"/></g>
<g><path style="opacity:1" fill="#fbfbfb" d="M 292.5,397.5 C 311.565,395.908 327.731,401.908 341,415.5C 349.991,426.8 352.657,439.467 349,453.5C 343.285,467.263 336.785,480.596 329.5,493.5C 329.167,493 328.833,492.5 328.5,492C 331.809,487.254 331.143,483.254 326.5,480C 304.806,468.821 282.806,458.154 260.5,448C 259.167,447.333 257.833,447.333 256.5,448C 253.96,450.205 251.793,452.705 250,455.5C 249.5,455 249,454.5 248.5,454C 255.094,439.311 262.594,425.144 271,411.5C 277.201,405.162 284.368,400.495 292.5,397.5 Z"/></g>
<g><path style="opacity:0.973" fill="#8b7c36" d="M 1164.5,396.5 C 1165.97,397.347 1166.8,398.68 1167,400.5C 1169.69,416.104 1168.69,431.437 1164,446.5C 1149.19,473.623 1133.19,499.956 1116,525.5C 1117.84,477.139 1134.01,434.139 1164.5,396.5 Z"/></g>
<g><path style="opacity:1" fill="#7f7f7f" d="M 284.5,410.5 C 306.198,409.121 324.365,416.454 339,432.5C 346.924,444.919 346.09,456.752 336.5,468C 334.087,468.484 331.754,468.15 329.5,467C 308.102,456.884 286.935,446.384 266,435.5C 266.137,427.062 269.637,420.229 276.5,415C 279.191,413.395 281.858,411.895 284.5,410.5 Z"/></g>
<g><path style="opacity:1" fill="#fbfbfb" d="M 950.5,423.5 C 951.376,423.369 952.043,423.702 952.5,424.5C 957.272,433.711 961.772,443.045 966,452.5C 966.749,453.635 966.583,454.635 965.5,455.5C 963.973,453.807 962.64,451.973 961.5,450C 960.127,449.125 958.627,448.625 957,448.5C 933.266,458.45 910.099,469.617 887.5,482C 885.124,485.574 885.124,489.241 887.5,493C 887.167,493.5 886.833,494 886.5,494.5C 880.911,484.323 875.578,473.99 870.5,463.5C 871.002,462.479 871.668,462.312 872.5,463C 873.928,465.185 875.595,467.185 877.5,469C 879.167,469.667 880.833,469.667 882.5,469C 905.97,458.682 928.804,447.182 951,434.5C 951.45,430.812 951.283,427.146 950.5,423.5 Z"/></g>
<g><path style="opacity:0.979" fill="#8b7c36" d="M 160.5,451.5 C 161.5,451.5 162.5,451.5 163.5,451.5C 168.409,492.636 162.909,532.303 147,570.5C 144.921,574.993 142.588,579.326 140,583.5C 137.888,586.284 135.221,588.284 132,589.5C 130.347,589.18 129.347,588.18 129,586.5C 124.564,537.916 135.064,492.916 160.5,451.5 Z"/></g>
<g><path style="opacity:0.973" fill="#8b7c36" d="M 1036.5,451.5 C 1038.78,452.957 1040.62,454.957 1042,457.5C 1064.95,497.929 1073.95,541.262 1069,587.5C 1065.55,589.988 1062.55,589.322 1060,585.5C 1049.05,567.252 1041.72,547.585 1038,526.5C 1032.88,501.508 1032.38,476.508 1036.5,451.5 Z"/></g>
<g><path style="opacity:1" fill="#f9f9f9" d="M 225.5,463.5 C 226.496,463.414 227.329,463.748 228,464.5C 227.262,469.717 229.095,473.55 233.5,476C 255.035,480.401 276.701,484.067 298.5,487C 319.906,492.088 329.073,505.588 326,527.5C 322.804,546.535 311.637,556.535 292.5,557.5C 269.137,554.384 245.804,551.051 222.5,547.5C 216.915,548.418 213.582,551.751 212.5,557.5C 211.343,554.216 211.176,550.882 212,547.5C 213.143,537.65 214.976,527.984 217.5,518.5C 218.086,518.709 218.586,519.043 219,519.5C 218.056,525.463 220.223,529.63 225.5,532C 246.395,535.979 267.395,539.312 288.5,542C 312.946,545.554 323.446,535.054 320,510.5C 315.614,500.717 308.114,494.884 297.5,493C 276.183,489.693 254.85,486.526 233.5,483.5C 231.44,483.572 229.44,483.905 227.5,484.5C 225.274,487.164 223.608,490.164 222.5,493.5C 222.167,492 221.833,490.5 221.5,489C 222.673,480.463 224.006,471.963 225.5,463.5 Z"/></g>
<g><path style="opacity:1" fill="#fbfbfb" d="M 933.5,482.5 C 950.278,479.647 964.778,483.981 977,495.5C 988.655,518.871 982.822,536.705 959.5,549C 945.683,555.033 931.349,557.033 916.5,555C 895.932,548.714 887.432,534.881 891,513.5C 895.775,502.392 903.609,494.225 914.5,489C 920.846,486.497 927.179,484.33 933.5,482.5 Z"/></g>
<g><path style="opacity:1" fill="#808080" d="M 945.5,495.5 C 952.175,495.334 958.842,495.5 965.5,496C 979.493,502.807 982.159,512.64 973.5,525.5C 968.448,529.695 962.781,532.861 956.5,535C 945.985,538.295 935.318,540.962 924.5,543C 914.166,545.378 905.332,542.878 898,535.5C 891.981,525.301 893.814,516.801 903.5,510C 907.007,507.746 910.673,505.746 914.5,504C 924.748,500.358 935.081,497.524 945.5,495.5 Z"/></g>
<g><path style="opacity:0.979" fill="#8b7c36" d="M 54.5,534.5 C 60.5686,535.023 66.2352,536.856 71.5,540C 83.0889,548.254 92.5889,558.421 100,570.5C 110.507,586.013 117.507,603.013 121,621.5C 126.572,656.619 134.738,691.119 145.5,725C 145.167,725.5 144.833,726 144.5,726.5C 114.562,702.37 94.3951,671.703 84,634.5C 75.4049,600.783 65.5716,567.45 54.5,534.5 Z"/></g>
<g><path style="opacity:0.98" fill="#8b7c36" d="M 1139.5,534.5 C 1141.29,534.215 1142.95,534.548 1144.5,535.5C 1133.49,566.377 1123.99,597.711 1116,629.5C 1110.01,653.148 1100.01,674.815 1086,694.5C 1076.68,706.315 1066.18,716.982 1054.5,726.5C 1054.17,726 1053.83,725.5 1053.5,725C 1063.28,693.715 1070.78,661.881 1076,629.5C 1081.22,601.068 1092.89,575.735 1111,553.5C 1119,544.762 1128.5,538.428 1139.5,534.5 Z"/></g>
<g><path style="opacity:0.973" fill="#8b7c36" d="M 5.5,536.5 C 19.1851,540.768 30.6851,548.435 40,559.5C 51.7751,573.71 60.4418,589.71 66,607.5C 71.7884,622.518 76.1217,637.852 79,653.5C 66.4357,643.538 54.4357,632.871 43,621.5C 33.6458,610.802 26.3124,598.802 21,585.5C 15.3223,569.301 10.1556,552.968 5.5,536.5 Z"/></g>
<g><path style="opacity:0.976" fill="#8b7c36" d="M 1190.5,536.5 C 1191.5,536.5 1192.5,536.5 1193.5,536.5C 1187.16,559.023 1179.33,581.023 1170,602.5C 1155.71,621.795 1139.04,638.795 1120,653.5C 1125.63,624.618 1135.63,597.284 1150,571.5C 1160.02,555.631 1173.52,543.964 1190.5,536.5 Z"/></g>
<g><path style="opacity:0.999" fill="#fefefe" d="M 784.5,640.5 C 790.201,646.841 795.701,653.508 801,660.5C 843.61,718.746 886.444,776.746 929.5,834.5C 929.291,835.922 928.791,837.255 928,838.5C 912.598,856.906 896.098,874.406 878.5,891C 874.22,895.126 869.554,898.626 864.5,901.5C 827.244,850.237 789.577,799.237 751.5,748.5C 718.642,804.858 673.975,849.358 617.5,882C 611.513,885.244 605.346,888.077 599,890.5C 549.348,866.825 507.681,833.158 474,789.5C 464.325,776.141 455.158,762.475 446.5,748.5C 408.58,799.352 370.914,850.352 333.5,901.5C 308.777,882.111 287.111,859.778 268.5,834.5C 273.803,828.356 278.969,822.022 284,815.5C 326.7,756.743 369.866,698.409 413.5,640.5C 417.84,678.184 429.174,713.518 447.5,746.5C 497.935,677.95 548.601,609.617 599.5,541.5C 649.935,610.05 700.601,678.383 751.5,746.5C 769.334,713.33 780.334,677.997 784.5,640.5 Z"/></g>
<g><path style="opacity:0.975" fill="#8b7c36" d="M 150.5,615.5 C 152.144,615.286 153.644,615.62 155,616.5C 165.294,632.986 171.294,650.986 173,670.5C 174.035,697.547 173.368,724.547 171,751.5C 170.586,751.957 170.086,752.291 169.5,752.5C 155.231,729.525 147.064,704.525 145,677.5C 143.767,666.839 142.601,656.172 141.5,645.5C 142.96,634.983 145.96,624.983 150.5,615.5 Z"/></g>
<g><path style="opacity:0.971" fill="#8b7c36" d="M 1044.5,615.5 C 1047.64,615.799 1049.81,617.466 1051,620.5C 1053.62,627.663 1055.62,634.996 1057,642.5C 1056.52,672.399 1051.18,701.399 1041,729.5C 1037.53,737.779 1033.53,745.779 1029,753.5C 1027.73,749.351 1027.06,745.018 1027,740.5C 1024.7,716.178 1024.36,691.845 1026,667.5C 1028.32,648.697 1034.49,631.364 1044.5,615.5 Z"/></g>
<g><path style="opacity:0.973" fill="#8b7c36" d="M -0.5,629.5 C 30.3885,632.027 55.8885,645.027 76,668.5C 84.6178,678.446 92.4512,688.946 99.5,700C 99.1667,700.5 98.8333,701 98.5,701.5C 72.7608,691.963 47.7608,680.797 23.5,668C 11.9115,659.293 3.91154,648.126 -0.5,634.5C -0.5,632.833 -0.5,631.167 -0.5,629.5 Z"/></g>
<g><path style="opacity:0.975" fill="#8b7c36" d="M 1199.5,629.5 C 1199.5,631.167 1199.5,632.833 1199.5,634.5C 1195.08,648.161 1187.08,659.328 1175.5,668C 1151.24,680.797 1126.24,691.963 1100.5,701.5C 1100.17,701.167 1099.83,700.833 1099.5,700.5C 1111.42,681.077 1126.08,663.91 1143.5,649C 1156.28,641.11 1169.95,635.11 1184.5,631C 1189.46,630.088 1194.46,629.588 1199.5,629.5 Z"/></g>
<g><path style="opacity:0.982" fill="#8b7c36" d="M 74.5,726.5 C 100.896,727.948 122.729,738.615 140,758.5C 161.178,787.501 179.845,818.167 196,850.5C 204.578,862.416 213.911,873.749 224,884.5C 224.688,885.332 224.521,885.998 223.5,886.5C 203.177,876.009 183.51,864.509 164.5,852C 137.798,824.431 115.632,793.598 98,759.5C 90.1476,748.442 82.3143,737.442 74.5,726.5 Z"/></g>
<g><path style="opacity:0.981" fill="#8b7c36" d="M 1117.5,726.5 C 1119.5,726.5 1121.5,726.5 1123.5,726.5C 1123.65,727.552 1123.48,728.552 1123,729.5C 1115.62,738.55 1108.62,747.884 1102,757.5C 1083.77,792.063 1061.27,823.563 1034.5,852C 1015.4,864.636 995.57,876.136 975,886.5C 974.685,885.092 975.018,883.759 976,882.5C 986.859,871.755 996.526,860.089 1005,847.5C 1020.24,816.003 1038.24,786.336 1059,758.5C 1074.62,740.61 1094.12,729.944 1117.5,726.5 Z"/></g>
<g><path style="opacity:0.971" fill="#8b7c36" d="M 1168.5,735.5 C 1169.59,735.62 1170.25,736.287 1170.5,737.5C 1165.78,752.277 1158.94,765.944 1150,778.5C 1126.62,796.446 1102.12,812.779 1076.5,827.5C 1075.42,826.635 1075.25,825.635 1076,824.5C 1085.84,806.141 1097.17,788.808 1110,772.5C 1120.1,760.718 1131.93,751.218 1145.5,744C 1153.16,740.839 1160.83,738.006 1168.5,735.5 Z"/></g>
<g><path style="opacity:0.973" fill="#8b7c36" d="M 28.5,735.5 C 52.4443,740.721 72.2776,752.721 88,771.5C 101.782,788.887 113.949,807.387 124.5,827C 121.298,826.914 118.298,825.914 115.5,824C 94.228,810.392 73.228,796.392 52.5,782C 44.3651,772.244 37.8651,761.411 33,749.5C 30.9873,744.963 29.4873,740.296 28.5,735.5 Z"/></g>
<g><path style="opacity:0.996" fill="#7f7f7f" d="M 864.5,901.5 C 810.128,947.011 747.795,976.511 677.5,990C 557.452,1010.65 448.119,985.65 349.5,915C 343.91,910.719 338.577,906.219 333.5,901.5C 370.914,850.352 408.58,799.352 446.5,748.5C 455.158,762.475 464.325,776.141 474,789.5C 507.681,833.158 549.348,866.825 599,890.5C 605.346,888.077 611.513,885.244 617.5,882C 673.975,849.358 718.642,804.858 751.5,748.5C 789.577,799.237 827.244,850.237 864.5,901.5 Z"/></g>
<g><path style="opacity:0.975" fill="#8b7c36" d="M 197.5,774.5 C 201.757,777.251 205.59,780.584 209,784.5C 234.096,815.759 249.93,851.259 256.5,891C 256.167,893.167 255.833,895.333 255.5,897.5C 254.914,897.709 254.414,898.043 254,898.5C 248.667,894.5 244,889.833 240,884.5C 226.888,867.386 214.554,849.719 203,831.5C 198.261,812.696 196.428,793.696 197.5,774.5 Z"/></g>
<g><path style="opacity:0.975" fill="#8b7c36" d="M 999.5,774.5 C 1002.49,793.424 1001.32,812.424 996,831.5C 981.761,854.742 965.595,876.575 947.5,897C 945.866,897.494 944.199,897.66 942.5,897.5C 942.076,889.362 942.909,881.362 945,873.5C 952.539,844.517 964.873,817.851 982,793.5C 987.671,786.996 993.505,780.663 999.5,774.5 Z"/></g>
<g><path style="opacity:0.972" fill="#8b7c36" d="M 60.5,834.5 C 107.036,835.223 146.703,851.889 179.5,884.5C 156.091,881.588 132.757,877.421 109.5,872C 100.12,869.976 91.4538,866.309 83.5,861C 73.8145,854.824 64.4812,848.157 55.5,841C 54.4829,839.951 54.3162,838.784 55,837.5C 56.8761,836.391 58.7095,835.391 60.5,834.5 Z"/></g>
<g><path style="opacity:0.973" fill="#8b7c36" d="M 1119.5,834.5 C 1125.51,834.334 1131.51,834.501 1137.5,835C 1140.29,835.561 1142.62,836.894 1144.5,839C 1128.68,854.147 1110.35,865.147 1089.5,872C 1066.22,877.426 1042.89,881.593 1019.5,884.5C 1036.8,866.839 1057.13,853.672 1080.5,845C 1093.34,840.376 1106.34,836.876 1119.5,834.5 Z"/></g>
<g><path style="opacity:0.979" fill="#8b7c36" d="M 162.5,903.5 C 186.211,900.651 208.877,904.151 230.5,914C 238.819,917.825 246.819,922.158 254.5,927C 270.127,939.625 285.46,952.625 300.5,966C 311.175,973.675 322.508,980.342 334.5,986C 344.478,989.706 354.145,993.872 363.5,998.5C 344.887,997.98 326.22,996.813 307.5,995C 297.497,992.666 287.83,989.332 278.5,985C 245.443,968.484 214.776,948.484 186.5,925C 177.337,918.662 168.337,912.162 159.5,905.5C 160.602,904.824 161.602,904.158 162.5,903.5 Z"/></g>
<g><path style="opacity:0.977" fill="#8b7c36" d="M 1001.5,903.5 C 1013.17,903.333 1024.84,903.5 1036.5,904C 1037.62,904.249 1038.62,904.749 1039.5,905.5C 1019.67,919.258 1000.33,933.758 981.5,949C 960.48,963.183 938.48,975.85 915.5,987C 909.321,989.727 902.987,992.06 896.5,994C 876.127,996.452 855.794,997.952 835.5,998.5C 836.09,997.201 837.09,996.368 838.5,996C 856.853,990.156 874.186,982.156 890.5,972C 904.725,961.044 918.391,949.378 931.5,937C 952.174,920.162 975.508,908.995 1001.5,903.5 Z"/></g>
<g><path style="opacity:0.973" fill="#8b7c36" d="M 284.5,912.5 C 306.02,914.516 325.686,922.016 343.5,935C 361.174,954.67 376.507,976.003 389.5,999C 389.167,999.5 388.833,1000 388.5,1000.5C 363,985.251 337.666,969.751 312.5,954C 301.027,941.535 291.693,927.702 284.5,912.5 Z"/></g>
<g><path style="opacity:0.975" fill="#8b7c36" d="M 907.5,911.5 C 909.604,911.201 911.604,911.534 913.5,912.5C 906.795,928.702 897.128,942.869 884.5,955C 860.001,970.417 835.334,985.584 810.5,1000.5C 809.432,998.813 809.599,997.146 811,995.5C 821.551,978.286 832.884,961.619 845,945.5C 854.303,934.263 865.803,926.096 879.5,921C 888.841,917.498 898.175,914.331 907.5,911.5 Z"/></g>
<g><path style="opacity:0.977" fill="#8b7c36" d="M 116.5,925.5 C 148.818,923.41 178.152,931.576 204.5,950C 217.729,958.561 230.396,967.895 242.5,978C 244.536,979.819 244.703,981.653 243,983.5C 225.354,978.703 207.52,974.536 189.5,971C 159.721,965.202 134.888,951.036 115,928.5C 114.761,927.212 115.261,926.212 116.5,925.5 Z"/></g>
<g><path style="opacity:0.971" fill="#8b7c36" d="M 1057.5,925.5 C 1066.17,925.5 1074.83,925.5 1083.5,925.5C 1083.51,927.308 1083.01,928.975 1082,930.5C 1063.53,950.993 1040.69,964.16 1013.5,970C 993.877,974.124 974.377,978.624 955,983.5C 954.376,981.536 954.876,979.869 956.5,978.5C 973.939,963.612 992.606,950.445 1012.5,939C 1026.92,932.151 1041.92,927.651 1057.5,925.5 Z"/></g>
<g><path style="opacity:0.967" fill="#8b7c36" d="M 227.5,996.5 C 259.393,995.922 290.727,999.756 321.5,1008C 322.973,1008.71 323.64,1009.88 323.5,1011.5C 297.429,1014.39 271.429,1017.89 245.5,1022C 227.653,1023.5 210.32,1021.16 193.5,1015C 187.241,1013.2 181.574,1010.37 176.5,1006.5C 181.27,1004.31 186.27,1002.81 191.5,1002C 203.595,999.821 215.595,997.988 227.5,996.5 Z"/></g>
<g><path style="opacity:0.968" fill="#8b7c37" d="M 946.5,996.5 C 971.561,995.914 996.228,998.747 1020.5,1005C 1022.48,1005.61 1022.81,1006.61 1021.5,1008C 1000.15,1019.07 977.486,1023.74 953.5,1022C 927.572,1017.89 901.572,1014.39 875.5,1011.5C 875.281,1010.32 875.614,1009.32 876.5,1008.5C 880.069,1007.03 883.736,1005.87 887.5,1005C 907.137,1000.92 926.804,998.09 946.5,996.5 Z"/></g>
<g><path style="opacity:0.973" fill="#8b7c36" d="M 432.5,1006.5 C 481.876,1004.12 525.209,1018.96 562.5,1051C 511.826,1055.01 466.493,1041.67 426.5,1011C 425.643,1010.31 424.977,1009.48 424.5,1008.5C 427.306,1007.83 429.972,1007.17 432.5,1006.5 Z"/></g>
<g><path style="opacity:0.974" fill="#8b7c36" d="M 732.5,1006.5 C 743.505,1006.33 754.505,1006.5 765.5,1007C 773.35,1006.42 774.683,1008.42 769.5,1013C 737.261,1037.97 700.595,1050.64 659.5,1051C 651.833,1051.67 644.167,1051.67 636.5,1051C 664.572,1027.8 696.572,1012.97 732.5,1006.5 Z"/></g>
<g><path style="opacity:0.98" fill="#8b7c36" d="M 345.5,1022.5 C 365.446,1021.18 384.779,1024.02 403.5,1031C 441.345,1048.38 481.012,1059.38 522.5,1064C 523.308,1064.31 523.975,1064.81 524.5,1065.5C 483.36,1079.76 441.693,1081.59 399.5,1071C 379.989,1065.94 360.656,1060.27 341.5,1054C 327.1,1050.69 312.767,1047.19 298.5,1043.5C 302.526,1037.65 307.859,1033.49 314.5,1031C 324.658,1027.05 334.991,1024.21 345.5,1022.5 Z"/></g>
<g><path style="opacity:0.979" fill="#8b7c37" d="M 827.5,1022.5 C 850.066,1020.58 871.399,1024.75 891.5,1035C 895.508,1037.16 898.174,1040.33 899.5,1044.5C 882.719,1047.76 866.052,1051.59 849.5,1056C 814.382,1069.62 778.049,1076.96 740.5,1078C 717.962,1076.46 695.962,1072.29 674.5,1065.5C 690.026,1062.13 705.693,1058.96 721.5,1056C 747.143,1050.51 771.81,1042.18 795.5,1031C 806.046,1027.2 816.712,1024.37 827.5,1022.5 Z"/></g>
<g><path style="opacity:0.964" fill="#8b7c36" d="M 256.5,1060.5 C 275.502,1060.85 294.502,1061.35 313.5,1062C 343.492,1066.56 372.492,1074.56 400.5,1086C 364.856,1087.84 329.19,1088.51 293.5,1088C 277.213,1082.5 262.546,1074.33 249.5,1063.5C 251.875,1062.34 254.208,1061.34 256.5,1060.5 Z"/></g>
<g><path style="opacity:0.967" fill="#8b7c36" d="M 917.5,1060.5 C 925.84,1060.33 934.173,1060.5 942.5,1061C 944.355,1061.42 946.189,1061.92 948,1062.5C 949.257,1062.85 949.591,1063.52 949,1064.5C 935.471,1075.35 920.304,1083.18 903.5,1088C 868.478,1088.47 833.478,1087.81 798.5,1086C 836.563,1069.4 876.229,1060.9 917.5,1060.5 Z"/></g>
<g><path style="opacity:0.978" fill="#8b7c36" d="M 572.5,1068.5 C 573.978,1068.24 575.311,1068.57 576.5,1069.5C 549.429,1090.38 523.095,1112.21 497.5,1135C 476.056,1152.22 451.723,1163.22 424.5,1168C 418.141,1168.83 411.807,1168.66 405.5,1167.5C 424.284,1151.22 442.284,1134.05 459.5,1116C 479.417,1100.37 501.417,1088.37 525.5,1080C 541.555,1077.23 557.221,1073.39 572.5,1068.5 Z"/></g>
<g><path style="opacity:0.978" fill="#8b7c36" d="M 622.5,1068.5 C 640.411,1072.98 658.411,1077.15 676.5,1081C 701.353,1090.42 724.02,1103.42 744.5,1120C 759.892,1137.06 776.225,1153.06 793.5,1168C 775.405,1169.48 758.072,1166.48 741.5,1159C 716.101,1147.27 693.768,1131.27 674.5,1111C 659.167,1099 643.833,1087 628.5,1075C 626.244,1072.92 624.244,1070.75 622.5,1068.5 Z"/></g>
<g><path style="opacity:0.974" fill="#8b7c36" d="M 586.5,1079.5 C 587.497,1079.47 588.164,1079.97 588.5,1081C 579.383,1113.74 563.883,1142.91 542,1168.5C 535.403,1175.95 527.736,1181.95 519,1186.5C 517.699,1185.9 516.865,1184.9 516.5,1183.5C 517.265,1168.17 520.765,1153.51 527,1139.5C 532.292,1132.54 537.958,1125.87 544,1119.5C 558.062,1105.93 572.229,1092.6 586.5,1079.5 Z"/></g>
<g><path style="opacity:0.975" fill="#8b7c36" d="M 610.5,1079.5 C 612.255,1080.07 613.922,1080.91 615.5,1082C 631.638,1097.14 647.471,1112.64 663,1128.5C 672.41,1138.66 678.076,1150.66 680,1164.5C 680.894,1170.67 681.727,1176.83 682.5,1183C 682.275,1184.62 681.442,1185.79 680,1186.5C 671.485,1181.66 663.818,1175.66 657,1168.5C 634.16,1142.83 618.66,1113.16 610.5,1079.5 Z"/></g>
<g><path style="opacity:0.97" fill="#8b7c36" d="M 456.5,1090.5 C 463.833,1090.5 471.167,1090.5 478.5,1090.5C 478.762,1091.98 478.429,1093.31 477.5,1094.5C 461.642,1104.4 444.642,1111.9 426.5,1117C 396.461,1126.39 365.794,1130.05 334.5,1128C 332.519,1127.39 332.185,1126.39 333.5,1125C 356.147,1109.18 381.147,1099.18 408.5,1095C 424.632,1093.27 440.632,1091.77 456.5,1090.5 Z"/></g>
<g><path style="opacity:0.969" fill="#8b7c36" d="M 720.5,1090.5 C 748.323,1090.7 775.989,1092.87 803.5,1097C 826.617,1102.56 847.617,1112.39 866.5,1126.5C 864.453,1128.02 862.119,1128.85 859.5,1129C 810.879,1130.09 765.213,1119.09 722.5,1096C 719.918,1094.66 719.251,1092.83 720.5,1090.5 Z"/></g>
</svg>
