<?xml version="1.0" encoding="UTF-8"?>
<!DOCTYPE svg PUBLIC "-//W3C//DTD SVG 1.1//EN" "http://www.w3.org/Graphics/SVG/1.1/DTD/svg11.dtd">
<svg xmlns="http://www.w3.org/2000/svg" version="1.1" width="2500px" height="2500px" style="shape-rendering:geometricPrecision; text-rendering:geometricPrecision; image-rendering:optimizeQuality; fill-rule:evenodd; clip-rule:evenodd" xmlns:xlink="http://www.w3.org/1999/xlink">
<g><path style="opacity:0.987" fill="#fffefe" d="M 1185.5,-0.5 C 1228.5,-0.5 1271.5,-0.5 1314.5,-0.5C 1641.77,20.9773 1919.94,147.644 2149,379.5C 2362.54,605.025 2479.37,873.691 2499.5,1185.5C 2499.5,1227.83 2499.5,1270.17 2499.5,1312.5C 2479.37,1624.31 2362.54,1892.98 2149,2118.5C 1920.15,2350.46 1641.98,2476.96 1314.5,2498C 1006.37,2510.38 730.035,2424.05 485.5,2239C 264.384,2065.43 116.218,1842.6 41,1570.5C 17.1215,1478.51 3.28812,1385.18 -0.5,1290.5C -0.5,1262.83 -0.5,1235.17 -0.5,1207.5C 14.3313,888.608 130.498,613.608 348,382.5C 577.624,148.806 856.791,21.1391 1185.5,-0.5 Z"/></g>
<g><path style="opacity:1" fill="#fce002" d="M 1159.5,2437.5 C 1160.26,2436.73 1161.26,2436.23 1162.5,2436C 1144.88,2435.22 1127.38,2433.39 1110,2430.5C 1105.23,2431.06 1100.39,2431.06 1095.5,2430.5C 837.527,2395.16 614.527,2288.66 426.5,2111C 222.84,1912.85 102.673,1672.01 66,1388.5C 33.8332,1086.16 103.833,810.49 276,561.5C 438.428,335.947 653.261,183.114 920.5,103C 1130.86,44.7787 1341.86,42.4454 1553.5,96C 1831.97,173.059 2055.47,328.226 2224,561.5C 2393.56,806.708 2463.89,1078.37 2435,1376.5C 2399.78,1672.45 2274.28,1921.95 2058.5,2125C 1840.67,2322.23 1584.01,2427.23 1288.5,2440C 1245.45,2441.2 1202.45,2440.37 1159.5,2437.5 Z"/></g>
<g><path style="opacity:1" fill="#010100" d="M 1401.5,123.5 C 1406.96,124.951 1412.63,125.951 1418.5,126.5C 1675.48,166.726 1893.64,280.059 2073,466.5C 2239.17,642.973 2339.67,851.64 2374.5,1092.5C 2374.2,1096.79 2374.86,1100.79 2376.5,1104.5C 2386.42,1184.65 2388.08,1264.99 2381.5,1345.5C 2380.51,1350.32 2379.85,1355.32 2379.5,1360.5C 2378.81,1365.8 2378.47,1371.14 2378.5,1376.5C 2377.11,1381.27 2376.44,1386.27 2376.5,1391.5C 2375.52,1394.29 2375.19,1397.29 2375.5,1400.5C 2374.05,1405.96 2373.05,1411.63 2372.5,1417.5C 2330.61,1681.82 2212.28,1904.65 2017.5,2086C 1893.75,2199.01 1751.42,2281.18 1590.5,2332.5C 1586.22,2333.26 1582.22,2334.59 1578.5,2336.5C 1524.9,2351.82 1470.57,2363.82 1415.5,2372.5C 1410.59,2372.36 1405.92,2373.03 1401.5,2374.5C 1369.57,2378.06 1337.57,2380.89 1305.5,2383C 1268.5,2383.67 1231.5,2383.67 1194.5,2383C 1182.3,2382.79 1170.3,2381.95 1158.5,2380.5C 1152.04,2379.19 1145.37,2378.52 1138.5,2378.5C 1133.18,2378.02 1127.84,2377.69 1122.5,2377.5C 1115.68,2376.15 1108.68,2375.15 1101.5,2374.5C 1095.12,2374.24 1088.78,2373.58 1082.5,2372.5C 1082.08,2371.78 1081.42,2371.28 1080.5,2371C 1077.85,2370.5 1075.19,2370.34 1072.5,2370.5C 802.27,2325.16 576.437,2200.49 395,1996.5C 249.786,1829.02 160.286,1635.02 126.5,1414.5C 126.556,1409.27 125.889,1404.27 124.5,1399.5C 124.066,1394.33 123.4,1389.33 122.5,1384.5C 122.55,1378.61 121.884,1372.94 120.5,1367.5C 95.0917,1103.16 152.925,859.161 294,635.5C 431.043,426.727 615.876,276.893 848.5,186C 1027.57,120.322 1211.9,99.4886 1401.5,123.5 Z"/></g>
<g><path style="opacity:1" fill="#9c8a01" d="M 1401.5,123.5 C 1407.5,123.333 1413.17,124.333 1418.5,126.5C 1412.63,125.951 1406.96,124.951 1401.5,123.5 Z"/></g>
<g><path style="opacity:1" fill="#fce000" d="M 2312.5,1089.5 C 2312.55,1096.77 2313.55,1103.77 2315.5,1110.5C 2318.54,1130.92 2320.54,1151.59 2321.5,1172.5C 2321.37,1184.03 2322.04,1195.37 2323.5,1206.5C 2331.02,1489.68 2243.52,1738.68 2061,1953.5C 1885.12,2151.72 1665.62,2271.55 1402.5,2313C 1337.61,2321.72 1272.61,2324.89 1207.5,2322.5C 1196.37,2321.04 1185.03,2320.37 1173.5,2320.5C 1152.69,2319.55 1132.02,2317.55 1111.5,2314.5C 1104.77,2312.55 1097.77,2311.55 1090.5,2311.5C 869.784,2276.8 678.117,2183.96 515.5,2033C 334.475,1860.38 224.642,1649.88 186,1401.5C 176.827,1336.64 173.66,1271.64 176.5,1206.5C 178.038,1194.37 178.704,1182.03 178.5,1169.5C 179.455,1152.29 181.122,1135.29 183.5,1118.5C 184.806,1113.38 185.473,1108.05 185.5,1102.5C 189.383,1069.43 195.383,1036.76 203.5,1004.5C 204.924,1002.49 205.59,1000.15 205.5,997.5C 258.341,783.591 365.674,602.424 527.5,454C 687.902,309.27 875.569,220.103 1090.5,186.5C 1097.77,186.453 1104.77,185.453 1111.5,183.5C 1132.02,180.448 1152.69,178.448 1173.5,177.5C 1185.03,177.631 1196.37,176.964 1207.5,175.5C 1478.35,167.83 1719.02,248.33 1929.5,417C 2116.43,572.251 2238.93,768.418 2297,1005.5C 2303.15,1033.34 2308.31,1061.34 2312.5,1089.5 Z"/></g>
<g><path style="opacity:1" fill="#c2ad00" d="M 1207.5,175.5 C 1196.37,176.964 1185.03,177.631 1173.5,177.5C 1184.63,176.036 1195.97,175.369 1207.5,175.5 Z"/></g>
<g><path style="opacity:1" fill="#b29e00" d="M 1111.5,183.5 C 1104.77,185.453 1097.77,186.453 1090.5,186.5C 1097.26,184.765 1104.26,183.765 1111.5,183.5 Z"/></g>
<g><path style="opacity:1" fill="#a18f00" d="M 1073.5,349.5 C 1013.33,349.168 953.331,349.501 893.5,350.5C 892.957,350.44 892.624,350.107 892.5,349.5C 952.999,348.168 1013.33,348.168 1073.5,349.5 Z"/></g>
<g><path style="opacity:1" fill="#a29000" d="M 1423.5,349.5 C 1482.33,348.501 1541.33,348.168 1600.5,348.5C 1600.74,349.791 1600.4,350.791 1599.5,351.5C 1541.18,349.504 1482.51,348.837 1423.5,349.5 Z"/></g>
<g><path style="opacity:1" fill="#000000" d="M 1073.5,349.5 C 1131.02,550.232 1188.85,750.898 1247,951.5C 1247.33,951.833 1247.67,952.167 1248,952.5C 1257.87,917.048 1268.04,881.715 1278.5,846.5C 1280.47,843.916 1281.47,840.916 1281.5,837.5C 1328.24,674.625 1375.57,511.958 1423.5,349.5C 1482.51,348.837 1541.18,349.504 1599.5,351.5C 1503.56,652.086 1407.56,952.753 1311.5,1253.5C 1269.09,1253.83 1226.76,1253.49 1184.5,1252.5C 1087.87,951.6 990.865,650.933 893.5,350.5C 953.331,349.501 1013.33,349.168 1073.5,349.5 Z"/></g>
<g><path style="opacity:1" fill="#000000" d="M 1600.5,794.5 C 1702.86,794.013 1805.2,794.513 1907.5,796C 1973.48,806.9 2028.98,836.733 2074,885.5C 2122.8,945.382 2142.8,1014.05 2134,1091.5C 2126.4,1148.86 2103.56,1199.02 2065.5,1242C 2116.97,1297.88 2141.3,1364.05 2138.5,1440.5C 2137.19,1446.29 2136.52,1452.29 2136.5,1458.5C 2124.59,1539.51 2084.93,1603.01 2017.5,1649C 1981,1671.47 1941.33,1683.97 1898.5,1686.5C 1799.17,1686.5 1699.83,1686.5 1600.5,1686.5C 1600.5,1389.17 1600.5,1091.83 1600.5,794.5 Z"/></g>
<g><path style="opacity:1" fill="#000000" d="M 441.5,794.5 C 542.167,794.333 642.834,794.5 743.5,795C 807.866,805.097 862.7,833.264 908,879.5C 968.39,949.728 988.39,1030.39 968,1121.5C 956.722,1166.9 935.889,1207.06 905.5,1242C 936.818,1276.79 958.652,1316.96 971,1362.5C 989.809,1454.48 968.809,1535.82 908,1606.5C 861.647,1655.09 804.814,1681.76 737.5,1686.5C 638.833,1686.5 540.167,1686.5 441.5,1686.5C 441.5,1389.17 441.5,1091.83 441.5,794.5 Z"/></g>
<g><path style="opacity:1" fill="#524900" d="M 1600.5,794.5 C 1600.5,1091.83 1600.5,1389.17 1600.5,1686.5C 1699.83,1686.5 1799.17,1686.5 1898.5,1686.5C 1799,1687.5 1699.33,1687.83 1599.5,1687.5C 1599.17,1389.67 1599.5,1092 1600.5,794.5 Z"/></g>
<g><path style="opacity:1" fill="#534a09" d="M 1281.5,837.5 C 1281.47,840.916 1280.47,843.916 1278.5,846.5C 1278.93,843.215 1279.93,840.215 1281.5,837.5 Z"/></g>
<g><path style="opacity:1" fill="#fce000" d="M 605.5,961.5 C 654.168,961.333 702.834,961.5 751.5,962C 761.19,963.562 770.19,966.895 778.5,972C 801.124,990.406 813.958,1014.24 817,1043.5C 820.042,1072.63 814.042,1099.63 799,1124.5C 786.777,1142.2 770.277,1153.86 749.5,1159.5C 701.5,1159.5 653.5,1159.5 605.5,1159.5C 605.5,1093.5 605.5,1027.5 605.5,961.5 Z"/></g>
<g><path style="opacity:1" fill="#fce000" d="M 1911.5,962.5 C 1912.17,962.5 1912.83,962.5 1913.5,962.5C 1933.58,965.957 1949.08,976.29 1960,993.5C 1982.72,1033.21 1984.39,1073.87 1965,1115.5C 1952.79,1138.22 1934.29,1152.89 1909.5,1159.5C 1862.67,1158.5 1815.67,1158.17 1768.5,1158.5C 1768.5,1093.5 1768.5,1028.5 1768.5,963.5C 1816.34,963.832 1864,963.499 1911.5,962.5 Z"/></g>
<g><path style="opacity:1" fill="#c5af00" d="M 1913.5,962.5 C 1912.83,962.5 1912.17,962.5 1911.5,962.5C 1863.5,962.5 1815.5,962.5 1767.5,962.5C 1767.5,1028.17 1767.5,1093.83 1767.5,1159.5C 1814.83,1159.5 1862.17,1159.5 1909.5,1159.5C 1862,1160.5 1814.34,1160.83 1766.5,1160.5C 1766.5,1094.17 1766.5,1027.83 1766.5,961.5C 1815.67,961.168 1864.67,961.501 1913.5,962.5 Z"/></g>
<g><path style="opacity:1" fill="#fff300" d="M 1911.5,962.5 C 1864,963.499 1816.34,963.832 1768.5,963.5C 1768.5,1028.5 1768.5,1093.5 1768.5,1158.5C 1815.67,1158.17 1862.67,1158.5 1909.5,1159.5C 1862.17,1159.5 1814.83,1159.5 1767.5,1159.5C 1767.5,1093.83 1767.5,1028.17 1767.5,962.5C 1815.5,962.5 1863.5,962.5 1911.5,962.5 Z"/></g>
<g><path style="opacity:1" fill="#988700" d="M 205.5,997.5 C 205.59,1000.15 204.924,1002.49 203.5,1004.5C 203.41,1001.85 204.076,999.515 205.5,997.5 Z"/></g>
<g><path style="opacity:1" fill="#ad9a00" d="M 2312.5,1089.5 C 2314.24,1096.26 2315.24,1103.26 2315.5,1110.5C 2313.55,1103.77 2312.55,1096.77 2312.5,1089.5 Z"/></g>
<g><path style="opacity:1" fill="#4e4609" d="M 2374.5,1092.5 C 2375.62,1096.29 2376.28,1100.29 2376.5,1104.5C 2374.86,1100.79 2374.2,1096.79 2374.5,1092.5 Z"/></g>
<g><path style="opacity:1" fill="#9a8901" d="M 185.5,1102.5 C 185.473,1108.05 184.806,1113.38 183.5,1118.5C 183.376,1112.93 184.043,1107.6 185.5,1102.5 Z"/></g>
<g><path style="opacity:1" fill="#968500" d="M 605.5,961.5 C 605.5,1027.5 605.5,1093.5 605.5,1159.5C 653.5,1159.5 701.5,1159.5 749.5,1159.5C 701.336,1160.5 653.003,1160.83 604.5,1160.5C 604.168,1094 604.501,1027.66 605.5,961.5 Z"/></g>
<g><path style="opacity:1" fill="#c4af00" d="M 178.5,1169.5 C 178.704,1182.03 178.038,1194.37 176.5,1206.5C 176.475,1193.98 177.141,1181.64 178.5,1169.5 Z"/></g>
<g><path style="opacity:1" fill="#b5a100" d="M 2321.5,1172.5 C 2322.96,1183.63 2323.63,1194.97 2323.5,1206.5C 2322.04,1195.37 2321.37,1184.03 2321.5,1172.5 Z"/></g>
<g><path style="opacity:1" fill="#b39f00" d="M 1184.5,1252.5 C 1226.76,1253.49 1269.09,1253.83 1311.5,1253.5C 1290.5,1254.17 1269.34,1254.5 1248,1254.5C 1226.49,1254.5 1205.32,1253.83 1184.5,1252.5 Z"/></g>
<g><path style="opacity:1" fill="#fce000" d="M 733.5,1320.5 C 760.361,1324.18 781.528,1337.18 797,1359.5C 818.954,1393.57 823.621,1429.9 811,1468.5C 796.738,1501.56 771.905,1521.73 736.5,1529C 692.835,1529.5 649.168,1529.67 605.5,1529.5C 605.5,1459.83 605.5,1390.17 605.5,1320.5C 648.167,1320.5 690.833,1320.5 733.5,1320.5 Z"/></g>
<g><path style="opacity:1" fill="#fce000" d="M 1893.5,1320.5 C 1913.94,1322.81 1931.44,1331.14 1946,1345.5C 1961.34,1362.01 1971.17,1381.34 1975.5,1403.5C 1977.09,1415.77 1977.76,1428.1 1977.5,1440.5C 1971.08,1489.42 1943.75,1518.92 1895.5,1529C 1852.83,1529.5 1810.17,1529.67 1767.5,1529.5C 1767.5,1459.83 1767.5,1390.17 1767.5,1320.5C 1809.5,1320.5 1851.5,1320.5 1893.5,1320.5 Z"/></g>
<g><path style="opacity:1" fill="#847500" d="M 733.5,1320.5 C 690.833,1320.5 648.167,1320.5 605.5,1320.5C 605.5,1390.17 605.5,1459.83 605.5,1529.5C 604.501,1459.67 604.167,1389.67 604.5,1319.5C 647.67,1319.17 690.67,1319.5 733.5,1320.5 Z"/></g>
<g><path style="opacity:1" fill="#b09d00" d="M 1893.5,1320.5 C 1851.5,1320.5 1809.5,1320.5 1767.5,1320.5C 1767.5,1390.17 1767.5,1459.83 1767.5,1529.5C 1766.5,1459.67 1766.17,1389.67 1766.5,1319.5C 1809,1319.17 1851.34,1319.5 1893.5,1320.5 Z"/></g>
<g><path style="opacity:1" fill="#a99700" d="M 2381.5,1345.5 C 2381.9,1350.78 2381.24,1355.78 2379.5,1360.5C 2379.85,1355.32 2380.51,1350.32 2381.5,1345.5 Z"/></g>
<g><path style="opacity:1" fill="#a79500" d="M 120.5,1367.5 C 121.884,1372.94 122.55,1378.61 122.5,1384.5C 121.116,1379.06 120.45,1373.39 120.5,1367.5 Z"/></g>
<g><path style="opacity:1" fill="#a89600" d="M 2378.5,1376.5 C 2378.56,1381.73 2377.89,1386.73 2376.5,1391.5C 2376.44,1386.27 2377.11,1381.27 2378.5,1376.5 Z"/></g>
<g><path style="opacity:1" fill="#897a02" d="M 124.5,1399.5 C 125.889,1404.27 126.556,1409.27 126.5,1414.5C 125.111,1409.73 124.444,1404.73 124.5,1399.5 Z"/></g>
<g><path style="opacity:1" fill="#9a8a01" d="M 2375.5,1400.5 C 2375.67,1406.5 2374.67,1412.17 2372.5,1417.5C 2373.05,1411.63 2374.05,1405.96 2375.5,1400.5 Z"/></g>
<g><path style="opacity:1" fill="#968701" d="M 1975.5,1403.5 C 1976.64,1407.3 1977.47,1411.3 1978,1415.5C 1978.82,1424.01 1978.66,1432.34 1977.5,1440.5C 1977.76,1428.1 1977.09,1415.77 1975.5,1403.5 Z"/></g>
<g><path style="opacity:1" fill="#a29000" d="M 2138.5,1440.5 C 2138.72,1446.74 2138.06,1452.74 2136.5,1458.5C 2136.52,1452.29 2137.19,1446.29 2138.5,1440.5 Z"/></g>
<g><path style="opacity:1" fill="#4f4600" d="M 441.5,794.5 C 441.5,1091.83 441.5,1389.17 441.5,1686.5C 540.167,1686.5 638.833,1686.5 737.5,1686.5C 638.668,1687.5 539.668,1687.83 440.5,1687.5C 440.167,1389.67 440.5,1092 441.5,794.5 Z"/></g>
<g><path style="opacity:1" fill="#000000" d="M 1204.5,1811.5 C 1204.36,1816.41 1205.03,1821.08 1206.5,1825.5C 1207.67,1898 1207.83,1970.67 1207,2043.5C 1199.63,2103.85 1167.13,2143.35 1109.5,2162C 1051.56,2174.91 1004.06,2158.41 967,2112.5C 953.02,2092.4 944.854,2070.07 942.5,2045.5C 942.191,1969.49 942.524,1893.49 943.5,1817.5C 954.21,1761.62 986.877,1725.45 1041.5,1709C 1092.69,1698.25 1136.52,1711.41 1173,1748.5C 1188.81,1766.8 1199.31,1787.8 1204.5,1811.5 Z"/></g>
<g><path style="opacity:1" fill="#000000" d="M 1552.5,2043.5 C 1551.24,2049.66 1550.24,2055.99 1549.5,2062.5C 1537.65,2116.85 1504.65,2150.69 1450.5,2164C 1391.94,2172.94 1344.77,2154.1 1309,2107.5C 1300.98,2095.47 1295.15,2082.47 1291.5,2068.5C 1291.28,2065.93 1290.61,2063.6 1289.5,2061.5C 1287.99,2050.56 1287.33,2039.56 1287.5,2028.5C 1287.5,2024.5 1287.5,2020.5 1287.5,2016.5C 1314.17,2016.5 1340.83,2016.5 1367.5,2016.5C 1372.99,2017.81 1376.82,2021.15 1379,2026.5C 1374.66,2053.37 1385.5,2070.2 1411.5,2077C 1439.56,2081.61 1457.06,2070.11 1464,2042.5C 1464.39,2025.83 1464.22,2009.16 1463.5,1992.5C 1451.46,1996.23 1439.13,1998.56 1426.5,1999.5C 1420.13,1999.65 1413.8,1999.32 1407.5,1998.5C 1363.05,1991.2 1328.88,1968.53 1305,1930.5C 1295.32,1914.12 1289.65,1896.45 1288,1877.5C 1286.83,1853.42 1287.5,1829.42 1290,1805.5C 1303.88,1757.95 1334.38,1726.45 1381.5,1711C 1418.28,1700.96 1453.61,1704.62 1487.5,1722C 1524.94,1744.68 1546.44,1777.85 1552,1821.5C 1552.5,1895.5 1552.67,1969.5 1552.5,2043.5 Z"/></g>
<g><path style="opacity:1" fill="#fadf00" d="M 1413.5,1799.5 C 1432.7,1797.39 1447.87,1804.05 1459,1819.5C 1461.45,1823.53 1463.12,1827.86 1464,1832.5C 1464.67,1845.83 1464.67,1859.17 1464,1872.5C 1456.08,1898.72 1438.58,1909.55 1411.5,1905C 1395.57,1900.07 1385.4,1889.57 1381,1873.5C 1380.33,1859.5 1380.33,1845.5 1381,1831.5C 1386.45,1815.21 1397.29,1804.55 1413.5,1799.5 Z"/></g>
<g><path style="opacity:1" fill="#fbe000" d="M 1065.5,1800.5 C 1083.75,1799.18 1098.58,1805.52 1110,1819.5C 1112.56,1823.94 1114.56,1828.61 1116,1833.5C 1116.67,1903.83 1116.67,1974.17 1116,2044.5C 1109.64,2065.85 1095.31,2077.19 1073,2078.5C 1051.73,2076.57 1038.4,2065.23 1033,2044.5C 1032.33,1974.17 1032.33,1903.83 1033,1833.5C 1038.02,1816.65 1048.85,1805.65 1065.5,1800.5 Z"/></g>
<g><path style="opacity:1" fill="#352f09" d="M 1204.5,1811.5 C 1205.97,1815.92 1206.64,1820.59 1206.5,1825.5C 1205.03,1821.08 1204.36,1816.41 1204.5,1811.5 Z"/></g>
<g><path style="opacity:1" fill="#615600" d="M 943.5,1817.5 C 942.524,1893.49 942.191,1969.49 942.5,2045.5C 941.334,1971.67 941.168,1897.67 942,1823.5C 942.191,1821.29 942.691,1819.29 943.5,1817.5 Z"/></g>
<g><path style="opacity:1" fill="#a99700" d="M 1407.5,1998.5 C 1413.8,1999.32 1420.13,1999.65 1426.5,1999.5C 1424.02,2000.16 1421.36,2000.5 1418.5,2000.5C 1414.53,2000.71 1410.86,2000.04 1407.5,1998.5 Z"/></g>
<g><path style="opacity:1" fill="#504800" d="M 1367.5,2016.5 C 1340.83,2016.5 1314.17,2016.5 1287.5,2016.5C 1287.5,2020.5 1287.5,2024.5 1287.5,2028.5C 1286.52,2024.37 1286.18,2020.03 1286.5,2015.5C 1313.67,2015.17 1340.67,2015.5 1367.5,2016.5 Z"/></g>
<g><path style="opacity:1" fill="#a79501" d="M 1552.5,2043.5 C 1552.87,2050.19 1551.87,2056.52 1549.5,2062.5C 1550.24,2055.99 1551.24,2049.66 1552.5,2043.5 Z"/></g>
<g><path style="opacity:1" fill="#877802" d="M 1289.5,2061.5 C 1290.61,2063.6 1291.28,2065.93 1291.5,2068.5C 1289.84,2066.56 1289.17,2064.23 1289.5,2061.5 Z"/></g>
<g><path style="opacity:1" fill="#af9c00" d="M 1090.5,2311.5 C 1097.77,2311.55 1104.77,2312.55 1111.5,2314.5C 1104.26,2314.24 1097.26,2313.24 1090.5,2311.5 Z"/></g>
<g><path style="opacity:1" fill="#b7a300" d="M 1173.5,2320.5 C 1185.03,2320.37 1196.37,2321.04 1207.5,2322.5C 1195.97,2322.63 1184.63,2321.96 1173.5,2320.5 Z"/></g>
<g><path style="opacity:1" fill="#b7a300" d="M 1590.5,2332.5 C 1586.92,2334.81 1582.92,2336.14 1578.5,2336.5C 1582.22,2334.59 1586.22,2333.26 1590.5,2332.5 Z"/></g>
<g><path style="opacity:1" fill="#4c4409" d="M 1072.5,2370.5 C 1075.19,2370.34 1077.85,2370.5 1080.5,2371C 1081.42,2371.28 1082.08,2371.78 1082.5,2372.5C 1078.96,2372.25 1075.63,2371.58 1072.5,2370.5 Z"/></g>
<g><path style="opacity:1" fill="#b59f00" d="M 1415.5,2372.5 C 1411.08,2373.97 1406.41,2374.64 1401.5,2374.5C 1405.92,2373.03 1410.59,2372.36 1415.5,2372.5 Z"/></g>
<g><path style="opacity:1" fill="#b19e00" d="M 1101.5,2374.5 C 1108.68,2375.15 1115.68,2376.15 1122.5,2377.5C 1116.78,2376.9 1111.11,2376.9 1105.5,2377.5C 1104.1,2376.48 1102.77,2375.48 1101.5,2374.5 Z"/></g>
<g><path style="opacity:1" fill="#322c07" d="M 1138.5,2378.5 C 1145.37,2378.52 1152.04,2379.19 1158.5,2380.5C 1151.61,2380.6 1144.95,2379.94 1138.5,2378.5 Z"/></g>
<g><path style="opacity:1" fill="#fee43d" d="M 1095.5,2430.5 C 1100.39,2431.06 1105.23,2431.06 1110,2430.5C 1127.38,2433.39 1144.88,2435.22 1162.5,2436C 1161.26,2436.23 1160.26,2436.73 1159.5,2437.5C 1137.9,2436.34 1116.57,2434.01 1095.5,2430.5 Z"/></g>
</svg>
