<?xml version="1.0" encoding="UTF-8"?>
<!DOCTYPE svg PUBLIC "-//W3C//DTD SVG 1.1//EN" "http://www.w3.org/Graphics/SVG/1.1/DTD/svg11.dtd">
<svg xmlns="http://www.w3.org/2000/svg" version="1.1" width="1920px" height="1080px" style="shape-rendering:geometricPrecision; text-rendering:geometricPrecision; image-rendering:optimizeQuality; fill-rule:evenodd; clip-rule:evenodd" xmlns:xlink="http://www.w3.org/1999/xlink">
<g><path style="opacity:1" fill="#fcfcfc" d="M 611.5,45.5 C 619.84,45.3336 628.173,45.5003 636.5,46C 652.986,48.9866 663.652,58.4866 668.5,74.5C 679.472,79.6386 687.639,87.6386 693,98.5C 699.695,90.896 707.862,85.396 717.5,82C 729.269,80.1011 740.935,77.7677 752.5,75C 759.833,74.3333 767.167,74.3333 774.5,75C 784.488,77.8554 794.655,80.022 805,81.5C 907.825,48.1776 1010.66,48.1776 1113.5,81.5C 1123.95,79.8036 1134.28,77.6369 1144.5,75C 1151.17,74.3333 1157.83,74.3333 1164.5,75C 1177.51,77.5941 1190.51,80.2607 1203.5,83C 1212.13,86.5623 1219.63,91.7289 1226,98.5C 1230.67,86.9946 1238.84,78.9946 1250.5,74.5C 1254.72,60.1117 1264.05,50.945 1278.5,47C 1302.81,42.9526 1325.65,47.1192 1347,59.5C 1355.1,52.0978 1364.6,49.5978 1375.5,52C 1394.42,58.4185 1407.76,70.9185 1415.5,89.5C 1435.8,90.6214 1448.97,100.955 1455,120.5C 1457.74,131.682 1459.58,143.015 1460.5,154.5C 1469.36,156.522 1475.19,161.855 1478,170.5C 1481.16,181.462 1481.33,192.462 1478.5,203.5C 1516.44,196.312 1548.27,206.979 1574,235.5C 1591.31,260.974 1588.31,283.974 1565,304.5C 1560.16,323.881 1549.66,339.214 1533.5,350.5C 1533.17,351.5 1532.83,352.5 1532.5,353.5C 1534.15,360.475 1536.65,367.142 1540,373.5C 1548.42,388 1557.08,402.333 1566,416.5C 1583.75,454.222 1586.08,492.889 1573,532.5C 1555.2,575.281 1523.37,600.781 1477.5,609C 1497.11,628.588 1502.27,651.422 1493,677.5C 1490.5,682.506 1487.5,687.173 1484,691.5C 1469.46,704.376 1454.63,716.876 1439.5,729C 1460.68,742.862 1469.18,762.362 1465,787.5C 1454.14,837.945 1442.81,888.278 1431,938.5C 1419.8,965.355 1399.63,977.855 1370.5,976C 1359.47,973.827 1348.47,971.493 1337.5,969C 1328.34,968.048 1319.18,967.215 1310,966.5C 1284.59,967.782 1259.76,972.282 1235.5,980C 1185.2,998.074 1133.87,1012.41 1081.5,1023C 978.783,1040.83 877.116,1036.16 776.5,1009C 745.256,1000.14 714.256,990.475 683.5,980C 657.431,971.579 630.931,967.079 604,966.5C 594.85,967.373 585.683,968.54 576.5,970C 567.23,972.318 557.896,974.318 548.5,976C 516.451,977.617 495.617,963.117 486,932.5C 475.333,884.497 464.666,836.497 454,788.5C 449.525,762.964 458.025,743.131 479.5,729C 464.04,716.542 448.873,703.709 434,690.5C 418.546,668.537 417.546,645.87 431,622.5C 434.118,617.714 437.618,613.214 441.5,609C 379.75,595.921 345.25,558.087 338,495.5C 335.585,467.727 340.585,441.394 353,416.5C 361.918,402.333 370.585,388 379,373.5C 382.347,367.142 384.847,360.475 386.5,353.5C 384.471,349.787 381.471,346.954 377.5,345C 366.456,333.418 358.623,319.918 354,304.5C 325.673,276.209 326.84,249.042 357.5,223C 382.096,203.845 409.762,197.345 440.5,203.5C 438.778,191.719 439.278,180.052 442,168.5C 444.908,160.758 450.408,156.091 458.5,154.5C 459.223,140.821 461.723,127.488 466,114.5C 471.415,102.748 480.248,94.9151 492.5,91C 495.76,90.2165 498.927,90.3832 502,91.5C 508.996,74.8381 520.496,62.3381 536.5,54C 547.489,50.1549 558.155,50.8216 568.5,56C 569.667,57.1667 570.833,58.3333 572,59.5C 584.597,52.9142 597.763,48.2475 611.5,45.5 Z"/></g>
<g><path style="opacity:1" fill="#211e20" d="M 1447.5,518.5 C 1447.5,523.167 1447.5,527.833 1447.5,532.5C 1453.03,532.821 1458.36,532.488 1463.5,531.5C 1493.14,527.866 1508.47,511.199 1509.5,481.5C 1509.4,472.155 1507.56,463.155 1504,454.5C 1495.52,436.186 1485.52,418.853 1474,402.5C 1460.8,373.868 1457.96,344.202 1465.5,313.5C 1456.32,306.467 1451.98,297.134 1452.5,285.5C 1453.94,266.114 1463.61,252.614 1481.5,245C 1501.22,240.744 1519.55,244.077 1536.5,255C 1538.67,257.167 1540.83,259.333 1543,261.5C 1544.71,267.469 1542.54,271.303 1536.5,273C 1534.29,274.873 1532.46,277.04 1531,279.5C 1527.59,289.398 1523.59,299.065 1519,308.5C 1512.75,315.812 1504.75,319.479 1495,319.5C 1488.36,346.37 1492.02,371.703 1506,395.5C 1517.29,412.419 1527.29,430.086 1536,448.5C 1546.68,481.721 1542.02,512.387 1522,540.5C 1509.43,554.382 1493.93,563.216 1475.5,567C 1461.51,568.622 1447.51,568.956 1433.5,568C 1430.33,571.167 1427.17,574.333 1424,577.5C 1419.61,591.94 1421.94,605.274 1431,617.5C 1439.38,626.875 1447.38,636.542 1455,646.5C 1457.4,652.882 1456.74,658.882 1453,664.5C 1443.08,673.758 1432.58,682.258 1421.5,690C 1400.39,707.748 1385.39,729.581 1376.5,755.5C 1389.26,757.418 1401.93,759.918 1414.5,763C 1421.21,765.541 1424.55,770.375 1424.5,777.5C 1415.49,821.196 1406.33,864.862 1397,908.5C 1395.28,916.028 1392.95,923.362 1390,930.5C 1384.98,934.88 1379.15,936.38 1372.5,935C 1327,923.085 1281.67,923.752 1236.5,937C 1191.3,952.29 1145.63,965.957 1099.5,978C 987.261,1001.52 876.261,996.856 766.5,964C 738.156,954.996 709.822,945.996 681.5,937C 641.985,925.358 601.985,923.358 561.5,931C 556.738,931.967 552.071,933.301 547.5,935C 536.965,938.089 529.799,934.589 526,924.5C 514.915,875.746 504.082,826.912 493.5,778C 493.836,770.993 497.169,765.993 503.5,763C 516.366,759.603 529.366,757.103 542.5,755.5C 534.199,732.028 520.866,711.861 502.5,695C 492.016,686.26 481.349,677.76 470.5,669.5C 462.706,663.952 460.206,656.619 463,647.5C 470.623,637.542 478.623,627.875 487,618.5C 496.378,606.203 499.044,592.537 495,577.5C 491.651,574.43 488.484,571.264 485.5,568C 449.192,574.564 418.692,564.398 394,537.5C 371.943,502.503 370.943,466.837 391,430.5C 400.699,414.146 410.365,397.813 420,381.5C 427.226,361.515 428.392,341.182 423.5,320.5C 408.178,319.255 398.344,311.255 394,296.5C 392.004,284.488 386.004,275.154 376,268.5C 375.333,266.167 375.333,263.833 376,261.5C 394.103,244.143 415.27,238.976 439.5,246C 463.885,258.946 471.385,278.446 462,304.5C 459.514,307.985 456.681,311.152 453.5,314C 461.09,345.357 457.923,375.524 444,404.5C 432.805,420.217 423.138,436.883 415,454.5C 408.569,470.264 407.902,486.264 413,502.5C 421.054,519.714 434.554,529.381 453.5,531.5C 459.31,532.49 465.31,532.823 471.5,532.5C 471.5,528.5 471.5,524.5 471.5,520.5C 472.486,509.042 475.986,498.376 482,488.5C 489.613,477.22 497.613,466.22 506,455.5C 519.89,433.72 528.724,410.053 532.5,384.5C 521.409,384.908 512.242,380.908 505,372.5C 501.177,368.488 501.677,365.321 506.5,363C 513.196,363.572 517.696,360.739 520,354.5C 523.407,345.043 524.24,335.377 522.5,325.5C 518.608,326.446 514.941,327.946 511.5,330C 502.954,330.808 496.787,327.308 493,319.5C 489.367,311.799 488.2,303.799 489.5,295.5C 490.167,295.167 490.833,294.833 491.5,294.5C 509.131,301.056 513.797,296.056 505.5,279.5C 501.093,281.536 496.426,282.036 491.5,281C 485.883,276.605 482.716,270.772 482,263.5C 481.333,258.167 481.333,252.833 482,247.5C 482.315,244.364 483.482,241.697 485.5,239.5C 490.135,245.163 495.801,246.663 502.5,244C 503.333,243.167 504.167,242.333 505,241.5C 505.499,236.177 505.666,230.844 505.5,225.5C 493.785,227.62 486.285,222.953 483,211.5C 481.204,201.52 482.871,192.187 488,183.5C 488.899,181.673 490.233,180.34 492,179.5C 494.86,183.017 498.36,185.85 502.5,188C 505.669,188.978 508.503,188.478 511,186.5C 511.048,180.613 511.882,174.947 513.5,169.5C 505.615,168.783 501.115,164.45 500,156.5C 498.833,143.331 503.333,132.498 513.5,124C 515.769,123.242 517.936,123.409 520,124.5C 520.333,127.167 520.667,129.833 521,132.5C 522.833,134.333 524.667,136.167 526.5,138C 528.833,138.667 531.167,138.667 533.5,138C 536.167,134.667 538.833,131.333 541.5,128C 530.549,118.599 530.883,109.599 542.5,101C 549.331,95.8334 556.998,93.5001 565.5,94C 565.534,98.0263 565.701,102.193 566,106.5C 566.5,107 567,107.5 567.5,108C 576.117,107.241 584.783,106.575 593.5,106C 589.346,101.175 589.679,96.8419 594.5,93C 603.332,88.4571 612.666,86.4571 622.5,87C 624.18,87.3468 625.18,88.3468 625.5,90C 624.618,92.2623 623.618,94.429 622.5,96.5C 622.76,98.1871 623.427,99.6871 624.5,101C 633.063,105.248 642.063,108.248 651.5,110C 654.904,112.062 656.57,115.062 656.5,119C 656.001,122.49 655.668,125.99 655.5,129.5C 659.586,129.884 663.586,130.717 667.5,132C 671.2,136.035 675.2,139.702 679.5,143C 688.869,143.897 698.203,145.064 707.5,146.5C 708.5,146.167 709.5,145.833 710.5,145.5C 715.271,133.897 723.271,125.397 734.5,120C 738.042,119.149 741.375,119.649 744.5,121.5C 754.219,115.043 764.552,113.877 775.5,118C 777.049,119.214 778.215,120.714 779,122.5C 782.967,120.614 787.134,120.114 791.5,121C 795.063,122.698 798.563,124.532 802,126.5C 906.668,89.1892 1011.33,89.1892 1116,126.5C 1123.28,120.51 1131.28,119.176 1140,122.5C 1141.7,118.795 1144.53,116.628 1148.5,116C 1157.99,114.125 1166.66,115.959 1174.5,121.5C 1177.21,119.564 1180.21,119.064 1183.5,120C 1195.34,125.005 1203.67,133.505 1208.5,145.5C 1209.5,145.833 1210.5,146.167 1211.5,146.5C 1220.35,144.296 1229.35,143.129 1238.5,143C 1243.42,140.084 1247.75,136.418 1251.5,132C 1255.3,130.217 1259.3,129.384 1263.5,129.5C 1262.78,124.511 1262.61,119.511 1263,114.5C 1264.94,111.894 1267.44,110.061 1270.5,109C 1278.78,107.127 1286.78,104.461 1294.5,101C 1295.57,99.6871 1296.24,98.1871 1296.5,96.5C 1295.38,94.429 1294.38,92.2623 1293.5,90C 1293.82,88.3468 1294.82,87.3468 1296.5,87C 1305.56,86.5104 1314.23,88.1771 1322.5,92C 1324.61,93.1411 1326.44,94.6411 1328,96.5C 1327.85,99.8403 1327.35,103.174 1326.5,106.5C 1334.91,106.622 1343.25,107.122 1351.5,108C 1352,107.5 1352.5,107 1353,106.5C 1353.43,102.452 1353.43,98.4522 1353,94.5C 1362.39,93.5136 1370.89,96.0136 1378.5,102C 1388.05,110.977 1387.71,119.644 1377.5,128C 1380.41,131.151 1383.07,134.484 1385.5,138C 1394.72,139.116 1399.22,134.949 1399,125.5C 1401.89,122.918 1404.73,123.084 1407.5,126C 1418.6,136.581 1421.77,149.081 1417,163.5C 1414.03,167.316 1410.2,169.65 1405.5,170.5C 1407.02,175.706 1407.85,181.039 1408,186.5C 1415.55,189.662 1421.39,187.495 1425.5,180C 1426.5,179.333 1427.5,179.333 1428.5,180C 1437.18,192.007 1438.68,204.84 1433,218.5C 1428.09,224.972 1421.59,227.305 1413.5,225.5C 1413.33,230.844 1413.5,236.177 1414,241.5C 1419.83,246.803 1425.66,246.636 1431.5,241C 1432.79,240.51 1434.13,240.343 1435.5,240.5C 1439.01,253.306 1437.85,265.639 1432,277.5C 1430.68,279.487 1428.85,280.654 1426.5,281C 1421.9,282.024 1417.57,281.524 1413.5,279.5C 1404.94,296.572 1409.61,301.572 1427.5,294.5C 1428.17,294.833 1428.83,295.167 1429.5,295.5C 1430.79,306.35 1428.29,316.35 1422,325.5C 1414.93,331.942 1407.77,332.109 1400.5,326C 1399.21,325.51 1397.87,325.343 1396.5,325.5C 1394.85,335.365 1395.68,345.032 1399,354.5C 1401.58,361.043 1406.41,363.877 1413.5,363C 1417.14,365.845 1417.31,369.012 1414,372.5C 1406.56,380.47 1397.39,384.47 1386.5,384.5C 1390.27,410.043 1399.1,433.71 1413,455.5C 1425.84,469.832 1436.17,485.832 1444,503.5C 1445.61,508.407 1446.78,513.407 1447.5,518.5 Z"/></g>
<g><path style="opacity:1" fill="#c12726" d="M 606.5,97.5 C 608.167,97.5 609.833,97.5 611.5,97.5C 610.7,102.126 612.034,105.96 615.5,109C 623.835,114.169 632.835,117.669 642.5,119.5C 643.205,122.089 643.205,124.756 642.5,127.5C 629.781,127.102 617.114,127.602 604.5,129C 599.407,130.104 595.407,132.771 592.5,137C 587.133,137.403 581.799,138.07 576.5,139C 567.516,141.459 564.016,147.292 566,156.5C 567.861,162.223 571.194,166.89 576,170.5C 576.167,171.5 576.333,172.5 576.5,173.5C 574.976,179.574 573.143,185.574 571,191.5C 569.107,204.158 572.94,214.658 582.5,223C 590.412,227.306 598.746,230.639 607.5,233C 613.138,238.15 619.138,242.817 625.5,247C 632.733,248.557 640.066,249.39 647.5,249.5C 655.163,248.762 662.83,248.595 670.5,249C 673.273,251.383 675.439,254.217 677,257.5C 676.35,271.436 680.516,283.602 689.5,294C 692.228,296.392 695.228,298.392 698.5,300C 701.868,300.543 705.201,300.376 708.5,299.5C 708.895,305.107 707.228,309.941 703.5,314C 700.793,314.328 698.126,313.995 695.5,313C 692.904,311.102 690.237,309.269 687.5,307.5C 685.5,314.667 683,321.667 680,328.5C 677.877,334.969 678.21,341.303 681,347.5C 682.419,350.296 684.585,352.296 687.5,353.5C 683.733,359.645 678.4,361.645 671.5,359.5C 668.613,353.33 665.447,347.33 662,341.5C 654.057,335.074 645.224,333.74 635.5,337.5C 632.451,346.225 631.284,355.225 632,364.5C 632.846,371.272 634.179,377.939 636,384.5C 637.556,387.898 639.723,390.898 642.5,393.5C 632.277,396.963 624.777,393.963 620,384.5C 619.31,375.984 619.477,367.484 620.5,359C 619.24,342.049 610.574,336.049 594.5,341C 591.469,343.559 589.302,346.726 588,350.5C 583.659,362.563 582.326,374.897 584,387.5C 585.814,388.851 585.481,389.851 583,390.5C 575.582,389.414 571.082,385.247 569.5,378C 570.618,370.36 572.452,362.86 575,355.5C 577.489,339.994 570.989,332.828 555.5,334C 553.246,335.377 551.08,336.877 549,338.5C 545.415,346.92 542.415,355.586 540,364.5C 538.789,367.759 536.956,370.592 534.5,373C 529.743,373.81 525.076,373.476 520.5,372C 519.643,371.311 518.977,370.478 518.5,369.5C 526.756,364.522 531.256,357.189 532,347.5C 533.136,338.327 532.469,329.327 530,320.5C 526.345,315.725 521.512,314.225 515.5,316C 505.631,322.004 499.964,319.171 498.5,307.5C 510.756,308.897 517.756,303.564 519.5,291.5C 517.178,282.848 514.845,274.181 512.5,265.5C 507.701,268.975 502.368,270.975 496.5,271.5C 493.82,270.844 491.986,269.178 491,266.5C 489.501,262.527 489.334,258.527 490.5,254.5C 499.404,257.923 506.904,255.923 513,248.5C 513.918,245.402 514.418,242.235 514.5,239C 513.354,230.817 513.188,222.651 514,214.5C 507.619,214.503 501.119,214.336 494.5,214C 493.213,212.59 492.046,211.09 491,209.5C 490.352,204.796 490.519,200.129 491.5,195.5C 501.736,201.776 510.903,200.442 519,191.5C 520.141,184.559 521.141,177.559 522,170.5C 522.892,167.716 524.058,165.05 525.5,162.5C 521.701,160.907 517.701,160.074 513.5,160C 509.956,158.461 507.956,155.794 507.5,152C 507.68,147.228 509.346,143.061 512.5,139.5C 516.38,145.616 522.046,148.949 529.5,149.5C 532.197,148.768 534.864,147.934 537.5,147C 541.05,143.117 544.217,138.951 547,134.5C 549.925,132.286 552.759,129.953 555.5,127.5C 550.62,124.298 546.453,120.298 543,115.5C 544.388,110.59 547.555,106.923 552.5,104.5C 554.315,112.651 559.315,117.317 567.5,118.5C 581.086,115.759 594.753,114.926 608.5,116C 604.744,111.343 602.577,106.176 602,100.5C 603.652,99.6006 605.152,98.6006 606.5,97.5 Z"/></g>
<g><path style="opacity:1" fill="#c12726" d="M 1306.5,98.5 C 1310.84,98.1389 1313.84,99.8056 1315.5,103.5C 1314.44,108.118 1312.44,112.285 1309.5,116C 1324.53,116.639 1339.53,117.306 1354.5,118C 1360.31,115.898 1363.31,111.731 1363.5,105.5C 1370.15,106.967 1373.65,110.967 1374,117.5C 1370.42,121.752 1366.25,125.252 1361.5,128C 1364.94,130.139 1368.11,132.639 1371,135.5C 1373.78,139.951 1376.95,144.117 1380.5,148C 1390.72,151.874 1398.89,149.374 1405,140.5C 1410.31,146.473 1410.81,152.807 1406.5,159.5C 1401.64,160.993 1396.64,161.993 1391.5,162.5C 1395.86,170.196 1397.69,178.529 1397,187.5C 1400.87,197.352 1408.04,201.185 1418.5,199C 1421.12,198.177 1423.46,197.177 1425.5,196C 1426.63,200.748 1426.8,205.581 1426,210.5C 1425.22,212.286 1424.05,213.786 1422.5,215C 1416.14,215.653 1409.8,215.487 1403.5,214.5C 1403.78,223.535 1403.45,232.535 1402.5,241.5C 1403.01,249.847 1407.35,255.014 1415.5,257C 1419.85,256.944 1424.18,256.444 1428.5,255.5C 1429.21,262.377 1427.04,268.044 1422,272.5C 1415.97,270.991 1410.14,268.991 1404.5,266.5C 1403.56,274.05 1401.73,281.383 1399,288.5C 1397.98,302.311 1404.48,308.644 1418.5,307.5C 1419.02,314.13 1416.18,318.464 1410,320.5C 1406.52,319.033 1403.02,317.533 1399.5,316C 1392.3,315.185 1387.8,318.352 1386,325.5C 1383.18,339.257 1385.18,352.257 1392,364.5C 1393.94,367.106 1396.44,368.939 1399.5,370C 1394.42,374.344 1388.76,375.344 1382.5,373C 1380.38,371.269 1378.88,369.102 1378,366.5C 1375,357.488 1372,348.488 1369,339.5C 1360.95,331.518 1352.95,331.518 1345,339.5C 1342.54,345.245 1341.87,351.245 1343,357.5C 1346.45,365.169 1347.78,373.169 1347,381.5C 1344.33,388.082 1339.5,390.915 1332.5,390C 1333.19,388.933 1333.69,387.766 1334,386.5C 1335.49,372.959 1333.49,359.959 1328,347.5C 1324.16,340.547 1318.32,338.047 1310.5,340C 1303.72,342.06 1299.55,346.56 1298,353.5C 1297.52,361.173 1297.69,368.84 1298.5,376.5C 1297.92,391.238 1290.25,397.405 1275.5,395C 1275.04,394.586 1274.71,394.086 1274.5,393.5C 1276.76,392.3 1278.6,390.633 1280,388.5C 1286.19,372.088 1287.02,355.422 1282.5,338.5C 1276.28,336.65 1269.95,336.15 1263.5,337C 1259.73,338.769 1256.57,341.269 1254,344.5C 1251.37,349.59 1248.87,354.757 1246.5,360C 1239.47,362.984 1234.14,361.15 1230.5,354.5C 1233.16,352.67 1235.33,350.337 1237,347.5C 1238.38,341.891 1238.72,336.225 1238,330.5C 1234.73,323.032 1232.07,315.365 1230,307.5C 1225.46,312.529 1219.96,314.863 1213.5,314.5C 1210.35,310.378 1209.02,305.711 1209.5,300.5C 1215.97,302.178 1221.64,300.678 1226.5,296C 1232.02,290.826 1235.86,284.659 1238,277.5C 1238.64,270.763 1239.64,264.096 1241,257.5C 1242.09,253.818 1244.25,250.984 1247.5,249C 1262.18,249.965 1276.85,249.631 1291.5,248C 1298.78,243.058 1305.78,237.725 1312.5,232C 1329.8,230.461 1341.3,221.628 1347,205.5C 1347.67,201.5 1347.67,197.5 1347,193.5C 1343.9,186.116 1342.24,178.449 1342,170.5C 1348.37,166.088 1351.87,160.088 1352.5,152.5C 1351.9,146.114 1348.56,141.948 1342.5,140C 1336.51,139.091 1330.51,138.257 1324.5,137.5C 1323.96,136.252 1323.29,135.085 1322.5,134C 1319.58,132.472 1316.58,131.139 1313.5,130C 1300.65,127.95 1287.81,127.117 1275,127.5C 1274.69,125.444 1274.19,123.444 1273.5,121.5C 1273.83,121.167 1274.17,120.833 1274.5,120.5C 1283.68,118.546 1292.34,115.379 1300.5,111C 1304.6,107.763 1306.6,103.596 1306.5,98.5 Z"/></g>
<g><path style="opacity:1" fill="#ede235" d="M 943.5,115.5 C 1002.47,114.105 1059.47,123.939 1114.5,145C 1118.97,150.468 1123.8,155.635 1129,160.5C 1129.49,162.134 1129.66,163.801 1129.5,165.5C 1116.14,168.916 1110.97,177.249 1114,190.5C 1116.03,193.909 1118.53,196.909 1121.5,199.5C 1118.23,209.464 1115.07,219.464 1112,229.5C 1105.35,230.163 1099.35,232.496 1094,236.5C 1089.62,242.566 1088.46,249.232 1090.5,256.5C 1089.27,259.238 1087.44,261.571 1085,263.5C 1081.04,271.553 1079.54,279.886 1080.5,288.5C 1021.31,261.252 959.647,254.418 895.5,268C 874.799,273.123 854.799,279.789 835.5,288C 838.852,276.779 836.352,266.946 828,258.5C 830.889,240.573 823.389,231.24 805.5,230.5C 802.739,220.296 799.739,210.129 796.5,200C 798.986,196.844 801.486,193.678 804,190.5C 806.925,182.969 805.425,176.469 799.5,171C 796.14,168.454 792.474,166.621 788.5,165.5C 788.372,163.345 788.872,161.345 790,159.5C 794.723,155.28 798.89,150.613 802.5,145.5C 847.802,127.624 894.802,117.624 943.5,115.5 Z"/></g>
<g><path style="opacity:1" fill="#c02726" d="M 755.5,126.5 C 758.833,126.5 762.167,126.5 765.5,126.5C 762.774,131.254 760.441,136.254 758.5,141.5C 760.478,149.324 764.311,150.324 770,144.5C 772.05,139.455 775.216,135.288 779.5,132C 784.436,130.877 788.936,131.71 793,134.5C 793.738,137.212 793.071,139.545 791,141.5C 784.374,146.449 779.708,152.783 777,160.5C 776.333,164.5 776.333,168.5 777,172.5C 783.028,174.118 788.528,176.785 793.5,180.5C 794.428,181.768 794.595,183.101 794,184.5C 785.77,191.364 777.27,197.864 768.5,204C 765.833,204.667 763.167,204.667 760.5,204C 758.083,202.374 755.583,200.874 753,199.5C 733.5,214.826 722,234.826 718.5,259.5C 709.272,264.532 699.772,268.865 690,272.5C 689.202,263.593 686.702,255.26 682.5,247.5C 701.17,248.989 711.503,240.489 713.5,222C 713.265,221.127 712.931,220.293 712.5,219.5C 699.517,218.501 686.517,218.168 673.5,218.5C 673.5,215.5 673.5,212.5 673.5,209.5C 687.526,209.088 701.526,209.088 715.5,209.5C 722.199,208.483 725.366,204.483 725,197.5C 725.333,192.833 725.667,188.167 726,183.5C 731.564,174.682 733.397,165.182 731.5,155C 727.293,153.461 723.293,151.627 719.5,149.5C 722.87,142.962 727.203,137.128 732.5,132C 734.167,131.333 735.833,131.333 737.5,132C 734.558,136.645 734.892,140.978 738.5,145C 740.913,145.484 743.246,145.15 745.5,144C 747.387,140.341 748.887,136.508 750,132.5C 751.174,129.762 753.007,127.762 755.5,126.5 Z"/></g>
<g><path style="opacity:1" fill="#c12726" d="M 1151.5,126.5 C 1162.93,125.661 1169.1,130.994 1170,142.5C 1173.11,146.151 1176.61,146.485 1180.5,143.5C 1181.91,139.516 1181.57,135.683 1179.5,132C 1182.02,131.743 1184.35,132.41 1186.5,134C 1190.91,138.812 1194.57,144.145 1197.5,150C 1193.62,151.853 1189.62,153.52 1185.5,155C 1183.47,165.524 1185.3,175.357 1191,184.5C 1191.29,191.208 1191.96,197.875 1193,204.5C 1193.78,206.286 1194.95,207.786 1196.5,209C 1211.84,209.654 1227.18,210.488 1242.5,211.5C 1242.71,212.086 1243.04,212.586 1243.5,213C 1242.83,214.751 1242.49,216.417 1242.5,218C 1229.42,217.861 1216.59,218.695 1204,220.5C 1203.8,230.89 1207.96,239.056 1216.5,245C 1222.28,245.762 1227.94,246.928 1233.5,248.5C 1230.24,256.218 1227.9,264.218 1226.5,272.5C 1217.13,268.984 1208.13,264.651 1199.5,259.5C 1196.27,235.193 1184.94,215.693 1165.5,201C 1162.3,201.086 1159.3,202.086 1156.5,204C 1153.83,204.667 1151.17,204.667 1148.5,204C 1139.38,198.2 1130.88,191.7 1123,184.5C 1122.38,182.536 1122.88,180.869 1124.5,179.5C 1129.43,177.183 1134.43,175.017 1139.5,173C 1141.19,166.222 1140.35,159.722 1137,153.5C 1133.24,148.952 1129.24,144.618 1125,140.5C 1122.94,137.955 1123.1,135.621 1125.5,133.5C 1133.64,130.604 1140.14,132.604 1145,139.5C 1146.31,141.955 1147.48,144.455 1148.5,147C 1156.21,149.632 1159.38,146.799 1158,138.5C 1155.13,134.817 1152.96,130.817 1151.5,126.5 Z"/></g>
<g><path style="opacity:1" fill="#c12726" d="M 664.5,228.5 C 676.833,229.167 689.167,229.833 701.5,230.5C 700.972,231.721 700.305,232.887 699.5,234C 696.167,234.667 692.833,235.333 689.5,236C 669.853,237.439 650.186,237.772 630.5,237C 624.338,232.173 618.171,227.339 612,222.5C 604.445,220.328 597.112,217.662 590,214.5C 583.807,209.916 580.64,203.749 580.5,196C 584.245,187.026 586.912,177.693 588.5,168C 588.167,166.833 587.833,165.667 587.5,164.5C 583.894,162.397 580.727,159.731 578,156.5C 575.319,152.045 576.486,149.212 581.5,148C 587.528,147.83 593.528,147.33 599.5,146.5C 601.832,140.677 606.166,137.843 612.5,138C 628.592,136.891 644.592,137.558 660.5,140C 664.578,144.749 669.245,148.749 674.5,152C 685.534,153.291 696.534,154.957 707.5,157C 712.403,158.704 717.237,160.537 722,162.5C 722.882,169.416 720.882,175.416 716,180.5C 715.949,186.339 715.783,192.339 715.5,198.5C 698.51,199.222 681.51,199.555 664.5,199.5C 664.5,209.167 664.5,218.833 664.5,228.5 Z"/></g>
<g><path style="opacity:1" fill="#c12726" d="M 1280.5,137.5 C 1290.95,137.039 1301.28,137.872 1311.5,140C 1315.18,141.837 1317.51,144.67 1318.5,148.5C 1320.14,148.714 1321.64,148.38 1323,147.5C 1329.07,148.044 1335.07,149.044 1341,150.5C 1341.67,152.167 1341.67,153.833 1341,155.5C 1337.66,159.174 1333.99,162.508 1330,165.5C 1329.83,166.667 1329.67,167.833 1329.5,169C 1331.31,179.081 1333.98,188.914 1337.5,198.5C 1336.44,208.059 1331.44,214.559 1322.5,218C 1316.75,219.416 1311.08,221.083 1305.5,223C 1299.21,227.623 1293.21,232.623 1287.5,238C 1264.72,239.168 1242.05,238.168 1219.5,235C 1218.13,233.758 1217.13,232.258 1216.5,230.5C 1228.82,229.501 1241.15,229.168 1253.5,229.5C 1253.5,219.833 1253.5,210.167 1253.5,200.5C 1238.45,200.411 1223.45,199.744 1208.5,198.5C 1206.59,199.348 1204.59,199.682 1202.5,199.5C 1201.85,193.19 1201.35,186.857 1201,180.5C 1196.78,175.101 1195.28,169.101 1196.5,162.5C 1210.09,157.549 1224.09,154.716 1238.5,154C 1241.24,153.197 1243.91,152.197 1246.5,151C 1249.81,147.694 1253.14,144.36 1256.5,141C 1264.57,139.315 1272.57,138.148 1280.5,137.5 Z"/></g>
<g><path style="opacity:1" fill="#201e20" d="M 970.5,148.5 C 994.076,147.401 1006.74,158.734 1008.5,182.5C 1009.01,194.624 1006.51,206.291 1001,217.5C 989.602,231.55 975.769,234.383 959.5,226C 953.624,221.12 949.791,214.953 948,207.5C 945.509,194.316 946.176,181.316 950,168.5C 954.106,158.893 960.939,152.226 970.5,148.5 Z"/></g>
<g><path style="opacity:1" fill="#231d20" d="M 642.5,149.5 C 651.361,149.568 658.361,153.235 663.5,160.5C 654.494,165.667 644.827,167.833 634.5,167C 633.161,159.46 635.828,153.627 642.5,149.5 Z"/></g>
<g><path style="opacity:1" fill="#221d20" d="M 1267.5,149.5 C 1278.99,149.535 1284.33,155.201 1283.5,166.5C 1273.16,167.831 1263.49,165.831 1254.5,160.5C 1258,155.656 1262.33,151.989 1267.5,149.5 Z"/></g>
<g><path style="opacity:1" fill="#211f20" d="M 895.5,152.5 C 908.781,150.274 919.615,154.274 928,164.5C 936.282,180.076 937.282,196.076 931,212.5C 924.442,224.206 914.609,231.706 901.5,235C 896.898,236.122 892.232,236.622 887.5,236.5C 887.414,232.143 887.08,227.81 886.5,223.5C 902.775,223.205 913.442,215.371 918.5,200C 918.333,199.5 918.167,199 918,198.5C 909.941,206.073 900.441,208.573 889.5,206C 874.711,199.007 869.545,187.507 874,171.5C 878.558,162.103 885.725,155.769 895.5,152.5 Z"/></g>
<g><path style="opacity:1" fill="#b72826" d="M 644.5,155.5 C 647.226,155.264 649.559,156.097 651.5,158C 647.901,159.309 644.401,160.809 641,162.5C 640.833,162 640.667,161.5 640.5,161C 641.967,159.218 643.301,157.385 644.5,155.5 Z"/></g>
<g><path style="opacity:1" fill="#ac2925" d="M 1268.5,155.5 C 1272.27,154.822 1275.11,156.156 1277,159.5C 1277.75,160.635 1277.58,161.635 1276.5,162.5C 1272.68,161.284 1269.01,159.784 1265.5,158C 1266.94,157.623 1267.94,156.79 1268.5,155.5 Z"/></g>
<g><path style="opacity:1" fill="#ebe035" d="M 973.5,161.5 C 981.69,160.195 986.856,163.528 989,171.5C 991.459,183.688 990.793,195.688 987,207.5C 984.832,215.664 979.666,218.83 971.5,217C 965.655,210.133 962.989,202.133 963.5,193C 962.615,181.006 965.948,170.506 973.5,161.5 Z"/></g>
<g><path style="opacity:1" fill="#211f20" d="M 1060.5,162.5 C 1067.22,163.686 1073.88,165.186 1080.5,167C 1081.52,167.519 1082.18,168.353 1082.5,169.5C 1078.04,184.33 1074.38,199.33 1071.5,214.5C 1075.06,214.405 1078.06,215.572 1080.5,218C 1079.08,221.747 1077.92,225.581 1077,229.5C 1073.6,228.199 1070.1,227.199 1066.5,226.5C 1065.72,233.063 1064.05,239.396 1061.5,245.5C 1056.02,243.966 1050.68,242.133 1045.5,240C 1048.11,234.116 1049.78,227.949 1050.5,221.5C 1039.43,218.979 1028.43,216.146 1017.5,213C 1016.48,212.481 1015.82,211.647 1015.5,210.5C 1016.18,207.456 1017.01,204.456 1018,201.5C 1032.36,188.634 1046.53,175.634 1060.5,162.5 Z"/></g>
<g><path style="opacity:1" fill="#211f20" d="M 850.5,163.5 C 852.776,163.756 853.943,165.09 854,167.5C 861.327,191.813 868.494,216.147 875.5,240.5C 870.508,241.83 865.508,243.163 860.5,244.5C 859.914,244.291 859.414,243.957 859,243.5C 852.789,224.107 846.955,204.607 841.5,185C 841.15,183.743 840.483,183.409 839.5,184C 835.985,187.682 832.318,191.182 828.5,194.5C 826.352,190.737 824.019,187.07 821.5,183.5C 826.292,179.209 830.959,174.709 835.5,170C 840.29,167.133 845.29,164.967 850.5,163.5 Z"/></g>
<g><path style="opacity:1" fill="#ece134" d="M 897.5,165.5 C 911.348,164.853 917.515,171.52 916,185.5C 911.395,193.214 904.895,195.381 896.5,192C 889.862,185.857 888.696,178.69 893,170.5C 894.517,168.76 896.017,167.094 897.5,165.5 Z"/></g>
<g><path style="opacity:1" fill="#eadf34" d="M 1062.5,176.5 C 1063.04,176.56 1063.38,176.893 1063.5,177.5C 1060.36,187.405 1057.52,197.405 1055,207.5C 1054.11,208.081 1053.11,208.415 1052,208.5C 1046.8,207.126 1041.63,205.626 1036.5,204C 1036.17,203.667 1035.83,203.333 1035.5,203C 1045.67,195.331 1054.67,186.498 1062.5,176.5 Z"/></g>
<g><path style="opacity:1" fill="#f9f8f8" d="M 779.5,209.5 C 780.496,209.414 781.329,209.748 782,210.5C 784.279,217.833 786.445,225.166 788.5,232.5C 769.127,236.346 750.627,242.68 733,251.5C 735.198,236.614 742.031,224.114 753.5,214C 763.072,218.217 771.738,216.717 779.5,209.5 Z"/></g>
<g><path style="opacity:1" fill="#f7f7f6" d="M 1135.5,209.5 C 1139.73,212.448 1144.4,214.615 1149.5,216C 1153.92,216.976 1158.08,216.476 1162,214.5C 1163.22,214.862 1164.39,215.362 1165.5,216C 1176.21,226.125 1182.54,238.291 1184.5,252.5C 1166.69,244.093 1148.36,237.093 1129.5,231.5C 1132.12,224.319 1134.12,216.986 1135.5,209.5 Z"/></g>
<g><path style="opacity:1" fill="#5e2823" d="M 664.5,228.5 C 677.184,228.168 689.851,228.501 702.5,229.5C 702.376,230.107 702.043,230.44 701.5,230.5C 689.167,229.833 676.833,229.167 664.5,228.5 Z"/></g>
<g><path style="opacity:1" fill="#c12726" d="M 803.5,241.5 C 807.201,242.09 810.867,242.923 814.5,244C 816.113,246.228 816.78,248.728 816.5,251.5C 810.87,250.479 805.204,250.313 799.5,251C 796.575,254.696 796.908,258.029 800.5,261C 811.239,260.448 819.405,264.615 825,273.5C 825.854,277.625 825.52,281.625 824,285.5C 822.274,286.576 820.441,286.743 818.5,286C 815.121,279.117 809.788,274.617 802.5,272.5C 797.922,273.818 796.422,276.818 798,281.5C 802.384,284.217 805.718,287.884 808,292.5C 809.293,296.582 808.126,299.749 804.5,302C 800.833,302.667 797.167,302.667 793.5,302C 789.033,300.401 784.866,298.234 781,295.5C 775.771,297.132 770.604,298.965 765.5,301C 759.539,301.997 753.539,302.663 747.5,303C 732.89,320.373 720.39,339.207 710,359.5C 702.443,371.723 694.109,383.39 685,394.5C 679.346,400.489 672.846,405.323 665.5,409C 656.891,411.805 648.891,410.805 641.5,406C 646.088,404.306 650.421,402.14 654.5,399.5C 660.677,393.541 659.677,389.541 651.5,387.5C 645.659,378.979 642.992,369.479 643.5,359C 643.679,355.142 644.013,351.309 644.5,347.5C 649.543,346.431 653.377,348.097 656,352.5C 658.022,358.43 660.855,363.93 664.5,369C 676.784,375.272 687.284,373.105 696,362.5C 697.076,359.352 698.409,356.352 700,353.5C 700.497,350.854 700.664,348.187 700.5,345.5C 691.336,345.142 688.17,340.475 691,331.5C 692.266,328.534 693.433,325.534 694.5,322.5C 701.629,327.173 707.796,326.173 713,319.5C 718.113,310.491 720.113,300.824 719,290.5C 718.573,287.058 716.74,285.558 713.5,286C 707.859,290.775 702.359,290.608 697,285.5C 696.333,284.833 696.333,284.167 697,283.5C 712.661,276.086 728.161,268.253 743.5,260C 762.83,251.14 782.83,244.974 803.5,241.5 Z"/></g>
<g><path style="opacity:1" fill="#c12726" d="M 1106.5,242.5 C 1115.6,242.207 1124.6,243.04 1133.5,245C 1141.49,247.663 1149.49,250.33 1157.5,253C 1178.62,262.727 1199.62,272.727 1220.5,283C 1221.45,283.718 1221.62,284.551 1221,285.5C 1214.86,290.673 1208.69,290.673 1202.5,285.5C 1199.3,287.568 1197.97,290.568 1198.5,294.5C 1198.64,303.394 1200.81,311.727 1205,319.5C 1210.36,324.924 1216.53,325.924 1223.5,322.5C 1224.52,325.599 1225.69,328.599 1227,331.5C 1229.5,340.181 1226.34,344.847 1217.5,345.5C 1217.3,357.12 1222.3,365.62 1232.5,371C 1241.56,373.991 1249.39,372.158 1256,365.5C 1258.51,359.25 1261.67,353.417 1265.5,348C 1268.15,347.503 1270.81,347.336 1273.5,347.5C 1275.54,360.298 1274.04,372.631 1269,384.5C 1266.71,387.062 1263.88,388.729 1260.5,389.5C 1259.73,394.153 1261.4,397.986 1265.5,401C 1269.05,402.941 1272.71,404.607 1276.5,406C 1268.84,412.067 1260.5,413.067 1251.5,409C 1242.18,403.916 1234.35,397.083 1228,388.5C 1212.67,366.509 1198.33,343.842 1185,320.5C 1180.88,314.709 1176.38,309.209 1171.5,304C 1159.36,302.881 1147.69,300.048 1136.5,295.5C 1129.56,301.814 1121.56,303.814 1112.5,301.5C 1108.99,292.87 1111.49,286.537 1120,282.5C 1122.65,277.123 1120.98,273.79 1115,272.5C 1108.23,275.599 1103.07,280.432 1099.5,287C 1094.55,287.514 1092.22,285.18 1092.5,280C 1094.55,267.114 1102.21,261.114 1115.5,262C 1119.73,260.713 1121.23,257.88 1120,253.5C 1119.1,252.299 1117.93,251.465 1116.5,251C 1111.37,250.292 1106.37,250.792 1101.5,252.5C 1100.63,247.748 1102.3,244.415 1106.5,242.5 Z"/></g>
<g><path style="opacity:1" fill="#c02726" d="M 1491.5,253.5 C 1505.42,252.412 1518.09,255.745 1529.5,263.5C 1526.81,266.354 1524.31,269.354 1522,272.5C 1517.66,282.879 1513.32,293.212 1509,303.5C 1507.2,305.317 1505.03,306.484 1502.5,307C 1497.47,307.171 1492.47,307.671 1487.5,308.5C 1478.72,334.853 1479.56,360.853 1490,386.5C 1499.3,402.783 1508.97,418.783 1519,434.5C 1534.85,463.46 1535.51,492.793 1521,522.5C 1501.61,550.288 1475.45,560.788 1442.5,554C 1444.43,549.721 1446.43,545.555 1448.5,541.5C 1472.35,544.162 1492.52,536.828 1509,519.5C 1518.48,505.237 1522.15,489.57 1520,472.5C 1517.57,457.547 1512.57,443.547 1505,430.5C 1497.33,418.167 1489.67,405.833 1482,393.5C 1472.94,373.065 1469.94,351.732 1473,329.5C 1473.94,322.78 1475.1,316.113 1476.5,309.5C 1476.17,308.167 1475.83,306.833 1475.5,305.5C 1465.03,299.959 1461.2,291.293 1464,279.5C 1468.24,265.422 1477.41,256.755 1491.5,253.5 Z"/></g>
<g><path style="opacity:1" fill="#bf2726" d="M 411.5,254.5 C 435.85,251.146 450.516,261.313 455.5,285C 454.982,289.965 453.816,294.798 452,299.5C 448.77,302.531 445.27,305.197 441.5,307.5C 447.59,331.793 447.757,356.126 442,380.5C 436.07,396.07 428.07,410.403 418,423.5C 412.12,434.592 406.787,445.925 402,457.5C 395.69,477.081 397.023,496.081 406,514.5C 419.321,533.747 437.821,543.413 461.5,543.5C 464.797,542.504 468.131,542.337 471.5,543C 473.064,547.19 474.731,551.356 476.5,555.5C 438.106,562.386 410.272,548.386 393,513.5C 386.08,493.257 385.747,472.924 392,452.5C 395.214,443.74 399.214,435.406 404,427.5C 412.658,414.015 420.991,400.348 429,386.5C 439.299,361.151 440.132,335.484 431.5,309.5C 425.47,308.808 419.47,307.975 413.5,307C 409.961,305.093 407.461,302.26 406,298.5C 403.352,288.211 399.352,278.544 394,269.5C 392.316,267.649 390.483,265.982 388.5,264.5C 395.349,259.241 403.016,255.908 411.5,254.5 Z"/></g>
<g><path style="opacity:1" fill="#fdfdfc" d="M 934.5,287.5 C 1028.52,282.414 1105.02,316.081 1164,388.5C 1221.17,469.381 1231.51,556.047 1195,648.5C 1152.75,737.719 1082.59,788.885 984.5,802C 891.972,808.639 816.139,776.473 757,705.5C 705.024,636.015 689.691,559.015 711,474.5C 741.816,379.014 805.649,318.514 902.5,293C 913.308,291.155 923.975,289.322 934.5,287.5 Z"/></g>
<g><path style="opacity:1" fill="#fbfbfb" d="M 776.5,309.5 C 778.199,309.34 779.866,309.506 781.5,310C 784.949,312.059 788.616,313.559 792.5,314.5C 710.572,377.037 671.738,460.037 676,563.5C 684.09,654.546 724.924,726.713 798.5,780C 805.167,784 811.833,788 818.5,792C 813.244,791.024 807.911,790.024 802.5,789C 759.858,776.923 716.858,766.256 673.5,757C 682.205,754.296 687.371,748.462 689,739.5C 691.119,707.279 675.952,690.445 643.5,689C 625.007,679.998 608.507,668.165 594,653.5C 590.918,650.021 589.585,646.021 590,641.5C 591.5,640 593,638.5 594.5,637C 605.167,630.667 615.833,624.333 626.5,618C 637.507,610.664 646.007,601.164 652,589.5C 658.413,570.939 656.079,553.606 645,537.5C 632.421,526.139 617.588,520.806 600.5,521.5C 601.48,507.058 606.314,494.058 615,482.5C 618.667,477.833 622.333,473.167 626,468.5C 637,458.167 648,447.833 659,437.5C 662.834,432.503 666.167,427.17 669,421.5C 686.618,411.549 700.618,397.883 711,380.5C 723.416,359.999 736.083,339.665 749,319.5C 750.543,317.622 752.376,316.122 754.5,315C 762.326,314.608 769.659,312.774 776.5,309.5 Z"/></g>
<g><path style="opacity:1" fill="#fbfbfb" d="M 1136.5,309.5 C 1145.97,312.362 1155.64,314.529 1165.5,316C 1166.33,316.833 1167.17,317.667 1168,318.5C 1183.94,344.102 1200.27,369.436 1217,394.5C 1225.9,406.401 1236.9,415.735 1250,422.5C 1256.97,436.141 1266.81,447.308 1279.5,456C 1295.24,469.734 1307.07,486.234 1315,505.5C 1316.38,510.755 1317.21,516.088 1317.5,521.5C 1278.91,521.251 1260.74,540.251 1263,578.5C 1267.43,595.27 1276.93,608.436 1291.5,618C 1302.17,624.333 1312.83,630.667 1323.5,637C 1327.37,639.162 1328.87,642.328 1328,646.5C 1324.63,652.871 1320.13,658.371 1314.5,663C 1301.49,673.509 1287.49,682.509 1272.5,690C 1240.96,691.601 1226.46,708.101 1229,739.5C 1230.66,748.488 1235.82,754.321 1244.5,757C 1196.98,766.63 1149.98,778.297 1103.5,792C 1102.17,792.667 1100.83,792.667 1099.5,792C 1183.94,741.014 1231.44,666.181 1242,567.5C 1246.92,462.691 1208.09,378.358 1125.5,314.5C 1129.52,313.393 1133.18,311.726 1136.5,309.5 Z"/></g>
<g><path style="opacity:1" fill="#201e20" d="M 983.5,393.5 C 963.5,393.5 943.5,393.5 923.5,393.5C 923.5,367.5 923.5,341.5 923.5,315.5C 941.662,314.338 959.995,314.171 978.5,315C 995.393,318.264 1002.23,328.431 999,345.5C 998.227,348.211 997.06,350.711 995.5,353C 1005.43,366.189 1004.43,378.523 992.5,390C 989.516,391.271 986.516,392.438 983.5,393.5 Z"/></g>
<g><path style="opacity:1" fill="#f8f7f7" d="M 941.5,332.5 C 953.505,332.333 965.505,332.5 977.5,333C 982.818,337.049 982.818,341.049 977.5,345C 965.505,345.5 953.505,345.667 941.5,345.5C 941.5,341.167 941.5,336.833 941.5,332.5 Z"/></g>
<g><path style="opacity:1" fill="#c22726" d="M 559.5,344.5 C 563.894,344.054 565.56,346.054 564.5,350.5C 563.826,357.039 562.326,363.372 560,369.5C 558.138,392.627 568.638,402.793 591.5,400C 593.917,398.374 596.417,396.874 599,395.5C 599.667,394.167 599.667,392.833 599,391.5C 596.894,389.623 595.561,387.29 595,384.5C 593.613,372.566 595.779,361.399 601.5,351C 604.497,350.245 606.997,351.078 609,353.5C 609.124,363.171 609.124,372.838 609,382.5C 610.519,392.675 615.852,400.008 625,404.5C 630.477,416.163 639.644,422.829 652.5,424.5C 646.6,432.901 639.267,439.734 630.5,445C 613.775,459.714 600.941,477.214 592,497.5C 589.408,504.959 587.908,512.626 587.5,520.5C 578.416,521.316 569.749,523.65 561.5,527.5C 557.554,531.04 557.554,534.54 561.5,538C 563.5,538.667 565.5,538.667 567.5,538C 576.256,534.143 585.423,532.643 595,533.5C 607.136,532.612 618.636,534.779 629.5,540C 640.221,548.671 644.887,559.671 643.5,573C 640.989,585.341 634.656,595.341 624.5,603C 614.668,610.086 604.334,616.419 593.5,622C 573.894,632.362 571.394,645.862 586,662.5C 601.293,677.784 618.793,689.951 638.5,699C 644.985,701.192 651.652,702.526 658.5,703C 673.156,709.806 679.323,721.306 677,737.5C 675.078,741.597 671.912,743.93 667.5,744.5C 667.087,734.593 664.087,725.593 658.5,717.5C 652.906,713.876 649.239,715.209 647.5,721.5C 652.461,728.883 655.127,737.05 655.5,746C 655.441,747.436 655.108,748.769 654.5,750C 646.094,754.104 637.427,754.604 628.5,751.5C 627.544,740.494 624.211,730.327 618.5,721C 612.748,717.933 609.081,719.433 607.5,725.5C 610.131,730.202 612.298,735.202 614,740.5C 615.936,746.862 613.769,750.695 607.5,752C 601.574,753.11 595.908,752.444 590.5,750C 579.581,723.165 563.248,700.165 541.5,681C 531.09,672.713 520.59,664.546 510,656.5C 509.313,654.432 509.48,652.432 510.5,650.5C 515.823,645.009 520.989,639.342 526,633.5C 534.855,621.24 535.522,608.573 528,595.5C 521.21,585.043 512.71,576.21 502.5,569C 479.778,548.721 475.278,524.887 489,497.5C 496.863,484.963 505.53,472.963 515,461.5C 530.46,436.999 539.794,410.332 543,381.5C 544.752,378.328 546.752,375.328 549,372.5C 551.848,364.288 554.514,355.954 557,347.5C 557.698,346.309 558.531,345.309 559.5,344.5 Z"/></g>
<g><path style="opacity:1" fill="#c22726" d="M 1353.5,345.5 C 1356.04,345.104 1358.21,345.771 1360,347.5C 1362.04,355.253 1364.38,362.92 1367,370.5C 1368.84,374.183 1371.17,377.516 1374,380.5C 1375.02,390.608 1376.68,400.608 1379,410.5C 1384.02,425.24 1390.02,439.573 1397,453.5C 1405.91,467.649 1415.58,481.316 1426,494.5C 1436.63,512.384 1438.29,531.05 1431,550.5C 1429.33,553.167 1427.67,555.833 1426,558.5C 1416.33,567.5 1406.67,576.5 1397,585.5C 1391.73,591.537 1387.9,598.37 1385.5,606C 1383.15,615.541 1384.65,624.374 1390,632.5C 1395.67,638.833 1401.33,645.167 1407,651.5C 1407.67,653.5 1407.67,655.5 1407,657.5C 1388.86,669.963 1372.19,684.296 1357,700.5C 1351.95,706.552 1347.28,712.885 1343,719.5C 1337.5,729.833 1332,740.167 1326.5,750.5C 1318.4,754.776 1310.56,754.442 1303,749.5C 1302.39,745.764 1302.72,742.097 1304,738.5C 1306.06,734.269 1307.89,729.936 1309.5,725.5C 1308.36,720.264 1305.36,718.764 1300.5,721C 1296.89,724.472 1294.39,728.639 1293,733.5C 1291.38,739.407 1290.21,745.407 1289.5,751.5C 1280.73,755.656 1272.06,755.49 1263.5,751C 1262.37,746.921 1262.2,742.755 1263,738.5C 1264.38,732.497 1266.88,726.997 1270.5,722C 1267.55,714.68 1263.39,713.847 1258,719.5C 1253.16,727.506 1250.66,736.173 1250.5,745.5C 1242.51,743.906 1239.18,738.906 1240.5,730.5C 1240.93,717.567 1247.1,708.567 1259,703.5C 1265.31,703.048 1271.48,701.882 1277.5,700C 1298.63,691.012 1317.13,678.179 1333,661.5C 1338.97,654.93 1341.3,647.264 1340,638.5C 1338.7,634.726 1336.53,631.559 1333.5,629C 1321.3,622.039 1309.3,614.706 1297.5,607C 1286.14,599.646 1278.64,589.479 1275,576.5C 1272.78,550.046 1284.95,535.88 1311.5,534C 1325.53,532.083 1339.03,533.916 1352,539.5C 1359.5,538.341 1361,534.841 1356.5,529C 1349.14,524.493 1341.14,522.159 1332.5,522C 1325.43,488.448 1307.76,461.114 1279.5,440C 1274.28,435.281 1269.61,430.115 1265.5,424.5C 1274.35,422.993 1281.85,418.993 1288,412.5C 1289.64,410.421 1290.81,408.088 1291.5,405.5C 1300.49,401.332 1305.99,394.332 1308,384.5C 1308.12,374.829 1308.12,365.162 1308,355.5C 1310.08,351.75 1313.08,350.75 1317,352.5C 1321.62,363.037 1323.29,374.037 1322,385.5C 1321.26,388.657 1319.76,391.323 1317.5,393.5C 1319.46,397.663 1322.79,400.163 1327.5,401C 1349.11,402.392 1358.94,392.225 1357,370.5C 1355.08,364.087 1353.58,357.587 1352.5,351C 1352.58,349.076 1352.91,347.243 1353.5,345.5 Z"/></g>
<g><path style="opacity:1" fill="#f9f9f9" d="M 941.5,362.5 C 953.838,362.333 966.171,362.5 978.5,363C 983.626,365.553 984.793,369.386 982,374.5C 980.829,375.893 979.329,376.727 977.5,377C 965.505,377.5 953.505,377.667 941.5,377.5C 941.5,372.5 941.5,367.5 941.5,362.5 Z"/></g>
<g><path style="opacity:1" fill="#6a6357" d="M 923.5,315.5 C 923.5,341.5 923.5,367.5 923.5,393.5C 943.5,393.5 963.5,393.5 983.5,393.5C 963.34,394.497 943.007,394.83 922.5,394.5C 922.169,367.995 922.502,341.661 923.5,315.5 Z"/></g>
<g><path style="opacity:1" fill="#201e21" d="M 1006.5,487.5 C 1000.36,488.49 994.022,488.823 987.5,488.5C 985.546,484.592 983.546,480.592 981.5,476.5C 966.511,475.334 951.511,475.167 936.5,476C 934.644,480.212 932.644,484.379 930.5,488.5C 923.833,489.833 917.167,489.833 910.5,488.5C 923.5,462.5 936.5,436.5 949.5,410.5C 956.056,409.19 962.556,409.19 969,410.5C 981.511,436.189 994.011,461.855 1006.5,487.5 Z"/></g>
<g><path style="opacity:1" fill="#f7f7f7" d="M 971.5,457.5 C 962.833,458.833 954.167,458.833 945.5,457.5C 949.57,448.36 953.903,439.36 958.5,430.5C 963.101,439.369 967.434,448.369 971.5,457.5 Z"/></g>
<g><path style="opacity:1" fill="#887f61" d="M 945.5,457.5 C 954.167,458.833 962.833,458.833 971.5,457.5C 972.043,457.56 972.376,457.893 972.5,458.5C 963.167,459.833 953.833,459.833 944.5,458.5C 944.624,457.893 944.957,457.56 945.5,457.5 Z"/></g>
<g><path style="opacity:1" fill="#615e5f" d="M 1006.5,487.5 C 1007.04,487.56 1007.38,487.893 1007.5,488.5C 1000.68,489.818 994.011,489.818 987.5,488.5C 994.022,488.823 1000.36,488.49 1006.5,487.5 Z"/></g>
<g><path style="opacity:1" fill="#968f7e" d="M 932.5,506.5 C 924.981,506.175 917.648,506.508 910.5,507.5C 909.957,507.44 909.624,507.107 909.5,506.5C 917.323,505.18 924.99,505.18 932.5,506.5 Z"/></g>
<g><path style="opacity:1" fill="#201e21" d="M 730.5,506.5 C 750.836,506.333 771.169,506.5 791.5,507C 807.797,515.152 811.797,527.486 803.5,544C 810.892,554.446 811.392,565.279 805,576.5C 802.292,580.104 798.792,582.604 794.5,584C 773.22,585.455 751.887,585.955 730.5,585.5C 730.5,559.167 730.5,532.833 730.5,506.5 Z"/></g>
<g><path style="opacity:1" fill="#201e21" d="M 859.5,506.5 C 866.167,506.5 872.833,506.5 879.5,506.5C 891.605,532.712 904.272,558.712 917.5,584.5C 910.858,585.664 904.192,585.831 897.5,585C 895.5,581 893.5,577 891.5,573C 876.489,572.167 861.489,572.334 846.5,573.5C 844.628,577.412 842.628,581.245 840.5,585C 833.833,585.667 827.167,585.667 820.5,585C 833.895,559.043 846.895,532.877 859.5,506.5 Z"/></g>
<g><path style="opacity:1" fill="#201e21" d="M 932.5,506.5 C 941.117,518.29 949.95,529.957 959,541.5C 967.833,530 976.667,518.5 985.5,507C 992.833,506.333 1000.17,506.333 1007.5,507C 995.049,523.786 982.215,540.286 969,556.5C 968.5,566.161 968.334,575.828 968.5,585.5C 962.167,585.5 955.833,585.5 949.5,585.5C 949.666,576.161 949.5,566.827 949,557.5C 936.334,540.672 923.501,524.005 910.5,507.5C 917.648,506.508 924.981,506.175 932.5,506.5 Z"/></g>
<g><path style="opacity:1" fill="#8d8779" d="M 1019.5,507.5 C 1043.33,506.502 1067.33,506.169 1091.5,506.5C 1092.12,512.598 1091.45,518.265 1089.5,523.5C 1090.45,518.26 1090.78,512.927 1090.5,507.5C 1067.17,507.5 1043.83,507.5 1020.5,507.5C 1020.17,507.5 1019.83,507.5 1019.5,507.5 Z"/></g>
<g><path style="opacity:1" fill="#211f21" d="M 1117.5,506.5 C 1135.84,506.333 1154.17,506.5 1172.5,507C 1188.45,513.496 1193.62,524.996 1188,541.5C 1184.9,547.764 1180.07,552.097 1173.5,554.5C 1180.45,564.781 1187.78,574.781 1195.5,584.5C 1188.19,585.665 1180.86,585.831 1173.5,585C 1165.78,575.617 1158.45,565.951 1151.5,556C 1146.51,555.501 1141.51,555.334 1136.5,555.5C 1136.5,565.5 1136.5,575.5 1136.5,585.5C 1130.17,585.5 1123.83,585.5 1117.5,585.5C 1117.5,559.167 1117.5,532.833 1117.5,506.5 Z"/></g>
<g><path style="opacity:1" fill="#201e21" d="M 1020.5,507.5 C 1043.83,507.5 1067.17,507.5 1090.5,507.5C 1090.78,512.927 1090.45,518.26 1089.5,523.5C 1072.5,523.5 1055.5,523.5 1038.5,523.5C 1038.5,527.833 1038.5,532.167 1038.5,536.5C 1055.5,536.5 1072.5,536.5 1089.5,536.5C 1089.5,542.5 1089.5,548.5 1089.5,554.5C 1072.5,554.5 1055.5,554.5 1038.5,554.5C 1038.5,559.5 1038.5,564.5 1038.5,569.5C 1055.83,569.5 1073.17,569.5 1090.5,569.5C 1090.5,574.833 1090.5,580.167 1090.5,585.5C 1067.17,585.5 1043.83,585.5 1020.5,585.5C 1020.5,559.5 1020.5,533.5 1020.5,507.5 Z"/></g>
<g><path style="opacity:1" fill="#f8f8f8" d="M 1136.5,523.5 C 1146.84,523.334 1157.17,523.5 1167.5,524C 1172.99,529.081 1172.65,533.748 1166.5,538C 1156.51,538.5 1146.51,538.666 1136.5,538.5C 1136.5,533.5 1136.5,528.5 1136.5,523.5 Z"/></g>
<g><path style="opacity:1" fill="#7d7875" d="M 1447.5,518.5 C 1448.48,522.634 1448.82,526.968 1448.5,531.5C 1453.5,531.5 1458.5,531.5 1463.5,531.5C 1458.36,532.488 1453.03,532.821 1447.5,532.5C 1447.5,527.833 1447.5,523.167 1447.5,518.5 Z"/></g>
<g><path style="opacity:1" fill="#f8f8f8" d="M 749.5,523.5 C 761.505,523.333 773.505,523.5 785.5,524C 790.701,528.088 790.701,532.088 785.5,536C 773.505,536.5 761.505,536.667 749.5,536.5C 749.5,532.167 749.5,527.833 749.5,523.5 Z"/></g>
<g><path style="opacity:1" fill="#f7f6f6" d="M 868.5,527.5 C 873.918,535.999 878.584,544.999 882.5,554.5C 873.5,555.833 864.5,555.833 855.5,554.5C 860.12,545.596 864.453,536.596 868.5,527.5 Z"/></g>
<g><path style="opacity:1" fill="#878381" d="M 471.5,520.5 C 471.5,524.5 471.5,528.5 471.5,532.5C 465.31,532.823 459.31,532.49 453.5,531.5C 459.167,531.5 464.833,531.5 470.5,531.5C 470.185,527.629 470.518,523.962 471.5,520.5 Z"/></g>
<g><path style="opacity:1" fill="#fafafa" d="M 749.5,553.5 C 761.505,553.333 773.505,553.5 785.5,554C 789.242,554.575 790.908,556.741 790.5,560.5C 790.867,563.933 789.534,566.433 786.5,568C 774.171,568.5 761.838,568.667 749.5,568.5C 749.5,563.5 749.5,558.5 749.5,553.5 Z"/></g>
<g><path style="opacity:1" fill="#453f39" d="M 1019.5,507.5 C 1019.83,507.5 1020.17,507.5 1020.5,507.5C 1020.5,533.5 1020.5,559.5 1020.5,585.5C 1043.83,585.5 1067.17,585.5 1090.5,585.5C 1090.5,580.167 1090.5,574.833 1090.5,569.5C 1091.49,574.975 1091.82,580.642 1091.5,586.5C 1067.5,586.5 1043.5,586.5 1019.5,586.5C 1019.5,560.167 1019.5,533.833 1019.5,507.5 Z"/></g>
<g><path style="opacity:1" fill="#c12726" d="M 507.5,589.5 C 514.986,595.476 519.653,603.143 521.5,612.5C 521.182,615.956 520.348,619.289 519,622.5C 514,628.167 509,633.833 504,639.5C 494.812,650.495 495.645,660.662 506.5,670C 531.674,685.84 552.174,706.34 568,731.5C 569.559,735.619 571.393,739.619 573.5,743.5C 566.534,746.907 559.201,748.074 551.5,747C 541.863,723.054 527.53,702.388 508.5,685C 496.684,675.848 485.184,666.348 474,656.5C 473.333,654.167 473.333,651.833 474,649.5C 483.043,639.459 491.71,629.126 500,618.5C 504.961,609.548 507.461,599.882 507.5,589.5 Z"/></g>
<g><path style="opacity:1" fill="#c02726" d="M 1409.5,589.5 C 1410.59,603.483 1415.43,616.15 1424,627.5C 1431.04,634.871 1437.71,642.538 1444,650.5C 1444.76,655.482 1442.93,659.315 1438.5,662C 1415.38,677.457 1395.88,696.624 1380,719.5C 1374.77,728.797 1369.93,738.297 1365.5,748C 1358.71,748.03 1352.05,747.03 1345.5,745C 1344.59,741.245 1345.42,737.745 1348,734.5C 1363.38,709.117 1383.55,688.283 1408.5,672C 1412,669.167 1415.17,666 1418,662.5C 1421.53,655.469 1420.87,648.803 1416,642.5C 1410.64,636.474 1405.3,630.474 1400,624.5C 1396.11,618.196 1395.45,611.53 1398,604.5C 1401.36,599.11 1405.19,594.11 1409.5,589.5 Z"/></g>
<g><path style="opacity:1" fill="#1e1c1f" d="M 994.5,619.5 C 976.833,619.5 959.167,619.5 941.5,619.5C 941.5,624.167 941.5,628.833 941.5,633.5C 958.5,633.5 975.5,633.5 992.5,633.5C 992.5,638.833 992.5,644.167 992.5,649.5C 975.658,649.17 958.992,649.503 942.5,650.5C 941.513,655.305 941.179,660.305 941.5,665.5C 959.167,665.5 976.833,665.5 994.5,665.5C 994.5,671.167 994.5,676.833 994.5,682.5C 970.833,682.5 947.167,682.5 923.5,682.5C 923.5,656.167 923.5,629.833 923.5,603.5C 947.167,603.5 970.833,603.5 994.5,603.5C 994.5,608.833 994.5,614.167 994.5,619.5 Z"/></g>
<g><path style="opacity:1" fill="#9b9899" d="M 994.5,619.5 C 977.341,620.497 960.008,620.83 942.5,620.5C 942.5,624.5 942.5,628.5 942.5,632.5C 959.5,632.5 976.5,632.5 993.5,632.5C 993.5,638.5 993.5,644.5 993.5,650.5C 976.5,650.5 959.5,650.5 942.5,650.5C 958.992,649.503 975.658,649.17 992.5,649.5C 992.5,644.167 992.5,638.833 992.5,633.5C 975.5,633.5 958.5,633.5 941.5,633.5C 941.5,628.833 941.5,624.167 941.5,619.5C 959.167,619.5 976.833,619.5 994.5,619.5 Z"/></g>
<g><path style="opacity:1" fill="#938b74" d="M 979.5,701.5 C 960.833,701.5 942.167,701.5 923.5,701.5C 923.5,727.833 923.5,754.167 923.5,780.5C 922.502,754.005 922.169,727.339 922.5,700.5C 941.674,700.17 960.674,700.503 979.5,701.5 Z"/></g>
<g><path style="opacity:1" fill="#201e20" d="M 979.5,701.5 C 998.904,707.985 1004.4,720.652 996,739.5C 992.778,743.059 989.278,746.226 985.5,749C 992.705,759.238 1000.04,769.404 1007.5,779.5C 1000.19,780.665 992.856,780.831 985.5,780C 978.551,770.049 971.217,760.383 963.5,751C 956.174,750.5 948.841,750.334 941.5,750.5C 941.5,760.5 941.5,770.5 941.5,780.5C 935.5,780.5 929.5,780.5 923.5,780.5C 923.5,754.167 923.5,727.833 923.5,701.5C 942.167,701.5 960.833,701.5 979.5,701.5 Z"/></g>
<g><path style="opacity:1" fill="#f6f6f6" d="M 941.5,718.5 C 953.505,718.333 965.505,718.5 977.5,719C 982.854,723.944 982.521,728.611 976.5,733C 964.838,733.5 953.171,733.667 941.5,733.5C 941.5,728.5 941.5,723.5 941.5,718.5 Z"/></g>
<g><path style="opacity:1" fill="#ede235" d="M 571.5,768.5 C 620.281,766.345 668.281,771.512 715.5,784C 763.102,797.567 811.102,809.567 859.5,820C 929.302,833.205 998.969,832.539 1068.5,818C 1114.39,807.112 1160.05,795.445 1205.5,783C 1229.6,777.412 1253.93,773.079 1278.5,770C 1320.96,765.82 1362.96,768.486 1404.5,778C 1405.8,778.804 1406.47,779.971 1406.5,781.5C 1396.97,825.955 1386.97,870.289 1376.5,914.5C 1373.55,915.655 1370.55,915.821 1367.5,915C 1322.19,904.212 1277.19,905.545 1232.5,919C 1204.06,927.589 1175.73,936.589 1147.5,946C 1041.77,978.367 934.767,983.367 826.5,961C 780.029,948.971 734.029,935.304 688.5,920C 666.235,914.008 643.901,910.008 621.5,908C 595.834,907.106 570.501,909.606 545.5,915.5C 544.167,915.167 542.833,914.833 541.5,914.5C 530.992,870.297 520.992,825.964 511.5,781.5C 511.59,779.575 512.59,778.408 514.5,778C 533.346,773.097 552.346,769.93 571.5,768.5 Z"/></g>
<g><path style="opacity:1" fill="#211e20" d="M 583.5,793.5 C 590.167,793.5 596.833,793.5 603.5,793.5C 604.303,818.845 605.303,844.179 606.5,869.5C 619.845,869.547 633.179,869.214 646.5,868.5C 646.447,874.196 646.78,879.862 647.5,885.5C 627.163,886.075 606.83,886.742 586.5,887.5C 585.766,856.154 584.766,824.82 583.5,793.5 Z"/></g>
<g><path style="opacity:1" fill="#221f21" d="M 1301.5,816.5 C 1317.9,815.93 1327.73,823.596 1331,839.5C 1331.5,855.163 1331.67,870.83 1331.5,886.5C 1324.83,886.5 1318.17,886.5 1311.5,886.5C 1311.67,871.83 1311.5,857.163 1311,842.5C 1307.65,833.576 1301.49,830.743 1292.5,834C 1289.69,835.978 1287.52,838.478 1286,841.5C 1285.5,856.496 1285.33,871.496 1285.5,886.5C 1278.83,886.5 1272.17,886.5 1265.5,886.5C 1265.5,863.833 1265.5,841.167 1265.5,818.5C 1271.17,818.5 1276.83,818.5 1282.5,818.5C 1282.8,821.522 1283.3,824.522 1284,827.5C 1288.74,821.887 1294.58,818.221 1301.5,816.5 Z"/></g>
<g><path style="opacity:1" fill="#211e20" d="M 686.5,824.5 C 697.478,823.244 707.478,825.744 716.5,832C 727.031,843.999 729.031,857.333 722.5,872C 707.388,869.641 692.388,866.474 677.5,862.5C 676.357,869.06 678.69,874.226 684.5,878C 693.993,882.196 703.993,884.363 714.5,884.5C 713.863,888.7 713.196,892.866 712.5,897C 697.44,898.714 683.44,895.714 670.5,888C 658.317,876.754 655.151,863.254 661,847.5C 665.64,835.351 674.14,827.685 686.5,824.5 Z"/></g>
<g><path style="opacity:1" fill="#211e20" d="M 1212.5,825.5 C 1235.19,825.01 1247.86,836.176 1250.5,859C 1250.41,860.107 1250.08,861.107 1249.5,862C 1234.78,864.412 1220.11,867.078 1205.5,870C 1204.48,871.049 1204.32,872.216 1205,873.5C 1208.84,878.726 1214.01,881.392 1220.5,881.5C 1229.9,880.568 1238.9,878.234 1247.5,874.5C 1248.83,878.833 1250.17,883.167 1251.5,887.5C 1241.13,893.15 1229.97,896.483 1218,897.5C 1198.57,896.108 1187.23,885.775 1184,866.5C 1182.18,844.756 1191.68,831.089 1212.5,825.5 Z"/></g>
<g><path style="opacity:1" fill="#e7dc35" d="M 689.5,837.5 C 702.416,836.752 708.749,842.752 708.5,855.5C 699.024,852.738 689.357,850.738 679.5,849.5C 679.491,847.692 679.991,846.025 681,844.5C 683.628,841.79 686.461,839.456 689.5,837.5 Z"/></g>
<g><path style="opacity:1" fill="#ebe034" d="M 1212.5,839.5 C 1221.92,838.364 1227.59,842.364 1229.5,851.5C 1220.13,852.951 1210.79,854.618 1201.5,856.5C 1201.42,848.306 1205.09,842.64 1212.5,839.5 Z"/></g>
<g><path style="opacity:1" fill="#211e20" d="M 743.5,838.5 C 750.064,841.141 756.73,843.474 763.5,845.5C 762.687,862.506 762.187,879.506 762,896.5C 771.256,882.582 781.256,869.248 792,856.5C 798.794,858.153 805.294,860.486 811.5,863.5C 796.019,881.482 780.353,899.315 764.5,917C 758.054,915.911 751.721,914.078 745.5,911.5C 743.807,887.199 743.141,862.866 743.5,838.5 Z"/></g>
<g><path style="opacity:1" fill="#211e20" d="M 1147.5,847.5 C 1151.83,847.5 1156.17,847.5 1160.5,847.5C 1160.22,852.233 1160.56,856.9 1161.5,861.5C 1156.62,861.525 1151.62,861.692 1146.5,862C 1143.75,863.123 1141.25,864.623 1139,866.5C 1137.88,869.956 1138.71,872.79 1141.5,875C 1148.13,876.045 1154.79,876.711 1161.5,877C 1171.65,879.422 1176.98,885.922 1177.5,896.5C 1176.18,905.991 1171.18,912.824 1162.5,917C 1152.29,921.09 1141.79,922.256 1131,920.5C 1130.5,915.845 1130.33,911.179 1130.5,906.5C 1139.13,908.408 1147.46,907.575 1155.5,904C 1160.07,899.21 1159.41,895.544 1153.5,893C 1147.16,892.399 1140.83,891.733 1134.5,891C 1122.73,887.542 1117.89,879.709 1120,867.5C 1121.71,861.564 1125.21,857.064 1130.5,854C 1136.02,851.11 1141.69,848.943 1147.5,847.5 Z"/></g>
<g><path style="opacity:1" fill="#aa9b42" d="M 963.5,851.5 C 967.634,850.515 971.968,850.182 976.5,850.5C 976.784,852.415 976.451,854.081 975.5,855.5C 975.5,854.167 975.5,852.833 975.5,851.5C 971.5,851.5 967.5,851.5 963.5,851.5 Z"/></g>
<g><path style="opacity:1" fill="#211e20" d="M 963.5,851.5 C 967.5,851.5 971.5,851.5 975.5,851.5C 975.5,852.833 975.5,854.167 975.5,855.5C 976.617,874.092 977.45,892.759 978,911.5C 983.942,901.893 990.275,892.56 997,883.5C 998.444,881.845 1000.28,881.178 1002.5,881.5C 1009.02,881.177 1015.36,881.51 1021.5,882.5C 1013.48,891.187 1005.81,900.187 998.5,909.5C 1008.5,922.5 1018.5,935.5 1028.5,948.5C 1020.19,949.665 1011.85,949.832 1003.5,949C 997.369,940.033 991.036,931.2 984.5,922.5C 982.517,923.982 980.684,925.649 979,927.5C 978.679,935.17 978.846,942.837 979.5,950.5C 972.833,950.5 966.167,950.5 959.5,950.5C 958.001,917.52 957.001,884.52 956.5,851.5C 958.833,851.5 961.167,851.5 963.5,851.5 Z"/></g>
<g><path style="opacity:1" fill="#211e20" d="M 1096.5,865.5 C 1097.83,865.5 1099.17,865.5 1100.5,865.5C 1104.51,887.902 1108.84,910.235 1113.5,932.5C 1108.25,932.971 1103.08,933.971 1098,935.5C 1096.19,932.646 1094.52,929.646 1093,926.5C 1088.03,936.752 1079.7,942.086 1068,942.5C 1056.55,941.393 1048.89,935.393 1045,924.5C 1042.16,909.421 1038.99,894.421 1035.5,879.5C 1035.71,878.914 1036.04,878.414 1036.5,878C 1042.76,876.381 1049.09,875.214 1055.5,874.5C 1057.84,889.343 1061,904.009 1065,918.5C 1070.67,925.77 1077.17,926.436 1084.5,920.5C 1087.04,917.808 1088.38,914.641 1088.5,911C 1086.41,897.049 1083.74,883.216 1080.5,869.5C 1085.92,868.021 1091.26,866.688 1096.5,865.5 Z"/></g>
<g><path style="opacity:1" fill="#211e20" d="M 863.5,927.5 C 865.43,931.373 866.097,935.706 865.5,940.5C 847.943,944.024 832.109,940.357 818,929.5C 806.579,913.054 806.912,896.721 819,880.5C 829.805,869.63 842.639,866.463 857.5,871C 870.457,876.653 877.124,886.653 877.5,901C 877.1,906.268 875.767,911.268 873.5,916C 858.049,914.01 842.715,911.177 827.5,907.5C 827.277,914.555 830.277,919.721 836.5,923C 845.041,926.854 854.041,928.354 863.5,927.5 Z"/></g>
<g><path style="opacity:1" fill="#8f8038" d="M 1002.5,881.5 C 1009.01,880.182 1015.68,880.182 1022.5,881.5C 1022.38,882.107 1022.04,882.44 1021.5,882.5C 1015.36,881.51 1009.02,881.177 1002.5,881.5 Z"/></g>
<g><path style="opacity:1" fill="#211e20" d="M 898.5,880.5 C 904.13,881.292 909.797,881.625 915.5,881.5C 915.334,885.846 915.501,890.179 916,894.5C 921.269,884.783 929.436,880.783 940.5,882.5C 940.674,888.925 940.007,895.259 938.5,901.5C 926.567,898.215 919.067,902.549 916,914.5C 914.967,926.491 914.134,938.491 913.5,950.5C 906.859,949.614 900.192,948.947 893.5,948.5C 895.299,925.842 896.966,903.176 898.5,880.5 Z"/></g>
<g><path style="opacity:1" fill="#eade34" d="M 840.5,882.5 C 853.173,881.512 859.173,887.179 858.5,899.5C 848.923,898.327 839.59,896.327 830.5,893.5C 832.494,888.511 835.827,884.844 840.5,882.5 Z"/></g>
<g><path style="opacity:1" fill="#887936" d="M 863.5,927.5 C 864.209,926.596 865.209,926.263 866.5,926.5C 866.819,931.363 866.486,936.03 865.5,940.5C 866.097,935.706 865.43,931.373 863.5,927.5 Z"/></g>
</svg>
