<?xml version="1.0" encoding="UTF-8"?>
<!DOCTYPE svg PUBLIC "-//W3C//DTD SVG 1.1//EN" "http://www.w3.org/Graphics/SVG/1.1/DTD/svg11.dtd">
<svg xmlns="http://www.w3.org/2000/svg" version="1.1" width="3840px" height="2160px" style="shape-rendering:geometricPrecision; text-rendering:geometricPrecision; image-rendering:optimizeQuality; fill-rule:evenodd; clip-rule:evenodd" xmlns:xlink="http://www.w3.org/1999/xlink">
<g><path style="opacity:0.99" fill="#0172ba" d="M 1873.5,17.5 C 2163.98,9.24663 2417.32,100.747 2633.5,292C 2834.79,478.759 2949.29,709.593 2977,984.5C 2997.65,1251.29 2929.99,1492.63 2774,1708.5C 2620.65,1911.67 2420.15,2045.17 2172.5,2109C 1932.65,2164.74 1700.99,2142.74 1477.5,2043C 1271.02,1945.82 1110.85,1798.99 997,1602.5C 877.007,1386.18 835.34,1155.52 872,910.5C 917.241,647.746 1041.07,430.913 1243.5,260C 1426.54,111.048 1636.54,30.2143 1873.5,17.5 Z"/></g>
<g><path style="opacity:1" fill="#fefefe" d="M 1882.5,65.5 C 2147.74,60.0827 2381.07,142.249 2582.5,312C 2799.27,505.055 2915.77,747.222 2932,1038.5C 2938.41,1300.96 2858.41,1532.63 2692,1733.5C 2513.17,1938.65 2287.67,2056.15 2015.5,2086C 1735.39,2108.6 1487.05,2031.6 1270.5,1855C 1062.09,1676.05 942.588,1449.22 912,1174.5C 889.227,894.085 966.227,645.418 1143,428.5C 1310.68,232.086 1522.85,114.253 1779.5,75C 1813.86,70.409 1848.19,67.2423 1882.5,65.5 Z"/></g>
<g><path style="opacity:1" fill="#ff4d5d" d="M 1882.5,115.5 C 2148.01,109.804 2378.67,195.304 2574.5,372C 2738.73,526.59 2838.23,716.09 2873,940.5C 2906.43,1199.43 2847.77,1434.76 2697,1646.5C 2540.42,1855.12 2332.92,1982.28 2074.5,2028C 1844.61,2062.91 1629.28,2022.25 1428.5,1906C 1233.3,1787.16 1095.47,1620.66 1015,1406.5C 945.213,1207.42 939.213,1006.42 997,803.5C 1071.99,563.874 1216.49,379.041 1430.5,249C 1570.11,167.412 1720.77,122.912 1882.5,115.5 Z"/></g>
<g><path style="opacity:1" fill="#fffefe" d="M 1985.5,178.5 C 2010.16,182.165 2034.83,185.832 2059.5,189.5C 2066.36,211.575 2073.52,233.575 2081,255.5C 2084.32,267.101 2087.15,278.768 2089.5,290.5C 2096.58,277.331 2104.41,264.664 2113,252.5C 2124.89,236.947 2136.39,221.113 2147.5,205C 2154.53,205.003 2161.53,205.67 2168.5,207C 2185.68,209.474 2202.68,212.474 2219.5,216C 2183.33,260.167 2147.17,304.333 2111,348.5C 2105.93,377.421 2101.43,406.421 2097.5,435.5C 2075.81,432.312 2054.15,428.979 2032.5,425.5C 2036.52,396.74 2041.18,368.074 2046.5,339.5C 2025.97,285.893 2005.63,232.226 1985.5,178.5 Z"/></g>
<g><path style="opacity:1" fill="#fffefe" d="M 1853.5,183.5 C 1855.79,183.244 1857.96,183.577 1860,184.5C 1896.42,259.014 1932.59,333.68 1968.5,408.5C 1945.98,412.35 1923.31,414.85 1900.5,416C 1893.93,401.689 1887.76,387.189 1882,372.5C 1880.99,371.342 1879.66,370.675 1878,370.5C 1849.88,374.309 1821.72,377.642 1793.5,380.5C 1790.59,397.405 1786.92,414.072 1782.5,430.5C 1761.17,433.106 1739.83,435.773 1718.5,438.5C 1737.78,356.755 1757.45,275.088 1777.5,193.5C 1802.96,190.081 1828.3,186.748 1853.5,183.5 Z"/></g>
<g><path style="opacity:1" fill="#ff4f5f" d="M 1807.5,331.5 C 1805.82,331.715 1804.82,331.048 1804.5,329.5C 1809.39,306.195 1814.23,282.861 1819,259.5C 1820.52,251.902 1821.52,244.235 1822,236.5C 1833.44,266.388 1846.27,295.722 1860.5,324.5C 1860.29,325.086 1859.96,325.586 1859.5,326C 1842.19,328.164 1824.86,329.997 1807.5,331.5 Z"/></g>
<g><path style="opacity:1" fill="#fffefe" d="M 2276.5,241.5 C 2325.88,266.026 2374.88,291.359 2423.5,317.5C 2415.57,331.683 2407.91,346.017 2400.5,360.5C 2371.5,345.333 2342.5,330.167 2313.5,315C 2312.36,314.251 2311.36,314.417 2310.5,315.5C 2303.75,327.669 2297.58,340.002 2292,352.5C 2319.77,366.965 2347.27,381.798 2374.5,397C 2367.39,411.388 2359.89,425.555 2352,439.5C 2324.33,424.833 2296.67,410.167 2269,395.5C 2261.46,408.747 2254.29,422.247 2247.5,436C 2247.64,436.772 2247.98,437.439 2248.5,438C 2278.54,453.437 2308.37,469.27 2338,485.5C 2336.62,490.287 2334.62,494.954 2332,499.5C 2326.99,509.527 2321.49,519.194 2315.5,528.5C 2266.99,502.745 2218.32,477.245 2169.5,452C 2168.64,451.311 2167.98,450.478 2167.5,449.5C 2203.89,380.133 2240.22,310.8 2276.5,241.5 Z"/></g>
<g><path style="opacity:1" fill="#fffefe" d="M 1554.5,256.5 C 1576.03,252.842 1593.87,259.175 1608,275.5C 1614.53,284.23 1619.2,293.896 1622,304.5C 1624.91,324.447 1618.74,340.947 1603.5,354C 1642.51,343.422 1668.67,357.255 1682,395.5C 1687.22,417.18 1682.22,436.18 1667,452.5C 1657.36,461.813 1646.86,469.98 1635.5,477C 1603.9,494.38 1572.4,511.88 1541,529.5C 1538.88,527.968 1537.22,525.968 1536,523.5C 1499.09,456.672 1461.92,390.005 1424.5,323.5C 1460.72,302.557 1497.38,282.391 1534.5,263C 1541.25,260.692 1547.92,258.525 1554.5,256.5 Z"/></g>
<g><path style="opacity:1" fill="#ff4e5e" d="M 1542.5,311.5 C 1551.22,310.277 1558.05,313.277 1563,320.5C 1571.55,333.086 1570.05,344.253 1558.5,354C 1547.4,360.301 1536.23,366.467 1525,372.5C 1516.93,360.242 1509.43,347.576 1502.5,334.5C 1515.24,325.797 1528.57,318.13 1542.5,311.5 Z"/></g>
<g><path style="opacity:1" fill="#ffa5ac" d="M 1804.5,329.5 C 1804.82,331.048 1805.82,331.715 1807.5,331.5C 1806.43,332.434 1805.1,332.768 1803.5,332.5C 1803.26,331.209 1803.6,330.209 1804.5,329.5 Z"/></g>
<g><path style="opacity:1" fill="#ff4e5e" d="M 1591.5,390.5 C 1599.01,389.394 1605.51,391.394 1611,396.5C 1623.17,409.631 1623.34,422.797 1611.5,436C 1598.5,443.5 1585.5,451 1572.5,458.5C 1564.17,443.833 1555.83,429.167 1547.5,414.5C 1561.65,405.427 1576.32,397.427 1591.5,390.5 Z"/></g>
<g><path style="opacity:1" fill="#fffefe" d="M 2524.5,390.5 C 2526.72,391.203 2528.55,392.536 2530,394.5C 2556.67,423.833 2583.33,453.167 2610,482.5C 2634.59,516.509 2631.43,547.675 2600.5,576C 2579.68,594.582 2556.18,599.082 2530,589.5C 2529.23,589.645 2528.56,589.978 2528,590.5C 2514.33,626.5 2500.67,662.5 2487,698.5C 2470.45,680.954 2454.28,663.121 2438.5,645C 2451.84,614.983 2465.17,584.983 2478.5,555C 2473.37,548.865 2467.87,543.031 2462,537.5C 2439.68,557.649 2417.52,577.982 2395.5,598.5C 2380.49,582.826 2365.83,566.826 2351.5,550.5C 2409.19,497.145 2466.85,443.811 2524.5,390.5 Z"/></g>
<g><path style="opacity:1" fill="#ff4e5e" d="M 2533.5,469.5 C 2542.42,477.587 2550.92,486.254 2559,495.5C 2570,509.145 2568.84,521.645 2555.5,533C 2545.4,541.192 2535.07,541.525 2524.5,534C 2515.17,524 2505.83,514 2496.5,504C 2508.73,492.267 2521.06,480.767 2533.5,469.5 Z"/></g>
<g><path style="opacity:1" fill="#fefefe" d="M 1888.5,476.5 C 2079.42,470.752 2239.59,537.418 2369,676.5C 2491.51,818.739 2540.17,983.406 2515,1170.5C 2488.17,1328.83 2412,1457.33 2286.5,1556C 2154.26,1654.15 2005.93,1693.82 1841.5,1675C 1671.75,1649.59 1535.59,1568.75 1433,1432.5C 1330.91,1287.09 1296.91,1126.75 1331,951.5C 1371.62,778.63 1467.79,646.796 1619.5,556C 1703,508.331 1792.67,481.831 1888.5,476.5 Z"/></g>
<g><path style="opacity:1" fill="#fffefe" d="M 1246.5,494.5 C 1256.51,494.334 1266.51,494.5 1276.5,495C 1283.25,496.099 1289.58,498.266 1295.5,501.5C 1288.11,519.343 1281.11,537.343 1274.5,555.5C 1273.67,555.833 1272.83,556.167 1272,556.5C 1245.9,547.05 1228.23,555.383 1219,581.5C 1216.88,594.813 1219.88,606.813 1228,617.5C 1245.01,637.095 1265.51,651.928 1289.5,662C 1301.92,667.75 1314.92,669.75 1328.5,668C 1345.53,661.943 1355.2,649.943 1357.5,632C 1355.87,618.912 1350.37,607.745 1341,598.5C 1340.33,597.5 1340.33,596.5 1341,595.5C 1355,581.5 1369,567.5 1383,553.5C 1416.82,587.971 1421.82,626.305 1398,668.5C 1359.01,731.128 1306.18,746.295 1239.5,714C 1213.25,700.754 1192.42,681.588 1177,656.5C 1159.4,619.256 1160.73,582.589 1181,546.5C 1191.83,527.667 1206.67,512.833 1225.5,502C 1232.44,498.969 1239.44,496.469 1246.5,494.5 Z"/></g>
<g><path style="opacity:1" fill="#0272ba" d="M 1942.5,823.5 C 1941.83,825.5 1941.17,827.5 1940.5,829.5C 1900.26,760.03 1859.76,690.697 1819,621.5C 1811.23,705.103 1804.06,788.77 1797.5,872.5C 1796.83,874.167 1796.17,875.833 1795.5,877.5C 1754.92,807.072 1714.09,736.738 1673,666.5C 1666.05,752.202 1658.72,837.869 1651,923.5C 1610.4,853.967 1569.57,784.633 1528.5,715.5C 1521.22,800.855 1513.72,886.189 1506,971.5C 1478.37,924.399 1450.87,877.233 1423.5,830C 1483.79,712.708 1573.79,626.375 1693.5,571C 1808.5,521.308 1927.17,510.308 2049.5,538C 2067.98,542.992 2086.31,548.492 2104.5,554.5C 2105.66,559.467 2105.83,564.467 2105,569.5C 2099.27,640.566 2092.94,711.566 2086,782.5C 2045.08,712.997 2004.41,643.331 1964,573.5C 1955.95,656.758 1948.78,740.091 1942.5,823.5 Z"/></g>
<g><path style="opacity:1" fill="#0673ba" d="M 2132.5,565.5 C 2171.01,581.5 2207.18,601.5 2241,625.5C 2238.39,662.175 2235.22,698.841 2231.5,735.5C 2197.97,679.106 2164.97,622.44 2132.5,565.5 Z"/></g>
<g><path style="opacity:1" fill="#fffefe" d="M 2724.5,658.5 C 2726.77,658.141 2728.6,658.808 2730,660.5C 2737.67,684.167 2745.33,707.833 2753,731.5C 2753.67,733.167 2753.67,734.833 2753,736.5C 2719.14,770.695 2684.97,804.528 2650.5,838C 2640.33,846.008 2630.33,854.174 2620.5,862.5C 2672.17,844.555 2724.33,827.222 2777,810.5C 2777.95,810.905 2778.61,811.572 2779,812.5C 2784.67,829.833 2790.33,847.167 2796,864.5C 2796.78,865.944 2796.61,867.277 2795.5,868.5C 2721.3,892.401 2647.13,916.401 2573,940.5C 2572.23,940.355 2571.56,940.022 2571,939.5C 2562.36,913.928 2554.36,888.261 2547,862.5C 2581.86,827.305 2617.03,792.472 2652.5,758C 2661.41,750.587 2670.75,743.754 2680.5,737.5C 2680,737.167 2679.5,736.833 2679,736.5C 2626.72,754.537 2574.22,771.87 2521.5,788.5C 2515.97,769.379 2509.97,750.379 2503.5,731.5C 2503.83,731.167 2504.17,730.833 2504.5,730.5C 2578,706.665 2651.34,682.665 2724.5,658.5 Z"/></g>
<g><path style="opacity:1" fill="#fffefe" d="M 1097.5,712.5 C 1113.54,716.928 1129.21,722.428 1144.5,729C 1132.69,760.331 1121.69,791.664 1111.5,823C 1126.82,828.12 1141.99,833.62 1157,839.5C 1167.93,809.549 1178.76,779.549 1189.5,749.5C 1190.72,748.386 1192.06,748.219 1193.5,749C 1207.3,754.321 1221.14,759.488 1235,764.5C 1234.69,767.491 1234.03,770.491 1233,773.5C 1222.66,801.012 1212.83,828.679 1203.5,856.5C 1231.7,865.901 1259.7,875.901 1287.5,886.5C 1280.29,906.794 1273.29,927.127 1266.5,947.5C 1192.1,921.367 1117.77,895.034 1043.5,868.5C 1043.94,863.673 1045.11,859.007 1047,854.5C 1064.34,807.321 1081.17,759.988 1097.5,712.5 Z"/></g>
<g><path style="opacity:1" fill="#0372ba" d="M 2231.5,737.5 C 2232.46,737.953 2233.29,738.619 2234,739.5C 2274.17,808.5 2314.33,877.5 2354.5,946.5C 2360.44,883.175 2366.28,819.841 2372,756.5C 2454.14,873.039 2486.8,1002.37 2470,1144.5C 2431.67,1079.17 2393.33,1013.83 2355,948.5C 2347.88,1033.93 2340.21,1119.27 2332,1204.5C 2291.92,1135.34 2251.59,1066.34 2211,997.5C 2210.33,992.167 2210.33,986.833 2211,981.5C 2217.94,900.172 2224.78,818.838 2231.5,737.5 Z"/></g>
<g><path style="opacity:1" fill="#86b5db" d="M 1942.5,823.5 C 1942.81,825.924 1942.47,828.257 1941.5,830.5C 1940.89,830.376 1940.56,830.043 1940.5,829.5C 1941.17,827.5 1941.83,825.5 1942.5,823.5 Z"/></g>
<g><path style="opacity:1" fill="#0372ba" d="M 2086.5,784.5 C 2127.81,853.775 2168.64,923.442 2209,993.5C 2209.17,995.167 2209.33,996.833 2209.5,998.5C 2202.13,1083.16 2194.79,1167.83 2187.5,1252.5C 2146.67,1182.83 2105.83,1113.17 2065,1043.5C 2057.72,1129.18 2050.39,1214.85 2043,1300.5C 2002.08,1231 1961.41,1161.33 1921,1091.5C 1920.95,1079.15 1921.61,1066.81 1923,1054.5C 1929.42,980.174 1935.76,905.841 1942,831.5C 1982.83,901.167 2023.67,970.833 2064.5,1040.5C 2072.6,955.24 2079.94,869.907 2086.5,784.5 Z"/></g>
<g><path style="opacity:1" fill="#8ebadd" d="M 1797.5,872.5 C 1797.5,874.833 1797.5,877.167 1797.5,879.5C 1796.83,880.5 1796.17,881.5 1795.5,882.5C 1795.5,880.833 1795.5,879.167 1795.5,877.5C 1796.17,875.833 1796.83,874.167 1797.5,872.5 Z"/></g>
<g><path style="opacity:1" fill="#0472ba" d="M 1367.5,1030.5 C 1406.81,1096.44 1445.64,1162.78 1484,1229.5C 1479.94,1287.19 1475.28,1344.85 1470,1402.5C 1390.69,1291.17 1356.52,1167.17 1367.5,1030.5 Z"/></g>
<g><path style="opacity:1" fill="#0272ba" d="M 1797.5,879.5 C 1838.17,949.02 1878.67,1018.69 1919,1088.5C 1913.14,1165.51 1906.8,1242.51 1900,1319.5C 1899.16,1329.5 1898.82,1339.5 1899,1349.5C 1939.41,1419.33 1980.08,1489 2021,1558.5C 2028.17,1473.13 2035.67,1387.79 2043.5,1302.5C 2084.32,1372.13 2125.15,1441.8 2166,1511.5C 2173.11,1429.51 2180.11,1347.51 2187,1265.5C 2187.09,1261.97 2187.76,1258.64 2189,1255.5C 2229.67,1324.83 2270.33,1394.17 2311,1463.5C 2318.5,1377.85 2325.83,1292.18 2333,1206.5C 2358.84,1249.5 2384.17,1292.84 2409,1336.5C 2409.67,1337.83 2409.67,1339.17 2409,1340.5C 2330.63,1481.48 2213.46,1573.31 2057.5,1616C 1968.68,1637.29 1879.68,1637.96 1790.5,1618C 1771.95,1613.66 1753.78,1608.16 1736,1601.5C 1740.84,1533.13 1746.5,1464.8 1753,1396.5C 1793.67,1465.83 1834.33,1535.17 1875,1604.5C 1883.49,1518.92 1890.83,1433.26 1897,1347.5C 1856.33,1277.5 1815.67,1207.5 1775,1137.5C 1766.81,1223.02 1759.14,1308.69 1752,1394.5C 1711.59,1324.67 1670.92,1255 1630,1185.5C 1622.56,1270.41 1615.06,1355.41 1607.5,1440.5C 1566.8,1371.63 1526.3,1302.63 1486,1233.5C 1486.06,1219.82 1486.72,1206.15 1488,1192.5C 1494.39,1119.5 1500.72,1046.5 1507,973.5C 1547.76,1042.7 1588.26,1112.03 1628.5,1181.5C 1628.56,1182.04 1628.89,1182.38 1629.5,1182.5C 1630.47,1180.26 1630.81,1177.92 1630.5,1175.5C 1637.04,1092.42 1644.2,1009.42 1652,926.5C 1692.92,996.003 1733.59,1065.67 1774,1135.5C 1781.72,1051.21 1788.88,966.877 1795.5,882.5C 1796.17,881.5 1796.83,880.5 1797.5,879.5 Z"/></g>
<g><path style="opacity:1" fill="#91bcde" d="M 1630.5,1175.5 C 1630.81,1177.92 1630.47,1180.26 1629.5,1182.5C 1628.89,1182.38 1628.56,1182.04 1628.5,1181.5C 1629.17,1179.5 1629.83,1177.5 1630.5,1175.5 Z"/></g>
<g><path style="opacity:1" fill="#fffefe" d="M 1273.5,1268.5 C 1288.81,1295.79 1303.65,1323.45 1318,1351.5C 1319.19,1353.04 1319.52,1354.71 1319,1356.5C 1287.53,1386.3 1256.36,1416.47 1225.5,1447C 1217.28,1453.27 1209.28,1459.77 1201.5,1466.5C 1202,1466.83 1202.5,1467.17 1203,1467.5C 1214.35,1463.79 1225.85,1460.62 1237.5,1458C 1278.06,1451.04 1318.56,1443.87 1359,1436.5C 1360.17,1436.83 1361.33,1437.17 1362.5,1437.5C 1376.97,1464.94 1391.3,1492.44 1405.5,1520C 1405.36,1520.77 1405.02,1521.44 1404.5,1522C 1335.01,1557.91 1265.68,1594.08 1196.5,1630.5C 1185.94,1612.26 1176.44,1593.59 1168,1574.5C 1203.91,1555.79 1239.75,1536.96 1275.5,1518C 1295.29,1507.77 1315.29,1498.11 1335.5,1489C 1334.91,1487.7 1333.91,1486.87 1332.5,1486.5C 1316.34,1491.05 1300.01,1494.89 1283.5,1498C 1236.33,1506.83 1189.16,1515.67 1142,1524.5C 1141.23,1524.36 1140.56,1524.02 1140,1523.5C 1132.4,1509.63 1125.4,1495.63 1119,1481.5C 1158.14,1443.36 1196.97,1404.86 1235.5,1366C 1243.63,1359.54 1251.46,1352.71 1259,1345.5C 1259.75,1344.36 1259.58,1343.36 1258.5,1342.5C 1242.96,1351.87 1227.3,1361.03 1211.5,1370C 1171.91,1390.38 1132.41,1410.88 1093,1431.5C 1083,1414.18 1073.5,1396.51 1064.5,1378.5C 1134.07,1341.55 1203.74,1304.88 1273.5,1268.5 Z"/></g>
<g><path style="opacity:1" fill="#fffefe" d="M 2576.5,1270.5 C 2646.03,1308.1 2715.36,1345.93 2784.5,1384C 2771.5,1407.67 2758.5,1431.33 2745.5,1455C 2692.48,1454.25 2639.48,1452.59 2586.5,1450C 2578.9,1448.96 2571.4,1447.46 2564,1445.5C 2563.17,1445.83 2562.33,1446.17 2561.5,1446.5C 2610.24,1471.37 2658.57,1497.04 2706.5,1523.5C 2706.83,1524 2707.17,1524.5 2707.5,1525C 2698.44,1542.95 2688.78,1560.45 2678.5,1577.5C 2609.15,1540.16 2540.15,1502.33 2471.5,1464C 2483.91,1440.52 2496.57,1417.19 2509.5,1394C 2559.52,1394.16 2609.52,1395.5 2659.5,1398C 2670.21,1399.17 2680.88,1400.67 2691.5,1402.5C 2692.5,1402.17 2693.5,1401.83 2694.5,1401.5C 2683.46,1396.43 2672.46,1391.26 2661.5,1386C 2623.34,1365.42 2585.34,1344.59 2547.5,1323.5C 2557.43,1305.97 2567.1,1288.3 2576.5,1270.5 Z"/></g>
<g><path style="opacity:1" fill="#0873ba" d="M 1607.5,1443.5 C 1634.93,1489.52 1662.27,1535.69 1689.5,1582C 1658.1,1568.62 1628.6,1551.78 1601,1531.5C 1602.59,1502.14 1604.76,1472.81 1607.5,1443.5 Z"/></g>
<g><path style="opacity:1" fill="#fffefe" d="M 2442.5,1502.5 C 2446.4,1504.89 2449.9,1507.89 2453,1511.5C 2461.02,1520.02 2468.85,1528.68 2476.5,1537.5C 2452.01,1560.49 2427.34,1583.32 2402.5,1606C 2412.35,1616.68 2422.35,1627.18 2432.5,1637.5C 2455.52,1615.98 2478.68,1594.65 2502,1573.5C 2512.65,1585.65 2523.48,1597.65 2534.5,1609.5C 2511.38,1630.79 2488.38,1652.29 2465.5,1674C 2475.83,1685 2486.17,1696 2496.5,1707C 2497.17,1707.67 2497.83,1707.67 2498.5,1707C 2523.67,1683.83 2548.83,1660.67 2574,1637.5C 2585.39,1649.05 2596.22,1661.05 2606.5,1673.5C 2565.53,1711.47 2524.53,1749.47 2483.5,1787.5C 2430.05,1729.54 2376.38,1671.71 2322.5,1614C 2362.4,1576.6 2402.4,1539.43 2442.5,1502.5 Z"/></g>
<g><path style="opacity:1" fill="#fffefe" d="M 1432.5,1548.5 C 1450.24,1561.4 1467.58,1574.9 1484.5,1589C 1451.28,1631.21 1418.45,1673.71 1386,1716.5C 1374.27,1741.2 1380.77,1759.36 1405.5,1771C 1417.88,1775.07 1429.21,1773.07 1439.5,1765C 1445.03,1759.8 1450.2,1754.3 1455,1748.5C 1484.31,1710.36 1513.81,1672.36 1543.5,1634.5C 1560.15,1647.15 1576.48,1660.15 1592.5,1673.5C 1563.48,1710.69 1534.64,1748.02 1506,1785.5C 1468.79,1834.73 1424.29,1842.56 1372.5,1809C 1351.34,1794.85 1335.18,1776.35 1324,1753.5C 1314.09,1725.28 1317.76,1698.95 1335,1674.5C 1367.72,1632.62 1400.22,1590.62 1432.5,1548.5 Z"/></g>
<g><path style="opacity:1" fill="#fffbfc" d="M 1497.5,1598.5 C 1508.95,1606.74 1520.29,1615.24 1531.5,1624C 1511.99,1637.9 1492.32,1651.23 1472.5,1664C 1480.98,1642.22 1489.31,1620.38 1497.5,1598.5 Z"/></g>
<g><path style="opacity:1" fill="#fffefe" d="M 2280.5,1635.5 C 2318.45,1704.56 2355.78,1774.06 2392.5,1844C 2373.94,1854.87 2355.1,1865.37 2336,1875.5C 2319.99,1846.13 2303.99,1816.8 2288,1787.5C 2265.91,1799.46 2243.75,1811.29 2221.5,1823C 2220.98,1823.56 2220.64,1824.23 2220.5,1825C 2235.7,1853.9 2251.03,1882.73 2266.5,1911.5C 2247.77,1922.2 2228.77,1932.53 2209.5,1942.5C 2171.64,1873.45 2134.31,1804.12 2097.5,1734.5C 2116.34,1723.91 2135.34,1713.58 2154.5,1703.5C 2167.83,1726.81 2180.66,1750.48 2193,1774.5C 2194.27,1776.72 2195.77,1778.72 2197.5,1780.5C 2220.35,1768.91 2242.68,1756.58 2264.5,1743.5C 2251.22,1717.76 2237.55,1692.26 2223.5,1667C 2242.56,1656.47 2261.56,1645.97 2280.5,1635.5 Z"/></g>
<g><path style="opacity:1" fill="#fffefe" d="M 1639.5,1692.5 C 1665.32,1701.11 1691.32,1709.11 1717.5,1716.5C 1726.32,1767.4 1734.48,1818.4 1742,1869.5C 1742.5,1879.49 1742.67,1889.49 1742.5,1899.5C 1743.5,1899.5 1744.5,1899.5 1745.5,1899.5C 1747.85,1887.08 1750.69,1874.75 1754,1862.5C 1766.53,1821.73 1779.37,1781.06 1792.5,1740.5C 1811.85,1746.56 1831.18,1752.73 1850.5,1759C 1826.84,1833.97 1803.17,1908.97 1779.5,1984C 1753.55,1976.8 1727.71,1968.96 1702,1960.5C 1694.23,1915.52 1686.56,1870.52 1679,1825.5C 1677.12,1809.9 1675.95,1794.23 1675.5,1778.5C 1659.93,1830.98 1643.76,1883.32 1627,1935.5C 1625.61,1936.55 1624.11,1936.72 1622.5,1936C 1605.19,1930.4 1587.86,1924.9 1570.5,1919.5C 1569.36,1917.58 1569.19,1915.58 1570,1913.5C 1593.28,1839.83 1616.45,1766.16 1639.5,1692.5 Z"/></g>
<g><path style="opacity:1" fill="#fffefe" d="M 1987.5,1740.5 C 2029.77,1737.45 2060.1,1754.79 2078.5,1792.5C 2060.4,1800.97 2042.24,1809.3 2024,1817.5C 2019.94,1809.89 2014.77,1803.06 2008.5,1797C 1992.58,1787.81 1977.24,1788.81 1962.5,1800C 1951.7,1811.24 1946.7,1824.74 1947.5,1840.5C 1948.73,1867.69 1955.57,1893.36 1968,1917.5C 1982.63,1940.7 2002.13,1945.87 2026.5,1933C 2033.68,1927.14 2038.18,1919.64 2040,1910.5C 2041.24,1904.22 2042.08,1897.88 2042.5,1891.5C 2062.83,1891.5 2083.17,1891.5 2103.5,1891.5C 2102.88,1943.9 2076.88,1975.4 2025.5,1986C 1963.71,1998.69 1919.88,1976.52 1894,1919.5C 1881.36,1888.07 1878.03,1855.74 1884,1822.5C 1895.22,1785.62 1919.05,1760.78 1955.5,1748C 1966.12,1744.65 1976.79,1742.15 1987.5,1740.5 Z"/></g>
</svg>
