<?xml version="1.0" encoding="UTF-8"?>
<!DOCTYPE svg PUBLIC "-//W3C//DTD SVG 1.1//EN" "http://www.w3.org/Graphics/SVG/1.1/DTD/svg11.dtd">
<svg xmlns="http://www.w3.org/2000/svg" version="1.1" width="1671px" height="1894px" style="shape-rendering:geometricPrecision; text-rendering:geometricPrecision; image-rendering:optimizeQuality; fill-rule:evenodd; clip-rule:evenodd" xmlns:xlink="http://www.w3.org/1999/xlink">
<g><path style="opacity:0.959" fill="#010101" d="M 831.5,-0.5 C 833.833,-0.5 836.167,-0.5 838.5,-0.5C 935.226,61.3609 1037.89,111.861 1146.5,151C 1243.2,185.284 1342.87,202.617 1445.5,203C 1520.57,203.17 1595.57,203.67 1670.5,204.5C 1670.5,534.5 1670.5,864.5 1670.5,1194.5C 1665.68,1255.13 1645.51,1310.13 1610,1359.5C 1569.79,1412.04 1523.29,1458.21 1470.5,1498C 1422.45,1532.69 1372.79,1565.03 1321.5,1595C 1226.31,1649.27 1128.97,1699.93 1029.5,1747C 961.354,1781.8 900.52,1826.63 847,1881.5C 843.619,1885.38 840.453,1889.38 837.5,1893.5C 835.833,1893.5 834.167,1893.5 832.5,1893.5C 803.76,1859.92 771.427,1830.42 735.5,1805C 705.669,1784.24 674.669,1765.24 642.5,1748C 526.235,1693.38 413.235,1633.38 303.5,1568C 243.56,1532.07 187.56,1490.73 135.5,1444C 98.9689,1410.65 67.8023,1373.15 42,1331.5C 17.2168,1288.66 3.0501,1242.66 -0.5,1193.5C -0.5,863.833 -0.5,534.167 -0.5,204.5C 74.4299,203.67 149.43,203.17 224.5,203C 328.21,202.604 428.877,184.937 526.5,150C 633.991,110.919 735.658,60.7525 831.5,-0.5 Z"/></g>
<g><path style="opacity:1" fill="#97855c" d="M 1440.5,210.5 C 1514.33,211.499 1588.33,211.833 1662.5,211.5C 1662.5,537.167 1662.5,862.833 1662.5,1188.5C 1660.14,1239.88 1645.64,1287.54 1619,1331.5C 1593.72,1371.14 1563.55,1406.97 1528.5,1439C 1476.77,1485.4 1421.1,1526.4 1361.5,1562C 1251.1,1627.71 1137.43,1688.04 1020.5,1743C 967.502,1770.99 918.502,1804.65 873.5,1844C 860.304,1856.86 847.47,1870.03 835,1883.5C 797.598,1842.77 755.765,1807.6 709.5,1778C 689.161,1765.5 668.494,1753.5 647.5,1742C 547.361,1694.6 449.361,1643.6 353.5,1589C 291.567,1553.55 232.567,1513.88 176.5,1470C 136.52,1436.69 100.687,1399.52 69,1358.5C 37.6691,1316.54 18.0025,1269.54 10,1217.5C 8.43902,1207.56 7.60569,1197.56 7.5,1187.5C 7.5,862.167 7.5,536.833 7.5,211.5C 81.6685,211.833 155.669,211.499 229.5,210.5C 331.44,209.545 430.44,192.045 526.5,158C 634.825,118.585 737.659,68.4183 835,7.5C 933.018,68.7567 1036.52,119.257 1145.5,159C 1240.94,192.374 1339.27,209.541 1440.5,210.5 Z"/></g>
<g><path style="opacity:1" fill="#060606" d="M 833.5,39.5 C 905.633,82.0692 980.3,120.236 1057.5,154C 1128.03,184.51 1201.03,207.177 1276.5,222C 1277.55,223.388 1277.72,224.888 1277,226.5C 869.167,560.333 461.333,894.167 53.5,1228C 50.8333,1230 48.1667,1232 45.5,1234C 43.2992,1234.82 41.4659,1234.32 40,1232.5C 36.6151,1214.32 34.6151,1195.98 34,1177.5C 33.3333,864.833 33.3333,552.167 34,239.5C 34.5,239 35,238.5 35.5,238C 107.167,237.667 178.833,237.333 250.5,237C 351.232,233.805 448.898,215.139 543.5,181C 644.942,143.11 741.609,95.9433 833.5,39.5 Z"/></g>
<g><path style="opacity:1" fill="#1f3c90" d="M 41.5,1185.5 C 41.5,872.167 41.5,558.833 41.5,245.5C 103.002,245.832 164.336,245.499 225.5,244.5C 322.956,243.477 417.956,228.643 510.5,200C 623.919,160.712 732.085,109.878 835,47.5C 938.625,111.229 1048.12,162.396 1163.5,201C 1196.95,211.53 1230.95,220.196 1265.5,227C 860.684,558.573 455.684,889.906 50.5,1221C 49.0337,1221.64 47.7003,1222.47 46.5,1223.5C 43.3238,1211.04 41.6571,1198.37 41.5,1185.5 Z"/></g>
<g><path style="opacity:1" fill="#837961" d="M 229.5,210.5 C 155.669,211.499 81.6685,211.833 7.5,211.5C 7.5,536.833 7.5,862.167 7.5,1187.5C 6.50017,862 6.16684,536.334 6.5,210.5C 80.8333,210.5 155.167,210.5 229.5,210.5 Z"/></g>
<g><path style="opacity:1" fill="#837961" d="M 1440.5,210.5 C 1514.83,210.5 1589.17,210.5 1663.5,210.5C 1663.83,536.667 1663.5,862.667 1662.5,1188.5C 1662.5,862.833 1662.5,537.167 1662.5,211.5C 1588.33,211.833 1514.33,211.499 1440.5,210.5 Z"/></g>
<g><path style="opacity:1" fill="#070707" d="M 1294.5,225.5 C 1335.94,231.703 1377.61,235.537 1419.5,237C 1491.58,237.006 1563.58,237.673 1635.5,239C 1636.66,326.097 1636.83,413.263 1636,500.5C 1207.5,851 779,1201.5 350.5,1552C 346.88,1552.84 343.546,1552.17 340.5,1550C 296.616,1523.9 254.283,1495.56 213.5,1465C 178.508,1437.02 145.675,1406.52 115,1373.5C 86.1502,1341.49 64.1502,1305.16 49,1264.5C 46.8611,1258.95 45.5277,1253.28 45,1247.5C 461.689,906.969 878.189,566.302 1294.5,225.5 Z"/></g>
<g><path style="opacity:1" fill="#fefefe" d="M 1465.5,244.5 C 1519.66,245.499 1574,245.832 1628.5,245.5C 1628.5,329.5 1628.5,413.5 1628.5,497.5C 1201.52,846.969 774.356,1196.3 347,1545.5C 294.695,1514.85 244.862,1480.68 197.5,1443C 164.333,1415.17 133.833,1384.67 106,1351.5C 82.8983,1322.31 65.2317,1289.98 53,1254.5C 52.613,1250.83 54.113,1248 57.5,1246C 470.684,908.573 883.684,570.906 1296.5,233C 1320.14,235.598 1343.81,238.264 1367.5,241C 1400.11,243.718 1432.78,244.884 1465.5,244.5 Z"/></g>
<g><path style="opacity:1" fill="#4c5389" d="M 225.5,244.5 C 164.336,245.499 103.002,245.832 41.5,245.5C 41.5,558.833 41.5,872.167 41.5,1185.5C 40.5002,872 40.1668,558.334 40.5,244.5C 102.167,244.5 163.833,244.5 225.5,244.5 Z"/></g>
<g><path style="opacity:1" fill="#c1c1c0" d="M 1465.5,244.5 C 1520.17,244.5 1574.83,244.5 1629.5,244.5C 1629.83,329.002 1629.5,413.335 1628.5,497.5C 1628.5,413.5 1628.5,329.5 1628.5,245.5C 1574,245.832 1519.66,245.499 1465.5,244.5 Z"/></g>
<g><path style="opacity:1" fill="#0a0a0b" d="M 1274.5,323.5 C 1278.79,323.035 1282.79,323.868 1286.5,326C 1376.75,380.041 1466.92,434.208 1557,488.5C 1559.25,492.666 1558.42,496.166 1554.5,499C 1545.21,505.955 1536.21,513.288 1527.5,521C 1524.23,522.213 1520.9,522.546 1517.5,522C 1443.17,476.167 1368.83,430.333 1294.5,384.5C 1322.75,466.389 1351.58,548.389 1381,630.5C 1381.82,633.964 1381.48,637.298 1380,640.5C 1370.46,649.044 1360.63,657.21 1350.5,665C 1346.65,666.157 1343.82,664.991 1342,661.5C 1307.8,561.241 1273.8,460.908 1240,360.5C 1239.21,357.366 1239.54,354.366 1241,351.5C 1251.77,341.549 1262.94,332.216 1274.5,323.5 Z"/></g>
<g><path style="opacity:1" fill="#213c90" d="M 1275.5,330.5 C 1277.53,330.338 1279.53,330.505 1281.5,331C 1371.17,384.833 1460.83,438.667 1550.5,492.5C 1541.71,499.448 1533.05,506.615 1524.5,514C 1522.5,514.667 1520.5,514.667 1518.5,514C 1442,467.251 1365.67,420.251 1289.5,373C 1285.9,371.927 1283.9,373.261 1283.5,377C 1313.47,461.907 1343.64,546.74 1374,631.5C 1374.67,633.167 1374.67,634.833 1374,636.5C 1365.33,643.833 1356.67,651.167 1348,658.5C 1314.92,558.922 1281.25,459.588 1247,360.5C 1246.19,358.421 1246.36,356.421 1247.5,354.5C 1257.39,346.928 1266.72,338.928 1275.5,330.5 Z"/></g>
<g><path style="opacity:1" fill="#0b0b0b" d="M 1120.5,448.5 C 1123.19,448.336 1125.85,448.503 1128.5,449C 1136.02,457.222 1143.19,465.722 1150,474.5C 1150.75,477.303 1150.42,479.97 1149,482.5C 1105.5,518 1062,553.5 1018.5,589C 1016.77,590.389 1015.44,592.056 1014.5,594C 1031.64,616.463 1049.47,638.297 1068,659.5C 1109.11,626.726 1149.95,593.559 1190.5,560C 1193.7,558.517 1197.04,558.183 1200.5,559C 1207.45,567.074 1214.29,575.241 1221,583.5C 1222.47,588.735 1220.97,592.901 1216.5,596C 1176.67,628.5 1136.83,661 1097,693.5C 1096.33,694.5 1096.33,695.5 1097,696.5C 1116.17,719.667 1135.33,742.833 1154.5,766C 1155.83,766.667 1157.17,766.667 1158.5,766C 1203.54,728.622 1248.88,691.622 1294.5,655C 1298.18,653.973 1301.35,654.806 1304,657.5C 1309.67,664.5 1315.33,671.5 1321,678.5C 1323.5,683.646 1322.67,688.146 1318.5,692C 1263.83,736.667 1209.17,781.333 1154.5,826C 1151.2,828.374 1147.53,829.04 1143.5,828C 1079.31,750.442 1015.47,672.609 952,594.5C 950.837,589.655 952.337,585.821 956.5,583C 1011.36,538.302 1066.02,493.469 1120.5,448.5 Z"/></g>
<g><path style="opacity:1" fill="#213c90" d="M 1123.5,455.5 C 1124.68,455.281 1125.68,455.614 1126.5,456.5C 1131.19,463.201 1136.35,469.534 1142,475.5C 1142.78,476.944 1142.61,478.277 1141.5,479.5C 1097.35,515.144 1053.35,550.977 1009.5,587C 1006.74,589.995 1005.9,593.495 1007,597.5C 1025.83,620.333 1044.67,643.167 1063.5,666C 1068.45,667.31 1072.79,666.31 1076.5,663C 1115.54,630.289 1154.88,597.956 1194.5,566C 1195.5,565.333 1196.5,565.333 1197.5,566C 1203.36,573.023 1209.02,580.19 1214.5,587.5C 1173.13,621.942 1131.63,656.276 1090,690.5C 1089.18,693.964 1089.52,697.298 1091,700.5C 1110.71,723.876 1130.04,747.543 1149,771.5C 1151.99,774.265 1155.49,775.098 1159.5,774C 1204.83,737 1250.17,700 1295.5,663C 1298.28,662.731 1300.45,663.898 1302,666.5C 1306.51,672.344 1311.01,678.178 1315.5,684C 1259.72,730.064 1203.72,775.897 1147.5,821.5C 1084.35,745.198 1021.69,668.532 959.5,591.5C 959.529,589.971 960.196,588.804 961.5,588C 1015.75,544.054 1069.75,499.887 1123.5,455.5 Z"/></g>
<g><path style="opacity:1" fill="#0a0908" d="M 1630.5,517.5 C 1632.47,517.261 1634.3,517.594 1636,518.5C 1636.67,738.833 1636.67,959.167 1636,1179.5C 1633.76,1243.91 1612.76,1301.24 1573,1351.5C 1543.87,1386.97 1511.7,1419.47 1476.5,1449C 1420.94,1492.8 1362.27,1532.13 1300.5,1567C 1210.15,1618.35 1117.81,1666.35 1023.5,1711C 966.5,1739.38 913.834,1774.05 865.5,1815C 856.196,1823.3 847.196,1831.97 838.5,1841C 837.128,1841.4 835.795,1841.9 834.5,1842.5C 784.281,1794.78 728.614,1754.61 667.5,1722C 575.298,1677.9 484.631,1631.23 395.5,1582C 383.417,1575.21 371.584,1568.04 360,1560.5C 359.405,1559.1 359.572,1557.77 360.5,1556.5C 364.167,1553.33 367.833,1550.17 371.5,1547C 791.356,1203.97 1211.02,860.802 1630.5,517.5 Z"/></g>
<g><path style="opacity:1" fill="#efb907" d="M 1628.5,528.5 C 1629.67,744.333 1629.83,960.333 1629,1176.5C 1627.48,1235.51 1609.48,1288.85 1575,1336.5C 1543.61,1377.56 1507.78,1414.39 1467.5,1447C 1413.42,1489.22 1356.42,1527.22 1296.5,1561C 1204.81,1613.01 1111.15,1661.68 1015.5,1707C 949.247,1740.6 889.08,1782.77 835,1833.5C 786.058,1786.61 731.558,1747.44 671.5,1716C 582.456,1673.31 494.789,1628.31 408.5,1581C 395.668,1573.75 383.002,1566.25 370.5,1558.5C 789.562,1214.77 1208.9,871.432 1628.5,528.5 Z"/></g>
<g><path style="opacity:1" fill="#09090a" d="M 880.5,666.5 C 924.453,665.759 962.786,679.925 995.5,709C 1035.82,744.811 1058.16,789.645 1062.5,843.5C 1061.91,887.172 1045.24,923.339 1012.5,952C 958.206,999.327 899.206,1005.99 835.5,972C 776.461,934.442 744.794,880.608 740.5,810.5C 743.338,768.658 760.671,734.158 792.5,707C 817.733,684.55 847.066,671.05 880.5,666.5 Z"/></g>
<g><path style="opacity:1" fill="#213c90" d="M 881.5,673.5 C 923.957,673.594 960.957,687.761 992.5,716C 1025.07,745.315 1045.57,781.482 1054,824.5C 1059.46,871.796 1044.96,911.629 1010.5,944C 986.807,966.513 958.807,980.513 926.5,986C 897.367,988.882 870.034,983.216 844.5,969C 789.736,936.534 757.569,888.701 748,825.5C 745.469,788.423 756.469,756.089 781,728.5C 800.714,706.778 824.214,690.611 851.5,680C 861.469,677.108 871.469,674.941 881.5,673.5 Z"/></g>
<g><path style="opacity:1" fill="#09090a" d="M 875.5,706.5 C 916.718,706.025 951.218,721.025 979,751.5C 999.088,773.284 1012.75,798.617 1020,827.5C 1026.2,888.607 1000.36,929.441 942.5,950C 907.831,957.831 876.165,951.164 847.5,930C 818.417,907.597 797.917,879.097 786,844.5C 772.805,783.056 794.639,739.223 851.5,713C 859.567,710.601 867.567,708.434 875.5,706.5 Z"/></g>
<g><path style="opacity:1" fill="#fefefe" d="M 879.5,713.5 C 909.354,713.435 935.688,722.935 958.5,742C 983.142,763.323 1000.64,789.49 1011,820.5C 1021.97,872.723 1004.13,911.557 957.5,937C 921.087,952.784 886.754,949.118 854.5,926C 824.41,903.902 803.576,875.068 792,839.5C 781.402,782.11 802.902,741.943 856.5,719C 864.135,716.445 871.802,714.612 879.5,713.5 Z"/></g>
<g><path style="opacity:1" fill="#0b0b0b" d="M 654.5,829.5 C 658.587,829.294 662.087,830.627 665,833.5C 727.333,909.833 789.667,986.167 852,1062.5C 854.732,1068.56 853.232,1073.39 847.5,1077C 840.5,1082.67 833.5,1088.33 826.5,1094C 822.833,1096 819.167,1096 815.5,1094C 762.333,1028.83 709.167,963.667 656,898.5C 654.281,896.443 652.281,894.776 650,893.5C 611.678,924.486 573.344,955.486 535,986.5C 534.333,987.833 534.333,989.167 535,990.5C 589.333,1057.5 643.667,1124.5 698,1191.5C 699.202,1195.79 698.035,1199.29 694.5,1202C 687.167,1208 679.833,1214 672.5,1220C 668.361,1224.04 664.028,1224.37 659.5,1221C 598.025,1145.22 536.192,1069.72 474,994.5C 467.845,988.439 468.012,982.605 474.5,977C 534.98,928.347 594.98,879.181 654.5,829.5 Z"/></g>
<g><path style="opacity:1" fill="#213c90" d="M 656.5,837.5 C 657.822,837.33 658.989,837.663 660,838.5C 722.356,914.688 784.523,991.022 846.5,1067.5C 838.672,1074.49 830.672,1081.32 822.5,1088C 821.365,1088.75 820.365,1088.58 819.5,1087.5C 764.673,1019.85 709.34,952.681 653.5,886C 651.5,885.333 649.5,885.333 647.5,886C 606.874,918.235 566.707,951.069 527,984.5C 526.348,987.594 526.682,990.594 528,993.5C 582,1060.17 636,1126.83 690,1193.5C 690.749,1194.64 690.583,1195.64 689.5,1196.5C 681.5,1202.83 673.5,1209.17 665.5,1215.5C 602.033,1139.24 539.033,1062.57 476.5,985.5C 536.531,936.158 596.531,886.825 656.5,837.5 Z"/></g>
<g><path style="opacity:1" fill="#0b0b0c" d="M 351.5,1077.5 C 356.947,1076.83 361.947,1077.99 366.5,1081C 456.582,1134.79 546.416,1188.96 636,1243.5C 636.93,1246.85 636.097,1249.68 633.5,1252C 624.21,1258.95 615.21,1266.29 606.5,1274C 600.911,1277.53 595.578,1277.2 590.5,1273C 568.833,1259.33 547.167,1245.67 525.5,1232C 523.305,1230.63 520.971,1230.29 518.5,1231C 491.457,1253.71 464.124,1276.04 436.5,1298C 434.112,1300.05 432.112,1302.38 430.5,1305C 440.571,1332.55 450.238,1360.22 459.5,1388C 459.307,1393.2 456.974,1397.2 452.5,1400C 445.167,1406 437.833,1412 430.5,1418C 427.173,1420.13 424.006,1419.97 421,1417.5C 386.272,1316.65 351.938,1215.65 318,1114.5C 316.96,1110.47 317.626,1106.8 320,1103.5C 330.69,1094.97 341.19,1086.3 351.5,1077.5 Z"/></g>
<g><path style="opacity:1" fill="#213c90" d="M 353.5,1084.5 C 355.527,1084.34 357.527,1084.5 359.5,1085C 448.835,1139.34 538.502,1193.17 628.5,1246.5C 619.688,1253.48 611.021,1260.64 602.5,1268C 600.5,1268.67 598.5,1268.67 596.5,1268C 573.998,1254.25 551.665,1240.25 529.5,1226C 524.657,1223.17 519.657,1222.83 514.5,1225C 485.5,1248.67 456.5,1272.33 427.5,1296C 423.797,1299.4 422.631,1303.56 424,1308.5C 433.987,1334.96 443.487,1361.63 452.5,1388.5C 452.124,1390.38 451.124,1391.88 449.5,1393C 441.833,1399.17 434.167,1405.33 426.5,1411.5C 392.106,1311.32 358.106,1210.99 324.5,1110.5C 334.161,1101.84 343.828,1093.17 353.5,1084.5 Z"/></g>
<g><path style="opacity:1" fill="#0a0a0b" d="M 363.5,1126.5 C 368.478,1127.82 373.145,1129.99 377.5,1133C 414.582,1156.62 451.749,1180.12 489,1203.5C 489.831,1207.67 488.665,1211.17 485.5,1214C 462.5,1232.33 439.5,1250.67 416.5,1269C 414.5,1269.67 412.5,1269.67 410.5,1269C 408.812,1266.27 407.312,1263.44 406,1260.5C 391.918,1217.92 377.251,1175.59 362,1133.5C 361.167,1130.83 361.667,1128.5 363.5,1126.5 Z"/></g>
<g><path style="opacity:1" fill="#fcfcfc" d="M 371.5,1138.5 C 408.483,1160.99 445.15,1183.99 481.5,1207.5C 459.5,1225.5 437.5,1243.5 415.5,1261.5C 413.879,1259.85 412.712,1257.85 412,1255.5C 398.598,1216.46 385.098,1177.46 371.5,1138.5 Z"/></g>
</svg>
