<?xml version="1.0" encoding="UTF-8"?>
<!DOCTYPE svg PUBLIC "-//W3C//DTD SVG 1.1//EN" "http://www.w3.org/Graphics/SVG/1.1/DTD/svg11.dtd">
<svg xmlns="http://www.w3.org/2000/svg" version="1.1" width="1200px" height="1401px" style="shape-rendering:geometricPrecision; text-rendering:geometricPrecision; image-rendering:optimizeQuality; fill-rule:evenodd; clip-rule:evenodd" xmlns:xlink="http://www.w3.org/1999/xlink">
<g><path style="opacity:1" fill="#142b71" d="M 553.5,-0.5 C 568.833,-0.5 584.167,-0.5 599.5,-0.5C 599.5,8.83333 599.5,18.1667 599.5,27.5C 447.916,27.4244 298.583,45.591 151.5,82C 109.768,92.8552 68.7675,106.022 28.5,121.5C 27.3333,398.499 27.1667,675.499 28,952.5C 33.5379,1006.12 58.3713,1047.95 102.5,1078C 267.697,1175.1 433.03,1271.93 598.5,1368.5C 598.5,1369.17 598.833,1369.5 599.5,1369.5C 599.5,1379.83 599.5,1390.17 599.5,1400.5C 598.833,1400.5 598.167,1400.5 597.5,1400.5C 438.225,1306.52 278.558,1213.02 118.5,1120C 91.3461,1105.15 67.1795,1086.32 46,1063.5C 20.079,1030.91 4.57897,993.914 -0.5,952.5C -0.5,669.5 -0.5,386.5 -0.5,103.5C 76.5137,72.9102 155.847,50.0769 237.5,35C 342.131,15.572 447.464,3.73872 553.5,-0.5 Z"/></g>
<g><path style="opacity:0.989" fill="#0d235f" d="M 599.5,-0.5 C 614.833,-0.5 630.167,-0.5 645.5,-0.5C 772.495,4.24982 898.161,20.4165 1022.5,48C 1083.04,61.7938 1142.04,80.2938 1199.5,103.5C 1199.5,381.833 1199.5,660.167 1199.5,938.5C 1198.17,938.833 1198.17,939.167 1199.5,939.5C 1199.5,943.5 1199.5,947.5 1199.5,951.5C 1192.81,1010.06 1166.48,1057.56 1120.5,1094C 1109.35,1102.41 1097.68,1110.08 1085.5,1117C 923.939,1211.27 762.606,1305.77 601.5,1400.5C 600.833,1400.5 600.167,1400.5 599.5,1400.5C 599.5,1390.17 599.5,1379.83 599.5,1369.5C 763.353,1273.16 927.353,1176.99 1091.5,1081C 1139.55,1050.12 1166.05,1005.95 1171,948.5C 1171.83,672.833 1171.67,397.166 1170.5,121.5C 1092.84,92.6689 1013.18,71.1689 931.5,57C 821.674,37.8456 711.008,28.0122 599.5,27.5C 599.5,18.1667 599.5,8.83333 599.5,-0.5 Z"/></g>
<g><path style="opacity:1" fill="#b29157" d="M 599.5,27.5 C 599.5,35.8333 599.5,44.1667 599.5,52.5C 597.833,52.5 596.167,52.5 594.5,52.5C 456.032,52.2227 319.365,67.3893 184.5,98C 139.77,108.683 95.7701,121.85 52.5,137.5C 52.3333,408.5 52.5,679.5 53,950.5C 57.5079,996.04 78.3412,1031.87 115.5,1058C 276.528,1152.18 437.528,1246.34 598.5,1340.5C 598.5,1341.17 598.833,1341.5 599.5,1341.5C 599.827,1350.68 599.493,1359.68 598.5,1368.5C 433.03,1271.93 267.697,1175.1 102.5,1078C 58.3713,1047.95 33.5379,1006.12 28,952.5C 27.1667,675.499 27.3333,398.499 28.5,121.5C 68.7675,106.022 109.768,92.8552 151.5,82C 298.583,45.591 447.916,27.4244 599.5,27.5 Z"/></g>
<g><path style="opacity:1" fill="#957a4a" d="M 599.5,27.5 C 711.008,28.0122 821.674,37.8456 931.5,57C 1013.18,71.1689 1092.84,92.6689 1170.5,121.5C 1171.67,397.166 1171.83,672.833 1171,948.5C 1166.05,1005.95 1139.55,1050.12 1091.5,1081C 927.353,1176.99 763.353,1273.16 599.5,1369.5C 598.833,1369.5 598.5,1369.17 598.5,1368.5C 599.493,1359.68 599.827,1350.68 599.5,1341.5C 764.304,1244.93 928.97,1148.1 1093.5,1051C 1124.81,1024.88 1142.31,991.38 1146,950.5C 1146.5,679.5 1146.67,408.5 1146.5,137.5C 1035.5,99.3326 921.505,74.4993 804.5,63C 736.365,55.7689 668.031,52.2689 599.5,52.5C 599.5,44.1667 599.5,35.8333 599.5,27.5 Z"/></g>
<g><path style="opacity:1" fill="#142b72" d="M 594.5,52.5 C 595.919,53.4511 597.585,53.7845 599.5,53.5C 599.833,223.667 599.5,393.667 598.5,563.5C 591.872,543.944 584.872,524.611 577.5,505.5C 570.018,504.508 562.352,504.175 554.5,504.5C 554.5,563.167 554.5,621.833 554.5,680.5C 564.015,680.827 573.348,680.494 582.5,679.5C 582.333,651.831 582.5,624.165 583,596.5C 589.005,612.348 594.505,628.348 599.5,644.5C 599.5,751.833 599.5,859.167 599.5,966.5C 600.5,966.5 601.5,966.5 602.5,966.5C 601.791,967.404 600.791,967.737 599.5,967.5C 593.439,966.474 587.772,964.307 582.5,961C 434.5,875.667 286.5,790.333 138.5,705C 136.299,704.175 134.466,704.675 133,706.5C 132.333,781.167 132.333,855.833 133,930.5C 135.443,946.279 142.943,959.113 155.5,969C 300.674,1055.09 446.34,1140.42 592.5,1225C 594.74,1225.98 597.073,1226.48 599.5,1226.5C 599.832,1264.67 599.499,1302.67 598.5,1340.5C 437.528,1246.34 276.528,1152.18 115.5,1058C 78.3412,1031.87 57.5079,996.04 53,950.5C 52.5,679.5 52.3333,408.5 52.5,137.5C 95.7701,121.85 139.77,108.683 184.5,98C 319.365,67.3893 456.032,52.2227 594.5,52.5 Z"/></g>
<g><path style="opacity:1" fill="#0e2360" d="M 594.5,52.5 C 596.167,52.5 597.833,52.5 599.5,52.5C 668.031,52.2689 736.365,55.7689 804.5,63C 921.505,74.4993 1035.5,99.3326 1146.5,137.5C 1146.67,408.5 1146.5,679.5 1146,950.5C 1142.31,991.38 1124.81,1024.88 1093.5,1051C 928.97,1148.1 764.304,1244.93 599.5,1341.5C 598.833,1341.5 598.5,1341.17 598.5,1340.5C 599.499,1302.67 599.832,1264.67 599.5,1226.5C 603.797,1225.85 607.797,1224.35 611.5,1222C 755.829,1138.17 899.829,1053.84 1043.5,969C 1056.64,958.211 1064.14,944.377 1066,927.5C 1066.67,853.833 1066.67,780.167 1066,706.5C 1065.04,705.106 1063.71,704.439 1062,704.5C 913.48,789.847 764.98,875.347 616.5,961C 612.137,963.684 607.47,965.518 602.5,966.5C 601.5,966.5 600.5,966.5 599.5,966.5C 599.5,859.167 599.5,751.833 599.5,644.5C 604.001,655.991 608.334,667.657 612.5,679.5C 620.138,680.497 627.804,680.831 635.5,680.5C 635.5,621.833 635.5,563.167 635.5,504.5C 626.5,504.5 617.5,504.5 608.5,504.5C 607.833,532.167 607.167,559.833 606.5,587.5C 604.033,579.433 601.367,571.433 598.5,563.5C 599.5,393.667 599.833,223.667 599.5,53.5C 597.585,53.7845 595.919,53.4511 594.5,52.5 Z"/></g>
<g><path style="opacity:1" fill="#fdfdfe" d="M 285.5,190.5 C 317.17,186.372 336.67,199.705 344,230.5C 344.971,295.191 344.638,359.857 343,424.5C 333.41,453.385 313.577,464.885 283.5,459C 265,452.164 254.166,438.998 251,419.5C 250.333,356.5 250.333,293.5 251,230.5C 254.857,210.384 266.357,197.051 285.5,190.5 Z"/></g>
<g><path style="opacity:1" fill="#fdfdfd" d="M 371.5,194.5 C 391.866,194.101 412.2,194.601 432.5,196C 450.499,202.675 461.333,215.508 465,234.5C 465.667,260.833 465.667,287.167 465,313.5C 462.819,328.396 455.319,339.562 442.5,347C 441.941,347.725 441.608,348.558 441.5,349.5C 451.141,384.44 460.475,419.44 469.5,454.5C 460.475,454.832 451.475,454.498 442.5,453.5C 433.501,420.173 424.501,386.839 415.5,353.5C 409.5,353.5 403.5,353.5 397.5,353.5C 397.5,387.167 397.5,420.833 397.5,454.5C 388.833,454.5 380.167,454.5 371.5,454.5C 371.5,367.833 371.5,281.167 371.5,194.5 Z"/></g>
<g><path style="opacity:1" fill="#d5dae6" d="M 495.5,194.5 C 495.5,280.833 495.5,367.167 495.5,453.5C 512.833,453.5 530.167,453.5 547.5,453.5C 530.008,454.497 512.341,454.83 494.5,454.5C 494.167,367.665 494.501,280.998 495.5,194.5 Z"/></g>
<g><path style="opacity:1" fill="#fdfdfe" d="M 495.5,194.5 C 513.17,194.333 530.836,194.5 548.5,195C 570.496,198.662 583.663,211.495 588,233.5C 588.667,293.5 588.667,353.5 588,413.5C 583.858,436.476 570.358,449.809 547.5,453.5C 530.167,453.5 512.833,453.5 495.5,453.5C 495.5,367.167 495.5,280.833 495.5,194.5 Z"/></g>
<g><path style="opacity:1" fill="#fefefe" d="M 702.5,194.5 C 702.5,202.833 702.5,211.167 702.5,219.5C 681.993,219.17 661.66,219.503 641.5,220.5C 641.5,250.833 641.5,281.167 641.5,311.5C 657.5,311.5 673.5,311.5 689.5,311.5C 689.5,319.833 689.5,328.167 689.5,336.5C 673.325,336.17 657.325,336.504 641.5,337.5C 641.5,367.833 641.5,398.167 641.5,428.5C 661.833,428.5 682.167,428.5 702.5,428.5C 702.5,436.833 702.5,445.167 702.5,453.5C 673.5,453.5 644.5,453.5 615.5,453.5C 615.5,367.167 615.5,280.833 615.5,194.5C 644.5,194.5 673.5,194.5 702.5,194.5 Z"/></g>
<g><path style="opacity:1" fill="#fcfcfd" d="M 825.5,450.5 C 825.5,451.5 825.5,452.5 825.5,453.5C 817.167,453.5 808.833,453.5 800.5,453.5C 800.737,452.209 800.404,451.209 799.5,450.5C 797.32,431.184 795.32,411.85 793.5,392.5C 778.833,392.5 764.167,392.5 749.5,392.5C 747.793,412.195 745.793,431.862 743.5,451.5C 735.101,453.425 726.434,454.092 717.5,453.5C 717.5,452.5 717.5,451.5 717.5,450.5C 728.331,365.186 738.998,279.853 749.5,194.5C 764.167,194.5 778.833,194.5 793.5,194.5C 804.386,279.803 815.052,365.136 825.5,450.5 Z"/></g>
<g><path style="opacity:1" fill="#fdfdfd" d="M 842.5,194.5 C 851.167,194.5 859.833,194.5 868.5,194.5C 868.333,268.834 868.5,343.167 869,417.5C 875.209,433.517 886.042,437.684 901.5,430C 906.585,425.664 909.418,420.164 910,413.5C 910.5,340.501 910.667,267.501 910.5,194.5C 919.167,194.5 927.833,194.5 936.5,194.5C 936.667,268.167 936.5,341.834 936,415.5C 930.647,448.18 911.48,462.68 878.5,459C 858.976,452.807 847.143,439.64 843,419.5C 842.5,344.501 842.333,269.501 842.5,194.5 Z"/></g>
<g><path style="opacity:1" fill="#fcfcfd" d="M 1071.5,452.5 C 1062.68,453.493 1053.68,453.827 1044.5,453.5C 1033.97,421.745 1023.14,390.078 1012,358.5C 1000.35,389.945 989.184,421.611 978.5,453.5C 969.184,454.665 959.851,454.832 950.5,454C 966.3,408.229 981.966,362.396 997.5,316.5C 983.428,275.952 969.762,235.285 956.5,194.5C 965.751,194.182 974.917,194.515 984,195.5C 992.949,222.35 1002.28,249.017 1012,275.5C 1021.07,248.796 1030.23,222.129 1039.5,195.5C 1048.82,194.335 1058.15,194.168 1067.5,195C 1053.51,235.65 1039.51,276.317 1025.5,317C 1041.54,361.942 1056.87,407.108 1071.5,452.5 Z"/></g>
<g><path style="opacity:1" fill="#c2c7da" d="M 132.5,195.5 C 132.5,281.833 132.5,368.167 132.5,454.5C 149.833,454.5 167.167,454.5 184.5,454.5C 167.008,455.497 149.341,455.83 131.5,455.5C 131.167,368.665 131.501,281.998 132.5,195.5 Z"/></g>
<g><path style="opacity:1" fill="#fdfdfe" d="M 132.5,195.5 C 150.503,195.333 168.503,195.5 186.5,196C 207.954,200.121 220.787,212.954 225,234.5C 225.667,254.167 225.667,273.833 225,293.5C 223.371,306.432 217.538,316.932 207.5,325C 216.791,332.745 222.625,342.578 225,354.5C 225.933,376.537 225.599,398.537 224,420.5C 218.014,440.328 204.847,451.662 184.5,454.5C 167.167,454.5 149.833,454.5 132.5,454.5C 132.5,368.167 132.5,281.833 132.5,195.5 Z"/></g>
<g><path style="opacity:1" fill="#142b72" d="M 290.5,216.5 C 303.872,214.098 313.039,219.098 318,231.5C 318.667,293.5 318.667,355.5 318,417.5C 314.035,430.736 305.202,436.236 291.5,434C 283.388,430.888 278.555,425.054 277,416.5C 276.333,355.167 276.333,293.833 277,232.5C 278.95,224.888 283.45,219.555 290.5,216.5 Z"/></g>
<g><path style="opacity:1" fill="#d5d9e3" d="M 702.5,194.5 C 703.493,202.984 703.826,211.651 703.5,220.5C 682.833,220.5 662.167,220.5 641.5,220.5C 661.66,219.503 681.993,219.17 702.5,219.5C 702.5,211.167 702.5,202.833 702.5,194.5 Z"/></g>
<g><path style="opacity:1" fill="#152b72" d="M 397.5,220.5 C 406.506,220.334 415.506,220.5 424.5,221C 431.641,223.474 436.474,228.307 439,235.5C 439.667,260.167 439.667,284.833 439,309.5C 437.167,319.333 431.333,325.167 421.5,327C 413.507,327.5 405.507,327.666 397.5,327.5C 397.5,291.833 397.5,256.167 397.5,220.5 Z"/></g>
<g><path style="opacity:1" fill="#3a4e89" d="M 521.5,220.5 C 521.5,289.5 521.5,358.5 521.5,427.5C 529.833,427.5 538.167,427.5 546.5,427.5C 538.016,428.493 529.349,428.826 520.5,428.5C 520.167,358.998 520.501,289.665 521.5,220.5 Z"/></g>
<g><path style="opacity:1" fill="#142b72" d="M 521.5,220.5 C 530.173,220.334 538.84,220.5 547.5,221C 554.974,223.14 559.807,227.974 562,235.5C 562.667,294.5 562.667,353.5 562,412.5C 559.586,420.415 554.419,425.415 546.5,427.5C 538.167,427.5 529.833,427.5 521.5,427.5C 521.5,358.5 521.5,289.5 521.5,220.5 Z"/></g>
<g><path style="opacity:1" fill="#112561" d="M 769.5,220.5 C 770.833,220.5 772.167,220.5 773.5,220.5C 778.761,269.178 784.094,317.845 789.5,366.5C 777.5,366.5 765.5,366.5 753.5,366.5C 758.615,317.809 763.949,269.142 769.5,220.5 Z"/></g>
<g><path style="opacity:1" fill="#4a5c92" d="M 158.5,221.5 C 158.5,251.5 158.5,281.5 158.5,311.5C 166.5,311.5 174.5,311.5 182.5,311.5C 174.35,312.493 166.017,312.826 157.5,312.5C 157.169,281.995 157.502,251.662 158.5,221.5 Z"/></g>
<g><path style="opacity:1" fill="#142b72" d="M 158.5,221.5 C 168.247,221.08 177.914,221.58 187.5,223C 193.492,225.659 197.325,230.159 199,236.5C 199.667,256.167 199.667,275.833 199,295.5C 196.915,304.419 191.415,309.753 182.5,311.5C 174.5,311.5 166.5,311.5 158.5,311.5C 158.5,281.5 158.5,251.5 158.5,221.5 Z"/></g>
<g><path style="opacity:1" fill="#c7ccda" d="M 689.5,311.5 C 690.493,319.984 690.826,328.651 690.5,337.5C 674.167,337.5 657.833,337.5 641.5,337.5C 657.325,336.504 673.325,336.17 689.5,336.5C 689.5,328.167 689.5,319.833 689.5,311.5 Z"/></g>
<g><path style="opacity:1" fill="#4e5f94" d="M 158.5,338.5 C 158.5,368.5 158.5,398.5 158.5,428.5C 166.833,428.5 175.167,428.5 183.5,428.5C 175.016,429.493 166.349,429.826 157.5,429.5C 157.169,398.995 157.502,368.662 158.5,338.5 Z"/></g>
<g><path style="opacity:1" fill="#142b72" d="M 158.5,338.5 C 168.233,338.109 177.9,338.609 187.5,340C 193.492,342.659 197.325,347.159 199,353.5C 199.667,373.167 199.667,392.833 199,412.5C 197.027,420.972 191.861,426.305 183.5,428.5C 175.167,428.5 166.833,428.5 158.5,428.5C 158.5,398.5 158.5,368.5 158.5,338.5 Z"/></g>
<g><path style="opacity:1" fill="#bbc2d3" d="M 702.5,428.5 C 703.493,436.984 703.826,445.651 703.5,454.5C 673.995,454.831 644.662,454.498 615.5,453.5C 644.5,453.5 673.5,453.5 702.5,453.5C 702.5,445.167 702.5,436.833 702.5,428.5 Z"/></g>
<g><path style="opacity:1" fill="#afb6cb" d="M 717.5,450.5 C 717.5,451.5 717.5,452.5 717.5,453.5C 726.434,454.092 735.101,453.425 743.5,451.5C 743.5,452.5 743.5,453.5 743.5,454.5C 734.5,454.5 725.5,454.5 716.5,454.5C 716.232,452.901 716.566,451.568 717.5,450.5 Z"/></g>
<g><path style="opacity:1" fill="#b0b7cc" d="M 799.5,450.5 C 800.404,451.209 800.737,452.209 800.5,453.5C 808.833,453.5 817.167,453.5 825.5,453.5C 825.5,452.5 825.5,451.5 825.5,450.5C 826.434,451.568 826.768,452.901 826.5,454.5C 817.5,454.5 808.5,454.5 799.5,454.5C 799.5,453.167 799.5,451.833 799.5,450.5 Z"/></g>
<g><path style="opacity:1" fill="#bac0d2" d="M 1071.5,452.5 C 1072.04,452.56 1072.38,452.893 1072.5,453.5C 1063.01,454.822 1053.67,454.822 1044.5,453.5C 1053.68,453.827 1062.68,453.493 1071.5,452.5 Z"/></g>
<g><path style="opacity:1" fill="#b29157" d="M 312.5,531.5 C 312.5,540.833 312.5,550.167 312.5,559.5C 303.5,559.5 294.5,559.5 285.5,559.5C 285.945,550.06 285.445,540.726 284,531.5C 280.257,527.741 275.757,526.574 270.5,528C 267.619,529.251 265.786,531.417 265,534.5C 264.333,572.833 264.333,611.167 265,649.5C 267.168,656.836 272.001,659.336 279.5,657C 281.286,656.215 282.786,655.049 284,653.5C 285.439,641.242 285.939,628.909 285.5,616.5C 282.038,615.518 278.371,615.185 274.5,615.5C 274.5,607.167 274.5,598.833 274.5,590.5C 287.5,590.5 300.5,590.5 313.5,590.5C 313.667,610.503 313.5,630.503 313,650.5C 311.067,668.55 301.233,679.383 283.5,683C 265.048,686.305 250.881,680.139 241,664.5C 239.356,659.923 238.022,655.256 237,650.5C 236.333,611.5 236.333,572.5 237,533.5C 242.873,508.97 258.373,498.47 283.5,502C 299.74,505.407 309.407,515.24 312.5,531.5 Z"/></g>
<g><path style="opacity:1" fill="#b29157" d="M 491.5,501.5 C 502.772,500.148 513.438,501.982 523.5,507C 531.392,512.569 536.559,520.069 539,529.5C 539.667,571.167 539.667,612.833 539,654.5C 535.5,670 526,679.5 510.5,683C 488.712,686.695 473.545,678.528 465,658.5C 464.667,655.833 464.333,653.167 464,650.5C 463.333,610.5 463.333,570.5 464,530.5C 467.582,515.42 476.749,505.754 491.5,501.5 Z"/></g>
<g><path style="opacity:1" fill="#b29257" d="M 959.5,531.5 C 959.5,540.833 959.5,550.167 959.5,559.5C 950.5,559.5 941.5,559.5 932.5,559.5C 932.666,550.827 932.5,542.16 932,533.5C 928.723,527.891 923.89,526.058 917.5,528C 914.619,529.251 912.786,531.417 912,534.5C 909.479,547.274 911.812,558.941 919,569.5C 927.696,578.531 936.696,587.197 946,595.5C 959.585,612.175 964.252,631.175 960,652.5C 957.376,669.123 947.876,679.29 931.5,683C 912.695,686.521 898.195,680.355 888,664.5C 886.107,659.993 884.941,655.327 884.5,650.5C 884.5,642.167 884.5,633.833 884.5,625.5C 893.5,625.5 902.5,625.5 911.5,625.5C 911.174,633.684 911.508,641.684 912.5,649.5C 912.544,653.09 914.211,655.59 917.5,657C 922.757,658.426 927.257,657.259 931,653.5C 935.569,637.71 932.569,623.71 922,611.5C 913.03,603.531 904.363,595.197 896,586.5C 890.559,579.713 886.892,572.046 885,563.5C 884.333,551.833 884.333,540.167 885,528.5C 892.592,506.946 907.759,498.113 930.5,502C 946.987,505.148 956.654,514.981 959.5,531.5 Z"/></g>
<g><path style="opacity:1" fill="#b19057" d="M 328.5,504.5 C 337.833,504.5 347.167,504.5 356.5,504.5C 356.5,563.167 356.5,621.833 356.5,680.5C 347.167,680.5 337.833,680.5 328.5,680.5C 328.5,621.833 328.5,563.167 328.5,504.5 Z"/></g>
<g><path style="opacity:1" fill="#b29257" d="M 453.5,678.5 C 444.348,679.494 435.015,679.827 425.5,679.5C 418.709,658.624 412.209,637.624 406,616.5C 404.644,615.62 403.144,615.286 401.5,615.5C 400.503,636.66 400.169,657.993 400.5,679.5C 391.5,679.5 382.5,679.5 373.5,679.5C 373.5,621.167 373.5,562.833 373.5,504.5C 436.9,494.069 462.066,520.402 449,583.5C 448.568,589.229 446.902,594.562 444,599.5C 440.598,603.726 437.098,607.726 433.5,611.5C 440.326,633.807 446.992,656.14 453.5,678.5 Z"/></g>
<g><path style="opacity:1" fill="#8c795d" d="M 577.5,505.5 C 570.167,505.5 562.833,505.5 555.5,505.5C 555.5,563.5 555.5,621.5 555.5,679.5C 564.5,679.5 573.5,679.5 582.5,679.5C 573.348,680.494 564.015,680.827 554.5,680.5C 554.5,621.833 554.5,563.167 554.5,504.5C 562.352,504.175 570.018,504.508 577.5,505.5 Z"/></g>
<g><path style="opacity:1" fill="#b39257" d="M 608.5,504.5 C 617.5,504.5 626.5,504.5 635.5,504.5C 635.5,563.167 635.5,621.833 635.5,680.5C 627.804,680.831 620.138,680.497 612.5,679.5C 608.334,667.657 604.001,655.991 599.5,644.5C 594.505,628.348 589.005,612.348 583,596.5C 582.5,624.165 582.333,651.831 582.5,679.5C 573.5,679.5 564.5,679.5 555.5,679.5C 555.5,621.5 555.5,563.5 555.5,505.5C 562.833,505.5 570.167,505.5 577.5,505.5C 584.872,524.611 591.872,543.944 598.5,563.5C 601.367,571.433 604.033,579.433 606.5,587.5C 606.987,588.473 607.487,589.473 608,590.5C 608.5,561.835 608.667,533.169 608.5,504.5 Z"/></g>
<g><path style="opacity:1" fill="#70655a" d="M 608.5,504.5 C 608.667,533.169 608.5,561.835 608,590.5C 607.487,589.473 606.987,588.473 606.5,587.5C 607.167,559.833 607.833,532.167 608.5,504.5 Z"/></g>
<g><path style="opacity:1" fill="#b39257" d="M 653.5,504.5 C 667.504,504.333 681.504,504.5 695.5,505C 713.958,507.123 725.124,517.29 729,535.5C 729.964,574.866 729.631,614.2 728,653.5C 723.203,669.804 712.37,678.471 695.5,679.5C 681.5,679.5 667.5,679.5 653.5,679.5C 653.5,621.167 653.5,562.833 653.5,504.5 Z"/></g>
<g><path style="opacity:1" fill="#b39257" d="M 744.5,504.5 C 753.5,504.5 762.5,504.5 771.5,504.5C 771.5,563.167 771.5,621.833 771.5,680.5C 762.5,680.5 753.5,680.5 744.5,680.5C 744.5,621.833 744.5,563.167 744.5,504.5 Z"/></g>
<g><path style="opacity:1" fill="#b39257" d="M 842.5,505.5 C 851.5,505.5 860.5,505.5 869.5,505.5C 869.5,563.5 869.5,621.5 869.5,679.5C 861.833,679.5 854.167,679.5 846.5,679.5C 837.17,652.512 827.837,625.512 818.5,598.5C 818.013,597.527 817.513,596.527 817,595.5C 816.5,623.498 816.333,651.498 816.5,679.5C 807.5,679.5 798.5,679.5 789.5,679.5C 789.5,621.167 789.5,562.833 789.5,504.5C 797.196,504.169 804.862,504.503 812.5,505.5C 822.235,533.205 832.068,560.871 842,588.5C 842.5,560.835 842.667,533.169 842.5,505.5 Z"/></g>
<g><path style="opacity:1" fill="#7f7059" d="M 842.5,505.5 C 851.652,504.506 860.985,504.173 870.5,504.5C 870.5,563.167 870.5,621.833 870.5,680.5C 862.316,680.826 854.316,680.492 846.5,679.5C 854.167,679.5 861.833,679.5 869.5,679.5C 869.5,621.5 869.5,563.5 869.5,505.5C 860.5,505.5 851.5,505.5 842.5,505.5 Z"/></g>
<g><path style="opacity:1" fill="#142b71" d="M 496.5,527.5 C 502.43,526.341 507.263,528.007 511,532.5C 511.667,572.5 511.667,612.5 511,652.5C 507.255,657.155 502.422,658.655 496.5,657C 494.622,655.457 493.122,653.624 492,651.5C 491.333,611.833 491.333,572.167 492,532.5C 493.707,530.963 495.207,529.296 496.5,527.5 Z"/></g>
<g><path style="opacity:1" fill="#142b71" d="M 401.5,530.5 C 406.179,530.334 410.845,530.501 415.5,531C 417.09,532.046 418.59,533.213 420,534.5C 421.138,542.903 421.638,551.403 421.5,560C 421.638,568.597 421.138,577.097 420,585.5C 418.681,587.487 416.848,588.654 414.5,589C 410.179,589.499 405.846,589.666 401.5,589.5C 401.5,569.833 401.5,550.167 401.5,530.5 Z"/></g>
<g><path style="opacity:1" fill="#2c375e" d="M 681.5,530.5 C 681.5,571.5 681.5,612.5 681.5,653.5C 685.5,653.5 689.5,653.5 693.5,653.5C 689.366,654.485 685.032,654.818 680.5,654.5C 680.168,612.997 680.501,571.663 681.5,530.5 Z"/></g>
<g><path style="opacity:1" fill="#0d235f" d="M 681.5,530.5 C 687.402,529.962 693.068,530.795 698.5,533C 699.211,534.255 700.044,535.421 701,536.5C 701.667,573.5 701.667,610.5 701,647.5C 699.8,651.206 697.3,653.206 693.5,653.5C 689.5,653.5 685.5,653.5 681.5,653.5C 681.5,612.5 681.5,571.5 681.5,530.5 Z"/></g>
<g><path style="opacity:1" fill="#82725f" d="M 312.5,531.5 C 313.494,540.986 313.827,550.652 313.5,560.5C 303.985,560.827 294.652,560.494 285.5,559.5C 294.5,559.5 303.5,559.5 312.5,559.5C 312.5,550.167 312.5,540.833 312.5,531.5 Z"/></g>
<g><path style="opacity:1" fill="#807059" d="M 959.5,531.5 C 960.494,540.986 960.827,550.652 960.5,560.5C 950.985,560.827 941.652,560.494 932.5,559.5C 941.5,559.5 950.5,559.5 959.5,559.5C 959.5,550.167 959.5,540.833 959.5,531.5 Z"/></g>
<g><path style="opacity:1" fill="#5c5965" d="M 313.5,590.5 C 300.5,590.5 287.5,590.5 274.5,590.5C 274.5,598.833 274.5,607.167 274.5,615.5C 278.371,615.185 282.038,615.518 285.5,616.5C 281.5,616.5 277.5,616.5 273.5,616.5C 273.5,607.5 273.5,598.5 273.5,589.5C 287.01,589.171 300.344,589.504 313.5,590.5 Z"/></g>
<g><path style="opacity:1" fill="#6a625a" d="M 818.5,598.5 C 817.502,625.662 817.169,652.995 817.5,680.5C 807.985,680.827 798.652,680.494 789.5,679.5C 798.5,679.5 807.5,679.5 816.5,679.5C 816.333,651.498 816.5,623.498 817,595.5C 817.513,596.527 818.013,597.527 818.5,598.5 Z"/></g>
<g><path style="opacity:1" fill="#756a61" d="M 401.5,615.5 C 401.5,637.167 401.5,658.833 401.5,680.5C 391.985,680.827 382.652,680.494 373.5,679.5C 382.5,679.5 391.5,679.5 400.5,679.5C 400.169,657.993 400.503,636.66 401.5,615.5 Z"/></g>
<g><path style="opacity:1" fill="#5a565c" d="M 912.5,649.5 C 911.508,641.684 911.174,633.684 911.5,625.5C 902.5,625.5 893.5,625.5 884.5,625.5C 884.5,633.833 884.5,642.167 884.5,650.5C 883.507,642.016 883.174,633.349 883.5,624.5C 893.167,624.5 902.833,624.5 912.5,624.5C 912.5,632.833 912.5,641.167 912.5,649.5 Z"/></g>
<g><path style="opacity:1" fill="#85745e" d="M 453.5,678.5 C 454.043,678.56 454.376,678.893 454.5,679.5C 444.675,680.823 435.008,680.823 425.5,679.5C 435.015,679.827 444.348,679.494 453.5,678.5 Z"/></g>
<g><path style="opacity:1" fill="#786b5a" d="M 653.5,504.5 C 653.5,562.833 653.5,621.167 653.5,679.5C 667.5,679.5 681.5,679.5 695.5,679.5C 681.343,680.496 667.01,680.829 652.5,680.5C 652.168,621.664 652.501,562.998 653.5,504.5 Z"/></g>
<g><path style="opacity:1" fill="#fefefe" d="M 599.5,967.5 C 599.5,1053.83 599.5,1140.17 599.5,1226.5C 597.073,1226.48 594.74,1225.98 592.5,1225C 446.34,1140.42 300.674,1055.09 155.5,969C 142.943,959.113 135.443,946.279 133,930.5C 132.333,855.833 132.333,781.167 133,706.5C 134.466,704.675 136.299,704.175 138.5,705C 286.5,790.333 434.5,875.667 582.5,961C 587.772,964.307 593.439,966.474 599.5,967.5 Z"/></g>
<g><path style="opacity:1" fill="#d5d7d8" d="M 599.5,1226.5 C 599.5,1140.17 599.5,1053.83 599.5,967.5C 600.791,967.737 601.791,967.404 602.5,966.5C 607.47,965.518 612.137,963.684 616.5,961C 764.98,875.347 913.48,789.847 1062,704.5C 1063.71,704.439 1065.04,705.106 1066,706.5C 1066.67,780.167 1066.67,853.833 1066,927.5C 1064.14,944.377 1056.64,958.211 1043.5,969C 899.829,1053.84 755.829,1138.17 611.5,1222C 607.797,1224.35 603.797,1225.85 599.5,1226.5 Z"/></g>
<g><path style="opacity:1" fill="#fbfbfc" d="M 554.5,744.5 C 577.137,744.636 587.97,755.969 587,778.5C 586.011,783.312 583.844,787.479 580.5,791C 593.967,806.901 593.633,822.568 579.5,838C 567.533,845.769 555.2,846.436 542.5,840C 531.383,831.998 526.883,821.165 529,807.5C 530.975,801.534 533.808,796.034 537.5,791C 528.423,776.587 529.756,763.254 541.5,751C 545.657,748.255 549.99,746.088 554.5,744.5 Z"/></g>
<g><path style="opacity:1" fill="#fbfbfc" d="M 633.5,744.5 C 649.07,743.692 659.903,750.359 666,764.5C 667.919,774.331 666.086,783.331 660.5,791.5C 669.037,800.169 671.871,810.503 669,822.5C 659.785,843.13 644.619,849.297 623.5,841C 608.524,829.936 604.691,815.769 612,798.5C 613.643,796.023 615.476,793.69 617.5,791.5C 605.535,769.791 610.868,754.124 633.5,744.5 Z"/></g>
<g><path style="opacity:1" fill="#fafbfc" d="M 478.5,751.5 C 488.167,751.5 497.833,751.5 507.5,751.5C 507.5,781.167 507.5,810.833 507.5,840.5C 502.167,840.5 496.833,840.5 491.5,840.5C 491.5,815.5 491.5,790.5 491.5,765.5C 487.167,765.5 482.833,765.5 478.5,765.5C 478.5,760.833 478.5,756.167 478.5,751.5 Z"/></g>
<g><path style="opacity:1" fill="#a3acc8" d="M 478.5,751.5 C 488.319,750.506 498.319,750.173 508.5,750.5C 508.831,780.671 508.498,810.671 507.5,840.5C 507.5,810.833 507.5,781.167 507.5,751.5C 497.833,751.5 488.167,751.5 478.5,751.5 Z"/></g>
<g><path style="opacity:1" fill="#fbfcfd" d="M 683.5,750.5 C 693.167,750.5 702.833,750.5 712.5,750.5C 712.5,780.5 712.5,810.5 712.5,840.5C 707.167,840.5 701.833,840.5 696.5,840.5C 696.5,815.5 696.5,790.5 696.5,765.5C 692.167,765.5 687.833,765.5 683.5,765.5C 683.5,760.5 683.5,755.5 683.5,750.5 Z"/></g>
<g><path style="opacity:1" fill="#1b2f74" d="M 554.5,761.5 C 565.726,759.821 571.226,764.488 571,775.5C 568.315,782.841 563.148,785.674 555.5,784C 545.28,776.872 544.947,769.372 554.5,761.5 Z"/></g>
<g><path style="opacity:1" fill="#112562" d="M 634.5,761.5 C 645.824,760.326 650.991,765.326 650,776.5C 646.877,782.996 641.71,785.496 634.5,784C 628.636,780.434 626.47,775.267 628,768.5C 629.694,765.642 631.861,763.309 634.5,761.5 Z"/></g>
<g><path style="opacity:1" fill="#1a2e74" d="M 556.5,800.5 C 571.171,801.53 576.005,808.863 571,822.5C 565.965,828.471 559.798,829.971 552.5,827C 545.201,821.447 543.701,814.614 548,806.5C 550.671,804.098 553.505,802.098 556.5,800.5 Z"/></g>
<g><path style="opacity:1" fill="#102461" d="M 633.5,801.5 C 647.155,799.99 653.322,805.99 652,819.5C 648.485,826.903 642.652,829.737 634.5,828C 626.695,824.219 623.862,818.053 626,809.5C 628.028,806.308 630.528,803.641 633.5,801.5 Z"/></g>
</svg>
