<?xml version="1.0" encoding="UTF-8"?>
<!DOCTYPE svg PUBLIC "-//W3C//DTD SVG 1.1//EN" "http://www.w3.org/Graphics/SVG/1.1/DTD/svg11.dtd">
<svg xmlns="http://www.w3.org/2000/svg" version="1.1" width="1250px" height="1250px" style="shape-rendering:geometricPrecision; text-rendering:geometricPrecision; image-rendering:optimizeQuality; fill-rule:evenodd; clip-rule:evenodd" xmlns:xlink="http://www.w3.org/1999/xlink">
<g><path style="opacity:0.969" fill="#fbfbfb" d="M 557.5,42.5 C 676.218,38.3399 791.552,55.8399 903.5,95C 920.454,101.23 936.954,108.396 953,116.5C 954.667,128.836 956.334,141.17 958,153.5C 958.374,154.416 958.874,155.25 959.5,156C 963.422,157.798 967.422,159.298 971.5,160.5C 985.924,251.641 995.424,343.307 1000,435.5C 1005.36,540.155 995.03,643.155 969,744.5C 917.665,925.098 813.831,1066.93 657.5,1170C 637.059,1183.64 615.892,1196.14 594,1207.5C 467.456,1139.96 367.123,1044.63 293,921.5C 233.348,814.673 199.348,700.007 191,577.5C 186.353,513.835 186.353,450.168 191,386.5C 196.57,311.13 205.237,236.13 217,161.5C 221.046,159.297 225.213,157.297 229.5,155.5C 231.543,142.106 233.877,128.772 236.5,115.5C 305.082,84.5985 376.749,63.7652 451.5,53C 486.834,47.9468 522.167,44.4468 557.5,42.5 Z"/></g>
<g><path style="opacity:1" fill="#231f20" d="M 557.5,54.5 C 673.738,50.938 786.738,68.1046 896.5,106C 911.394,111.447 926.061,117.447 940.5,124C 943.157,137.056 945.324,150.223 947,163.5C 951.106,165.593 955.273,167.593 959.5,169.5C 973.291,254.321 982.458,339.655 987,425.5C 991.655,513.936 985.655,601.603 969,688.5C 923.942,898.769 810.442,1060.27 628.5,1173C 617.227,1179.89 605.727,1186.39 594,1192.5C 473.373,1127.21 377.373,1035.88 306,918.5C 246.932,814.255 212.932,702.255 204,582.5C 198.845,504.117 199.512,425.784 206,347.5C 211.361,287.87 218.861,228.537 228.5,169.5C 232.621,167.356 236.788,165.356 241,163.5C 242.725,150.42 244.725,137.42 247,124.5C 291.473,104.009 337.639,88.5091 385.5,78C 442.294,65.2526 499.628,57.4192 557.5,54.5 Z"/></g>
<g><path style="opacity:1" fill="#6d4725" d="M 266.5,121.5 C 278.989,122.495 291.656,122.829 304.5,122.5C 291.34,123.66 278.006,123.827 264.5,123C 265.044,122.283 265.711,121.783 266.5,121.5 Z"/></g>
<g><path style="opacity:1" fill="#fcfcfc" d="M 519.5,311.5 C 518.504,324.99 518.171,338.656 518.5,352.5C 577.669,352.832 636.669,352.499 695.5,351.5C 781.285,331.306 868.285,321.306 956.5,321.5C 957.293,333.823 957.96,346.156 958.5,358.5C 958.5,360.5 958.5,362.5 958.5,364.5C 715.5,364.5 472.5,364.5 229.5,364.5C 229.5,361.833 229.5,359.167 229.5,356.5C 234.311,280.584 241.644,204.917 251.5,129.5C 312.578,129.343 373.578,127.176 434.5,123C 467.886,120.421 500.886,115.421 533.5,108C 541.348,105.662 549.015,102.828 556.5,99.5C 533.417,167.935 521.083,238.602 519.5,311.5 Z"/></g>
<g><path style="opacity:1" fill="#252122" d="M 479.5,151.5 C 482.582,153.075 485.249,155.242 487.5,158C 484.833,160.667 482.167,163.333 479.5,166C 473.03,165.132 466.697,163.465 460.5,161C 466.925,157.787 473.259,154.621 479.5,151.5 Z"/></g>
<g><path style="opacity:1" fill="#242021" d="M 500.5,149.5 C 506.563,150.85 512.563,152.516 518.5,154.5C 512.319,158.765 505.653,161.598 498.5,163C 496.649,161.316 494.982,159.483 493.5,157.5C 495.856,154.814 498.189,152.147 500.5,149.5 Z"/></g>
<g><path style="opacity:1" fill="#262223" d="M 301.5,143.5 C 304.9,148.212 306.4,153.545 306,159.5C 303.591,161.62 301.091,163.62 298.5,165.5C 295.833,163.5 293.5,161.167 291.5,158.5C 295.092,153.643 298.425,148.643 301.5,143.5 Z"/></g>
<g><path style="opacity:1" fill="#252223" d="M 396.5,140.5 C 397.79,141.058 398.623,142.058 399,143.5C 400.854,147.708 401.854,152.041 402,156.5C 399.95,158.888 397.616,160.888 395,162.5C 392.367,160.704 389.867,158.704 387.5,156.5C 390.556,151.133 393.556,145.799 396.5,140.5 Z"/></g>
<g><path style="opacity:1" fill="#242021" d="M 490.5,132.5 C 491.376,132.369 492.043,132.702 492.5,133.5C 494.774,137.714 496.774,142.047 498.5,146.5C 496.167,149.5 493.5,152.167 490.5,154.5C 487.568,153.2 485.234,151.2 483.5,148.5C 486.395,143.379 488.729,138.046 490.5,132.5 Z"/></g>
<g><path style="opacity:1" fill="#fdfdfd" d="M 677.5,99.5 C 750.195,96.3915 822.195,101.891 893.5,116C 907.714,119.46 921.714,123.627 935.5,128.5C 937.654,139.065 938.987,149.732 939.5,160.5C 878.241,147.248 816.241,141.748 753.5,144C 681.579,146.932 610.913,157.765 541.5,176.5C 545.414,154.999 551.414,134.166 559.5,114C 598.692,106.851 638.025,102.017 677.5,99.5 Z"/></g>
<g><path style="opacity:1" fill="#fcfcfc" d="M 442.5,76.5 C 476.753,76.3945 510.753,79.2278 544.5,85C 549.938,86.3591 555.272,88.0257 560.5,90C 550.585,96.0854 539.918,100.419 528.5,103C 501.755,108.797 474.755,112.964 447.5,115.5C 447.235,102.31 445.568,89.3103 442.5,76.5 Z"/></g>
<g><path style="opacity:1" fill="#f38013" d="M 304.5,122.5 C 291.656,122.829 278.989,122.495 266.5,121.5C 321.399,99.6075 378.065,83.9409 436.5,74.5C 438.987,88.3982 440.654,102.398 441.5,116.5C 395.907,120.031 350.24,122.031 304.5,122.5 Z"/></g>
<g><path style="opacity:1" fill="#242021" d="M 404.5,158.5 C 410.956,159.818 417.289,161.651 423.5,164C 417.165,167.222 410.665,170.056 404,172.5C 401.167,171 399,168.833 397.5,166C 399.41,163.058 401.744,160.558 404.5,158.5 Z"/></g>
<g><path style="opacity:1" fill="#272324" d="M 382.5,159.5 C 386.131,160.608 389.131,162.774 391.5,166C 389.129,168.706 386.463,171.039 383.5,173C 376.906,172.305 370.572,170.471 364.5,167.5C 370.581,164.788 376.581,162.121 382.5,159.5 Z"/></g>
<g><path style="opacity:1" fill="#272324" d="M 285.5,161.5 C 286.873,161.343 288.207,161.51 289.5,162C 290.975,164.309 292.642,166.476 294.5,168.5C 292.056,170.895 289.39,173.062 286.5,175C 280.135,173.826 274.135,171.493 268.5,168C 274.305,165.903 279.971,163.737 285.5,161.5 Z"/></g>
<g><path style="opacity:1" fill="#242021" d="M 308.5,161.5 C 314.699,163.264 320.699,165.598 326.5,168.5C 320.279,171.109 313.946,173.443 307.5,175.5C 305.042,173.545 302.709,171.378 300.5,169C 303.062,166.267 305.729,163.767 308.5,161.5 Z"/></g>
<g><path style="opacity:1" fill="#242021" d="M 489.5,161.5 C 496.982,175.802 503.982,190.468 510.5,205.5C 509.833,205.833 509.167,206.167 508.5,206.5C 504.234,205.144 499.901,204.644 495.5,205C 492.651,208.016 489.651,210.85 486.5,213.5C 483.695,210.353 480.361,208.02 476.5,206.5C 472.154,207.758 467.988,209.424 464,211.5C 472.171,194.828 480.671,178.161 489.5,161.5 Z"/></g>
<g><path style="opacity:1" fill="#242021" d="M 392.5,169.5 C 393.75,169.577 394.583,170.244 395,171.5C 400.402,185.872 405.902,200.206 411.5,214.5C 407.345,214.767 403.179,214.101 399,212.5C 394.748,214.914 390.914,217.914 387.5,221.5C 384.429,218.421 381.096,215.754 377.5,213.5C 373.154,215.011 368.821,216.177 364.5,217C 374.487,201.523 383.82,185.69 392.5,169.5 Z"/></g>
<g><path style="opacity:1" fill="#242021" d="M 296.5,171.5 C 302.469,186.743 307.469,202.41 311.5,218.5C 307.414,217.917 303.414,216.917 299.5,215.5C 295.277,217.547 291.444,220.214 288,223.5C 285.5,221 283,218.5 280.5,216C 275.636,215.547 270.969,216.381 266.5,218.5C 266.167,218.167 265.833,217.833 265.5,217.5C 276.339,202.483 286.672,187.15 296.5,171.5 Z"/></g>
<g><path style="opacity:1" fill="#252122" d="M 437.5,200.5 C 438.376,200.369 439.043,200.702 439.5,201.5C 442.208,206.219 443.708,211.219 444,216.5C 441.356,218.31 438.856,220.31 436.5,222.5C 433.568,221.2 431.234,219.2 429.5,216.5C 432.63,211.378 435.297,206.045 437.5,200.5 Z"/></g>
<g><path style="opacity:1" fill="#fdfdfd" d="M 794.5,208.5 C 845.324,206.999 895.991,208.999 946.5,214.5C 948.219,229.466 949.553,244.466 950.5,259.5C 804.494,252.77 662.994,274.77 526,325.5C 525.536,303.438 526.536,281.438 529,259.5C 530.419,258.54 531.919,257.707 533.5,257C 592.07,237.126 652.07,223.46 713.5,216C 740.601,212.905 767.601,210.405 794.5,208.5 Z"/></g>
<g><path style="opacity:1" fill="#262223" d="M 339.5,205.5 C 340.79,206.058 341.623,207.058 342,208.5C 343.268,212.136 344.434,215.803 345.5,219.5C 345.471,221.029 344.804,222.196 343.5,223C 341.323,224.515 339.156,226.015 337,227.5C 333.984,225.983 331.818,223.65 330.5,220.5C 333.26,215.307 336.26,210.307 339.5,205.5 Z"/></g>
<g><path style="opacity:1" fill="#232021" d="M 447.5,217.5 C 453.753,219.481 460.087,221.315 466.5,223C 459.985,226.423 453.319,229.59 446.5,232.5C 443.833,230.5 441.5,228.167 439.5,225.5C 441.882,222.452 444.548,219.785 447.5,217.5 Z"/></g>
<g><path style="opacity:1" fill="#272324" d="M 423.5,219.5 C 427.711,220.193 431.045,222.36 433.5,226C 430.291,230.767 425.958,233.1 420.5,233C 415.5,231.333 410.5,229.667 405.5,228C 411.681,225.408 417.681,222.575 423.5,219.5 Z"/></g>
<g><path style="opacity:1" fill="#221e1f" d="M 347.5,223.5 C 353.91,225.359 360.243,227.526 366.5,230C 359.673,233.164 352.673,235.498 345.5,237C 343.316,234.984 341.316,232.817 339.5,230.5C 342.212,228.115 344.878,225.782 347.5,223.5 Z"/></g>
<g><path style="opacity:1" fill="#272324" d="M 322.5,224.5 C 324.199,224.34 325.866,224.506 327.5,225C 329.35,227.018 331.35,228.851 333.5,230.5C 330.48,233.516 327.146,236.183 323.5,238.5C 317.355,236.258 311.355,233.758 305.5,231C 311.305,228.903 316.971,226.737 322.5,224.5 Z"/></g>
<g><path style="opacity:1" fill="#242021" d="M 434.5,229.5 C 435.496,229.414 436.329,229.748 437,230.5C 442.762,245.189 448.929,259.689 455.5,274C 450.5,273.667 445.5,273.333 440.5,273C 437.02,275.646 433.686,278.479 430.5,281.5C 427.455,278.453 424.122,275.787 420.5,273.5C 415.945,275.073 411.445,276.74 407,278.5C 416.111,262.293 425.277,245.96 434.5,229.5 Z"/></g>
<g><path style="opacity:1" fill="#242021" d="M 335.5,233.5 C 341.137,248.735 346.804,264.068 352.5,279.5C 351.833,279.833 351.167,280.167 350.5,280.5C 346.789,279.656 343.123,278.656 339.5,277.5C 335.252,279.739 331.252,282.406 327.5,285.5C 324.415,282.244 320.915,279.577 317,277.5C 312.804,278.757 308.637,280.09 304.5,281.5C 303.479,280.998 303.312,280.332 304,279.5C 315.251,264.659 325.751,249.325 335.5,233.5 Z"/></g>
<g><path style="opacity:1" fill="#242121" d="M 482.5,258.5 C 485.467,262.937 487.8,267.77 489.5,273C 487.367,276.3 484.701,279.134 481.5,281.5C 478.399,279.902 475.732,277.735 473.5,275C 476.906,269.686 479.906,264.186 482.5,258.5 Z"/></g>
<g><path style="opacity:1" fill="#262223" d="M 380.5,266.5 C 383.588,271.017 385.922,276.017 387.5,281.5C 384.744,284.427 381.578,286.76 378,288.5C 375.167,287 373,284.833 371.5,282C 374.631,276.904 377.631,271.737 380.5,266.5 Z"/></g>
<g><path style="opacity:1" fill="#262223" d="M 278.5,268.5 C 281.9,273.212 283.4,278.545 283,284.5C 280.305,286.694 277.472,288.694 274.5,290.5C 271.567,288.735 269.567,286.235 268.5,283C 271.714,278.068 275.047,273.234 278.5,268.5 Z"/></g>
<g><path style="opacity:1" fill="#242021" d="M 491.5,276.5 C 498.529,277.673 505.529,279.173 512.5,281C 505.877,284.56 499.044,287.727 492,290.5C 489.205,288.854 486.705,286.854 484.5,284.5C 486.856,281.814 489.189,279.147 491.5,276.5 Z"/></g>
<g><path style="opacity:1" fill="#272324" d="M 468.5,278.5 C 472.174,279.982 475.507,282.148 478.5,285C 475.02,287.646 471.686,290.479 468.5,293.5C 462.157,291.499 455.823,289.499 449.5,287.5C 456.012,284.674 462.345,281.674 468.5,278.5 Z"/></g>
<g><path style="opacity:1" fill="#242021" d="M 388.5,284.5 C 395.351,285.88 402.018,287.88 408.5,290.5C 401.795,293.458 394.961,296.125 388,298.5C 385.216,296.72 382.716,294.553 380.5,292C 383.432,289.715 386.098,287.215 388.5,284.5 Z"/></g>
<g><path style="opacity:1" fill="#262223" d="M 364.5,285.5 C 368.678,286.145 372.011,288.312 374.5,292C 371.221,295.961 367.221,298.294 362.5,299C 356.714,297.183 351.047,295.183 345.5,293C 352.052,290.767 358.385,288.267 364.5,285.5 Z"/></g>
<g><path style="opacity:1" fill="#272324" d="M 259.5,286.5 C 264.941,285.926 268.608,288.259 270.5,293.5C 268.003,295.826 265.336,297.993 262.5,300C 255.42,298.804 248.753,296.304 242.5,292.5C 248.325,290.637 253.992,288.637 259.5,286.5 Z"/></g>
<g><path style="opacity:1" fill="#231f20" d="M 285.5,286.5 C 292.288,288.429 298.954,290.763 305.5,293.5C 298.574,296.031 291.574,298.364 284.5,300.5C 281.861,298.527 279.527,296.194 277.5,293.5C 280.198,291.159 282.865,288.826 285.5,286.5 Z"/></g>
<g><path style="opacity:1" fill="#242021" d="M 480.5,287.5 C 488.169,302.501 495.003,317.835 501,333.5C 496.664,332.687 492.331,331.687 488,330.5C 484.179,333.743 480.179,336.743 476,339.5C 472.39,337.556 469.057,335.223 466,332.5C 461.261,334.638 456.427,336.138 451.5,337C 461.394,320.613 471.06,304.113 480.5,287.5 Z"/></g>
<g><path style="opacity:1" fill="#242021" d="M 376.5,295.5 C 377.79,296.058 378.623,297.058 379,298.5C 384.223,312.612 389.723,326.612 395.5,340.5C 390.968,340.921 386.468,340.255 382,338.5C 377.704,341.292 373.538,344.292 369.5,347.5C 366.385,344.204 362.885,341.537 359,339.5C 354.072,340.707 349.238,341.874 344.5,343C 355.78,327.558 366.447,311.725 376.5,295.5 Z"/></g>
<g><path style="opacity:1" fill="#242021" d="M 272.5,296.5 C 273.117,296.611 273.617,296.944 274,297.5C 279.347,312.705 284.18,328.038 288.5,343.5C 284.398,342.91 280.398,341.91 276.5,340.5C 271.676,342.162 267.176,344.496 263,347.5C 259.628,344.623 256.128,341.956 252.5,339.5C 247.911,341.097 243.245,341.931 238.5,342C 250.46,327.22 261.793,312.054 272.5,296.5 Z"/></g>
<g><path style="opacity:1" fill="#9e9d9d" d="M 519.5,311.5 C 519.5,324.833 519.5,338.167 519.5,351.5C 578.167,351.5 636.833,351.5 695.5,351.5C 636.669,352.499 577.669,352.832 518.5,352.5C 518.171,338.656 518.504,324.99 519.5,311.5 Z"/></g>
<g><path style="opacity:1" fill="#cdcccd" d="M 229.5,356.5 C 229.5,359.167 229.5,361.833 229.5,364.5C 472.5,364.5 715.5,364.5 958.5,364.5C 958.5,362.5 958.5,360.5 958.5,358.5C 959.468,360.607 959.802,362.941 959.5,365.5C 715.833,365.5 472.167,365.5 228.5,365.5C 228.19,362.287 228.523,359.287 229.5,356.5 Z"/></g>
<g><path style="opacity:1" fill="#a5a4a4" d="M 236.5,400.5 C 236.5,442.167 236.5,483.833 236.5,525.5C 244.833,525.5 253.167,525.5 261.5,525.5C 253.016,526.493 244.349,526.826 235.5,526.5C 235.168,484.33 235.501,442.33 236.5,400.5 Z"/></g>
<g><path style="opacity:1" fill="#fefefe" d="M 236.5,400.5 C 255.167,400.5 273.833,400.5 292.5,400.5C 292.5,406.5 292.5,412.5 292.5,418.5C 282.652,418.173 272.986,418.506 263.5,419.5C 262.883,419.611 262.383,419.944 262,420.5C 261.333,430.833 261.333,441.167 262,451.5C 262.5,452 263,452.5 263.5,453C 273.161,453.5 282.828,453.666 292.5,453.5C 292.5,459.833 292.5,466.167 292.5,472.5C 282.828,472.334 273.161,472.5 263.5,473C 263,473.5 262.5,474 262,474.5C 261.5,491.497 261.333,508.497 261.5,525.5C 253.167,525.5 244.833,525.5 236.5,525.5C 236.5,483.833 236.5,442.167 236.5,400.5 Z"/></g>
<g><path style="opacity:1" fill="#fdfdfd" d="M 322.5,400.5 C 337.837,400.333 353.17,400.5 368.5,401C 373.333,403.167 376.833,406.667 379,411.5C 379.5,422.828 379.667,434.162 379.5,445.5C 371.167,445.5 362.833,445.5 354.5,445.5C 354.666,437.493 354.5,429.493 354,421.5C 353.167,420.667 352.333,419.833 351.5,419C 347.044,418.133 342.711,418.466 338.5,420C 337.339,448.095 337.172,476.261 338,504.5C 340.041,506.974 342.708,507.974 346,507.5C 349.292,507.974 351.959,506.974 354,504.5C 354.5,496.507 354.666,488.507 354.5,480.5C 362.833,480.5 371.167,480.5 379.5,480.5C 379.667,491.838 379.5,503.172 379,514.5C 376.235,520.931 371.402,524.764 364.5,526C 351.5,526.667 338.5,526.667 325.5,526C 319.09,524.554 314.923,520.721 313,514.5C 312.333,479.833 312.333,445.167 313,410.5C 314,408.833 315,407.167 316,405.5C 318.352,403.97 320.519,402.303 322.5,400.5 Z"/></g>
<g><path style="opacity:1" fill="#fefefe" d="M 441.5,400.5 C 450.167,400.5 458.833,400.5 467.5,400.5C 467.333,435.168 467.5,469.835 468,504.5C 477.572,506.459 487.405,507.126 497.5,506.5C 497.5,512.833 497.5,519.167 497.5,525.5C 478.833,525.5 460.167,525.5 441.5,525.5C 441.5,483.833 441.5,442.167 441.5,400.5 Z"/></g>
<g><path style="opacity:1" fill="#fafafa" d="M 525.5,400.5 C 540.17,400.333 554.837,400.5 569.5,401C 575.501,402.336 579.668,405.836 582,411.5C 582.667,445.167 582.667,478.833 582,512.5C 580.062,520.105 575.228,524.605 567.5,526C 554.5,526.667 541.5,526.667 528.5,526C 522.887,524.718 518.72,521.551 516,516.5C 514.354,481.56 514.02,446.56 515,411.5C 517.357,406.645 520.857,402.979 525.5,400.5 Z"/></g>
<g><path style="opacity:1" fill="#fcfcfc" d="M 601.5,400.5 C 620.17,400.333 638.836,400.5 657.5,401C 662.91,402.743 666.744,406.243 669,411.5C 669.667,426.5 669.667,441.5 669,456.5C 667.495,462.671 663.828,467.005 658,469.5C 656.692,471.134 655.858,472.968 655.5,475C 661.808,492.093 667.808,509.259 673.5,526.5C 665.5,526.5 657.5,526.5 649.5,526.5C 644.502,511.675 639.002,497.008 633,482.5C 630.733,481.065 628.733,481.398 627,483.5C 626.5,497.829 626.333,512.163 626.5,526.5C 618.167,526.5 609.833,526.5 601.5,526.5C 601.5,484.5 601.5,442.5 601.5,400.5 Z"/></g>
<g><path style="opacity:1" fill="#fdfdfd" d="M 713.5,400.5 C 713.5,442.167 713.5,483.833 713.5,525.5C 705.167,525.5 696.833,525.5 688.5,525.5C 688.5,483.833 688.5,442.167 688.5,400.5C 696.833,400.5 705.167,400.5 713.5,400.5 Z"/></g>
<g><path style="opacity:1" fill="#7f7c7d" d="M 733.5,400.5 C 733.5,442.167 733.5,483.833 733.5,525.5C 752.5,525.5 771.5,525.5 790.5,525.5C 771.341,526.497 752.007,526.83 732.5,526.5C 732.168,484.33 732.501,442.33 733.5,400.5 Z"/></g>
<g><path style="opacity:1" fill="#fefefe" d="M 733.5,400.5 C 752.5,400.5 771.5,400.5 790.5,400.5C 790.5,406.5 790.5,412.5 790.5,418.5C 780.828,418.334 771.161,418.5 761.5,419C 760.667,419.833 759.833,420.667 759,421.5C 758.333,431.5 758.333,441.5 759,451.5C 759.5,452 760,452.5 760.5,453C 770.494,453.5 780.494,453.666 790.5,453.5C 790.5,459.833 790.5,466.167 790.5,472.5C 780.828,472.334 771.161,472.5 761.5,473C 760.667,473.833 759.833,474.667 759,475.5C 758.333,485.167 758.333,494.833 759,504.5C 759.308,505.308 759.808,505.975 760.5,506.5C 770.447,507.475 780.447,507.808 790.5,507.5C 790.5,513.5 790.5,519.5 790.5,525.5C 771.5,525.5 752.5,525.5 733.5,525.5C 733.5,483.833 733.5,442.167 733.5,400.5 Z"/></g>
<g><path style="opacity:1" fill="#fdfdfd" d="M 876.5,413.5 C 876.5,450.833 876.5,488.167 876.5,525.5C 868.167,525.5 859.833,525.5 851.5,525.5C 851.667,490.498 851.5,455.498 851,420.5C 850.5,420 850,419.5 849.5,419C 845.5,418.333 841.5,418.333 837.5,419C 837,419.5 836.5,420 836,420.5C 835.5,455.832 835.333,491.165 835.5,526.5C 826.833,526.5 818.167,526.5 809.5,526.5C 809.5,484.5 809.5,442.5 809.5,400.5C 827.836,400.333 846.17,400.5 864.5,401C 871.431,402.43 875.431,406.596 876.5,413.5 Z"/></g>
<g><path style="opacity:1" fill="#949192" d="M 894.5,400.5 C 894.5,406.5 894.5,412.5 894.5,418.5C 899.363,418.181 904.03,418.514 908.5,419.5C 903.5,419.5 898.5,419.5 893.5,419.5C 893.177,412.978 893.51,406.645 894.5,400.5 Z"/></g>
<g><path style="opacity:1" fill="#fdfdfd" d="M 894.5,400.5 C 913.5,400.5 932.5,400.5 951.5,400.5C 951.5,406.5 951.5,412.5 951.5,418.5C 946.821,418.334 942.155,418.501 937.5,419C 936.956,419.717 936.289,420.217 935.5,420.5C 934.502,455.329 934.168,490.329 934.5,525.5C 926.5,525.5 918.5,525.5 910.5,525.5C 910.667,490.498 910.5,455.498 910,420.5C 909.617,419.944 909.117,419.611 908.5,419.5C 904.03,418.514 899.363,418.181 894.5,418.5C 894.5,412.5 894.5,406.5 894.5,400.5 Z"/></g>
<g><path style="opacity:1" fill="#b3b1b2" d="M 713.5,400.5 C 714.499,442.33 714.832,484.33 714.5,526.5C 705.651,526.826 696.984,526.493 688.5,525.5C 696.833,525.5 705.167,525.5 713.5,525.5C 713.5,483.833 713.5,442.167 713.5,400.5 Z"/></g>
<g><path style="opacity:1" fill="#989697" d="M 876.5,413.5 C 877.498,450.996 877.832,488.663 877.5,526.5C 868.651,526.826 859.984,526.493 851.5,525.5C 859.833,525.5 868.167,525.5 876.5,525.5C 876.5,488.167 876.5,450.833 876.5,413.5 Z"/></g>
<g><path style="opacity:1" fill="#7c797a" d="M 292.5,400.5 C 293.49,406.645 293.823,412.978 293.5,419.5C 283.5,419.5 273.5,419.5 263.5,419.5C 272.986,418.506 282.652,418.173 292.5,418.5C 292.5,412.5 292.5,406.5 292.5,400.5 Z"/></g>
<g><path style="opacity:1" fill="#242021" d="M 542.5,418.5 C 546.514,418.334 550.514,418.501 554.5,419C 555,419.5 555.5,420 556,420.5C 556.667,448.833 556.667,477.167 556,505.5C 555.5,506 555,506.5 554.5,507C 550.5,507.667 546.5,507.667 542.5,507C 541.874,506.25 541.374,505.416 541,504.5C 540.333,476.5 540.333,448.5 541,420.5C 541.717,419.956 542.217,419.289 542.5,418.5 Z"/></g>
<g><path style="opacity:1" fill="#242021" d="M 628.5,418.5 C 632.514,418.334 636.514,418.501 640.5,419C 641,419.5 641.5,420 642,420.5C 642.667,430.833 642.667,441.167 642,451.5C 641.5,452 641,452.5 640.5,453C 636.5,453.667 632.5,453.667 628.5,453C 628,452.5 627.5,452 627,451.5C 626.333,441.167 626.333,430.833 627,420.5C 627.717,419.956 628.217,419.289 628.5,418.5 Z"/></g>
<g><path style="opacity:1" fill="#9d9b9c" d="M 935.5,420.5 C 935.5,455.833 935.5,491.167 935.5,526.5C 926.983,526.826 918.65,526.493 910.5,525.5C 918.5,525.5 926.5,525.5 934.5,525.5C 934.168,490.329 934.502,455.329 935.5,420.5 Z"/></g>
<g><path style="opacity:1" fill="#747172" d="M 441.5,400.5 C 441.5,442.167 441.5,483.833 441.5,525.5C 460.167,525.5 478.833,525.5 497.5,525.5C 497.5,519.167 497.5,512.833 497.5,506.5C 498.491,512.979 498.824,519.646 498.5,526.5C 479.167,526.5 459.833,526.5 440.5,526.5C 440.168,484.33 440.501,442.33 441.5,400.5 Z"/></g>
<g><path style="opacity:1" fill="#fc8414" d="M 233.5,561.5 C 474.5,561.5 715.5,561.5 956.5,561.5C 956.167,563.5 955.833,565.5 955.5,567.5C 954.549,566.081 954.216,564.415 954.5,562.5C 713.999,562.833 473.666,562.5 233.5,561.5 Z"/></g>
<g><path style="opacity:1" fill="#f48013" d="M 233.5,561.5 C 473.666,562.5 713.999,562.833 954.5,562.5C 954.216,564.415 954.549,566.081 955.5,567.5C 934.918,737.181 861.251,878.681 734.5,992C 690.999,1030.17 644.165,1063.67 594,1092.5C 505.077,1041.97 428.411,976.634 364,896.5C 288.003,797.222 244.503,685.555 233.5,561.5 Z"/></g>
<g><path style="opacity:1" fill="#241f20" d="M 582.5,610.5 C 651.094,609.55 705.928,636.217 747,690.5C 768.885,721.657 780.052,756.324 780.5,794.5C 793.408,797.574 801.575,805.574 805,818.5C 807.069,839.154 802.403,858.154 791,875.5C 743.72,947.321 676.72,983.654 590,984.5C 506.702,981.7 442.368,945.7 397,876.5C 361.366,819.398 360.366,761.732 394,703.5C 396.905,698.871 400.405,694.704 404.5,691C 414.41,690.82 424.244,690.32 434,689.5C 434.667,687.833 434.667,686.167 434,684.5C 427.601,677.368 421.935,669.701 417,661.5C 416.08,658.692 416.913,656.525 419.5,655C 427.59,652.297 435.923,651.13 444.5,651.5C 455.169,652.335 465.836,652.835 476.5,653C 507.481,628.011 542.814,613.844 582.5,610.5 Z"/></g>
<g><path style="opacity:1" fill="#f48013" d="M 769.5,785.5 C 769.5,787.5 769.5,789.5 769.5,791.5C 768.5,791.5 767.5,791.5 766.5,791.5C 700.552,787.21 635.552,793.043 571.5,809C 586.117,808.044 600.784,807.544 615.5,807.5C 624.673,807.5 633.673,807.834 642.5,808.5C 660.591,810.798 678.258,815.298 695.5,822C 732.629,838.715 742.463,865.548 725,902.5C 705.067,937.732 675.567,960.898 636.5,972C 612.354,978.279 588.02,979.112 563.5,974.5C 522.262,962.435 492.095,937.101 473,898.5C 458.621,865.972 466.788,841.138 497.5,824C 546.156,799.893 597.49,784.893 651.5,779C 669.842,775.886 687.509,770.552 704.5,763C 708.939,761.032 712.939,758.532 716.5,755.5C 718.674,755.25 720.341,754.25 721.5,752.5C 723.349,751.407 725.016,750.074 726.5,748.5C 730.767,747.945 734.934,746.945 739,745.5C 740.932,740.806 740.932,736.139 739,731.5C 720.856,712.834 699.356,699.334 674.5,691C 626.619,674.346 577.285,666.346 526.5,667C 515.385,663.849 504.385,660.516 493.5,657C 540.245,624.991 590.911,616.991 645.5,633C 708.349,654.517 748.516,697.35 766,761.5C 767.495,769.466 768.661,777.466 769.5,785.5 Z"/></g>
<g><path style="opacity:1" fill="#fbfbfb" d="M 690.5,749.5 C 687.09,749.457 683.757,749.957 680.5,751C 684.689,751.812 688.689,751.645 692.5,750.5C 703.821,749.644 715.154,748.977 726.5,748.5C 725.016,750.074 723.349,751.407 721.5,752.5C 719.326,752.75 717.659,753.75 716.5,755.5C 684.991,768.454 652.658,770.954 619.5,763C 597.475,751.309 581.308,734.143 571,711.5C 570.529,706.928 572.363,703.428 576.5,701C 581.799,698.092 587.465,696.592 593.5,696.5C 597.142,695.92 600.809,695.42 604.5,695C 598.651,694.182 592.985,694.348 587.5,695.5C 579.423,695.638 571.756,697.471 564.5,701C 560.56,703.429 558.56,706.929 558.5,711.5C 563.478,728.451 572.312,743.118 585,755.5C 585.711,757.367 585.211,758.867 583.5,760C 541.498,772.172 501.831,789.505 464.5,812C 455.651,818.517 447.818,826.017 441,834.5C 439.392,837.382 438.059,840.382 437,843.5C 434.59,864.04 438.923,883.04 450,900.5C 477.487,940.84 515.321,965.506 563.5,974.5C 588.02,979.112 612.354,978.279 636.5,972C 675.567,960.898 705.067,937.732 725,902.5C 742.463,865.548 732.629,838.715 695.5,822C 678.258,815.298 660.591,810.798 642.5,808.5C 670.408,808.814 696.741,815.314 721.5,828C 743.875,841.923 752.041,861.757 746,887.5C 732.218,922.286 708.384,947.786 674.5,964C 618.569,989.24 562.902,988.573 507.5,962C 470.53,943.698 440.364,917.532 417,883.5C 399.703,852.619 393.036,819.619 397,784.5C 405.973,745.524 428.806,718.024 465.5,702C 511.112,683.732 558.445,676.732 607.5,681C 637.033,682.239 665.366,688.572 692.5,700C 707.635,706.977 720.135,717.143 730,730.5C 730.817,733.964 730.483,737.298 729,740.5C 724.804,742.68 720.304,744.18 715.5,745C 707.216,746.826 698.883,748.326 690.5,749.5 Z"/></g>
<g><path style="opacity:1" fill="#878585" d="M 587.5,695.5 C 592.985,694.348 598.651,694.182 604.5,695C 600.809,695.42 597.142,695.92 593.5,696.5C 591.735,695.539 589.735,695.205 587.5,695.5 Z"/></g>
<g><path style="opacity:1" fill="#242122" d="M 643.5,699.5 C 653.962,698.616 663.296,701.449 671.5,708C 677.232,711.608 678.732,716.441 676,722.5C 668.643,727.713 660.477,729.546 651.5,728C 638.597,726.463 627.43,721.297 618,712.5C 616.699,710.598 616.032,708.598 616,706.5C 626.308,718.659 639.141,722.659 654.5,718.5C 654.833,718 655.167,717.5 655.5,717C 652.393,711.558 648.226,707.058 643,703.5C 642.421,702.072 642.588,700.738 643.5,699.5 Z"/></g>
<g><path style="opacity:1" fill="#231f20" d="M 587.5,695.5 C 589.735,695.205 591.735,695.539 593.5,696.5C 587.465,696.592 581.799,698.092 576.5,701C 572.363,703.428 570.529,706.928 571,711.5C 581.308,734.143 597.475,751.309 619.5,763C 652.658,770.954 684.991,768.454 716.5,755.5C 712.939,758.532 708.939,761.032 704.5,763C 687.509,770.552 669.842,775.886 651.5,779C 597.49,784.893 546.156,799.893 497.5,824C 466.788,841.138 458.621,865.972 473,898.5C 492.095,937.101 522.262,962.435 563.5,974.5C 515.321,965.506 477.487,940.84 450,900.5C 438.923,883.04 434.59,864.04 437,843.5C 438.059,840.382 439.392,837.382 441,834.5C 447.818,826.017 455.651,818.517 464.5,812C 501.831,789.505 541.498,772.172 583.5,760C 585.211,758.867 585.711,757.367 585,755.5C 572.312,743.118 563.478,728.451 558.5,711.5C 558.56,706.929 560.56,703.429 564.5,701C 571.756,697.471 579.423,695.638 587.5,695.5 Z"/></g>
<g><path style="opacity:1" fill="#8a8889" d="M 538.5,721.5 C 543.544,721.173 548.544,721.506 553.5,722.5C 552.311,723.429 550.978,723.762 549.5,723.5C 545.833,722.833 542.167,722.167 538.5,721.5 Z"/></g>
<g><path style="opacity:1" fill="#252122" d="M 538.5,721.5 C 542.167,722.167 545.833,722.833 549.5,723.5C 524.694,724.857 500.361,729.023 476.5,736C 470.511,737.552 464.844,739.885 459.5,743C 455.325,746.845 455.992,749.845 461.5,752C 477.38,757.644 493.713,760.31 510.5,760C 526.371,753.733 541.037,745.4 554.5,735C 555.167,734.333 555.833,734.333 556.5,735C 546.833,745.333 536.833,755.333 526.5,765C 519.133,771.623 510.466,774.79 500.5,774.5C 476.918,772.022 453.918,766.855 431.5,759C 423.658,754.799 422.658,749.466 428.5,743C 445.112,734.018 462.778,728.018 481.5,725C 500.386,722.104 519.386,720.937 538.5,721.5 Z"/></g>
<g><path style="opacity:1" fill="#a6a4a4" d="M 690.5,749.5 C 690.842,750.338 691.508,750.672 692.5,750.5C 688.689,751.645 684.689,751.812 680.5,751C 683.757,749.957 687.09,749.457 690.5,749.5 Z"/></g>
<g><path style="opacity:1" fill="#5c4a3f" d="M 721.5,752.5 C 720.341,754.25 718.674,755.25 716.5,755.5C 717.659,753.75 719.326,752.75 721.5,752.5 Z"/></g>
<g><path style="opacity:1" fill="#784d28" d="M 769.5,785.5 C 770.468,787.607 770.802,789.941 770.5,792.5C 768.901,792.768 767.568,792.434 766.5,791.5C 767.5,791.5 768.5,791.5 769.5,791.5C 769.5,789.5 769.5,787.5 769.5,785.5 Z"/></g>
<g><path style="opacity:1" fill="#2b2625" d="M 545.5,874.5 C 551.067,873.954 556.4,874.621 561.5,876.5C 562.5,876 563.5,875.5 564.5,875C 570.833,874.333 577.167,874.333 583.5,875C 585.869,875.536 587.869,876.703 589.5,878.5C 591.028,877.139 592.695,875.972 594.5,875C 600.167,874.333 605.833,874.333 611.5,875C 614.371,875.131 616.705,876.297 618.5,878.5C 620.028,877.139 621.695,875.972 623.5,875C 630.167,874.333 636.833,874.333 643.5,875C 646.196,875.69 648.363,877.19 650,879.5C 649.906,889.575 650.073,899.575 650.5,909.5C 650.333,913.5 650.167,917.5 650,921.5C 648.363,923.81 646.196,925.31 643.5,926C 636.833,926.667 630.167,926.667 623.5,926C 622.584,925.626 621.75,925.126 621,924.5C 615.578,925.808 609.911,926.475 604,926.5C 598.089,926.475 592.422,925.808 587,924.5C 586.25,925.126 585.416,925.626 584.5,926C 577.5,926.667 570.5,926.667 563.5,926C 562.584,925.626 561.75,925.126 561,924.5C 555.464,926.425 549.631,927.092 543.5,926.5C 543.5,914.5 543.5,902.5 543.5,890.5C 541.396,890.799 539.396,890.466 537.5,889.5C 539.925,884.314 542.591,879.314 545.5,874.5 Z"/></g>
<g><path style="opacity:1" fill="#9d5f28" d="M 615.5,901.5 C 615.56,900.957 615.893,900.624 616.5,900.5C 617.487,903.768 617.82,907.102 617.5,910.5C 614.753,910.813 612.086,910.48 609.5,909.5C 609.624,908.893 609.957,908.56 610.5,908.5C 612.265,909.461 614.265,909.795 616.5,909.5C 616.806,906.615 616.473,903.948 615.5,901.5 Z"/></g>
<g><path style="opacity:1" fill="#f18015" d="M 615.5,901.5 C 616.473,903.948 616.806,906.615 616.5,909.5C 614.265,909.795 612.265,909.461 610.5,908.5C 612.412,906.343 614.079,904.009 615.5,901.5 Z"/></g>
<g><path style="opacity:1" fill="#f18016" d="M 591.5,895.5 C 593.735,895.205 595.735,895.539 597.5,896.5C 595.887,899.286 594.054,901.953 592,904.5C 591.502,901.518 591.335,898.518 591.5,895.5 Z"/></g>
<g><path style="opacity:1" fill="#89572a" d="M 591.5,895.5 C 593.693,894.203 596.027,894.203 598.5,895.5C 598.376,896.107 598.043,896.44 597.5,896.5C 595.735,895.539 593.735,895.205 591.5,895.5 Z"/></g>
<g><path style="opacity:1" fill="#5c595a" d="M 543.5,886.5 C 544.833,886.5 546.167,886.5 547.5,886.5C 547.5,898.5 547.5,910.5 547.5,922.5C 546.505,911.012 546.172,899.345 546.5,887.5C 545.209,887.737 544.209,887.404 543.5,886.5 Z"/></g>
<g><path style="opacity:1" fill="#f7f7f7" d="M 623.5,878.5 C 630.947,878.071 638.281,878.571 645.5,880C 646,880.5 646.5,881 647,881.5C 647.498,884.817 647.665,888.15 647.5,891.5C 644.167,891.5 640.833,891.5 637.5,891.5C 637.5,889.833 637.5,888.167 637.5,886.5C 635.5,886.5 633.5,886.5 631.5,886.5C 631.5,889.833 631.5,893.167 631.5,896.5C 635.846,896.334 640.179,896.501 644.5,897C 645.333,897.833 646.167,898.667 647,899.5C 647.667,906.167 647.667,912.833 647,919.5C 646.097,920.701 644.931,921.535 643.5,922C 636.833,922.667 630.167,922.667 623.5,922C 622.667,921.167 621.833,920.333 621,919.5C 620.333,906.833 620.333,894.167 621,881.5C 622.045,880.627 622.878,879.627 623.5,878.5 Z"/></g>
<g><path style="opacity:1" fill="#221e1f" d="M 631.5,904.5 C 633.5,904.5 635.5,904.5 637.5,904.5C 637.5,907.5 637.5,910.5 637.5,913.5C 635.5,913.5 633.5,913.5 631.5,913.5C 631.5,910.5 631.5,907.5 631.5,904.5 Z"/></g>
<g><path style="opacity:1" fill="#a5a3a4" d="M 631.5,904.5 C 631.5,907.5 631.5,910.5 631.5,913.5C 633.5,913.5 635.5,913.5 637.5,913.5C 635.393,914.468 633.059,914.802 630.5,914.5C 630.187,910.958 630.521,907.625 631.5,904.5 Z"/></g>
<g><path style="opacity:1" fill="#f9f9f9" d="M 594.5,878.5 C 600.842,878.334 607.175,878.5 613.5,879C 614.333,879.833 615.167,880.667 616,881.5C 616.667,886.167 616.667,890.833 616,895.5C 611.308,901.359 606.808,907.359 602.5,913.5C 607.12,914.493 611.786,914.827 616.5,914.5C 616.5,917.167 616.5,919.833 616.5,922.5C 608.167,922.5 599.833,922.5 591.5,922.5C 591.334,918.486 591.501,914.486 592,910.5C 596.667,904.5 601.333,898.5 606,892.5C 606.494,890.866 606.66,889.199 606.5,887.5C 604.833,887.5 603.167,887.5 601.5,887.5C 601.5,888.833 601.5,890.167 601.5,891.5C 598.167,891.5 594.833,891.5 591.5,891.5C 590.738,886.607 591.738,882.274 594.5,878.5 Z"/></g>
<g><path style="opacity:1" fill="#f4f4f4" d="M 564.5,878.5 C 570.842,878.334 577.175,878.5 583.5,879C 584.931,879.465 586.097,880.299 587,881.5C 587.667,894.167 587.667,906.833 587,919.5C 586.167,920.333 585.333,921.167 584.5,922C 577.833,922.667 571.167,922.667 564.5,922C 563.069,921.535 561.903,920.701 561,919.5C 560.502,916.183 560.335,912.85 560.5,909.5C 563.833,909.5 567.167,909.5 570.5,909.5C 570.5,910.833 570.5,912.167 570.5,913.5C 572.5,913.5 574.5,913.5 576.5,913.5C 576.5,910.833 576.5,908.167 576.5,905.5C 572.818,905.665 569.152,905.499 565.5,905C 563.714,904.215 562.214,903.049 561,901.5C 560.333,894.833 560.333,888.167 561,881.5C 562.145,880.364 563.312,879.364 564.5,878.5 Z"/></g>
<g><path style="opacity:1" fill="#232020" d="M 570.5,887.5 C 572.5,887.5 574.5,887.5 576.5,887.5C 576.5,890.5 576.5,893.5 576.5,896.5C 574.5,896.5 572.5,896.5 570.5,896.5C 570.5,893.5 570.5,890.5 570.5,887.5 Z"/></g>
<g><path style="opacity:1" fill="#fcfcfc" d="M 547.5,922.5 C 547.5,910.5 547.5,898.5 547.5,886.5C 546.167,886.5 544.833,886.5 543.5,886.5C 544.693,883.948 546.027,881.448 547.5,879C 550.482,878.502 553.482,878.335 556.5,878.5C 556.5,893.167 556.5,907.833 556.5,922.5C 553.5,922.5 550.5,922.5 547.5,922.5 Z"/></g>
</svg>
