<?xml version="1.0" encoding="UTF-8"?>
<!DOCTYPE svg PUBLIC "-//W3C//DTD SVG 1.1//EN" "http://www.w3.org/Graphics/SVG/1.1/DTD/svg11.dtd">
<svg xmlns="http://www.w3.org/2000/svg" version="1.1" width="2000px" height="2290px" style="shape-rendering:geometricPrecision; text-rendering:geometricPrecision; image-rendering:optimizeQuality; fill-rule:evenodd; clip-rule:evenodd" xmlns:xlink="http://www.w3.org/1999/xlink">
<g><path style="opacity:0.998" fill="#b0053a" d="M 64.5,38.5 C 711.802,38.2939 1334.8,38.6272 1933.5,39.5C 1933.28,290.668 1932.61,544.168 1931.5,800C 1942.9,1061.61 1891.4,1312.44 1777,1552.5C 1721.63,1667 1655.96,1774.67 1580,1875.5C 1516.94,1950.89 1446.78,2018.73 1369.5,2079C 1276.73,2150.73 1174.06,2204.73 1061.5,2241C 1040.85,2247.2 1020.02,2252.7 999,2257.5C 893.486,2232.48 795.319,2190.65 704.5,2132C 596.851,2061.03 501.684,1975.86 419,1876.5C 325.269,1752.12 247.603,1617.78 186,1473.5C 115.588,1304.85 75.9217,1129.18 67,946.5C 65.9365,643.582 65.1032,340.916 64.5,38.5 Z"/></g>
<g><path style="opacity:1" fill="#d47692" d="M 1902.5,67.5 C 1299.5,67.5 696.5,67.5 93.5,67.5C 93.5,174.5 93.5,281.5 93.5,388.5C 92.5005,281.335 92.1672,174.001 92.5,66.5C 696,66.1668 1299.33,66.5001 1902.5,67.5 Z"/></g>
<g><path style="opacity:1" fill="#fefefe" d="M 1902.5,67.5 C 1902.5,174.5 1902.5,281.5 1902.5,388.5C 1299.5,388.5 696.5,388.5 93.5,388.5C 93.5,281.5 93.5,174.5 93.5,67.5C 696.5,67.5 1299.5,67.5 1902.5,67.5 Z"/></g>
<g><path style="opacity:1" fill="#b0073a" d="M 490.5,92.5 C 514.518,90.9547 538.184,93.1214 561.5,99C 568.899,100.431 575.899,102.931 582.5,106.5C 576.057,121.052 569.891,135.718 564,150.5C 563.152,152.874 561.819,154.874 560,156.5C 540.044,151.712 519.877,150.545 499.5,153C 467.364,161.056 448.864,181.556 444,214.5C 440.524,238.339 445.191,260.339 458,280.5C 473.453,298.391 493.12,307.724 517,308.5C 533.485,308.243 549.651,305.91 565.5,301.5C 572.365,319.098 578.032,337.098 582.5,355.5C 526.936,374.876 473.27,370.709 421.5,343C 373.714,311.922 352.214,267.755 357,210.5C 363.762,165.415 387.262,132.248 427.5,111C 447.566,101.252 468.566,95.0849 490.5,92.5 Z"/></g>
<g><path style="opacity:1" fill="#b0063a" d="M 309.5,96.5 C 309.5,114.167 309.5,131.833 309.5,149.5C 282.833,149.5 256.167,149.5 229.5,149.5C 229.17,170.007 229.503,190.34 230.5,210.5C 256.5,210.5 282.5,210.5 308.5,210.5C 308.5,228.167 308.5,245.833 308.5,263.5C 282.167,263.5 255.833,263.5 229.5,263.5C 229.5,296.5 229.5,329.5 229.5,362.5C 201.833,362.5 174.167,362.5 146.5,362.5C 146.5,273.833 146.5,185.167 146.5,96.5C 200.833,96.5 255.167,96.5 309.5,96.5 Z"/></g>
<g><path style="opacity:1" fill="#b0063a" d="M 1002.5,362.5 C 1002.67,305.499 1002.5,248.499 1002,191.5C 1001.49,192.527 1000.99,193.527 1000.5,194.5C 983.509,250.467 964.675,305.8 944,360.5C 935.064,361.819 925.897,362.486 916.5,362.5C 907.5,362.167 898.5,361.833 889.5,361.5C 876.048,325.314 862.881,288.981 850,252.5C 843.206,232.649 837.04,212.649 831.5,192.5C 831.217,191.711 830.717,191.044 830,190.5C 829.5,247.832 829.333,305.166 829.5,362.5C 807.5,362.5 785.5,362.5 763.5,362.5C 763.5,273.833 763.5,185.167 763.5,96.5C 800.502,96.3333 837.502,96.5 874.5,97C 893.316,147.613 910.649,198.78 926.5,250.5C 941.954,199.136 958.621,148.136 976.5,97.5C 1012.83,96.5001 1049.16,96.1668 1085.5,96.5C 1085.5,185.167 1085.5,273.833 1085.5,362.5C 1057.83,362.5 1030.17,362.5 1002.5,362.5 Z"/></g>
<g><path style="opacity:1" fill="#b0053a" d="M 1232.5,150.5 C 1231.5,165.991 1231.17,181.658 1231.5,197.5C 1232.83,197.5 1234.17,197.5 1235.5,197.5C 1260.17,197.5 1284.83,197.5 1309.5,197.5C 1309.5,215.167 1309.5,232.833 1309.5,250.5C 1283.5,250.5 1257.5,250.5 1231.5,250.5C 1231.5,270.167 1231.5,289.833 1231.5,309.5C 1263.5,309.5 1295.5,309.5 1327.5,309.5C 1327.5,327.167 1327.5,344.833 1327.5,362.5C 1267.83,362.5 1208.17,362.5 1148.5,362.5C 1148.5,273.833 1148.5,185.167 1148.5,96.5C 1202.83,96.5 1257.17,96.5 1311.5,96.5C 1311.5,114.5 1311.5,132.5 1311.5,150.5C 1285.17,150.5 1258.83,150.5 1232.5,150.5 Z"/></g>
<g><path style="opacity:1" fill="#b0063a" d="M 1593.5,149.5 C 1568.17,149.5 1542.83,149.5 1517.5,149.5C 1517.5,220.167 1517.5,290.833 1517.5,361.5C 1490.34,362.498 1463.01,362.831 1435.5,362.5C 1434.5,292.002 1434.17,221.335 1434.5,150.5C 1409.5,150.5 1384.5,150.5 1359.5,150.5C 1359.5,132.5 1359.5,114.5 1359.5,96.5C 1437.5,96.5 1515.5,96.5 1593.5,96.5C 1593.5,114.167 1593.5,131.833 1593.5,149.5 Z"/></g>
<g><path style="opacity:1" fill="#b0063a" d="M 1747.5,151.5 C 1748.04,151.44 1748.38,151.107 1748.5,150.5C 1718.51,149.5 1688.51,149.167 1658.5,149.5C 1658.5,131.833 1658.5,114.167 1658.5,96.5C 1722.83,96.5 1787.17,96.5 1851.5,96.5C 1851.67,106.839 1851.5,117.172 1851,127.5C 1813.17,187.833 1775.33,248.167 1737.5,308.5C 1777.83,309.5 1818.16,309.833 1858.5,309.5C 1858.5,327.167 1858.5,344.833 1858.5,362.5C 1782.5,362.5 1706.5,362.5 1630.5,362.5C 1630.33,352.494 1630.5,342.494 1631,332.5C 1670.06,272.283 1708.89,211.95 1747.5,151.5 Z"/></g>
<g><path style="opacity:1" fill="#c74d72" d="M 309.5,96.5 C 310.497,114.326 310.83,132.326 310.5,150.5C 283.833,150.5 257.167,150.5 230.5,150.5C 230.5,170.5 230.5,190.5 230.5,210.5C 229.503,190.34 229.17,170.007 229.5,149.5C 256.167,149.5 282.833,149.5 309.5,149.5C 309.5,131.833 309.5,114.167 309.5,96.5 Z"/></g>
<g><path style="opacity:1" fill="#ca587b" d="M 1658.5,149.5 C 1688.51,149.167 1718.51,149.5 1748.5,150.5C 1748.38,151.107 1748.04,151.44 1747.5,151.5C 1717.83,150.833 1688.17,150.167 1658.5,149.5 Z"/></g>
<g><path style="opacity:1" fill="#ecc6d1" d="M 1232.5,150.5 C 1232.5,165.833 1232.5,181.167 1232.5,196.5C 1233.79,196.263 1234.79,196.596 1235.5,197.5C 1234.17,197.5 1232.83,197.5 1231.5,197.5C 1231.17,181.658 1231.5,165.991 1232.5,150.5 Z"/></g>
<g><path style="opacity:1" fill="#ca587b" d="M 831.5,192.5 C 830.833,249.167 830.167,305.833 829.5,362.5C 829.333,305.166 829.5,247.832 830,190.5C 830.717,191.044 831.217,191.711 831.5,192.5 Z"/></g>
<g><path style="opacity:1" fill="#dd97ac" d="M 1002.5,362.5 C 1001.83,306.5 1001.17,250.5 1000.5,194.5C 1000.99,193.527 1001.49,192.527 1002,191.5C 1002.5,248.499 1002.67,305.499 1002.5,362.5 Z"/></g>
<g><path style="opacity:1" fill="#ce6383" d="M 1593.5,149.5 C 1568.67,150.498 1543.67,150.831 1518.5,150.5C 1518.5,220.833 1518.5,291.167 1518.5,361.5C 1518.17,361.5 1517.83,361.5 1517.5,361.5C 1517.5,290.833 1517.5,220.167 1517.5,149.5C 1542.83,149.5 1568.17,149.5 1593.5,149.5 Z"/></g>
<g><path style="opacity:1" fill="#edc9d4" d="M 1309.5,250.5 C 1284.01,251.498 1258.34,251.831 1232.5,251.5C 1232.5,270.5 1232.5,289.5 1232.5,308.5C 1264.34,308.168 1296,308.502 1327.5,309.5C 1295.5,309.5 1263.5,309.5 1231.5,309.5C 1231.5,289.833 1231.5,270.167 1231.5,250.5C 1257.5,250.5 1283.5,250.5 1309.5,250.5 Z"/></g>
<g><path style="opacity:1" fill="#c64c71" d="M 308.5,263.5 C 282.672,264.498 256.672,264.831 230.5,264.5C 230.832,297.338 230.498,330.004 229.5,362.5C 229.5,329.5 229.5,296.5 229.5,263.5C 255.833,263.5 282.167,263.5 308.5,263.5 Z"/></g>
<g><path style="opacity:1" fill="#de97ad" d="M 1517.5,361.5 C 1517.83,361.5 1518.17,361.5 1518.5,361.5C 1505.02,362.833 1491.18,363.499 1477,363.5C 1463,363.5 1449.16,363.167 1435.5,362.5C 1463.01,362.831 1490.34,362.498 1517.5,361.5 Z"/></g>
<g><path style="opacity:1" fill="#fefefe" d="M 996.5,2226.5 C 958.68,2220.04 922.013,2209.54 886.5,2195C 709.466,2118.32 560.3,2004.82 439,1854.5C 413.17,1820.85 389.837,1785.51 369,1748.5C 266.693,1601.14 192.36,1440.14 146,1265.5C 118.238,1165.26 100.738,1063.26 93.5,959.5C 93.5,778.167 93.5,596.833 93.5,415.5C 394.5,415.5 695.5,415.5 996.5,415.5C 996.5,1019.17 996.5,1622.83 996.5,2226.5 Z"/></g>
<g><path style="opacity:1" fill="#b0063a" d="M 779.5,1542.5 C 780.404,1541.79 780.737,1540.79 780.5,1539.5C 773.833,1539.5 767.167,1539.5 760.5,1539.5C 742.047,1537.97 724.38,1533.47 707.5,1526C 705.81,1522.47 706.476,1519.47 709.5,1517C 713.29,1514.62 717.29,1512.62 721.5,1511C 739.465,1506.54 757.465,1502.21 775.5,1498C 785.094,1495.19 794.427,1491.69 803.5,1487.5C 808.358,1470.74 807.192,1454.41 800,1438.5C 790.075,1422.31 779.409,1406.65 768,1391.5C 761.617,1382.11 757.617,1371.77 756,1360.5C 756.233,1345.93 754.566,1331.59 751,1317.5C 747.88,1308.08 741.713,1301.58 732.5,1298C 724.357,1295.41 716.024,1293.74 707.5,1293C 689.848,1291.27 672.181,1289.77 654.5,1288.5C 651.978,1304.97 648.811,1321.3 645,1337.5C 641.177,1348.67 634.011,1356.84 623.5,1362C 594.172,1359.08 567.172,1365.42 542.5,1381C 535.838,1386.66 529.505,1392.66 523.5,1399C 518.859,1402.13 513.692,1403.63 508,1403.5C 497.663,1401.83 487.329,1400.17 477,1398.5C 465.715,1398.11 458.715,1403.44 456,1414.5C 455.369,1438 450.035,1460.33 440,1481.5C 432.587,1494.75 422.087,1504.75 408.5,1511.5C 402.67,1496.86 396.837,1482.2 391,1467.5C 387.407,1459.97 383.074,1452.97 378,1446.5C 353.489,1455.7 328.322,1458.2 302.5,1454C 298.384,1452.79 294.384,1451.29 290.5,1449.5C 289.821,1434.87 292.655,1420.87 299,1407.5C 306.733,1391.03 316.233,1375.69 327.5,1361.5C 314.5,1342.17 301.5,1322.83 288.5,1303.5C 292.638,1299.43 297.638,1296.93 303.5,1296C 324.25,1294.77 344.583,1297.11 364.5,1303C 374.831,1308.5 384.831,1314.5 394.5,1321C 405.152,1328.13 416.818,1330.8 429.5,1329C 439.516,1324.57 449.849,1320.91 460.5,1318C 474.831,1310.17 488.831,1301.84 502.5,1293C 508.066,1280.9 506.066,1270.23 496.5,1261C 489.011,1255.09 481.345,1249.42 473.5,1244C 461.358,1231.91 451.525,1218.08 444,1202.5C 434.94,1182.05 425.607,1161.71 416,1141.5C 401.933,1116.1 382.433,1095.93 357.5,1081C 349.131,1070.96 339.797,1061.96 329.5,1054C 325.837,1052.29 322.004,1051.13 318,1050.5C 306.611,1053.08 296.778,1058.41 288.5,1066.5C 298.806,1100.33 293.639,1131.66 273,1160.5C 268.356,1167.05 262.19,1170.05 254.5,1169.5C 249.114,1158.06 244.281,1146.4 240,1134.5C 236.663,1127.15 232.329,1120.48 227,1114.5C 205.183,1126.1 182.35,1128.6 158.5,1122C 155.751,1120.88 153.251,1119.38 151,1117.5C 150.836,1103.65 154.17,1090.65 161,1078.5C 168.008,1066.82 176.508,1056.32 186.5,1047C 185.249,1042.33 183.082,1038.16 180,1034.5C 172.595,1027.77 165.928,1020.43 160,1012.5C 155.627,1004.66 157.127,998.158 164.5,993C 187.97,985.743 210.304,988.41 231.5,1001C 239.236,1005.41 246.403,1010.57 253,1016.5C 260.027,1012.82 266.361,1008.15 272,1002.5C 275.809,996.431 275.309,990.931 270.5,986C 254.408,973.246 238.908,959.746 224,945.5C 212.178,933.339 203.178,919.339 197,903.5C 195.022,896.968 193.689,890.302 193,883.5C 193.734,871.35 194.567,859.184 195.5,847C 194.796,808.261 179.796,776.261 150.5,751C 179.965,707.84 187.965,661.006 174.5,610.5C 190.651,610.174 204.984,605.007 217.5,595C 224.041,588.128 230.207,580.961 236,573.5C 246.075,554.951 257.075,536.951 269,519.5C 278.601,506.9 291.101,498.733 306.5,495C 313.5,494.333 320.5,494.333 327.5,495C 333.955,496.322 340.289,497.822 346.5,499.5C 356.702,498.283 366.702,496.116 376.5,493C 393.333,486.056 410.667,480.722 428.5,477C 445.802,474.058 461.469,477.724 475.5,488C 484.814,496.966 495.48,503.966 507.5,509C 526.167,515.333 544.833,521.667 563.5,528C 568.433,529.043 573.433,529.543 578.5,529.5C 589.21,528.995 599.876,527.995 610.5,526.5C 623.085,525.874 632.585,530.874 639,541.5C 641.709,558.648 638.709,574.648 630,589.5C 622.956,596.048 615.79,602.381 608.5,608.5C 613.4,616.791 620.733,621.291 630.5,622C 649.873,624.324 667.873,620.324 684.5,610C 694.705,603.395 704.372,596.062 713.5,588C 730.528,570.638 747.862,553.638 765.5,537C 780.229,523.857 797.229,514.857 816.5,510C 871.773,504.888 903.94,529.721 913,584.5C 913.667,588.5 913.667,592.5 913,596.5C 911.981,597.687 910.814,598.687 909.5,599.5C 902.592,592.091 894.926,585.591 886.5,580C 877.664,575.457 868.331,573.79 858.5,575C 845.171,578.332 832.504,583.332 820.5,590C 798.988,602.92 777.988,616.586 757.5,631C 734.456,644.262 709.789,652.928 683.5,657C 657.717,658.61 633.051,654.11 609.5,643.5C 605.27,652.292 600.77,660.959 596,669.5C 587.787,680.524 576.954,684.691 563.5,682C 540.911,678.492 518.245,677.492 495.5,679C 486.293,680.513 477.293,682.847 468.5,686C 436.268,705.938 401.268,718.272 363.5,723C 353.133,723.76 342.799,723.594 332.5,722.5C 331.464,738.566 336.797,752.066 348.5,763C 359.911,773.372 373.245,780.039 388.5,783C 402.833,784.667 417.167,786.333 431.5,788C 451.59,790.449 466.756,800.282 477,817.5C 491.389,833.111 509.222,841.944 530.5,844C 551.835,844.983 573.168,845.983 594.5,847C 615.227,848.457 633.061,856.29 648,870.5C 664.257,898.23 688.424,914.397 720.5,919C 737.712,922.024 755.045,924.024 772.5,925C 793.22,931.38 809.72,943.546 822,961.5C 828.237,977.777 833.237,994.444 837,1011.5C 838.561,1017.52 840.894,1023.19 844,1028.5C 858.083,1037.46 872.249,1046.29 886.5,1055C 894.678,1061.51 901.844,1069.01 908,1077.5C 914.591,1090.45 916.591,1104.12 914,1118.5C 915.035,1125.97 916.702,1133.31 919,1140.5C 926.333,1155.83 933.667,1171.17 941,1186.5C 942.869,1195.82 942.869,1205.15 941,1214.5C 938.744,1225.11 936.744,1235.78 935,1246.5C 933.835,1256.51 935.168,1266.18 939,1275.5C 948.164,1286.48 955.831,1298.48 962,1311.5C 970.709,1333.85 971.709,1356.52 965,1379.5C 942.339,1406.82 933.006,1438.15 937,1473.5C 939.943,1484.71 943.443,1495.71 947.5,1506.5C 945.111,1518.28 940.277,1528.95 933,1538.5C 928.983,1545.71 927.65,1553.37 929,1561.5C 935.242,1583.24 936.575,1605.24 933,1627.5C 931.486,1631.85 929.986,1636.19 928.5,1640.5C 922.754,1641.31 917.754,1639.81 913.5,1636C 906.131,1626.77 899.631,1616.93 894,1606.5C 887.15,1597.23 880.483,1597.23 874,1606.5C 871.268,1610.24 868.934,1614.24 867,1618.5C 865.367,1641.5 863.7,1664.5 862,1687.5C 860.762,1695.6 859.095,1703.6 857,1711.5C 856.065,1716.74 853.231,1720.4 848.5,1722.5C 845.878,1720.59 843.711,1718.26 842,1715.5C 834.488,1701.81 827.488,1687.81 821,1673.5C 820.196,1672.2 819.029,1671.53 817.5,1671.5C 800.129,1677.52 790.962,1689.85 790,1708.5C 788.997,1721.2 787.664,1733.87 786,1746.5C 784.168,1754.5 780.501,1761.5 775,1767.5C 768.137,1763.14 763.137,1757.14 760,1749.5C 757.058,1739.51 754.225,1729.51 751.5,1719.5C 743.825,1720 737.659,1723.33 733,1729.5C 726.875,1745.53 720.541,1761.53 714,1777.5C 710.22,1783.28 705.22,1787.62 699,1790.5C 698.055,1790.09 697.388,1789.43 697,1788.5C 692.929,1774.13 691.429,1759.46 692.5,1744.5C 670.094,1747.41 651.927,1757.74 638,1775.5C 630.937,1788.69 626.27,1802.69 624,1817.5C 621.672,1835.44 620.006,1853.44 619,1871.5C 617.702,1886.66 614.369,1901.33 609,1915.5C 606.151,1919.55 602.818,1920.22 599,1917.5C 597.725,1915.28 596.725,1912.95 596,1910.5C 596.26,1901.16 596.593,1891.83 597,1882.5C 586.85,1852.57 579.85,1821.9 576,1790.5C 573.861,1747.6 591.027,1715.1 627.5,1693C 642.128,1685.97 656.461,1678.47 670.5,1670.5C 662.476,1667.42 654.142,1665.59 645.5,1665C 636.198,1662.71 632.032,1656.88 633,1647.5C 637.771,1642.86 643.271,1639.36 649.5,1637C 654.363,1634.93 659.363,1633.27 664.5,1632C 681.547,1630 698.547,1627.66 715.5,1625C 728.357,1622.14 737.69,1614.81 743.5,1603C 731.668,1603.13 719.834,1603.63 708,1604.5C 696.776,1605.56 686.61,1602.89 677.5,1596.5C 681.123,1588.5 687.123,1583 695.5,1580C 704.514,1577.44 713.18,1574.11 721.5,1570C 736.661,1567.42 751.661,1564.08 766.5,1560C 774.099,1556.57 778.433,1550.74 779.5,1542.5 Z"/></g>
<g><path style="opacity:1" fill="#fefdfe" d="M 1400.5,541.5 C 1431.5,541.5 1462.5,541.5 1493.5,541.5C 1493.17,611.669 1493.5,681.669 1494.5,751.5C 1565.83,751.5 1637.17,751.5 1708.5,751.5C 1708.5,782.833 1708.5,814.167 1708.5,845.5C 1637.17,845.5 1565.83,845.5 1494.5,845.5C 1493.5,910.665 1493.17,975.998 1493.5,1041.5C 1588.83,1041.5 1684.17,1041.5 1779.5,1041.5C 1779.5,1072.5 1779.5,1103.5 1779.5,1134.5C 1684.5,1134.5 1589.5,1134.5 1494.5,1134.5C 1494.5,1304.5 1494.5,1474.5 1494.5,1644.5C 1463.17,1644.5 1431.83,1644.5 1400.5,1644.5C 1400.5,1474.5 1400.5,1304.5 1400.5,1134.5C 1305.5,1134.5 1210.5,1134.5 1115.5,1134.5C 1115.5,1103.17 1115.5,1071.83 1115.5,1040.5C 1210.5,1040.5 1305.5,1040.5 1400.5,1040.5C 1400.5,975.5 1400.5,910.5 1400.5,845.5C 1326.83,845.5 1253.17,845.5 1179.5,845.5C 1179.5,814.167 1179.5,782.833 1179.5,751.5C 1253.17,751.5 1326.83,751.5 1400.5,751.5C 1400.5,681.5 1400.5,611.5 1400.5,541.5 Z"/></g>
<g><path style="opacity:1" fill="#dd96ac" d="M 1400.5,541.5 C 1431.66,540.502 1463,540.168 1494.5,540.5C 1494.5,610.833 1494.5,681.167 1494.5,751.5C 1493.5,681.669 1493.17,611.669 1493.5,541.5C 1462.5,541.5 1431.5,541.5 1400.5,541.5 Z"/></g>
<g><path style="opacity:1" fill="#d67c97" d="M 996.5,2226.5 C 996.5,1622.83 996.5,1019.17 996.5,415.5C 695.5,415.5 394.5,415.5 93.5,415.5C 93.5,596.833 93.5,778.167 93.5,959.5C 92.5003,778.001 92.167,596.334 92.5,414.5C 394.167,414.5 695.833,414.5 997.5,414.5C 997.833,1018.67 997.5,1622.67 996.5,2226.5 Z"/></g>
<g><path style="opacity:1" fill="#fefbfc" d="M 459.5,596.5 C 477.405,596.026 495.071,597.86 512.5,602C 535.385,608.739 558.385,615.073 581.5,621C 586.015,625.348 590.349,629.848 594.5,634.5C 593.833,634.833 593.167,635.167 592.5,635.5C 539.247,624.94 485.581,617.273 431.5,612.5C 439.094,604.039 448.427,598.705 459.5,596.5 Z"/></g>
<g><path style="opacity:1" fill="#e9bbc9" d="M 1494.5,845.5 C 1494.5,910.5 1494.5,975.5 1494.5,1040.5C 1589.67,1040.17 1684.67,1040.5 1779.5,1041.5C 1684.17,1041.5 1588.83,1041.5 1493.5,1041.5C 1493.17,975.998 1493.5,910.665 1494.5,845.5 Z"/></g>
<g><path style="opacity:1" fill="#cd5f7f" d="M 760.5,1539.5 C 767.167,1539.5 773.833,1539.5 780.5,1539.5C 780.737,1540.79 780.404,1541.79 779.5,1542.5C 773.399,1540.85 767.065,1539.85 760.5,1539.5 Z"/></g>
</svg>
