<?xml version="1.0" encoding="UTF-8"?>
<!DOCTYPE svg PUBLIC "-//W3C//DTD SVG 1.1//EN" "http://www.w3.org/Graphics/SVG/1.1/DTD/svg11.dtd">
<svg xmlns="http://www.w3.org/2000/svg" version="1.1" width="2500px" height="2500px" style="shape-rendering:geometricPrecision; text-rendering:geometricPrecision; image-rendering:optimizeQuality; fill-rule:evenodd; clip-rule:evenodd" xmlns:xlink="http://www.w3.org/1999/xlink">
<g><path style="opacity:0.975" fill="#fefefe" d="M 1197.5,-0.5 C 1231.83,-0.5 1266.17,-0.5 1300.5,-0.5C 1615.34,16.6347 1887.01,132.801 2115.5,348C 2352.54,581.054 2480.54,864.221 2499.5,1197.5C 2499.5,1232.17 2499.5,1266.83 2499.5,1301.5C 2481.95,1616.94 2365.45,1888.61 2150,2116.5C 1946.89,2324.48 1700.39,2448.98 1410.5,2490C 1375.41,2493.9 1340.41,2497.06 1305.5,2499.5C 1268.17,2499.5 1230.83,2499.5 1193.5,2499.5C 882.196,2481.61 613.529,2366.78 387.5,2155C 148.859,1922.81 19.5253,1639.65 -0.5,1305.5C -0.5,1268.17 -0.5,1230.83 -0.5,1193.5C 16.9538,890.061 127.121,626.395 330,402.5C 535.889,182.455 789.056,51.2887 1089.5,9C 1125.58,5.00716 1161.58,1.84049 1197.5,-0.5 Z"/></g>
<g><path style="opacity:1" fill="#939598" d="M 1206.5,28.5 C 1515.52,21.9321 1789.19,115.432 2027.5,309C 2231.69,480.762 2367.52,696.262 2435,955.5C 2492.97,1199.59 2479.3,1439.59 2394,1675.5C 2312.98,1888.39 2183.48,2065.89 2005.5,2208C 1764.15,2395.1 1489.82,2482.1 1182.5,2469C 866.335,2447.46 597.168,2324.96 375,2101.5C 157.255,1873.21 41.9215,1600.55 29,1283.5C 23.7189,968.975 122.052,692.309 324,453.5C 528.78,220.167 785.614,81.667 1094.5,38C 1131.91,33.9382 1169.24,30.7715 1206.5,28.5 Z"/></g>
<g><path style="opacity:1" fill="#fefefe" d="M 1208.5,67.5 C 1491.12,61.3098 1744.79,142.81 1969.5,312C 2204.83,497.048 2352.33,736.882 2412,1031.5C 2456.19,1279.66 2426.19,1518.32 2322,1747.5C 2196.66,2008.5 2003.16,2201 1741.5,2325C 1498.61,2433.21 1246.94,2459.21 986.5,2403C 712.234,2336.68 488.068,2193.18 314,1972.5C 130.245,1729.76 49.2453,1455.76 71,1150.5C 99.1709,855.408 218.671,604.575 429.5,398C 647.528,192.046 907.195,81.8792 1208.5,67.5 Z"/></g>
<g><path style="opacity:1" fill="#294f9c" d="M 1246.5,240.5 C 1246.45,246.389 1247.12,252.056 1248.5,257.5C 1249.92,271.493 1251.42,285.493 1253,299.5C 1253.94,304.758 1256.78,308.424 1261.5,310.5C 1263.51,311.924 1265.85,312.59 1268.5,312.5C 1273.47,313.164 1278.47,313.664 1283.5,314C 1287.5,318 1287.5,322 1283.5,326C 1246.7,328.404 1210.03,332.237 1173.5,337.5C 1166.68,337.503 1164.18,334.17 1166,327.5C 1173.44,324.349 1180.94,321.182 1188.5,318C 1190.07,316.603 1191.4,315.103 1192.5,313.5C 1193.99,310.814 1194.66,307.814 1194.5,304.5C 1194.5,302.304 1194.16,300.304 1193.5,298.5C 1191.83,281.025 1190.16,263.692 1188.5,246.5C 1188.62,240.931 1187.96,235.598 1186.5,230.5C 1186.36,226.695 1184.36,225.029 1180.5,225.5C 1158.52,228.074 1136.52,230.407 1114.5,232.5C 1110.51,232.116 1106.84,232.783 1103.5,234.5C 1101.97,235.492 1101.31,236.992 1101.5,239C 1103.16,253.141 1104.5,267.307 1105.5,281.5C 1105.28,287.739 1105.94,293.739 1107.5,299.5C 1108.13,306.563 1109.63,313.563 1112,320.5C 1113.5,322 1115,323.5 1116.5,325C 1124.11,326.717 1131.77,328.05 1139.5,329C 1143.5,333 1143.5,337 1139.5,341C 1102.31,342.811 1065.31,346.645 1028.5,352.5C 1022.63,351.786 1020.46,348.452 1022,342.5C 1028.38,338.704 1035.21,335.87 1042.5,334C 1045.33,332.5 1047.5,330.333 1049,327.5C 1050.51,320.233 1050.85,312.899 1050,305.5C 1044.59,256.503 1039.26,207.503 1034,158.5C 1033.08,153.812 1030.58,150.312 1026.5,148C 1018.87,146.313 1011.2,144.98 1003.5,144C 999.043,138.865 999.71,134.532 1005.5,131C 1024.52,130.039 1043.52,128.872 1062.5,127.5C 1067.75,127.698 1072.75,127.031 1077.5,125.5C 1089.02,123.766 1100.68,122.1 1112.5,120.5C 1121.38,120.524 1123.71,124.358 1119.5,132C 1112.1,133.687 1105.1,136.354 1098.5,140C 1096.38,141.731 1094.88,143.898 1094,146.5C 1093.33,152.5 1093.33,158.5 1094,164.5C 1095.45,181.19 1097.11,197.857 1099,214.5C 1100.51,216.881 1102.68,217.881 1105.5,217.5C 1129.76,214.379 1154.09,211.879 1178.5,210C 1180.33,209.727 1181.83,208.893 1183,207.5C 1182.62,185.025 1180.62,162.692 1177,140.5C 1175.54,138.04 1173.71,135.873 1171.5,134C 1163.17,131.947 1154.84,130.114 1146.5,128.5C 1143.59,124.358 1143.93,120.524 1147.5,117C 1165.47,115.247 1183.47,113.914 1201.5,113C 1219.83,110.453 1238.16,107.953 1256.5,105.5C 1263.89,105.05 1266.72,108.384 1265,115.5C 1264.1,116.701 1262.93,117.535 1261.5,118C 1255.49,120.002 1249.49,122.002 1243.5,124C 1239.38,126.739 1237.21,130.573 1237,135.5C 1239.58,170.52 1242.75,205.52 1246.5,240.5 Z"/></g>
<g><path style="opacity:1" fill="#5672b0" d="M 1077.5,125.5 C 1072.75,127.031 1067.75,127.698 1062.5,127.5C 1067.27,126.111 1072.27,125.444 1077.5,125.5 Z"/></g>
<g><path style="opacity:1" fill="#2a4f9c" d="M 1412.5,146.5 C 1414.29,146.215 1415.95,146.548 1417.5,147.5C 1420.5,151.665 1422.84,156.165 1424.5,161C 1424.56,162.711 1423.89,164.044 1422.5,165C 1401.5,174.167 1380.5,183.333 1359.5,192.5C 1357.2,190.461 1355.53,187.961 1354.5,185C 1354.83,184.5 1355.17,184 1355.5,183.5C 1374.81,171.501 1393.81,159.167 1412.5,146.5 Z"/></g>
<g><path style="opacity:1" fill="#2a4f9c" d="M 1370.5,322.5 C 1375.96,325.345 1381.62,326.012 1387.5,324.5C 1392.67,324.124 1397.67,322.958 1402.5,321C 1407.23,317.97 1412.23,315.47 1417.5,313.5C 1422.46,315.003 1423.63,318.003 1421,322.5C 1401.93,339.147 1379.76,345.647 1354.5,342C 1330.97,338.132 1313.14,325.965 1301,305.5C 1284.16,268.67 1292.33,238.836 1325.5,216C 1341.71,206.936 1359.04,203.936 1377.5,207C 1397.83,209.737 1414,219.237 1426,235.5C 1430.56,244.113 1431.56,253.113 1429,262.5C 1426.75,265.907 1423.59,267.24 1419.5,266.5C 1394.48,263.999 1369.48,261.332 1344.5,258.5C 1342.31,258.326 1340.47,258.993 1339,260.5C 1335.37,281.837 1341.2,300.003 1356.5,315C 1360.74,318.288 1365.41,320.788 1370.5,322.5 Z"/></g>
<g><path style="opacity:1" fill="#fafbfc" d="M 1367.5,216.5 C 1388.43,215.242 1396.26,224.576 1391,244.5C 1388.37,247.231 1385.21,249.064 1381.5,250C 1369.29,251.124 1357.29,250.124 1345.5,247C 1343.52,244.503 1343.02,241.669 1344,238.5C 1348.83,227.83 1356.67,220.497 1367.5,216.5 Z"/></g>
<g><path style="opacity:1" fill="#2a509c" d="M 1432.5,351.5 C 1430.49,350.076 1428.15,349.41 1425.5,349.5C 1420.3,347.648 1419.3,344.482 1422.5,340C 1428.72,338.749 1435.06,338.083 1441.5,338C 1444.38,336.749 1446.21,334.583 1447,331.5C 1452,312.162 1457,292.829 1462,273.5C 1462.67,269.167 1462.67,264.833 1462,260.5C 1457.87,256.518 1453.04,253.685 1447.5,252C 1445.88,248.794 1446.54,246.128 1449.5,244C 1469.37,244.267 1488.04,239.6 1505.5,230C 1507.83,229.333 1510.17,229.333 1512.5,230C 1513.1,231.062 1513.43,232.228 1513.5,233.5C 1512.31,239.578 1510.81,245.578 1509,251.5C 1508.19,253.579 1508.36,255.579 1509.5,257.5C 1525.03,244.573 1542.03,242.073 1560.5,250C 1571.13,257.97 1573.29,267.803 1567,279.5C 1560.2,288.213 1551.36,291.379 1540.5,289C 1536.84,287.998 1533.67,286.164 1531,283.5C 1527.62,277.915 1524.12,272.415 1520.5,267C 1515.12,265.936 1510.96,267.769 1508,272.5C 1505.08,278.264 1502.75,284.264 1501,290.5C 1497.63,305.977 1493.63,321.31 1489,336.5C 1488.33,340.833 1488.33,345.167 1489,349.5C 1494.16,353.414 1499.49,357.08 1505,360.5C 1505.87,367.525 1502.7,370.025 1495.5,368C 1474.77,361.401 1453.77,355.901 1432.5,351.5 Z"/></g>
<g><path style="opacity:1" fill="#9cacd1" d="M 1114.5,232.5 C 1111.03,233.525 1107.36,234.192 1103.5,234.5C 1106.84,232.783 1110.51,232.116 1114.5,232.5 Z"/></g>
<g><path style="opacity:1" fill="#294f9c" d="M 821.5,419.5 C 822.158,418.207 822.492,416.707 822.5,415C 822.592,412.179 821.926,409.679 820.5,407.5C 804.942,370.643 789.109,333.976 773,297.5C 771.167,295.667 769.333,293.833 767.5,292C 760.435,292.186 753.435,292.852 746.5,294C 742.133,289.498 742.799,285.832 748.5,283C 776.474,273.123 803.474,261.123 829.5,247C 839.787,241.292 850.787,238.126 862.5,237.5C 887.866,238.865 901.866,252.199 904.5,277.5C 904.295,285.614 901.795,292.948 897,299.5C 891.38,306.127 884.88,311.627 877.5,316C 882.833,316.333 888.167,316.667 893.5,317C 895.5,318 897.5,319 899.5,320C 917.167,334.333 934.833,348.667 952.5,363C 954.702,364.022 957.035,364.522 959.5,364.5C 963.171,363.885 966.838,363.719 970.5,364C 973.448,367.927 972.782,371.261 968.5,374C 953.564,378.643 939.231,384.643 925.5,392C 923.167,392.667 920.833,392.667 918.5,392C 899.833,376 881.167,360 862.5,344C 859.167,342 855.833,340 852.5,338C 847.145,336.522 842.812,337.856 839.5,342C 846.92,360.341 854.754,378.508 863,396.5C 864.167,397.667 865.333,398.833 866.5,400C 873.908,400.437 881.241,400.103 888.5,399C 891.379,400.666 892.212,403.166 891,406.5C 877.803,412.57 864.303,418.07 850.5,423C 838.868,428.66 827.202,434.326 815.5,440C 809.07,442.219 806.237,440.053 807,433.5C 810.552,430.281 814.385,427.448 818.5,425C 819.758,423.259 820.758,421.426 821.5,419.5 Z"/></g>
<g><path style="opacity:1" fill="#bbc6df" d="M 1186.5,230.5 C 1187.96,235.598 1188.62,240.931 1188.5,246.5C 1187.04,241.402 1186.38,236.069 1186.5,230.5 Z"/></g>
<g><path style="opacity:1" fill="#7a8fc1" d="M 1246.5,240.5 C 1247.88,245.944 1248.55,251.611 1248.5,257.5C 1247.12,252.056 1246.45,246.389 1246.5,240.5 Z"/></g>
<g><path style="opacity:1" fill="#fcfcfd" d="M 823.5,262.5 C 845.6,260.961 859.1,270.961 864,292.5C 864.319,311.704 855.152,324.038 836.5,329.5C 833.542,328.62 831.709,326.62 831,323.5C 824.667,308.5 818.333,293.5 812,278.5C 811.21,275.366 811.543,272.366 813,269.5C 816.308,266.771 819.808,264.438 823.5,262.5 Z"/></g>
<g><path style="opacity:1" fill="#294f9c" d="M 1664.5,405.5 C 1669.01,406.499 1673.67,406.499 1678.5,405.5C 1680.44,407.011 1680.94,409.011 1680,411.5C 1674.37,416.207 1667.87,419.04 1660.5,420C 1646.38,423.573 1634.55,420.073 1625,409.5C 1622.07,403.156 1620.91,396.489 1621.5,389.5C 1613.56,391.421 1605.56,393.255 1597.5,395C 1584.45,397.07 1572.12,395.07 1560.5,389C 1545.22,374.393 1544.55,359.059 1558.5,343C 1566.07,336.918 1574.74,333.585 1584.5,333C 1604.17,332.047 1623.84,331.047 1643.5,330C 1647.91,321.117 1651.74,311.95 1655,302.5C 1656.42,295.241 1653.59,290.408 1646.5,288C 1639.31,286.426 1632.98,288.092 1627.5,293C 1614.75,307.209 1599.41,310.542 1581.5,303C 1574.92,297.747 1574.92,292.414 1581.5,287C 1597.6,275.111 1615.6,271.111 1635.5,275C 1655.31,278.367 1672.47,286.867 1687,300.5C 1691.27,306.502 1692.6,313.169 1691,320.5C 1681.42,345.226 1671.42,369.892 1661,394.5C 1660.33,397.5 1660.33,400.5 1661,403.5C 1661.82,404.823 1662.98,405.489 1664.5,405.5 Z"/></g>
<g><path style="opacity:1" fill="#5f79b4" d="M 1105.5,281.5 C 1106.81,287.288 1107.48,293.288 1107.5,299.5C 1105.94,293.739 1105.28,287.739 1105.5,281.5 Z"/></g>
<g><path style="opacity:1" fill="#294f9c" d="M 706.5,305.5 C 708.722,305.178 710.556,305.845 712,307.5C 716.837,315.844 722.17,323.844 728,331.5C 732.025,337.091 730.691,340.758 724,342.5C 717.223,339.862 710.39,337.362 703.5,335C 698.833,334.333 694.167,334.333 689.5,335C 678.922,339.592 669.422,345.758 661,353.5C 658.832,358.5 659.498,363.167 663,367.5C 671.111,379.943 679.611,392.11 688.5,404C 700.488,400.564 710.321,393.731 718,383.5C 718.167,381.5 718.333,379.5 718.5,377.5C 717.338,371.534 716.838,365.534 717,359.5C 720.249,355.633 723.582,355.633 727,359.5C 734.173,373.857 742.839,387.19 753,399.5C 756.894,407.855 754.394,411.355 745.5,410C 740.458,406.479 735.125,403.479 729.5,401C 724.266,400.023 719.266,400.69 714.5,403C 708.709,407.122 703.209,411.622 698,416.5C 697.743,419.017 698.41,421.35 700,423.5C 707.915,434.996 715.582,446.662 723,458.5C 725.842,462.043 729.009,465.21 732.5,468C 737.971,470.976 743.638,471.31 749.5,469C 774.062,456.377 784.229,436.211 780,408.5C 784.061,404.263 787.728,404.597 791,409.5C 795.912,420.988 801.079,432.321 806.5,443.5C 806.392,444.442 806.059,445.275 805.5,446C 765.966,469.595 727.633,494.928 690.5,522C 685.691,524.747 682.358,523.58 680.5,518.5C 684.447,513.38 688.613,508.38 693,503.5C 693.823,499.262 693.156,495.262 691,491.5C 669.249,457.663 647.249,423.996 625,390.5C 622.503,387.34 619.337,385.34 615.5,384.5C 609.414,385.806 603.581,387.806 598,390.5C 592.229,387.211 592.063,383.377 597.5,379C 635.281,356.458 671.614,331.958 706.5,305.5 Z"/></g>
<g><path style="opacity:1" fill="#5974b1" d="M 1193.5,298.5 C 1194.16,300.304 1194.5,302.304 1194.5,304.5C 1194.66,307.814 1193.99,310.814 1192.5,313.5C 1193.25,308.537 1193.59,303.537 1193.5,298.5 Z"/></g>
<g><path style="opacity:1" fill="#a1b0d3" d="M 1261.5,310.5 C 1264.15,310.41 1266.49,311.076 1268.5,312.5C 1265.85,312.59 1263.51,311.924 1261.5,310.5 Z"/></g>
<g><path style="opacity:1" fill="#294f9c" d="M 1724.5,317.5 C 1728.11,317.799 1731.44,318.965 1734.5,321C 1748.19,330.511 1762.19,339.511 1776.5,348C 1777.8,348.804 1778.47,349.971 1778.5,351.5C 1762.9,378.274 1747.07,404.94 1731,431.5C 1727.84,442.667 1731.34,450.834 1741.5,456C 1750.37,459.631 1759.04,459.297 1767.5,455C 1769.71,453.127 1771.54,450.96 1773,448.5C 1782.08,433.332 1791.42,418.332 1801,403.5C 1804.45,398.435 1806.95,392.935 1808.5,387C 1806.2,381.685 1802.7,377.185 1798,373.5C 1795.28,368.987 1796.28,365.987 1801,364.5C 1803.73,364.615 1806.23,365.448 1808.5,367C 1821.82,376.997 1835.82,385.997 1850.5,394C 1851.99,394.745 1852.99,395.912 1853.5,397.5C 1836.35,425.795 1819.18,454.129 1802,482.5C 1801.25,485.303 1801.58,487.97 1803,490.5C 1805.48,493.069 1808.15,495.402 1811,497.5C 1811.82,499.701 1811.32,501.534 1809.5,503C 1800.73,503.131 1792.39,501.131 1784.5,497C 1774.36,494.757 1764.36,492.09 1754.5,489C 1753.43,488.261 1752.76,487.261 1752.5,486C 1754.98,481.51 1757.48,477.01 1760,472.5C 1760.49,471.207 1760.66,469.873 1760.5,468.5C 1738.2,472.417 1718.37,467.417 1701,453.5C 1689.8,440.69 1687.46,426.357 1694,410.5C 1707.01,388.468 1720.01,366.468 1733,344.5C 1733.79,341.366 1733.46,338.366 1732,335.5C 1728.67,332.167 1725.33,328.833 1722,325.5C 1721.02,322.225 1721.85,319.559 1724.5,317.5 Z"/></g>
<g><path style="opacity:1" fill="#93a6cd" d="M 1370.5,322.5 C 1376.07,323.897 1381.74,324.563 1387.5,324.5C 1381.62,326.012 1375.96,325.345 1370.5,322.5 Z"/></g>
<g><path style="opacity:1" fill="#fafbfd" d="M 1626.5,341.5 C 1630.18,341.335 1633.85,341.501 1637.5,342C 1638.02,342.561 1638.36,343.228 1638.5,344C 1634.67,354.162 1630.17,363.996 1625,373.5C 1616.34,382.29 1606.51,383.79 1595.5,378C 1590.75,372.731 1589.25,366.564 1591,359.5C 1593.5,353 1598,348.5 1604.5,346C 1611.78,343.521 1619.11,342.021 1626.5,341.5 Z"/></g>
<g><path style="opacity:1" fill="#6e86bb" d="M 1425.5,349.5 C 1428.15,349.41 1430.49,350.076 1432.5,351.5C 1429.85,351.59 1427.51,350.924 1425.5,349.5 Z"/></g>
<g><path style="opacity:1" fill="#294f9c" d="M 1908.5,374.5 C 1910.2,374.34 1911.87,374.506 1913.5,375C 1923.89,380.861 1934.55,386.194 1945.5,391C 1952.29,392.598 1958.96,394.598 1965.5,397C 1966.59,399.064 1966.76,401.231 1966,403.5C 1930.24,448.017 1894.24,492.35 1858,536.5C 1856.1,540.136 1856.1,543.803 1858,547.5C 1861.35,551.531 1864.18,555.864 1866.5,560.5C 1865.4,564.767 1862.73,566.267 1858.5,565C 1838.29,547.789 1817.79,530.955 1797,514.5C 1795.5,508 1798,505.5 1804.5,507C 1813.26,514.792 1821.43,514.292 1829,505.5C 1857,470.833 1885,436.167 1913,401.5C 1916.01,394.247 1914.34,388.247 1908,383.5C 1905.88,380.303 1906.05,377.303 1908.5,374.5 Z"/></g>
<g><path style="opacity:1" fill="#294f9c" d="M 569.5,402.5 C 573.509,401.686 576.176,403.186 577.5,407C 574.742,412.093 571.575,416.927 568,421.5C 566.889,426.611 567.889,431.278 571,435.5C 596.667,465.167 622.333,494.833 648,524.5C 651.742,529.291 656.576,531.124 662.5,530C 666.759,528.066 670.759,525.732 674.5,523C 680.502,522.007 682.668,524.507 681,530.5C 673.8,537.694 665.966,544.194 657.5,550C 643.833,562.333 630.167,574.667 616.5,587C 612.496,588.327 609.829,586.994 608.5,583C 611.258,577.907 614.425,573.073 618,568.5C 618.837,564.705 618.504,561.039 617,557.5C 589.578,524.741 561.412,492.574 532.5,461C 528.833,459 525.167,459 521.5,461C 517.266,463.409 512.933,465.576 508.5,467.5C 502.932,464.958 502.266,461.458 506.5,457C 528.578,440.089 549.578,421.922 569.5,402.5 Z"/></g>
<g><path style="opacity:1" fill="#677fb7" d="M 1678.5,405.5 C 1673.67,406.499 1669.01,406.499 1664.5,405.5C 1669.34,404.783 1674.01,404.783 1678.5,405.5 Z"/></g>
<g><path style="opacity:1" fill="#adbad9" d="M 820.5,407.5 C 821.926,409.679 822.592,412.179 822.5,415C 822.492,416.707 822.158,418.207 821.5,419.5C 821.495,415.466 821.162,411.466 820.5,407.5 Z"/></g>
<g><path style="opacity:1" fill="#939597" d="M 1205.5,421.5 C 1461.95,413.73 1678.79,501.73 1856,685.5C 2020.27,867.632 2092.94,1081.63 2074,1327.5C 2048.46,1558.45 1946.63,1747.61 1768.5,1895C 1591.43,2033.89 1390.1,2093.55 1164.5,2074C 965.868,2051.26 796.701,1969.42 657,1828.5C 491.02,1653.6 412.687,1444.93 422,1202.5C 437.979,981.066 526.145,794.232 686.5,642C 833.461,508.366 1006.46,434.866 1205.5,421.5 Z"/></g>
<g><path style="opacity:1" fill="#e97118" d="M 1201.5,2047.5 C 1197.24,2046.78 1192.91,2045.78 1188.5,2044.5C 1185.53,2045.16 1182.53,2045.49 1179.5,2045.5C 1157.01,2044.14 1134.67,2041.48 1112.5,2037.5C 1110.16,2035.96 1107.5,2035.29 1104.5,2035.5C 928.544,2001.63 780.044,1919.3 659,1788.5C 512.906,1624.27 443.572,1431.6 451,1210.5C 451.562,1192.6 453.062,1174.94 455.5,1157.5C 456.889,1152.73 457.556,1147.73 457.5,1142.5C 486.509,943.853 575.843,778.353 725.5,646C 898.646,499.293 1098.98,435.293 1326.5,454C 1543.56,478.597 1722.72,573.43 1864,738.5C 2003.12,909.913 2063.46,1106.25 2045,1327.5C 2022.46,1529.41 1937.63,1699.58 1790.5,1838C 1623.35,1987.57 1427.01,2057.4 1201.5,2047.5 Z"/></g>
<g><path style="opacity:1" fill="#294f9c" d="M 1958.5,480.5 C 1960.51,481.924 1962.85,482.59 1965.5,482.5C 1978.71,484.34 1991.71,483.34 2004.5,479.5C 2009.71,479.868 2012.21,482.535 2012,487.5C 2003.99,495.081 1996.83,503.248 1990.5,512C 1990.86,514.032 1991.69,515.866 1993,517.5C 1998.52,522.268 2003.86,527.268 2009,532.5C 2010.19,534.044 2010.52,535.711 2010,537.5C 2008.17,539.333 2006.33,541.167 2004.5,543C 2003.17,543.667 2001.83,543.667 2000.5,543C 1994.2,537.699 1988.2,532.032 1982.5,526C 1980.83,525.333 1979.17,525.333 1977.5,526C 1961.25,541.915 1945.42,558.082 1930,574.5C 1914.09,592.388 1917.92,603.221 1941.5,607C 1944.65,611.048 1943.65,613.715 1938.5,615C 1919,617.505 1902.5,611.672 1889,597.5C 1879.92,585.251 1879.26,572.584 1887,559.5C 1889.33,556.5 1891.67,553.5 1894,550.5C 1911.75,533.085 1929.08,515.418 1946,497.5C 1947.3,495.635 1947.63,493.635 1947,491.5C 1944,488.5 1941,485.5 1938,482.5C 1936.7,480.635 1936.37,478.635 1937,476.5C 1939.74,475.39 1942.57,475.223 1945.5,476C 1949.65,478.079 1953.99,479.579 1958.5,480.5 Z"/></g>
<g><path style="opacity:1" fill="#acbad8" d="M 1958.5,480.5 C 1961.15,480.41 1963.49,481.076 1965.5,482.5C 1962.85,482.59 1960.51,481.924 1958.5,480.5 Z"/></g>
<g><path style="opacity:1" fill="#294f9c" d="M 451.5,513.5 C 455.451,513.285 457.784,515.118 458.5,519C 456.366,523.816 454.199,528.649 452,533.5C 451.088,537.452 451.755,541.119 454,544.5C 481.167,569 508.333,593.5 535.5,618C 539.827,621.499 544.494,624.499 549.5,627C 554.734,627.977 559.734,627.31 564.5,625C 578.933,612.701 584.433,597.201 581,578.5C 579.397,573.858 577.897,569.192 576.5,564.5C 577.289,559.867 579.956,557.7 584.5,558C 587.333,560.833 590.167,563.667 593,566.5C 598.845,574.207 604.679,581.874 610.5,589.5C 609.57,591.606 608.404,593.606 607,595.5C 559.175,642.208 517.508,692.875 482,747.5C 469.205,766.976 457.205,786.976 446,807.5C 443.79,810.29 440.956,811.123 437.5,810C 436.056,808.874 435.39,807.374 435.5,805.5C 436.512,801.295 438.012,797.295 440,793.5C 441.219,788.102 439.719,783.602 435.5,780C 401.102,757.272 366.435,734.939 331.5,713C 328.262,711.632 324.928,711.299 321.5,712C 316.62,716.387 311.62,720.553 306.5,724.5C 301.747,723.357 300.247,720.357 302,715.5C 318.162,693.855 332.828,671.188 346,647.5C 348.21,644.71 351.044,643.877 354.5,645C 355.804,645.804 356.471,646.971 356.5,648.5C 355.256,652.644 353.756,656.644 352,660.5C 350.768,668.867 353.934,675.034 361.5,679C 393.829,700.166 426.496,720.833 459.5,741C 468.576,743.047 475.743,740.214 481,732.5C 492.542,713.68 492.209,695.013 480,676.5C 478.954,669.201 481.787,666.701 488.5,669C 496.629,675.46 504.463,682.294 512,689.5C 514.372,683.754 517.038,678.087 520,672.5C 520.755,669.697 520.422,667.03 519,664.5C 515.535,660.033 511.702,655.867 507.5,652C 479.462,626.96 451.129,602.294 422.5,578C 419.97,576.578 417.303,576.245 414.5,577C 409.184,580.572 403.684,583.739 398,586.5C 393.794,585.472 392.461,582.805 394,578.5C 414.49,557.853 433.657,536.186 451.5,513.5 Z"/></g>
<g><path style="opacity:1" fill="#294f9c" d="M 1976.5,687.5 C 1976.59,684.848 1975.92,682.515 1974.5,680.5C 1972.81,674.942 1972.31,669.275 1973,663.5C 1985.19,652.653 1998.36,643.153 2012.5,635C 2020.84,633.673 2024,637.173 2022,645.5C 2017.07,653.701 2011.4,661.368 2005,668.5C 1997.12,682.147 1996.46,696.147 2003,710.5C 2010.86,727.701 2023.69,739.201 2041.5,745C 2067.07,746.263 2080.4,734.096 2081.5,708.5C 2077.34,685.896 2073.51,663.229 2070,640.5C 2065.53,605.337 2080.36,583.504 2114.5,575C 2145.87,573.934 2172.04,585.1 2193,608.5C 2206.65,624.471 2215.48,642.804 2219.5,663.5C 2219.52,665.965 2219.02,668.298 2218,670.5C 2206.44,679.057 2194.61,687.224 2182.5,695C 2175.03,694.965 2172.2,691.132 2174,683.5C 2181.21,674.41 2186.88,664.41 2191,653.5C 2194.22,629.658 2184.38,613.491 2161.5,605C 2134.73,602.767 2123.57,614.934 2128,641.5C 2132.96,657.34 2137.29,673.34 2141,689.5C 2147.75,735.549 2128.58,763.715 2083.5,774C 2060.86,776.452 2040.53,770.785 2022.5,757C 2000.53,738.221 1985.19,715.055 1976.5,687.5 Z"/></g>
<g><path style="opacity:1" fill="#939497" d="M 601.5,1163.5 C 602.265,1159.2 603.598,1155.04 605.5,1151C 604.565,1148.62 604.232,1146.12 604.5,1143.5C 635.807,968.634 722.14,828.134 863.5,722C 1011.9,616.071 1176.57,577.071 1357.5,605C 1532.76,637.002 1673.26,724.169 1779,866.5C 1882.68,1013.24 1921.35,1175.91 1895,1354.5C 1862.85,1531.4 1775.01,1673.24 1631.5,1780C 1486.46,1881.42 1325.79,1920.09 1149.5,1896C 973.414,1865.59 831.58,1779.76 724,1638.5C 621.729,1496.43 580.896,1338.09 601.5,1163.5 Z"/></g>
<g><path style="opacity:1" fill="#284f9c" d="M 1453.5,659.5 C 1178.83,879.5 904.167,1099.5 629.5,1319.5C 618.609,1229.03 627.443,1140.36 656,1053.5C 656.698,1052.31 657.531,1051.31 658.5,1050.5C 834.191,909.803 1009.86,769.136 1185.5,628.5C 1277.2,619.463 1366.53,629.797 1453.5,659.5 Z"/></g>
<g><path style="opacity:1" fill="#fefefe" d="M 1185.5,628.5 C 1009.86,769.136 834.191,909.803 658.5,1050.5C 657.957,1050.44 657.624,1050.11 657.5,1049.5C 713.455,892.381 814.788,774.215 961.5,695C 1031.87,658.901 1106.53,636.735 1185.5,628.5 Z"/></g>
<g><path style="opacity:1" fill="#fefefe" d="M 1453.5,659.5 C 1535.21,687.826 1607.54,731.159 1670.5,789.5C 1350.15,1046.52 1029.48,1303.18 708.5,1559.5C 706.224,1557.67 704.391,1555.34 703,1552.5C 667.14,1487.08 643.474,1417.42 632,1343.5C 631.001,1335.51 630.168,1327.51 629.5,1319.5C 904.167,1099.5 1178.83,879.5 1453.5,659.5 Z"/></g>
<g><path style="opacity:1" fill="#b2bedb" d="M 1974.5,680.5 C 1975.92,682.515 1976.59,684.848 1976.5,687.5C 1975.08,685.485 1974.41,683.152 1974.5,680.5 Z"/></g>
<g><path style="opacity:1" fill="#294f9c" d="M 281.5,751.5 C 292.4,756.298 303.4,760.798 314.5,765C 318.072,767.626 318.405,770.626 315.5,774C 307.159,776.226 298.826,778.559 290.5,781C 287.061,783.139 283.894,785.639 281,788.5C 276.258,795.317 272.591,802.651 270,810.5C 267.453,815.08 267.119,819.747 269,824.5C 282.565,831.364 296.399,837.864 310.5,844C 313.768,845.213 317.101,845.546 320.5,845C 327.661,834.189 331.161,822.355 331,809.5C 326.576,804.485 322.243,799.485 318,794.5C 317.701,789.134 320.201,786.967 325.5,788C 339.476,795.353 353.809,801.686 368.5,807C 376.927,810.342 377.594,814.676 370.5,820C 363.833,820.333 357.167,820.667 350.5,821C 346.759,822.738 343.592,825.238 341,828.5C 337.675,835.643 334.841,842.976 332.5,850.5C 332.529,852.029 333.196,853.196 334.5,854C 350.562,861.793 366.895,868.793 383.5,875C 396.259,876.869 404.759,871.703 409,859.5C 415.321,844.959 414.988,830.626 408,816.5C 404.667,811.833 401.333,807.167 398,802.5C 396.719,796.199 399.219,793.365 405.5,794C 416.242,801.79 427.409,808.957 439,815.5C 419.473,859.381 400.306,903.548 381.5,948C 378.653,948.944 376.153,948.444 374,946.5C 374.551,939.186 374.885,931.853 375,924.5C 373.167,922.667 371.333,920.833 369.5,919C 331.466,901.479 293.133,884.813 254.5,869C 252.167,868.333 249.833,868.333 247.5,869C 242.694,873.626 238.361,878.626 234.5,884C 227.947,884.763 225.781,881.93 228,875.5C 236.454,859.59 244.12,843.257 251,826.5C 261.085,801.397 271.252,776.397 281.5,751.5 Z"/></g>
<g><path style="opacity:1" fill="#294f9c" d="M 2149.5,757.5 C 2151.2,757.34 2152.87,757.506 2154.5,758C 2162.8,768.631 2172.13,778.298 2182.5,787C 2188.79,790.901 2195.45,793.901 2202.5,796C 2204.35,797.845 2204.68,799.845 2203.5,802C 2197.17,805 2190.83,808 2184.5,811C 2183.17,812.333 2183.17,813.667 2184.5,815C 2193.46,819.729 2201.63,825.562 2209,832.5C 2219.29,847.055 2222.29,863.055 2218,880.5C 2207.58,912.893 2185.25,929.226 2151,929.5C 2120.88,928.6 2099.88,914.267 2088,886.5C 2084.97,878.412 2082.97,870.079 2082,861.5C 2078.85,860.451 2075.69,860.617 2072.5,862C 2062.06,866.853 2051.73,871.853 2041.5,877C 2038.06,879.087 2036.39,882.087 2036.5,886C 2037.75,891.822 2038.59,897.655 2039,903.5C 2038.63,904.416 2038.13,905.25 2037.5,906C 2035.17,906.667 2032.83,906.667 2030.5,906C 2020.9,880.612 2009.73,855.779 1997,831.5C 1993.67,824.878 1995.51,821.378 2002.5,821C 2006.83,826 2011.17,831 2015.5,836C 2017.2,836.958 2019.03,837.458 2021,837.5C 2030.41,834.712 2039.58,831.212 2048.5,827C 2081.62,812.274 2114.62,797.274 2147.5,782C 2149.44,780.061 2150.44,777.728 2150.5,775C 2149.5,770.674 2148.5,766.341 2147.5,762C 2147.52,760.167 2148.19,758.667 2149.5,757.5 Z"/></g>
<g><path style="opacity:1" fill="#284f9c" d="M 1670.5,789.5 C 1719.09,832.741 1759.09,882.741 1790.5,939.5C 1469.52,1195.82 1148.85,1452.48 828.5,1709.5C 782.834,1668.67 744.334,1622.01 713,1569.5C 711.191,1566.22 709.691,1562.89 708.5,1559.5C 1029.48,1303.18 1350.15,1046.52 1670.5,789.5 Z"/></g>
<g><path style="opacity:1" fill="#fdfdfe" d="M 2120.5,892.5 C 2118.09,891.232 2115.43,890.565 2112.5,890.5C 2098.23,885.649 2091.73,875.649 2093,860.5C 2095.83,855 2100,850.833 2105.5,848C 2124.37,839.065 2143.37,830.398 2162.5,822C 2177.03,818.52 2186.53,824.02 2191,838.5C 2191.15,854.034 2184.98,866.534 2172.5,876C 2157.13,887.507 2139.8,893.007 2120.5,892.5 Z"/></g>
<g><path style="opacity:1" fill="#9dadd1" d="M 2112.5,890.5 C 2115.43,890.565 2118.09,891.232 2120.5,892.5C 2117.5,892.706 2114.84,892.04 2112.5,890.5 Z"/></g>
<g><path style="opacity:1" fill="#294f9c" d="M 287.5,1017.5 C 289.515,1018.92 291.848,1019.59 294.5,1019.5C 306.378,1022.64 318.378,1025.8 330.5,1029C 335.167,1029.67 339.833,1029.67 344.5,1029C 346.552,1028.07 348.052,1026.57 349,1024.5C 351.12,1019.76 353.62,1015.26 356.5,1011C 362.333,1010.17 364.833,1012.67 364,1018.5C 355.429,1044.36 348.762,1070.69 344,1097.5C 341.525,1100.52 338.525,1101.19 335,1099.5C 334.667,1092.83 334.333,1086.17 334,1079.5C 330.395,1075.28 325.895,1072.45 320.5,1071C 281.615,1061.03 242.615,1051.53 203.5,1042.5C 200.153,1042.67 197.319,1044 195,1046.5C 192.121,1051.14 189.621,1055.97 187.5,1061C 184.653,1061.94 182.153,1061.44 180,1059.5C 179.333,1056.5 179.333,1053.5 180,1050.5C 188.624,1024.05 194.958,997.047 199,969.5C 202.136,952.393 209.636,937.56 221.5,925C 237.704,912.897 255.037,911.23 273.5,920C 300.483,935.941 308.65,958.775 298,988.5C 294.175,996.819 289.842,1004.82 285,1012.5C 283.923,1015.26 284.756,1016.93 287.5,1017.5 Z"/></g>
<g><path style="opacity:1" fill="#294f9c" d="M 2186.5,934.5 C 2222.71,932.573 2248.54,947.906 2264,980.5C 2273.64,1004.34 2273.97,1028.34 2265,1052.5C 2250.24,1080.3 2227.07,1092.47 2195.5,1089C 2166.23,1080.39 2146.73,1061.56 2137,1032.5C 2128.2,1004.5 2132.54,978.831 2150,955.5C 2159.91,944.463 2172.08,937.463 2186.5,934.5 Z"/></g>
<g><path style="opacity:1" fill="#fefefe" d="M 1790.5,939.5 C 1793.13,942.079 1795.3,945.079 1797,948.5C 1837.25,1021.76 1861.75,1100.1 1870.5,1183.5C 1596.52,1402.15 1322.85,1621.15 1049.5,1840.5C 1045.68,1840.4 1042.01,1839.56 1038.5,1838C 960.234,1809.32 890.401,1767.15 829,1711.5C 828.536,1710.91 828.369,1710.24 828.5,1709.5C 1148.85,1452.48 1469.52,1195.82 1790.5,939.5 Z"/></g>
<g><path style="opacity:1" fill="#fcfcfd" d="M 232.5,958.5 C 250.396,956.545 265.229,962.211 277,975.5C 283.487,987.831 282.653,999.664 274.5,1011C 266.396,1012.54 258.396,1011.88 250.5,1009C 240.495,1006.33 230.495,1003.66 220.5,1001C 216.174,999.752 212.341,997.586 209,994.5C 205.388,981.184 209.555,970.684 221.5,963C 225.053,960.879 228.72,959.379 232.5,958.5 Z"/></g>
<g><path style="opacity:1" fill="#fdfdfe" d="M 2146.5,1029.5 C 2146.44,1024.8 2146.77,1020.13 2147.5,1015.5C 2152.88,1004.62 2160.88,996.12 2171.5,990C 2190.69,978.712 2211.36,974.045 2233.5,976C 2242.41,977.738 2249.91,981.905 2256,988.5C 2260.78,997.69 2260.45,1006.69 2255,1015.5C 2242.65,1030.77 2226.82,1040.6 2207.5,1045C 2193.63,1048.64 2179.63,1049.31 2165.5,1047C 2155.76,1044.75 2149.42,1038.92 2146.5,1029.5 Z"/></g>
<g><path style="opacity:1" fill="#b3c0dc" d="M 287.5,1017.5 C 290.152,1017.41 292.485,1018.08 294.5,1019.5C 291.848,1019.59 289.515,1018.92 287.5,1017.5 Z"/></g>
<g><path style="opacity:1" fill="#a9b7d7" d="M 2147.5,1015.5 C 2146.77,1020.13 2146.44,1024.8 2146.5,1029.5C 2145.84,1027.87 2145.51,1026.03 2145.5,1024C 2145.36,1020.85 2146.03,1018.02 2147.5,1015.5 Z"/></g>
<g><path style="opacity:1" fill="#294f9c" d="M 184.5,1118.5 C 182.96,1120.84 182.294,1123.5 182.5,1126.5C 181.46,1130.78 181.294,1135.11 182,1139.5C 182.5,1140 183,1140.5 183.5,1141C 226.972,1144.76 270.472,1148.26 314,1151.5C 318.464,1152.22 322.131,1150.89 325,1147.5C 327.396,1142.31 329.396,1136.98 331,1131.5C 333.556,1127.86 336.556,1127.53 340,1130.5C 340.23,1138.54 339.73,1146.54 338.5,1154.5C 337.116,1159.94 336.45,1165.61 336.5,1171.5C 335.529,1187.14 334.695,1202.81 334,1218.5C 330.952,1222.01 327.619,1222.34 324,1219.5C 323.954,1213.64 322.954,1207.97 321,1202.5C 317.748,1198.63 313.581,1196.47 308.5,1196C 265.505,1192.14 222.505,1188.81 179.5,1186C 175.172,1198.68 177.339,1210.18 186,1220.5C 192.355,1225.86 198.355,1231.52 204,1237.5C 205.141,1245.01 201.974,1247.51 194.5,1245C 181.188,1240.51 168.188,1235.34 155.5,1229.5C 153.429,1227.07 153.096,1224.4 154.5,1221.5C 157.853,1220.2 161.02,1218.54 164,1216.5C 167.308,1179.18 170.475,1141.85 173.5,1104.5C 173.547,1101.71 173.047,1099.04 172,1096.5C 169,1093.5 166,1090.5 163,1087.5C 162.104,1084.97 162.604,1082.81 164.5,1081C 167.167,1080.33 169.833,1080.33 172.5,1081C 186.495,1083.66 200.495,1086.33 214.5,1089C 218.393,1092.59 218.393,1096.25 214.5,1100C 206.518,1102.22 198.851,1105.22 191.5,1109C 188.152,1111.5 185.818,1114.67 184.5,1118.5 Z"/></g>
<g><path style="opacity:1" fill="#2a4f9c" d="M 2158.5,1130.5 C 2158.23,1125.97 2157.56,1121.64 2156.5,1117.5C 2155.36,1114.36 2155.19,1111.03 2156,1107.5C 2158.84,1103.97 2162.01,1103.63 2165.5,1106.5C 2167.36,1111.96 2169.53,1117.29 2172,1122.5C 2172.75,1123.13 2173.58,1123.63 2174.5,1124C 2197.89,1123.39 2221.22,1121.73 2244.5,1119C 2247.97,1118.68 2250.81,1117.18 2253,1114.5C 2254.16,1109.58 2254.83,1104.58 2255,1099.5C 2256.53,1096.91 2258.69,1096.08 2261.5,1097C 2269.73,1116.61 2281.56,1133.78 2297,1148.5C 2297.92,1151.06 2297.42,1153.23 2295.5,1155C 2287.5,1155.9 2279.5,1156.73 2271.5,1157.5C 2276.01,1162.52 2280.84,1167.52 2286,1172.5C 2289.78,1177.72 2292.78,1183.39 2295,1189.5C 2297.38,1201.03 2294.21,1210.53 2285.5,1218C 2268.34,1224.67 2257.17,1219.17 2252,1201.5C 2251.23,1197.41 2251.57,1193.41 2253,1189.5C 2256.29,1184.55 2259.95,1179.88 2264,1175.5C 2266.33,1171.85 2265.83,1168.68 2262.5,1166C 2260.5,1165 2258.5,1164 2256.5,1163C 2230.6,1162.2 2204.93,1164.2 2179.5,1169C 2177.62,1170.54 2176.12,1172.38 2175,1174.5C 2174.81,1179.25 2174.14,1183.92 2173,1188.5C 2171.14,1191.21 2168.64,1192.04 2165.5,1191C 2163.56,1188.53 2162.4,1185.7 2162,1182.5C 2161.64,1165.1 2160.47,1147.77 2158.5,1130.5 Z"/></g>
<g><path style="opacity:1" fill="#9bacd0" d="M 184.5,1118.5 C 184.435,1121.43 183.768,1124.09 182.5,1126.5C 182.294,1123.5 182.96,1120.84 184.5,1118.5 Z"/></g>
<g><path style="opacity:1" fill="#afbcda" d="M 2156.5,1117.5 C 2157.56,1121.64 2158.23,1125.97 2158.5,1130.5C 2156.82,1126.46 2156.16,1122.12 2156.5,1117.5 Z"/></g>
<g><path style="opacity:1" fill="#d47a3b" d="M 457.5,1142.5 C 457.556,1147.73 456.889,1152.73 455.5,1157.5C 455.302,1152.25 455.969,1147.25 457.5,1142.5 Z"/></g>
<g><path style="opacity:1" fill="#ab8c78" d="M 604.5,1143.5 C 604.232,1146.12 604.565,1148.62 605.5,1151C 603.598,1155.04 602.265,1159.2 601.5,1163.5C 601.656,1156.58 602.656,1149.91 604.5,1143.5 Z"/></g>
<g><path style="opacity:1" fill="#b3bfdb" d="M 338.5,1154.5 C 338.55,1160.39 337.884,1166.06 336.5,1171.5C 336.45,1165.61 337.116,1159.94 338.5,1154.5 Z"/></g>
<g><path style="opacity:1" fill="#284f9c" d="M 1870.5,1183.5 C 1879.31,1270.33 1870.81,1355.33 1845,1438.5C 1843.11,1444.02 1840.94,1449.35 1838.5,1454.5C 1665.43,1592.36 1492.76,1730.7 1320.5,1869.5C 1233.92,1879.63 1148.92,1872.13 1065.5,1847C 1059.79,1845.49 1054.45,1843.32 1049.5,1840.5C 1322.85,1621.15 1596.52,1402.15 1870.5,1183.5 Z"/></g>
<g><path style="opacity:1" fill="#294f9c" d="M 2282.5,1230.5 C 2285.26,1230.74 2287.43,1232.08 2289,1234.5C 2295.26,1254.74 2307.42,1270.24 2325.5,1281C 2329.79,1284.45 2330.46,1288.45 2327.5,1293C 2316.5,1293.33 2305.5,1293.67 2294.5,1294C 2293.67,1294.83 2292.83,1295.67 2292,1296.5C 2291.82,1306.08 2291.32,1315.58 2290.5,1325C 2286.58,1325.79 2282.74,1325.63 2279,1324.5C 2278.67,1315.17 2278.33,1305.83 2278,1296.5C 2277.1,1295.3 2275.93,1294.47 2274.5,1294C 2255.67,1293.48 2236.83,1292.98 2218,1292.5C 2209.78,1292.42 2201.62,1292.92 2193.5,1294C 2185.35,1296.15 2182.18,1301.31 2184,1309.5C 2185.9,1313.74 2188.24,1317.74 2191,1321.5C 2191.66,1326.5 2189.5,1328.33 2184.5,1327C 2165.32,1311.48 2158.82,1291.65 2165,1267.5C 2169.44,1259.06 2176.28,1253.56 2185.5,1251C 2215.84,1250.65 2246.17,1250.65 2276.5,1251C 2277.93,1250.53 2279.1,1249.7 2280,1248.5C 2280.33,1243.17 2280.67,1237.83 2281,1232.5C 2281.72,1231.96 2282.22,1231.29 2282.5,1230.5 Z"/></g>
<g><path style="opacity:1" fill="#294f9c" d="M 196.5,1283.5 C 203.05,1283.55 209.383,1282.88 215.5,1281.5C 254.197,1277.67 293.031,1273.67 332,1269.5C 339.159,1270.39 341.492,1274.39 339,1281.5C 338,1283.17 337,1284.83 336,1286.5C 293.94,1327.06 252.107,1367.73 210.5,1408.5C 209.711,1408.78 209.044,1409.28 208.5,1410C 211.696,1410.8 214.696,1410.64 217.5,1409.5C 218.833,1409.5 220.167,1409.5 221.5,1409.5C 227.069,1409.62 232.402,1408.96 237.5,1407.5C 265.613,1405.32 293.613,1402.16 321.5,1398C 324.562,1396.94 327.062,1395.11 329,1392.5C 330.255,1385.94 330.922,1379.27 331,1372.5C 335.199,1366.97 338.865,1367.3 342,1373.5C 341.795,1390.37 343.461,1407.04 347,1423.5C 348.262,1427.91 347.428,1431.74 344.5,1435C 340.834,1436.27 338.334,1435.1 337,1431.5C 336.17,1426.68 334.836,1422.01 333,1417.5C 331.581,1416.54 330.081,1415.71 328.5,1415C 319.911,1413.42 311.244,1413.09 302.5,1414C 278.538,1416.73 254.538,1419.06 230.5,1421C 219.063,1422.01 207.73,1423.68 196.5,1426C 193.804,1426.69 191.637,1428.19 190,1430.5C 189.667,1435.17 189.333,1439.83 189,1444.5C 186.726,1450.29 183.393,1450.95 179,1446.5C 176.838,1426.89 174.671,1407.22 172.5,1387.5C 172.515,1385.37 173.015,1383.37 174,1381.5C 204.7,1351.63 235.2,1321.63 265.5,1291.5C 266.289,1291.22 266.956,1290.72 267.5,1290C 263.642,1289.19 259.976,1289.36 256.5,1290.5C 237.131,1291.88 217.798,1293.72 198.5,1296C 192.053,1296.04 186.22,1297.87 181,1301.5C 178.099,1308.16 176.765,1315.16 177,1322.5C 176.242,1324.91 174.575,1325.91 172,1325.5C 168.26,1325.42 166.26,1323.42 166,1319.5C 165.345,1310.84 164.845,1302.17 164.5,1293.5C 164.638,1288.59 163.972,1283.92 162.5,1279.5C 161.146,1274.57 160.646,1269.57 161,1264.5C 164.048,1260.99 167.381,1260.66 171,1263.5C 173.145,1267.93 174.478,1272.6 175,1277.5C 175.785,1279.29 176.951,1280.79 178.5,1282C 184.379,1283.41 190.379,1283.91 196.5,1283.5 Z"/></g>
<g><path style="opacity:1" fill="#627cb5" d="M 215.5,1281.5 C 209.383,1282.88 203.05,1283.55 196.5,1283.5C 202.617,1282.12 208.95,1281.45 215.5,1281.5 Z"/></g>
<g><path style="opacity:1" fill="#a7b6d6" d="M 256.5,1290.5 C 259.976,1289.36 263.642,1289.19 267.5,1290C 266.956,1290.72 266.289,1291.22 265.5,1291.5C 262.713,1290.52 259.713,1290.19 256.5,1290.5 Z"/></g>
<g><path style="opacity:1" fill="#a6b5d6" d="M 162.5,1279.5 C 163.972,1283.92 164.638,1288.59 164.5,1293.5C 163.028,1289.08 162.362,1284.41 162.5,1279.5 Z"/></g>
<g><path style="opacity:1" fill="#294f9c" d="M 2232.5,1460.5 C 2228.01,1459.83 2223.35,1459.5 2218.5,1459.5C 2211.27,1459.33 2204.27,1460 2197.5,1461.5C 2175.58,1465.54 2158.08,1476.54 2145,1494.5C 2131.21,1519.08 2132.55,1542.75 2149,1565.5C 2155.69,1573.19 2162.69,1580.52 2170,1587.5C 2172.25,1591.67 2171.42,1595.17 2167.5,1598C 2164.5,1598.67 2161.5,1598.67 2158.5,1598C 2148.99,1595.05 2139.65,1591.72 2130.5,1588C 2126.62,1585.07 2124.12,1581.24 2123,1576.5C 2113.91,1527.1 2124.24,1482.1 2154,1441.5C 2176.74,1413.38 2206.24,1399.05 2242.5,1398.5C 2293.93,1402.31 2328.1,1428.65 2345,1477.5C 2357.75,1528.42 2350.75,1576.42 2324,1621.5C 2320.91,1626.89 2316.25,1628.89 2310,1627.5C 2300.48,1626.9 2290.98,1626.06 2281.5,1625C 2273.58,1619.8 2273.58,1614.47 2281.5,1609C 2293.17,1605 2304.17,1599.66 2314.5,1593C 2327.86,1580.09 2334.53,1564.26 2334.5,1545.5C 2333.51,1528.03 2327.35,1512.69 2316,1499.5C 2293.11,1476.14 2265.28,1463.14 2232.5,1460.5 Z"/></g>
<g><path style="opacity:1" fill="#6079b4" d="M 237.5,1407.5 C 232.402,1408.96 227.069,1409.62 221.5,1409.5C 226.598,1408.04 231.931,1407.38 237.5,1407.5 Z"/></g>
<g><path style="opacity:1" fill="#7d93c2" d="M 210.5,1408.5 C 212.607,1409.47 214.941,1409.8 217.5,1409.5C 214.696,1410.64 211.696,1410.8 208.5,1410C 209.044,1409.28 209.711,1408.78 210.5,1408.5 Z"/></g>
<g><path style="opacity:1" fill="#fefefe" d="M 1838.5,1454.5 C 1788.96,1594.65 1700.96,1704.15 1574.5,1783C 1496.29,1830.25 1411.62,1859.08 1320.5,1869.5C 1492.76,1730.7 1665.43,1592.36 1838.5,1454.5 Z"/></g>
<g><path style="opacity:1" fill="#294f9c" d="M 380.5,1528.5 C 380.41,1531.15 381.076,1533.49 382.5,1535.5C 385.259,1551.51 385.093,1567.51 382,1583.5C 371.811,1618.18 348.978,1639.01 313.5,1646C 272.996,1650.16 242.162,1635 221,1600.5C 204.448,1569.34 202.448,1537.34 215,1504.5C 239.344,1461.09 275.51,1446.59 323.5,1461C 353.544,1474.21 372.544,1496.71 380.5,1528.5 Z"/></g>
<g><path style="opacity:1" fill="#ced6e8" d="M 2232.5,1460.5 C 2220.82,1460.36 2209.15,1460.7 2197.5,1461.5C 2204.27,1460 2211.27,1459.33 2218.5,1459.5C 2223.35,1459.5 2228.01,1459.83 2232.5,1460.5 Z"/></g>
<g><path style="opacity:1" fill="#fdfefe" d="M 308.5,1496.5 C 320.269,1496.02 331.935,1496.85 343.5,1499C 365.174,1507.17 373.674,1522.67 369,1545.5C 361.865,1563.97 349.698,1578.14 332.5,1588C 307.64,1602.55 280.973,1608.22 252.5,1605C 226.232,1597.3 216.399,1580.14 223,1553.5C 233.196,1533.64 248.363,1518.8 268.5,1509C 281.426,1503.08 294.76,1498.91 308.5,1496.5 Z"/></g>
<g><path style="opacity:1" fill="#8095c4" d="M 380.5,1528.5 C 381.924,1530.51 382.59,1532.85 382.5,1535.5C 381.076,1533.49 380.41,1531.15 380.5,1528.5 Z"/></g>
<g><path style="opacity:1" fill="#294f9c" d="M 2106.5,1576.5 C 2109.27,1576.22 2111.77,1576.89 2114,1578.5C 2114.24,1583.71 2113.74,1588.88 2112.5,1594C 2112.49,1596.3 2112.99,1598.47 2114,1600.5C 2117.29,1603.79 2121.13,1606.29 2125.5,1608C 2164.87,1624.79 2204.2,1641.79 2243.5,1659C 2246.83,1659.67 2250.17,1659.67 2253.5,1659C 2257.54,1655.3 2261.2,1651.3 2264.5,1647C 2268.69,1646.35 2271.03,1648.18 2271.5,1652.5C 2265.59,1670.68 2263.09,1689.34 2264,1708.5C 2262.14,1711.21 2259.64,1712.04 2256.5,1711C 2204.5,1688.33 2152.5,1665.67 2100.5,1643C 2098.17,1642.33 2095.83,1642.33 2093.5,1643C 2089.08,1646.75 2085.42,1651.08 2082.5,1656C 2077.44,1658.94 2074.44,1657.6 2073.5,1652C 2073.92,1649.82 2074.42,1647.65 2075,1645.5C 2085.36,1625.41 2094.36,1604.75 2102,1583.5C 2103.51,1581.14 2105.01,1578.81 2106.5,1576.5 Z"/></g>
<g><path style="opacity:1" fill="#294f9c" d="M 320.5,1778.5 C 323.152,1778.59 325.485,1777.92 327.5,1776.5C 374.633,1768.87 421.633,1760.37 468.5,1751C 479.79,1748.63 485.29,1753.13 485,1764.5C 454.493,1809.52 423.493,1854.18 392,1898.5C 389.409,1902.03 387.409,1905.69 386,1909.5C 416.921,1890.95 448.087,1872.79 479.5,1855C 487.337,1850.25 495.004,1845.25 502.5,1840C 506.861,1836.3 509.527,1831.64 510.5,1826C 507.285,1817.74 503.952,1809.58 500.5,1801.5C 502.061,1796.44 505.394,1794.61 510.5,1796C 512.333,1797.83 514.167,1799.67 516,1801.5C 526.005,1821.53 538.005,1840.19 552,1857.5C 554.04,1863.35 552.04,1866.69 546,1867.5C 539.672,1864.19 534.172,1859.69 529.5,1854C 524.833,1852 520.167,1852 515.5,1854C 467.004,1881.08 418.671,1908.41 370.5,1936C 367.448,1938.2 365.448,1941.03 364.5,1944.5C 365.906,1950.65 368.406,1956.31 372,1961.5C 374.663,1969.81 371.83,1973.64 363.5,1973C 361.714,1972.22 360.214,1971.05 359,1969.5C 345.995,1947.68 332.828,1926.01 319.5,1904.5C 346.622,1863.1 374.622,1822.26 403.5,1782C 355.465,1789.28 307.465,1797.12 259.5,1805.5C 257.077,1805.45 255.244,1804.45 254,1802.5C 241.5,1781.5 228.5,1760.83 215,1740.5C 214.658,1733.84 217.825,1731.01 224.5,1732C 229.833,1736 234.5,1740.67 238.5,1746C 241.702,1747.48 245.036,1747.82 248.5,1747C 260.433,1740.06 272.1,1732.73 283.5,1725C 317.66,1701.42 351.994,1678.09 386.5,1655C 392.43,1650.98 394.93,1645.48 394,1638.5C 391.569,1633.3 389.402,1627.97 387.5,1622.5C 390.935,1613.92 395.768,1613.25 402,1620.5C 412,1637.83 422,1655.17 432,1672.5C 440.723,1684.22 449.056,1696.22 457,1708.5C 459.219,1716.27 456.386,1719.77 448.5,1719C 443.113,1713.61 437.779,1708.28 432.5,1703C 426.855,1700.83 421.522,1701.49 416.5,1705C 377.995,1730.08 339.662,1755.42 301.5,1781C 307.727,1779.96 314.061,1779.13 320.5,1778.5 Z"/></g>
<g><path style="opacity:1" fill="#294f9c" d="M 2067.5,1678.5 C 2078.56,1677.47 2089.23,1678.97 2099.5,1683C 2119.1,1694.27 2138.43,1705.94 2157.5,1718C 2161.1,1719.28 2164.76,1719.61 2168.5,1719C 2172.8,1715.7 2176.8,1712.04 2180.5,1708C 2184.73,1706.73 2187.4,1708.23 2188.5,1712.5C 2187.67,1714.83 2186.84,1717.16 2186,1719.5C 2175.97,1734.85 2165.97,1750.18 2156,1765.5C 2129.43,1750.13 2102.93,1734.63 2076.5,1719C 2062.21,1714.9 2053.04,1720.06 2049,1734.5C 2045.89,1746.76 2049.73,1755.93 2060.5,1762C 2079.17,1773 2097.83,1784 2116.5,1795C 2119.3,1795.75 2121.97,1795.42 2124.5,1794C 2128.17,1790.33 2131.83,1786.67 2135.5,1783C 2139.76,1781.77 2142.42,1783.27 2143.5,1787.5C 2143.24,1790.03 2142.4,1792.36 2141,1794.5C 2130.48,1808.7 2121.15,1823.7 2113,1839.5C 2112.28,1840.06 2111.44,1840.39 2110.5,1840.5C 2081.71,1823.93 2053.04,1807.1 2024.5,1790C 2022.03,1789.29 2019.7,1789.63 2017.5,1791C 2014.79,1793.37 2012.46,1796.04 2010.5,1799C 2005,1800.17 2002.83,1798 2004,1792.5C 2009.12,1776.35 2013.45,1760.02 2017,1743.5C 2018.06,1742.1 2019.39,1741.1 2021,1740.5C 2025.07,1743.12 2029.23,1745.62 2033.5,1748C 2035.13,1748.49 2036.8,1748.66 2038.5,1748.5C 2034.21,1727.76 2038.05,1708.76 2050,1691.5C 2055.17,1686.15 2061,1681.81 2067.5,1678.5 Z"/></g>
<g><path style="opacity:1" fill="#6e85bb" d="M 327.5,1776.5 C 325.485,1777.92 323.152,1778.59 320.5,1778.5C 322.515,1777.08 324.848,1776.41 327.5,1776.5 Z"/></g>
<g><path style="opacity:1" fill="#294f9c" d="M 1978.5,1796.5 C 1980.2,1796.34 1981.87,1796.51 1983.5,1797C 2025.24,1834.75 2067.57,1871.75 2110.5,1908C 2112.5,1908.67 2114.5,1908.67 2116.5,1908C 2120.45,1905.72 2124.11,1903.05 2127.5,1900C 2133.08,1898.74 2134.91,1900.91 2133,1906.5C 2124.77,1919.29 2118.44,1932.95 2114,1947.5C 2112.55,1951.2 2110.71,1954.7 2108.5,1958C 2105.45,1958.86 2102.78,1958.19 2100.5,1956C 2082.96,1940.13 2065.13,1924.63 2047,1909.5C 2043.1,1918.85 2039.77,1928.52 2037,1938.5C 2017.87,1964.77 1992.7,1973.27 1961.5,1964C 1930.72,1949.29 1916.88,1924.79 1920,1890.5C 1927.22,1855.62 1947.55,1832.29 1981,1820.5C 1981.67,1818.5 1981.67,1816.5 1981,1814.5C 1979.58,1810.07 1978.08,1805.74 1976.5,1801.5C 1976.44,1799.49 1977.1,1797.82 1978.5,1796.5 Z"/></g>
<g><path style="opacity:1" fill="#fcfdfe" d="M 1958.5,1844.5 C 1962.18,1844.33 1965.85,1844.5 1969.5,1845C 1972.81,1846.97 1976.15,1848.97 1979.5,1851C 1998.63,1867.13 2017.46,1883.63 2036,1900.5C 2035.77,1917.08 2027.27,1926.58 2010.5,1929C 1999.09,1930.12 1988.42,1927.78 1978.5,1922C 1961.86,1912.02 1950.36,1897.85 1944,1879.5C 1940.25,1864.06 1945.09,1852.39 1958.5,1844.5 Z"/></g>
<g><path style="opacity:1" fill="#c38153" d="M 1104.5,2035.5 C 1107.5,2035.29 1110.16,2035.96 1112.5,2037.5C 1109.57,2037.43 1106.91,2036.77 1104.5,2035.5 Z"/></g>
<g><path style="opacity:1" fill="#db7732" d="M 1201.5,2047.5 C 1193.94,2047.69 1186.61,2047.02 1179.5,2045.5C 1182.53,2045.49 1185.53,2045.16 1188.5,2044.5C 1192.91,2045.78 1197.24,2046.78 1201.5,2047.5 Z"/></g>
<g><path style="opacity:1" fill="#7f95c4" d="M 698.5,2069.5 C 684.99,2069.17 671.656,2069.5 658.5,2070.5C 657.957,2070.44 657.624,2070.11 657.5,2069.5C 671.328,2068.17 684.994,2068.17 698.5,2069.5 Z"/></g>
<g><path style="opacity:1" fill="#8ea1cb" d="M 1763.5,2069.5 C 1786,2068.17 1808.67,2068.17 1831.5,2069.5C 1831.38,2070.11 1831.04,2070.44 1830.5,2070.5C 1808.34,2069.5 1786.01,2069.17 1763.5,2069.5 Z"/></g>
<g><path style="opacity:1" fill="#284f9c" d="M 698.5,2069.5 C 721.176,2069.17 743.843,2069.5 766.5,2070.5C 783.845,2101.19 801.179,2131.86 818.5,2162.5C 810.35,2163.49 802.017,2163.83 793.5,2163.5C 766.165,2163.67 738.831,2163.5 711.5,2163C 693.442,2132.38 675.776,2101.55 658.5,2070.5C 671.656,2069.5 684.99,2069.17 698.5,2069.5 Z"/></g>
<g><path style="opacity:1" fill="#284f9c" d="M 1763.5,2069.5 C 1786.01,2069.17 1808.34,2069.5 1830.5,2070.5C 1813.32,2101.53 1795.66,2132.2 1777.5,2162.5C 1742,2162.83 1706.66,2162.5 1671.5,2161.5C 1688.22,2131.06 1705.22,2100.73 1722.5,2070.5C 1736.15,2069.5 1749.82,2069.17 1763.5,2069.5 Z"/></g>
<g><path style="opacity:1" fill="#2a4f9c" d="M 1489.5,2310.5 C 1489.59,2307.85 1488.92,2305.51 1487.5,2303.5C 1486.93,2297.9 1485.43,2292.57 1483,2287.5C 1482.11,2286.92 1481.11,2286.59 1480,2286.5C 1457.33,2291.63 1434.83,2297.29 1412.5,2303.5C 1410.63,2303.61 1409.13,2302.94 1408,2301.5C 1405.94,2296.67 1405.27,2291.67 1406,2286.5C 1427.67,2235.17 1449.33,2183.83 1471,2132.5C 1475.47,2126.16 1481.64,2123.33 1489.5,2124C 1490.02,2124.56 1490.36,2125.23 1490.5,2126C 1465,2177.01 1442.34,2229.18 1422.5,2282.5C 1439.57,2279.15 1456.57,2275.32 1473.5,2271C 1478.12,2269.92 1479.62,2267.09 1478,2262.5C 1474.17,2248.19 1470.51,2233.86 1467,2219.5C 1466.33,2216.83 1466.33,2214.17 1467,2211.5C 1477.98,2203.87 1489.48,2197.04 1501.5,2191C 1502.5,2190.33 1503.5,2190.33 1504.5,2191C 1510.54,2212.31 1516.04,2233.81 1521,2255.5C 1522.13,2256.94 1523.63,2257.61 1525.5,2257.5C 1533.14,2255.73 1540.81,2254.06 1548.5,2252.5C 1550.03,2252.53 1551.2,2253.2 1552,2254.5C 1552.29,2256.95 1552.96,2259.29 1554,2261.5C 1554.81,2263.58 1554.64,2265.58 1553.5,2267.5C 1544.97,2270.09 1536.47,2272.76 1528,2275.5C 1528.92,2288.17 1531.58,2300.5 1536,2312.5C 1536.83,2313.33 1537.67,2314.17 1538.5,2315C 1545.5,2315.33 1552.5,2315.67 1559.5,2316C 1563.13,2322.07 1561.47,2326.07 1554.5,2328C 1539.6,2331.48 1524.6,2334.48 1509.5,2337C 1500.19,2340.21 1490.86,2343.21 1481.5,2346C 1478.17,2346.67 1474.83,2346.67 1471.5,2346C 1468.2,2341.15 1469.2,2337.49 1474.5,2335C 1481.2,2333.68 1486.7,2330.51 1491,2325.5C 1491.71,2320.37 1491.21,2315.37 1489.5,2310.5 Z"/></g>
<g><path style="opacity:1" fill="#5874b1" d="M 1671.5,2161.5 C 1706.66,2162.5 1742,2162.83 1777.5,2162.5C 1742,2163.83 1706.33,2163.83 1670.5,2162.5C 1670.62,2161.89 1670.96,2161.56 1671.5,2161.5 Z"/></g>
<g><path style="opacity:1" fill="#c1cce2" d="M 818.5,2162.5 C 819.043,2162.56 819.376,2162.89 819.5,2163.5C 810.675,2164.82 802.009,2164.82 793.5,2163.5C 802.017,2163.83 810.35,2163.49 818.5,2162.5 Z"/></g>
<g><path style="opacity:1" fill="#294f9c" d="M 1065.5,2161.5 C 1071.99,2160.63 1074.49,2163.3 1073,2169.5C 1061.73,2215.29 1050.07,2260.96 1038,2306.5C 1035.9,2313.71 1035.23,2321.05 1036,2328.5C 1037.22,2332.21 1039.72,2334.71 1043.5,2336C 1050.72,2336.74 1057.22,2339.24 1063,2343.5C 1064.16,2347.35 1062.99,2350.18 1059.5,2352C 1056.83,2352.67 1054.17,2352.67 1051.5,2352C 1019.14,2340.46 986.139,2331.46 952.5,2325C 949.833,2321.67 949.833,2318.33 952.5,2315C 961.477,2315.57 970.477,2316.4 979.5,2317.5C 983.433,2317.95 986.6,2316.62 989,2313.5C 991.793,2306.67 994.126,2299.67 996,2292.5C 1005.4,2256.99 1014.24,2221.32 1022.5,2185.5C 1022.61,2183.63 1021.94,2182.13 1020.5,2181C 1017.79,2179.94 1014.96,2179.44 1012,2179.5C 1002.51,2180.47 993.011,2180.64 983.5,2180C 977.914,2175.58 978.247,2171.58 984.5,2168C 1006.9,2168.09 1029.23,2167.09 1051.5,2165C 1056.37,2164.14 1061.04,2162.98 1065.5,2161.5 Z"/></g>
<g><path style="opacity:1" fill="#2a4f9c" d="M 1196.5,2244.5 C 1196.72,2239.9 1196.05,2235.57 1194.5,2231.5C 1192.69,2216.37 1186.02,2203.87 1174.5,2194C 1157.97,2187.51 1146.47,2192.68 1140,2209.5C 1133.67,2232.86 1136.67,2254.86 1149,2275.5C 1152.77,2280.14 1157.27,2283.98 1162.5,2287C 1168.2,2287.46 1173.87,2287.46 1179.5,2287C 1182.45,2290.93 1181.78,2294.26 1177.5,2297C 1142.06,2309.36 1116.56,2298.53 1101,2264.5C 1093.09,2229.48 1104.93,2203.31 1136.5,2186C 1167.45,2174.2 1194.95,2179.7 1219,2202.5C 1236.18,2222.71 1242.84,2246.05 1239,2272.5C 1232.47,2304.41 1216.64,2330.58 1191.5,2351C 1162.25,2373.45 1129.25,2386.79 1092.5,2391C 1088.25,2386.84 1088.59,2383.17 1093.5,2380C 1150.27,2365.23 1184.44,2329.06 1196,2271.5C 1196.5,2262.51 1196.67,2253.51 1196.5,2244.5 Z"/></g>
<g><path style="opacity:1" fill="#294f9c" d="M 1384.5,2181.5 C 1389.5,2181.5 1394.5,2181.5 1399.5,2181.5C 1399.54,2184.91 1399.04,2188.24 1398,2191.5C 1371,2252.83 1347.33,2315.5 1327,2379.5C 1326.53,2380.93 1325.7,2382.1 1324.5,2383C 1319.85,2383.5 1315.18,2383.67 1310.5,2383.5C 1310.34,2380.81 1310.5,2378.15 1311,2375.5C 1328.78,2328.17 1345.78,2280.5 1362,2232.5C 1363.61,2226.09 1361.11,2223.76 1354.5,2225.5C 1321.78,2228.2 1289.11,2231.03 1256.5,2234C 1255.11,2232.83 1254.27,2231.33 1254,2229.5C 1252.03,2216.22 1251.03,2202.89 1251,2189.5C 1264.76,2189.26 1278.59,2189.1 1292.5,2189C 1323.33,2186.63 1354,2184.13 1384.5,2181.5 Z"/></g>
<g><path style="opacity:1" fill="#c4cde3" d="M 1194.5,2231.5 C 1196.05,2235.57 1196.72,2239.9 1196.5,2244.5C 1194.95,2240.43 1194.28,2236.1 1194.5,2231.5 Z"/></g>
<g><path style="opacity:1" fill="#a8b6d6" d="M 1487.5,2303.5 C 1488.92,2305.51 1489.59,2307.85 1489.5,2310.5C 1488.08,2308.49 1487.41,2306.15 1487.5,2303.5 Z"/></g>
</svg>
