<?xml version="1.0" encoding="UTF-8"?>
<!DOCTYPE svg PUBLIC "-//W3C//DTD SVG 1.1//EN" "http://www.w3.org/Graphics/SVG/1.1/DTD/svg11.dtd">
<svg xmlns="http://www.w3.org/2000/svg" version="1.1" width="768px" height="970px" style="shape-rendering:geometricPrecision; text-rendering:geometricPrecision; image-rendering:optimizeQuality; fill-rule:evenodd; clip-rule:evenodd" xmlns:xlink="http://www.w3.org/1999/xlink">
<g><path style="opacity:0.996" fill="#010101" d="M -0.5,-0.5 C 255.5,-0.5 511.5,-0.5 767.5,-0.5C 767.5,191.5 767.5,383.5 767.5,575.5C 760.053,641.387 737.22,701.387 699,755.5C 668.493,798.683 632.993,837.517 592.5,872C 531.455,918.686 463.455,951.186 388.5,969.5C 385.5,969.5 382.5,969.5 379.5,969.5C 296.005,949.088 221.671,911.254 156.5,856C 115.664,817.529 80.4975,774.695 51,727.5C 21.2411,677.061 4.07441,622.727 -0.5,564.5C -0.5,376.167 -0.5,187.833 -0.5,-0.5 Z"/></g>
<g><path style="opacity:1" fill="#409954" d="M 200.5,534.5 C 196.5,535.167 192.5,535.833 188.5,536.5C 178.465,539.23 176.298,544.896 182,553.5C 188.295,559.38 195.795,562.547 204.5,563C 217.167,563.333 229.833,563.667 242.5,564C 190.833,619.667 139.167,675.333 87.5,731C 86.5509,731.617 85.7175,731.451 85,730.5C 50.5019,678.34 31.1686,621.006 27,558.5C 26.5,381.167 26.3333,203.834 26.5,26.5C 264.167,26.3333 501.834,26.5 739.5,27C 677.132,93.6994 615.132,160.699 553.5,228C 550.528,228.288 547.861,227.455 545.5,225.5C 524.514,183.156 491.18,155.656 445.5,143C 419.688,136.388 393.688,135.721 367.5,141C 349.976,142.696 333.309,147.362 317.5,155C 316,156.5 314.5,158 313,159.5C 310.251,166.577 307.751,173.744 305.5,181C 283.717,192.558 261.717,203.558 239.5,214C 237.955,215.822 237.288,217.989 237.5,220.5C 240.341,241.543 248.674,260.043 262.5,276C 266.611,279.221 271.278,281.054 276.5,281.5C 283.738,292.04 293.572,296.706 306,295.5C 306.667,294.167 306.667,292.833 306,291.5C 302.703,285.808 301.203,279.808 301.5,273.5C 315.952,265.886 331.285,262.386 347.5,263C 349.286,263.785 350.786,264.951 352,266.5C 354.061,284.862 350.728,302.195 342,318.5C 338.833,324.333 334.333,328.833 328.5,332C 326.5,332.667 324.5,332.667 322.5,332C 315.553,325.61 311.053,317.777 309,308.5C 306.006,307.11 304.006,308.11 303,311.5C 300.612,318.314 299.945,325.314 301,332.5C 302.823,339.378 303.823,346.378 304,353.5C 305.736,360.237 309.903,364.737 316.5,367C 326.65,368.796 335.984,366.796 344.5,361C 354.962,352.936 366.628,347.27 379.5,344C 390.553,341.215 399.72,344.048 407,352.5C 411.89,360.169 414.557,368.502 415,377.5C 377.799,417.033 340.966,456.866 304.5,497C 289.047,496.026 273.547,495.526 258,495.5C 248.167,495.667 238.333,495.833 228.5,496C 221.257,495.689 215.757,498.522 212,504.5C 210.973,508.18 211.806,511.347 214.5,514C 209.833,514.333 205.167,514.667 200.5,515C 190.043,521.923 190.043,528.423 200.5,534.5 Z"/></g>
<g><path style="opacity:1" fill="#474747" d="M 741.5,306.5 C 741.833,215.332 741.499,124.332 740.5,33.5C 740.783,32.7109 741.283,32.0442 742,31.5C 742.832,123.334 742.666,215.001 741.5,306.5 Z"/></g>
<g><path style="opacity:1" fill="#fbfdfc" d="M 326.5,33.5 C 339.802,31.6043 352.136,34.1043 363.5,41C 365.976,42.3088 367.976,44.1421 369.5,46.5C 365.092,50.4008 360.259,53.7341 355,56.5C 350.816,52.8241 345.983,50.3241 340.5,49C 335.848,47.8069 331.681,48.6403 328,51.5C 326.959,54.6363 327.793,57.1363 330.5,59C 341.167,65.6667 351.833,72.3333 362.5,79C 373.996,88.1486 375.496,98.6486 367,110.5C 348.174,123.178 329.007,123.678 309.5,112C 306.317,108.985 303.317,105.818 300.5,102.5C 306.124,99.4392 311.957,96.7725 318,94.5C 321.489,97.3196 324.989,100.153 328.5,103C 336.228,106.848 343.395,106.015 350,100.5C 351.378,96.1019 350.212,92.6019 346.5,90C 335.997,83.5826 325.663,76.9159 315.5,70C 301.917,58.7119 302.251,48.0452 316.5,38C 319.893,36.38 323.226,34.88 326.5,33.5 Z"/></g>
<g><path style="opacity:1" fill="#fbfdfc" d="M 454.5,33.5 C 471.118,30.8962 485.451,35.2295 497.5,46.5C 493.053,50.5643 488.053,53.8976 482.5,56.5C 476.104,50.15 468.437,47.65 459.5,49C 454.605,51.8235 454.271,55.1568 458.5,59C 469.5,66 480.5,73 491.5,80C 504.255,92.7884 503.255,104.455 488.5,115C 470.914,123.082 453.914,122.082 437.5,112C 434.317,108.985 431.317,105.818 428.5,102.5C 434.124,99.4392 439.957,96.7725 446,94.5C 448.796,96.9581 451.63,99.4581 454.5,102C 462.69,106.877 470.523,106.377 478,100.5C 479.202,96.2071 478.035,92.7071 474.5,90C 465.833,84.6667 457.167,79.3333 448.5,74C 426.857,56.9996 428.857,43.4996 454.5,33.5 Z"/></g>
<g><path style="opacity:1" fill="#fefefe" d="M 740.5,33.5 C 741.499,124.332 741.833,215.332 741.5,306.5C 728.241,321.93 714.407,336.93 700,351.5C 694.49,341.655 687.823,332.655 680,324.5C 643.214,287.876 602.381,256.71 557.5,231C 618.706,165.297 679.706,99.4635 740.5,33.5 Z"/></g>
<g><path style="opacity:1" fill="#fdfefd" d="M 247.5,116.5 C 240.352,117.492 233.019,117.825 225.5,117.5C 222.385,112.107 219.385,106.607 216.5,101C 200.823,100.167 185.156,100.334 169.5,101.5C 166.473,106.896 163.473,112.229 160.5,117.5C 153.087,118.128 146.087,117.461 139.5,115.5C 153.233,89.035 167.233,62.7017 181.5,36.5C 189.392,35.1862 197.225,35.1862 205,36.5C 219.434,63.0351 233.601,89.7017 247.5,116.5 Z"/></g>
<g><path style="opacity:1" fill="#abd3b4" d="M 628.5,35.5 C 607.833,35.5 587.167,35.5 566.5,35.5C 566.5,62.8333 566.5,90.1667 566.5,117.5C 587.167,117.5 607.833,117.5 628.5,117.5C 607.673,118.497 586.673,118.831 565.5,118.5C 565.5,90.5 565.5,62.5 565.5,34.5C 586.673,34.1694 607.673,34.5027 628.5,35.5 Z"/></g>
<g><path style="opacity:1" fill="#fefefe" d="M 628.5,35.5 C 628.5,40.5 628.5,45.5 628.5,50.5C 614.833,50.5 601.167,50.5 587.5,50.5C 587.5,55.5 587.5,60.5 587.5,65.5C 601.167,65.5 614.833,65.5 628.5,65.5C 628.5,70.5 628.5,75.5 628.5,80.5C 614.833,80.5 601.167,80.5 587.5,80.5C 587.5,87.8333 587.5,95.1667 587.5,102.5C 601.167,102.5 614.833,102.5 628.5,102.5C 628.5,107.5 628.5,112.5 628.5,117.5C 607.833,117.5 587.167,117.5 566.5,117.5C 566.5,90.1667 566.5,62.8333 566.5,35.5C 587.167,35.5 607.833,35.5 628.5,35.5 Z"/></g>
<g><path style="opacity:1" fill="#439b56" d="M 192.5,57.5 C 198.185,66.3579 203.519,75.5245 208.5,85C 198.483,85.8322 188.483,85.6656 178.5,84.5C 183.448,75.6036 188.114,66.6036 192.5,57.5 Z"/></g>
<g><path style="opacity:1" fill="#f9fbf9" d="M 271.5,99.5 C 281.453,99.0962 285.62,103.763 284,113.5C 280.945,118.635 276.445,120.468 270.5,119C 262.31,111.999 262.643,105.499 271.5,99.5 Z"/></g>
<g><path style="opacity:1" fill="#f9fcf9" d="M 399.5,99.5 C 409.04,98.8703 413.206,103.204 412,112.5C 407.812,120.005 402.145,121.338 395,116.5C 390.758,109.274 392.258,103.607 399.5,99.5 Z"/></g>
<g><path style="opacity:1" fill="#f9fcfa" d="M 527.5,99.5 C 539.106,100.259 542.606,105.925 538,116.5C 530.682,121.511 525.016,120.178 521,112.5C 519.841,106.495 522.008,102.162 527.5,99.5 Z"/></g>
<g><path style="opacity:1" fill="#b5d8bd" d="M 139.5,115.5 C 146.087,117.461 153.087,118.128 160.5,117.5C 153.352,118.492 146.019,118.825 138.5,118.5C 138.263,117.209 138.596,116.209 139.5,115.5 Z"/></g>
<g><path style="opacity:1" fill="#b0d5b8" d="M 247.5,116.5 C 248.043,116.56 248.376,116.893 248.5,117.5C 240.677,118.82 233.01,118.82 225.5,117.5C 233.019,117.825 240.352,117.492 247.5,116.5 Z"/></g>
<g><path style="opacity:1" fill="#f3f3f3" d="M 332.5,168.5 C 340.547,168.277 348.547,168.777 356.5,170C 358.847,170.712 360.847,171.879 362.5,173.5C 355.995,181.171 347.828,186.171 338,188.5C 335.849,188.357 334.182,187.357 333,185.5C 331.847,182.289 331.18,178.956 331,175.5C 329.062,174.14 327.396,174.473 326,176.5C 325.667,180.833 325.333,185.167 325,189.5C 319.617,179.265 322.117,172.265 332.5,168.5 Z"/></g>
<g><path style="opacity:1" fill="#f6f6f6" d="M 528.5,208.5 C 529.239,208.369 529.906,208.536 530.5,209C 517.761,233.038 497.761,243.372 470.5,240C 451.648,235.97 436.648,226.137 425.5,210.5C 425.833,210.167 426.167,209.833 426.5,209.5C 451.971,227.825 479.637,231.991 509.5,222C 517.023,218.929 523.357,214.429 528.5,208.5 Z"/></g>
<g><path style="opacity:1" fill="#f4f4f4" d="M 247.5,218.5 C 249.467,218.261 251.301,218.594 253,219.5C 254.132,224.889 253.298,229.889 250.5,234.5C 247.684,231.07 246.017,227.07 245.5,222.5C 245.803,220.886 246.47,219.552 247.5,218.5 Z"/></g>
<g><path style="opacity:1" fill="#f0f0f0" d="M 475.5,271.5 C 479.756,301.159 468.756,323.659 442.5,339C 429.736,346.016 416.403,347.682 402.5,344C 430.06,338.805 451.227,324.305 466,300.5C 470.474,291.246 473.64,281.58 475.5,271.5 Z"/></g>
<g><path style="opacity:1" fill="#f0f0f0" d="M 294.5,275.5 C 296.229,280.218 297.896,285.051 299.5,290C 292.442,289.468 286.775,286.301 282.5,280.5C 286.757,279.2 290.757,277.533 294.5,275.5 Z"/></g>
<g><path style="opacity:1" fill="#112a16" d="M 740.5,315.5 C 740.56,314.957 740.893,314.624 741.5,314.5C 742.832,391.666 742.832,468.666 741.5,545.5C 741.833,468.665 741.499,391.998 740.5,315.5 Z"/></g>
<g><path style="opacity:1" fill="#3f9953" d="M 740.5,315.5 C 741.499,391.998 741.833,468.665 741.5,545.5C 739.342,619.315 716.342,685.649 672.5,744.5C 562.999,744.833 453.665,744.499 344.5,743.5C 476.868,601.134 608.868,458.467 740.5,315.5 Z"/></g>
<g><path style="opacity:1" fill="#f1f1f1" d="M 306.5,318.5 C 308.813,323.671 311.813,328.504 315.5,333C 312.487,333.502 309.487,334.002 306.5,334.5C 305.27,329.122 305.27,323.789 306.5,318.5 Z"/></g>
<g><path style="opacity:1" fill="#fcfcfc" d="M 416.5,382.5 C 417.222,382.918 417.722,383.584 418,384.5C 422.374,417.691 425.374,451.024 427,484.5C 429.91,522.866 440.243,558.866 458,592.5C 432.963,566.932 405.796,544.098 376.5,524C 355.815,511.326 333.482,502.993 309.5,499C 345.763,460.576 381.43,421.743 416.5,382.5 Z"/></g>
<g><path style="opacity:1" fill="#f7f7f7" d="M 496.5,436.5 C 500.985,436.647 503.652,438.98 504.5,443.5C 496.045,461.543 491.212,480.543 490,500.5C 489.251,526.204 489.584,551.871 491,577.5C 487.956,580.375 485.123,583.375 482.5,586.5C 481.914,586.291 481.414,585.957 481,585.5C 480.326,577.791 479.326,570.125 478,562.5C 477.333,540.833 477.333,519.167 478,497.5C 479.251,477.161 484.251,457.828 493,439.5C 494.145,438.364 495.312,437.364 496.5,436.5 Z"/></g>
<g><path style="opacity:1" fill="#1a3f22" d="M 200.5,534.5 C 201.473,534.987 202.473,535.487 203.5,536C 198.511,536.499 193.511,536.666 188.5,536.5C 192.5,535.833 196.5,535.167 200.5,534.5 Z"/></g>
<g><path style="opacity:1" fill="#fcfcfc" d="M 248.5,564.5 C 275.633,564.048 301.3,569.881 325.5,582C 362.397,608.609 382.564,644.775 386,690.5C 368.202,710.633 350.035,730.466 331.5,750C 443.833,750.333 556.167,750.667 668.5,751C 652.003,773.506 634.003,794.839 614.5,815C 499.833,815.333 385.167,815.667 270.5,816C 253.667,834.167 236.833,852.333 220,870.5C 181.61,844.45 147.943,813.117 119,776.5C 108.558,763.78 98.7246,750.613 89.5,737C 142.338,679.33 195.338,621.83 248.5,564.5 Z"/></g>
<g><path style="opacity:1" fill="#0a0a0a" d="M 270.5,580.5 C 322.778,579.547 354.611,604.547 366,655.5C 367.982,696.395 350.816,725.895 314.5,744C 270.241,759.135 234.741,747.635 208,709.5C 187.119,668.303 193.286,631.803 226.5,600C 239.644,589.925 254.311,583.425 270.5,580.5 Z"/></g>
<g><path style="opacity:1" fill="#fbfbfb" d="M 268.5,588.5 C 299.274,585.401 324.274,595.734 343.5,619.5C 339.863,619.513 336.197,618.68 332.5,617C 307.276,610.427 283.276,613.427 260.5,626C 258.833,626.667 257.167,626.667 255.5,626C 246.417,620.333 242.25,612.166 243,601.5C 243.792,599.413 244.959,597.579 246.5,596C 253.76,592.863 261.093,590.363 268.5,588.5 Z"/></g>
<g><path style="opacity:1" fill="#fcfcfc" d="M 233.5,603.5 C 235.039,613.736 239.706,622.569 247.5,630C 249.746,631.039 251.913,632.206 254,633.5C 253.812,646.62 258.645,657.453 268.5,666C 271.605,667.868 274.938,669.035 278.5,669.5C 279.358,679.951 275.691,688.451 267.5,695C 263.333,697.086 259.333,696.753 255.5,694C 230.966,676.1 218.132,651.933 217,621.5C 222.293,615.196 227.793,609.196 233.5,603.5 Z"/></g>
<g><path style="opacity:1" fill="#fbfbfb" d="M 293.5,621.5 C 313.983,619.622 333.317,623.455 351.5,633C 355.472,640.725 357.639,648.891 358,657.5C 345.791,650.573 333.791,650.907 322,658.5C 311.823,652.552 300.989,651.052 289.5,654C 285.89,655.944 282.557,658.277 279.5,661C 274.864,661.073 271.031,659.239 268,655.5C 265.726,651.286 263.726,646.953 262,642.5C 261.21,639.366 261.543,636.366 263,633.5C 272.674,627.901 282.841,623.901 293.5,621.5 Z"/></g>
<g><path style="opacity:1" fill="#fbfbfb" d="M 209.5,634.5 C 213.911,656.82 224.245,675.987 240.5,692C 245.558,696.057 250.892,699.724 256.5,703C 259.689,713.986 256.356,722.653 246.5,729C 243.594,730.318 240.594,730.652 237.5,730C 210.507,709.829 199.674,682.995 205,649.5C 206.041,644.332 207.541,639.332 209.5,634.5 Z"/></g>
<g><path style="opacity:1" fill="#fbfbfb" d="M 295.5,659.5 C 303.303,658.576 310.47,660.243 317,664.5C 318.048,697.822 304.548,723.656 276.5,742C 266.823,742.997 257.823,740.997 249.5,736C 261.604,728.625 266.937,717.792 265.5,703.5C 272.217,701.629 277.384,697.629 281,691.5C 286.069,683.447 287.735,674.78 286,665.5C 288.843,662.837 292.009,660.837 295.5,659.5 Z"/></g>
<g><path style="opacity:1" fill="#fbfbfb" d="M 333.5,660.5 C 340.909,659.621 347.909,660.788 354.5,664C 356.049,665.214 357.215,666.714 358,668.5C 355.904,702.94 338.737,726.44 306.5,739C 300.922,740.815 295.255,741.815 289.5,742C 313.273,722.616 325.44,697.45 326,666.5C 328.114,663.879 330.614,661.879 333.5,660.5 Z"/></g>
<g><path style="opacity:1" fill="#1a3e21" d="M 344.5,743.5 C 453.665,744.499 562.999,744.833 672.5,744.5C 562.999,745.832 453.333,745.832 343.5,744.5C 343.624,743.893 343.957,743.56 344.5,743.5 Z"/></g>
<g><path style="opacity:1" fill="#0a0a0a" d="M 205.5,758.5 C 213.157,757.494 219.49,759.827 224.5,765.5C 222.81,768.024 220.643,770.024 218,771.5C 216.155,768.817 213.655,767.15 210.5,766.5C 208.391,766.775 207.058,767.942 206.5,770C 211.967,775.798 217.8,781.298 224,786.5C 228.256,796.491 225.089,802.991 214.5,806C 205.621,807.821 198.955,804.821 194.5,797C 196.699,795.303 199.032,793.803 201.5,792.5C 203.69,794.524 206.023,796.357 208.5,798C 213.84,798.989 216.34,796.822 216,791.5C 212.958,788.067 209.458,785.234 205.5,783C 201.908,780.079 199.075,776.579 197,772.5C 196.489,765.863 199.322,761.196 205.5,758.5 Z"/></g>
<g><path style="opacity:1" fill="#050505" d="M 249.5,768.5 C 248.505,780.322 248.172,792.322 248.5,804.5C 245.5,804.5 242.5,804.5 239.5,804.5C 239.5,792.5 239.5,780.5 239.5,768.5C 236.5,768.5 233.5,768.5 230.5,768.5C 230.5,765.5 230.5,762.5 230.5,759.5C 239.833,759.5 249.167,759.5 258.5,759.5C 258.5,762.5 258.5,765.5 258.5,768.5C 255.5,768.5 252.5,768.5 249.5,768.5 Z"/></g>
<g><path style="opacity:1" fill="#464646" d="M 295.5,759.5 C 295.5,774.5 295.5,789.5 295.5,804.5C 304.5,804.5 313.5,804.5 322.5,804.5C 313.348,805.494 304.015,805.827 294.5,805.5C 294.17,789.991 294.504,774.658 295.5,759.5 Z"/></g>
<g><path style="opacity:1" fill="#020202" d="M 295.5,759.5 C 304.5,759.5 313.5,759.5 322.5,759.5C 322.5,762.167 322.5,764.833 322.5,767.5C 316.5,767.5 310.5,767.5 304.5,767.5C 304.5,770.5 304.5,773.5 304.5,776.5C 310.5,776.5 316.5,776.5 322.5,776.5C 322.5,779.167 322.5,781.833 322.5,784.5C 316.5,784.5 310.5,784.5 304.5,784.5C 304.5,788.5 304.5,792.5 304.5,796.5C 310.5,796.5 316.5,796.5 322.5,796.5C 322.5,799.167 322.5,801.833 322.5,804.5C 313.5,804.5 304.5,804.5 295.5,804.5C 295.5,789.5 295.5,774.5 295.5,759.5 Z"/></g>
<g><path style="opacity:1" fill="#060606" d="M 345.5,804.5 C 342.5,804.5 339.5,804.5 336.5,804.5C 336.828,792.322 336.495,780.322 335.5,768.5C 332.5,768.5 329.5,768.5 326.5,768.5C 326.5,765.5 326.5,762.5 326.5,759.5C 335.833,759.5 345.167,759.5 354.5,759.5C 354.5,762.5 354.5,765.5 354.5,768.5C 351.5,768.5 348.5,768.5 345.5,768.5C 345.5,780.5 345.5,792.5 345.5,804.5 Z"/></g>
<g><path style="opacity:1" fill="#040404" d="M 408.5,767.5 C 402.5,767.5 396.5,767.5 390.5,767.5C 390.5,770.5 390.5,773.5 390.5,776.5C 396.5,776.5 402.5,776.5 408.5,776.5C 408.5,779.167 408.5,781.833 408.5,784.5C 402.5,784.5 396.5,784.5 390.5,784.5C 390.5,788.5 390.5,792.5 390.5,796.5C 396.5,796.5 402.5,796.5 408.5,796.5C 408.5,799.5 408.5,802.5 408.5,805.5C 399.5,805.5 390.5,805.5 381.5,805.5C 381.5,790.167 381.5,774.833 381.5,759.5C 390.5,759.5 399.5,759.5 408.5,759.5C 408.5,762.167 408.5,764.833 408.5,767.5 Z"/></g>
<g><path style="opacity:1" fill="#090909" d="M 447.5,787.5 C 447.783,788.289 448.283,788.956 449,789.5C 449.5,779.506 449.666,769.506 449.5,759.5C 452.5,759.5 455.5,759.5 458.5,759.5C 458.5,774.833 458.5,790.167 458.5,805.5C 455.482,805.665 452.482,805.498 449.5,805C 442.333,795.167 435.167,785.333 428,775.5C 427.5,785.494 427.334,795.494 427.5,805.5C 424.167,805.5 420.833,805.5 417.5,805.5C 417.5,790.167 417.5,774.833 417.5,759.5C 420.85,759.335 424.183,759.502 427.5,760C 433.998,769.325 440.665,778.492 447.5,787.5 Z"/></g>
<g><path style="opacity:1" fill="#9e9e9e" d="M 449.5,759.5 C 449.666,769.506 449.5,779.506 449,789.5C 448.283,788.956 447.783,788.289 447.5,787.5C 448.167,778.167 448.833,768.833 449.5,759.5 Z"/></g>
<g><path style="opacity:1" fill="#0a0a0a" d="M 481.5,777.5 C 481.217,776.711 480.717,776.044 480,775.5C 479.5,785.494 479.334,795.494 479.5,805.5C 476.5,805.5 473.5,805.5 470.5,805.5C 470.5,790.167 470.5,774.833 470.5,759.5C 473.518,759.335 476.518,759.502 479.5,760C 486.667,769.833 493.833,779.667 501,789.5C 501.5,779.506 501.666,769.506 501.5,759.5C 504.833,759.5 508.167,759.5 511.5,759.5C 511.5,774.833 511.5,790.167 511.5,805.5C 508.15,805.665 504.817,805.498 501.5,805C 495.002,795.675 488.335,786.508 481.5,777.5 Z"/></g>
<g><path style="opacity:1" fill="#232323" d="M 523.5,759.5 C 523.5,774.5 523.5,789.5 523.5,804.5C 532.5,804.5 541.5,804.5 550.5,804.5C 541.348,805.494 532.015,805.827 522.5,805.5C 522.17,789.991 522.504,774.658 523.5,759.5 Z"/></g>
<g><path style="opacity:1" fill="#040404" d="M 523.5,759.5 C 532.5,759.5 541.5,759.5 550.5,759.5C 550.5,762.167 550.5,764.833 550.5,767.5C 544.167,767.5 537.833,767.5 531.5,767.5C 531.5,770.5 531.5,773.5 531.5,776.5C 537.833,776.5 544.167,776.5 550.5,776.5C 550.5,779.167 550.5,781.833 550.5,784.5C 544.5,784.5 538.5,784.5 532.5,784.5C 532.5,788.5 532.5,792.5 532.5,796.5C 538.5,796.5 544.5,796.5 550.5,796.5C 550.5,799.167 550.5,801.833 550.5,804.5C 541.5,804.5 532.5,804.5 523.5,804.5C 523.5,789.5 523.5,774.5 523.5,759.5 Z"/></g>
<g><path style="opacity:1" fill="#393939" d="M 361.5,759.5 C 361.5,774.5 361.5,789.5 361.5,804.5C 364.167,804.5 366.833,804.5 369.5,804.5C 369.5,789.5 369.5,774.5 369.5,759.5C 370.496,774.658 370.83,789.991 370.5,805.5C 367.167,805.5 363.833,805.5 360.5,805.5C 360.17,789.991 360.504,774.658 361.5,759.5 Z"/></g>
<g><path style="opacity:1" fill="#000000" d="M 361.5,759.5 C 364.167,759.5 366.833,759.5 369.5,759.5C 369.5,774.5 369.5,789.5 369.5,804.5C 366.833,804.5 364.167,804.5 361.5,804.5C 361.5,789.5 361.5,774.5 361.5,759.5 Z"/></g>
<g><path style="opacity:1" fill="#383838" d="M 249.5,768.5 C 249.5,780.833 249.5,793.167 249.5,805.5C 245.958,805.813 242.625,805.479 239.5,804.5C 242.5,804.5 245.5,804.5 248.5,804.5C 248.172,792.322 248.505,780.322 249.5,768.5 Z"/></g>
<g><path style="opacity:1" fill="#2f2f2f" d="M 335.5,768.5 C 336.495,780.322 336.828,792.322 336.5,804.5C 339.5,804.5 342.5,804.5 345.5,804.5C 342.375,805.479 339.042,805.813 335.5,805.5C 335.5,793.167 335.5,780.833 335.5,768.5 Z"/></g>
<g><path style="opacity:1" fill="#b1b1b1" d="M 408.5,767.5 C 403.025,768.489 397.358,768.822 391.5,768.5C 391.5,770.833 391.5,773.167 391.5,775.5C 397.358,775.178 403.025,775.511 408.5,776.5C 402.5,776.5 396.5,776.5 390.5,776.5C 390.5,773.5 390.5,770.5 390.5,767.5C 396.5,767.5 402.5,767.5 408.5,767.5 Z"/></g>
<g><path style="opacity:1" fill="#a5a5a5" d="M 550.5,767.5 C 544.69,768.49 538.69,768.823 532.5,768.5C 532.5,770.833 532.5,773.167 532.5,775.5C 538.69,775.177 544.69,775.51 550.5,776.5C 544.167,776.5 537.833,776.5 531.5,776.5C 531.5,773.5 531.5,770.5 531.5,767.5C 537.833,767.5 544.167,767.5 550.5,767.5 Z"/></g>
<g><path style="opacity:1" fill="#a7a7a7" d="M 481.5,777.5 C 480.833,786.833 480.167,796.167 479.5,805.5C 479.334,795.494 479.5,785.494 480,775.5C 480.717,776.044 481.217,776.711 481.5,777.5 Z"/></g>
<g><path style="opacity:1" fill="#040404" d="M 265.5,784.5 C 271.167,784.5 276.833,784.5 282.5,784.5C 282.5,787.167 282.5,789.833 282.5,792.5C 276.833,792.5 271.167,792.5 265.5,792.5C 265.5,789.833 265.5,787.167 265.5,784.5 Z"/></g>
<g><path style="opacity:1" fill="#2e703d" d="M 272.5,821.5 C 384.333,820.334 496.333,820.167 608.5,821C 607.956,821.717 607.289,822.217 606.5,822.5C 495.335,821.501 384.001,821.167 272.5,821.5 Z"/></g>
<g><path style="opacity:1" fill="#3f9953" d="M 272.5,821.5 C 384.001,821.167 495.335,821.501 606.5,822.5C 557.986,869.122 501.653,903.622 437.5,926C 419.653,932.502 401.486,937.668 383,941.5C 326.111,927.799 273.277,904.966 224.5,873C 240.366,855.636 256.366,838.47 272.5,821.5 Z"/></g>
</svg>
