<?xml version="1.0" encoding="UTF-8"?>
<!DOCTYPE svg PUBLIC "-//W3C//DTD SVG 1.1//EN" "http://www.w3.org/Graphics/SVG/1.1/DTD/svg11.dtd">
<svg xmlns="http://www.w3.org/2000/svg" version="1.1" width="1250px" height="1250px" style="shape-rendering:geometricPrecision; text-rendering:geometricPrecision; image-rendering:optimizeQuality; fill-rule:evenodd; clip-rule:evenodd" xmlns:xlink="http://www.w3.org/1999/xlink">
<g><path style="opacity:0.982" fill="#ea0000" d="M 602.5,25.5 C 617.167,25.5 631.833,25.5 646.5,25.5C 646.325,45.6461 653.658,62.4795 668.5,76C 688.084,90.6171 708.75,92.2838 730.5,81C 737.814,74.8722 741.814,67.0389 742.5,57.5C 756.833,57.5 771.167,57.5 785.5,57.5C 777.31,80.2301 768.81,102.897 760,125.5C 756.852,138.972 755.685,152.639 756.5,166.5C 668.5,166.5 580.5,166.5 492.5,166.5C 493.315,152.639 492.148,138.972 489,125.5C 480.19,102.897 471.69,80.2301 463.5,57.5C 477.833,57.5 492.167,57.5 506.5,57.5C 509.117,75.9474 519.784,86.1141 538.5,88C 569.589,89.2559 590.089,75.0892 600,45.5C 601.942,38.9716 602.775,32.3049 602.5,25.5 Z M 623.5,84.5 C 636.138,90.1217 647.138,98.1217 656.5,108.5C 651.652,119.701 645.652,130.201 638.5,140C 629.167,142 619.833,142 610.5,140C 603.219,130.111 597.219,119.444 592.5,108C 601.883,98.7672 612.216,90.9339 623.5,84.5 Z"/></g>
<g><path style="opacity:0.982" fill="#ea0000" d="M 573.5,249.5 C 610.207,249.032 646.874,249.532 683.5,251C 699.965,255.465 710.465,265.965 715,282.5C 716.499,294.128 716.832,305.794 716,317.5C 697.839,327.246 679.839,337.246 662,347.5C 661.667,334.5 661.333,321.5 661,308.5C 658.737,302.269 654.237,298.769 647.5,298C 631.167,297.333 614.833,297.333 598.5,298C 590.78,299.386 585.947,303.886 584,311.5C 583.333,320.833 583.333,330.167 584,339.5C 584.928,345.187 587.761,349.687 592.5,353C 627.31,370.57 661.643,388.903 695.5,408C 707.426,417.683 714.259,430.183 716,445.5C 716.667,470.833 716.667,496.167 716,521.5C 712.112,542.555 699.612,555.222 678.5,559.5C 694.048,585.213 709.382,611.046 724.5,637C 712.888,654.292 699.388,670.125 684,684.5C 653.452,629.24 623.285,573.74 593.5,518C 612.5,517.667 631.5,517.333 650.5,517C 655.974,515.526 659.474,512.026 661,506.5C 661.954,490.433 661.621,474.433 660,458.5C 658.283,453.451 655.116,449.618 650.5,447C 615.323,428.468 580.656,409.135 546.5,389C 536.539,381.021 529.706,370.854 526,358.5C 524.393,337.876 524.059,317.21 525,296.5C 530.906,270.092 547.073,254.425 573.5,249.5 Z"/></g>
<g><path style="opacity:0.984" fill="#ea0000" d="M 388.5,251.5 C 403.167,251.5 417.833,251.5 432.5,251.5C 432.333,341.834 432.5,432.167 433,522.5C 437.65,570.786 453.317,615.119 480,655.5C 511.649,704.149 553.149,741.983 604.5,769C 610.918,772.194 617.585,774.694 624.5,776.5C 644.411,769.416 663.078,759.916 680.5,748C 748.135,698.999 791.969,633.832 812,552.5C 813.894,542.574 815.228,532.574 816,522.5C 816.5,432.167 816.667,341.834 816.5,251.5C 831.167,251.5 845.833,251.5 860.5,251.5C 860.667,344.167 860.5,436.834 860,529.5C 853.632,588.878 833.299,642.878 799,691.5C 762.582,743.926 715.748,784.093 658.5,812C 647.488,817.005 636.155,821.171 624.5,824.5C 580.565,810.21 541.565,787.71 507.5,757C 453.887,707.673 417.053,647.839 397,577.5C 393.036,561.717 390.37,545.717 389,529.5C 388.5,436.834 388.333,344.167 388.5,251.5 Z"/></g>
<g><path style="opacity:0.991" fill="#ea0000" d="M 580.5,427.5 C 581.666,517.666 581.832,607.999 581,698.5C 560.808,681.315 543.141,661.982 528,640.5C 527.333,579.5 527.333,518.5 528,457.5C 545.644,447.599 563.144,437.599 580.5,427.5 Z"/></g>
<g><path style="opacity:0.941" fill="#ea0000" d="M 341.5,909.5 C 359.836,909.333 378.17,909.5 396.5,910C 410.587,914.327 416.42,923.827 414,938.5C 408.462,942.185 402.629,945.185 396.5,947.5C 396.666,941.824 396.499,936.157 396,930.5C 394.833,928 393,926.167 390.5,925C 376.167,924.333 361.833,924.333 347.5,925C 345,926.167 343.167,928 342,930.5C 341.333,937.5 341.333,944.5 342,951.5C 343.892,955.058 346.725,957.558 350.5,959C 368.39,964.408 386.056,970.408 403.5,977C 411.05,980.929 415.55,987.096 417,995.5C 417.667,1006.17 417.667,1016.83 417,1027.5C 414.596,1036.24 409.096,1042.07 400.5,1045C 379.103,1045.97 357.769,1045.63 336.5,1044C 325.204,1037.3 321.204,1027.47 324.5,1014.5C 330.109,1011.53 335.776,1008.86 341.5,1006.5C 341.334,1013.51 341.5,1020.51 342,1027.5C 342.833,1028.33 343.667,1029.17 344.5,1030C 361.5,1030.67 378.5,1030.67 395.5,1030C 397.333,1029.5 398.5,1028.33 399,1026.5C 399.667,1017.17 399.667,1007.83 399,998.5C 398.215,996.714 397.049,995.214 395.5,994C 377.178,987.67 358.844,981.337 340.5,975C 331.281,971.118 325.781,964.285 324,954.5C 323.333,945.5 323.333,936.5 324,927.5C 326.683,918.318 332.517,912.318 341.5,909.5 Z"/></g>
<g><path style="opacity:0.937" fill="#ea0000" d="M 432.5,909.5 C 468.5,909.5 504.5,909.5 540.5,909.5C 539.977,914.592 538.977,919.592 537.5,924.5C 523.182,925.499 508.849,925.833 494.5,925.5C 494.5,965.5 494.5,1005.5 494.5,1045.5C 488.5,1045.5 482.5,1045.5 476.5,1045.5C 476.5,1005.5 476.5,965.5 476.5,925.5C 461.833,925.5 447.167,925.5 432.5,925.5C 432.5,920.167 432.5,914.833 432.5,909.5 Z"/></g>
<g><path style="opacity:0.95" fill="#ea0000" d="M 588.5,909.5 C 594.842,909.334 601.175,909.5 607.5,910C 609.848,910.346 611.681,911.513 613,913.5C 629.778,957.39 646.278,1001.39 662.5,1045.5C 661.667,1045.83 660.833,1046.17 660,1046.5C 654.49,1045.95 648.99,1045.28 643.5,1044.5C 638.167,1030.83 632.833,1017.17 627.5,1003.5C 607.845,1002.5 588.178,1002.17 568.5,1002.5C 563.632,1016.58 558.465,1030.58 553,1044.5C 546.924,1045.48 540.758,1045.81 534.5,1045.5C 550.164,1001.34 566.331,957.343 583,913.5C 584.812,912.023 586.645,910.69 588.5,909.5 Z M 597.5,925.5 C 598.496,925.414 599.329,925.748 600,926.5C 606.975,946.426 614.142,966.26 621.5,986C 606.156,986.833 590.822,986.666 575.5,985.5C 582.645,965.395 589.978,945.395 597.5,925.5 Z"/></g>
<g><path style="opacity:0.964" fill="#ea0000" d="M 709.5,909.5 C 725.872,909.112 742.205,909.612 758.5,911C 773.788,913.968 784.621,922.468 791,936.5C 799.641,964.508 799.641,992.508 791,1020.5C 783.007,1037.43 769.507,1046.27 750.5,1047C 729.139,1047.61 707.806,1047.11 686.5,1045.5C 686.5,1000.83 686.5,956.167 686.5,911.5C 694.333,911.063 702,910.396 709.5,909.5 Z M 715.5,934.5 C 725.839,934.334 736.172,934.5 746.5,935C 756.991,937.491 763.491,943.991 766,954.5C 769.31,970.829 769.31,987.163 766,1003.5C 763.032,1013.47 756.532,1019.64 746.5,1022C 736.172,1022.5 725.839,1022.67 715.5,1022.5C 715.5,993.167 715.5,963.833 715.5,934.5 Z"/></g>
<g><path style="opacity:0.964" fill="#ea0000" d="M 831.5,909.5 C 862.833,909.5 894.167,909.5 925.5,909.5C 925.5,917.833 925.5,926.167 925.5,934.5C 903.833,934.5 882.167,934.5 860.5,934.5C 860.5,944.167 860.5,953.833 860.5,963.5C 878.833,963.5 897.167,963.5 915.5,963.5C 914.554,971.565 913.22,979.565 911.5,987.5C 894.5,987.5 877.5,987.5 860.5,987.5C 860.5,998.5 860.5,1009.5 860.5,1020.5C 882.167,1020.5 903.833,1020.5 925.5,1020.5C 925.5,1028.83 925.5,1037.17 925.5,1045.5C 894.167,1045.5 862.833,1045.5 831.5,1045.5C 831.5,1000.17 831.5,954.833 831.5,909.5 Z"/></g>
<g><path style="opacity:0.973" fill="#ea0000" d="M 610.5,1084.5 C 612.495,1130.49 613.162,1176.82 612.5,1223.5C 603.167,1223.5 593.833,1223.5 584.5,1223.5C 584.167,1182.16 584.5,1140.83 585.5,1099.5C 594.063,1094.73 602.396,1089.73 610.5,1084.5 Z"/></g>
<g><path style="opacity:0.971" fill="#ea0000" d="M 357.5,1085.5 C 371.912,1085.15 386.245,1085.98 400.5,1088C 416.693,1091.19 425.527,1101.03 427,1117.5C 427.85,1128.54 427.517,1139.54 426,1150.5C 422.636,1163.12 414.469,1170.62 401.5,1173C 412.751,1189.35 423.084,1206.18 432.5,1223.5C 421.813,1223.83 411.146,1223.5 400.5,1222.5C 385.958,1199.25 371.292,1176.08 356.5,1153C 364.833,1152.67 373.167,1152.33 381.5,1152C 394.443,1151.72 400.443,1145.05 399.5,1132C 399.704,1124.94 397.371,1118.94 392.5,1114C 390.608,1113.03 388.608,1112.36 386.5,1112C 374.869,1110.73 363.203,1110.23 351.5,1110.5C 351.5,1148.17 351.5,1185.83 351.5,1223.5C 342.167,1223.5 332.833,1223.5 323.5,1223.5C 323.333,1178.5 323.5,1133.5 324,1088.5C 335.243,1087.23 346.41,1086.23 357.5,1085.5 Z"/></g>
<g><path style="opacity:0.965" fill="#ea0000" d="M 460.5,1086.5 C 491.833,1086.5 523.167,1086.5 554.5,1086.5C 554.5,1094.83 554.5,1103.17 554.5,1111.5C 532.5,1111.5 510.5,1111.5 488.5,1111.5C 488.5,1121.5 488.5,1131.5 488.5,1141.5C 507.179,1141.17 525.845,1141.5 544.5,1142.5C 542.765,1150.01 541.098,1157.51 539.5,1165C 522.503,1165.5 505.503,1165.67 488.5,1165.5C 488.5,1176.5 488.5,1187.5 488.5,1198.5C 510.5,1198.5 532.5,1198.5 554.5,1198.5C 554.5,1206.83 554.5,1215.17 554.5,1223.5C 523.167,1223.5 491.833,1223.5 460.5,1223.5C 460.5,1177.83 460.5,1132.17 460.5,1086.5 Z"/></g>
<g><path style="opacity:0.966" fill="#ea0000" d="M 656.5,1086.5 C 664.84,1086.33 673.173,1086.5 681.5,1087C 683.888,1087.3 686.055,1088.14 688,1089.5C 699.726,1118.68 711.059,1148.01 722,1177.5C 733.196,1148.91 744.196,1120.24 755,1091.5C 756.627,1088.6 759.127,1087.1 762.5,1087C 771.16,1086.5 779.827,1086.33 788.5,1086.5C 792.503,1132.2 796.837,1177.87 801.5,1223.5C 791.917,1223.82 782.417,1223.49 773,1222.5C 770.513,1194.81 767.847,1167.15 765,1139.5C 754.667,1165.5 744.333,1191.5 734,1217.5C 726,1218.83 718,1218.83 710,1217.5C 700.196,1191.75 690.196,1166.09 680,1140.5C 676.604,1168.01 673.771,1195.68 671.5,1223.5C 662.167,1223.5 652.833,1223.5 643.5,1223.5C 647.293,1177.77 651.627,1132.11 656.5,1086.5 Z"/></g>
<g><path style="opacity:0.962" fill="#ea0000" d="M 846.5,1087.5 C 865.836,1087.33 885.17,1087.5 904.5,1088C 919.238,1093.98 925.238,1104.81 922.5,1120.5C 914.048,1125.39 905.381,1129.73 896.5,1133.5C 896.666,1127.16 896.5,1120.82 896,1114.5C 895.5,1112.67 894.333,1111.5 892.5,1111C 880.736,1110.04 869.07,1110.38 857.5,1112C 857,1112.5 856.5,1113 856,1113.5C 855.333,1118.83 855.333,1124.17 856,1129.5C 857.109,1131.81 858.943,1133.31 861.5,1134C 876.167,1139.33 890.833,1144.67 905.5,1150C 921.56,1157.11 928.227,1169.45 925.5,1187C 928.605,1206.16 920.938,1218.16 902.5,1223C 885.167,1223.67 867.833,1223.67 850.5,1223C 832.716,1218.28 825.382,1206.78 828.5,1188.5C 837.08,1183.96 845.58,1179.29 854,1174.5C 854.333,1181.5 854.667,1188.5 855,1195.5C 855.465,1196.93 856.299,1198.1 857.5,1199C 869.833,1199.67 882.167,1199.67 894.5,1199C 895.333,1198.17 896.167,1197.33 897,1196.5C 897.667,1190.83 897.667,1185.17 897,1179.5C 896.044,1178.42 895.211,1177.25 894.5,1176C 876.339,1169.06 858.339,1161.72 840.5,1154C 830.031,1145.79 825.698,1134.95 827.5,1121.5C 825.574,1105.34 831.907,1094 846.5,1087.5 Z"/></g>
</svg>
