<?xml version="1.0" encoding="UTF-8"?>
<!DOCTYPE svg PUBLIC "-//W3C//DTD SVG 1.1//EN" "http://www.w3.org/Graphics/SVG/1.1/DTD/svg11.dtd">
<svg xmlns="http://www.w3.org/2000/svg" version="1.1" width="2500px" height="2500px" style="shape-rendering:geometricPrecision; text-rendering:geometricPrecision; image-rendering:optimizeQuality; fill-rule:evenodd; clip-rule:evenodd" xmlns:xlink="http://www.w3.org/1999/xlink">
<g><path style="opacity:0.989" fill="#fefefe" d="M 1197.5,-0.5 C 1231.83,-0.5 1266.17,-0.5 1300.5,-0.5C 1615.34,16.6342 1887.01,132.801 2115.5,348C 2352.54,581.054 2480.54,864.221 2499.5,1197.5C 2499.5,1232.17 2499.5,1266.83 2499.5,1301.5C 2481.95,1616.94 2365.45,1888.61 2150,2116.5C 1946.89,2324.48 1700.39,2448.98 1410.5,2490C 1375.41,2493.9 1340.41,2497.06 1305.5,2499.5C 1268.17,2499.5 1230.83,2499.5 1193.5,2499.5C 857.802,2479.1 573.636,2348.76 341,2108.5C 131.56,1882.59 17.7266,1614.92 -0.5,1305.5C -0.5,1268.17 -0.5,1230.83 -0.5,1193.5C 17.8163,879.663 134.316,609.33 349,382.5C 581.636,146.141 864.47,18.4742 1197.5,-0.5 Z"/></g>
<g><path style="opacity:1" fill="#02aded" d="M 2165.5,1991.5 C 2062.17,1907.83 1958.83,1824.17 1855.5,1740.5C 1943.94,1623.05 1974.1,1491.71 1946,1346.5C 1913.86,1213.97 1839.7,1112.47 1723.5,1042C 1607.49,976.831 1485.16,961.497 1356.5,996C 1265.83,1022.74 1190,1071.9 1129,1143.5C 1127.55,1145.46 1125.72,1146.8 1123.5,1147.5C 1114.02,1139.59 1104.35,1131.93 1094.5,1124.5C 1108.89,1104.52 1117.72,1082.19 1121,1057.5C 1122.42,1045.54 1123.42,1033.54 1124,1021.5C 1124.33,993.5 1124.67,965.5 1125,937.5C 1126.38,914.037 1133.71,892.704 1147,873.5C 1158.14,861.686 1170.98,852.186 1185.5,845C 1218.73,829.689 1253.39,818.689 1289.5,812C 1419.15,788.227 1544.15,802.894 1664.5,856C 1805.81,924.982 1903.31,1033.48 1957,1181.5C 1992.8,1283.87 2006.13,1389.2 1997,1497.5C 2009.03,1456.39 2018.69,1414.73 2026,1372.5C 2058.42,1135.53 1999.09,925.192 1848,741.5C 1699.58,573.209 1512.75,480.876 1287.5,464.5C 1277.73,462.749 1267.73,462.083 1257.5,462.5C 1238.16,462.333 1218.83,462.5 1199.5,463C 1194.32,463.174 1189.32,463.674 1184.5,464.5C 1129.82,467.74 1076.49,477.907 1024.5,495C 997.907,504.297 972.907,516.63 949.5,532C 916.363,556.426 897.863,589.259 894,630.5C 891.896,670.651 898.563,709.318 914,746.5C 920.608,763.048 928.275,779.048 937,794.5C 967.081,846.997 997.414,899.33 1028,951.5C 1036.07,965.65 1043.07,980.317 1049,995.5C 1050.9,1004.79 1048.9,1013.12 1043,1020.5C 1033.59,1028.91 1023.42,1029.74 1012.5,1023C 997.472,1011.98 983.639,999.479 971,985.5C 958.333,969.5 945.667,953.5 933,937.5C 921.565,924.715 908.399,914.215 893.5,906C 885.861,902.672 877.861,901.005 869.5,901C 693.167,769.333 516.833,637.667 340.5,506C 338.975,504.991 337.308,504.491 335.5,504.5C 464.316,346.538 623.316,229.371 812.5,153C 923.41,109.024 1038.41,82.5237 1157.5,73.5C 1167.02,73.3992 1176.36,72.7325 1185.5,71.5C 1480.18,58.5753 1743.85,141.409 1976.5,320C 2199.92,498.342 2342.75,727.842 2405,1008.5C 2452.69,1249.63 2429.69,1483.63 2336,1710.5C 2293.15,1810.28 2238.15,1902.28 2171,1986.5C 2169.25,1988.42 2167.42,1990.09 2165.5,1991.5 Z"/></g>
<g><path style="opacity:1" fill="#80d3f6" d="M 1185.5,71.5 C 1176.36,72.7325 1167.02,73.3992 1157.5,73.5C 1166.63,72.0116 1175.96,71.3449 1185.5,71.5 Z"/></g>
<g><path style="opacity:1" fill="#fcfefe" d="M 1188.5,185.5 C 1218.68,182.723 1238.02,195.723 1246.5,224.5C 1237.94,225.18 1229.44,225.847 1221,226.5C 1213.84,209.341 1201.67,204.507 1184.5,212C 1180.07,215.092 1177.24,219.259 1176,224.5C 1175.33,236.833 1175.33,249.167 1176,261.5C 1176.77,270.042 1178.44,278.375 1181,286.5C 1190.79,296.81 1201.96,298.31 1214.5,291C 1221.46,283.953 1224.13,275.453 1222.5,265.5C 1214.5,265.5 1206.5,265.5 1198.5,265.5C 1198.5,258.5 1198.5,251.5 1198.5,244.5C 1214.82,243.602 1231.16,242.935 1247.5,242.5C 1247.48,250.846 1247.81,259.179 1248.5,267.5C 1247.25,299.918 1230.41,316.918 1198,318.5C 1168.59,316.088 1152.92,300.088 1151,270.5C 1149.83,254.846 1149.49,239.179 1150,223.5C 1154.76,202.571 1167.6,189.904 1188.5,185.5 Z"/></g>
<g><path style="opacity:1" fill="#fcfefe" d="M 1354.5,191.5 C 1374.05,188.74 1390.88,194.073 1405,207.5C 1411.62,216.401 1415.12,226.401 1415.5,237.5C 1406.83,236.833 1398.17,236.167 1389.5,235.5C 1386.69,218.196 1376.69,211.362 1359.5,215C 1352.42,218.413 1347.92,223.913 1346,231.5C 1341.92,249.294 1340.58,267.294 1342,285.5C 1345.03,295.702 1351.87,300.702 1362.5,300.5C 1372.66,300.689 1379.66,296.022 1383.5,286.5C 1392.26,285.51 1400.93,286.177 1409.5,288.5C 1399.42,317.049 1379.42,328.216 1349.5,322C 1326.92,315.25 1315.58,300.083 1315.5,276.5C 1316.18,259.027 1318.02,241.694 1321,224.5C 1326.42,207.563 1337.58,196.563 1354.5,191.5 Z"/></g>
<g><path style="opacity:1" fill="#fdfefe" d="M 1105.5,193.5 C 1106.5,193.5 1107.5,193.5 1108.5,193.5C 1116.16,236.153 1123.83,278.82 1131.5,321.5C 1123.88,323.26 1116.21,324.427 1108.5,325C 1087.33,302.5 1066.17,280 1045,257.5C 1048.42,283.327 1052.92,308.994 1058.5,334.5C 1049.92,336.682 1041.25,338.349 1032.5,339.5C 1025.33,296.491 1018,253.491 1010.5,210.5C 1017.87,209.653 1025.2,208.819 1032.5,208C 1053.68,230.678 1075.01,253.178 1096.5,275.5C 1096.83,275.167 1097.17,274.833 1097.5,274.5C 1092.58,248.882 1087.91,223.216 1083.5,197.5C 1090.96,196.248 1098.3,194.914 1105.5,193.5 Z"/></g>
<g><path style="opacity:1" fill="#fcfefe" d="M 1452.5,204.5 C 1460.79,206.292 1469.13,207.958 1477.5,209.5C 1469.5,244.832 1461.5,280.166 1453.5,315.5C 1472.41,319.977 1491.41,323.977 1510.5,327.5C 1509.01,335.138 1507.67,342.804 1506.5,350.5C 1478.93,344.4 1451.43,338.067 1424,331.5C 1433.01,289.108 1442.51,246.774 1452.5,204.5 Z"/></g>
<g><path style="opacity:1" fill="#fcfefe" d="M 968.5,222.5 C 969.675,222.281 970.675,222.614 971.5,223.5C 983.483,263.945 995.15,304.445 1006.5,345C 1006.25,346.326 1005.58,347.326 1004.5,348C 997.499,350.231 990.499,352.398 983.5,354.5C 970.892,313.343 958.892,272.009 947.5,230.5C 947.818,229.353 948.484,228.519 949.5,228C 955.93,226.096 962.263,224.262 968.5,222.5 Z"/></g>
<g><path style="opacity:1" fill="#fcfefe" d="M 1557.5,230.5 C 1565.9,232.463 1573.9,235.297 1581.5,239C 1570.79,268.624 1560.79,298.457 1551.5,328.5C 1556.38,347.273 1568.04,353.44 1586.5,347C 1591.55,343.285 1595.05,338.452 1597,332.5C 1605.62,305.803 1615.12,279.469 1625.5,253.5C 1633.17,256.333 1640.83,259.167 1648.5,262C 1637.93,292.702 1626.77,323.202 1615,353.5C 1602.46,369.776 1585.96,375.943 1565.5,372C 1536.54,363.578 1524.04,344.411 1528,314.5C 1537.74,286.439 1547.58,258.439 1557.5,230.5 Z"/></g>
<g><path style="opacity:1" fill="#fcfefe" d="M 882.5,249.5 C 902.936,247.97 918.77,255.636 930,272.5C 930.483,273.448 930.649,274.448 930.5,275.5C 922.852,278.161 915.185,280.827 907.5,283.5C 903.956,279.793 899.956,276.626 895.5,274C 881.187,270.904 871.354,276.071 866,289.5C 866.431,299.409 868.431,309.075 872,318.5C 875.667,327.167 879.333,335.833 883,344.5C 890.673,358.062 901.506,361.228 915.5,354C 922.68,347.639 926.346,339.639 926.5,330C 933.984,327.419 941.318,324.586 948.5,321.5C 953.341,352.309 940.674,371.809 910.5,380C 884.708,383.69 866.874,373.523 857,349.5C 852.137,337.244 847.47,324.911 843,312.5C 836.05,289.771 842.217,271.604 861.5,258C 868.417,254.701 875.417,251.868 882.5,249.5 Z"/></g>
<g><path style="opacity:1" fill="#fdfefe" d="M 1686.5,278.5 C 1705.58,287.207 1724.25,296.707 1742.5,307C 1759.72,321.479 1762.22,338.312 1750,357.5C 1743.95,364.276 1736.45,368.61 1727.5,370.5C 1733.82,379.517 1734.98,389.184 1731,399.5C 1720.61,422.418 1703.45,429.584 1679.5,421C 1662.99,412.245 1646.32,403.745 1629.5,395.5C 1629.17,394.833 1628.83,394.167 1628.5,393.5C 1647.57,355.021 1666.91,316.688 1686.5,278.5 Z"/></g>
<g><path style="opacity:1" fill="#fdfefe" d="M 762.5,302.5 C 765.14,302.954 767.473,304.121 769.5,306C 802.01,335.678 834.343,365.511 866.5,395.5C 859.329,399.679 851.996,403.679 844.5,407.5C 838.174,402.34 832.008,397.007 826,391.5C 812.081,398.207 798.581,405.54 785.5,413.5C 787.88,421.385 788.547,429.385 787.5,437.5C 780.342,440.912 773.342,444.578 766.5,448.5C 759.591,403.777 753.257,358.944 747.5,314C 747.833,312.833 748.167,311.667 748.5,310.5C 753.229,307.806 757.896,305.14 762.5,302.5 Z"/></g>
<g><path style="opacity:1" fill="#12aeee" d="M 1698.5,310.5 C 1710.32,314.322 1720.82,320.322 1730,328.5C 1732.73,338.217 1729.56,345.383 1720.5,350C 1718.17,350.667 1715.83,350.667 1713.5,350C 1704.5,346.501 1695.83,342.334 1687.5,337.5C 1686.39,336.277 1686.22,334.944 1687,333.5C 1690.85,325.807 1694.68,318.14 1698.5,310.5 Z"/></g>
<g><path style="opacity:1" fill="#13aeee" d="M 774.5,341.5 C 786.475,352.14 798.141,363.14 809.5,374.5C 801.019,380.245 792.019,385.245 782.5,389.5C 779.552,373.531 776.886,357.531 774.5,341.5 Z"/></g>
<g><path style="opacity:1" fill="#0dadee" d="M 1674.5,357.5 C 1683.93,361.716 1693.27,366.216 1702.5,371C 1708.22,375.884 1710.05,382.05 1708,389.5C 1703.81,398.177 1696.98,401.343 1687.5,399C 1678.89,395.361 1670.55,391.194 1662.5,386.5C 1661.42,385.635 1661.25,384.635 1662,383.5C 1666.45,374.933 1670.62,366.267 1674.5,357.5 Z"/></g>
<g><path style="opacity:1" fill="#fdfefe" d="M 670.5,361.5 C 690.374,361.346 704.207,370.346 712,388.5C 714.978,399.856 713.478,410.523 707.5,420.5C 707.709,421.086 708.043,421.586 708.5,422C 726.818,431.158 744.818,440.825 762.5,451C 754.674,456.747 746.674,462.247 738.5,467.5C 721.833,458.167 705.167,448.833 688.5,439.5C 683.15,442.508 678.15,446.008 673.5,450C 683.537,463.907 693.204,478.073 702.5,492.5C 696.11,497.556 689.443,502.223 682.5,506.5C 680.443,504.731 678.61,502.731 677,500.5C 654.223,466.725 631.057,433.225 607.5,400C 622.992,388.754 638.658,377.754 654.5,367C 659.835,364.834 665.168,363.001 670.5,361.5 Z"/></g>
<g><path style="opacity:1" fill="#fdfefe" d="M 1843.5,365.5 C 1860.07,377.234 1876.24,389.567 1892,402.5C 1901.83,415.866 1904.16,430.533 1899,446.5C 1888.06,466.539 1874.56,484.706 1858.5,501C 1840.63,511.285 1822.96,510.952 1805.5,500C 1792.5,490.167 1779.5,480.333 1766.5,470.5C 1791.93,435.293 1817.6,400.293 1843.5,365.5 Z"/></g>
<g><path style="opacity:1" fill="#0eadee" d="M 667.5,386.5 C 677.679,385.172 684.846,389.172 689,398.5C 690.292,406.422 687.792,412.922 681.5,418C 674.97,422.696 668.303,427.196 661.5,431.5C 654.599,422.759 648.266,413.592 642.5,404C 650.462,397.522 658.796,391.688 667.5,386.5 Z"/></g>
<g><path style="opacity:1" fill="#0aadee" d="M 1850.5,399.5 C 1858.39,404.542 1865.89,410.208 1873,416.5C 1876.33,422.418 1877.33,428.751 1876,435.5C 1866.76,451.486 1855.92,466.32 1843.5,480C 1837.8,484.129 1831.47,485.462 1824.5,484C 1816.33,478.747 1808.33,473.247 1800.5,467.5C 1817.18,444.804 1833.84,422.137 1850.5,399.5 Z"/></g>
<g><path style="opacity:1" fill="#fcfefe" d="M 1948.5,446.5 C 1969.66,465.498 1990.33,484.998 2010.5,505C 2006.41,511.262 2001.41,516.762 1995.5,521.5C 1980.85,508.016 1966.35,494.35 1952,480.5C 1944.62,487.382 1937.78,494.715 1931.5,502.5C 1943.16,513.988 1954.99,525.321 1967,536.5C 1967.67,537.5 1967.67,538.5 1967,539.5C 1962.15,544.048 1957.65,548.881 1953.5,554C 1952.83,554.667 1952.17,554.667 1951.5,554C 1939.32,542.655 1927.32,531.155 1915.5,519.5C 1908.88,526.626 1902.04,533.626 1895,540.5C 1894.33,541.5 1894.33,542.5 1895,543.5C 1909.17,557 1923.33,570.5 1937.5,584C 1932.68,589.786 1927.51,595.286 1922,600.5C 1900.99,580.988 1880.16,561.322 1859.5,541.5C 1888.82,509.511 1918.49,477.845 1948.5,446.5 Z"/></g>
<g><path style="opacity:1" fill="#0074a0" d="M 1257.5,463.5 C 1257.5,463.167 1257.5,462.833 1257.5,462.5C 1267.73,462.083 1277.73,462.749 1287.5,464.5C 1277.51,463.945 1267.51,463.612 1257.5,463.5 Z"/></g>
<g><path style="opacity:1" fill="#023549" d="M 1257.5,462.5 C 1257.5,462.833 1257.5,463.167 1257.5,463.5C 1233.16,463.418 1208.83,463.752 1184.5,464.5C 1189.32,463.674 1194.32,463.174 1199.5,463C 1218.83,462.5 1238.16,462.333 1257.5,462.5 Z"/></g>
<g><path style="opacity:1" fill="#060607" d="M 1257.5,463.5 C 1267.51,463.612 1277.51,463.945 1287.5,464.5C 1512.75,480.876 1699.58,573.209 1848,741.5C 1999.09,925.192 2058.42,1135.53 2026,1372.5C 2018.69,1414.73 2009.03,1456.39 1997,1497.5C 2006.13,1389.2 1992.8,1283.87 1957,1181.5C 1903.31,1033.48 1805.81,924.982 1664.5,856C 1544.15,802.894 1419.15,788.227 1289.5,812C 1253.39,818.689 1218.73,829.689 1185.5,845C 1170.98,852.186 1158.14,861.686 1147,873.5C 1133.71,892.704 1126.38,914.037 1125,937.5C 1124.67,965.5 1124.33,993.5 1124,1021.5C 1123.42,1033.54 1122.42,1045.54 1121,1057.5C 1117.72,1082.19 1108.89,1104.52 1094.5,1124.5C 1080.12,1140.69 1062.78,1152.86 1042.5,1161C 1035.16,1163.67 1027.82,1166.34 1020.5,1169C 986.066,1176.62 951.732,1184.62 917.5,1193C 893.793,1199.59 873.959,1212.09 858,1230.5C 844.674,1252.65 836.841,1276.65 834.5,1302.5C 833.111,1307.27 832.444,1312.27 832.5,1317.5C 822.038,1463.66 857.205,1597.66 938,1719.5C 1018.26,1833.1 1126.09,1907.27 1261.5,1942C 1346.93,1962.51 1433.27,1967.17 1520.5,1956C 1536.88,1953.55 1553.22,1950.88 1569.5,1948C 1596.54,1941.2 1623.54,1934.53 1650.5,1928C 1625.8,1940.35 1601.14,1952.68 1576.5,1965C 1511.1,1993.85 1443.1,2014.02 1372.5,2025.5C 1365.96,2026.05 1359.63,2027.05 1353.5,2028.5C 1327.72,2031.23 1302.06,2033.56 1276.5,2035.5C 1040.86,2038.28 841.356,1955.61 678,1787.5C 572.554,1672.62 504.054,1538.28 472.5,1384.5C 473.097,1384.26 473.43,1383.76 473.5,1383C 462.103,1323.3 458.603,1263.14 463,1202.5C 465.798,1173.92 471.464,1145.92 480,1118.5C 497.683,1069.2 532.183,1038.7 583.5,1027C 607.201,1021.79 631.201,1020.12 655.5,1022C 687.812,1025.66 719.479,1032.33 750.5,1042C 808.313,1061.6 866.313,1080.6 924.5,1099C 935.975,1102.44 947.642,1104.94 959.5,1106.5C 972.521,1105.91 981.355,1099.58 986,1087.5C 987.21,1079.59 985.21,1072.59 980,1066.5C 963.002,1050.75 944.169,1037.58 923.5,1027C 898.468,1016.79 875.135,1003.79 853.5,988C 841.229,978.445 833.562,966.111 830.5,951C 667.021,807.431 503.354,664.098 339.5,521C 335.893,517.902 332.893,514.402 330.5,510.5C 331.443,507.891 333.11,505.891 335.5,504.5C 337.308,504.491 338.975,504.991 340.5,506C 516.833,637.667 693.167,769.333 869.5,901C 877.861,901.005 885.861,902.672 893.5,906C 908.399,914.215 921.565,924.715 933,937.5C 945.667,953.5 958.333,969.5 971,985.5C 983.639,999.479 997.472,1011.98 1012.5,1023C 1023.42,1029.74 1033.59,1028.91 1043,1020.5C 1048.9,1013.12 1050.9,1004.79 1049,995.5C 1043.07,980.317 1036.07,965.65 1028,951.5C 997.414,899.33 967.081,846.997 937,794.5C 928.275,779.048 920.608,763.048 914,746.5C 898.563,709.318 891.896,670.651 894,630.5C 897.863,589.259 916.363,556.426 949.5,532C 972.907,516.63 997.907,504.297 1024.5,495C 1076.49,477.907 1129.82,467.74 1184.5,464.5C 1208.83,463.752 1233.16,463.418 1257.5,463.5 Z"/></g>
<g><path style="opacity:1" fill="#fefefe" d="M 1333.5,479.5 C 1338.27,480.889 1343.27,481.556 1348.5,481.5C 1539.85,510.074 1700.35,595.408 1830,737.5C 1929.71,851.951 1991.54,984.618 2015.5,1135.5C 2015.12,1139.49 2015.78,1143.16 2017.5,1146.5C 2019.33,1160.45 2020.66,1174.45 2021.5,1188.5C 2021.33,1199.7 2022,1210.7 2023.5,1221.5C 2025.97,1280.56 2021.47,1339.23 2010,1397.5C 2005.65,1286.47 1977.31,1182.14 1925,1084.5C 1831.49,924.085 1692.66,828.585 1508.5,798C 1414.85,783.237 1322.52,788.904 1231.5,815C 1205.29,823.109 1180.62,834.442 1157.5,849C 1134.97,865.873 1121.47,888.373 1117,916.5C 1115.23,928.451 1113.89,940.451 1113,952.5C 1112.67,981.833 1112.33,1011.17 1112,1040.5C 1110.78,1069.84 1101.44,1096.18 1084,1119.5C 1066.91,1137.47 1046.41,1149.97 1022.5,1157C 1011.08,1159.69 999.748,1162.69 988.5,1166C 957.098,1170.85 926.431,1178.52 896.5,1189C 860.612,1203.55 838.446,1229.72 830,1267.5C 820.58,1308.29 816.913,1349.62 819,1391.5C 825.462,1524.58 868.129,1644.25 947,1750.5C 1039.67,1867.01 1159.84,1937.85 1307.5,1963C 1316.13,1964.5 1324.8,1965.66 1333.5,1966.5C 1338.25,1968.03 1343.25,1968.7 1348.5,1968.5C 1416.83,1975.71 1484.83,1973.38 1552.5,1961.5C 1554.37,1961.48 1554.71,1961.98 1553.5,1963C 1346.31,2046.84 1139.98,2044.84 934.5,1957C 742.907,1867.08 607.074,1724.24 527,1528.5C 488.286,1431.22 469.953,1330.22 472,1225.5C 473.158,1191.38 478.825,1158.05 489,1125.5C 506.696,1075.21 541.863,1045.38 594.5,1036C 617.731,1032.21 641.064,1031.55 664.5,1034C 692.032,1037.63 719.032,1043.63 745.5,1052C 792.678,1067.84 840.012,1083.5 887.5,1099C 904.371,1104.4 921.371,1109.4 938.5,1114C 958.679,1121.74 976.179,1117.91 991,1102.5C 999.938,1088.62 999.604,1074.95 990,1061.5C 979.665,1050.49 968.165,1040.99 955.5,1033C 944.663,1026.41 933.663,1020.08 922.5,1014C 898.1,1004.31 875.766,991.308 855.5,975C 836.025,955.007 837.025,936.007 858.5,918C 866.14,912.534 874.473,911.201 883.5,914C 892.452,917.139 900.452,921.806 907.5,928C 924.917,944.071 940.084,961.904 953,981.5C 965.467,996.3 978.967,1010.13 993.5,1023C 1001.25,1029.54 1009.92,1034.54 1019.5,1038C 1041.97,1040.51 1055.47,1030.68 1060,1008.5C 1060.5,1004.51 1060.67,1000.51 1060.5,996.5C 1060.59,993.848 1059.92,991.515 1058.5,989.5C 1053.42,976.006 1047.25,963.006 1040,950.5C 1011,900.5 982,850.5 953,800.5C 931.517,765.051 916.517,727.051 908,686.5C 906.947,679.517 906.114,672.517 905.5,665.5C 905.463,652.488 905.797,639.488 906.5,626.5C 910.066,593.193 924.733,566.026 950.5,545C 969.658,531.084 990.325,519.751 1012.5,511C 1065.14,491.56 1119.47,480.06 1175.5,476.5C 1185.35,476.364 1195.02,475.698 1204.5,474.5C 1247.51,472.14 1290.51,473.807 1333.5,479.5 Z"/></g>
<g><path style="opacity:1" fill="#b1b1b1" d="M 1204.5,474.5 C 1195.02,475.698 1185.35,476.364 1175.5,476.5C 1184.96,474.981 1194.63,474.315 1204.5,474.5 Z"/></g>
<g><path style="opacity:1" fill="#494949" d="M 1333.5,479.5 C 1338.75,479.302 1343.75,479.969 1348.5,481.5C 1343.27,481.556 1338.27,480.889 1333.5,479.5 Z"/></g>
<g><path style="opacity:1" fill="#e1383d" d="M 330.5,510.5 C 332.893,514.402 335.893,517.902 339.5,521C 503.354,664.098 667.021,807.431 830.5,951C 833.562,966.111 841.229,978.445 853.5,988C 875.135,1003.79 898.468,1016.79 923.5,1027C 944.169,1037.58 963.002,1050.75 980,1066.5C 985.21,1072.59 987.21,1079.59 986,1087.5C 981.355,1099.58 972.521,1105.91 959.5,1106.5C 947.642,1104.94 935.975,1102.44 924.5,1099C 866.313,1080.6 808.313,1061.6 750.5,1042C 719.479,1032.33 687.812,1025.66 655.5,1022C 631.201,1020.12 607.201,1021.79 583.5,1027C 532.183,1038.7 497.683,1069.2 480,1118.5C 471.464,1145.92 465.798,1173.92 463,1202.5C 458.603,1263.14 462.103,1323.3 473.5,1383C 473.43,1383.76 473.097,1384.26 472.5,1384.5C 342.65,1279.74 212.983,1174.74 83.5,1069.5C 116.598,860.679 198.931,674.346 330.5,510.5 Z"/></g>
<g><path style="opacity:1" fill="#fcfefe" d="M 2048.5,577.5 C 2070.11,576.722 2086.28,585.722 2097,604.5C 2104.08,615.136 2106.91,626.803 2105.5,639.5C 2098.15,638.998 2090.82,638.331 2083.5,637.5C 2083.15,623.972 2077.82,612.805 2067.5,604C 2058.03,599.245 2050.2,601.079 2044,609.5C 2043.33,612.833 2043.33,616.167 2044,619.5C 2050.45,630.738 2056.12,642.404 2061,654.5C 2063.02,671.297 2056.85,684.13 2042.5,693C 2025.16,701.871 2009.16,699.871 1994.5,687C 1977.25,671.323 1968.58,651.823 1968.5,628.5C 1976.47,629.449 1984.47,630.115 1992.5,630.5C 1992.56,649.453 2000.56,663.953 2016.5,674C 2029.85,674.987 2036.35,668.82 2036,655.5C 2028.39,643.611 2022.39,630.945 2018,617.5C 2016.57,604.52 2021.07,594.02 2031.5,586C 2036.71,582.061 2042.38,579.227 2048.5,577.5 Z"/></g>
<g><path style="opacity:1" fill="#c5c5c5" d="M 472.5,619.5 C 471.833,619.5 471.167,619.5 470.5,619.5C 463.77,614.948 457.436,609.781 451.5,604C 451.833,603.833 452.167,603.667 452.5,603.5C 459.499,608.507 466.165,613.841 472.5,619.5 Z"/></g>
<g><path style="opacity:1" fill="#fafafa" d="M 470.5,619.5 C 471.167,619.5 471.833,619.5 472.5,619.5C 600.905,714.398 728.905,809.898 856.5,906C 845.444,913.894 837.111,924.06 831.5,936.5C 721.981,840.48 612.315,744.647 502.5,649C 491.937,638.933 481.271,629.099 470.5,619.5 Z"/></g>
<g><path style="opacity:1" fill="#969696" d="M 906.5,626.5 C 905.797,639.488 905.463,652.488 905.5,665.5C 904.834,660.678 904.501,655.678 904.5,650.5C 904.366,642.282 905.033,634.282 906.5,626.5 Z"/></g>
<g><path style="opacity:1" fill="#fcfefe" d="M 2131.5,654.5 C 2132.5,654.414 2133.33,654.748 2134,655.5C 2149.71,681.766 2165.55,707.933 2181.5,734C 2175.62,738.528 2169.46,742.694 2163,746.5C 2156.83,736.833 2150.67,727.167 2144.5,717.5C 2114.13,736.365 2083.63,755.032 2053,773.5C 2048.5,766.5 2044,759.5 2039.5,752.5C 2069.27,733.239 2099.44,714.572 2130,696.5C 2130.52,694.711 2130.19,693.044 2129,691.5C 2123.78,683.565 2118.95,675.398 2114.5,667C 2118.07,663.87 2122.07,661.203 2126.5,659C 2128.62,657.951 2130.28,656.451 2131.5,654.5 Z"/></g>
<g><path style="opacity:1" fill="#fdfefe" d="M 2195.5,763.5 C 2197.43,764.642 2198.93,766.308 2200,768.5C 2208.44,785.837 2216.11,803.503 2223,821.5C 2224.6,849.24 2211.6,864.906 2184,868.5C 2174.45,868.096 2166.11,864.762 2159,858.5C 2146.02,874.814 2133.02,891.147 2120,907.5C 2115.96,898.591 2111.8,889.758 2107.5,881C 2119.33,866.5 2131.17,852 2143,837.5C 2143.67,836.167 2143.67,834.833 2143,833.5C 2140.87,828.913 2139.04,824.247 2137.5,819.5C 2121.64,826.345 2105.81,833.345 2090,840.5C 2085.91,833.321 2082.08,825.987 2078.5,818.5C 2078.83,818.167 2079.17,817.833 2079.5,817.5C 2118.5,799.998 2157.16,781.998 2195.5,763.5 Z"/></g>
<g><path style="opacity:1" fill="#12aeee" d="M 2184.5,796.5 C 2185.82,796.33 2186.99,796.663 2188,797.5C 2190.73,803.954 2193.73,810.288 2197,816.5C 2201.56,827.157 2199.06,835.657 2189.5,842C 2178.8,845.899 2170.97,842.732 2166,832.5C 2162.7,825.392 2159.53,818.225 2156.5,811C 2165.71,805.895 2175.04,801.062 2184.5,796.5 Z"/></g>
<g><path style="opacity:1" fill="#fcfefe" d="M 2121.5,910.5 C 2167.84,912.167 2214.18,914.167 2260.5,916.5C 2263.08,922.736 2264.92,929.07 2266,935.5C 2229.98,963.691 2193.81,991.691 2157.5,1019.5C 2154.12,1011.69 2151.12,1003.69 2148.5,995.5C 2154.19,990.482 2160.19,985.815 2166.5,981.5C 2166.83,980.667 2167.17,979.833 2167.5,979C 2162.93,964.886 2158.6,950.719 2154.5,936.5C 2146.17,936.5 2137.83,936.5 2129.5,936.5C 2127.03,927.763 2124.37,919.096 2121.5,910.5 Z"/></g>
<g><path style="opacity:1" fill="#15aeee" d="M 2176.5,936.5 C 2192.84,936.974 2209.17,937.641 2225.5,938.5C 2213.11,948.219 2200.45,957.553 2187.5,966.5C 2186.67,965.5 2185.83,964.5 2185,963.5C 2182.66,954.312 2179.83,945.312 2176.5,936.5 Z"/></g>
<g><path style="opacity:1" fill="#060505" d="M 1855.5,1740.5 C 1743.61,1872.77 1600.95,1930.94 1427.5,1915C 1269.47,1890.58 1150.97,1809.08 1072,1670.5C 1015.1,1559.51 1002.1,1443.51 1033,1322.5C 1051.59,1258.14 1082.09,1200.31 1124.5,1149C 1123.94,1148.62 1123.61,1148.12 1123.5,1147.5C 1125.72,1146.8 1127.55,1145.46 1129,1143.5C 1190,1071.9 1265.83,1022.74 1356.5,996C 1485.16,961.497 1607.49,976.831 1723.5,1042C 1839.7,1112.47 1913.86,1213.97 1946,1346.5C 1974.1,1491.71 1943.94,1623.05 1855.5,1740.5 Z"/></g>
<g><path style="opacity:1" fill="#fefefe" d="M 1940.5,1395.5 C 1940.33,1399.18 1940.5,1402.85 1941,1406.5C 1941.23,1407.74 1941.73,1408.74 1942.5,1409.5C 1951.08,1559.41 1901.08,1685.58 1792.5,1788C 1690.26,1876.88 1571.26,1915.22 1435.5,1903C 1285.71,1882.06 1171.21,1807.56 1092,1679.5C 1042.68,1593.59 1022.51,1501.26 1031.5,1402.5C 1033.03,1397.75 1033.7,1392.75 1033.5,1387.5C 1053.34,1256.26 1116.68,1151.76 1223.5,1074C 1347.19,990.667 1480.85,970 1624.5,1012C 1743.87,1052.03 1833.37,1127.53 1893,1238.5C 1918.62,1287.86 1934.45,1340.19 1940.5,1395.5 Z"/></g>
<g><path style="opacity:1" fill="#5f5f5f" d="M 1058.5,989.5 C 1059.92,991.515 1060.59,993.848 1060.5,996.5C 1059.08,994.485 1058.41,992.152 1058.5,989.5 Z"/></g>
<g><path style="opacity:1" fill="#fcfefe" d="M 2248.5,1007.5 C 2273.94,1006.64 2289.44,1018.64 2295,1043.5C 2298.33,1059.2 2296.49,1074.2 2289.5,1088.5C 2288.64,1089.58 2287.64,1089.75 2286.5,1089C 2280.66,1085.25 2274.99,1081.25 2269.5,1077C 2276.22,1064.13 2276.06,1051.29 2269,1038.5C 2262.75,1031.99 2255.58,1030.82 2247.5,1035C 2245.38,1036.73 2243.88,1038.9 2243,1041.5C 2242.67,1055.17 2242.33,1068.83 2242,1082.5C 2237.62,1097.88 2227.45,1106.38 2211.5,1108C 2194.3,1110.47 2181.13,1104.3 2172,1089.5C 2162.18,1069.92 2160.18,1049.58 2166,1028.5C 2167.43,1024.62 2169.6,1021.28 2172.5,1018.5C 2179.11,1022.44 2185.44,1026.78 2191.5,1031.5C 2187.18,1037.64 2185.18,1044.47 2185.5,1052C 2184.65,1064.32 2188.65,1074.66 2197.5,1083C 2203.06,1084.01 2208.4,1083.34 2213.5,1081C 2215.81,1079.36 2217.31,1077.2 2218,1074.5C 2218.33,1061.17 2218.67,1047.83 2219,1034.5C 2220.89,1025.86 2225.39,1019.03 2232.5,1014C 2237.87,1011.65 2243.21,1009.48 2248.5,1007.5 Z"/></g>
<g><path style="opacity:1" fill="#01aded" d="M 83.5,1069.5 C 212.983,1174.74 342.65,1279.74 472.5,1384.5C 504.054,1538.28 572.554,1672.62 678,1787.5C 841.356,1955.61 1040.86,2038.28 1276.5,2035.5C 1407.02,2140.93 1537.35,2246.59 1667.5,2352.5C 1541.54,2400.81 1410.87,2426.31 1275.5,2429C 1017.04,2432.82 782.037,2361.49 570.5,2215C 337.341,2047.34 182.841,1824.51 107,1546.5C 72.739,1410.39 62.0724,1272.39 75,1132.5C 77.0469,1111.34 79.8802,1090.34 83.5,1069.5 Z"/></g>
<g><path style="opacity:1" fill="#02549e" d="M 1640.5,1339.5 C 1640.32,1326.78 1640.99,1314.12 1642.5,1301.5C 1647.73,1272.78 1662.4,1250.28 1686.5,1234C 1725.49,1210.36 1765.49,1208.36 1806.5,1228C 1832.06,1245.26 1849.23,1268.76 1858,1298.5C 1865.28,1337.23 1849.78,1352.06 1811.5,1343C 1807.08,1340.59 1803.25,1337.42 1800,1333.5C 1796.15,1324.96 1792.48,1316.29 1789,1307.5C 1782.53,1299.52 1774.7,1293.36 1765.5,1289C 1743.47,1283.36 1727.63,1290.86 1718,1311.5C 1711.6,1329.15 1714.1,1345.32 1725.5,1360C 1730.22,1364.03 1735.55,1367.03 1741.5,1369C 1767.59,1374.6 1793.25,1381.6 1818.5,1390C 1835.17,1396.5 1850.84,1404.84 1865.5,1415C 1886.88,1434.24 1900.72,1458.08 1907,1486.5C 1917.7,1553.99 1895.2,1607.16 1839.5,1646C 1805.46,1665.87 1768.79,1672.87 1729.5,1667C 1685.71,1660.21 1653.21,1637.38 1632,1598.5C 1619.25,1572.92 1610.92,1545.92 1607,1517.5C 1598.79,1514.49 1590.29,1512.83 1581.5,1512.5C 1577.68,1511.83 1573.68,1511.5 1569.5,1511.5C 1563.26,1511.33 1557.26,1512 1551.5,1513.5C 1522.15,1518.09 1496.98,1530.76 1476,1551.5C 1452.96,1578.99 1444.29,1610.65 1450,1646.5C 1457.27,1701.43 1488.1,1733.93 1542.5,1744C 1597.5,1744.33 1652.5,1744.67 1707.5,1745C 1732.98,1753.45 1741.14,1770.28 1732,1795.5C 1726.18,1804.64 1718.01,1810.81 1707.5,1814C 1648.83,1814.67 1590.17,1814.67 1531.5,1814C 1476.65,1801.8 1433.82,1772.3 1403,1725.5C 1385.42,1696.32 1375.92,1664.65 1374.5,1630.5C 1374.29,1619.47 1374.62,1608.47 1375.5,1597.5C 1380.77,1548.78 1402.77,1509.61 1441.5,1480C 1466.39,1461.14 1494.05,1447.8 1524.5,1440C 1469.17,1398 1413.83,1356 1358.5,1314C 1337.14,1296.13 1334.97,1276.3 1352,1254.5C 1355.94,1250.78 1360.44,1247.95 1365.5,1246C 1409.5,1245.67 1453.5,1245.33 1497.5,1245C 1523.29,1237.53 1535.46,1220.37 1534,1193.5C 1530.13,1175.81 1519.63,1164.47 1502.5,1159.5C 1441.34,1158.5 1380,1158.17 1318.5,1158.5C 1318.5,1261.83 1318.5,1365.17 1318.5,1468.5C 1312.33,1484.84 1300.83,1494.84 1284,1498.5C 1263.02,1496.85 1250.02,1485.85 1245,1465.5C 1244.33,1348.5 1244.33,1231.5 1245,1114.5C 1247.4,1102.11 1254.23,1093.28 1265.5,1088C 1337.5,1087.33 1409.5,1087.33 1481.5,1088C 1512.71,1090.84 1541.04,1101.18 1566.5,1119C 1597.25,1144.54 1610.42,1177.38 1606,1217.5C 1598.33,1271.51 1567.83,1305.01 1514.5,1318C 1506.17,1319.57 1497.84,1321.07 1489.5,1322.5C 1534.85,1361.67 1581.51,1399.17 1629.5,1435C 1646.43,1449.58 1659.93,1466.75 1670,1486.5C 1675.78,1511.08 1682.45,1535.42 1690,1559.5C 1700.28,1579.74 1716.78,1591.24 1739.5,1594C 1771.69,1598.38 1799.19,1589.21 1822,1566.5C 1837.61,1548.02 1842.28,1527.02 1836,1503.5C 1825.68,1477.85 1807.18,1461.35 1780.5,1454C 1750.47,1449.21 1721.8,1440.21 1694.5,1427C 1660.6,1407.7 1642.6,1378.54 1640.5,1339.5 Z"/></g>
<g><path style="opacity:1" fill="#e1373d" d="M 1094.5,1124.5 C 1104.35,1131.93 1114.02,1139.59 1123.5,1147.5C 1123.61,1148.12 1123.94,1148.62 1124.5,1149C 1082.09,1200.31 1051.59,1258.14 1033,1322.5C 1002.1,1443.51 1015.1,1559.51 1072,1670.5C 1150.97,1809.08 1269.47,1890.58 1427.5,1915C 1600.95,1930.94 1743.61,1872.77 1855.5,1740.5C 1958.83,1824.17 2062.17,1907.83 2165.5,1991.5C 2130.65,2035.87 2092.32,2077.37 2050.5,2116C 1938.32,2219.13 1810.65,2297.96 1667.5,2352.5C 1537.35,2246.59 1407.02,2140.93 1276.5,2035.5C 1302.06,2033.56 1327.72,2031.23 1353.5,2028.5C 1360.12,2028.51 1366.46,2027.51 1372.5,2025.5C 1443.1,2014.02 1511.1,1993.85 1576.5,1965C 1601.14,1952.68 1625.8,1940.35 1650.5,1928C 1623.54,1934.53 1596.54,1941.2 1569.5,1948C 1553.22,1950.88 1536.88,1953.55 1520.5,1956C 1433.27,1967.17 1346.93,1962.51 1261.5,1942C 1126.09,1907.27 1018.26,1833.1 938,1719.5C 857.205,1597.66 822.038,1463.66 832.5,1317.5C 833.889,1312.73 834.556,1307.73 834.5,1302.5C 836.841,1276.65 844.674,1252.65 858,1230.5C 873.959,1212.09 893.793,1199.59 917.5,1193C 951.732,1184.62 986.066,1176.62 1020.5,1169C 1027.82,1166.34 1035.16,1163.67 1042.5,1161C 1062.78,1152.86 1080.12,1140.69 1094.5,1124.5 Z"/></g>
<g><path style="opacity:1" fill="#fdfefe" d="M 2300.5,1126.5 C 2302.83,1126.5 2305.17,1126.5 2307.5,1126.5C 2308.65,1144.34 2309.99,1162.18 2311.5,1180C 2311.45,1208.71 2297.12,1222.38 2268.5,1221C 2265.05,1219.97 2261.72,1218.64 2258.5,1217C 2255.46,1214.16 2252.46,1211.32 2249.5,1208.5C 2240.46,1224.34 2226.8,1230.51 2208.5,1227C 2193.75,1222.58 2184.92,1212.74 2182,1197.5C 2180.32,1176.84 2178.82,1156.17 2177.5,1135.5C 2218.66,1132.64 2259.66,1129.64 2300.5,1126.5 Z"/></g>
<g><path style="opacity:1" fill="#939393" d="M 2015.5,1135.5 C 2016.52,1138.97 2017.19,1142.64 2017.5,1146.5C 2015.78,1143.16 2015.12,1139.49 2015.5,1135.5 Z"/></g>
<g><path style="opacity:1" fill="#18afee" d="M 2273.5,1153.5 C 2278.17,1153.5 2282.83,1153.5 2287.5,1153.5C 2287.82,1163.84 2287.98,1174.18 2288,1184.5C 2286.23,1192.14 2281.39,1196.14 2273.5,1196.5C 2263.12,1194.6 2257.95,1188.27 2258,1177.5C 2257.5,1170.17 2257.33,1162.84 2257.5,1155.5C 2262.99,1154.98 2268.32,1154.32 2273.5,1153.5 Z"/></g>
<g><path style="opacity:1" fill="#13aeee" d="M 2223.5,1157.5 C 2227.17,1157.5 2230.83,1157.5 2234.5,1157.5C 2235.35,1168.82 2235.51,1180.16 2235,1191.5C 2229.93,1201.49 2222.09,1204.32 2211.5,1200C 2208.53,1198.24 2206.36,1195.74 2205,1192.5C 2203.78,1183.39 2202.95,1174.22 2202.5,1165C 2202.6,1162.7 2203.27,1160.7 2204.5,1159C 2211.01,1158.83 2217.35,1158.33 2223.5,1157.5 Z"/></g>
<g><path style="opacity:1" fill="#6698c4" d="M 1502.5,1159.5 C 1441.5,1159.5 1380.5,1159.5 1319.5,1159.5C 1319.83,1262.67 1319.5,1365.67 1318.5,1468.5C 1318.5,1365.17 1318.5,1261.83 1318.5,1158.5C 1380,1158.17 1441.34,1158.5 1502.5,1159.5 Z"/></g>
<g><path style="opacity:1" fill="#01549e" d="M 1166.5,1231.5 C 1166.45,1238.05 1167.12,1244.38 1168.5,1250.5C 1171.02,1275.35 1173.52,1300.35 1176,1325.5C 1182.33,1334.5 1188.67,1343.5 1195,1352.5C 1195.33,1378.17 1195.67,1403.83 1196,1429.5C 1199,1432.5 1202,1435.5 1205,1438.5C 1205.5,1485.83 1205.67,1533.17 1205.5,1580.5C 1249.17,1580.5 1292.83,1580.5 1336.5,1580.5C 1335.48,1624.39 1341.98,1667.06 1356,1708.5C 1363.42,1730.22 1375.25,1749.06 1391.5,1765C 1396.36,1768.69 1401.36,1772.19 1406.5,1775.5C 1400.34,1780.83 1394,1785.99 1387.5,1791C 1339.5,1791.67 1291.5,1791.67 1243.5,1791C 1213.46,1774.87 1186.96,1754.04 1164,1728.5C 1144.06,1706.61 1126.06,1683.28 1110,1658.5C 1109.17,1586.5 1109.33,1514.5 1110.5,1442.5C 1115.52,1438.32 1120.02,1433.65 1124,1428.5C 1124.33,1403.17 1124.67,1377.83 1125,1352.5C 1132.57,1343.68 1139.91,1334.68 1147,1325.5C 1148.03,1314.13 1149.19,1302.79 1150.5,1291.5C 1151.88,1285.38 1152.55,1279.05 1152.5,1272.5C 1155.06,1241.8 1158.06,1211.13 1161.5,1180.5C 1163.83,1197.44 1165.49,1214.44 1166.5,1231.5 Z"/></g>
<g><path style="opacity:1" fill="#c4c4c4" d="M 2021.5,1188.5 C 2022.93,1199.3 2023.6,1210.3 2023.5,1221.5C 2022,1210.7 2021.33,1199.7 2021.5,1188.5 Z"/></g>
<g><path style="opacity:1" fill="#5e8ec0" d="M 1166.5,1231.5 C 1167.88,1237.62 1168.55,1243.95 1168.5,1250.5C 1167.12,1244.38 1166.45,1238.05 1166.5,1231.5 Z"/></g>
<g><path style="opacity:1" fill="#fcfefe" d="M 2218.5,1250.5 C 2239.29,1250.42 2259.95,1251.92 2280.5,1255C 2297.51,1260.68 2308.34,1272.18 2313,1289.5C 2315.86,1308.92 2310.36,1325.42 2296.5,1339C 2290.35,1343.91 2283.35,1346.91 2275.5,1348C 2253.96,1349.57 2232.63,1348.23 2211.5,1344C 2187.76,1333.7 2177.59,1315.53 2181,1289.5C 2185.91,1269.1 2198.41,1256.1 2218.5,1250.5 Z"/></g>
<g><path style="opacity:1" fill="#09adee" d="M 2219.5,1276.5 C 2237.93,1276.28 2256.26,1277.45 2274.5,1280C 2290.24,1286.67 2294.41,1297.84 2287,1313.5C 2283.7,1318.23 2279.2,1321.07 2273.5,1322C 2255.76,1322.99 2238.1,1322.32 2220.5,1320C 2207.78,1315.75 2202.28,1306.91 2204,1293.5C 2206.25,1285.09 2211.41,1279.42 2219.5,1276.5 Z"/></g>
<g><path style="opacity:1" fill="#6895c3" d="M 1152.5,1272.5 C 1152.55,1279.05 1151.88,1285.38 1150.5,1291.5C 1150.45,1284.95 1151.12,1278.62 1152.5,1272.5 Z"/></g>
<g><path style="opacity:1" fill="#4c80b8" d="M 1642.5,1301.5 C 1640.99,1314.12 1640.32,1326.78 1640.5,1339.5C 1639.34,1331.34 1639.18,1323.01 1640,1314.5C 1640.27,1309.92 1641.1,1305.59 1642.5,1301.5 Z"/></g>
<g><path style="opacity:1" fill="#922428" d="M 834.5,1302.5 C 834.556,1307.73 833.889,1312.73 832.5,1317.5C 832.444,1312.27 833.111,1307.27 834.5,1302.5 Z"/></g>
<g><path style="opacity:1" fill="#fdfefe" d="M 2204.5,1371.5 C 2209.51,1371.33 2214.51,1371.5 2219.5,1372C 2248.13,1377.15 2276.8,1381.99 2305.5,1386.5C 2303.98,1394.8 2302.65,1403.14 2301.5,1411.5C 2271.4,1406.53 2241.23,1401.86 2211,1397.5C 2199.47,1398.02 2192.47,1404.02 2190,1415.5C 2188.73,1427.47 2193.57,1435.97 2204.5,1441C 2234.1,1446.71 2263.76,1451.88 2293.5,1456.5C 2292.06,1464.82 2290.72,1473.15 2289.5,1481.5C 2259.46,1476.65 2229.46,1471.49 2199.5,1466C 2177.6,1458.26 2166.93,1442.76 2167.5,1419.5C 2167.95,1398.43 2177.62,1383.26 2196.5,1374C 2199.31,1373.22 2201.98,1372.38 2204.5,1371.5 Z"/></g>
<g><path style="opacity:1" fill="#aeaeae" d="M 1033.5,1387.5 C 1033.7,1392.75 1033.03,1397.75 1031.5,1402.5C 1031.44,1397.27 1032.11,1392.27 1033.5,1387.5 Z"/></g>
<g><path style="opacity:1" fill="#afafaf" d="M 1940.5,1395.5 C 1941.52,1399.98 1942.19,1404.65 1942.5,1409.5C 1941.73,1408.74 1941.23,1407.74 1941,1406.5C 1940.5,1402.85 1940.33,1399.18 1940.5,1395.5 Z"/></g>
<g><path style="opacity:1" fill="#fdfefe" d="M 2154.5,1483.5 C 2195.91,1495.47 2237.08,1508.14 2278,1521.5C 2273.71,1540.04 2268.38,1558.37 2262,1576.5C 2252.88,1595.81 2237.71,1603.65 2216.5,1600C 2202.37,1596.85 2193.2,1588.35 2189,1574.5C 2188.5,1571.85 2188.34,1569.19 2188.5,1566.5C 2167.41,1569.63 2146.41,1573.29 2125.5,1577.5C 2127.96,1567.83 2130.96,1558.33 2134.5,1549C 2153.55,1546.26 2172.55,1543.42 2191.5,1540.5C 2193.26,1535.06 2194.92,1529.56 2196.5,1524C 2196.17,1523.5 2195.83,1523 2195.5,1522.5C 2179.5,1518 2163.66,1513 2148,1507.5C 2149.22,1499.29 2151.39,1491.29 2154.5,1483.5 Z"/></g>
<g><path style="opacity:1" fill="#b5cce3" d="M 1581.5,1512.5 C 1571.48,1512.41 1561.48,1512.74 1551.5,1513.5C 1557.26,1512 1563.26,1511.33 1569.5,1511.5C 1573.68,1511.5 1577.68,1511.83 1581.5,1512.5 Z"/></g>
<g><path style="opacity:1" fill="#12aeee" d="M 2216.5,1529.5 C 2227.43,1532.7 2238.43,1535.7 2249.5,1538.5C 2247.57,1548.89 2244.4,1558.89 2240,1568.5C 2230.64,1577.77 2221.3,1577.77 2212,1568.5C 2210.14,1565.41 2208.97,1562.07 2208.5,1558.5C 2211.17,1548.82 2213.84,1539.15 2216.5,1529.5 Z"/></g>
<g><path style="opacity:1" fill="#fcfefe" d="M 2135.5,1603.5 C 2143.03,1603.38 2150.36,1604.55 2157.5,1607C 2172.19,1612.51 2186.52,1618.84 2200.5,1626C 2225.56,1641.2 2232.06,1662.37 2220,1689.5C 2207.31,1712.76 2188.14,1721.1 2162.5,1714.5C 2165.15,1709.71 2167.32,1704.71 2169,1699.5C 2170.18,1696.47 2171.84,1693.8 2174,1691.5C 2188.9,1693.63 2198.23,1687.3 2202,1672.5C 2203.09,1662.52 2199.26,1655.02 2190.5,1650C 2175.86,1641.68 2160.52,1635.01 2144.5,1630C 2131.8,1628.1 2123.3,1633.27 2119,1645.5C 2116.34,1660.18 2122.01,1670.18 2136,1675.5C 2136.77,1675.36 2137.44,1675.02 2138,1674.5C 2141.13,1667.92 2143.96,1661.25 2146.5,1654.5C 2153.4,1656.95 2160.07,1659.95 2166.5,1663.5C 2159.77,1678.04 2153.44,1692.7 2147.5,1707.5C 2133.4,1703.12 2120.4,1696.62 2108.5,1688C 2090.7,1666.57 2089.87,1644.4 2106,1621.5C 2114,1612.26 2123.83,1606.26 2135.5,1603.5 Z"/></g>
<g><path style="opacity:1" fill="#b1cae1" d="M 1375.5,1597.5 C 1374.62,1608.47 1374.29,1619.47 1374.5,1630.5C 1373.34,1621.01 1373.18,1611.34 1374,1601.5C 1374.21,1599.94 1374.71,1598.61 1375.5,1597.5 Z"/></g>
<g><path style="opacity:1" fill="#fcfefe" d="M 457.5,1771.5 C 460.044,1771.1 462.211,1771.77 464,1773.5C 467.327,1778.52 470.327,1783.52 473,1788.5C 447,1824.5 421,1860.5 395,1896.5C 393.981,1897.69 392.814,1898.69 391.5,1899.5C 386.571,1892.63 381.905,1885.63 377.5,1878.5C 382.037,1871.93 386.703,1865.43 391.5,1859C 383.033,1845.89 374.199,1833.06 365,1820.5C 357.343,1823.39 349.509,1825.23 341.5,1826C 336.638,1819.3 331.971,1812.47 327.5,1805.5C 370.851,1793.83 414.184,1782.5 457.5,1771.5 Z"/></g>
<g><path style="opacity:1" fill="#17aeee" d="M 430.5,1802.5 C 431.978,1802.24 433.311,1802.57 434.5,1803.5C 425.184,1816.14 415.517,1828.48 405.5,1840.5C 400.528,1833.03 395.361,1825.69 390,1818.5C 389.018,1817.24 388.685,1815.91 389,1814.5C 402.905,1810.4 416.738,1806.4 430.5,1802.5 Z"/></g>
<g><path style="opacity:1" fill="#fcfefe" d="M 505.5,1835.5 C 506.822,1835.33 507.989,1835.66 509,1836.5C 513.476,1842.61 518.309,1848.44 523.5,1854C 496.623,1877.72 469.623,1901.22 442.5,1924.5C 454.479,1938.98 466.646,1953.31 479,1967.5C 479.667,1968.5 479.667,1969.5 479,1970.5C 473.98,1975.02 468.813,1979.35 463.5,1983.5C 444.448,1962.78 426.114,1941.45 408.5,1919.5C 440.853,1891.48 473.186,1863.48 505.5,1835.5 Z"/></g>
<g><path style="opacity:1" fill="#fdfefe" d="M 559.5,1921.5 C 574.594,1919.44 587.927,1923.27 599.5,1933C 613.35,1943.87 621.017,1958.04 622.5,1975.5C 614.833,1975.5 607.167,1975.5 599.5,1975.5C 598.042,1963.75 592.375,1954.59 582.5,1948C 571.36,1941.46 562.86,1943.96 557,1955.5C 556.538,1960.6 557.872,1965.27 561,1969.5C 568.443,1978.28 575.109,1987.61 581,1997.5C 585.584,2022.51 575.75,2038.67 551.5,2046C 544.785,2046.71 538.118,2046.38 531.5,2045C 510.429,2035.6 495.929,2020.1 488,1998.5C 487.006,1993.88 486.506,1989.22 486.5,1984.5C 494.167,1984.5 501.833,1984.5 509.5,1984.5C 512.087,2001.59 521.087,2014.09 536.5,2022C 546.927,2024.54 553.76,2020.7 557,2010.5C 557.667,2008.5 557.667,2006.5 557,2004.5C 551.053,1995.55 544.72,1986.89 538,1978.5C 526.606,1958.84 529.773,1942 547.5,1928C 551.434,1925.54 555.434,1923.37 559.5,1921.5 Z"/></g>
<g><path style="opacity:1" fill="#8d8d8d" d="M 1333.5,1966.5 C 1338.71,1966.61 1343.71,1967.28 1348.5,1968.5C 1343.25,1968.7 1338.25,1968.03 1333.5,1966.5 Z"/></g>
<g><path style="opacity:1" fill="#fdfefe" d="M 673.5,1999.5 C 674.552,1999.35 675.552,1999.52 676.5,2000C 679.887,2003.05 683.553,2005.72 687.5,2008C 689.124,2009.12 690.124,2010.62 690.5,2012.5C 677.662,2056.39 664.329,2100.05 650.5,2143.5C 644.139,2138.64 637.639,2133.97 631,2129.5C 631.919,2121.4 634.086,2113.56 637.5,2106C 625.293,2095.76 612.626,2086.42 599.5,2078C 593.167,2082.5 586.833,2087 580.5,2091.5C 573.5,2086.17 566.5,2080.83 559.5,2075.5C 597.565,2050.14 635.565,2024.81 673.5,1999.5 Z"/></g>
<g><path style="opacity:1" fill="#98262a" d="M 1372.5,2025.5 C 1366.46,2027.51 1360.12,2028.51 1353.5,2028.5C 1359.63,2027.05 1365.96,2026.05 1372.5,2025.5 Z"/></g>
<g><path style="opacity:1" fill="#18aeee" d="M 659.5,2036.5 C 660.097,2036.74 660.43,2037.24 660.5,2038C 655.665,2053.34 650.332,2068.5 644.5,2083.5C 635.859,2077.52 627.525,2071.19 619.5,2064.5C 633.151,2055.5 646.484,2046.16 659.5,2036.5 Z"/></g>
<g><path style="opacity:1" fill="#fcfefe" d="M 742.5,2057.5 C 767.219,2056.6 785.386,2066.94 797,2088.5C 800.648,2100.69 800.148,2112.69 795.5,2124.5C 788.25,2120.29 781.084,2115.96 774,2111.5C 776.61,2090.78 767.444,2080.94 746.5,2082C 741.822,2083.68 737.989,2086.51 735,2090.5C 725.134,2104.22 716.801,2118.89 710,2134.5C 707.356,2153.19 715.523,2162.69 734.5,2163C 739.548,2161.39 744.048,2158.89 748,2155.5C 755.768,2158.96 762.935,2163.3 769.5,2168.5C 757.748,2183.48 742.415,2189.31 723.5,2186C 696.48,2178.32 683.314,2160.49 684,2132.5C 685.818,2125.19 688.485,2118.19 692,2111.5C 698.831,2099.17 706.165,2087.17 714,2075.5C 721.476,2066.03 730.976,2060.03 742.5,2057.5 Z"/></g>
<g><path style="opacity:1" fill="#fcfefe" d="M 830.5,2097.5 C 857.093,2108.59 883.426,2120.25 909.5,2132.5C 906.694,2139.45 903.361,2146.11 899.5,2152.5C 881.618,2144.64 863.784,2136.64 846,2128.5C 844.181,2130.13 842.848,2132.13 842,2134.5C 839.382,2141.74 836.215,2148.74 832.5,2155.5C 848.024,2163.09 863.691,2170.43 879.5,2177.5C 876.661,2184.51 873.328,2191.18 869.5,2197.5C 854.469,2190.4 839.302,2183.73 824,2177.5C 819.274,2186.62 814.774,2195.96 810.5,2205.5C 828.351,2213.92 846.351,2222.09 864.5,2230C 864.957,2230.41 865.291,2230.91 865.5,2231.5C 862.898,2238.38 859.565,2244.71 855.5,2250.5C 829.3,2239.78 803.633,2228.11 778.5,2215.5C 795.845,2176.15 813.179,2136.81 830.5,2097.5 Z"/></g>
</svg>
