<?xml version="1.0" encoding="UTF-8"?>
<!DOCTYPE svg PUBLIC "-//W3C//DTD SVG 1.1//EN" "http://www.w3.org/Graphics/SVG/1.1/DTD/svg11.dtd">
<svg xmlns="http://www.w3.org/2000/svg" version="1.1" width="1200px" height="1200px" style="shape-rendering:geometricPrecision; text-rendering:geometricPrecision; image-rendering:optimizeQuality; fill-rule:evenodd; clip-rule:evenodd" xmlns:xlink="http://www.w3.org/1999/xlink">
<g><path style="opacity:0.915" fill="#fbfcfd" d="M 572.5,45.5 C 744.099,40.9264 889.266,99.9264 1008,222.5C 1122.97,350.439 1171.31,500.439 1153,672.5C 1131.53,824.33 1061.37,947.83 942.5,1043C 818.018,1136.91 678.018,1174.25 522.5,1155C 374.909,1132.15 254.409,1062.98 161,947.5C 63.6646,819.506 26.3312,675.506 49,515.5C 77.2084,356.125 157.375,230.625 289.5,139C 375.421,82.5264 469.755,51.3597 572.5,45.5 Z"/></g>
<g><path style="opacity:1" fill="#075eab" d="M 580.5,52.5 C 731.11,50.1857 862.11,99.019 973.5,199C 1096.08,316.661 1154.58,460.828 1149,631.5C 1136.23,804.242 1061.4,942.742 924.5,1047C 804.478,1132.02 671.145,1165.69 524.5,1148C 372.308,1124.19 249.808,1051.36 157,929.5C 66.2872,802.025 33.2872,660.691 58,505.5C 82.7478,378.454 143.248,272.287 239.5,187C 337.574,103.459 451.24,58.6258 580.5,52.5 Z"/></g>
<g><path style="opacity:1" fill="#fefefe" d="M 564.5,74.5 C 732.564,67.657 874.397,124.657 990,245.5C 1108.07,380.392 1150.4,536.392 1117,713.5C 1077.72,879.736 982.224,1001.57 830.5,1079C 700.119,1139.34 566.452,1147.67 429.5,1104C 286.715,1052.85 182.882,958.679 118,821.5C 63.8977,697.235 56.5644,570.235 96,440.5C 142.113,305.404 227.613,203.571 352.5,135C 419.063,100.085 489.73,79.9187 564.5,74.5 Z"/></g>
<g><path style="opacity:1" fill="#095fab" d="M 623.5,146.5 C 623.56,147.043 623.893,147.376 624.5,147.5C 625.499,134.183 625.833,120.85 625.5,107.5C 629.833,107.5 634.167,107.5 638.5,107.5C 638.5,130.167 638.5,152.833 638.5,175.5C 634.486,175.666 630.486,175.499 626.5,175C 618.032,162.557 609.699,150.057 601.5,137.5C 601.217,136.711 600.717,136.044 600,135.5C 599.5,148.829 599.333,162.163 599.5,175.5C 594.833,175.5 590.167,175.5 585.5,175.5C 585.5,152.833 585.5,130.167 585.5,107.5C 589.846,107.334 594.179,107.501 598.5,108C 607.228,120.634 615.561,133.468 623.5,146.5 Z"/></g>
<g><path style="opacity:1" fill="#5d98c8" d="M 625.5,107.5 C 625.833,120.85 625.499,134.183 624.5,147.5C 623.893,147.376 623.56,147.043 623.5,146.5C 624.167,133.5 624.833,120.5 625.5,107.5 Z"/></g>
<g><path style="opacity:1" fill="#1060ac" d="M 531.5,110.5 C 544.96,108.317 555.127,112.984 562,124.5C 564.973,135.998 566.306,147.665 566,159.5C 562.122,172.951 553.122,179.617 539,179.5C 527.886,178.718 520.552,173.052 517,162.5C 514.164,150.647 513.164,138.647 514,126.5C 517.708,118.747 523.542,113.414 531.5,110.5 Z"/></g>
<g><path style="opacity:1" fill="#0f60ab" d="M 489.5,118.5 C 490.833,118.5 492.167,118.5 493.5,118.5C 494.292,122.211 495.292,125.878 496.5,129.5C 491.726,131.69 486.726,133.19 481.5,134C 480.572,134.388 479.905,135.055 479.5,136C 483.979,152.9 488.646,169.733 493.5,186.5C 492.811,188.353 491.478,189.519 489.5,190C 486.277,191.126 483.111,191.293 480,190.5C 474.956,173.616 470.289,156.616 466,139.5C 465.586,139.043 465.086,138.709 464.5,138.5C 459.319,140.622 453.986,141.789 448.5,142C 446.68,138.409 445.68,134.576 445.5,130.5C 460.434,127.102 475.101,123.102 489.5,118.5 Z"/></g>
<g><path style="opacity:1" fill="#fcfdfe" d="M 533.5,123.5 C 540.696,121.7 545.863,124.033 549,130.5C 551.344,140.714 552.01,151.048 551,161.5C 546.86,166.211 541.694,167.711 535.5,166C 533.622,164.457 532.122,162.624 531,160.5C 528.494,150.297 527.494,139.964 528,129.5C 529.36,126.977 531.193,124.977 533.5,123.5 Z"/></g>
<g><path style="opacity:1" fill="#0b5fab" d="M 726.5,126.5 C 736.094,125.087 744.26,127.754 751,134.5C 756.08,148.322 751.247,156.656 736.5,159.5C 738.764,164.459 740.931,169.459 743,174.5C 746.32,172.359 748.154,169.359 748.5,165.5C 752.951,166.149 757.284,167.316 761.5,169C 758.778,176.271 754.444,182.437 748.5,187.5C 750.833,192.833 753.167,198.167 755.5,203.5C 750.503,203.072 745.503,201.739 740.5,199.5C 739.041,197.417 737.708,195.25 736.5,193C 723.829,196.334 712.996,193.167 704,183.5C 698.163,167.508 703.329,156.841 719.5,151.5C 715.018,141.049 717.352,132.716 726.5,126.5 Z"/></g>
<g><path style="opacity:1" fill="#88b3d7" d="M 601.5,137.5 C 600.833,150.167 600.167,162.833 599.5,175.5C 599.333,162.163 599.5,148.829 600,135.5C 600.717,136.044 601.217,136.711 601.5,137.5 Z"/></g>
<g><path style="opacity:1" fill="#f6f9fc" d="M 733.5,137.5 C 740.297,138.107 741.964,141.274 738.5,147C 736.323,148.202 733.989,148.702 731.5,148.5C 729.621,144.238 730.287,140.571 733.5,137.5 Z"/></g>
<g><path style="opacity:1" fill="#0a5fab" d="M 417.5,141.5 C 419.911,141.137 421.411,142.137 422,144.5C 430.637,163.608 439.137,182.774 447.5,202C 443.677,205.217 439.344,207.383 434.5,208.5C 431.731,199.632 427.898,191.299 423,183.5C 416.104,186.032 409.604,189.199 403.5,193C 407.424,200.85 411.091,208.85 414.5,217C 410.976,219.931 406.976,222.097 402.5,223.5C 392.909,203.317 383.576,182.983 374.5,162.5C 378.199,158.803 382.533,157.137 387.5,157.5C 390.835,165.504 394.669,173.171 399,180.5C 405.637,177.788 412.137,174.788 418.5,171.5C 414.833,163.5 411.167,155.5 407.5,147.5C 410.734,145.313 414.067,143.313 417.5,141.5 Z"/></g>
<g><path style="opacity:1" fill="#f5f8fb" d="M 721.5,162.5 C 722.675,162.281 723.675,162.614 724.5,163.5C 727.408,169.309 729.741,175.309 731.5,181.5C 720.231,184.143 714.731,179.809 715,168.5C 717.063,166.266 719.229,164.266 721.5,162.5 Z"/></g>
<g><path style="opacity:1" fill="#0b5fab" d="M 837.5,168.5 C 842.214,170.025 846.547,172.359 850.5,175.5C 845.702,182.932 841.035,190.432 836.5,198C 842.378,202.528 848.544,206.694 855,210.5C 859.762,202.633 864.762,194.966 870,187.5C 873.734,189.952 877.567,192.286 881.5,194.5C 870.667,212.167 859.833,229.833 849,247.5C 848.101,249.327 846.767,250.66 845,251.5C 841.05,249.78 837.55,247.446 834.5,244.5C 839.041,236.584 843.707,228.751 848.5,221C 842.249,217.292 836.083,213.459 830,209.5C 824.793,216.745 819.959,224.245 815.5,232C 810.646,231.236 806.646,228.903 803.5,225C 815.071,206.273 826.404,187.44 837.5,168.5 Z"/></g>
<g><path style="opacity:1" fill="#0b5fab" d="M 335.5,184.5 C 339.881,184.372 344.215,184.705 348.5,185.5C 348.499,190.003 347.666,194.337 346,198.5C 328.924,197.967 324.59,205.3 333,220.5C 336.56,226.449 340.726,231.949 345.5,237C 355.328,240.421 361.328,237.088 363.5,227C 362.84,223.846 361.506,221.013 359.5,218.5C 356.457,220.713 353.29,222.713 350,224.5C 347.353,221.884 345.187,218.884 343.5,215.5C 349.909,210.265 356.743,205.598 364,201.5C 372.986,209.476 376.986,219.476 376,231.5C 370.245,247.132 359.078,253.632 342.5,251C 338.208,249.604 334.708,247.104 332,243.5C 325.315,234.8 319.649,225.467 315,215.5C 313.552,205.561 316.718,197.394 324.5,191C 328.23,188.807 331.897,186.64 335.5,184.5 Z"/></g>
<g><path style="opacity:1" fill="#015daa" d="M 205.5,617.5 C 205.5,612.5 205.5,607.5 205.5,602.5C 193.167,602.5 180.833,602.5 168.5,602.5C 160.464,602.598 152.464,602.098 144.5,601C 130.053,599.638 116.386,595.638 103.5,589C 98.0311,586.038 94.6978,581.538 93.5,575.5C 93.8333,574.5 94.1667,573.5 94.5,572.5C 132.29,569.754 169.957,565.754 207.5,560.5C 223.676,433.906 285.01,336.073 391.5,267C 501.796,201.871 617.462,190.537 738.5,233C 851.279,277.779 929.113,356.946 972,470.5C 975.196,480.087 978.362,489.587 981.5,499C 1020.27,508.367 1057.6,521.701 1093.5,539C 1095.83,540.5 1098.17,542 1100.5,543.5C 1102.53,545.452 1102.87,547.618 1101.5,550C 1093.13,550.684 1084.8,550.351 1076.5,549C 1047.16,543.417 1017.99,537.251 989,530.5C 1007.61,647.708 981.281,753.374 910,847.5C 822.203,952.962 709.37,1002.8 571.5,997C 455.362,986.191 360.862,935.691 288,845.5C 236.67,778.36 209.17,702.36 205.5,617.5 Z"/></g>
<g><path style="opacity:1" fill="#095fab" d="M 898.5,219.5 C 914.131,217.729 924.964,224.063 931,238.5C 932.858,248.073 930.525,256.407 924,263.5C 918.866,269.635 913.366,275.469 907.5,281C 889.429,288.711 876.595,283.545 869,265.5C 868.333,260.833 868.333,256.167 869,251.5C 876.265,238.404 886.098,227.738 898.5,219.5 Z"/></g>
<g><path style="opacity:1" fill="#0c60ab" d="M 282.5,222.5 C 284.716,223.203 286.549,224.536 288,226.5C 300.625,242.127 313.625,257.46 327,272.5C 324.53,276.305 321.196,279.638 317,282.5C 303.041,265.539 288.707,248.872 274,232.5C 273.333,231.5 273.333,230.5 274,229.5C 277.023,227.302 279.856,224.969 282.5,222.5 Z"/></g>
<g><path style="opacity:1" fill="#fbfcfd" d="M 903.5,232.5 C 918.242,233.984 921.742,240.984 914,253.5C 908.779,260.054 902.946,265.888 896.5,271C 886.178,272.344 881.345,267.844 882,257.5C 887.564,247.77 894.731,239.437 903.5,232.5 Z"/></g>
<g><path style="opacity:1" fill="#0a5fab" d="M 952.5,254.5 C 956.521,257.522 959.855,261.189 962.5,265.5C 955.167,277.5 947.833,289.5 940.5,301.5C 940.833,301.833 941.167,302.167 941.5,302.5C 954.292,296.736 967.125,291.07 980,285.5C 983.281,288.617 986.448,291.951 989.5,295.5C 972.065,303.6 954.398,311.433 936.5,319C 932.26,320.971 927.927,322.305 923.5,323C 921.667,321.167 919.833,319.333 918,317.5C 917.333,316.5 917.333,315.5 918,314.5C 929.765,294.636 941.265,274.636 952.5,254.5 Z"/></g>
<g><path style="opacity:1" fill="#0b5fab" d="M 250.5,257.5 C 261.496,256.913 269.329,261.579 274,271.5C 274.239,276.115 274.406,280.615 274.5,285C 284.601,287.525 294.601,290.358 304.5,293.5C 301.049,297.79 297.215,301.456 293,304.5C 283.813,302.437 274.813,299.771 266,296.5C 263.855,298.645 261.688,300.812 259.5,303C 265.876,309.175 272.209,315.342 278.5,321.5C 276.212,325.456 273.212,328.789 269.5,331.5C 252.684,316.518 236.017,301.351 219.5,286C 226.833,278 234.167,270 241.5,262C 244.592,260.454 247.592,258.954 250.5,257.5 Z"/></g>
<g><path style="opacity:1" fill="#f9fbfd" d="M 250.5,271.5 C 260.39,271.614 263.556,276.281 260,285.5C 256.63,288.535 253.63,291.868 251,295.5C 246.352,292.019 242.185,288.019 238.5,283.5C 242.215,279.119 246.215,275.119 250.5,271.5 Z"/></g>
<g><path style="opacity:1" fill="#0b5fab" d="M 1000.5,312.5 C 1009.97,324.22 1018.64,336.72 1026.5,350C 1023.39,353.556 1019.72,355.39 1015.5,355.5C 1010,347.167 1004.5,338.833 999,330.5C 994.833,333.333 990.667,336.167 986.5,339C 991.124,345.748 995.624,352.581 1000,359.5C 1000.68,360.784 1000.52,361.951 999.5,363C 996.397,364.439 993.564,366.273 991,368.5C 986.384,360.728 981.218,353.394 975.5,346.5C 971.205,348.808 967.205,351.474 963.5,354.5C 968.669,363.508 974.336,372.175 980.5,380.5C 977.136,383.029 973.636,385.363 970,387.5C 962,375.5 954,363.5 946,351.5C 945.333,350.5 945.333,349.5 946,348.5C 964.318,336.601 982.484,324.601 1000.5,312.5 Z"/></g>
<g><path style="opacity:1" fill="#0a5fab" d="M 199.5,317.5 C 212.465,316.305 220.465,321.972 223.5,334.5C 235.687,331.506 244.187,335.839 249,347.5C 249.887,352.072 249.22,356.405 247,360.5C 241.565,370.385 235.399,379.718 228.5,388.5C 209.49,376.663 190.824,364.33 172.5,351.5C 177.75,342.664 183.25,333.998 189,325.5C 192.299,322.449 195.799,319.782 199.5,317.5 Z"/></g>
<g><path style="opacity:1" fill="#f6f9fc" d="M 201.5,331.5 C 206.712,331.551 210.045,334.051 211.5,339C 209.41,344.678 206.41,349.845 202.5,354.5C 198.228,352.226 194.228,349.559 190.5,346.5C 193.467,340.861 197.134,335.861 201.5,331.5 Z"/></g>
<g><path style="opacity:1" fill="#f9fbfd" d="M 223.5,346.5 C 234.429,346.04 237.596,350.706 233,360.5C 230.667,363.833 228.333,367.167 226,370.5C 221.707,367.61 217.541,364.61 213.5,361.5C 216.595,356.299 219.929,351.299 223.5,346.5 Z"/></g>
<g><path style="opacity:1" fill="#fefefe" d="M 893.5,635.5 C 893.462,641.717 890.462,645.884 884.5,648C 879.604,649.713 874.604,651.046 869.5,652C 858.584,651.244 848.25,653.244 838.5,658C 849.691,657.834 860.691,659.167 871.5,662C 877.173,663.831 882.173,666.664 886.5,670.5C 867.754,673.217 849.087,677.05 830.5,682C 801.279,691.741 771.945,701.074 742.5,710C 715.87,717.06 688.87,722.06 661.5,725C 642.348,725.821 623.348,724.487 604.5,721C 558.562,711.907 512.562,703.24 466.5,695C 446.284,692.243 426.284,693.243 406.5,698C 388.822,703.67 371.156,709.337 353.5,715C 307.277,716.056 271.777,697.223 247,658.5C 241.96,649.775 239.96,640.442 241,630.5C 244.276,621.692 250.609,618.025 260,619.5C 290.773,622.894 321.606,625.727 352.5,628C 383.486,629.685 414.153,627.352 444.5,621C 466.712,614.697 489.045,608.864 511.5,603.5C 516.228,606.617 521.061,609.617 526,612.5C 528.188,611.941 528.854,610.607 528,608.5C 501.431,585.265 470.431,575.265 435,578.5C 421.145,578.486 407.312,578.986 393.5,580C 346.497,584.889 299.497,589.889 252.5,595C 219.87,597.343 187.203,598.01 154.5,597C 140.787,596.124 127.454,593.457 114.5,589C 108.166,586.491 102.833,582.658 98.5,577.5C 158.082,573.458 217.082,565.292 275.5,553C 335.709,535.929 395.709,518.262 455.5,500C 469.13,496.509 482.796,493.176 496.5,490C 508.272,487.94 520.106,486.44 532,485.5C 544.813,485.486 556.98,488.319 568.5,494C 586.936,502.799 604.603,512.799 621.5,524C 650.167,543.333 678.833,562.667 707.5,582C 716.999,587.832 726.832,592.999 737,597.5C 740.822,597.031 741.322,595.531 738.5,593C 719.371,583.94 701.371,573.107 684.5,560.5C 724.225,538.304 765.225,518.804 807.5,502C 825.105,495.576 843.105,490.576 861.5,487C 872.765,485.007 884.098,484.34 895.5,485C 951.208,493.511 1005.54,507.511 1058.5,527C 1071.93,532.549 1084.93,538.882 1097.5,546C 1088.06,546.827 1078.73,546.16 1069.5,544C 1026.15,534.864 982.816,525.864 939.5,517C 935.167,516.333 930.833,516.333 926.5,517C 897.645,525.508 870.311,537.508 844.5,553C 826.999,563.918 809.333,574.585 791.5,585C 810.331,586.082 827.664,591.748 843.5,602C 854.833,610.667 866.167,619.333 877.5,628C 882.474,631.321 887.807,633.821 893.5,635.5 Z"/></g>
<g><path style="opacity:1" fill="#81aed4" d="M 168.5,602.5 C 180.833,602.5 193.167,602.5 205.5,602.5C 205.5,607.5 205.5,612.5 205.5,617.5C 204.514,613.03 204.181,608.363 204.5,603.5C 192.322,603.828 180.322,603.495 168.5,602.5 Z"/></g>
<g><path style="opacity:1" fill="#1362ac" d="M 823.5,624.5 C 827.131,624.16 830.464,624.994 833.5,627C 835.329,628.113 836.163,629.613 836,631.5C 829.174,639.577 822.674,639.244 816.5,630.5C 818.878,628.448 821.211,626.448 823.5,624.5 Z"/></g>
<g><path style="opacity:1" fill="#fcb91a" d="M 893.5,635.5 C 911.862,637.23 928.529,643.397 943.5,654C 949.345,659.19 952.345,665.69 952.5,673.5C 930.691,668.319 908.691,667.319 886.5,670.5C 882.173,666.664 877.173,663.831 871.5,662C 860.691,659.167 849.691,657.834 838.5,658C 848.25,653.244 858.584,651.244 869.5,652C 874.604,651.046 879.604,649.713 884.5,648C 890.462,645.884 893.462,641.717 893.5,635.5 Z"/></g>
<g><path style="opacity:1" fill="#095fab" d="M 431.5,997.5 C 434.94,998.091 438.273,999.091 441.5,1000.5C 441.833,1003 442.167,1005.5 442.5,1008C 441.49,1030.5 440.49,1053 439.5,1075.5C 435.366,1073.23 431.033,1071.57 426.5,1070.5C 426.827,1065.79 426.493,1061.12 425.5,1056.5C 419.054,1053.28 412.387,1050.61 405.5,1048.5C 402.187,1051.31 399.021,1054.31 396,1057.5C 391.669,1055.78 387.503,1053.78 383.5,1051.5C 399.894,1033.78 415.894,1015.78 431.5,997.5 Z"/></g>
<g><path style="opacity:1" fill="#0a5fab" d="M 765.5,997.5 C 768.48,997.241 770.313,998.574 771,1001.5C 778.068,1021.54 785.235,1041.54 792.5,1061.5C 792.291,1062.09 791.957,1062.59 791.5,1063C 787.578,1064.65 783.578,1065.65 779.5,1066C 766.992,1056.12 754.326,1046.78 741.5,1038C 746.457,1050.37 751.123,1062.87 755.5,1075.5C 750.955,1077.57 746.289,1079.24 741.5,1080.5C 734.374,1059.12 727.04,1037.79 719.5,1016.5C 722.885,1012.54 727.218,1011.04 732.5,1012C 744.667,1021.5 756.833,1031 769,1040.5C 765.269,1027.97 761.102,1015.47 756.5,1003C 756.645,1002.23 756.978,1001.56 757.5,1001C 760.374,1000.06 763.04,998.891 765.5,997.5 Z"/></g>
<g><path style="opacity:1" fill="#1060ac" d="M 480.5,1014.5 C 484.793,1015.66 489.126,1016.66 493.5,1017.5C 489.709,1036.21 485.709,1054.88 481.5,1073.5C 491.628,1075.7 501.628,1078.2 511.5,1081C 510.617,1084.45 509.784,1087.95 509,1091.5C 508.275,1092.06 507.442,1092.39 506.5,1092.5C 493.167,1089.33 479.833,1086.17 466.5,1083C 465.484,1082.48 464.818,1081.65 464.5,1080.5C 469.837,1058.46 475.17,1036.46 480.5,1014.5 Z"/></g>
<g><path style="opacity:1" fill="#f2f6fa" d="M 428.5,1020.5 C 429.428,1028 429.428,1035.67 428.5,1043.5C 423.33,1042.25 418.33,1040.42 413.5,1038C 418.71,1032.29 423.71,1026.46 428.5,1020.5 Z"/></g>
<g><path style="opacity:1" fill="#0d60ab" d="M 672.5,1023.5 C 683.293,1021.82 692.46,1024.82 700,1032.5C 704.258,1041.7 706.925,1051.36 708,1061.5C 709.223,1084.94 698.056,1095.44 674.5,1093C 667.919,1090.8 663.085,1086.64 660,1080.5C 656.182,1068.08 654.182,1055.42 654,1042.5C 657.017,1032.98 663.184,1026.65 672.5,1023.5 Z"/></g>
<g><path style="opacity:1" fill="#0b5fab" d="M 541.5,1027.5 C 551.789,1028.53 562.122,1029.36 572.5,1030C 585.602,1033.04 591.102,1041.2 589,1054.5C 587.223,1058.9 584.39,1062.4 580.5,1065C 585.743,1068.15 588.076,1072.82 587.5,1079C 587.204,1092.96 580.037,1099.79 566,1099.5C 556.174,1098.65 546.341,1097.99 536.5,1097.5C 537.373,1074.1 539.04,1050.77 541.5,1027.5 Z"/></g>
<g><path style="opacity:1" fill="#0c5fab" d="M 630.5,1087.5 C 630.5,1091.5 630.5,1095.5 630.5,1099.5C 626.167,1099.5 621.833,1099.5 617.5,1099.5C 617.802,1096.94 617.468,1094.61 616.5,1092.5C 615.41,1071.85 614.743,1051.18 614.5,1030.5C 619.167,1030.5 623.833,1030.5 628.5,1030.5C 629.167,1049.5 629.833,1068.5 630.5,1087.5 Z"/></g>
<g><path style="opacity:1" fill="#fbfcfd" d="M 674.5,1036.5 C 683.638,1034.82 689.138,1038.48 691,1047.5C 692.296,1054.31 693.463,1061.15 694.5,1068C 693.606,1078.54 687.939,1082.54 677.5,1080C 674.894,1078.06 673.061,1075.56 672,1072.5C 669.516,1062.63 668.516,1052.63 669,1042.5C 670.36,1039.98 672.193,1037.98 674.5,1036.5 Z"/></g>
<g><path style="opacity:1" fill="#f7fafc" d="M 554.5,1041.5 C 560.562,1041.94 566.562,1042.78 572.5,1044C 576.875,1049.12 576.209,1053.45 570.5,1057C 564.796,1057.69 559.13,1057.52 553.5,1056.5C 553.613,1051.48 553.947,1046.48 554.5,1041.5 Z"/></g>
<g><path style="opacity:1" fill="#f9fbfd" d="M 551.5,1069.5 C 557.184,1069.74 562.851,1070.24 568.5,1071C 573.226,1073.39 574.726,1077.22 573,1082.5C 571.786,1084.05 570.286,1085.22 568.5,1086C 562.818,1086.47 557.152,1086.3 551.5,1085.5C 551.5,1080.17 551.5,1074.83 551.5,1069.5 Z"/></g>
<g><path style="opacity:1" fill="#a2c1df" d="M 630.5,1087.5 C 631.485,1091.63 631.818,1095.97 631.5,1100.5C 626.5,1100.5 621.5,1100.5 616.5,1100.5C 616.5,1097.83 616.5,1095.17 616.5,1092.5C 617.468,1094.61 617.802,1096.94 617.5,1099.5C 621.833,1099.5 626.167,1099.5 630.5,1099.5C 630.5,1095.5 630.5,1091.5 630.5,1087.5 Z"/></g>
</svg>
