<?xml version="1.0" encoding="UTF-8"?>
<!DOCTYPE svg PUBLIC "-//W3C//DTD SVG 1.1//EN" "http://www.w3.org/Graphics/SVG/1.1/DTD/svg11.dtd">
<svg xmlns="http://www.w3.org/2000/svg" version="1.1" width="1200px" height="1497px" style="shape-rendering:geometricPrecision; text-rendering:geometricPrecision; image-rendering:optimizeQuality; fill-rule:evenodd; clip-rule:evenodd" xmlns:xlink="http://www.w3.org/1999/xlink">
<g><path style="opacity:0.964" fill="#fcfcfc" d="M 1199.5,1254.5 C 1199.5,1256.17 1199.5,1257.83 1199.5,1259.5C 1176.4,1285.01 1160.57,1314.68 1152,1348.5C 1148.17,1363.29 1145.51,1378.29 1144,1393.5C 1140.33,1404.5 1132.83,1411.34 1121.5,1414C 1110.48,1415.9 1099.48,1415.73 1088.5,1413.5C 1087.48,1423.8 1086.81,1434.14 1086.5,1444.5C 1077.57,1439.7 1068.57,1434.86 1059.5,1430C 1055.84,1429.45 1052.17,1428.95 1048.5,1428.5C 1037.64,1429.97 1026.8,1431.64 1016,1433.5C 1003.39,1433.54 995.393,1427.54 992,1415.5C 990.121,1406.07 991.788,1397.4 997,1389.5C 1005.28,1382.22 1012.45,1374.06 1018.5,1365C 991.661,1366.54 965.661,1372.21 940.5,1382C 924.72,1388.06 909.053,1394.39 893.5,1401C 859.5,1417.33 825.5,1433.67 791.5,1450C 727.557,1479.28 660.39,1494.44 590,1495.5C 533.187,1495.01 479.353,1482.17 428.5,1457C 401.518,1443.51 374.851,1429.51 348.5,1415C 310.595,1394.38 270.595,1379.38 228.5,1370C 213.601,1367.29 198.601,1365.96 183.5,1366C 188.667,1373.83 195.167,1380.33 203,1385.5C 210.432,1396.19 211.432,1407.53 206,1419.5C 201.021,1426.82 194.021,1430.49 185,1430.5C 176.087,1429.06 167.254,1427.23 158.5,1425C 147.855,1423.14 137.855,1424.81 128.5,1430C 123.702,1432.63 119.035,1435.47 114.5,1438.5C 113.719,1437.27 113.219,1435.94 113,1434.5C 112.832,1425.15 112.332,1415.82 111.5,1406.5C 96.4449,1409.99 82.1116,1408.16 68.5,1401C 61.2012,1395.7 57.3679,1388.53 57,1379.5C 55.2082,1337.44 41.2082,1300.11 15,1267.5C 10.2613,1262.26 5.09462,1257.59 -0.5,1253.5C -0.5,1252.5 -0.5,1251.5 -0.5,1250.5C 22.2393,1238.81 45.906,1229.48 70.5,1222.5C 70.8333,1160.83 70.5,1099.16 69.5,1037.5C 66.357,1036.06 63.1904,1034.73 60,1033.5C 59.3333,1024.5 59.3333,1015.5 60,1006.5C 63.4572,1005.1 66.7905,1003.44 70,1001.5C 70.8299,995.804 70.6632,990.137 69.5,984.5C 66.2606,983.296 63.094,981.962 60,980.5C 59.3333,969.5 59.3333,958.5 60,947.5C 72,936.167 84,924.833 96,913.5C 96.1432,909.381 96.8099,905.381 98,901.5C 99.7998,899.683 101.966,898.516 104.5,898C 109.833,897.333 115.167,897.333 120.5,898C 123.22,898.723 125.387,900.223 127,902.5C 127.333,906.167 127.667,909.833 128,913.5C 140.857,924.934 153.523,936.601 166,948.5C 165.822,959.143 165.488,969.81 165,980.5C 161.667,981.833 158.333,983.167 155,984.5C 154.333,990.167 154.333,995.833 155,1001.5C 158.421,1002.97 161.754,1004.64 165,1006.5C 165.333,1009.83 165.667,1013.17 166,1016.5C 216.74,1073.27 274.573,1121.1 339.5,1160C 352.585,1167.63 365.752,1175.13 379,1182.5C 379.5,1169.5 379.667,1156.5 379.5,1143.5C 409.835,1143.67 440.168,1143.5 470.5,1143C 474.394,1118.64 483.727,1096.64 498.5,1077C 494.294,1070.05 491.46,1062.55 490,1054.5C 488.934,1045.49 491.268,1037.49 497,1030.5C 504.931,1023.23 513.431,1016.73 522.5,1011C 525.037,1008.09 527.204,1004.93 529,1001.5C 529.577,997.112 529.244,992.779 528,988.5C 523.803,977.577 519.803,966.577 516,955.5C 508.718,948.89 501.385,942.223 494,935.5C 486.844,926.366 483.511,916.033 484,904.5C 485.167,903.333 486.333,902.167 487.5,901C 482.295,893.126 477.962,884.793 474.5,876C 474.613,871.225 476.947,868.225 481.5,867C 479.136,863.441 477.469,859.608 476.5,855.5C 446.079,857.62 415.746,856.454 385.5,852C 357.631,845.7 329.631,840.033 301.5,835C 284.431,830.866 267.764,825.532 251.5,819C 239.598,809.538 241.265,804.371 256.5,803.5C 278.712,805.791 300.378,803.291 321.5,796C 306.866,796.58 292.199,796.58 277.5,796C 270.591,795.692 264.257,793.692 258.5,790C 220.224,762.062 189.39,727.562 166,686.5C 164.524,681.924 164.19,677.257 165,672.5C 167.401,671.398 169.901,671.231 172.5,672C 210.784,691.207 251.117,703.54 293.5,709C 280.127,695.622 269.96,680.122 263,662.5C 262.333,659.833 262.333,657.167 263,654.5C 264.18,653.316 265.68,652.649 267.5,652.5C 271.114,652.804 274.448,653.971 277.5,656C 311.643,684.564 350.976,700.731 395.5,704.5C 411.042,704.558 426.042,701.725 440.5,696C 435.489,695.415 430.489,694.749 425.5,694C 367.377,647.546 309.544,600.712 252,553.5C 249.471,545.556 252.304,540.89 260.5,539.5C 270.805,540.998 281.139,541.831 291.5,542C 250.833,504 210.167,466 169.5,428C 155.414,415.244 140.748,403.244 125.5,392C 120.235,386.593 120.235,381.26 125.5,376C 127.5,375.833 129.5,375.667 131.5,375.5C 156.25,379.485 180.917,383.652 205.5,388C 145.294,303.018 121.128,208.518 133,104.5C 135.133,97.769 137.466,91.1024 140,84.5C 143.961,81.9595 146.961,82.9595 149,87.5C 158.196,122.616 167.863,157.616 178,192.5C 184.828,213.359 194.494,232.692 207,250.5C 200.919,190.728 208.586,132.728 230,76.5C 238.001,52.5025 248.667,29.8359 262,8.5C 267.519,0.929619 274.185,-0.403715 282,4.5C 276.276,72.7683 285.943,138.768 311,202.5C 316.771,158.415 330.105,116.748 351,77.5C 364.585,54.6574 378.918,32.3241 394,10.5C 397.185,6.30223 401.185,3.30223 406,1.5C 409.534,1.92606 412.201,3.59273 414,6.5C 414.667,10.5 414.667,14.5 414,18.5C 396.628,89.4755 394.962,160.809 409,232.5C 419.525,271.882 437.192,307.549 462,339.5C 481.057,361.899 502.557,381.399 526.5,398C 537.833,405 549.167,412 560.5,419C 571.757,426.922 580.923,436.755 588,448.5C 593.806,461.446 600.139,474.112 607,486.5C 609.322,474.901 611.322,463.234 613,451.5C 616.96,416.528 620.627,381.528 624,346.5C 629.119,305.354 640.452,266.02 658,228.5C 659.833,226.667 661.667,224.833 663.5,223C 668.09,221.385 670.923,222.885 672,227.5C 671.74,249.496 671.74,271.496 672,293.5C 672.173,302.942 673.173,312.276 675,321.5C 700.769,243.437 745.269,178.271 808.5,126C 833.448,106.191 859.448,87.8577 886.5,71C 892.978,67.5104 899.811,65.0104 907,63.5C 910.434,63.9363 913.434,65.2697 916,67.5C 915.761,73.221 914.094,78.5543 911,83.5C 889.945,108.596 871.612,135.596 856,164.5C 854.699,166.402 854.032,168.402 854,170.5C 888.442,141.777 927.942,123.61 972.5,116C 990.068,113.178 1007.73,111.344 1025.5,110.5C 1031.55,110.502 1037.55,111.002 1043.5,112C 1047.36,113.181 1050.86,115.014 1054,117.5C 1056.51,122.62 1055.34,126.786 1050.5,130C 1013.69,143.724 980.359,163.057 950.5,188C 945,193.5 939.5,199 934,204.5C 933.333,205.167 933.333,205.833 934,206.5C 969.45,192.453 1006.28,186.119 1044.5,187.5C 1063.02,186.99 1081.35,188.49 1099.5,192C 1111.99,197.131 1112.66,203.465 1101.5,211C 1033.27,237.58 976.768,279.747 932,337.5C 906.715,372.426 891.715,411.426 887,454.5C 842.272,504.254 809.605,561.254 789,625.5C 785.873,634.996 783.873,644.663 783,654.5C 787.162,664.159 792.828,672.825 800,680.5C 799.325,669.992 803.491,667.159 812.5,672C 838.25,695.732 859.417,722.899 876,753.5C 882.477,766.599 886.311,780.432 887.5,795C 885.249,805.756 882.582,816.423 879.5,827C 881.775,839.427 883.442,851.927 884.5,864.5C 883.374,883.474 873.374,894.974 854.5,899C 837.942,902.21 822.776,899.043 809,889.5C 808.37,887.097 809.203,885.263 811.5,884C 815.271,881.781 819.271,880.115 823.5,879C 813.486,873.322 804.32,866.489 796,858.5C 793.241,853.983 790.741,849.317 788.5,844.5C 779.183,840.339 769.683,836.672 760,833.5C 756.486,834.676 753.319,836.509 750.5,839C 745.833,844 741.167,849 736.5,854C 734.702,855.505 732.868,855.672 731,854.5C 729.529,850.419 727.862,846.419 726,842.5C 708.617,855.898 698.95,873.565 697,895.5C 692.405,897.174 688.405,896.174 685,892.5C 687.497,901.161 690.331,909.827 693.5,918.5C 692.575,924.14 689.241,927.307 683.5,928C 685.823,938.296 688.156,948.629 690.5,959C 690.054,964.07 687.387,967.237 682.5,968.5C 685.029,976.559 688.862,983.892 694,990.5C 704.626,998.79 714.959,1007.46 725,1016.5C 736.134,1042.3 731.3,1064.63 710.5,1083.5C 723.184,1101.54 730.85,1121.54 733.5,1143.5C 763.833,1143.5 794.167,1143.5 824.5,1143.5C 824.333,1157.17 824.5,1170.84 825,1184.5C 886.275,1153.63 942.442,1115.46 993.5,1070C 1009.73,1054.44 1025.23,1038.27 1040,1021.5C 1041.22,1016.61 1041.89,1011.61 1042,1006.5C 1045.67,1004.83 1049.33,1003.17 1053,1001.5C 1053.83,995.804 1053.66,990.137 1052.5,984.5C 1049.09,983.362 1045.75,982.029 1042.5,980.5C 1041.33,969.849 1041.17,959.182 1042,948.5C 1054.33,936.833 1066.67,925.167 1079,913.5C 1079.33,910.167 1079.67,906.833 1080,903.5C 1081.25,900.619 1083.42,898.786 1086.5,898C 1093.25,897.123 1099.92,897.456 1106.5,899C 1110.89,903.152 1112.72,908.319 1112,914.5C 1124,925.833 1136,937.167 1148,948.5C 1148.67,959.167 1148.67,969.833 1148,980.5C 1144.67,981.833 1141.33,983.167 1138,984.5C 1137.5,990.491 1137.33,996.491 1137.5,1002.5C 1147.42,1003.95 1151.09,1009.78 1148.5,1020C 1148.17,1024.5 1147.83,1029 1147.5,1033.5C 1144.36,1034.94 1141.19,1036.27 1138,1037.5C 1137.17,1098.5 1137.33,1159.5 1138.5,1220.5C 1160.54,1229.01 1180.87,1240.35 1199.5,1254.5 Z"/></g>
<g><path style="opacity:1" fill="#1d468f" d="M 317.5,240.5 C 317.783,241.289 318.283,241.956 319,242.5C 319.5,235.842 319.666,229.175 319.5,222.5C 322.296,166.284 338.462,114.284 368,66.5C 376.333,53.8333 384.667,41.1667 393,28.5C 396.373,23.7502 400.206,19.4168 404.5,15.5C 404.833,16 405.167,16.5 405.5,17C 398.427,42.3678 393.927,68.2011 392,94.5C 386.972,147.679 391.306,200.012 405,251.5C 420.862,301.663 448.362,344.163 487.5,379C 508.173,397.002 530.506,412.668 554.5,426C 561.596,431.092 568.096,436.926 574,443.5C 585.207,466.248 597.207,488.581 610,510.5C 635.74,549.923 664.907,586.756 697.5,621C 732.187,651.511 769.52,678.344 809.5,701.5C 810.279,695.18 810.445,688.846 810,682.5C 834.617,705.773 854.617,732.439 870,762.5C 874.349,772.246 877.182,782.413 878.5,793C 876.145,803.9 873.479,814.733 870.5,825.5C 871.836,835.524 873.336,845.524 875,855.5C 878.523,870.617 873.356,881.451 859.5,888C 848.131,892.576 836.798,892.576 825.5,888C 830.178,886.324 834.011,883.491 837,879.5C 837.667,878.5 837.667,877.5 837,876.5C 824.79,869.729 813.456,861.729 803,852.5C 800.227,848.185 798.227,843.518 797,838.5C 784.896,832.949 772.563,827.949 760,823.5C 749.264,825.866 741.264,831.866 736,841.5C 734.101,837.379 733.268,833.046 733.5,828.5C 714.489,837.013 700.989,851.013 693,870.5C 691.378,875.032 690.378,879.699 690,884.5C 685.016,879.353 681.516,873.353 679.5,866.5C 679.663,864.143 679.497,861.81 679,859.5C 678.283,860.044 677.783,860.711 677.5,861.5C 675.069,869.318 673.403,877.318 672.5,885.5C 675.963,895.886 679.629,906.22 683.5,916.5C 679.943,916.412 676.61,915.079 673.5,912.5C 673.167,913 672.833,913.5 672.5,914C 674.721,928.936 677.388,943.769 680.5,958.5C 676.762,957.921 673.096,957.921 669.5,958.5C 672.844,968.365 676.677,978.032 681,987.5C 683.377,991.088 685.877,994.588 688.5,998C 698.625,1005.79 708.458,1013.96 718,1022.5C 725.389,1041.79 721.889,1058.96 707.5,1074C 706.036,1075.38 705.036,1075.38 704.5,1074C 710.559,1055.18 708.059,1037.68 697,1021.5C 697.922,1029.84 697.589,1038.17 696,1046.5C 694.972,1051.56 692.639,1055.89 689,1059.5C 688.667,1052.5 688.333,1045.5 688,1038.5C 686.645,1033.62 684.145,1029.45 680.5,1026C 675.167,1022.33 669.833,1018.67 664.5,1015C 660.5,1010 656.5,1005 652.5,1000C 647.179,996.891 641.512,994.558 635.5,993C 625.886,991.302 616.219,989.969 606.5,989C 612.785,984.024 619.785,980.357 627.5,978C 630.833,977.333 634.167,977.333 637.5,978C 641.307,979.881 645.307,981.047 649.5,981.5C 650.385,970.637 646.385,962.137 637.5,956C 619.687,950.024 606.687,938.524 598.5,921.5C 598.833,921.167 599.167,920.833 599.5,920.5C 606.652,923.277 613.985,925.11 621.5,926C 617.301,921.466 612.801,917.299 608,913.5C 604.867,905.296 602.2,896.963 600,888.5C 595.786,884.618 591.286,881.118 586.5,878C 585.551,877.383 584.718,877.549 584,878.5C 580.784,884.264 578.117,890.264 576,896.5C 575.418,913.096 577.252,929.429 581.5,945.5C 577.126,945.971 573.126,944.971 569.5,942.5C 569.167,942.833 568.833,943.167 568.5,943.5C 571.584,953.672 573.917,964.005 575.5,974.5C 569.064,974.467 563.064,972.8 557.5,969.5C 557.264,978.527 560.931,985.694 568.5,991C 590.863,993.64 613.197,996.64 635.5,1000C 638.376,1000.44 641.043,1001.44 643.5,1003C 651.491,1011.14 657.325,1020.64 661,1031.5C 661.667,1034.5 661.667,1037.5 661,1040.5C 653.5,1030.33 644.667,1021.5 634.5,1014C 622.725,1008.65 610.392,1005.99 597.5,1006C 607.267,1008.14 616.6,1011.48 625.5,1016C 630.249,1020.08 634.249,1024.74 637.5,1030C 629.628,1026.38 621.295,1023.71 612.5,1022C 597.532,1019.83 583.199,1021.83 569.5,1028C 563.892,1031.28 558.558,1034.94 553.5,1039C 529.032,1036.64 513.198,1047.14 506,1070.5C 500.405,1063.05 498.072,1054.72 499,1045.5C 500.713,1041.13 503.213,1037.29 506.5,1034C 516.158,1027.91 524.991,1020.74 533,1012.5C 538.691,1004.58 540.025,995.913 537,986.5C 532.611,974.057 527.944,961.723 523,949.5C 521.38,947.759 519.88,945.925 518.5,944C 505.211,936.877 496.545,926.043 492.5,911.5C 493.002,910.479 493.668,910.312 494.5,911C 500.909,916.26 507.909,920.427 515.5,923.5C 514.984,920.101 514.15,916.768 513,913.5C 506.698,908.199 500.698,902.532 495,896.5C 490.879,889.939 487.712,883.272 485.5,876.5C 489.942,879.233 494.609,881.066 499.5,882C 494.706,872.911 490.039,863.745 485.5,854.5C 493.007,849.171 500.674,844.004 508.5,839C 497.615,841.468 486.615,843.802 475.5,846C 452.82,849.222 430.153,849.055 407.5,845.5C 405.5,844.833 403.5,844.167 401.5,843.5C 421.96,826.878 442.293,810.045 462.5,793C 463.696,792.346 463.696,791.846 462.5,791.5C 433.141,807.346 403.141,821.846 372.5,835C 335.076,834.141 298.742,827.308 263.5,814.5C 271.167,813.833 278.833,813.167 286.5,812.5C 324.533,806.815 359.533,793.315 391.5,772C 370.601,776.806 349.601,781.473 328.5,786C 309.137,787.855 289.804,787.855 270.5,786C 241.506,767.675 217.006,744.508 197,716.5C 189.5,705.667 182,694.833 174.5,684C 206.266,698.032 239.266,708.699 273.5,716C 288.455,718.412 303.455,720.078 318.5,721C 302.994,707.09 289.494,691.59 278,674.5C 276.045,671.281 274.712,667.947 274,664.5C 305.37,690.263 341.204,706.43 381.5,713C 415.909,715.147 447.576,706.814 476.5,688C 460.853,686.922 445.186,686.255 429.5,686C 410.645,670.311 391.645,654.811 372.5,639.5C 391.758,633.768 411.425,631.934 431.5,634C 440.948,635.047 450.281,636.381 459.5,638C 439.076,628.561 417.743,622.228 395.5,619C 378.514,618 361.514,617.334 344.5,617C 317.022,595.023 289.688,572.856 262.5,550.5C 263.833,550.167 265.167,549.833 266.5,549.5C 283.807,551.598 301.14,553.098 318.5,554C 291.232,530.069 264.566,505.402 238.5,480C 288.619,483.696 336.619,495.863 382.5,516.5C 383.696,516.154 383.696,515.654 382.5,515C 329.742,479.974 271.742,458.974 208.5,452C 184.016,428.174 158.349,405.841 131.5,385C 163.992,390.083 196.326,396.25 228.5,403.5C 228.833,403.167 229.167,402.833 229.5,402.5C 221.855,393.02 214.021,383.687 206,374.5C 152.185,292.327 130.852,202.327 142,104.5C 142.84,101.536 143.84,101.203 145,103.5C 152.602,136.911 161.602,169.911 172,202.5C 181.553,232.023 197.553,257.356 220,278.5C 214.85,245.088 213.183,211.421 215,177.5C 221.55,123.517 237.55,72.5172 263,24.5C 265.139,21.0607 267.639,17.894 270.5,15C 271.448,14.5172 272.448,14.3505 273.5,14.5C 268.401,79.9748 277.901,143.308 302,204.5C 306.904,216.638 312.07,228.638 317.5,240.5 Z"/></g>
<g><path style="opacity:1" fill="#1c458f" d="M 706.5,544.5 C 705.822,563.264 705.155,582.597 704.5,602.5C 672.679,566.173 644.512,527.173 620,485.5C 621.34,471.788 623.34,458.122 626,444.5C 636.775,464.62 650.608,482.453 667.5,498C 669.691,499.919 672.024,501.253 674.5,502C 655.564,475.3 640.397,446.466 629,415.5C 626.999,354.187 638.332,295.521 663,239.5C 657.875,307.093 669.875,371.427 699,432.5C 694.248,412.008 689.914,391.342 686,370.5C 684.182,355.536 683.182,340.536 683,325.5C 709.307,245.895 755.14,180.061 820.5,128C 842.612,111.222 865.279,95.2224 888.5,80C 893.389,76.7149 898.722,74.8816 904.5,74.5C 904.649,75.552 904.483,76.552 904,77.5C 888.281,95.9355 874.281,115.602 862,136.5C 824.57,174.272 794.57,217.272 772,265.5C 763.358,285.735 757.358,306.735 754,328.5C 753.333,334.167 753.333,339.833 754,345.5C 772.112,295.255 797.445,249.255 830,207.5C 869.072,161.374 918.572,133.541 978.5,124C 997.388,120.795 1016.39,119.461 1035.5,120C 1038.31,120.019 1040.64,121.019 1042.5,123C 1011.49,135.999 982.49,152.332 955.5,172C 934.658,187.666 917.991,206.833 905.5,229.5C 905.833,229.833 906.167,230.167 906.5,230.5C 939.651,210.396 975.651,199.229 1014.5,197C 1038.89,195.937 1063.23,196.604 1087.5,199C 1089.22,199.346 1090.88,199.846 1092.5,200.5C 1093.58,201.365 1093.75,202.365 1093,203.5C 1035.6,227.9 985.597,262.9 943,308.5C 906.19,349.468 884.523,397.468 878,452.5C 826.653,507.841 791.986,572.507 774,646.5C 772.965,655.19 775.131,663.023 780.5,670C 770.61,664.485 761.443,657.652 753,649.5C 753.401,615.102 757.401,581.102 765,547.5C 783.962,458.25 815.295,373.917 859,294.5C 832.695,320.801 811.028,350.468 794,383.5C 763.682,441.289 741.182,501.956 726.5,565.5C 720.519,557.893 713.852,550.893 706.5,544.5 Z"/></g>
<g><path style="opacity:1" fill="#fdfdfe" d="M 435.5,430.5 C 369.102,369.188 340.602,293.188 350,202.5C 353.563,171.582 360.896,141.582 372,112.5C 358.026,183.988 369.359,251.321 406,314.5C 442.713,372.88 490.38,420.213 549,456.5C 558.967,478.445 570.967,499.111 585,518.5C 619.284,563.785 653.951,608.785 689,653.5C 700.255,668.999 710.255,685.332 719,702.5C 719.165,694.313 718.665,686.146 717.5,678C 717.833,676.167 718.167,674.333 718.5,672.5C 730.384,685.585 739.217,700.585 745,717.5C 746.622,705.24 747.956,692.907 749,680.5C 774.2,696.291 797.2,714.958 818,736.5C 818.499,731.845 818.666,727.179 818.5,722.5C 818.198,719.941 818.532,717.607 819.5,715.5C 837.092,737.662 851.926,761.662 864,787.5C 867.198,797.229 866.864,806.895 863,816.5C 861.727,819.597 859.893,822.264 857.5,824.5C 856.833,820.833 856.167,817.167 855.5,813.5C 854.095,807.285 852.095,801.285 849.5,795.5C 849.013,794.527 848.513,793.527 848,792.5C 847.501,797.155 847.334,801.821 847.5,806.5C 847.714,812.381 845.547,817.047 841,820.5C 833.187,800.54 824.021,781.207 813.5,762.5C 811.706,772.998 813.873,782.664 820,791.5C 817.646,802.443 821.146,810.943 830.5,817C 825.768,818.036 821.434,817.203 817.5,814.5C 818.998,819.27 821.832,823.603 826,827.5C 826.688,828.332 826.521,828.998 825.5,829.5C 811.135,820.986 797.469,811.486 784.5,801C 778.916,792.501 773.583,783.834 768.5,775C 757.763,769.882 747.263,764.382 737,758.5C 736.333,759.167 736.333,759.833 737,760.5C 746.11,769.384 753.943,778.718 760.5,788.5C 741.336,777.236 721.003,769.403 699.5,765C 709.359,774.103 719.025,783.437 728.5,793C 708.434,791.75 688.767,788.084 669.5,782C 664.692,779.918 660.025,777.918 655.5,776C 669.687,791.434 687.02,801.767 707.5,807C 686.604,814.563 671.437,828.396 662,848.5C 652.128,873.272 648.128,898.938 650,925.5C 630.292,900.72 622.625,872.72 627,841.5C 607.785,851.747 587.619,854.247 566.5,849C 554.686,867.441 547.853,887.608 546,909.5C 537.554,894.6 532.554,878.6 531,861.5C 530.333,853.5 530.333,845.5 531,837.5C 550.361,823.306 569.861,809.306 589.5,795.5C 560.866,792.669 532.2,790.169 503.5,788C 532.821,765.613 565.821,752.113 602.5,747.5C 612.506,747.666 622.506,747.5 632.5,747C 631.473,746.487 630.473,745.987 629.5,745.5C 603.634,735.307 576.967,732.807 549.5,738C 536.609,740.52 523.942,743.853 511.5,748C 487.738,752.954 464.072,752.62 440.5,747C 455.152,744.504 469.485,740.837 483.5,736C 497.779,729.527 511.779,722.527 525.5,715C 550.795,702.508 577.462,697.675 605.5,700.5C 607.628,701.629 609.961,701.796 612.5,701C 611.473,700.487 610.473,699.987 609.5,699.5C 579.486,685.775 548.153,681.275 515.5,686C 529.192,674.648 544.859,667.315 562.5,664C 554.864,657.185 546.864,650.852 538.5,645C 492.08,615.783 444.08,589.116 394.5,565C 475.861,582.549 550.194,615.549 617.5,664C 634.058,676.221 649.058,690.221 662.5,706C 663.167,706.667 663.833,706.667 664.5,706C 628.423,628.919 573.757,568.585 500.5,525C 436.495,494.914 380.662,453.748 333,401.5C 261.144,314.773 234.144,215.44 252,103.5C 254.038,92.0168 256.704,80.6834 260,69.5C 255.778,124.492 263.445,177.826 283,229.5C 300.968,276.783 324.635,320.783 354,361.5C 372.987,383.492 394.154,402.992 417.5,420C 423.391,423.776 429.391,427.276 435.5,430.5 Z"/></g>
<g><path style="opacity:1" fill="#9caece" d="M 319.5,222.5 C 319.666,229.175 319.5,235.842 319,242.5C 318.283,241.956 317.783,241.289 317.5,240.5C 318.167,234.5 318.833,228.5 319.5,222.5 Z"/></g>
<g><path style="opacity:1" fill="#6a83b5" d="M 435.5,430.5 C 436.756,430.461 437.756,430.961 438.5,432C 437.002,432.585 436.002,432.085 435.5,430.5 Z"/></g>
<g><path style="opacity:1" fill="#bfcadf" d="M 706.5,544.5 C 706.833,564.178 706.5,583.845 705.5,603.5C 704.893,603.376 704.56,603.043 704.5,602.5C 705.155,582.597 705.822,563.264 706.5,544.5 Z"/></g>
<g><path style="opacity:1" fill="#728ab9" d="M 609.5,699.5 C 610.473,699.987 611.473,700.487 612.5,701C 609.961,701.796 607.628,701.629 605.5,700.5C 607.099,700.768 608.432,700.434 609.5,699.5 Z"/></g>
<g><path style="opacity:1" fill="#728bb9" d="M 819.5,715.5 C 818.532,717.607 818.198,719.941 818.5,722.5C 817.2,719.976 817.2,717.309 818.5,714.5C 819.107,714.624 819.44,714.957 819.5,715.5 Z"/></g>
<g><path style="opacity:1" fill="#b4c0da" d="M 629.5,745.5 C 630.473,745.987 631.473,746.487 632.5,747C 622.506,747.5 612.506,747.666 602.5,747.5C 611.5,746.833 620.5,746.167 629.5,745.5 Z"/></g>
<g><path style="opacity:1" fill="#b8c5dc" d="M 849.5,795.5 C 848.833,799.167 848.167,802.833 847.5,806.5C 847.334,801.821 847.501,797.155 848,792.5C 848.513,793.527 849.013,794.527 849.5,795.5 Z"/></g>
<g><path style="opacity:1" fill="#c8d2e4" d="M 286.5,812.5 C 278.833,813.167 271.167,813.833 263.5,814.5C 262.078,814.291 260.745,813.791 259.5,813C 268.494,812.5 277.494,812.334 286.5,812.5 Z"/></g>
<g><path style="opacity:1" fill="#6d86b7" d="M 855.5,813.5 C 856.167,817.167 856.833,820.833 857.5,824.5C 856.998,826.085 855.998,826.585 854.5,826C 855.464,821.934 855.797,817.767 855.5,813.5 Z"/></g>
<g><path style="opacity:1" fill="#fafafc" d="M 802.5,824.5 C 803.601,823.402 804.934,823.235 806.5,824C 816.666,830.166 827.166,835.666 838,840.5C 846.064,839.191 853.897,837.357 861.5,835C 866.617,846.299 868.783,858.132 868,870.5C 864.222,876.989 858.722,881.489 851.5,884C 846.669,886.062 841.669,886.729 836.5,886C 841.819,883.537 844.819,879.37 845.5,873.5C 842.867,863.034 837.534,854.201 829.5,847C 820.627,839.289 811.627,831.789 802.5,824.5 Z"/></g>
<g><path style="opacity:1" fill="#f1f3f8" d="M 812.5,838.5 C 823.642,846.456 831.475,856.789 836,869.5C 830.292,864.123 824.292,859.123 818,854.5C 816.258,849.105 814.424,843.772 812.5,838.5 Z"/></g>
<g><path style="opacity:1" fill="#778fbc" d="M 401.5,843.5 C 403.5,844.167 405.5,844.833 407.5,845.5C 405.076,845.808 402.743,845.474 400.5,844.5C 400.624,843.893 400.957,843.56 401.5,843.5 Z"/></g>
<g><path style="opacity:1" fill="#6e88b7" d="M 679.5,866.5 C 678.833,864.833 678.167,863.167 677.5,861.5C 677.783,860.711 678.283,860.044 679,859.5C 679.497,861.81 679.663,864.143 679.5,866.5 Z"/></g>
<g><path style="opacity:1" fill="#a8a6a7" d="M 104.5,903.5 C 109.844,903.334 115.177,903.501 120.5,904C 121.435,906.381 121.768,908.881 121.5,911.5C 115.167,911.5 108.833,911.5 102.5,911.5C 102.132,908.467 102.798,905.8 104.5,903.5 Z"/></g>
<g><path style="opacity:1" fill="#a8a6a7" d="M 1086.5,903.5 C 1091.84,903.334 1097.18,903.501 1102.5,904C 1104.29,906.106 1104.96,908.606 1104.5,911.5C 1098.17,911.5 1091.83,911.5 1085.5,911.5C 1085.28,908.721 1085.61,906.054 1086.5,903.5 Z"/></g>
<g><path style="opacity:1" fill="#a8a6a7" d="M 102.5,915.5 C 109.175,915.334 115.842,915.5 122.5,916C 134.471,926.97 146.138,938.304 157.5,950C 137.113,943.186 116.113,940.853 94.5,943C 84.4376,944.694 74.7709,947.361 65.5,951C 78.0321,939.3 90.3654,927.466 102.5,915.5 Z"/></g>
<g><path style="opacity:1" fill="#a8a6a7" d="M 1084.5,915.5 C 1091.17,915.334 1097.84,915.5 1104.5,916C 1116.5,927.333 1128.5,938.667 1140.5,950C 1110.14,940.024 1079.81,940.024 1049.5,950C 1061.75,938.919 1073.41,927.419 1084.5,915.5 Z"/></g>
<g><path style="opacity:1" fill="#a8a6a7" d="M 97.5,947.5 C 118.82,946.422 139.486,949.422 159.5,956.5C 159.5,960.5 159.5,964.5 159.5,968.5C 135.789,959.518 111.456,957.352 86.5,962C 79.5997,963.467 72.933,965.633 66.5,968.5C 65.1667,964.5 65.1667,960.5 66.5,956.5C 76.6913,952.605 87.0246,949.605 97.5,947.5 Z"/></g>
<g><path style="opacity:1" fill="#a8a6a7" d="M 1080.5,947.5 C 1101.83,946.315 1122.5,949.315 1142.5,956.5C 1142.67,960.846 1142.5,965.179 1142,969.5C 1110.7,956.566 1079.2,956.233 1047.5,968.5C 1047.5,964.5 1047.5,960.5 1047.5,956.5C 1058.31,952.446 1069.31,949.446 1080.5,947.5 Z"/></g>
<g><path style="opacity:1" fill="#a7a5a6" d="M 98.5,966.5 C 101.833,966.5 105.167,966.5 108.5,966.5C 108.5,976.167 108.5,985.833 108.5,995.5C 104.452,995.395 100.452,995.728 96.5,996.5C 95.8975,986.24 96.5642,976.24 98.5,966.5 Z"/></g>
<g><path style="opacity:1" fill="#aaa9aa" d="M 115.5,966.5 C 119.857,966.586 124.19,966.92 128.5,967.5C 128.5,977.167 128.5,986.833 128.5,996.5C 124.233,996.797 120.066,996.464 116,995.5C 115.5,985.839 115.334,976.172 115.5,966.5 Z"/></g>
<g><path style="opacity:1" fill="#aaa8a9" d="M 1081.5,966.5 C 1084.83,966.5 1088.17,966.5 1091.5,966.5C 1091.5,976.167 1091.5,985.833 1091.5,995.5C 1087.14,995.586 1082.81,995.92 1078.5,996.5C 1078.5,986.833 1078.5,977.167 1078.5,967.5C 1079.79,967.737 1080.79,967.404 1081.5,966.5 Z"/></g>
<g><path style="opacity:1" fill="#aaa8a9" d="M 1098.5,966.5 C 1102.84,966.739 1107.18,967.073 1111.5,967.5C 1111.5,977.167 1111.5,986.833 1111.5,996.5C 1107.18,996.073 1102.84,995.739 1098.5,995.5C 1098.5,985.833 1098.5,976.167 1098.5,966.5 Z"/></g>
<g><path style="opacity:1" fill="#a7a5a6" d="M 83.5,969.5 C 85.1667,969.5 86.8333,969.5 88.5,969.5C 88.5,979.167 88.5,988.833 88.5,998.5C 84.3735,998.572 80.3735,999.239 76.5,1000.5C 76.1682,990.81 76.5016,981.144 77.5,971.5C 79.6568,970.95 81.6568,970.283 83.5,969.5 Z"/></g>
<g><path style="opacity:1" fill="#aaa8a9" d="M 135.5,968.5 C 139.552,969.244 143.552,970.244 147.5,971.5C 148.498,981.144 148.832,990.81 148.5,1000.5C 144.24,999.415 139.906,998.748 135.5,998.5C 135.5,988.5 135.5,978.5 135.5,968.5 Z"/></g>
<g><path style="opacity:1" fill="#a7a5a6" d="M 1070.5,968.5 C 1071.49,978.319 1071.83,988.319 1071.5,998.5C 1067.74,998.652 1064.07,999.319 1060.5,1000.5C 1059.17,990.833 1059.17,981.167 1060.5,971.5C 1063.9,970.283 1067.23,969.283 1070.5,968.5 Z"/></g>
<g><path style="opacity:1" fill="#a7a5a6" d="M 1118.5,968.5 C 1122.42,969.812 1126.42,970.812 1130.5,971.5C 1130.5,981.167 1130.5,990.833 1130.5,1000.5C 1126.62,999.207 1122.62,998.541 1118.5,998.5C 1118.5,988.5 1118.5,978.5 1118.5,968.5 Z"/></g>
<g><path style="opacity:1" fill="#aeacad" d="M 72.5,972.5 C 73.6291,974.628 73.7958,976.961 73,979.5C 70.4552,978.478 67.9552,977.312 65.5,976C 67.9252,974.787 70.2585,973.621 72.5,972.5 Z"/></g>
<g><path style="opacity:1" fill="#acaaab" d="M 151.5,973.5 C 162.167,975.167 162.167,976.833 151.5,978.5C 151.5,976.833 151.5,975.167 151.5,973.5 Z"/></g>
<g><path style="opacity:1" fill="#b0aeaf" d="M 1054.5,972.5 C 1055.73,973.152 1056.39,974.319 1056.5,976C 1056.17,977.167 1055.83,978.333 1055.5,979.5C 1053.17,978.333 1050.83,977.167 1048.5,976C 1050.73,975.059 1052.73,973.892 1054.5,972.5 Z"/></g>
<g><path style="opacity:1" fill="#afaeae" d="M 1133.5,972.5 C 1136.07,973.75 1138.73,974.917 1141.5,976C 1139.17,977.167 1136.83,978.333 1134.5,979.5C 1133.53,977.257 1133.19,974.924 1133.5,972.5 Z"/></g>
<g><path style="opacity:1" fill="#a8a6a7" d="M 95.5,1001.5 C 105.839,1001.33 116.172,1001.5 126.5,1002C 137.922,1002.73 148.756,1005.56 159,1010.5C 159.827,1014.54 159.66,1018.54 158.5,1022.5C 136.244,1013.58 113.244,1011.08 89.5,1015C 81.3253,1016.5 73.492,1019 66,1022.5C 65.2039,1018.25 65.3705,1014.08 66.5,1010C 76.0434,1006.33 85.71,1003.5 95.5,1001.5 Z"/></g>
<g><path style="opacity:1" fill="#a8a6a7" d="M 1080.5,1001.5 C 1101.6,999.621 1121.93,1002.62 1141.5,1010.5C 1142.83,1014.5 1142.83,1018.5 1141.5,1022.5C 1120.98,1013.98 1099.65,1011.15 1077.5,1014C 1067.41,1015.44 1057.74,1018.27 1048.5,1022.5C 1047.2,1018.28 1047.2,1014.12 1048.5,1010C 1058.88,1005.57 1069.55,1002.74 1080.5,1001.5 Z"/></g>
<g><path style="opacity:1" fill="#a7a5a6" d="M 101.5,1019.5 C 103.833,1019.5 106.167,1019.5 108.5,1019.5C 108.5,1038.17 108.5,1056.83 108.5,1075.5C 104.466,1075.5 100.466,1075.84 96.5,1076.5C 96.5,1057.83 96.5,1039.17 96.5,1020.5C 98.4147,1020.78 100.081,1020.45 101.5,1019.5 Z"/></g>
<g><path style="opacity:1" fill="#d0cfd0" d="M 126.5,1020.5 C 123.167,1020.5 119.833,1020.5 116.5,1020.5C 116.5,1038.83 116.5,1057.17 116.5,1075.5C 115.503,1057.01 115.17,1038.34 115.5,1019.5C 119.371,1019.19 123.038,1019.52 126.5,1020.5 Z"/></g>
<g><path style="opacity:1" fill="#a7a5a6" d="M 126.5,1020.5 C 128.487,1038.8 129.154,1057.47 128.5,1076.5C 124.519,1075.98 120.519,1075.65 116.5,1075.5C 116.5,1057.17 116.5,1038.83 116.5,1020.5C 119.833,1020.5 123.167,1020.5 126.5,1020.5 Z"/></g>
<g><path style="opacity:1" fill="#aaa8a9" d="M 1080.5,1019.5 C 1084.17,1019.5 1087.83,1019.5 1091.5,1019.5C 1091.5,1038.17 1091.5,1056.83 1091.5,1075.5C 1087.12,1075.37 1082.79,1075.71 1078.5,1076.5C 1077.87,1057.27 1078.53,1038.27 1080.5,1019.5 Z"/></g>
<g><path style="opacity:1" fill="#aaa8a9" d="M 1098.5,1019.5 C 1102.86,1019.59 1107.19,1019.92 1111.5,1020.5C 1111.5,1039.17 1111.5,1057.83 1111.5,1076.5C 1107.16,1076.26 1102.82,1075.93 1098.5,1075.5C 1098.5,1056.83 1098.5,1038.17 1098.5,1019.5 Z"/></g>
<g><path style="opacity:1" fill="#a7a5a6" d="M 86.5,1022.5 C 88.4869,1040.47 89.1535,1058.8 88.5,1077.5C 84.9299,1078.39 81.2633,1079.39 77.5,1080.5C 76.1667,1061.83 76.1667,1043.17 77.5,1024.5C 80.4466,1023.58 83.4466,1022.91 86.5,1022.5 Z"/></g>
<g><path style="opacity:1" fill="#dbdbdb" d="M 86.5,1022.5 C 87.209,1021.6 88.209,1021.26 89.5,1021.5C 89.8302,1040.34 89.4969,1059.01 88.5,1077.5C 89.1535,1058.8 88.4869,1040.47 86.5,1022.5 Z"/></g>
<g><path style="opacity:1" fill="#aaa8a9" d="M 135.5,1021.5 C 139.892,1022.35 144.225,1023.35 148.5,1024.5C 148.5,1043.17 148.5,1061.83 148.5,1080.5C 144.185,1080.05 140.019,1079.05 136,1077.5C 135.5,1058.84 135.333,1040.17 135.5,1021.5 Z"/></g>
<g><path style="opacity:1" fill="#a7a5a6" d="M 1070.5,1021.5 C 1071.83,1040 1071.83,1058.67 1070.5,1077.5C 1067.1,1078.25 1063.76,1079.25 1060.5,1080.5C 1059.17,1061.83 1059.17,1043.17 1060.5,1024.5C 1063.9,1023.28 1067.23,1022.28 1070.5,1021.5 Z"/></g>
<g><path style="opacity:1" fill="#a7a5a6" d="M 1118.5,1022.5 C 1122.56,1022.85 1126.56,1023.51 1130.5,1024.5C 1130.5,1043.17 1130.5,1061.83 1130.5,1080.5C 1126.62,1079.21 1122.62,1078.54 1118.5,1078.5C 1118.5,1059.83 1118.5,1041.17 1118.5,1022.5 Z"/></g>
<g><path style="opacity:1" fill="#aeacad" d="M 72.5,1025.5 C 73.6291,1027.63 73.7958,1029.96 73,1032.5C 70.4552,1031.48 67.9552,1030.31 65.5,1029C 67.9252,1027.79 70.2585,1026.62 72.5,1025.5 Z"/></g>
<g><path style="opacity:1" fill="#acaaab" d="M 151.5,1026.5 C 162.167,1028.17 162.167,1029.83 151.5,1031.5C 151.5,1029.83 151.5,1028.17 151.5,1026.5 Z"/></g>
<g><path style="opacity:1" fill="#b1afb0" d="M 1054.5,1025.5 C 1055.73,1026.15 1056.39,1027.32 1056.5,1029C 1056.17,1030.17 1055.83,1031.33 1055.5,1032.5C 1053.09,1031.42 1050.75,1030.26 1048.5,1029C 1050.73,1028.06 1052.73,1026.89 1054.5,1025.5 Z"/></g>
<g><path style="opacity:1" fill="#b0afaf" d="M 1133.5,1025.5 C 1136.07,1026.75 1138.73,1027.92 1141.5,1029C 1139.25,1030.26 1136.91,1031.42 1134.5,1032.5C 1133.53,1030.26 1133.19,1027.92 1133.5,1025.5 Z"/></g>
<g><path style="opacity:1" fill="#d3d2d2" d="M 164.5,1036.5 C 174.132,1045.63 183.632,1054.96 193,1064.5C 193.667,1076.83 193.667,1089.17 193,1101.5C 182.176,1092.02 172.843,1081.35 165,1069.5C 164.5,1058.51 164.333,1047.51 164.5,1036.5 Z"/></g>
<g><path style="opacity:1" fill="#a8a6a7" d="M 586.5,1036.5 C 629.835,1033.1 666.335,1047.1 696,1078.5C 720.597,1109.1 730.764,1144.1 726.5,1183.5C 719.167,1183.5 711.833,1183.5 704.5,1183.5C 710.941,1138.9 696.274,1103.07 660.5,1076C 629.58,1056.92 596.914,1053.26 562.5,1065C 520.318,1084.02 498.318,1116.69 496.5,1163C 496.409,1170.25 497.076,1177.42 498.5,1184.5C 491.167,1184.5 483.833,1184.5 476.5,1184.5C 471.748,1137.57 486.415,1098.07 520.5,1066C 539.812,1050.07 561.812,1040.23 586.5,1036.5 Z"/></g>
<g><path style="opacity:1" fill="#d4d3d3" d="M 1041.5,1036.5 C 1042.66,1047.33 1042.83,1058.33 1042,1069.5C 1034.11,1081.22 1024.95,1091.89 1014.5,1101.5C 1013.33,1089.18 1013.17,1076.85 1014,1064.5C 1023.37,1055.3 1032.54,1045.97 1041.5,1036.5 Z"/></g>
<g><path style="opacity:1" fill="#c41630" d="M 587.5,1067.5 C 602.956,1066.17 617.956,1068 632.5,1073C 633.517,1074.05 633.684,1075.22 633,1076.5C 602.352,1086.14 577.519,1103.97 558.5,1130C 557.167,1130.67 555.833,1130.67 554.5,1130C 545.041,1121.58 538.208,1111.41 534,1099.5C 533.333,1098.17 533.333,1096.83 534,1095.5C 549.024,1080.74 566.858,1071.41 587.5,1067.5 Z"/></g>
<g><path style="opacity:1" fill="#d3d2d2" d="M 208.5,1078.5 C 260.177,1122.87 316.844,1160.03 378.5,1190C 379.475,1195.74 379.808,1201.57 379.5,1207.5C 339.832,1207.67 300.165,1207.5 260.5,1207C 228.701,1201.6 196.701,1200.1 164.5,1202.5C 164.167,1168.49 164.5,1134.49 165.5,1100.5C 174.527,1107.36 183.693,1114.03 193,1120.5C 193.5,1130.16 193.666,1139.83 193.5,1149.5C 198.5,1149.5 203.5,1149.5 208.5,1149.5C 208.334,1143.49 208.501,1137.49 209,1131.5C 232.75,1147.46 257.917,1160.96 284.5,1172C 290.425,1174.31 296.425,1175.98 302.5,1177C 269.068,1160.21 237.901,1140.04 209,1116.5C 208.5,1103.84 208.333,1091.17 208.5,1078.5 Z"/></g>
<g><path style="opacity:1" fill="#d3d2d2" d="M 997.5,1078.5 C 998.83,1084.3 999.496,1090.46 999.5,1097C 999.333,1103.17 999.167,1109.33 999,1115.5C 970.328,1138.81 939.495,1158.98 906.5,1176C 927.545,1170.49 947.545,1162.15 966.5,1151C 977.333,1144.75 988,1138.25 998.5,1131.5C 999.496,1137.46 999.829,1143.46 999.5,1149.5C 1004.17,1149.5 1008.83,1149.5 1013.5,1149.5C 1013.17,1139.81 1013.5,1130.14 1014.5,1120.5C 1023.5,1113.83 1032.5,1107.17 1041.5,1100.5C 1042.5,1134.16 1042.83,1167.83 1042.5,1201.5C 1015.33,1200.89 988.331,1202.73 961.5,1207C 915.835,1207.5 870.168,1207.67 824.5,1207.5C 824.193,1201.91 824.527,1196.41 825.5,1191C 888.505,1161.7 945.839,1124.2 997.5,1078.5 Z"/></g>
<g><path style="opacity:1" fill="#a7a5a6" d="M 96.5,1082.5 C 100.5,1082.5 104.5,1082.5 108.5,1082.5C 108.5,1100.5 108.5,1118.5 108.5,1136.5C 104.563,1136.21 100.73,1136.54 97,1137.5C 96.5001,1119.17 96.3334,1100.84 96.5,1082.5 Z"/></g>
<g><path style="opacity:1" fill="#d1d0d1" d="M 122.5,1082.5 C 120.5,1082.5 118.5,1082.5 116.5,1082.5C 116.5,1100.5 116.5,1118.5 116.5,1136.5C 115.503,1118.34 115.17,1100.01 115.5,1081.5C 118.059,1081.2 120.393,1081.53 122.5,1082.5 Z"/></g>
<g><path style="opacity:1" fill="#a7a5a6" d="M 122.5,1082.5 C 124.5,1082.5 126.5,1082.5 128.5,1082.5C 128.5,1100.83 128.5,1119.17 128.5,1137.5C 124.519,1136.98 120.519,1136.65 116.5,1136.5C 116.5,1118.5 116.5,1100.5 116.5,1082.5C 118.5,1082.5 120.5,1082.5 122.5,1082.5 Z"/></g>
<g><path style="opacity:1" fill="#aaa8a9" d="M 1078.5,1082.5 C 1082.83,1082.5 1087.17,1082.5 1091.5,1082.5C 1091.5,1100.5 1091.5,1118.5 1091.5,1136.5C 1087.14,1136.59 1082.81,1136.92 1078.5,1137.5C 1078.5,1119.17 1078.5,1100.83 1078.5,1082.5 Z"/></g>
<g><path style="opacity:1" fill="#a7a6a6" d="M 1108.5,1082.5 C 1110.47,1100.6 1111.13,1118.93 1110.5,1137.5C 1106.52,1136.98 1102.52,1136.65 1098.5,1136.5C 1098.5,1118.5 1098.5,1100.5 1098.5,1082.5C 1101.83,1082.5 1105.17,1082.5 1108.5,1082.5 Z"/></g>
<g><path style="opacity:1" fill="#c4152f" d="M 641.5,1082.5 C 645.514,1082.33 649.514,1082.5 653.5,1083C 666.998,1091.5 677.331,1102.83 684.5,1117C 684.241,1118.26 683.574,1119.26 682.5,1120C 658.922,1123.74 637.922,1133.07 619.5,1148C 614.623,1153.21 609.456,1158.05 604,1162.5C 589.854,1155.76 576.521,1147.76 564,1138.5C 563.333,1137.17 563.333,1135.83 564,1134.5C 583.081,1107.05 608.915,1089.71 641.5,1082.5 Z"/></g>
<g><path style="opacity:1" fill="#c6c5c6" d="M 1108.5,1082.5 C 1109.5,1082.5 1110.5,1082.5 1111.5,1082.5C 1111.83,1101.01 1111.5,1119.34 1110.5,1137.5C 1111.13,1118.93 1110.47,1100.6 1108.5,1082.5 Z"/></g>
<g><path style="opacity:1" fill="#a7a5a6" d="M 83.5,1084.5 C 85.1667,1084.5 86.8333,1084.5 88.5,1084.5C 88.6666,1102.5 88.4999,1120.5 88,1138.5C 84.5742,1139.69 81.0742,1140.69 77.5,1141.5C 76.5004,1123.18 76.1671,1104.85 76.5,1086.5C 79.2282,1086.83 81.5615,1086.16 83.5,1084.5 Z"/></g>
<g><path style="opacity:1" fill="#aaa8a9" d="M 135.5,1084.5 C 139.85,1084.78 144.017,1085.78 148,1087.5C 148.5,1105.5 148.667,1123.5 148.5,1141.5C 144.326,1140.44 140.16,1139.44 136,1138.5C 135.5,1120.5 135.333,1102.5 135.5,1084.5 Z"/></g>
<g><path style="opacity:1" fill="#a7a5a6" d="M 1067.5,1084.5 C 1068.83,1084.5 1070.17,1084.5 1071.5,1084.5C 1071.67,1102.5 1071.5,1120.5 1071,1138.5C 1067.13,1139.34 1063.3,1140.34 1059.5,1141.5C 1059.5,1123.17 1059.5,1104.83 1059.5,1086.5C 1062.37,1086.2 1065.04,1085.53 1067.5,1084.5 Z"/></g>
<g><path style="opacity:1" fill="#a7a5a6" d="M 1118.5,1084.5 C 1122.54,1084.96 1126.54,1085.62 1130.5,1086.5C 1130.5,1104.83 1130.5,1123.17 1130.5,1141.5C 1126.72,1140.97 1123.05,1139.97 1119.5,1138.5C 1118.5,1120.51 1118.17,1102.51 1118.5,1084.5 Z"/></g>
<g><path style="opacity:1" fill="#c4162f" d="M 524.5,1106.5 C 526.722,1106.18 528.556,1106.84 530,1108.5C 537.014,1122.01 546.514,1133.51 558.5,1143C 572.539,1153.36 587.372,1162.52 603,1170.5C 608.439,1184.83 609.606,1199.33 606.5,1214C 568.087,1208.23 537.921,1189.4 516,1157.5C 513.482,1152.46 510.982,1147.46 508.5,1142.5C 511.677,1129.48 517.01,1117.48 524.5,1106.5 Z"/></g>
<g><path style="opacity:1" fill="#c51830" d="M 682.5,1126.5 C 685.365,1126.05 687.865,1126.72 690,1128.5C 702.375,1165.66 695.708,1199 670,1228.5C 667.942,1230.07 665.775,1231.4 663.5,1232.5C 661.5,1232.5 660.5,1231.5 660.5,1229.5C 673.102,1198.1 673.769,1166.43 662.5,1134.5C 662.59,1132.57 663.59,1131.41 665.5,1131C 671.236,1129.28 676.903,1127.78 682.5,1126.5 Z"/></g>
<g><path style="opacity:1" fill="#c4152f" d="M 651.5,1135.5 C 654.238,1134.96 656.072,1135.96 657,1138.5C 665.619,1165.53 665.619,1192.53 657,1219.5C 652.285,1231.1 645.451,1241.27 636.5,1250C 626.067,1254.96 615.067,1257.13 603.5,1256.5C 603.34,1254.8 603.506,1253.13 604,1251.5C 613.364,1234.32 617.03,1215.99 615,1196.5C 613.858,1186.64 612.191,1176.98 610,1167.5C 621.688,1153.97 635.522,1143.3 651.5,1135.5 Z"/></g>
<g><path style="opacity:1" fill="#a7a5a6" d="M 96.5,1143.5 C 100.5,1143.5 104.5,1143.5 108.5,1143.5C 108.833,1166.18 108.5,1188.84 107.5,1211.5C 104.167,1212.5 100.833,1213.5 97.5,1214.5C 96.5003,1190.84 96.1669,1167.18 96.5,1143.5 Z"/></g>
<g><path style="opacity:1" fill="#aaa8a9" d="M 115.5,1143.5 C 119.833,1143.5 124.167,1143.5 128.5,1143.5C 128.5,1164.83 128.5,1186.17 128.5,1207.5C 124.167,1208.17 119.833,1208.83 115.5,1209.5C 115.5,1187.5 115.5,1165.5 115.5,1143.5 Z"/></g>
<g><path style="opacity:1" fill="#a9a7a8" d="M 1078.5,1143.5 C 1082.83,1143.5 1087.17,1143.5 1091.5,1143.5C 1091.5,1164.83 1091.5,1186.17 1091.5,1207.5C 1087.36,1207.67 1083.36,1207 1079.5,1205.5C 1078.5,1184.84 1078.17,1164.18 1078.5,1143.5 Z"/></g>
<g><path style="opacity:1" fill="#aaa8a9" d="M 1098.5,1143.5 C 1102.77,1143.2 1106.93,1143.54 1111,1144.5C 1111.5,1167.16 1111.67,1189.83 1111.5,1212.5C 1107.29,1211.03 1102.96,1210.03 1098.5,1209.5C 1098.5,1187.5 1098.5,1165.5 1098.5,1143.5 Z"/></g>
<g><path style="opacity:1" fill="#a7a5a6" d="M 1069.5,1145.5 C 1071.49,1164.8 1072.15,1184.47 1071.5,1204.5C 1067.5,1204.17 1063.5,1203.83 1059.5,1203.5C 1059.17,1185.15 1059.5,1166.82 1060.5,1148.5C 1063.51,1147.18 1066.51,1146.18 1069.5,1145.5 Z"/></g>
<g><path style="opacity:1" fill="#a7a5a6" d="M 1130.5,1148.5 C 1130.83,1171.67 1130.5,1194.67 1129.5,1217.5C 1125.83,1217.04 1122.33,1216.04 1119,1214.5C 1118.17,1191.49 1118.33,1168.49 1119.5,1145.5C 1123.14,1146.66 1126.8,1147.66 1130.5,1148.5 Z"/></g>
<g><path style="opacity:1" fill="#a7a5a6" d="M 84.5,1145.5 C 85.8333,1145.5 87.1667,1145.5 88.5,1145.5C 88.6666,1169.17 88.5,1192.84 88,1216.5C 84.2679,1217.63 80.6012,1218.97 77,1220.5C 76.3333,1196.5 76.3333,1172.5 77,1148.5C 79.7555,1147.93 82.2555,1146.93 84.5,1145.5 Z"/></g>
<g><path style="opacity:1" fill="#aaa8a9" d="M 135.5,1145.5 C 139.922,1146.18 144.256,1147.18 148.5,1148.5C 148.5,1167.17 148.5,1185.83 148.5,1204.5C 144.176,1204.93 139.842,1205.26 135.5,1205.5C 135.5,1185.5 135.5,1165.5 135.5,1145.5 Z"/></g>
<g><path style="opacity:1" fill="#d8d7d7" d="M 1130.5,1148.5 C 1131.83,1171.67 1131.83,1195 1130.5,1218.5C 1129.89,1218.38 1129.56,1218.04 1129.5,1217.5C 1130.5,1194.67 1130.83,1171.67 1130.5,1148.5 Z"/></g>
<g><path style="opacity:1" fill="#cecdce" d="M 469.5,1152.5 C 442.167,1152.5 414.833,1152.5 387.5,1152.5C 387.5,1162.83 387.5,1173.17 387.5,1183.5C 414.833,1183.5 442.167,1183.5 469.5,1183.5C 442.005,1184.5 414.338,1184.83 386.5,1184.5C 386.5,1173.5 386.5,1162.5 386.5,1151.5C 414.338,1151.17 442.005,1151.5 469.5,1152.5 Z"/></g>
<g><path style="opacity:1" fill="#cac9c9" d="M 816.5,1152.5 C 789.167,1152.5 761.833,1152.5 734.5,1152.5C 734.5,1162.83 734.5,1173.17 734.5,1183.5C 733.506,1173.01 733.172,1162.35 733.5,1151.5C 761.338,1151.17 789.005,1151.5 816.5,1152.5 Z"/></g>
<g><path style="opacity:1" fill="#a6a5a5" d="M 469.5,1152.5 C 469.5,1162.83 469.5,1173.17 469.5,1183.5C 442.167,1183.5 414.833,1183.5 387.5,1183.5C 387.5,1173.17 387.5,1162.83 387.5,1152.5C 414.833,1152.5 442.167,1152.5 469.5,1152.5 Z"/></g>
<g><path style="opacity:1" fill="#a6a5a5" d="M 816.5,1152.5 C 816.5,1162.83 816.5,1173.17 816.5,1183.5C 789.167,1183.5 761.833,1183.5 734.5,1183.5C 734.5,1173.17 734.5,1162.83 734.5,1152.5C 761.833,1152.5 789.167,1152.5 816.5,1152.5 Z"/></g>
<g><path style="opacity:1" fill="#c4162f" d="M 507.5,1163.5 C 509.199,1163.34 510.866,1163.51 512.5,1164C 528.775,1187.64 550.441,1204.31 577.5,1214C 586.938,1217.23 596.438,1220.07 606,1222.5C 605.441,1235.46 600.608,1246.62 591.5,1256C 555.28,1251.45 529.446,1232.62 514,1199.5C 508.904,1187.91 506.737,1175.91 507.5,1163.5 Z"/></g>
<g><path style="opacity:1" fill="#a7a5a6" d="M 387.5,1191.5 C 393.5,1191.5 399.5,1191.5 405.5,1191.5C 405.5,1206.83 405.5,1222.17 405.5,1237.5C 399.5,1237.5 393.5,1237.5 387.5,1237.5C 387.5,1222.17 387.5,1206.83 387.5,1191.5 Z"/></g>
<g><path style="opacity:1" fill="#a8a6a7" d="M 412.5,1191.5 C 416.833,1191.5 421.167,1191.5 425.5,1191.5C 425.5,1206.83 425.5,1222.17 425.5,1237.5C 421.167,1237.5 416.833,1237.5 412.5,1237.5C 412.5,1222.17 412.5,1206.83 412.5,1191.5 Z"/></g>
<g><path style="opacity:1" fill="#aaa8a9" d="M 432.5,1191.5 C 436.833,1191.5 441.167,1191.5 445.5,1191.5C 445.5,1206.83 445.5,1222.17 445.5,1237.5C 441.167,1237.5 436.833,1237.5 432.5,1237.5C 432.5,1222.17 432.5,1206.83 432.5,1191.5 Z"/></g>
<g><path style="opacity:1" fill="#a6a5a5" d="M 453.5,1191.5 C 458.833,1191.5 464.167,1191.5 469.5,1191.5C 469.5,1206.83 469.5,1222.17 469.5,1237.5C 464.167,1237.5 458.833,1237.5 453.5,1237.5C 453.5,1222.17 453.5,1206.83 453.5,1191.5 Z"/></g>
<g><path style="opacity:1" fill="#a7a5a6" d="M 476.5,1191.5 C 484.5,1191.5 492.5,1191.5 500.5,1191.5C 513.575,1233.72 541.909,1258.89 585.5,1267C 635.395,1271.7 672.229,1252.2 696,1208.5C 698.425,1202.99 700.259,1197.33 701.5,1191.5C 709.833,1191.5 718.167,1191.5 726.5,1191.5C 726.5,1230.83 726.5,1270.17 726.5,1309.5C 641.913,1340.86 558.913,1337.19 477.5,1298.5C 476.5,1262.84 476.167,1227.17 476.5,1191.5 Z"/></g>
<g><path style="opacity:1" fill="#a6a5a5" d="M 734.5,1191.5 C 740.5,1191.5 746.5,1191.5 752.5,1191.5C 752.5,1206.83 752.5,1222.17 752.5,1237.5C 746.5,1237.5 740.5,1237.5 734.5,1237.5C 734.5,1222.17 734.5,1206.83 734.5,1191.5 Z"/></g>
<g><path style="opacity:1" fill="#a9a7a8" d="M 759.5,1191.5 C 763.833,1191.5 768.167,1191.5 772.5,1191.5C 772.5,1206.83 772.5,1222.17 772.5,1237.5C 768.167,1237.5 763.833,1237.5 759.5,1237.5C 759.5,1222.17 759.5,1206.83 759.5,1191.5 Z"/></g>
<g><path style="opacity:1" fill="#a9a7a8" d="M 779.5,1191.5 C 783.833,1191.5 788.167,1191.5 792.5,1191.5C 792.5,1206.83 792.5,1222.17 792.5,1237.5C 788.167,1237.5 783.833,1237.5 779.5,1237.5C 779.5,1222.17 779.5,1206.83 779.5,1191.5 Z"/></g>
<g><path style="opacity:1" fill="#a6a5a5" d="M 800.5,1191.5 C 805.833,1191.5 811.167,1191.5 816.5,1191.5C 816.5,1206.83 816.5,1222.17 816.5,1237.5C 811.167,1237.5 805.833,1237.5 800.5,1237.5C 800.5,1222.17 800.5,1206.83 800.5,1191.5 Z"/></g>
<g><path style="opacity:1" fill="#c31730" d="M 122.5,1423.5 C 121.833,1414.5 121.167,1405.5 120.5,1396.5C 114.811,1397.11 109.144,1397.95 103.5,1399C 90.2537,1401.77 78.7537,1398.61 69,1389.5C 67.4379,1387.04 66.4379,1384.38 66,1381.5C 64.4582,1337.86 50.4582,1298.86 24,1264.5C 20.5,1261 17,1257.5 13.5,1254C 89.4498,1216.1 169.45,1202.77 253.5,1214C 282.447,1220.54 310.447,1229.87 337.5,1242C 378.409,1260.79 419.076,1280.12 459.5,1300C 490.921,1314.92 523.588,1326.25 557.5,1334C 605.896,1342.81 653.563,1339.81 700.5,1325C 737.098,1312.87 772.098,1297.2 805.5,1278C 826.885,1264.64 848.885,1252.31 871.5,1241C 946.688,1210.93 1024.02,1203.59 1103.5,1219C 1134.61,1226.25 1162.94,1239.25 1188.5,1258C 1165.08,1287.01 1149.25,1319.85 1141,1356.5C 1138.48,1369.5 1136.14,1382.5 1134,1395.5C 1130.09,1401.39 1124.59,1404.89 1117.5,1406C 1105.22,1407.4 1093.22,1406.23 1081.5,1402.5C 1079.81,1411.74 1078.65,1421.07 1078,1430.5C 1072,1424.83 1064.83,1421.66 1056.5,1421C 1049.83,1420.33 1043.17,1420.33 1036.5,1421C 1027.68,1423.79 1018.68,1424.79 1009.5,1424C 1001.14,1419.27 997.97,1412.11 1000,1402.5C 1001,1400.5 1002,1398.5 1003,1396.5C 1014.04,1388.46 1023.38,1378.79 1031,1367.5C 1033.36,1364.11 1035.19,1360.45 1036.5,1356.5C 1019.03,1355.35 1001.7,1356.52 984.5,1360C 950.368,1368.49 917.368,1380.15 885.5,1395C 851.713,1411.89 817.713,1428.23 783.5,1444C 721.52,1471.89 656.52,1486.05 588.5,1486.5C 536.637,1486.37 487.304,1475.2 440.5,1453C 401.344,1433.26 362.344,1413.26 323.5,1393C 285.282,1374.04 244.949,1362.37 202.5,1358C 190.167,1357.33 177.833,1357.33 165.5,1358C 174.117,1370.72 184.45,1381.88 196.5,1391.5C 203.634,1401.25 202.968,1410.42 194.5,1419C 191.078,1420.87 187.411,1421.7 183.5,1421.5C 176.37,1420.6 169.37,1419.1 162.5,1417C 148.095,1413.29 134.761,1415.46 122.5,1423.5 Z"/></g>
<g><path style="opacity:1" fill="#abaaab" d="M 290.5,1215.5 C 306.658,1214.5 322.991,1214.17 339.5,1214.5C 339.666,1221.17 339.5,1227.84 339,1234.5C 323.103,1227.48 306.936,1221.15 290.5,1215.5 Z"/></g>
<g><path style="opacity:1" fill="#a9a7a8" d="M 346.5,1215.5 C 350.833,1215.5 355.167,1215.5 359.5,1215.5C 359.832,1224.52 359.498,1233.52 358.5,1242.5C 354.749,1241.03 351.083,1239.36 347.5,1237.5C 346.503,1230.2 346.169,1222.86 346.5,1215.5 Z"/></g>
<g><path style="opacity:1" fill="#a9a7a8" d="M 366.5,1215.5 C 370.833,1215.5 375.167,1215.5 379.5,1215.5C 379.832,1227.52 379.499,1239.52 378.5,1251.5C 374.749,1250.03 371.083,1248.36 367.5,1246.5C 366.501,1236.19 366.168,1225.85 366.5,1215.5 Z"/></g>
<g><path style="opacity:1" fill="#a7a5a6" d="M 824.5,1215.5 C 828.833,1215.5 833.167,1215.5 837.5,1215.5C 837.667,1227.17 837.5,1238.84 837,1250.5C 833.25,1252.96 829.417,1255.29 825.5,1257.5C 824.501,1243.52 824.167,1229.52 824.5,1215.5 Z"/></g>
<g><path style="opacity:1" fill="#a9a7a8" d="M 845.5,1215.5 C 849.833,1215.5 854.167,1215.5 858.5,1215.5C 858.831,1223.2 858.497,1230.86 857.5,1238.5C 853.673,1240.25 850.007,1242.25 846.5,1244.5C 845.502,1234.86 845.168,1225.19 845.5,1215.5 Z"/></g>
<g><path style="opacity:1" fill="#a7a5a6" d="M 865.5,1215.5 C 883.17,1215.33 900.836,1215.5 918.5,1216C 900.636,1220.68 883.303,1226.84 866.5,1234.5C 865.504,1228.2 865.17,1221.87 865.5,1215.5 Z"/></g>
<g><path style="opacity:1" fill="#1e458f" d="M 181.5,1220.5 C 214.449,1219.33 246.782,1223.16 278.5,1232C 298.145,1238.55 317.478,1245.88 336.5,1254C 373.878,1270.9 410.878,1288.57 447.5,1307C 478.981,1322.16 511.648,1334.16 545.5,1343C 598.732,1354.45 651.399,1352.12 703.5,1336C 728.968,1327.96 753.635,1317.96 777.5,1306C 809.995,1288.25 842.328,1270.25 874.5,1252C 942.846,1223.9 1013.51,1215.57 1086.5,1227C 1117.39,1232.13 1145.73,1243.3 1171.5,1260.5C 1147.25,1294.73 1132.08,1332.73 1126,1374.5C 1095.08,1353.73 1060.92,1343.73 1023.5,1344.5C 1001.02,1344.97 979.015,1348.47 957.5,1355C 938.192,1361.21 919.192,1368.21 900.5,1376C 863.122,1392.9 826.122,1410.57 789.5,1429C 739.918,1452.19 687.918,1466.86 633.5,1473C 564.778,1480.88 499.444,1469.55 437.5,1439C 411.184,1425.84 385.184,1412.18 359.5,1398C 323.005,1378.28 284.672,1363.28 244.5,1353C 200.632,1342.45 156.966,1343.12 113.5,1355C 100.919,1358.86 88.7525,1363.69 77,1369.5C 73.1687,1328.54 58.8353,1291.87 34,1259.5C 33.2506,1258.36 33.4173,1257.36 34.5,1256.5C 81.7342,1236.77 130.734,1224.77 181.5,1220.5 Z"/></g>
<g><path style="opacity:1" fill="#acaaab" d="M 386.5,1244.5 C 392.833,1244.5 399.167,1244.5 405.5,1244.5C 405.83,1251.2 405.497,1257.87 404.5,1264.5C 398.817,1261.22 392.984,1258.22 387,1255.5C 386.501,1251.85 386.335,1248.18 386.5,1244.5 Z"/></g>
<g><path style="opacity:1" fill="#aaa8a9" d="M 412.5,1244.5 C 416.833,1244.5 421.167,1244.5 425.5,1244.5C 425.666,1254.51 425.5,1264.51 425,1274.5C 421.245,1272.37 417.412,1270.37 413.5,1268.5C 412.502,1260.53 412.169,1252.53 412.5,1244.5 Z"/></g>
<g><path style="opacity:1" fill="#aaa8a9" d="M 432.5,1244.5 C 436.833,1244.5 441.167,1244.5 445.5,1244.5C 445.667,1257.84 445.5,1271.17 445,1284.5C 441.245,1282.37 437.412,1280.37 433.5,1278.5C 432.501,1267.19 432.168,1255.85 432.5,1244.5 Z"/></g>
<g><path style="opacity:1" fill="#a8a6a7" d="M 452.5,1244.5 C 458.167,1244.5 463.833,1244.5 469.5,1244.5C 469.5,1261.17 469.5,1277.83 469.5,1294.5C 463.844,1292.59 458.344,1290.26 453,1287.5C 452.5,1273.17 452.333,1258.84 452.5,1244.5 Z"/></g>
<g><path style="opacity:1" fill="#d7d7d7" d="M 752.5,1245.5 C 746.5,1245.5 740.5,1245.5 734.5,1245.5C 734.5,1265.5 734.5,1285.5 734.5,1305.5C 733.503,1285.34 733.17,1265.01 733.5,1244.5C 740.022,1244.18 746.355,1244.51 752.5,1245.5 Z"/></g>
<g><path style="opacity:1" fill="#a7a5a6" d="M 752.5,1245.5 C 752.667,1262.84 752.5,1280.17 752,1297.5C 746.215,1300.31 740.382,1302.98 734.5,1305.5C 734.5,1285.5 734.5,1265.5 734.5,1245.5C 740.5,1245.5 746.5,1245.5 752.5,1245.5 Z"/></g>
<g><path style="opacity:1" fill="#cdcbcc" d="M 772.5,1245.5 C 768.5,1245.5 764.5,1245.5 760.5,1245.5C 760.17,1261.68 760.504,1277.68 761.5,1293.5C 761.44,1294.04 761.107,1294.38 760.5,1294.5C 759.501,1277.85 759.167,1261.18 759.5,1244.5C 764.032,1244.18 768.366,1244.52 772.5,1245.5 Z"/></g>
<g><path style="opacity:1" fill="#a7a5a6" d="M 772.5,1245.5 C 772.833,1259.85 772.499,1274.18 771.5,1288.5C 768.14,1290.18 764.807,1291.85 761.5,1293.5C 760.504,1277.68 760.17,1261.68 760.5,1245.5C 764.5,1245.5 768.5,1245.5 772.5,1245.5 Z"/></g>
<g><path style="opacity:1" fill="#aaa8a9" d="M 779.5,1244.5 C 783.833,1244.5 788.167,1244.5 792.5,1244.5C 792.667,1255.51 792.5,1266.51 792,1277.5C 788.245,1279.63 784.412,1281.63 780.5,1283.5C 779.501,1270.52 779.168,1257.52 779.5,1244.5 Z"/></g>
<g><path style="opacity:1" fill="#a7a5a6" d="M 800.5,1245.5 C 805.833,1245.5 811.167,1245.5 816.5,1245.5C 816.829,1251.54 816.496,1257.54 815.5,1263.5C 810.751,1266.63 805.917,1269.63 801,1272.5C 800.5,1263.51 800.334,1254.51 800.5,1245.5 Z"/></g>
<g><path style="opacity:1" fill="#fcfcfd" d="M 173.5,1246.5 C 186.216,1246.74 198.883,1247.57 211.5,1249C 229.252,1255.01 234.752,1266.84 228,1284.5C 225.1,1288.73 221.6,1292.23 217.5,1295C 221.75,1303.58 226.416,1311.91 231.5,1320C 223.503,1321.56 215.503,1322.06 207.5,1321.5C 204.273,1314.05 200.773,1306.71 197,1299.5C 195.644,1298.62 194.144,1298.29 192.5,1298.5C 192.167,1305.83 191.833,1313.17 191.5,1320.5C 184.155,1320.37 176.822,1320.04 169.5,1319.5C 171.656,1295.22 172.99,1270.89 173.5,1246.5 Z"/></g>
<g><path style="opacity:1" fill="#fbfbfd" d="M 1051.5,1246.5 C 1061.92,1245.75 1071.75,1247.75 1081,1252.5C 1080.62,1259.04 1079.12,1265.38 1076.5,1271.5C 1062.3,1260.07 1051.8,1262.74 1045,1279.5C 1043.93,1302.05 1054.1,1309.72 1075.5,1302.5C 1075.5,1308.5 1075.5,1314.5 1075.5,1320.5C 1064.82,1323.3 1054.15,1323.13 1043.5,1320C 1033.51,1316.01 1027.01,1308.84 1024,1298.5C 1019.75,1280.66 1024.25,1265.49 1037.5,1253C 1042.15,1250.51 1046.81,1248.34 1051.5,1246.5 Z"/></g>
<g><path style="opacity:1" fill="#fbfbfd" d="M 984.5,1247.5 C 985.5,1247.5 986.5,1247.5 987.5,1247.5C 988.506,1253.51 989.506,1259.51 990.5,1265.5C 982.319,1266.59 974.319,1268.42 966.5,1271C 967.54,1274.4 968.206,1277.9 968.5,1281.5C 974.442,1280.08 980.442,1279.24 986.5,1279C 989.397,1284.19 991.397,1289.69 992.5,1295.5C 986.132,1296.37 979.799,1297.37 973.5,1298.5C 974.293,1306.26 975.626,1313.92 977.5,1321.5C 977.167,1322.5 976.833,1323.5 976.5,1324.5C 969.968,1326.48 963.302,1327.81 956.5,1328.5C 951.5,1304.5 946.5,1280.5 941.5,1256.5C 956.08,1254.12 970.414,1251.12 984.5,1247.5 Z"/></g>
<g><path style="opacity:1" fill="#fbfcfd" d="M 126.5,1249.5 C 133.202,1249.34 139.869,1249.67 146.5,1250.5C 146.83,1256.87 146.496,1263.2 145.5,1269.5C 139.208,1267.1 132.875,1266.94 126.5,1269C 119.866,1273.9 117.366,1280.4 119,1288.5C 120.865,1302.5 128.699,1308.34 142.5,1306C 146.537,1304.46 150.204,1302.3 153.5,1299.5C 155.884,1304.31 157.884,1309.31 159.5,1314.5C 158.099,1317.56 155.765,1319.72 152.5,1321C 124.161,1332.57 105.994,1323.74 98,1294.5C 94.3975,1271.01 103.897,1256.01 126.5,1249.5 Z"/></g>
<g><path style="opacity:1" fill="#fbfbfd" d="M 241.5,1253.5 C 249.167,1254.17 256.833,1254.83 264.5,1255.5C 266.071,1265.69 268.237,1275.69 271,1285.5C 277.167,1278.67 283.333,1271.83 289.5,1265C 297.268,1265.86 304.935,1267.52 312.5,1270C 299.637,1282.53 287.137,1295.36 275,1308.5C 272.358,1316.4 270.025,1324.4 268,1332.5C 267.275,1333.06 266.442,1333.39 265.5,1333.5C 259.964,1331.56 254.297,1330.06 248.5,1329C 247.572,1328.61 246.905,1327.95 246.5,1327C 249.273,1318.97 251.607,1310.8 253.5,1302.5C 249.342,1286.2 245.342,1269.87 241.5,1253.5 Z"/></g>
<g><path style="opacity:1" fill="#264b92" d="M 194.5,1263.5 C 208.378,1262.85 212.378,1268.68 206.5,1281C 202.414,1283.05 198.08,1283.89 193.5,1283.5C 193.713,1276.83 194.046,1270.16 194.5,1263.5 Z"/></g>
<g><path style="opacity:1" fill="#fbfcfd" d="M 898.5,1271.5 C 900.411,1271.57 901.578,1272.57 902,1274.5C 903.971,1278.74 905.305,1283.07 906,1287.5C 898.517,1290.66 891.017,1293.83 883.5,1297C 882.483,1298.05 882.316,1299.22 883,1300.5C 883.862,1302.09 884.529,1303.75 885,1305.5C 885.561,1306.02 886.228,1306.36 887,1306.5C 892.953,1304.46 898.786,1302.13 904.5,1299.5C 907.5,1304.17 910.5,1308.83 913.5,1313.5C 907.101,1317.03 900.434,1320.03 893.5,1322.5C 893.31,1326.5 894.643,1330.17 897.5,1333.5C 905.977,1329.59 914.643,1326.26 923.5,1323.5C 924.808,1328.92 926.808,1334.09 929.5,1339C 914.5,1345.17 899.5,1351.33 884.5,1357.5C 883.201,1356.91 882.368,1355.91 882,1354.5C 873.46,1333.05 864.626,1311.71 855.5,1290.5C 869.817,1283.96 884.151,1277.62 898.5,1271.5 Z"/></g>
<g><path style="opacity:1" fill="#fafafa" d="M 576.5,1278.5 C 590.328,1278.18 595.495,1284.85 592,1298.5C 588.845,1306.34 583.011,1310.67 574.5,1311.5C 574.215,1309.71 574.548,1308.05 575.5,1306.5C 580.839,1305.31 584.339,1302.31 586,1297.5C 574.458,1301.97 569.125,1297.97 570,1285.5C 571.694,1282.64 573.861,1280.31 576.5,1278.5 Z"/></g>
<g><path style="opacity:1" fill="#fafafa" d="M 607.5,1278.5 C 616.728,1277.02 622.561,1280.69 625,1289.5C 626.098,1295.86 625.098,1301.86 622,1307.5C 617.909,1311.3 613.076,1312.47 607.5,1311C 604.272,1309.44 602.105,1306.94 601,1303.5C 597.444,1293.49 599.611,1285.15 607.5,1278.5 Z"/></g>
<g><path style="opacity:1" fill="#fbfcfd" d="M 322.5,1279.5 C 338.426,1279.08 351.426,1284.91 361.5,1297C 358.712,1302.07 355.546,1306.91 352,1311.5C 346.684,1304.34 339.851,1299.34 331.5,1296.5C 327.293,1297.98 326.46,1300.64 329,1304.5C 335.032,1310.2 340.699,1316.2 346,1322.5C 350.727,1336.88 346.227,1347.38 332.5,1354C 314.817,1354.83 300.15,1348.5 288.5,1335C 291.71,1330.08 295.043,1325.25 298.5,1320.5C 303.726,1325.9 309.392,1330.73 315.5,1335C 319.149,1337.91 322.815,1338.08 326.5,1335.5C 327.762,1333.42 327.595,1331.42 326,1329.5C 319.968,1323.8 314.301,1317.8 309,1311.5C 303.9,1296.71 308.4,1286.04 322.5,1279.5 Z"/></g>
<g><path style="opacity:1" fill="#fdfdfd" d="M 553.5,1279.5 C 556.167,1279.5 558.833,1279.5 561.5,1279.5C 561.5,1290.17 561.5,1300.83 561.5,1311.5C 559.5,1311.5 557.5,1311.5 555.5,1311.5C 555.5,1302.83 555.5,1294.17 555.5,1285.5C 553.323,1285.59 551.323,1286.25 549.5,1287.5C 548.369,1285.93 548.202,1284.26 549,1282.5C 550.652,1281.6 552.152,1280.6 553.5,1279.5 Z"/></g>
<g><path style="opacity:1" fill="#fafafa" d="M 633.5,1279.5 C 639.833,1279.5 646.167,1279.5 652.5,1279.5C 652.5,1281.17 652.5,1282.83 652.5,1284.5C 647.833,1284.5 643.167,1284.5 638.5,1284.5C 638.5,1286.83 638.5,1289.17 638.5,1291.5C 651.569,1289.73 656.069,1295.06 652,1307.5C 650.681,1309.49 648.848,1310.65 646.5,1311C 641.713,1311.88 637.047,1311.55 632.5,1310C 631.724,1308.23 631.89,1306.4 633,1304.5C 636.967,1306.39 641.134,1306.89 645.5,1306C 648.082,1302.96 648.082,1299.96 645.5,1297C 641.514,1296.5 637.514,1296.33 633.5,1296.5C 633.5,1290.83 633.5,1285.17 633.5,1279.5 Z"/></g>
<g><path style="opacity:1" fill="#a9a7a8" d="M 577.5,1283.5 C 584.12,1282.95 587.286,1285.95 587,1292.5C 576.697,1296.7 573.53,1293.7 577.5,1283.5 Z"/></g>
<g><path style="opacity:1" fill="#aaa8a9" d="M 609.5,1283.5 C 613.49,1282.62 616.323,1283.95 618,1287.5C 620.429,1294.16 619.596,1300.33 615.5,1306C 610.404,1307.58 607.237,1305.75 606,1300.5C 604.578,1294.21 605.744,1288.54 609.5,1283.5 Z"/></g>
<g><path style="opacity:1" fill="#fbfcfd" d="M 372.5,1298.5 C 380.373,1301.43 388.039,1304.93 395.5,1309C 405.853,1314.17 415.853,1319.84 425.5,1326C 423.792,1331.62 421.792,1337.12 419.5,1342.5C 413.992,1339.25 408.325,1336.25 402.5,1333.5C 393.508,1348.81 385.008,1364.48 377,1380.5C 376.439,1381.02 375.772,1381.36 375,1381.5C 369.594,1378.55 364.094,1375.71 358.5,1373C 357.978,1372.44 357.645,1371.77 357.5,1371C 365.571,1354.86 373.904,1338.86 382.5,1323C 376.555,1320.04 370.889,1316.7 365.5,1313C 367.724,1308.05 370.058,1303.22 372.5,1298.5 Z"/></g>
<g><path style="opacity:1" fill="#fafbfd" d="M 836.5,1298.5 C 839.119,1298.23 841.619,1298.56 844,1299.5C 846.221,1304.99 847.721,1310.66 848.5,1316.5C 827.182,1316.8 820.682,1326.8 829,1346.5C 834.926,1356.25 843.093,1358.75 853.5,1354C 857.34,1351.33 860.673,1348.16 863.5,1344.5C 866.806,1347.77 869.639,1351.43 872,1355.5C 872.982,1356.76 873.315,1358.09 873,1359.5C 859.959,1374.41 844.125,1378.91 825.5,1373C 811.821,1363.48 804.488,1350.32 803.5,1333.5C 804.417,1323.83 808.417,1315.66 815.5,1309C 822.045,1304.39 829.045,1300.89 836.5,1298.5 Z"/></g>
<g><path style="opacity:1" fill="#f8f9fb" d="M 1003.5,1299.5 C 1014.51,1298.67 1019.01,1303.67 1017,1314.5C 1010.21,1322.76 1003.87,1322.42 998,1313.5C 997.333,1310.83 997.333,1308.17 998,1305.5C 999.36,1302.98 1001.19,1300.98 1003.5,1299.5 Z"/></g>
<g><path style="opacity:1" fill="#f8f9fb" d="M 1089.5,1309.5 C 1102.23,1310.71 1105.56,1316.88 1099.5,1328C 1092.74,1332.18 1087.24,1331.02 1083,1324.5C 1082.33,1321.5 1082.33,1318.5 1083,1315.5C 1084.91,1313.14 1087.08,1311.14 1089.5,1309.5 Z"/></g>
<g><path style="opacity:1" fill="#fbfcfd" d="M 765.5,1332.5 C 766.873,1332.34 768.207,1332.51 769.5,1333C 786.717,1350.38 803.383,1368.21 819.5,1386.5C 813.881,1390.98 807.881,1394.98 801.5,1398.5C 798.111,1395.4 794.945,1392.07 792,1388.5C 785.575,1391.63 779.075,1394.63 772.5,1397.5C 772.45,1402.13 772.116,1406.8 771.5,1411.5C 765.833,1414.17 760.167,1416.83 754.5,1419.5C 751.554,1394.71 748.887,1369.87 746.5,1345C 746.833,1343.83 747.167,1342.67 747.5,1341.5C 753.779,1338.86 759.779,1335.86 765.5,1332.5 Z"/></g>
<g><path style="opacity:1" fill="#fbfcfd" d="M 443.5,1335.5 C 451.719,1338.28 459.386,1342.11 466.5,1347C 462.973,1371.47 459.639,1395.97 456.5,1420.5C 449.5,1418.5 442.5,1416.5 435.5,1414.5C 435.959,1409.44 435.959,1404.44 435.5,1399.5C 429.395,1396.36 423.228,1393.36 417,1390.5C 413.667,1393.17 410.333,1395.83 407,1398.5C 400.947,1395.89 395.114,1392.89 389.5,1389.5C 407.827,1371.84 425.827,1353.84 443.5,1335.5 Z"/></g>
<g><path style="opacity:1" fill="#fefbfc" d="M 1048.5,1357.5 C 1076.19,1360.78 1101.35,1370.45 1124,1386.5C 1124.57,1389.52 1123.41,1391.68 1120.5,1393C 1116.2,1394.89 1111.7,1395.72 1107,1395.5C 1093.19,1393.01 1079.36,1390.51 1065.5,1388C 1054.54,1386.54 1043.54,1385.54 1032.5,1385C 1039.29,1376.7 1044.62,1367.54 1048.5,1357.5 Z"/></g>
<g><path style="opacity:1" fill="#fbfcfd" d="M 489.5,1358.5 C 496.229,1360.02 502.896,1361.85 509.5,1364C 510.022,1364.56 510.355,1365.23 510.5,1366C 504.857,1383.09 499.524,1400.26 494.5,1417.5C 500.783,1419.37 507.116,1421.04 513.5,1422.5C 512.724,1428.82 512.058,1435.15 511.5,1441.5C 497.107,1437.37 482.773,1433.04 468.5,1428.5C 475.09,1405.06 482.09,1381.73 489.5,1358.5 Z"/></g>
<g><path style="opacity:1" fill="#fefbfb" d="M 145.5,1359.5 C 148.247,1359.19 150.914,1359.52 153.5,1360.5C 157.731,1367.73 162.731,1374.4 168.5,1380.5C 158.851,1381.33 149.184,1381.83 139.5,1382C 124.833,1383.95 110.166,1385.78 95.5,1387.5C 92.1667,1387.33 88.8333,1387.17 85.5,1387C 82.7615,1386.09 80.4281,1384.59 78.5,1382.5C 84.9965,1378.16 91.9965,1374.66 99.5,1372C 114.606,1366.56 129.939,1362.39 145.5,1359.5 Z"/></g>
<g><path style="opacity:1" fill="#fbfcfd" d="M 697.5,1359.5 C 698.822,1359.33 699.989,1359.66 701,1360.5C 706.326,1377.47 711.492,1394.47 716.5,1411.5C 722.628,1409.76 728.795,1408.09 735,1406.5C 735.833,1406.83 736.667,1407.17 737.5,1407.5C 739.833,1412.17 742.167,1416.83 744.5,1421.5C 744.291,1422.09 743.957,1422.59 743.5,1423C 729.939,1426.96 716.439,1431.13 703,1435.5C 702.228,1435.36 701.561,1435.02 701,1434.5C 694.14,1411.72 686.973,1389.06 679.5,1366.5C 685.555,1364.15 691.555,1361.82 697.5,1359.5 Z"/></g>
<g><path style="opacity:1" fill="#234992" d="M 765.5,1358.5 C 770.821,1363.82 775.821,1369.49 780.5,1375.5C 776.706,1377.73 772.706,1379.4 768.5,1380.5C 767.715,1373.12 766.715,1365.79 765.5,1358.5 Z"/></g>
<g><path style="opacity:1" fill="#274c93" d="M 443.5,1360.5 C 444.043,1360.56 444.376,1360.89 444.5,1361.5C 442.69,1368.41 441.356,1375.41 440.5,1382.5C 436.144,1381.49 432.144,1379.66 428.5,1377C 433.337,1371.33 438.337,1365.83 443.5,1360.5 Z"/></g>
<g><path style="opacity:1" fill="#fbfcfd" d="M 645.5,1371.5 C 648.119,1371.23 650.619,1371.56 653,1372.5C 663.85,1394.01 674.684,1415.51 685.5,1437C 685.095,1437.95 684.428,1438.61 683.5,1439C 677.402,1440.52 671.402,1442.36 665.5,1444.5C 663.276,1441.06 661.276,1437.39 659.5,1433.5C 651.81,1432.81 644.143,1433.31 636.5,1435C 635.067,1439.24 634.067,1443.57 633.5,1448C 626.904,1449.44 620.237,1450.28 613.5,1450.5C 617.623,1425.05 622.456,1399.72 628,1374.5C 633.89,1373.23 639.724,1372.23 645.5,1371.5 Z"/></g>
<g><path style="opacity:1" fill="#fbfcfd" d="M 554.5,1375.5 C 566.893,1375.7 579.226,1376.54 591.5,1378C 606.72,1382.59 612.554,1392.76 609,1408.5C 606.943,1417.56 601.443,1423.39 592.5,1426C 586.577,1427.3 580.577,1427.8 574.5,1427.5C 574.5,1434.83 574.5,1442.17 574.5,1449.5C 567.167,1449.5 559.833,1449.5 552.5,1449.5C 553.084,1424.83 553.75,1400.16 554.5,1375.5 Z"/></g>
<g><path style="opacity:1" fill="#1e4790" d="M 575.5,1392.5 C 586.216,1391.38 590.382,1396.05 588,1406.5C 587.535,1407.93 586.701,1409.1 585.5,1410C 582.312,1411.32 578.978,1411.82 575.5,1411.5C 575.5,1405.17 575.5,1398.83 575.5,1392.5 Z"/></g>
<g><path style="opacity:1" fill="#fdf7f7" d="M 144.5,1392.5 C 157.347,1391.88 170.014,1393.05 182.5,1396C 184.754,1397.38 186.92,1398.88 189,1400.5C 189.667,1403.17 189.667,1405.83 189,1408.5C 187.874,1409.94 186.374,1410.61 184.5,1410.5C 167.547,1404.79 150.214,1403.13 132.5,1405.5C 132.5,1401.83 132.5,1398.17 132.5,1394.5C 136.664,1394.04 140.664,1393.38 144.5,1392.5 Z"/></g>
<g><path style="opacity:1" fill="#2a4d94" d="M 641.5,1395.5 C 645.315,1401.8 648.648,1408.46 651.5,1415.5C 647.313,1417.07 642.98,1417.73 638.5,1417.5C 639.173,1410.12 640.173,1402.78 641.5,1395.5 Z"/></g>
<g><path style="opacity:1" fill="#fefafb" d="M 1022.5,1397.5 C 1037.88,1397.23 1053.22,1397.89 1068.5,1399.5C 1068.5,1403.5 1068.5,1407.5 1068.5,1411.5C 1061.62,1409.7 1054.62,1408.7 1047.5,1408.5C 1036.11,1409.92 1024.78,1411.42 1013.5,1413C 1011.5,1410.16 1011,1406.99 1012,1403.5C 1015.07,1400.55 1018.57,1398.55 1022.5,1397.5 Z"/></g>
<g><path style="opacity:1" fill="#e38d99" d="M 120.5,1396.5 C 121.167,1405.5 121.833,1414.5 122.5,1423.5C 122.44,1424.04 122.107,1424.38 121.5,1424.5C 120.502,1415.19 120.168,1405.86 120.5,1396.5 Z"/></g>
</svg>
