<?xml version="1.0" encoding="UTF-8"?>
<!DOCTYPE svg PUBLIC "-//W3C//DTD SVG 1.1//EN" "http://www.w3.org/Graphics/SVG/1.1/DTD/svg11.dtd">
<svg xmlns="http://www.w3.org/2000/svg" version="1.1" width="3840px" height="2160px" style="shape-rendering:geometricPrecision; text-rendering:geometricPrecision; image-rendering:optimizeQuality; fill-rule:evenodd; clip-rule:evenodd" xmlns:xlink="http://www.w3.org/1999/xlink">
<g><path style="opacity:0.992" fill="#024d96" d="M 1912.5,34.5 C 2097.42,32.3171 2273.75,69.8171 2441.5,147C 2549.66,197.642 2645.83,265.142 2730,349.5C 2769.09,506.952 2782.76,666.619 2771,828.5C 2759.38,992.959 2726.38,1152.96 2672,1308.5C 2615.99,1455.95 2538.99,1590.61 2441,1712.5C 2297.87,1889.2 2127.04,2031.87 1928.5,2140.5C 1729.72,2032.56 1558.89,1890.22 1416,1713.5C 1317.68,1590.94 1240.35,1455.61 1184,1307.5C 1107.07,1087.94 1073.74,861.936 1084,629.5C 1089.05,534.818 1103.05,441.485 1126,349.5C 1237.49,239.121 1367.65,157.621 1516.5,105C 1644.8,60.0062 1776.8,36.5062 1912.5,34.5 Z"/></g>
<g><path style="opacity:1" fill="#fef123" d="M 1872.5,97.5 C 2050.77,89.9233 2221.77,121.09 2385.5,191C 2497.65,239.794 2596.81,307.294 2683,393.5C 2722.38,626.056 2717.71,857.723 2669,1088.5C 2602.12,1385.86 2458.62,1638.69 2238.5,1847C 2143.56,1935.61 2040.23,2012.78 1928.5,2078.5C 1749.18,1974.4 1594.35,1841.07 1464,1678.5C 1308.6,1477.25 1210.6,1250.25 1170,997.5C 1142.18,816.115 1140.18,634.449 1164,452.5C 1166.82,432.417 1170.15,412.417 1174,392.5C 1272.47,295.305 1386.64,221.805 1516.5,172C 1631.37,128.527 1750.04,103.693 1872.5,97.5 Z"/></g>
<g><path style="opacity:1" fill="#014d96" d="M 1881.5,304.5 C 2034.4,297.425 2180.07,326.258 2318.5,391C 2373.04,417.747 2424.04,449.747 2471.5,487C 2493.53,506.038 2508.7,529.538 2517,557.5C 2523.6,582.416 2527.6,607.749 2529,633.5C 2530.41,681.152 2530.91,728.818 2530.5,776.5C 2129.17,776.5 1727.83,776.5 1326.5,776.5C 1325.42,737.508 1325.25,698.508 1326,659.5C 1326.77,629.54 1330.11,599.874 1336,570.5C 1343.66,535.548 1361.16,506.714 1388.5,484C 1533.9,373.465 1698.23,313.632 1881.5,304.5 Z"/></g>
<g><path style="opacity:1" fill="#fbfbfd" d="M 1932.5,319.5 C 1933.38,319.369 1934.04,319.702 1934.5,320.5C 1941.45,333.346 1945.78,347.012 1947.5,361.5C 2005.23,350.122 2051.39,368.122 2086,415.5C 2097.81,433.428 2104.31,453.095 2105.5,474.5C 2117.8,474.619 2130.13,474.785 2142.5,475C 2145.01,475.376 2147.34,476.21 2149.5,477.5C 2139.08,487.873 2127.42,496.54 2114.5,503.5C 2131.81,531.229 2137.65,561.229 2132,593.5C 2122.27,638.55 2096.43,670.383 2054.5,689C 2060.93,701.466 2065.27,714.633 2067.5,728.5C 2067.17,729.167 2066.83,729.833 2066.5,730.5C 2053.16,723.91 2041.32,715.244 2031,704.5C 2005.33,734.749 1972.49,750.082 1932.5,750.5C 1893.37,749.516 1861.2,734.183 1836,704.5C 1825.71,715.292 1813.88,723.958 1800.5,730.5C 1801.26,715.373 1805.59,701.206 1813.5,688C 1770.2,669.972 1744.04,637.805 1735,591.5C 1729.42,559.939 1735.26,530.772 1752.5,504C 1745.76,499.118 1738.76,494.451 1731.5,490C 1726.53,486.034 1721.87,481.701 1717.5,477C 1719.71,475.956 1722.05,475.29 1724.5,475C 1736.87,474.785 1749.2,474.619 1761.5,474.5C 1768.74,419.43 1798.4,382.263 1850.5,363C 1873.36,356.249 1896.36,355.749 1919.5,361.5C 1921.83,346.85 1926.16,332.85 1932.5,319.5 Z"/></g>
<g><path style="opacity:1" fill="#0f5099" d="M 1932.5,341.5 C 1933.5,341.414 1934.33,341.748 1935,342.5C 1940.19,354.631 1942.69,367.298 1942.5,380.5C 1963.28,374.48 1980.78,379.48 1995,395.5C 2001.84,406.995 2010,417.495 2019.5,427C 2023.67,429.588 2028.01,431.921 2032.5,434C 2042.17,437 2051.83,440 2061.5,443C 2072.67,447.5 2080.5,455.333 2085,466.5C 2087.45,472.937 2088.95,479.603 2089.5,486.5C 2102.58,482.576 2115.92,481.576 2129.5,483.5C 2125.63,487.539 2121.29,491.039 2116.5,494C 2109.57,497.965 2102.57,501.632 2095.5,505C 2106.31,521.712 2107.14,538.879 2098,556.5C 2092,564.5 2086,572.5 2080,580.5C 2076.16,586.682 2073.49,593.349 2072,600.5C 2071.35,610.678 2071.51,620.845 2072.5,631C 2071.72,653.293 2060.72,668.127 2039.5,675.5C 2047.43,686.61 2052.43,698.943 2054.5,712.5C 2045.14,708.327 2036.97,702.327 2030,694.5C 2028,691.833 2026,689.167 2024,686.5C 2010.79,703.864 1993.62,710.03 1972.5,705C 1960.25,699.289 1947.42,695.789 1934,694.5C 1927.02,694.763 1920.18,695.93 1913.5,698C 1906.04,701.266 1898.37,703.932 1890.5,706C 1878.54,709.235 1867.54,707.235 1857.5,700C 1852.04,696.703 1847.37,692.536 1843.5,687.5C 1834.99,698.162 1824.83,706.828 1813,713.5C 1813.06,707.285 1814.4,701.285 1817,695.5C 1820.55,688.405 1824.05,681.405 1827.5,674.5C 1811.17,669.672 1800.67,659.005 1796,642.5C 1795.9,626.461 1795.24,610.461 1794,594.5C 1792.27,590.047 1790.27,585.714 1788,581.5C 1782,573.5 1776,565.5 1770,557.5C 1759.78,539.888 1760.28,522.555 1771.5,505.5C 1764.57,501.697 1757.57,497.864 1750.5,494C 1745.76,490.969 1741.43,487.469 1737.5,483.5C 1751.38,481.697 1765.05,482.697 1778.5,486.5C 1778.22,471.573 1783.55,459.073 1794.5,449C 1806.99,441.872 1820.32,436.872 1834.5,434C 1838.99,431.921 1843.33,429.588 1847.5,427C 1857.57,417.346 1866.07,406.513 1873,394.5C 1887.04,378.861 1904.21,374.195 1924.5,380.5C 1924.48,366.929 1927.14,353.929 1932.5,341.5 Z"/></g>
<g><path style="opacity:1" fill="#0c4f98" d="M 1862.5,379.5 C 1863.98,379.238 1865.31,379.571 1866.5,380.5C 1858.92,392.48 1850.25,403.647 1840.5,414C 1836.16,417.172 1831.49,419.839 1826.5,422C 1815.91,425.646 1805.24,428.646 1794.5,431C 1811.89,406.765 1834.56,389.599 1862.5,379.5 Z"/></g>
<g><path style="opacity:1" fill="#0d4f98" d="M 2000.5,380.5 C 2014.9,383.181 2028.23,389.015 2040.5,398C 2052.87,407.373 2063.54,418.373 2072.5,431C 2057.3,428.612 2042.96,423.612 2029.5,416C 2026.04,413.537 2022.87,410.704 2020,407.5C 2013.48,398.433 2006.98,389.433 2000.5,380.5 Z"/></g>
<g><path style="opacity:1" fill="#fdfdfe" d="M 1898.5,387.5 C 1904.84,387.334 1911.18,387.5 1917.5,388C 1920.58,388.622 1923.08,390.122 1925,392.5C 1926,395.5 1927,398.5 1928,401.5C 1928.07,414.231 1928.91,426.897 1930.5,439.5C 1928.51,441.598 1926.34,443.598 1924,445.5C 1919.52,453.73 1921.35,460.23 1929.5,465C 1941.83,466.335 1947,460.835 1945,448.5C 1942.81,444.978 1939.98,442.145 1936.5,440C 1938.16,427.581 1939,415.081 1939,402.5C 1939.92,391.079 1946.09,386.079 1957.5,387.5C 1966.76,387.089 1975.09,389.589 1982.5,395C 1991.1,404.935 1998.94,415.435 2006,426.5C 2013.17,434 2021.67,439.5 2031.5,443C 2039.6,445.025 2047.6,447.358 2055.5,450C 2070.24,456.272 2078.57,467.439 2080.5,483.5C 2080.56,486.047 2079.89,488.38 2078.5,490.5C 2074.33,494.087 2069.67,496.92 2064.5,499C 2053.68,502.078 2043.35,506.245 2033.5,511.5C 2026.31,503.637 2019.14,503.637 2012,511.5C 2009.19,517.902 2010.35,523.402 2015.5,528C 2026.94,532.287 2033.28,528.453 2034.5,516.5C 2038.56,516.515 2042.56,516.015 2046.5,515C 2056.53,511.155 2066.86,508.655 2077.5,507.5C 2080.17,507.667 2082.83,507.833 2085.5,508C 2092.61,515.306 2095.94,524.139 2095.5,534.5C 2095.27,542.301 2092.77,549.301 2088,555.5C 2078.92,565.329 2071.58,576.329 2066,588.5C 2065.33,591.167 2064.67,593.833 2064,596.5C 2063.67,610.167 2063.33,623.833 2063,637.5C 2059.57,651.604 2051.07,661.437 2037.5,667C 2035.5,667.667 2033.5,667.667 2031.5,667C 2021.87,659.704 2014.03,650.87 2008,640.5C 2005,637.5 2002,634.5 1999,631.5C 2000.38,627.022 2000.71,622.356 2000,617.5C 1995.02,610.01 1988.52,608.51 1980.5,613C 1974.67,620.368 1975.34,627.035 1982.5,633C 1986.41,634.755 1990.41,634.921 1994.5,633.5C 1995.43,637.362 1996.93,641.029 1999,644.5C 2003.67,651.167 2008.33,657.833 2013,664.5C 2014.79,668.411 2016.29,672.411 2017.5,676.5C 2014.46,685.373 2008.46,691.54 1999.5,695C 1994.18,698.035 1988.52,699.035 1982.5,698C 1969.08,694.417 1955.75,690.417 1942.5,686C 1933.7,685.027 1925.03,685.694 1916.5,688C 1904.6,693.022 1892.27,696.522 1879.5,698.5C 1866.6,696.809 1856.77,690.475 1850,679.5C 1849.81,676.053 1850.47,672.72 1852,669.5C 1859.84,657.834 1867.17,645.834 1874,633.5C 1887.87,635.15 1892.87,629.15 1889,615.5C 1880.89,608.348 1873.56,609.015 1867,617.5C 1866.39,622.323 1866.72,626.99 1868,631.5C 1859.95,639.949 1852.62,648.949 1846,658.5C 1842.5,661.333 1839,664.167 1835.5,667C 1830.27,667.703 1825.61,666.37 1821.5,663C 1811.56,656.407 1805.73,647.24 1804,635.5C 1803.67,621.5 1803.33,607.5 1803,593.5C 1800.39,585.619 1796.73,578.286 1792,571.5C 1783.33,562.491 1776.67,552.157 1772,540.5C 1770.88,530.193 1772.88,520.526 1778,511.5C 1779.17,510.333 1780.33,509.167 1781.5,508C 1786.83,507.333 1792.17,507.333 1797.5,508C 1808.82,512.385 1820.48,515.219 1832.5,516.5C 1833.14,527.296 1838.81,531.462 1849.5,529C 1856.49,524.872 1858.32,519.039 1855,511.5C 1847.92,503.524 1840.75,503.524 1833.5,511.5C 1824.3,506.599 1814.64,502.765 1804.5,500C 1798.46,497.29 1792.96,493.79 1788,489.5C 1786.73,470.872 1794.56,457.705 1811.5,450C 1821.12,446.845 1830.79,443.845 1840.5,441C 1848.99,437.671 1856.16,432.504 1862,425.5C 1869.51,413.333 1878.34,402.166 1888.5,392C 1891.89,390.38 1895.23,388.88 1898.5,387.5 Z"/></g>
<g><path style="opacity:1" fill="#f3f4f8" d="M 1931.5,447.5 C 1936.65,447.814 1939.15,450.481 1939,455.5C 1935.95,459.01 1932.62,459.343 1929,456.5C 1927.93,452.9 1928.76,449.9 1931.5,447.5 Z"/></g>
<g><path style="opacity:1" fill="#245598" d="M 1921.5,468.5 C 1969.9,465.76 2000.06,487.76 2012,534.5C 2015.4,573.217 1999.9,601.384 1965.5,619C 1925.31,633.38 1892.48,623.546 1867,589.5C 1846.58,552.275 1851.08,518.442 1880.5,488C 1892.45,477.692 1906.11,471.192 1921.5,468.5 Z"/></g>
<g><path style="opacity:1" fill="#f2e62f" d="M 1925.5,472.5 C 1935.71,471.929 1945.71,473.096 1955.5,476C 1948.14,478.899 1940.64,481.399 1933,483.5C 1925.59,481.585 1918.42,479.085 1911.5,476C 1916.22,474.506 1920.89,473.339 1925.5,472.5 Z"/></g>
<g><path style="opacity:1" fill="#fcfcfd" d="M 1903.5,478.5 C 1913.26,480.252 1922.76,482.918 1932,486.5C 1932.83,497.182 1932.67,507.849 1931.5,518.5C 1923.69,523.806 1916.03,529.306 1908.5,535C 1907.5,535.167 1906.5,535.333 1905.5,535.5C 1895.82,532.828 1886.15,530.162 1876.5,527.5C 1876.05,517.395 1876.55,507.395 1878,497.5C 1885.76,490.049 1894.26,483.716 1903.5,478.5 Z"/></g>
<g><path style="opacity:1" fill="#fdfdfe" d="M 1957.5,478.5 C 1962.6,478.543 1967.26,480.043 1971.5,483C 1978.5,487.096 1984.67,492.262 1990,498.5C 1990.67,507.833 1990.67,517.167 1990,526.5C 1983.83,528.587 1977.66,530.754 1971.5,533C 1967.3,534.741 1962.96,535.408 1958.5,535C 1951,529.5 1943.5,524 1936,518.5C 1935.5,507.505 1935.33,496.505 1935.5,485.5C 1943.05,483.537 1950.38,481.204 1957.5,478.5 Z"/></g>
<g><path style="opacity:1" fill="#f7eb2a" d="M 1872.5,504.5 C 1873.66,511.989 1873.82,519.655 1873,527.5C 1869.05,533.779 1864.72,539.779 1860,545.5C 1859.63,530.454 1863.79,516.787 1872.5,504.5 Z"/></g>
<g><path style="opacity:1" fill="#f2e62e" d="M 1993.5,503.5 C 2003.3,515.723 2007.8,529.723 2007,545.5C 2002.67,539.5 1998.33,533.5 1994,527.5C 1993.5,519.507 1993.33,511.507 1993.5,503.5 Z"/></g>
<g><path style="opacity:1" fill="#f5f6f9" d="M 1841.5,512.5 C 1849.05,511.882 1851.39,515.049 1848.5,522C 1843.32,524.745 1840.32,523.245 1839.5,517.5C 1839.44,515.486 1840.1,513.819 1841.5,512.5 Z"/></g>
<g><path style="opacity:1" fill="#f4f5f9" d="M 2020.5,512.5 C 2027.75,512.555 2029.75,515.722 2026.5,522C 2020.24,524.412 2017.41,522.245 2018,515.5C 2018.7,514.309 2019.53,513.309 2020.5,512.5 Z"/></g>
<g><path style="opacity:1" fill="#fdf024" d="M 1931.5,520.5 C 1932.87,520.343 1934.21,520.51 1935.5,521C 1943.53,527.009 1951.53,533.009 1959.5,539C 1956.47,548.602 1953.13,558.102 1949.5,567.5C 1944.17,567.833 1938.83,568.167 1933.5,568.5C 1927.75,568.474 1922.25,567.807 1917,566.5C 1915.07,559.363 1912.73,552.363 1910,545.5C 1909.01,542.874 1908.67,540.207 1909,537.5C 1916.68,531.97 1924.18,526.303 1931.5,520.5 Z"/></g>
<g><path style="opacity:1" fill="#fcfdfd" d="M 1875.5,529.5 C 1885.04,532.959 1894.71,536.126 1904.5,539C 1906.04,540.932 1907.21,543.099 1908,545.5C 1910.35,553.22 1912.85,560.887 1915.5,568.5C 1909.7,577.798 1903.2,586.464 1896,594.5C 1887.73,592.134 1879.57,589.467 1871.5,586.5C 1864.43,575.895 1860.6,564.228 1860,551.5C 1865.39,544.287 1870.55,536.954 1875.5,529.5 Z"/></g>
<g><path style="opacity:1" fill="#fcfcfd" d="M 1989.5,529.5 C 1990.68,529.281 1991.68,529.614 1992.5,530.5C 1997.09,537.344 2001.92,544.01 2007,550.5C 2007,563.321 2003.5,575.154 1996.5,586C 1988.14,589.232 1979.64,592.066 1971,594.5C 1964.98,587.472 1959.31,580.138 1954,572.5C 1952.58,569.97 1952.25,567.303 1953,564.5C 1956.13,556.267 1958.97,547.934 1961.5,539.5C 1970.99,536.34 1980.32,533.006 1989.5,529.5 Z"/></g>
<g><path style="opacity:1" fill="#0b4f98" d="M 1753.5,558.5 C 1759.8,566.315 1765.97,574.315 1772,582.5C 1775.47,587.774 1778.14,593.44 1780,599.5C 1781.56,614.126 1781.89,628.792 1781,643.5C 1761.72,618.497 1752.56,590.164 1753.5,558.5 Z"/></g>
<g><path style="opacity:1" fill="#115099" d="M 2113.5,557.5 C 2115,589.338 2106,618.005 2086.5,643.5C 2085.11,629.137 2085.28,614.804 2087,600.5C 2088.76,594.884 2091.09,589.551 2094,584.5C 2100.51,575.471 2107.01,566.471 2113.5,557.5 Z"/></g>
<g><path style="opacity:1" fill="#fdfdfe" d="M 1917.5,571.5 C 1928.52,571.168 1939.52,571.501 1950.5,572.5C 1956.17,580.5 1961.83,588.5 1967.5,596.5C 1962.89,603.778 1957.89,610.778 1952.5,617.5C 1949.7,618.969 1946.7,619.802 1943.5,620C 1934.44,620.881 1925.44,620.548 1916.5,619C 1910.26,611.925 1904.59,604.425 1899.5,596.5C 1905.52,588.148 1911.52,579.815 1917.5,571.5 Z"/></g>
<g><path style="opacity:1" fill="#f6ea2b" d="M 1874.5,590.5 C 1881.63,593.49 1888.97,595.99 1896.5,598C 1901.08,603.823 1905.41,609.823 1909.5,616C 1894.93,611.61 1883.26,603.11 1874.5,590.5 Z"/></g>
<g><path style="opacity:1" fill="#f5e82c" d="M 1988.5,591.5 C 1989.87,591.343 1991.21,591.51 1992.5,592C 1983.29,603.759 1971.62,611.759 1957.5,616C 1962.05,609.744 1966.71,603.577 1971.5,597.5C 1977.4,595.867 1983.07,593.867 1988.5,591.5 Z"/></g>
<g><path style="opacity:1" fill="#fbfbfd" d="M 1875.5,617.5 C 1883.49,616.998 1885.49,620.165 1881.5,627C 1873.42,627.805 1871.42,624.638 1875.5,617.5 Z"/></g>
<g><path style="opacity:1" fill="#f7f8fa" d="M 1985.5,617.5 C 1991.34,616.518 1994.17,618.851 1994,624.5C 1990.95,628.01 1987.62,628.343 1984,625.5C 1983.11,622.502 1983.61,619.836 1985.5,617.5 Z"/></g>
<g><path style="opacity:1" fill="#0d4f98" d="M 1922.5,709.5 C 1929.51,709.334 1936.51,709.5 1943.5,710C 1955.14,712.988 1966.47,716.821 1977.5,721.5C 1947.85,732.144 1918.18,732.144 1888.5,721.5C 1899.85,717.275 1911.18,713.275 1922.5,709.5 Z"/></g>
<g><path style="opacity:1" fill="#928f57" d="M 2528.5,862.5 C 2503.99,862.169 2479.66,862.502 2455.5,863.5C 2454.96,863.44 2454.62,863.107 2454.5,862.5C 2479.33,861.171 2504,861.171 2528.5,862.5 Z"/></g>
<g><path style="opacity:1" fill="#7c7b62" d="M 1401.5,862.5 C 1377.17,862.5 1352.83,862.5 1328.5,862.5C 1328.5,879.5 1328.5,896.5 1328.5,913.5C 1327.5,896.341 1327.17,879.008 1327.5,861.5C 1352.91,861.167 1377.57,861.501 1401.5,862.5 Z"/></g>
<g><path style="opacity:1" fill="#084d96" d="M 1401.5,862.5 C 1378,888.832 1354.67,915.332 1331.5,942C 1331.17,942.167 1330.83,942.333 1330.5,942.5C 1329.13,932.883 1328.46,923.216 1328.5,913.5C 1328.5,896.5 1328.5,879.5 1328.5,862.5C 1352.83,862.5 1377.17,862.5 1401.5,862.5 Z"/></g>
<g><path style="opacity:1" fill="#024d96" d="M 1524.5,862.5 C 1575.17,862.333 1625.83,862.5 1676.5,863C 1578.67,972.833 1480.83,1082.67 1383,1192.5C 1367.41,1149.79 1355.41,1106.12 1347,1061.5C 1406.64,995.512 1465.81,929.178 1524.5,862.5 Z"/></g>
<g><path style="opacity:1" fill="#fefefe" d="M 1799.5,862.5 C 1885.17,862.5 1970.83,862.5 2056.5,862.5C 2056.83,1164.83 2056.5,1467.17 2055.5,1769.5C 2015.29,1800.02 1972.96,1827.35 1928.5,1851.5C 1883.41,1827.21 1840.58,1799.55 1800,1768.5C 1799.5,1466.5 1799.33,1164.5 1799.5,862.5 Z"/></g>
<g><path style="opacity:1" fill="#024d96" d="M 2179.5,863.5 C 2230.33,862.169 2281.33,862.169 2332.5,863.5C 2391.52,929.351 2450.35,995.351 2509,1061.5C 2500.77,1106.08 2488.94,1149.75 2473.5,1192.5C 2375.45,1082.79 2277.45,973.121 2179.5,863.5 Z"/></g>
<g><path style="opacity:1" fill="#064d96" d="M 2528.5,862.5 C 2528.89,889.208 2528.05,915.875 2526,942.5C 2502.29,916.296 2478.79,889.962 2455.5,863.5C 2479.66,862.502 2503.99,862.169 2528.5,862.5 Z"/></g>
<g><path style="opacity:1" fill="#094f98" d="M 1990.5,889.5 C 2001.46,888.244 2011.8,890.077 2021.5,895C 2029.76,904.07 2031.6,914.236 2027,925.5C 2009.88,950.232 1986.21,963.565 1956,965.5C 1949.85,990.293 1941.51,1014.29 1931,1037.5C 1927.62,1043.1 1924.12,1048.6 1920.5,1054C 1939.41,1065.89 1960.08,1071.23 1982.5,1070C 2001.67,1065.46 2018.51,1056.63 2033,1043.5C 2027.4,1062.84 2015.9,1077.67 1998.5,1088C 1976.19,1097.53 1954.52,1096.19 1933.5,1084C 1925.42,1079.54 1917.58,1074.71 1910,1069.5C 1898.08,1083.38 1883.25,1092.54 1865.5,1097C 1852.15,1099.33 1840.98,1095.49 1832,1085.5C 1828.36,1077.53 1829.03,1069.86 1834,1062.5C 1851.85,1044.58 1873.01,1039.25 1897.5,1046.5C 1898.17,1046.17 1898.83,1045.83 1899.5,1045.5C 1912.92,1019.59 1923.58,992.587 1931.5,964.5C 1918.42,962.589 1910.92,955.255 1909,942.5C 1916.53,950.18 1925.7,953.846 1936.5,953.5C 1941.08,936.927 1948.24,921.593 1958,907.5C 1967.23,898.473 1978.06,892.473 1990.5,889.5 Z"/></g>
<g><path style="opacity:1" fill="#fcfcfd" d="M 1988.5,903.5 C 2007.43,902.933 2012.93,911.266 2005,928.5C 1993.26,942.96 1978.09,951.627 1959.5,954.5C 1962.33,939.165 1968.16,925.165 1977,912.5C 1980.45,908.877 1984.28,905.877 1988.5,903.5 Z"/></g>
<g><path style="opacity:1" fill="#928f57" d="M 1721.5,950.5 C 1721.56,949.957 1721.89,949.624 1722.5,949.5C 1723.83,1006.33 1723.83,1063 1722.5,1119.5C 1722.83,1063 1722.5,1006.66 1721.5,950.5 Z"/></g>
<g><path style="opacity:1" fill="#034d96" d="M 1721.5,950.5 C 1722.5,1006.66 1722.83,1063 1722.5,1119.5C 1640.71,1211.8 1558.71,1303.96 1476.5,1396C 1475.55,1396.62 1474.72,1396.45 1474,1395.5C 1454.3,1361.09 1436.46,1325.76 1420.5,1289.5C 1422.44,1286.39 1424.61,1283.39 1427,1280.5C 1525.03,1170.31 1623.2,1060.31 1721.5,950.5 Z"/></g>
<g><path style="opacity:1" fill="#034d96" d="M 2133.5,949.5 C 2235.01,1062.17 2336.01,1175.34 2436.5,1289C 2419.96,1326.25 2401.46,1362.41 2381,1397.5C 2298.67,1305.17 2216.33,1212.83 2134,1120.5C 2133.5,1063.5 2133.33,1006.5 2133.5,949.5 Z"/></g>
<g><path style="opacity:1" fill="#fbfbfc" d="M 1862.5,1052.5 C 1871.25,1052.1 1879.58,1053.77 1887.5,1057.5C 1888.58,1058.36 1888.75,1059.36 1888,1060.5C 1879.64,1075.1 1867.14,1081.27 1850.5,1079C 1843.64,1076.45 1841.14,1071.62 1843,1064.5C 1847.89,1057.81 1854.39,1053.81 1862.5,1052.5 Z"/></g>
<g><path style="opacity:1" fill="#094f98" d="M 1904.5,1138.5 C 1919.37,1136.05 1929.54,1141.71 1935,1155.5C 1935.81,1165.58 1933.48,1174.91 1928,1183.5C 1911.67,1211.83 1895.33,1240.17 1879,1268.5C 1871.16,1280.72 1869.5,1293.72 1874,1307.5C 1876.88,1312.44 1881.22,1314.78 1887,1314.5C 1904.83,1312.75 1919.17,1304.75 1930,1290.5C 1953.44,1241.95 1976.61,1193.29 1999.5,1144.5C 2007.17,1143.17 2014.83,1143.17 2022.5,1144.5C 2000,1192.17 1977.5,1239.83 1955,1287.5C 1952.72,1302.55 1959.05,1311.55 1974,1314.5C 1984.15,1313.36 1990.15,1307.69 1992,1297.5C 1992.33,1294.17 1992.67,1290.83 1993,1287.5C 2001.67,1298.52 2002.67,1310.18 1996,1322.5C 1986.58,1332.31 1975.08,1336.14 1961.5,1334C 1941.39,1327.3 1933.56,1313.46 1938,1292.5C 1922.14,1322.8 1897.31,1334.96 1863.5,1329C 1855.76,1326.26 1850.26,1321.09 1847,1313.5C 1844.49,1302.59 1845.16,1291.93 1849,1281.5C 1869.08,1245.67 1889.41,1210 1910,1174.5C 1913.56,1167.37 1914.22,1160.04 1912,1152.5C 1908.88,1149.29 1905.05,1147.96 1900.5,1148.5C 1887.92,1149.96 1877.92,1155.79 1870.5,1166C 1869.83,1166.67 1869.17,1166.67 1868.5,1166C 1876.33,1151.33 1888.33,1142.16 1904.5,1138.5 Z"/></g>
<g><path style="opacity:1" fill="#034d96" d="M 2133.5,1258.5 C 2199.3,1331.81 2264.97,1405.31 2330.5,1479C 2308.67,1510.82 2285.5,1541.65 2261,1571.5C 2219.04,1523.87 2176.7,1476.54 2134,1429.5C 2133.5,1372.5 2133.33,1315.5 2133.5,1258.5 Z"/></g>
<g><path style="opacity:1" fill="#034d96" d="M 1721.5,1258.5 C 1722.67,1315.33 1722.83,1372.33 1722,1429.5C 1680.04,1477.13 1637.7,1524.46 1595,1571.5C 1571.12,1542.06 1548.45,1511.73 1527,1480.5C 1526.33,1479.5 1526.33,1478.5 1527,1477.5C 1592.04,1404.63 1656.87,1331.63 1721.5,1258.5 Z"/></g>
<g><path style="opacity:1" fill="#0a4f98" d="M 2035.5,1368.5 C 2035.94,1381.42 2030.28,1390.92 2018.5,1397C 1999.55,1402.4 1980.21,1404.56 1960.5,1403.5C 1957.49,1423.87 1954.65,1444.2 1952,1464.5C 1960.42,1466.88 1968.92,1467.05 1977.5,1465C 1980.56,1463.94 1983.06,1462.11 1985,1459.5C 1986.74,1455.42 1988.58,1451.42 1990.5,1447.5C 1995.26,1460.04 1992.59,1470.54 1982.5,1479C 1979.27,1480.31 1975.94,1481.31 1972.5,1482C 1964.13,1482.54 1955.79,1482.54 1947.5,1482C 1943.11,1498.83 1936.94,1515 1929,1530.5C 1918.55,1549.29 1903.05,1561.79 1882.5,1568C 1858.2,1571.35 1846.03,1560.85 1846,1536.5C 1848.25,1546.18 1853.75,1553.35 1862.5,1558C 1870.71,1559.26 1878.04,1557.26 1884.5,1552C 1894.87,1542.75 1902.37,1531.58 1907,1518.5C 1910.49,1505.88 1913.65,1493.21 1916.5,1480.5C 1906.21,1479.99 1896.54,1482.16 1887.5,1487C 1882.75,1490.67 1880.25,1495.5 1880,1501.5C 1876.05,1492.64 1877.05,1484.3 1883,1476.5C 1888.44,1469.4 1895.61,1465.23 1904.5,1464C 1910.53,1463.36 1916.53,1462.53 1922.5,1461.5C 1927.63,1442.11 1932.96,1422.78 1938.5,1403.5C 1928.95,1401.67 1919.28,1400.34 1909.5,1399.5C 1901.4,1399.35 1894.9,1402.35 1890,1408.5C 1888.97,1415.94 1891.8,1421.44 1898.5,1425C 1902.35,1426.67 1906.35,1427.84 1910.5,1428.5C 1903.19,1429.66 1895.86,1429.83 1888.5,1429C 1871.64,1425.1 1865.8,1414.94 1871,1398.5C 1881.16,1387.88 1893.66,1382.05 1908.5,1381C 1918.83,1380.33 1929.17,1380.33 1939.5,1381C 1955.49,1382.5 1971.49,1383.67 1987.5,1384.5C 2000.01,1385.6 2012.01,1383.77 2023.5,1379C 2028.29,1376.38 2032.29,1372.88 2035.5,1368.5 Z"/></g>
<g><path style="opacity:1" fill="#939056" d="M 1721.5,1567.5 C 1721.56,1566.96 1721.89,1566.62 1722.5,1566.5C 1722.83,1589.67 1723.17,1612.83 1723.5,1636C 1723.51,1659.57 1723.17,1682.4 1722.5,1704.5C 1722.83,1658.66 1722.5,1613 1721.5,1567.5 Z"/></g>
<g><path style="opacity:1" fill="#074d96" d="M 2133.5,1566.5 C 2155.82,1590.82 2177.82,1615.49 2199.5,1640.5C 2178.82,1663.35 2156.98,1685.02 2134,1705.5C 2133.5,1659.17 2133.33,1612.83 2133.5,1566.5 Z"/></g>
<g><path style="opacity:1" fill="#044d96" d="M 1721.5,1567.5 C 1722.5,1613 1722.83,1658.66 1722.5,1704.5C 1699.76,1684.26 1677.76,1663.1 1656.5,1641C 1678.37,1616.63 1700.04,1592.13 1721.5,1567.5 Z"/></g>
<g><path style="opacity:1" fill="#084e98" d="M 1964.5,1576.5 C 1973.88,1576.18 1983.22,1576.68 1992.5,1578C 2006.73,1583.3 2011.9,1593.46 2008,1608.5C 2007.76,1611.29 2007.09,1613.96 2006,1616.5C 2004.56,1618.16 2002.72,1618.82 2000.5,1618.5C 2000.67,1611.49 2000.5,1604.49 2000,1597.5C 1998.5,1592 1995,1588.5 1989.5,1587C 1977.73,1585.03 1966.73,1587.03 1956.5,1593C 1932.54,1608.7 1915.04,1629.87 1904,1656.5C 1893.41,1680.06 1889.07,1704.72 1891,1730.5C 1897.93,1763.25 1915.1,1770.09 1942.5,1751C 1949.86,1743.97 1956.86,1736.64 1963.5,1729C 1970.09,1726.76 1972.59,1728.92 1971,1735.5C 1960.07,1756.43 1943.57,1770.93 1921.5,1779C 1903.27,1781.81 1887.77,1776.65 1875,1763.5C 1856.15,1740.41 1850.81,1714.41 1859,1685.5C 1871.84,1644.34 1896.34,1612.17 1932.5,1589C 1942.7,1583.3 1953.37,1579.13 1964.5,1576.5 Z"/></g>
</svg>
