<?xml version="1.0" encoding="UTF-8"?>
<!DOCTYPE svg PUBLIC "-//W3C//DTD SVG 1.1//EN" "http://www.w3.org/Graphics/SVG/1.1/DTD/svg11.dtd">
<svg xmlns="http://www.w3.org/2000/svg" version="1.1" width="5000px" height="5000px" style="shape-rendering:geometricPrecision; text-rendering:geometricPrecision; image-rendering:optimizeQuality; fill-rule:evenodd; clip-rule:evenodd" xmlns:xlink="http://www.w3.org/1999/xlink">
<g><path style="opacity:1" fill="#2b3685" d="M 2442.5,5.5 C 2864.03,-2.97986 3264.03,89.1868 3642.5,282C 4073.69,507.858 4412.53,830.692 4659,1250.5C 4870.96,1620.6 4982.46,2018.1 4993.5,2443C 5001.17,2817.98 4928,3178.48 4774,3524.5C 4604.74,3895.45 4360.24,4207.61 4040.5,4461C 3649.14,4765.78 3204.98,4940.62 2708,4985.5C 2408.92,5010.05 2111.75,4981.22 1816.5,4899C 1421.9,4784.47 1076.57,4587.14 780.5,4307C 452.327,3992.43 224.827,3615.26 98,3175.5C -14.5474,2765.56 -24.5474,2354.23 68,1941.5C 162.732,1537.35 344.398,1179.35 613,867.5C 882.035,558.824 1207.2,328.657 1588.5,177C 1864.28,69.8116 2148.95,12.6449 2442.5,5.5 Z"/></g>
<g><path style="opacity:1" fill="#fefefe" d="M 2444.5,131.5 C 2884.18,123.768 3293.85,227.268 3673.5,442C 4045.13,656.968 4338.97,950.135 4555,1321.5C 4790.85,1737.59 4893.19,2185.59 4862,2665.5C 4834.21,3048.45 4721.55,3403.11 4524,3729.5C 4319.14,4063.03 4049.31,4330.86 3714.5,4533C 3297.37,4779.31 2845.04,4889.64 2357.5,4864C 1885.92,4832.91 1461.26,4677.74 1083.5,4398.5C 708.326,4114.25 438.493,3752.25 274,3312.5C 138.566,2934.17 99.5662,2545.5 157,2146.5C 205.552,1829.43 312.885,1534.76 479,1262.5C 710.891,890.104 1020.39,601.604 1407.5,397C 1695.74,248.166 2002.07,161.5 2326.5,137C 2365.98,134.919 2405.31,133.086 2444.5,131.5 Z"/></g>
<g><path style="opacity:1" fill="#2c3886" d="M 3245.5,4650.5 C 3241.22,4651.26 3237.22,4652.59 3233.5,4654.5C 2951.28,4749.41 2660.95,4788.58 2362.5,4772C 2017.72,4750.35 1695.38,4656.68 1395.5,4491C 1247.89,4408.23 1111.22,4311.23 985.5,4200C 976.251,4191.02 966.918,4182.02 957.5,4173C 955.833,4172 954.167,4171 952.5,4170C 924.241,4142.41 895.741,4114.58 867,4086.5C 865,4083.83 863,4081.17 861,4078.5C 846.658,4063.79 832.325,4049.12 818,4034.5C 814.219,4029.24 810.219,4024.24 806,4019.5C 797.589,4012.09 790.256,4003.76 784,3994.5C 771.954,3982.45 760.621,3969.79 750,3956.5C 596.606,3770.94 474.273,3565.27 383,3339.5C 369.48,3304.46 356.647,3269.12 344.5,3233.5C 343.405,3228.22 341.739,3223.22 339.5,3218.5C 216.206,2841.93 191.039,2458.26 264,2067.5C 342.164,1673.86 510.83,1324.52 770,1019.5C 1060.13,684.104 1417.3,450.938 1841.5,320C 2238.8,202.975 2639.14,192.642 3042.5,289C 3255.96,342.086 3457.62,423.752 3647.5,534C 3762.92,602.574 3871.59,679.574 3973.5,765C 3988.88,779.716 4004.88,793.716 4021.5,807C 4028.18,814.348 4035.52,821.015 4043.5,827C 4046.14,829.974 4048.8,832.974 4051.5,836C 4060.69,843.765 4069.69,851.765 4078.5,860C 4143.98,924.385 4205.81,991.552 4264,1061.5C 4393.66,1220.86 4500.66,1395.86 4585,1586.5C 4746.28,1958.63 4804.95,2347.97 4761,2754.5C 4723.72,3080.35 4622.05,3383.35 4456,3663.5C 4234.6,4029.57 3935.44,4313.4 3558.5,4515C 3457.04,4567.85 3352.7,4613.01 3245.5,4650.5 Z"/></g>
<g><path style="opacity:1" fill="#fefefe" d="M 4622.5,1758.5 C 4622.86,1762.92 4624.19,1766.92 4626.5,1770.5C 4725.8,2061.13 4763.96,2360.13 4741,2667.5C 4723.01,2907.57 4668.68,3137.9 4578,3358.5C 4435.37,3697.8 4223.54,3986.13 3942.5,4223.5C 3630.5,4483.29 3273.83,4647.79 2872.5,4717C 2529.74,4773.46 2192.07,4753.12 1859.5,4656C 1840.49,4649.67 1821.49,4643.5 1802.5,4637.5C 1797.5,4635.06 1792.17,4633.39 1786.5,4632.5C 1458.76,4521.54 1172.42,4346.2 927.5,4106.5C 922.5,4100.83 917.167,4095.5 911.5,4090.5C 911.167,4089.5 910.5,4088.83 909.5,4088.5C 903.833,4082.17 897.833,4076.17 891.5,4070.5C 876.174,4054.4 860.674,4038.4 845,4022.5C 844.333,4021.17 843.667,4019.83 843,4018.5C 836.837,4012.56 830.837,4006.56 825,4000.5C 819.094,3993.68 813.427,3986.68 808,3979.5C 804.69,3977.68 802.357,3975.01 801,3971.5C 797.936,3970.1 795.936,3967.77 795,3964.5C 791.105,3961.03 787.439,3957.36 784,3953.5C 717.508,3873.21 655.508,3788.88 598,3700.5C 572.672,3658.52 547.839,3616.19 523.5,3573.5C 359.818,3269.61 269.651,2943.61 253,2595.5C 241.499,2321.77 278.332,2055.44 363.5,1796.5C 366.14,1791.92 367.806,1786.92 368.5,1781.5C 479.256,1456.66 653.923,1172 892.5,927.5C 898.776,922.893 904.443,917.559 909.5,911.5C 909.782,910.222 910.449,909.222 911.5,908.5C 917.776,903.893 923.443,898.559 928.5,892.5C 1113.65,710.98 1324.32,565.48 1560.5,456C 1944.88,281.62 2348.21,218.954 2770.5,268C 2908.76,284.914 3044.09,313.914 3176.5,355C 3241.61,376.701 3305.94,400.368 3369.5,426C 3569.68,510.915 3753.01,621.582 3919.5,758C 3934.44,769.131 3948.77,781.131 3962.5,794C 3968.54,798.678 3974.54,803.345 3980.5,808C 4029.42,851.975 4077.26,897.808 4124,945.5C 4138.06,959.892 4151.73,974.558 4165,989.5C 4359.25,1204.24 4507.59,1448.57 4610,1722.5C 4613.91,1734.64 4618.08,1746.64 4622.5,1758.5 Z"/></g>
<g><path style="opacity:1" fill="#2b3685" d="M 2666.5,379.5 C 2804.25,404.021 2941.92,429.021 3079.5,454.5C 3072.75,463.683 3069.75,474.016 3070.5,485.5C 3072.33,502.515 3074.5,519.515 3077,536.5C 3077.67,543.167 3077.67,549.833 3077,556.5C 3064.6,544.435 3050.76,534.268 3035.5,526C 3003.45,511.839 2970.11,501.172 2935.5,494C 2884.43,484.647 2833.59,475.48 2783,466.5C 2779.54,482.778 2776.21,499.111 2773,515.5C 2769.76,531.03 2767.59,546.696 2766.5,562.5C 2823.85,573.803 2881.18,585.303 2938.5,597C 2955.55,597.665 2972.55,597.332 2989.5,596C 2976.91,613.588 2963.24,630.255 2948.5,646C 2940.33,653.084 2931,658.084 2920.5,661C 2907.77,660.549 2895.1,659.215 2882.5,657C 2838.79,648.366 2795.13,639.866 2751.5,631.5C 2744.75,665.658 2738.75,699.991 2733.5,734.5C 2803.65,749.164 2873.99,762.997 2944.5,776C 2983.75,779.554 3019.59,770.387 3052,748.5C 3051.18,753.629 3049.51,758.629 3047,763.5C 3036.73,781.036 3026.73,798.703 3017,816.5C 3011.82,828.239 3009.65,840.572 3010.5,853.5C 2872.75,828.084 2735.09,802.251 2597.5,776C 2606.33,768.17 2614.83,760.003 2623,751.5C 2625.6,747.294 2627.94,742.961 2630,738.5C 2650.73,638.365 2670.06,538.032 2688,437.5C 2689.31,424.786 2686.97,412.786 2681,401.5C 2675.9,394.281 2671.06,386.948 2666.5,379.5 Z"/></g>
<g><path style="opacity:1" fill="#5c8ebf" d="M 2574.5,381.5 C 2587.66,380.34 2600.99,380.173 2614.5,381C 2613.96,381.717 2613.29,382.217 2612.5,382.5C 2600.01,381.505 2587.34,381.171 2574.5,381.5 Z"/></g>
<g><path style="opacity:1" fill="#2b3685" d="M 2574.5,381.5 C 2587.34,381.171 2600.01,381.505 2612.5,382.5C 2609.03,389.837 2608.53,397.504 2611,405.5C 2617.19,420.409 2623.19,435.409 2629,450.5C 2630.49,455.44 2631.82,460.44 2633,465.5C 2633.83,469.541 2633.66,473.541 2632.5,477.5C 2623.2,472.457 2613.54,468.291 2603.5,465C 2558.88,453.371 2513.54,448.538 2467.5,450.5C 2468.7,549.597 2472.87,648.597 2480,747.5C 2481.71,753.652 2484.38,759.318 2488,764.5C 2495.41,771.118 2502.91,777.618 2510.5,784C 2477.15,785.302 2443.82,786.968 2410.5,789C 2392.49,789.614 2374.49,789.948 2356.5,790C 2366.88,783.616 2374.38,774.783 2379,763.5C 2379.98,760.759 2380.48,757.925 2380.5,755C 2376.66,666.848 2372.99,578.682 2369.5,490.5C 2369.5,479.167 2369.5,467.833 2369.5,456.5C 2360.98,456.174 2352.65,456.507 2344.5,457.5C 2303.63,458.108 2264.29,465.941 2226.5,481C 2218.46,485.045 2210.96,489.878 2204,495.5C 2203.17,489.017 2203.83,482.684 2206,476.5C 2209.61,465 2213.61,453.666 2218,442.5C 2221.17,431.699 2222.17,420.699 2221,409.5C 2219.46,404.607 2217.62,399.94 2215.5,395.5C 2225.29,393.842 2235.29,392.842 2245.5,392.5C 2355.15,388.274 2464.81,384.607 2574.5,381.5 Z"/></g>
<g><path style="opacity:1" fill="#6090c0" d="M 2245.5,392.5 C 2235.29,392.842 2225.29,393.842 2215.5,395.5C 2214.6,394.791 2214.26,393.791 2214.5,392.5C 2224.83,392.5 2235.17,392.5 2245.5,392.5 Z"/></g>
<g><path style="opacity:1" fill="#2b3685" d="M 2162.5,407.5 C 2164.17,407.5 2165.83,407.5 2167.5,407.5C 2166.85,441.496 2166.51,475.496 2166.5,509.5C 2146.71,503.089 2126.37,499.256 2105.5,498C 2058.29,493.461 2012.62,499.461 1968.5,516C 1947.73,526.97 1940.56,543.804 1947,566.5C 1953,580.805 1963.83,588.638 1979.5,590C 1987.17,590.667 1994.83,590.667 2002.5,590C 2052.38,584.056 2102.38,583.056 2152.5,587C 2163.83,588.999 2175.16,590.999 2186.5,593C 2218.01,600.511 2239.51,619.344 2251,649.5C 2266.42,698.342 2257.75,742.342 2225,781.5C 2216.35,789.82 2206.85,796.986 2196.5,803C 2151.35,826.119 2104.02,843.119 2054.5,854C 2027.53,858.882 2000.53,863.549 1973.5,868C 1960.46,870.623 1948.13,875.123 1936.5,881.5C 1919.58,848.061 1903.25,814.395 1887.5,780.5C 1888.17,780.167 1888.83,779.833 1889.5,779.5C 1909.43,785.276 1929.76,788.776 1950.5,790C 1999.91,793.308 2048.57,788.974 2096.5,777C 2112.22,772.388 2126.89,765.388 2140.5,756C 2154.75,744.27 2160.58,729.103 2158,710.5C 2153.23,688.396 2139.73,675.563 2117.5,672C 2077.71,672.086 2038.04,674.42 1998.5,679C 1973.72,680.364 1949.05,679.364 1924.5,676C 1887.18,666.008 1862.01,642.841 1849,606.5C 1840.51,574.233 1844.84,543.9 1862,515.5C 1869.1,505.066 1876.94,495.232 1885.5,486C 1907.92,466.83 1933.58,453.496 1962.5,446C 1990.12,438.096 2018.12,431.763 2046.5,427C 2080.81,421.537 2115.15,416.204 2149.5,411C 2153.94,409.826 2158.28,408.659 2162.5,407.5 Z"/></g>
<g><path style="opacity:1" fill="#6897c5" d="M 2344.5,457.5 C 2352.65,456.507 2360.98,456.174 2369.5,456.5C 2369.5,467.833 2369.5,479.167 2369.5,490.5C 2368.51,479.679 2368.17,468.679 2368.5,457.5C 2360.5,457.5 2352.5,457.5 2344.5,457.5 Z"/></g>
<g><path style="opacity:1" fill="#2b3685" d="M 3219.5,495.5 C 3315.5,542 3411.5,588.833 3507.5,636C 3523.56,644.441 3537.39,655.607 3549,669.5C 3559.42,684.8 3565.42,701.8 3567,720.5C 3575,782.105 3550.16,823.938 3492.5,846C 3482.57,847.966 3472.57,849.299 3462.5,850C 3445.81,850.185 3429.14,850.351 3412.5,850.5C 3421.92,865.071 3428.75,880.737 3433,897.5C 3435.96,909.372 3438.29,921.372 3440,933.5C 3443.07,963.629 3447.07,993.629 3452,1023.5C 3454.82,1037.53 3459.32,1050.86 3465.5,1063.5C 3465.17,1063.83 3464.83,1064.17 3464.5,1064.5C 3416.23,1039.86 3367.56,1016.03 3318.5,993C 3324.87,989.955 3330.71,986.121 3336,981.5C 3337.27,978.567 3338.94,975.901 3341,973.5C 3343.48,958.271 3344.15,942.938 3343,927.5C 3340.26,904.3 3335.26,881.633 3328,859.5C 3322.79,843.808 3313.96,830.641 3301.5,820C 3292.44,813.275 3283.11,806.942 3273.5,801C 3258.2,792.681 3242.87,784.348 3227.5,776C 3226.36,775.251 3225.36,775.417 3224.5,776.5C 3212.47,798.551 3200.97,820.885 3190,843.5C 3179.62,865.033 3175.62,887.699 3178,911.5C 3178.3,916.102 3179.14,920.602 3180.5,925C 3180.17,925.5 3179.83,926 3179.5,926.5C 3134.64,904.236 3089.97,881.736 3045.5,859C 3060.5,853.255 3073.33,844.421 3084,832.5C 3087,828.167 3090,823.833 3093,819.5C 3137.82,730.87 3181.82,641.87 3225,552.5C 3227.45,541.639 3228.12,530.639 3227,519.5C 3224.69,511.442 3222.19,503.442 3219.5,495.5 Z"/></g>
<g><path style="opacity:1" fill="#2b3685" d="M 1685.5,538.5 C 1686.5,538.414 1687.33,538.748 1688,539.5C 1691.18,549.533 1696.18,558.533 1703,566.5C 1713.67,577.503 1724.67,588.169 1736,598.5C 1741.54,604.374 1746.71,610.541 1751.5,617C 1737.34,616.792 1723.34,618.126 1709.5,621C 1685.63,627.257 1662.3,635.257 1639.5,645C 1580.97,673.094 1523.64,702.928 1467.5,734.5C 1481.79,763.078 1497.12,791.078 1513.5,818.5C 1570.53,786.986 1627.53,755.486 1684.5,724C 1693.6,717.739 1701.93,710.573 1709.5,702.5C 1710.67,723.159 1710.83,743.825 1710,764.5C 1708.92,774.662 1705.58,783.996 1700,792.5C 1697.93,794.452 1695.76,796.285 1693.5,798C 1655.4,819.051 1616.73,839.051 1577.5,858C 1565.44,864.235 1553.78,871.068 1542.5,878.5C 1558.4,909.301 1575.07,939.635 1592.5,969.5C 1647.7,939.737 1702.7,909.904 1757.5,880C 1788.54,862.295 1816.04,840.128 1840,813.5C 1848.38,802.453 1855.05,790.453 1860,777.5C 1862.23,784.31 1863.56,791.31 1864,798.5C 1863.99,820.889 1864.99,843.222 1867,865.5C 1868.86,871.56 1871.53,877.226 1875,882.5C 1877.07,885.07 1879.57,887.07 1882.5,888.5C 1764.26,952.132 1645.59,1015.63 1526.5,1079C 1521.28,1082.77 1515.95,1085.6 1510.5,1087.5C 1517.44,1071.27 1519.94,1054.27 1518,1036.5C 1516.23,1030.29 1513.89,1024.29 1511,1018.5C 1463.25,932.672 1415.25,847.005 1367,761.5C 1354.58,748.106 1339.41,739.272 1321.5,735C 1348.21,719.318 1375.21,703.984 1402.5,689C 1475.84,650.157 1549.51,611.491 1623.5,573C 1644.38,561.73 1665.05,550.23 1685.5,538.5 Z"/></g>
<g><path style="opacity:1" fill="#fdfefe" d="M 3302.5,614.5 C 3338.69,631.099 3374.69,647.933 3410.5,665C 3420.32,670.411 3429.99,676.077 3439.5,682C 3452.61,691.446 3461.44,703.946 3466,719.5C 3469.36,745.948 3459.53,765.781 3436.5,779C 3423.7,784.063 3410.7,784.73 3397.5,781C 3383.84,775.336 3370.18,769.67 3356.5,764C 3322.44,747.304 3288.44,730.637 3254.5,714C 3266.13,687.58 3278.96,661.746 3293,636.5C 3296.48,629.22 3299.64,621.886 3302.5,614.5 Z"/></g>
<g><path style="opacity:1" fill="#2b3685" d="M 1235.5,798.5 C 1238.48,802.443 1240.98,806.777 1243,811.5C 1251.03,832.29 1259.03,852.956 1267,873.5C 1270.35,880.37 1273.85,887.203 1277.5,894C 1261.16,895.334 1245.5,899.334 1230.5,906C 1183.57,928.946 1145.41,961.779 1116,1004.5C 1111.8,1012.23 1108.14,1020.23 1105,1028.5C 1100.16,1059 1104.5,1088 1118,1115.5C 1134.62,1139.8 1153.79,1161.96 1175.5,1182C 1208.44,1206.04 1244.1,1211.04 1282.5,1197C 1299.63,1189.27 1315.29,1179.27 1329.5,1167C 1352.44,1145.9 1373.44,1123.06 1392.5,1098.5C 1407.85,1075.47 1419.68,1050.81 1428,1024.5C 1451.94,1050.62 1476.27,1076.28 1501,1101.5C 1501.64,1102.61 1502.14,1103.78 1502.5,1105C 1495.03,1110.24 1487.37,1115.24 1479.5,1120C 1456.25,1140.92 1435.41,1164.09 1417,1189.5C 1382.99,1228.16 1342.82,1258.99 1296.5,1282C 1238.71,1306.58 1181.71,1304.92 1125.5,1277C 1104.22,1264.71 1085.72,1249.21 1070,1230.5C 1049.94,1203.06 1033.6,1173.39 1021,1141.5C 1012.31,1116.54 1008.64,1090.88 1010,1064.5C 1012.54,1043.67 1017.87,1023.67 1026,1004.5C 1037.42,979.742 1052.09,957.075 1070,936.5C 1097.91,906.594 1128.41,879.428 1161.5,855C 1176.92,844.411 1192.92,834.745 1209.5,826C 1219.41,817.923 1228.08,808.756 1235.5,798.5 Z"/></g>
<g><path style="opacity:1" fill="#a7c1dd" d="M 928.5,892.5 C 923.443,898.559 917.776,903.893 911.5,908.5C 916.557,902.441 922.224,897.107 928.5,892.5 Z"/></g>
<g><path style="opacity:1" fill="#a7c1dd" d="M 909.5,911.5 C 904.443,917.559 898.776,922.893 892.5,927.5C 897.557,921.441 903.224,916.107 909.5,911.5 Z"/></g>
<g><path style="opacity:1" fill="#2b3685" d="M 3817.5,928.5 C 3842.84,927.319 3867.84,929.153 3892.5,934C 3917.39,941.45 3940.73,952.117 3962.5,966C 3995.32,989.494 4024.49,1016.66 4050,1047.5C 4065.21,1068.98 4080.55,1089.98 4096,1110.5C 4102.17,1116.33 4108.33,1122.17 4114.5,1128C 4117.62,1131.07 4121.29,1133.4 4125.5,1135C 4094.51,1150.16 4063.51,1165.33 4032.5,1180.5C 4026.45,1148.07 4013.61,1118.74 3994,1092.5C 3971.9,1062.73 3944.06,1039.9 3910.5,1024C 3891.05,1019.43 3871.39,1017.43 3851.5,1018C 3834.1,1020.16 3817.77,1025.49 3802.5,1034C 3771.1,1055.08 3746.26,1082.24 3728,1115.5C 3725.95,1121.53 3723.95,1127.53 3722,1133.5C 3716.53,1172.87 3726.19,1207.87 3751,1238.5C 3756.18,1242.75 3760.68,1247.58 3764.5,1253C 3806.48,1291.68 3854.81,1320.18 3909.5,1338.5C 3893.81,1354.69 3877.48,1370.52 3860.5,1386C 3850.65,1395.59 3841.15,1405.42 3832,1415.5C 3829.66,1407.16 3826,1399.5 3821,1392.5C 3815.53,1388.36 3810.69,1383.53 3806.5,1378C 3789.29,1364.38 3771.29,1351.71 3752.5,1340C 3725.66,1319.16 3701.49,1295.66 3680,1269.5C 3673.48,1259.12 3666.48,1249.12 3659,1239.5C 3646.27,1218.71 3636.27,1196.71 3629,1173.5C 3620.8,1123.51 3630.13,1077.18 3657,1034.5C 3673.01,1011.15 3691.84,990.321 3713.5,972C 3743.84,947.337 3778.5,932.837 3817.5,928.5 Z"/></g>
<g><path style="opacity:1" fill="#2b3685" d="M 2381.5,1005.5 C 2402.5,1005.33 2423.5,1005.5 2444.5,1006C 2445.33,1006.83 2446.17,1007.67 2447,1008.5C 2446.79,1016.23 2445.79,1023.9 2444,1031.5C 2435.19,1061.12 2420.19,1087.12 2399,1109.5C 2376.71,1130.57 2351.88,1148.07 2324.5,1162C 2275.55,1184.65 2226.22,1206.31 2176.5,1227C 2162.32,1234.26 2147.99,1241.26 2133.5,1248C 2089.3,1270.92 2050.46,1301.08 2017,1338.5C 1992.1,1369.29 1973.77,1403.62 1962,1441.5C 1958.08,1455.69 1954.24,1469.86 1950.5,1484C 1949.17,1484.67 1947.83,1484.67 1946.5,1484C 1938.47,1479.65 1930.47,1475.32 1922.5,1471C 1854.94,1430.54 1787.27,1390.04 1719.5,1349.5C 1697.33,1338.58 1675.33,1327.41 1653.5,1316C 1637.27,1309.3 1621.1,1302.47 1605,1295.5C 1604.33,1294.5 1604.33,1293.5 1605,1292.5C 1654.87,1251.32 1708.03,1214.82 1764.5,1183C 1925.99,1092.51 2099.32,1035.84 2284.5,1013C 2316.92,1009.6 2349.25,1007.1 2381.5,1005.5 Z"/></g>
<g><path style="opacity:1" fill="#2b3685" d="M 2578.5,1006.5 C 2862.08,1019.63 3119.08,1107.13 3349.5,1269C 3351.36,1270.03 3352.69,1271.53 3353.5,1273.5C 3257.12,1336.01 3161.12,1399.01 3065.5,1462.5C 3064.91,1462.29 3064.41,1461.96 3064,1461.5C 3049.56,1390.78 3015.06,1331.95 2960.5,1285C 2922.24,1254.85 2880.91,1229.18 2836.5,1208C 2776.65,1181.82 2715.98,1157.15 2654.5,1134C 2649.06,1132.11 2644.06,1129.45 2639.5,1126C 2627,1112.5 2614.17,1099.34 2601,1086.5C 2595.92,1078.69 2590.59,1071.03 2585,1063.5C 2577.58,1050.38 2574.25,1036.38 2575,1021.5C 2576.28,1016.51 2577.44,1011.51 2578.5,1006.5 Z"/></g>
<g><path style="opacity:1" fill="#2c3786" d="M 2510.5,1019.5 C 2520.64,1072.43 2543.47,1119.1 2579,1159.5C 2579.33,1160.5 2579.67,1161.5 2580,1162.5C 2591.88,1173.06 2605.05,1181.56 2619.5,1188C 2664.96,1207.12 2710.63,1225.79 2756.5,1244C 2787.31,1257.73 2817.97,1272.06 2848.5,1287C 2875.98,1302.15 2901.98,1319.49 2926.5,1339C 2945.82,1355.58 2962.65,1374.42 2977,1395.5C 2996.23,1425.36 3008.07,1458.03 3012.5,1493.5C 3012.59,1502.58 3008.93,1509.74 3001.5,1515C 2993.75,1520.43 2985.75,1525.43 2977.5,1530C 2974.81,1533.55 2971.47,1536.05 2967.5,1537.5C 2964.42,1500.84 2955.25,1465.84 2940,1432.5C 2933.49,1419.99 2926.16,1407.99 2918,1396.5C 2908.52,1385.76 2898.69,1375.26 2888.5,1365C 2847.11,1332.95 2802.44,1305.95 2754.5,1284C 2724.49,1270 2694.49,1256 2664.5,1242C 2637.88,1228.03 2612.88,1211.7 2589.5,1193C 2560.9,1167.38 2537.4,1137.54 2519,1103.5C 2517.3,1102.59 2515.47,1102.26 2513.5,1102.5C 2510.05,1111.47 2505.88,1120.14 2501,1128.5C 2488.39,1147.79 2473.55,1165.29 2456.5,1181C 2429.34,1203.41 2400.34,1223.08 2369.5,1240C 2325.32,1262.92 2280.99,1285.59 2236.5,1308C 2208.14,1323.69 2180.81,1341.02 2154.5,1360C 2125.77,1382.07 2101.94,1408.57 2083,1439.5C 2061.63,1480.31 2051.79,1523.81 2053.5,1570C 2051.83,1570.67 2050.17,1570.67 2048.5,1570C 2035.24,1563.07 2023.4,1554.24 2013,1543.5C 2006.31,1534.75 2002.81,1524.92 2002.5,1514C 2020.07,1440.85 2057.74,1380.18 2115.5,1332C 2146.69,1308.22 2180.36,1288.22 2216.5,1272C 2262.9,1251.81 2308.9,1230.47 2354.5,1208C 2401.73,1182.43 2444.73,1151.1 2483.5,1114C 2485.31,1111.36 2487.31,1108.86 2489.5,1106.5C 2493.45,1090.28 2496.95,1073.94 2500,1057.5C 2503.55,1044.84 2507.05,1032.18 2510.5,1019.5 Z"/></g>
<g><path style="opacity:1" fill="#2b3685" d="M 890.5,1131.5 C 891.194,1140.84 892.694,1150.17 895,1159.5C 898.362,1167.71 902.695,1175.38 908,1182.5C 914.474,1188.3 920.974,1194.14 927.5,1200C 1002.38,1258.6 1077.05,1316.94 1151.5,1375C 1158.33,1379.16 1165.66,1381.83 1173.5,1383C 1185.51,1383.29 1197.51,1383.29 1209.5,1383C 1177.68,1423.15 1145.52,1462.98 1113,1502.5C 1110.83,1487.81 1106.5,1473.81 1100,1460.5C 1096.19,1457.18 1093.03,1453.35 1090.5,1449C 1043.95,1412.81 997.62,1376.14 951.5,1339C 936.82,1327.91 922.154,1316.91 907.5,1306C 888.157,1289.68 868.157,1274.35 847.5,1260C 830.099,1252.96 812.099,1250.63 793.5,1253C 826.777,1213.23 859.11,1172.73 890.5,1131.5 Z"/></g>
<g><path style="opacity:1" fill="#2b3685" d="M 4186.5,1220.5 C 4216.22,1262.79 4245.55,1305.29 4274.5,1348C 4269.38,1347.81 4264.38,1346.81 4259.5,1345C 4246.46,1343.34 4234.46,1346.01 4223.5,1353C 4168.37,1389.79 4114.03,1427.79 4060.5,1467C 4034.78,1485.05 4008.78,1502.72 3982.5,1520C 3961.09,1534.44 3949.25,1554.61 3947,1580.5C 3917.14,1537.98 3887.3,1495.48 3857.5,1453C 3866.95,1457.06 3876.95,1458.39 3887.5,1457C 3898.69,1454.04 3909.36,1449.71 3919.5,1444C 3954.44,1421.04 3988.77,1397.37 4022.5,1373C 4067.89,1342.64 4112.56,1311.31 4156.5,1279C 4172.84,1267.15 4182.67,1251.32 4186,1231.5C 4186.5,1227.85 4186.67,1224.18 4186.5,1220.5 Z"/></g>
<g><path style="opacity:1" fill="#2d3a88" d="M 2504.5,1260.5 C 2511.92,1259.24 2517.75,1261.58 2522,1267.5C 2523.41,1273.44 2523.74,1279.44 2523,1285.5C 2521.12,1292.01 2516.95,1294.18 2510.5,1292C 2506.33,1287.83 2502.17,1283.67 2498,1279.5C 2497.33,1275.17 2497.33,1270.83 2498,1266.5C 2499.74,1263.93 2501.9,1261.93 2504.5,1260.5 Z"/></g>
<g><path style="opacity:1" fill="#2f3d8a" d="M 2564.5,1314.5 C 2574.16,1314.68 2578.33,1319.68 2577,1329.5C 2578.18,1331.34 2579.35,1333.18 2580.5,1335C 2576.02,1344.94 2569.85,1346.11 2562,1338.5C 2561.33,1331.83 2561.33,1325.17 2562,1318.5C 2562.66,1317.02 2563.5,1315.68 2564.5,1314.5 Z"/></g>
<g><path style="opacity:1" fill="#2e3c89" d="M 2457.5,1315.5 C 2462.54,1316.68 2466.37,1319.68 2469,1324.5C 2470.26,1332.18 2469.26,1339.51 2466,1346.5C 2463.36,1349.95 2460.2,1350.45 2456.5,1348C 2440.61,1336.79 2440.94,1325.95 2457.5,1315.5 Z"/></g>
<g><path style="opacity:1" fill="#2b3685" d="M 1629.5,2331.5 C 1633.5,2329.5 1636.5,2326.5 1638.5,2322.5C 1657.44,2303.39 1676.27,2284.06 1695,2264.5C 1695.67,2261.83 1695.67,2259.17 1695,2256.5C 1668.83,2217.34 1652.5,2174.34 1646,2127.5C 1630.71,2073.99 1618.71,2019.65 1610,1964.5C 1606.95,1938.23 1604.61,1911.9 1603,1885.5C 1601.73,1869.47 1598.07,1854.14 1592,1839.5C 1571.34,1802.5 1555.34,1763.5 1544,1722.5C 1524.4,1648.77 1517.4,1573.77 1523,1497.5C 1526.49,1448.37 1541.49,1403.37 1568,1362.5C 1573.77,1355.72 1579.94,1349.22 1586.5,1343C 1587.87,1342.13 1589.37,1341.63 1591,1341.5C 1726.18,1395.77 1850.68,1467.94 1964.5,1558C 1998.19,1586.51 2030.86,1616.35 2062.5,1647.5C 2072.99,1659.16 2083.66,1670.66 2094.5,1682C 2096,1682.17 2097.5,1682.33 2099,1682.5C 2131.59,1672.98 2164.42,1664.15 2197.5,1656C 2306.05,1630.81 2416.05,1620.14 2527.5,1624C 2583.46,1627.52 2639.46,1630.52 2695.5,1633C 2746.94,1636.4 2797.94,1643.06 2848.5,1653C 2864.89,1657.35 2881.22,1662.02 2897.5,1667C 2903.73,1668.85 2910.06,1669.51 2916.5,1669C 2919.75,1667.42 2922.75,1665.42 2925.5,1663C 3001.73,1592.44 3080.73,1525.11 3162.5,1461C 3204.91,1428.57 3248.91,1398.57 3294.5,1371C 3330.51,1349.49 3368.17,1332.15 3407.5,1319C 3410.67,1318.17 3413.84,1317.33 3417,1316.5C 3418.81,1316.49 3420.31,1317.16 3421.5,1318.5C 3436.27,1343.71 3449.77,1369.71 3462,1396.5C 3476.04,1427.03 3488.7,1458.03 3500,1489.5C 3498.82,1501.1 3497.82,1512.77 3497,1524.5C 3498.07,1562.45 3493.74,1599.79 3484,1636.5C 3480.29,1647.34 3476.96,1658.34 3474,1669.5C 3469.87,1715.61 3462.87,1761.28 3453,1806.5C 3450.53,1813.57 3447.87,1820.57 3445,1827.5C 3439.68,1835.48 3434.01,1843.14 3428,1850.5C 3415.38,1876.32 3408.38,1903.66 3407,1932.5C 3404.2,1969.69 3400.2,2006.69 3395,2043.5C 3390.06,2071.19 3382.73,2098.19 3373,2124.5C 3360.96,2142.76 3349.96,2161.76 3340,2181.5C 3328.51,2207.39 3328.85,2233.06 3341,2258.5C 3344.92,2264.02 3348.59,2269.69 3352,2275.5C 3357.51,2280.67 3362.67,2286.17 3367.5,2292C 3401.73,2319.12 3437.07,2344.79 3473.5,2369C 3481.64,2373.91 3489.97,2378.57 3498.5,2383C 3473.98,2416.21 3450.15,2450.04 3427,2484.5C 3421.08,2495.09 3416.08,2506.09 3412,2517.5C 3409.64,2532.6 3411.31,2547.27 3417,2561.5C 3419.89,2566.78 3422.39,2572.28 3424.5,2578C 3382.46,2594.74 3347.3,2620.57 3319,2655.5C 3305.38,2676.06 3294.38,2698.06 3286,2721.5C 3278.66,2743.52 3272.33,2765.85 3267,2788.5C 3258.93,2815.99 3248.59,2842.65 3236,2868.5C 3223.94,2889.56 3209.94,2909.23 3194,2927.5C 3171.92,2949.8 3147.76,2969.63 3121.5,2987C 3109.09,2994.21 3096.42,3000.87 3083.5,3007C 3071.66,3014.75 3059.99,3022.75 3048.5,3031C 3006.21,3063.62 2964.21,3096.62 2922.5,3130C 2914.07,3136.43 2906.23,3143.6 2899,3151.5C 2891.64,3167.95 2882.97,3183.62 2873,3198.5C 2854.74,3220.44 2836.07,3242.1 2817,3263.5C 2811.28,3270.27 2807.78,3277.93 2806.5,3286.5C 2810.23,3337.56 2797.39,3383.89 2768,3425.5C 2738.9,3464.26 2701.4,3491.43 2655.5,3507C 2629.11,3528.03 2599.45,3542.36 2566.5,3550C 2554.97,3556.83 2542.64,3561.83 2529.5,3565C 2516.12,3566.52 2503.12,3565.19 2490.5,3561C 2462.98,3549.75 2438.65,3533.75 2417.5,3513C 2402.55,3504.52 2387.22,3497.19 2371.5,3491C 2347.58,3482.49 2323.58,3473.83 2299.5,3465C 2280.8,3457.29 2265.3,3445.45 2253,3429.5C 2238.59,3404.02 2231.42,3376.52 2231.5,3347C 2231.73,3332.44 2232.73,3317.94 2234.5,3303.5C 2220.88,3258.41 2196.88,3219.91 2162.5,3188C 2137.66,3169.08 2112.99,3149.91 2088.5,3130.5C 2080.51,3122.68 2072.34,3115.01 2064,3107.5C 2037.53,3078.03 2007.7,3052.53 1974.5,3031C 1940.43,3012.13 1906.76,2992.46 1873.5,2972C 1820.46,2934.48 1782.96,2884.98 1761,2823.5C 1756.27,2803.41 1752.94,2783.07 1751,2762.5C 1747.34,2755.18 1741.5,2750.35 1733.5,2748C 1732.98,2747.44 1732.64,2746.77 1732.5,2746C 1739.82,2735.76 1740.32,2725.26 1734,2714.5C 1728.67,2709.17 1723.33,2703.83 1718,2698.5C 1712.54,2686.35 1704.71,2675.85 1694.5,2667C 1691.55,2665.82 1689.22,2663.82 1687.5,2661C 1657.04,2636.5 1626.21,2612.33 1595,2588.5C 1596.38,2584.15 1599.04,2580.48 1603,2577.5C 1612.94,2565.12 1616.28,2551.12 1613,2535.5C 1607.37,2524.58 1600.03,2514.91 1591,2506.5C 1576.28,2486.33 1562.28,2465.66 1549,2444.5C 1545.6,2438.04 1541.93,2431.7 1538,2425.5C 1536.45,2423.23 1535.61,2420.73 1535.5,2418C 1537.44,2412.1 1539.6,2406.27 1542,2400.5C 1547.13,2387.7 1555.97,2378.53 1568.5,2373C 1576.84,2371.11 1585.17,2369.11 1593.5,2367C 1606.09,2355.58 1618.09,2343.75 1629.5,2331.5 Z"/></g>
<g><path style="opacity:1" fill="#2b3685" d="M 714.5,1355.5 C 723.929,1362.88 734.263,1368.72 745.5,1373C 757.783,1376.32 770.116,1379.32 782.5,1382C 787.868,1384 793.202,1386 798.5,1388C 770.577,1402.92 748.077,1423.75 731,1450.5C 697.206,1515.42 664.372,1581.09 632.5,1647.5C 632.833,1647.83 633.167,1648.17 633.5,1648.5C 664.741,1662.37 695.908,1676.37 727,1690.5C 759.23,1627.37 790.897,1564.04 822,1500.5C 824.315,1492.57 826.315,1484.57 828,1476.5C 842.68,1495.53 855.346,1515.86 866,1537.5C 870.219,1545.7 871.886,1554.37 871,1563.5C 850.51,1606.64 829.177,1649.3 807,1691.5C 802.105,1701.46 797.605,1711.63 793.5,1722C 814.139,1733.32 834.805,1744.65 855.5,1756C 863.983,1759.99 872.65,1763.49 881.5,1766.5C 882.167,1766.17 882.833,1765.83 883.5,1765.5C 913.715,1704.07 944.215,1642.74 975,1581.5C 991.128,1541.84 997.128,1500.5 993,1457.5C 1000.62,1464.46 1007.62,1472.13 1014,1480.5C 1027.19,1502.75 1044.36,1521.25 1065.5,1536C 1069.51,1537.17 1073.51,1538.33 1077.5,1539.5C 1062.77,1565.94 1048.27,1592.61 1034,1619.5C 985.037,1715.09 937.371,1811.43 891,1908.5C 886.422,1899 881.089,1890 875,1881.5C 869.681,1876.68 864.515,1871.68 859.5,1866.5C 853.663,1863.08 847.996,1859.42 842.5,1855.5C 773.305,1822.4 704.639,1788.57 636.5,1754C 616.661,1744.91 596.994,1735.58 577.5,1726C 562.91,1721.89 548.243,1721.56 533.5,1725C 530.852,1727.05 527.852,1728.22 524.5,1728.5C 538.62,1698.34 553.287,1668.34 568.5,1638.5C 617.956,1544.59 666.623,1450.25 714.5,1355.5 Z"/></g>
<g><path style="opacity:1" fill="#2b3685" d="M 1479.5,1396.5 C 1480.57,1397.25 1480.74,1398.25 1480,1399.5C 1451.48,1457.12 1437.64,1518.28 1438.5,1583C 1438.87,1617.91 1440.37,1652.74 1443,1687.5C 1420.7,1702.15 1400.36,1719.15 1382,1738.5C 1351.46,1773.37 1322.8,1809.7 1296,1847.5C 1275.55,1874.28 1253.38,1899.44 1229.5,1923C 1223.86,1927.64 1218.19,1932.3 1212.5,1937C 1175.57,1965.74 1133.57,1978.41 1086.5,1975C 1085.4,1972.6 1085.23,1970.1 1086,1967.5C 1123.1,1863.96 1172.43,1766.63 1234,1675.5C 1304.71,1572.78 1386.54,1479.78 1479.5,1396.5 Z"/></g>
<g><path style="opacity:1" fill="#2b3685" d="M 4320.5,1408.5 C 4365.13,1501.46 4410.3,1594.46 4456,1687.5C 4467.94,1713.15 4479.77,1738.82 4491.5,1764.5C 4480.77,1763.87 4471.1,1766.71 4462.5,1773C 4450.78,1783.39 4439.78,1794.39 4429.5,1806C 4424.27,1811.07 4418.6,1815.57 4412.5,1819.5C 4412.17,1818.67 4411.83,1817.83 4411.5,1817C 4414.36,1800.41 4413.86,1783.91 4410,1767.5C 4400.57,1730.28 4386.9,1694.62 4369,1660.5C 4368.28,1659.94 4367.44,1659.61 4366.5,1659.5C 4310.27,1683.45 4254.93,1709.28 4200.5,1737C 4177.24,1747.97 4153.91,1758.64 4130.5,1769C 4105.79,1783.04 4087.29,1802.87 4075,1828.5C 4052.87,1782.07 4030.37,1735.91 4007.5,1690C 4014.77,1691.73 4022.1,1693.73 4029.5,1696C 4044.79,1699.27 4059.45,1697.6 4073.5,1691C 4135.37,1660.74 4197.37,1630.4 4259.5,1600C 4280.07,1590.22 4300.73,1580.72 4321.5,1571.5C 4303.42,1526.18 4277.42,1486.01 4243.5,1451C 4236.47,1444.97 4229.14,1439.31 4221.5,1434C 4225.76,1432.37 4230.09,1431.04 4234.5,1430C 4249.81,1428.88 4265.14,1428.21 4280.5,1428C 4292.12,1427.43 4302.78,1424.1 4312.5,1418C 4315.75,1415.25 4318.42,1412.09 4320.5,1408.5 Z"/></g>
<g><path style="opacity:1" fill="#2c3886" d="M 2514.5,1410.5 C 2516.93,1442.75 2520.1,1475.08 2524,1507.5C 2527.89,1527.7 2532.39,1547.7 2537.5,1567.5C 2515.16,1567.83 2492.82,1567.5 2470.5,1566.5C 2480.69,1531.76 2490.19,1496.76 2499,1461.5C 2504.28,1444.5 2509.45,1427.5 2514.5,1410.5 Z"/></g>
<g><path style="opacity:1" fill="#fcbd11" d="M 3017.5,2822.5 C 2913.94,2864.11 2814.94,2914.44 2720.5,2973.5C 2712.01,2943.06 2706.01,2912.4 2702.5,2881.5C 2705.7,2850.97 2710.2,2820.64 2716,2790.5C 2723.39,2755.6 2731.73,2720.93 2741,2686.5C 2742.18,2673.87 2742.85,2661.2 2743,2648.5C 2816.54,2652.16 2881.71,2630.66 2938.5,2584C 2964.48,2561.34 2981.31,2533.17 2989,2499.5C 2990.12,2497.38 2991.62,2495.54 2993.5,2494C 3029.78,2489.25 3062.11,2475.59 3090.5,2453C 3096.04,2447.63 3101.38,2442.13 3106.5,2436.5C 3106.11,2435.28 3105.28,2434.61 3104,2434.5C 3067.74,2441.47 3031.24,2446.8 2994.5,2450.5C 2942.43,2444.88 2891.26,2441.22 2841,2439.5C 2827,2438.83 2813,2438.17 2799,2437.5C 2789.1,2437.92 2778.1,2438.59 2766,2439.5C 2752.34,2439.32 2738.84,2441.49 2725.5,2446C 2716.88,2450.4 2716.04,2455.57 2723,2461.5C 2723.67,2463.5 2723.67,2465.5 2723,2467.5C 2716.64,2470.85 2710.14,2474.02 2703.5,2477C 2681.04,2492.46 2661.87,2511.29 2646,2533.5C 2639.5,2542.49 2633.5,2551.83 2628,2561.5C 2623.41,2574.67 2617.75,2587.34 2611,2599.5C 2600.09,2613.65 2589.42,2627.99 2579,2642.5C 2575.07,2648.96 2572.73,2655.96 2572,2663.5C 2568.24,2687.75 2567.57,2712.08 2570,2736.5C 2573.15,2751.75 2575.65,2767.08 2577.5,2782.5C 2576.61,2794.57 2575.11,2806.57 2573,2818.5C 2570.6,2846.89 2571.6,2874.89 2576,2902.5C 2580.13,2931.14 2585.8,2959.48 2593,2987.5C 2606.82,3031.11 2620.49,3074.78 2634,3118.5C 2641.93,3148.22 2648.6,3178.22 2654,3208.5C 2656.14,3215.66 2660.97,3218.99 2668.5,3218.5C 2653.46,3232.52 2637.13,3244.86 2619.5,3255.5C 2616.31,3251.15 2612.31,3247.65 2607.5,3245C 2576.53,3231.08 2544.36,3223.58 2511,3222.5C 2480.09,3222.12 2448.93,3224.62 2417.5,3230C 2404.55,3231.48 2392.88,3235.98 2382.5,3243.5C 2369.7,3235.9 2359.03,3226.56 2350.5,3215.5C 2360.41,3213.79 2370.41,3212.29 2380.5,3211C 2383.38,3209.75 2385.21,3207.58 2386,3204.5C 2386.47,3200.02 2385.8,3195.69 2384,3191.5C 2379.5,3182.7 2374.67,3174.2 2369.5,3166C 2381.2,3147.95 2390.03,3128.45 2396,3107.5C 2411.91,3049.27 2424.25,2990.27 2433,2930.5C 2445.86,2849.14 2455.69,2767.64 2462.5,2686C 2455.73,2661.23 2440.4,2643.89 2416.5,2634C 2387.04,2622.15 2379.87,2630.65 2395,2659.5C 2403.54,2672.87 2413.04,2685.54 2423.5,2697.5C 2415.87,2713.99 2410.71,2731.32 2408,2749.5C 2394.92,2834.49 2381.92,2919.49 2369,3004.5C 2367.62,3020.02 2363.46,3034.68 2356.5,3048.5C 2340.43,3037.28 2324.43,3025.78 2308.5,3014C 2307.18,3013.18 2306.51,3012.02 2306.5,3010.5C 2307.89,3005.16 2309.39,2999.82 2311,2994.5C 2312.3,2985.38 2312.96,2976.38 2313,2967.5C 2331.54,2935.61 2336.87,2901.61 2329,2865.5C 2320.71,2835.29 2310.04,2805.96 2297,2777.5C 2284.18,2747.71 2275.85,2716.71 2272,2684.5C 2271.61,2683.57 2270.95,2682.91 2270,2682.5C 2260.99,2687.17 2255.32,2694.5 2253,2704.5C 2251.59,2708.74 2251.09,2712.57 2251.5,2716C 2262.48,2740.8 2271.65,2766.3 2279,2792.5C 2288.77,2834.21 2290.1,2876.21 2283,2918.5C 2279.42,2941.24 2274.25,2963.58 2267.5,2985.5C 2212.85,2949.04 2156.85,2915.54 2099.5,2885C 2077.89,2873.7 2055.89,2863.2 2033.5,2853.5C 2013.98,2824.15 1989.31,2799.98 1959.5,2781C 1949.58,2776.03 1939.25,2772.03 1928.5,2769C 1909.98,2765.53 1891.32,2763.2 1872.5,2762C 1847.1,2759.05 1826.93,2747.22 1812,2726.5C 1804.93,2715.98 1798.59,2704.98 1793,2693.5C 1788.24,2686.74 1782.74,2680.57 1776.5,2675C 1757.56,2662.39 1738.89,2649.39 1720.5,2636C 1709.86,2627.08 1699.69,2617.58 1690,2607.5C 1689.5,2606.5 1689,2605.5 1688.5,2604.5C 1694.22,2595.67 1696.06,2586 1694,2575.5C 1689.97,2560.78 1683.31,2547.45 1674,2535.5C 1658.57,2516.73 1645.57,2496.4 1635,2474.5C 1621.46,2435.56 1630.62,2401.4 1662.5,2372C 1679.64,2358.6 1697.3,2345.93 1715.5,2334C 1751.31,2306.96 1761.48,2272.13 1746,2229.5C 1734.08,2199.73 1723.74,2169.4 1715,2138.5C 1700.67,2083.83 1686.33,2029.17 1672,1974.5C 1660.07,1941.7 1648.73,1908.7 1638,1875.5C 1628.74,1839.71 1622.74,1803.38 1620,1766.5C 1614.16,1729.16 1605.5,1692.49 1594,1656.5C 1581.73,1621.34 1570.06,1586.01 1559,1550.5C 1554.93,1535.75 1553.59,1520.75 1555,1505.5C 1556.2,1499.23 1558.2,1493.23 1561,1487.5C 1566.32,1480.19 1571.98,1473.19 1578,1466.5C 1583.38,1452.73 1589.05,1439.06 1595,1425.5C 1597.59,1417.9 1602.75,1415.07 1610.5,1417C 1628.23,1422.58 1645.23,1429.91 1661.5,1439C 1694.01,1457.75 1725.68,1477.75 1756.5,1499C 1897.7,1601 2033.03,1710.66 2162.5,1828C 2164.53,1829.88 2166.86,1831.05 2169.5,1831.5C 2163.07,1807.7 2154.57,1784.7 2144,1762.5C 2134.55,1753.33 2135.39,1745.5 2146.5,1739C 2191.17,1719.33 2237.5,1704.67 2285.5,1695C 2365.53,1677.56 2444.69,1671.06 2523,1675.5C 2579.22,1681.54 2635.72,1688.04 2692.5,1695C 2731.16,1699.46 2768.83,1708.13 2805.5,1721C 2815.45,1725.31 2824.79,1730.64 2833.5,1737C 2851.29,1753.08 2855.46,1772.25 2846,1794.5C 2841.05,1804.91 2835.21,1814.74 2828.5,1824C 2870.9,1796.26 2911.9,1766.26 2951.5,1734C 2988.85,1679.77 3033.52,1632.11 3085.5,1591C 3180.97,1515.74 3286.3,1457.24 3401.5,1415.5C 3403.4,1416.06 3405.07,1417.06 3406.5,1418.5C 3426.4,1459.95 3439.07,1503.45 3444.5,1549C 3445.34,1566.32 3442.51,1583.82 3436,1601.5C 3426.05,1621.07 3416.38,1640.74 3407,1660.5C 3397.16,1687.38 3390.49,1715.05 3387,1743.5C 3383.76,1770.65 3381.43,1797.32 3380,1823.5C 3372.94,1834.99 3367.61,1847.32 3364,1860.5C 3355.54,1890.89 3346.87,1921.23 3338,1951.5C 3327.71,1989.52 3321.71,2028.18 3320,2067.5C 3317.93,2076.03 3315.27,2084.36 3312,2092.5C 3303.63,2109.52 3295.3,2126.52 3287,2143.5C 3276.31,2170.54 3272.15,2198.37 3274.5,2227C 3276.94,2249.88 3281.44,2272.38 3288,2294.5C 3289.75,2298.33 3291.75,2301.99 3294,2305.5C 3324.61,2341.46 3359.78,2371.96 3399.5,2397C 3404.07,2400.18 3404.57,2404.02 3401,2408.5C 3385.88,2432.29 3369.21,2454.96 3351,2476.5C 3333.72,2498.68 3324.55,2523.85 3323.5,2552C 3324.95,2563.46 3326.12,2574.96 3327,2586.5C 3310.44,2606.06 3292.27,2623.9 3272.5,2640C 3219.42,2683.67 3160.75,2718.33 3096.5,2744C 3091.85,2746.63 3087.19,2749.3 3082.5,2752C 3060.97,2775.7 3039.3,2799.2 3017.5,2822.5 Z"/></g>
<g><path style="opacity:1" fill="#2b3685" d="M 3558.5,1445.5 C 3581.69,1465.19 3602.85,1486.52 3622,1509.5C 3707.92,1603.06 3779.25,1707.72 3836,1823.5C 3846.8,1846.78 3856.8,1870.45 3866,1894.5C 3871.86,1910.65 3877.03,1926.99 3881.5,1943.5C 3853.6,1942.69 3827.6,1935.36 3803.5,1921.5C 3789.31,1913.43 3776.31,1903.93 3764.5,1893C 3760.63,1890.55 3756.96,1887.88 3753.5,1885C 3742.64,1873.47 3731.47,1862.31 3720,1851.5C 3709.36,1840.14 3699.36,1828.14 3690,1815.5C 3688.33,1814.17 3686.67,1812.83 3685,1811.5C 3682.58,1808.75 3680.58,1805.75 3679,1802.5C 3677.62,1800.79 3675.96,1799.45 3674,1798.5C 3673.67,1797.5 3673.33,1796.5 3673,1795.5C 3669.68,1792.21 3666.34,1788.88 3663,1785.5C 3662.67,1784.5 3662.33,1783.5 3662,1782.5C 3658.11,1779.03 3654.44,1775.36 3651,1771.5C 3650.33,1770.17 3649.67,1768.83 3649,1767.5C 3632.89,1749.39 3616.06,1731.89 3598.5,1715C 3597.17,1714.33 3595.83,1713.67 3594.5,1713C 3591.25,1709.68 3587.92,1706.35 3584.5,1703C 3569.92,1692.41 3555.09,1682.25 3540,1672.5C 3539.33,1670.17 3539.33,1667.83 3540,1665.5C 3559.69,1593.35 3565.86,1520.01 3558.5,1445.5 Z"/></g>
<g><path style="opacity:1" fill="#2b3685" d="M 3357.5,1460.5 C 3366.1,1460.21 3372.27,1463.88 3376,1471.5C 3378.24,1486.77 3381.07,1501.94 3384.5,1517C 3372,1549.49 3363.17,1582.99 3358,1617.5C 3351.5,1666.35 3345.83,1715.02 3341,1763.5C 3336.72,1805.24 3327.72,1845.91 3314,1885.5C 3308.31,1899.89 3301.31,1913.55 3293,1926.5C 3292.09,1960.36 3288.09,1994.7 3281,2029.5C 3272.49,2067.06 3252.66,2096.89 3221.5,2119C 3219.17,2119.67 3216.83,2119.67 3214.5,2119C 3180.75,2101.47 3149.42,2080.47 3120.5,2056C 3106.54,2044.37 3092.87,2032.37 3079.5,2020C 3042.65,1984.32 3005.65,1948.82 2968.5,1913.5C 2986.36,1901.65 3001.53,1886.98 3014,1869.5C 3024.94,1850.48 3030.44,1829.98 3030.5,1808C 3029.29,1786.78 3028.63,1765.78 3028.5,1745C 3030.81,1712.22 3043.31,1684.06 3066,1660.5C 3098.99,1626.83 3135.49,1597.67 3175.5,1573C 3213.83,1551.84 3251.83,1530.17 3289.5,1508C 3310.01,1494.49 3329.68,1479.82 3348.5,1464C 3351.6,1462.77 3354.6,1461.61 3357.5,1460.5 Z"/></g>
<g><path style="opacity:1" fill="#2b3685" d="M 1617.5,1467.5 C 1632.24,1467.04 1644.91,1471.88 1655.5,1482C 1679.94,1492.38 1702.27,1506.04 1722.5,1523C 1737.12,1537.32 1751.79,1551.66 1766.5,1566C 1785.34,1580.59 1805.67,1592.93 1827.5,1603C 1840.3,1609.15 1853.47,1614.32 1867,1618.5C 1869.92,1628.34 1874.42,1637.34 1880.5,1645.5C 1898.37,1665.58 1914.04,1687.24 1927.5,1710.5C 1936.19,1720.02 1944.69,1729.69 1953,1739.5C 1960.03,1748.24 1963.69,1758.24 1964,1769.5C 1964.41,1775.87 1964.58,1782.04 1964.5,1788C 1962.37,1806.32 1960.37,1824.99 1958.5,1844C 1957.97,1850.82 1959.13,1857.32 1962,1863.5C 1965.87,1867.95 1970.2,1871.95 1975,1875.5C 1981.87,1887.86 1992.04,1896.36 2005.5,1901C 2013.39,1905.93 2015.56,1912.76 2012,1921.5C 2009,1926.83 2006,1932.17 2003,1937.5C 1981.82,1967.85 1960.16,1997.85 1938,2027.5C 1924.11,2038.2 1909.61,2048.03 1894.5,2057C 1854.71,2087.45 1816.71,2120.12 1780.5,2155C 1778.83,2155.67 1777.17,2155.67 1775.5,2155C 1752.43,2141.71 1736.26,2122.54 1727,2097.5C 1722.57,2084.1 1719.23,2070.44 1717,2056.5C 1714.38,2026.57 1710.05,1996.91 1704,1967.5C 1702.2,1961.11 1700.2,1954.77 1698,1948.5C 1681.55,1913.49 1668.89,1877.16 1660,1839.5C 1647.63,1782.59 1637.63,1725.25 1630,1667.5C 1624.44,1627.24 1619.44,1586.9 1615,1546.5C 1611.16,1531.96 1607.82,1517.29 1605,1502.5C 1603.2,1493.48 1603.2,1484.48 1605,1475.5C 1608.38,1471.41 1612.54,1468.74 1617.5,1467.5 Z"/></g>
<g><path style="opacity:1" fill="#fefefe" d="M 3331.5,1527.5 C 3332.1,1527.74 3332.43,1528.24 3332.5,1529C 3329.94,1547.53 3327.11,1566.03 3324,1584.5C 3313.55,1628.63 3303.88,1672.96 3295,1717.5C 3292.33,1733.89 3290.83,1750.39 3290.5,1767C 3291.31,1780.84 3291.81,1794.67 3292,1808.5C 3280.61,1824 3272.28,1841 3267,1859.5C 3258.08,1897.85 3250.42,1936.51 3244,1975.5C 3240.92,1983.5 3238.59,1991.83 3237,2000.5C 3232.01,2014.13 3225.67,2027.13 3218,2039.5C 3214.18,2045.04 3209.01,2046.87 3202.5,2045C 3187.99,2041.16 3174.65,2034.83 3162.5,2026C 3143.27,2010.1 3125.44,1992.94 3109,1974.5C 3102.02,1964.86 3094.36,1955.86 3086,1947.5C 3074.36,1936.86 3063.03,1925.86 3052,1914.5C 3051.33,1912.83 3051.33,1911.17 3052,1909.5C 3064.33,1886.83 3076.67,1864.17 3089,1841.5C 3094.98,1826.64 3096.65,1811.31 3094,1795.5C 3091.47,1787.94 3087.81,1780.94 3083,1774.5C 3082.67,1745.8 3090.67,1719.8 3107,1696.5C 3127.42,1671.74 3151.26,1650.91 3178.5,1634C 3213.08,1613.09 3247.41,1591.76 3281.5,1570C 3290.17,1563.33 3298.83,1556.67 3307.5,1550C 3315.85,1542.7 3323.85,1535.2 3331.5,1527.5 Z"/></g>
<g><path style="opacity:1" fill="#fefefe" d="M 1658.5,1548.5 C 1669.31,1554.74 1679.97,1561.24 1690.5,1568C 1725.14,1594.62 1758.48,1622.62 1790.5,1652C 1803.92,1663.22 1818.26,1673.22 1833.5,1682C 1839.63,1684.45 1845.96,1686.12 1852.5,1687C 1856.54,1691.43 1860.04,1696.26 1863,1701.5C 1877.36,1715.96 1890.03,1731.62 1901,1748.5C 1907.62,1760.76 1912.29,1773.76 1915,1787.5C 1917.07,1812.68 1920.4,1837.68 1925,1862.5C 1927.67,1870.5 1930.33,1878.5 1933,1886.5C 1940.61,1900.72 1947.94,1915.05 1955,1929.5C 1957.32,1937.38 1956.98,1945.04 1954,1952.5C 1928.68,1975.16 1904.01,1998.49 1880,2022.5C 1861.56,2043.27 1842.73,2063.77 1823.5,2084C 1817.23,2088.97 1810.23,2092.64 1802.5,2095C 1791.06,2096.41 1782.22,2092.24 1776,2082.5C 1760.17,2054.53 1753.84,2024.53 1757,1992.5C 1759.2,1986.91 1761.2,1981.24 1763,1975.5C 1765.72,1962.33 1762.39,1951 1753,1941.5C 1734.96,1914.77 1718.96,1886.77 1705,1857.5C 1701.52,1840.97 1698.85,1824.31 1697,1807.5C 1692.83,1761.85 1688.83,1716.18 1685,1670.5C 1682.28,1640.45 1677.61,1610.79 1671,1581.5C 1667.48,1570.18 1663.31,1559.18 1658.5,1548.5 Z"/></g>
<g><path style="opacity:1" fill="#2c3886" d="M 3522.5,1744.5 C 3523.55,1744.35 3524.55,1744.52 3525.5,1745C 3537.91,1755.42 3550.24,1765.76 3562.5,1776C 3605.14,1818.31 3648.14,1860.31 3691.5,1902C 3692.83,1902.67 3694.17,1903.33 3695.5,1904C 3732.51,1940.02 3775.51,1966.69 3824.5,1984C 3851.58,1992.01 3879.25,1994.67 3907.5,1992C 3910.17,1994.67 3910.17,1997.33 3907.5,2000C 3866.33,2030.19 3837.83,2069.69 3822,2118.5C 3810.85,2157.99 3805.19,2198.32 3805,2239.5C 3804.85,2287.84 3804.19,2336.18 3803,2384.5C 3800.56,2424.36 3792.89,2463.03 3780,2500.5C 3752.27,2566.56 3704.43,2611.39 3636.5,2635C 3576.59,2652.51 3515.26,2658.84 3452.5,2654C 3451.41,2651.94 3451.24,2649.77 3452,2647.5C 3456.14,2637.36 3463.31,2630.19 3473.5,2626C 3479.57,2624.25 3485.57,2622.25 3491.5,2620C 3513.79,2616.09 3536.12,2612.42 3558.5,2609C 3617.04,2594.11 3666.87,2564.61 3708,2520.5C 3731.5,2492.17 3748.17,2460.17 3758,2424.5C 3764.74,2397.87 3769.41,2370.87 3772,2343.5C 3775.71,2297.81 3779.71,2252.14 3784,2206.5C 3787.4,2180.36 3792.4,2154.69 3799,2129.5C 3810.68,2089.31 3829.85,2053.14 3856.5,2021C 3856.11,2018.54 3854.78,2016.87 3852.5,2016C 3818.28,2007.22 3786.28,1993.55 3756.5,1975C 3702.29,1940.44 3651.96,1901.1 3605.5,1857C 3601.99,1855.69 3599.33,1853.35 3597.5,1850C 3592.76,1846.31 3588.09,1842.64 3583.5,1839C 3573.13,1828.63 3562.46,1818.63 3551.5,1809C 3539.79,1799.72 3527.96,1790.56 3516,1781.5C 3515.71,1773.11 3516.38,1764.78 3518,1756.5C 3518.43,1752.04 3519.93,1748.04 3522.5,1744.5 Z"/></g>
<g><path style="opacity:1" fill="#2c3786" d="M 1463.5,1748.5 C 1464.87,1748.34 1466.21,1748.51 1467.5,1749C 1473.38,1756.54 1479.55,1763.7 1486,1770.5C 1486.67,1772.5 1486.67,1774.5 1486,1776.5C 1459.3,1806.53 1432.64,1836.53 1406,1866.5C 1388.5,1883.67 1371.33,1901.17 1354.5,1919C 1329.72,1942.11 1303.72,1963.78 1276.5,1984C 1245.42,2005.21 1212.09,2022.21 1176.5,2035C 1163.46,2038.18 1150.46,2041.51 1137.5,2045C 1136.56,2047.8 1136.72,2050.63 1138,2053.5C 1156.26,2081.7 1174.26,2110.03 1192,2138.5C 1200.34,2154.87 1207.01,2171.87 1212,2189.5C 1225.8,2265.01 1242.8,2339.68 1263,2413.5C 1274.26,2447.93 1288.26,2481.27 1305,2513.5C 1317.69,2534.79 1331.69,2554.79 1347,2573.5C 1354.47,2579.64 1361.31,2586.47 1367.5,2594C 1407.66,2627.74 1453.66,2649.4 1505.5,2659C 1527.62,2658.65 1549.62,2659.98 1571.5,2663C 1575.03,2664.59 1578.7,2665.93 1582.5,2667C 1586.11,2668.94 1589.44,2671.28 1592.5,2674C 1596.77,2677.86 1596.44,2680.86 1591.5,2683C 1559.29,2687.13 1526.95,2688.47 1494.5,2687C 1441.5,2683.57 1392.17,2668.57 1346.5,2642C 1294.74,2607.79 1257.24,2561.62 1234,2503.5C 1224.69,2478.65 1218.02,2452.98 1214,2426.5C 1210.55,2384.48 1206.89,2342.48 1203,2300.5C 1198.99,2262.76 1192.66,2225.43 1184,2188.5C 1175.09,2154.68 1160.76,2123.35 1141,2094.5C 1119.15,2065.82 1091.99,2043.66 1059.5,2028C 1118.53,2036.9 1172.53,2024.74 1221.5,1991.5C 1238.73,1978.79 1254.9,1964.79 1270,1949.5C 1298.75,1917.42 1326.75,1884.76 1354,1851.5C 1376.77,1825.4 1400.94,1800.56 1426.5,1777C 1438.54,1767 1450.87,1757.5 1463.5,1748.5 Z"/></g>
<g><path style="opacity:1" fill="#86a9cf" d="M 4622.5,1758.5 C 4624.41,1762.22 4625.74,1766.22 4626.5,1770.5C 4624.19,1766.92 4622.86,1762.92 4622.5,1758.5 Z"/></g>
<g><path style="opacity:1" fill="#2b3685" d="M 2640.5,1772.5 C 2641.24,1772.37 2641.91,1772.54 2642.5,1773C 2630.35,1797.16 2614.35,1818.5 2594.5,1837C 2580.14,1846.36 2567.3,1857.53 2556,1870.5C 2549.09,1878.65 2544.59,1887.99 2542.5,1898.5C 2542.35,1908.83 2542.52,1919.83 2543,1931.5C 2544.22,1936.27 2545.72,1940.93 2547.5,1945.5C 2547.36,1948.95 2546.03,1949.45 2543.5,1947C 2534.92,1940.63 2527.09,1933.46 2520,1925.5C 2519.27,1918.59 2517.6,1911.93 2515,1905.5C 2514.14,1899.29 2513.3,1893.12 2512.5,1887C 2512.52,1880.99 2512.52,1874.99 2512.5,1869C 2513.14,1866.75 2513.97,1864.59 2515,1862.5C 2528.43,1848.71 2542.93,1836.21 2558.5,1825C 2585.73,1807.23 2613.06,1789.73 2640.5,1772.5 Z"/></g>
<g><path style="opacity:1" fill="#2b3685" d="M 2355.5,1780.5 C 2398.9,1810.73 2440.4,1843.39 2480,1878.5C 2482.98,1885 2483.32,1891.67 2481,1898.5C 2476.66,1912.86 2471.16,1926.69 2464.5,1940C 2461.69,1940.92 2459.53,1940.09 2458,1937.5C 2449.27,1927.03 2441.27,1916.03 2434,1904.5C 2433.88,1895.77 2433.21,1887.11 2432,1878.5C 2429.17,1871 2424,1865.83 2416.5,1863C 2374.32,1851.95 2353.99,1824.45 2355.5,1780.5 Z"/></g>
<g><path style="opacity:1" fill="#86a9cf" d="M 368.5,1781.5 C 367.806,1786.92 366.14,1791.92 363.5,1796.5C 364.595,1791.22 366.261,1786.22 368.5,1781.5 Z"/></g>
<g><path style="opacity:1" fill="#2b3785" d="M 4514.5,1810.5 C 4527.62,1865.85 4539.45,1921.51 4550,1977.5C 4536.72,1966.79 4522.55,1965.62 4507.5,1974C 4474.89,2006.28 4442.72,2038.78 4411,2071.5C 4401.7,2082.47 4392.04,2093.13 4382,2103.5C 4381.52,2104.45 4381.35,2105.45 4381.5,2106.5C 4387.75,2107.64 4393.75,2109.47 4399.5,2112C 4448.61,2133.56 4497.94,2154.56 4547.5,2175C 4559.18,2179.53 4569.52,2177.53 4578.5,2169C 4581.01,2165.66 4583.67,2162.5 4586.5,2159.5C 4597.76,2210.05 4608.26,2260.71 4618,2311.5C 4609.44,2305.27 4600.6,2299.44 4591.5,2294C 4530.88,2264.01 4469.88,2235.01 4408.5,2207C 4391.32,2198.24 4373.98,2189.74 4356.5,2181.5C 4347.67,2176.92 4339.01,2172.09 4330.5,2167C 4316.74,2161.77 4302.74,2161.1 4288.5,2165C 4269.45,2168.61 4250.78,2173.61 4232.5,2180C 4213.89,2188.94 4199.06,2202.11 4188,2219.5C 4178.27,2168.84 4167.77,2118.34 4156.5,2068C 4156.83,2067.5 4157.17,2067 4157.5,2066.5C 4176.58,2083.27 4198.58,2088.44 4223.5,2082C 4245.9,2078.83 4267.9,2074.16 4289.5,2068C 4292.83,2066 4296.17,2064 4299.5,2062C 4354.62,2006.4 4407.29,1948.9 4457.5,1889.5C 4467.48,1878.02 4477.98,1867.02 4489,1856.5C 4494.5,1849 4500,1841.5 4505.5,1834C 4509.39,1826.49 4512.39,1818.66 4514.5,1810.5 Z"/></g>
<g><path style="opacity:1" fill="#2b3685" d="M 775.5,1895.5 C 775.897,1894.47 776.563,1894.31 777.5,1895C 794.65,1905.56 810.65,1917.56 825.5,1931C 833.694,1936.93 842.027,1942.59 850.5,1948C 860.043,1952.37 870.043,1953.7 880.5,1952C 854.371,2070.95 827.871,2189.79 801,2308.5C 794.444,2297.19 785.944,2287.69 775.5,2280C 768.253,2275.17 760.586,2271.17 752.5,2268C 656.85,2246.6 560.85,2225.6 464.5,2205C 451.199,2201.02 438.199,2201.68 425.5,2207C 418.579,2211.71 411.746,2216.54 405,2221.5C 405.212,2214.43 406.212,2207.43 408,2200.5C 417.614,2154.76 427.614,2109.1 438,2063.5C 444.983,2074.3 452.483,2084.63 460.5,2094.5C 466.303,2100.24 472.969,2104.74 480.5,2108C 572.299,2129.49 664.466,2149.66 757,2168.5C 757.833,2168.17 758.667,2167.83 759.5,2167.5C 768.131,2126.85 776.964,2086.18 786,2045.5C 793.396,2009.01 794.396,1972.34 789,1935.5C 787.353,1921.06 782.853,1907.72 775.5,1895.5 Z"/></g>
<g><path style="opacity:1" fill="#2d3a87" d="M 3571.5,1991.5 C 3578.52,1990.61 3584.02,1992.94 3588,1998.5C 3590.16,2005.91 3589.99,2013.25 3587.5,2020.5C 3584.72,2023.31 3581.39,2024.14 3577.5,2023C 3572.25,2019.63 3567.75,2015.46 3564,2010.5C 3563.33,2006.17 3563.33,2001.83 3564,1997.5C 3566.16,1994.88 3568.66,1992.88 3571.5,1991.5 Z"/></g>
<g><path style="opacity:1" fill="#2d3a88" d="M 1441.5,2004.5 C 1450.46,2002.06 1456.63,2005.06 1460,2013.5C 1460.82,2019.9 1460.48,2026.24 1459,2032.5C 1456.29,2036.03 1452.79,2037.2 1448.5,2036C 1443.31,2032.14 1438.81,2027.64 1435,2022.5C 1432.61,2014.57 1434.77,2008.57 1441.5,2004.5 Z"/></g>
<g><path style="opacity:1" fill="#2d3a87" d="M 3515.5,2052.5 C 3517.26,2052.36 3518.93,2052.69 3520.5,2053.5C 3522.47,2056.64 3524.64,2059.64 3527,2062.5C 3528.53,2070.67 3527.03,2078.17 3522.5,2085C 3519.37,2085.79 3516.37,2085.46 3513.5,2084C 3499.81,2072.64 3500.48,2062.14 3515.5,2052.5 Z"/></g>
<g><path style="opacity:1" fill="#2f3c89" d="M 3626.5,2051.5 C 3632.35,2050.81 3636.18,2053.14 3638,2058.5C 3638.33,2061.83 3638.67,2065.17 3639,2068.5C 3641.3,2070.34 3641.97,2072.67 3641,2075.5C 3637.1,2080.53 3632.27,2081.7 3626.5,2079C 3623.64,2073.17 3622.8,2067 3624,2060.5C 3624.2,2057.25 3625.03,2054.25 3626.5,2051.5 Z"/></g>
<g><path style="opacity:1" fill="#2b3685" d="M 3925.5,2056.5 C 3926.5,2056.5 3927.5,2056.5 3928.5,2056.5C 3928.34,2058.86 3928.5,2061.19 3929,2063.5C 4002.95,2314.67 4013.62,2568.67 3961,2825.5C 3920.98,3005.89 3850.64,3172.89 3750,3326.5C 3685.84,3422.31 3612.67,3510.48 3530.5,3591C 3506.94,3614.06 3482.61,3636.23 3457.5,3657.5C 3450.31,3616.87 3452.81,3576.87 3465,3537.5C 3475.98,3503.87 3489.98,3471.53 3507,3440.5C 3531.39,3397.8 3555.73,3355.13 3580,3312.5C 3598.9,3276.59 3613.56,3238.93 3624,3199.5C 3635.85,3149.66 3635.18,3099.99 3622,3050.5C 3605.47,3001.02 3579.47,2957.35 3544,2919.5C 3500.65,2875.91 3451.82,2839.74 3397.5,2811C 3379.14,2802.24 3360.98,2793.4 3343,2784.5C 3340.22,2719.96 3371.06,2692.46 3435.5,2702C 3459.22,2705.12 3482.89,2708.79 3506.5,2713C 3531.55,2717.48 3556.55,2717.48 3581.5,2713C 3654.89,2697.57 3719.89,2665.57 3776.5,2617C 3832.28,2565.94 3862.11,2502.44 3866,2426.5C 3868.2,2376.14 3867.54,2325.8 3864,2275.5C 3863.33,2252.5 3863.33,2229.5 3864,2206.5C 3866.16,2161.37 3879.49,2120.04 3904,2082.5C 3910.94,2073.62 3918.1,2064.95 3925.5,2056.5 Z"/></g>
<g><path style="opacity:1" fill="#303d8a" d="M 1505.5,2059.5 C 1509.18,2059.59 1512.35,2060.92 1515,2063.5C 1515.36,2069.6 1516.86,2075.26 1519.5,2080.5C 1517.31,2087.43 1512.64,2089.93 1505.5,2088C 1503.19,2086.36 1501.69,2084.2 1501,2081.5C 1500.59,2075.81 1500.93,2070.14 1502,2064.5C 1502.26,2062.09 1503.42,2060.43 1505.5,2059.5 Z"/></g>
<g><path style="opacity:1" fill="#2d3a87" d="M 1395.5,2068.5 C 1397.86,2068.34 1400.19,2068.5 1402.5,2069C 1404.33,2071.5 1406.17,2074 1408,2076.5C 1408.67,2082.5 1408.67,2088.5 1408,2094.5C 1406.03,2101.26 1401.86,2103.09 1395.5,2100C 1380.96,2089.58 1380.96,2079.08 1395.5,2068.5 Z"/></g>
<g><path style="opacity:1" fill="#2b3685" d="M 1048.5,2085.5 C 1050.53,2085.34 1052.53,2085.5 1054.5,2086C 1084.58,2102.37 1109.41,2124.54 1129,2152.5C 1149.09,2187.16 1159.76,2224.83 1161,2265.5C 1161.12,2321.17 1161.12,2376.83 1161,2432.5C 1162.12,2480.18 1173.12,2525.18 1194,2567.5C 1207.88,2589.95 1223.21,2611.28 1240,2631.5C 1251.5,2643.34 1263.34,2654.84 1275.5,2666C 1315.53,2697.69 1360.2,2721.02 1409.5,2736C 1426.22,2740.34 1442.89,2744.67 1459.5,2749C 1483.5,2749.67 1507.5,2749.67 1531.5,2749C 1572.9,2746.11 1614.23,2742.77 1655.5,2739C 1660.25,2750.45 1665.08,2761.95 1670,2773.5C 1670.8,2775.26 1670.63,2776.93 1669.5,2778.5C 1607.51,2805.37 1550.84,2840.54 1499.5,2884C 1475.54,2906.3 1454.04,2930.8 1435,2957.5C 1391.32,3024.25 1376.65,3097.25 1391,3176.5C 1393.26,3187.12 1395.26,3197.79 1397,3208.5C 1410.89,3256.94 1429.73,3303.27 1453.5,3347.5C 1484.51,3398.68 1513.84,3450.84 1541.5,3504C 1556.38,3533.6 1569.21,3564.1 1580,3595.5C 1585.4,3611.12 1589.24,3627.12 1591.5,3643.5C 1588.78,3655.37 1585.28,3667.04 1581,3678.5C 1579.44,3684.76 1578.27,3691.1 1577.5,3697.5C 1497.55,3638.47 1424.71,3571.8 1359,3497.5C 1176.2,3283.22 1058.54,3036.55 1006,2757.5C 981.958,2625.37 975.625,2492.37 987,2358.5C 994.513,2283.6 1008.85,2210.27 1030,2138.5C 1035.99,2120.68 1042.15,2103.01 1048.5,2085.5 Z"/></g>
<g><path style="opacity:1" fill="#2c3886" d="M 3576.5,2141.5 C 3589.58,2207.57 3604.58,2273.23 3621.5,2338.5C 3604.03,2335.49 3590.53,2341.49 3581,2356.5C 3577.19,2362.45 3574.19,2368.78 3572,2375.5C 3571.4,2370.1 3569.74,2365.1 3567,2360.5C 3554.84,2345.32 3539.01,2338.66 3519.5,2340.5C 3520.22,2335.72 3522.05,2331.39 3525,2327.5C 3543.08,2284.24 3557.42,2239.57 3568,2193.5C 3571.25,2176.23 3574.09,2158.9 3576.5,2141.5 Z"/></g>
<g><path style="opacity:1" fill="#2b3685" d="M 2854.5,2145.5 C 2877.17,2144.61 2898.84,2149.44 2919.5,2160C 2921.15,2161.55 2921.48,2163.22 2920.5,2165C 2887,2174.72 2854.67,2187.39 2823.5,2203C 2793.47,2218.35 2763.47,2233.68 2733.5,2249C 2725.08,2250.08 2721.42,2246.25 2722.5,2237.5C 2723.06,2230.13 2723.9,2222.8 2725,2215.5C 2726.83,2213.67 2728.67,2211.83 2730.5,2210C 2752.51,2203.5 2771.51,2192.17 2787.5,2176C 2808.87,2163.65 2831.21,2153.48 2854.5,2145.5 Z"/></g>
<g><path style="opacity:1" fill="#2b3685" d="M 2094.5,2153.5 C 2097.65,2153.74 2100.65,2154.57 2103.5,2156C 2109.92,2162.42 2116.92,2168.09 2124.5,2173C 2145.22,2180.77 2166.22,2187.77 2187.5,2194C 2211.44,2204.95 2232.94,2219.45 2252,2237.5C 2253.75,2244.54 2251.59,2250.37 2245.5,2255C 2235.09,2255.42 2225.76,2252.42 2217.5,2246C 2207.63,2235.73 2196.29,2227.39 2183.5,2221C 2177.97,2219.17 2172.47,2219.33 2167,2221.5C 2141.86,2216.6 2121.19,2204.27 2105,2184.5C 2098.09,2175.34 2094.59,2165.01 2094.5,2153.5 Z"/></g>
<g><path style="opacity:1" fill="#2c3786" d="M 1460.5,2164.5 C 1461.22,2164.92 1461.72,2165.58 1462,2166.5C 1467.12,2197.09 1473.12,2227.42 1480,2257.5C 1488.87,2290.8 1497.37,2324.3 1505.5,2358C 1493.96,2355.96 1483.62,2358.63 1474.5,2366C 1465.15,2374.19 1458.98,2384.36 1456,2396.5C 1454.93,2385.79 1450.1,2377.29 1441.5,2371C 1430.26,2362.78 1417.6,2359.28 1403.5,2360.5C 1430.87,2298.01 1449.87,2232.68 1460.5,2164.5 Z"/></g>
<g><path style="opacity:1" fill="#5686b9" d="M 1638.5,2322.5 C 1636.5,2326.5 1633.5,2329.5 1629.5,2331.5C 1632.17,2328.17 1635.17,2325.17 1638.5,2322.5 Z"/></g>
<g><path style="opacity:1" fill="#2b3685" d="M 1907.5,2448.5 C 1911.97,2447.51 1916.64,2447.18 1921.5,2447.5C 1970.02,2448.08 2018.69,2445.91 2067.5,2441C 2134.67,2417.32 2200.67,2421.65 2265.5,2454C 2316.08,2481.91 2354.91,2521.41 2382,2572.5C 2382.67,2574.5 2382.67,2576.5 2382,2578.5C 2378,2587.51 2375,2596.84 2373,2606.5C 2372.31,2607.36 2371.48,2608.02 2370.5,2608.5C 2356.8,2600.32 2343.8,2591.15 2331.5,2581C 2303.86,2554.69 2276.19,2528.36 2248.5,2502C 2209.69,2470.42 2165.35,2458.42 2115.5,2466C 2101.66,2467.77 2087.99,2470.43 2074.5,2474C 2017.28,2477.42 1961.61,2468.92 1907.5,2448.5 Z"/></g>
<g><path style="opacity:1" fill="#91914f" d="M 1921.5,2447.5 C 1916.64,2447.18 1911.97,2447.51 1907.5,2448.5C 1906.71,2448.22 1906.04,2447.72 1905.5,2447C 1911.02,2446.18 1916.35,2446.35 1921.5,2447.5 Z"/></g>
<g><path style="opacity:1" fill="#fabd14" d="M 2691.5,2997.5 C 2683.18,3003.82 2675.18,3010.49 2667.5,3017.5C 2648.89,2915.26 2628.39,2813.26 2606,2711.5C 2604.97,2704.85 2605.97,2698.51 2609,2692.5C 2644.43,2627.51 2688.26,2568.67 2740.5,2516C 2758.76,2500.44 2779.42,2489.11 2802.5,2482C 2820.63,2477.4 2838.96,2476.4 2857.5,2479C 2880.22,2483.41 2902.89,2488.08 2925.5,2493C 2934.8,2494.11 2944.13,2494.78 2953.5,2495C 2956.23,2496.64 2957.56,2499.14 2957.5,2502.5C 2956.59,2508.32 2954.09,2513.32 2950,2517.5C 2923.81,2550.36 2892.98,2577.86 2857.5,2600C 2847.3,2606.07 2836.3,2609.73 2824.5,2611C 2804.41,2612.83 2784.58,2612.99 2765,2611.5C 2755.87,2610.98 2748.54,2614.32 2743,2621.5C 2740.42,2625 2738.08,2628.66 2736,2632.5C 2727.13,2652.12 2718.46,2671.78 2710,2691.5C 2705.1,2721.98 2699.44,2752.31 2693,2782.5C 2687.08,2805.91 2680.58,2829.08 2673.5,2852C 2673.83,2852.33 2674.17,2852.67 2674.5,2853C 2670.04,2899.93 2675.71,2948.09 2691.5,2997.5 Z"/></g>
<g><path style="opacity:1" fill="#2b3685" d="M 2809.5,2482.5 C 2834.11,2481.22 2852.95,2490.89 2866,2511.5C 2877.91,2537.93 2873.41,2561.09 2852.5,2581C 2828.83,2597.67 2805.17,2597.67 2781.5,2581C 2758.96,2558.24 2755.8,2533.07 2772,2505.5C 2781.67,2493.09 2794.17,2485.42 2809.5,2482.5 Z"/></g>
<g><path style="opacity:1" fill="#2b3685" d="M 2182.5,2483.5 C 2216.87,2480.58 2238.71,2495.58 2248,2528.5C 2251.04,2551.41 2243.54,2569.91 2225.5,2584C 2204.17,2596.67 2182.83,2596.67 2161.5,2584C 2136.68,2562.64 2131.51,2537.8 2146,2509.5C 2154.75,2495.89 2166.92,2487.23 2182.5,2483.5 Z"/></g>
<g><path style="opacity:1" fill="#f6f8fb" d="M 2788.5,2506.5 C 2800.02,2504.47 2805.86,2509.14 2806,2520.5C 2803.13,2528.39 2797.63,2531.55 2789.5,2530C 2779.37,2522.45 2779.04,2514.62 2788.5,2506.5 Z"/></g>
<g><path style="opacity:1" fill="#fafcfd" d="M 2165.5,2507.5 C 2178.52,2506.27 2183.69,2511.94 2181,2524.5C 2176.82,2530.11 2171.32,2531.95 2164.5,2530C 2158.77,2526 2156.93,2520.5 2159,2513.5C 2161.06,2511.27 2163.23,2509.27 2165.5,2507.5 Z"/></g>
<g><path style="opacity:1" fill="#2b3685" d="M 2012.5,2510.5 C 2023.6,2510.88 2033.6,2514.38 2042.5,2521C 2068.61,2541.89 2095.61,2561.56 2123.5,2580C 2163.23,2603.49 2205.73,2614.99 2251,2614.5C 2253.24,2615.06 2255.24,2616.06 2257,2617.5C 2257.06,2628.46 2251.56,2634.96 2240.5,2637C 2204.45,2639.2 2168.12,2636.87 2131.5,2630C 2118.94,2622.11 2106.94,2613.44 2095.5,2604C 2076.53,2587.37 2057.87,2570.37 2039.5,2553C 2033.17,2545.33 2026.83,2537.67 2020.5,2530C 2014,2526.25 2007.66,2522.25 2001.5,2518C 2002.17,2517 2002.83,2516 2003.5,2515C 2006.59,2513.45 2009.59,2511.95 2012.5,2510.5 Z"/></g>
<g><path style="opacity:1" fill="#2b3685" d="M 2306.5,3010.5 C 2300.39,3022.15 2293.56,3033.48 2286,3044.5C 2270.15,3062.53 2257.31,3082.53 2247.5,3104.5C 2241.08,3106.64 2236.58,3104.64 2234,3098.5C 2230.6,3081.88 2232.27,3065.88 2239,3050.5C 2250.19,3029.46 2259.69,3007.79 2267.5,2985.5C 2274.25,2963.58 2279.42,2941.24 2283,2918.5C 2290.1,2876.21 2288.77,2834.21 2279,2792.5C 2271.65,2766.3 2262.48,2740.8 2251.5,2716C 2251.09,2712.57 2251.59,2708.74 2253,2704.5C 2255.32,2694.5 2260.99,2687.17 2270,2682.5C 2270.95,2682.91 2271.61,2683.57 2272,2684.5C 2275.85,2716.71 2284.18,2747.71 2297,2777.5C 2310.04,2805.96 2320.71,2835.29 2329,2865.5C 2336.87,2901.61 2331.54,2935.61 2313,2967.5C 2312.96,2976.38 2312.3,2985.38 2311,2994.5C 2309.39,2999.82 2307.89,3005.16 2306.5,3010.5 Z"/></g>
<g><path style="opacity:1" fill="#2b3685" d="M 775.5,2694.5 C 776.222,2694.92 776.722,2695.58 777,2696.5C 784.009,2730.88 791.343,2765.22 799,2799.5C 820.859,2886.1 841.692,2972.94 861.5,3060C 861.167,3060.5 860.833,3061 860.5,3061.5C 849.583,3059.24 839.249,3060.74 829.5,3066C 816.5,3074.33 803.5,3082.67 790.5,3091C 783.529,3095.32 776.196,3098.82 768.5,3101.5C 773.402,3088.23 776.902,3074.56 779,3060.5C 780.388,3018.32 776.388,2976.66 767,2935.5C 758.148,2901.51 749.482,2867.51 741,2833.5C 736.921,2832.37 732.755,2832.2 728.5,2833C 698.957,2839.05 669.624,2845.72 640.5,2853C 639.941,2853.72 639.608,2854.56 639.5,2855.5C 652.541,2917.34 666.707,2979 682,3040.5C 688.089,3052.58 694.589,3064.41 701.5,3076C 700.833,3076.17 700.167,3076.33 699.5,3076.5C 680.087,3071.35 660.754,3065.52 641.5,3059C 631.586,3054.79 622.752,3048.96 615,3041.5C 612.959,3035.44 610.959,3029.44 609,3023.5C 597.715,2971.63 585.881,2919.97 573.5,2868.5C 546.256,2875.45 518.922,2881.95 491.5,2888C 471.541,2893.15 453.207,2901.81 436.5,2914C 429.996,2920.17 423.829,2926.67 418,2933.5C 406.721,2884.65 396.054,2835.65 386,2786.5C 393.457,2793.14 401.624,2798.64 410.5,2803C 417.099,2804.5 423.766,2804.83 430.5,2804C 509.692,2785.15 589.025,2766.49 668.5,2748C 691.5,2741.56 714.5,2734.89 737.5,2728C 753.159,2720.17 765.826,2709 775.5,2694.5 Z"/></g>
<g><path style="opacity:1" fill="#2b3685" d="M 4283.5,2715.5 C 4324.08,2713.7 4353.24,2731.04 4371,2767.5C 4377.13,2780.71 4380.47,2794.71 4381,2809.5C 4387.65,2782.33 4400.82,2759.16 4420.5,2740C 4439.8,2725.67 4461.47,2720.33 4485.5,2724C 4532.41,2732.26 4563.57,2758.76 4579,2803.5C 4581.87,2813.97 4583.03,2824.64 4582.5,2835.5C 4582.04,2859.66 4579.87,2883.66 4576,2907.5C 4571.51,2933.93 4566.51,2960.27 4561,2986.5C 4548.57,3038.87 4536.24,3091.53 4524,3144.5C 4520.56,3159.71 4517.89,3175.04 4516,3190.5C 4506.81,3175.97 4494.97,3164.14 4480.5,3155C 4475.05,3152.41 4469.38,3150.41 4463.5,3149C 4367.19,3127.67 4270.86,3106.67 4174.5,3086C 4154.86,3082.95 4137.52,3087.79 4122.5,3100.5C 4122.17,3099.67 4121.83,3098.83 4121.5,3098C 4133.81,3041.49 4147.31,2985.33 4162,2929.5C 4168.02,2901.41 4174.36,2873.41 4181,2845.5C 4187.73,2813.41 4199.4,2783.41 4216,2755.5C 4221.89,2748.95 4227.72,2742.45 4233.5,2736C 4248.98,2726.09 4265.64,2719.26 4283.5,2715.5 Z"/></g>
<g><path style="opacity:1" fill="#fdfdfe" d="M 3558.5,2773.5 C 3565.17,2773.33 3571.84,2773.5 3578.5,2774C 3645.6,2786.22 3705.6,2813.56 3758.5,2856C 3769.75,2866.91 3780.58,2878.08 3791,2889.5C 3793.15,2891.9 3792.98,2894.06 3790.5,2896C 3734.59,2896.64 3679.59,2889.98 3625.5,2876C 3591.72,2866.28 3560.72,2850.94 3532.5,2830C 3518.46,2817.94 3516.79,2804.44 3527.5,2789.5C 3536.39,2781.22 3546.73,2775.89 3558.5,2773.5 Z"/></g>
<g><path style="opacity:1" fill="#fefefe" d="M 2667.5,3017.5 C 2675.18,3010.49 2683.18,3003.82 2691.5,2997.5C 2703.07,3027.63 2718.57,3055.63 2738,3081.5C 2738.33,3091.17 2738.67,3100.83 2739,3110.5C 2740.58,3119.08 2742.91,3127.41 2746,3135.5C 2746.33,3131.83 2746.67,3128.17 2747,3124.5C 2751.46,3111.01 2755.46,3097.34 2759,3083.5C 2761.15,3065.58 2758.15,3048.58 2750,3032.5C 2743.42,3020.33 2736.08,3008.66 2728,2997.5C 2724.66,2989.8 2722.16,2981.8 2720.5,2973.5C 2814.94,2914.44 2913.94,2864.11 3017.5,2822.5C 3013.53,2826.64 3009.7,2830.97 3006,2835.5C 3004.12,2837.53 3002.95,2839.86 3002.5,2842.5C 3007.84,2842.33 3013.18,2842.5 3018.5,2843C 3019.93,2843.47 3021.1,2844.3 3022,2845.5C 3022.67,2849.17 3022.67,2852.83 3022,2856.5C 3020.33,2859.83 3018.67,2863.17 3017,2866.5C 3016.33,2869.5 3016.33,2872.5 3017,2875.5C 3032.36,2856.14 3047.7,2836.81 3063,2817.5C 3066.18,2813.99 3069.68,2810.83 3073.5,2808C 3075.74,2807.09 3078.08,2806.59 3080.5,2806.5C 3092.15,2808.76 3103.82,2808.93 3115.5,2807C 3132.36,2800.47 3148.03,2791.8 3162.5,2781C 3168.86,2777.73 3175.19,2777.73 3181.5,2781C 3182.67,2782.83 3183.83,2784.67 3185,2786.5C 3185.69,2815.01 3180.36,2842.34 3169,2868.5C 3159.3,2884.54 3146.8,2898.04 3131.5,2909C 3103.22,2925.48 3075.22,2942.48 3047.5,2960C 3034.17,2969.67 3020.83,2979.33 3007.5,2989C 2994.83,2999.67 2982.17,3010.33 2969.5,3021C 2962.93,3026.9 2957.09,3033.4 2952,3040.5C 2945.05,3053.41 2938.38,3066.41 2932,3079.5C 2927.72,3086.44 2923.06,3093.11 2918,3099.5C 2895.03,3121.81 2872.03,3144.14 2849,3166.5C 2824.41,3193.69 2801.24,3222.02 2779.5,3251.5C 2778.55,3251.99 2777.55,3252.32 2776.5,3252.5C 2774.8,3251.46 2773.3,3250.12 2772,3248.5C 2770.79,3240.79 2768.46,3233.46 2765,3226.5C 2759.91,3219.32 2754.58,3212.32 2749,3205.5C 2747.04,3201.23 2746.21,3196.73 2746.5,3192C 2747.26,3184.5 2747.43,3177 2747,3169.5C 2742.46,3152.26 2734.63,3136.76 2723.5,3123C 2719.94,3119.38 2715.6,3117.05 2710.5,3116C 2695.71,3119.19 2685.21,3114.02 2679,3100.5C 2676.42,3094.47 2674.75,3088.13 2674,3081.5C 2672.64,3060.08 2670.48,3038.74 2667.5,3017.5 Z"/></g>
<g><path style="opacity:1" fill="#fefefe" d="M 2033.5,2853.5 C 2055.89,2863.2 2077.89,2873.7 2099.5,2885C 2156.85,2915.54 2212.85,2949.04 2267.5,2985.5C 2259.69,3007.79 2250.19,3029.46 2239,3050.5C 2232.27,3065.88 2230.6,3081.88 2234,3098.5C 2236.58,3104.64 2241.08,3106.64 2247.5,3104.5C 2257.31,3082.53 2270.15,3062.53 2286,3044.5C 2293.56,3033.48 2300.39,3022.15 2306.5,3010.5C 2306.51,3012.02 2307.18,3013.18 2308.5,3014C 2324.43,3025.78 2340.43,3037.28 2356.5,3048.5C 2344.17,3074.94 2335.67,3102.61 2331,3131.5C 2328.25,3138.91 2323.42,3144.41 2316.5,3148C 2302.51,3149.78 2290.68,3145.62 2281,3135.5C 2281.43,3150.82 2281.43,3166.15 2281,3181.5C 2279.68,3195.13 2276.35,3208.13 2271,3220.5C 2267.18,3227.63 2263.18,3234.63 2259,3241.5C 2257.12,3243.58 2254.95,3243.91 2252.5,3242.5C 2233.88,3205.07 2208.21,3173.57 2175.5,3148C 2141.61,3125.78 2111.11,3099.61 2084,3069.5C 2075.33,3057.5 2066.67,3045.5 2058,3033.5C 2052.75,3025.2 2048.08,3016.53 2044,3007.5C 2034.87,2994.7 2023.03,2985.2 2008.5,2979C 1985.68,2970.06 1963.02,2960.73 1940.5,2951C 1914.6,2939.74 1892.1,2923.9 1873,2903.5C 1862.97,2890.43 1855.3,2876.1 1850,2860.5C 1844.95,2841.14 1842.95,2821.47 1844,2801.5C 1844.74,2800.43 1845.74,2799.76 1847,2799.5C 1864.69,2807.57 1882.52,2815.07 1900.5,2822C 1928.52,2830.87 1956.52,2839.87 1984.5,2849C 2002.06,2858.3 2020.06,2866.63 2038.5,2874C 2040.5,2874.67 2042.5,2874.67 2044.5,2874C 2045.02,2873.44 2045.36,2872.77 2045.5,2872C 2042.12,2865.4 2038.12,2859.23 2033.5,2853.5 Z"/></g>
<g><path style="opacity:1" fill="#fdfdfe" d="M 1403.5,2808.5 C 1414.9,2808.09 1426.23,2808.59 1437.5,2810C 1443.97,2814.5 1448.14,2820.66 1450,2828.5C 1452.5,2845.85 1447.33,2860.51 1434.5,2872.5C 1428.52,2877.82 1422.18,2882.65 1415.5,2887C 1387.19,2902.14 1357.19,2912.81 1325.5,2919C 1288.05,2924.93 1250.38,2928.43 1212.5,2929.5C 1206.99,2930.16 1204.83,2927.83 1206,2922.5C 1235.96,2894.43 1268.13,2869.09 1302.5,2846.5C 1333.49,2826.39 1367.16,2813.72 1403.5,2808.5 Z"/></g>
<g><path style="opacity:1" fill="#fdfdfe" d="M 4285.5,2822.5 C 4313.76,2821.38 4331.93,2834.38 4340,2861.5C 4340.67,2866.17 4340.67,2870.83 4340,2875.5C 4329.97,2921.81 4320.14,2968.14 4310.5,3014.5C 4278.62,3009.11 4246.96,3002.61 4215.5,2995C 4214.94,2994.28 4214.61,2993.44 4214.5,2992.5C 4223.69,2949.34 4233.53,2906.34 4244,2863.5C 4251.12,2842.88 4264.95,2829.21 4285.5,2822.5 Z"/></g>
<g><path style="opacity:1" fill="#fdfdfe" d="M 4454.5,2828.5 C 4484.75,2827.59 4504.25,2841.59 4513,2870.5C 4513.67,2877.83 4513.67,2885.17 4513,2892.5C 4501.1,2945.96 4490.27,2999.63 4480.5,3053.5C 4445.58,3046.18 4410.58,3039.18 4375.5,3032.5C 4385.16,2978.54 4397.33,2925.2 4412,2872.5C 4417.39,2857.21 4426.56,2844.71 4439.5,2835C 4444.44,2832.53 4449.44,2830.36 4454.5,2828.5 Z"/></g>
<g><path style="opacity:1" fill="#2b3785" d="M 1684.5,2834.5 C 1688.01,2833.88 1690.85,2834.88 1693,2837.5C 1695.8,2848.01 1698.13,2858.67 1700,2869.5C 1701.13,2875.75 1700.46,2881.75 1698,2887.5C 1665.99,2902.08 1635.83,2919.58 1607.5,2940C 1598.17,2947.67 1588.83,2955.33 1579.5,2963C 1568.99,2972.84 1559.16,2983.34 1550,2994.5C 1505.21,3051.71 1489.88,3116.38 1504,3188.5C 1512.27,3224.68 1524.27,3259.35 1540,3292.5C 1561.11,3334.4 1583.44,3375.4 1607,3415.5C 1625.99,3449.48 1641.66,3484.81 1654,3521.5C 1665.97,3560 1670.47,3599.5 1667.5,3640C 1666.62,3646.58 1669.29,3650.91 1675.5,3653C 1684.53,3653.66 1693.53,3653.33 1702.5,3652C 1714.76,3648.35 1726.43,3643.35 1737.5,3637C 1743.63,3634.55 1749.96,3632.88 1756.5,3632C 1843.83,3632.23 1931.17,3632.23 2018.5,3632C 2068.71,3630.65 2118.71,3626.65 2168.5,3620C 2182.84,3617 2197.17,3614 2211.5,3611C 2238.25,3604.14 2263.25,3593.31 2286.5,3578.5C 2293.67,3573.16 2300.01,3566.99 2305.5,3560C 2307.2,3559.04 2309.03,3558.54 2311,3558.5C 2325.55,3562.19 2338.72,3568.69 2350.5,3578C 2351.43,3579.19 2352.1,3580.53 2352.5,3582C 2301.02,3661.16 2227.85,3699.66 2133,3697.5C 2109.69,3697.53 2086.52,3695.7 2063.5,3692C 2021.86,3684.95 1980.52,3676.62 1939.5,3667C 1916.84,3663 1894.17,3659 1871.5,3655C 1836.97,3649.76 1802.3,3648.42 1767.5,3651C 1710.54,3657.72 1663.71,3682.89 1627,3726.5C 1626.33,3725.17 1626.33,3723.83 1627,3722.5C 1644.34,3676.13 1649,3628.47 1641,3579.5C 1631.75,3541.33 1617.75,3505 1599,3470.5C 1566.99,3412.76 1533.33,3356.1 1498,3300.5C 1465.33,3242.15 1449.66,3179.15 1451,3111.5C 1457.89,3033.61 1490.05,2968.44 1547.5,2916C 1574.84,2893.15 1604.17,2873.32 1635.5,2856.5C 1651.81,2848.75 1668.15,2841.41 1684.5,2834.5 Z"/></g>
<g><path style="opacity:1" fill="#2c3786" d="M 3307.5,2834.5 C 3311.75,2835.03 3315.92,2836.03 3320,2837.5C 3370.63,2859.23 3417.8,2886.73 3461.5,2920C 3474.32,2931.45 3486.82,2943.29 3499,2955.5C 3508.36,2967.26 3517.69,2979.26 3527,2991.5C 3568.32,3056.13 3577.99,3125.47 3556,3199.5C 3547.59,3226.15 3536.93,3251.81 3524,3276.5C 3511.1,3298.3 3498.77,3320.3 3487,3342.5C 3457.03,3388.52 3430.36,3436.52 3407,3486.5C 3396.38,3511.3 3388.38,3536.97 3383,3563.5C 3378.3,3594.33 3379.3,3625 3386,3655.5C 3388.17,3663.04 3390.84,3670.37 3394,3677.5C 3394.67,3678.83 3394.67,3680.17 3394,3681.5C 3363.12,3664.3 3329.96,3653.8 3294.5,3650C 3250.54,3645.32 3206.87,3647.32 3163.5,3656C 3148.84,3659 3134.17,3662 3119.5,3665C 3069.97,3677.22 3020.3,3688.89 2970.5,3700C 2933.48,3706.74 2896.15,3709.41 2858.5,3708C 2812.91,3704.26 2772.24,3688.59 2736.5,3661C 2728.08,3653.48 2719.75,3645.98 2711.5,3638.5C 2697.64,3623.82 2685.14,3608.15 2674,3591.5C 2673.52,3589.09 2673.85,3586.75 2675,3584.5C 2680.75,3575.42 2687.91,3567.58 2696.5,3561C 2703.6,3558.15 2710.93,3557.81 2718.5,3560C 2723.55,3562.74 2728.55,3565.57 2733.5,3568.5C 2748.48,3584.25 2763.82,3599.75 2779.5,3615C 2805.12,3636.56 2833.79,3653.23 2865.5,3665C 2900.42,3675.33 2936.08,3679 2972.5,3676C 3003.78,3673.18 3034.78,3668.51 3065.5,3662C 3117.25,3648.85 3169.58,3638.52 3222.5,3631C 3263.85,3626.74 3305.02,3627.91 3346,3634.5C 3350.46,3635.22 3354.13,3633.89 3357,3630.5C 3356.81,3608.84 3356.81,3587.17 3357,3565.5C 3357.52,3559.75 3358.52,3554.08 3360,3548.5C 3368.22,3523.68 3378.55,3499.68 3391,3476.5C 3425.91,3419.67 3456.91,3360.67 3484,3299.5C 3495.74,3268.28 3505.07,3236.28 3512,3203.5C 3524.48,3135.94 3511.48,3074.27 3473,3018.5C 3455.14,2997.64 3435.64,2978.47 3414.5,2961C 3378.35,2935.59 3339.69,2914.93 3298.5,2899C 3288.68,2893.56 3285.51,2885.39 3289,2874.5C 3294.99,2861.03 3301.16,2847.7 3307.5,2834.5 Z"/></g>
<g><path style="opacity:1" fill="#2d3a88" d="M 3120.5,3100.5 C 3136.53,3099.81 3142.7,3107.48 3139,3123.5C 3138.26,3130.58 3134.42,3133.41 3127.5,3132C 3122.46,3128.41 3117.96,3124.25 3114,3119.5C 3113.33,3115.17 3113.33,3110.83 3114,3106.5C 3115.49,3103.69 3117.66,3101.69 3120.5,3100.5 Z"/></g>
<g><path style="opacity:1" fill="#2d3a87" d="M 1905.5,3105.5 C 1913.06,3103.85 1918.9,3106.18 1923,3112.5C 1925.11,3119.9 1924.94,3127.23 1922.5,3134.5C 1918.92,3137.84 1914.92,3138.34 1910.5,3136C 1906.67,3132.17 1902.83,3128.33 1899,3124.5C 1898.33,3120.17 1898.33,3115.83 1899,3111.5C 1900.49,3108.69 1902.66,3106.69 1905.5,3105.5 Z"/></g>
<g><path style="opacity:1" fill="#2b3685" d="M 4113.5,3121.5 C 4116.52,3137.43 4123.86,3151.26 4135.5,3163C 4143.31,3168.75 4150.98,3174.75 4158.5,3181C 4208.47,3209.32 4258.47,3237.65 4308.5,3266C 4324.19,3275.1 4339.19,3285.1 4353.5,3296C 4358.1,3301.72 4363.26,3306.89 4369,3311.5C 4399.47,3347.06 4409.47,3388.06 4399,3434.5C 4392.86,3460.73 4383.53,3485.73 4371,3509.5C 4354.88,3540.09 4335.55,3568.42 4313,3594.5C 4272.25,3638.54 4222.75,3652.38 4164.5,3636C 4148.32,3630.19 4132.65,3623.02 4117.5,3614.5C 4071.52,3587.77 4025.52,3560.94 3979.5,3534C 3969.75,3528.46 3959.75,3523.46 3949.5,3519C 3929.74,3513.06 3910.74,3514.56 3892.5,3523.5C 3917.04,3476.78 3942.54,3430.11 3969,3383.5C 3969.3,3402.49 3976.8,3417.66 3991.5,3429C 4051.91,3465.36 4112.91,3501.03 4174.5,3536C 4185.99,3541.42 4197.99,3545.08 4210.5,3547C 4232.36,3549.05 4251.69,3543.05 4268.5,3529C 4296.65,3504.22 4313.48,3473.06 4319,3435.5C 4320.61,3420.24 4317.61,3405.91 4310,3392.5C 4303.63,3383.23 4296.47,3374.73 4288.5,3367C 4279.97,3360.81 4271.13,3354.98 4262,3349.5C 4206.61,3318.48 4151.11,3287.65 4095.5,3257C 4075.8,3248.98 4056.63,3249.81 4038,3259.5C 4037.33,3258.5 4037.33,3257.5 4038,3256.5C 4063.7,3211.76 4088.87,3166.76 4113.5,3121.5 Z"/></g>
<g><path style="opacity:1" fill="#2b3685" d="M 755.5,3127.5 C 801.437,3124.15 843.437,3135.15 881.5,3160.5C 937.36,3200.54 975.193,3253.54 995,3319.5C 1010.93,3372 1008.59,3423.66 988,3474.5C 972.318,3507.17 949.818,3534 920.5,3555C 885.387,3580.3 846.053,3594.97 802.5,3599C 756.064,3601.9 714.064,3589.9 676.5,3563C 616.522,3515.27 578.022,3453.77 561,3378.5C 543.747,3299.55 565.581,3234.05 626.5,3182C 665.087,3153.37 708.087,3135.21 755.5,3127.5 Z"/></g>
<g><path style="opacity:1" fill="#2d3b88" d="M 3181.5,3154.5 C 3186.15,3153.98 3189.65,3155.65 3192,3159.5C 3192.33,3163.17 3192.67,3166.83 3193,3170.5C 3197.02,3176.03 3195.86,3180.19 3189.5,3183C 3184.06,3184.41 3180.22,3182.58 3178,3177.5C 3177.36,3170.79 3177.7,3164.13 3179,3157.5C 3179.7,3156.31 3180.53,3155.31 3181.5,3154.5 Z"/></g>
<g><path style="opacity:1" fill="#2d3987" d="M 1968.5,3158.5 C 1971.19,3158.34 1973.85,3158.5 1976.5,3159C 1977.21,3160.25 1978.04,3161.42 1979,3162.5C 1979.33,3166.17 1979.67,3169.83 1980,3173.5C 1985.1,3178.68 1984.27,3182.84 1977.5,3186C 1972.27,3187.72 1968.44,3186.22 1966,3181.5C 1965.33,3176.17 1965.33,3170.83 1966,3165.5C 1966.15,3162.85 1966.99,3160.52 1968.5,3158.5 Z"/></g>
<g><path style="opacity:1" fill="#2c3987" d="M 3072.5,3162.5 C 3083.17,3165.92 3087.01,3173.25 3084,3184.5C 3083.7,3188.59 3082.2,3192.09 3079.5,3195C 3076.37,3195.79 3073.37,3195.46 3070.5,3194C 3056.78,3182.56 3057.45,3172.06 3072.5,3162.5 Z"/></g>
<g><path style="opacity:1" fill="#2d3987" d="M 1859.5,3164.5 C 1861.26,3164.36 1862.93,3164.69 1864.5,3165.5C 1866.52,3167.69 1868.36,3170.02 1870,3172.5C 1870.89,3180.31 1870.23,3187.98 1868,3195.5C 1866.88,3197.12 1865.38,3198.12 1863.5,3198.5C 1854.82,3195.82 1849.15,3190.15 1846.5,3181.5C 1848.25,3173.76 1852.59,3168.09 1859.5,3164.5 Z"/></g>
<g><path style="opacity:1" fill="#fdfefe" d="M 2619.5,3255.5 C 2637.13,3244.86 2653.46,3232.52 2668.5,3218.5C 2674.24,3210.93 2680.9,3204.09 2688.5,3198C 2693.23,3195.75 2697.39,3196.58 2701,3200.5C 2720.03,3240.34 2733.03,3282.01 2740,3325.5C 2740.67,3332.5 2740.67,3339.5 2740,3346.5C 2733.3,3376.28 2720.3,3402.95 2701,3426.5C 2681.15,3447.68 2656.98,3461.18 2628.5,3467C 2596.89,3471.94 2565.56,3470.61 2534.5,3463C 2531.12,3461.91 2527.79,3460.58 2524.5,3459C 2521.7,3456.76 2518.7,3454.76 2515.5,3453C 2510.8,3445.89 2508.3,3438.06 2508,3429.5C 2507.17,3422.81 2507.34,3416.14 2508.5,3409.5C 2518.68,3405.07 2529.01,3401.24 2539.5,3398C 2560.66,3389.51 2579.16,3377.01 2595,3360.5C 2607.74,3344.63 2616.08,3326.63 2620,3306.5C 2621.73,3291.87 2622.4,3277.21 2622,3262.5C 2620.88,3260.23 2620.05,3257.9 2619.5,3255.5 Z"/></g>
<g><path style="opacity:1" fill="#fdfefe" d="M 2350.5,3215.5 C 2359.03,3226.56 2369.7,3235.9 2382.5,3243.5C 2379.05,3246.46 2376.55,3250.13 2375,3254.5C 2370,3278.79 2372.66,3302.13 2383,3324.5C 2398.63,3350.79 2418.47,3373.29 2442.5,3392C 2451.63,3398.57 2461.63,3403.57 2472.5,3407C 2478.5,3407.33 2484.5,3407.67 2490.5,3408C 2491,3408.5 2491.5,3409 2492,3409.5C 2494.03,3428.32 2488.53,3444.32 2475.5,3457.5C 2472.3,3459.6 2468.96,3461.43 2465.5,3463C 2421.17,3469.8 2379.17,3462.8 2339.5,3442C 2293.75,3415.64 2275.58,3376.14 2285,3323.5C 2293.89,3280.91 2310.05,3241.41 2333.5,3205C 2334.83,3204.33 2336.17,3204.33 2337.5,3205C 2340.54,3207.7 2343.2,3210.7 2345.5,3214C 2347.25,3214.35 2348.91,3214.85 2350.5,3215.5 Z"/></g>
<g><path style="opacity:1" fill="#86a9cf" d="M 339.5,3218.5 C 341.739,3223.22 343.405,3228.22 344.5,3233.5C 341.86,3228.92 340.194,3223.92 339.5,3218.5 Z"/></g>
<g><path style="opacity:1" fill="#fefefe" d="M 769.5,3224.5 C 804.255,3221.44 835.922,3229.44 864.5,3248.5C 897.004,3275.81 917.504,3310.48 926,3352.5C 930.16,3377.64 926.16,3401.31 914,3423.5C 870.99,3477.34 814.823,3501.84 745.5,3497C 720.783,3491.23 699.616,3479.4 682,3461.5C 663.13,3440.96 649.797,3417.29 642,3390.5C 630.195,3337.66 645.361,3294.49 687.5,3261C 712.237,3242.92 739.57,3230.76 769.5,3224.5 Z"/></g>
<g><path style="opacity:1" fill="#2c3886" d="M 1916.5,3254.5 C 1929.44,3320.6 1944.44,3386.27 1961.5,3451.5C 1944.35,3448.49 1930.85,3454.16 1921,3468.5C 1917.18,3474.48 1914.18,3480.81 1912,3487.5C 1907.99,3470.49 1897.49,3459.66 1880.5,3455C 1873.18,3454.08 1865.85,3453.25 1858.5,3452.5C 1887.5,3389.66 1906.83,3323.66 1916.5,3254.5 Z"/></g>
<g><path style="opacity:1" fill="#2c3886" d="M 3132.5,3254.5 C 3134.07,3255.68 3134.9,3257.35 3135,3259.5C 3139.69,3286.67 3145.02,3313.67 3151,3340.5C 3160.07,3376.36 3168.91,3412.36 3177.5,3448.5C 3158.31,3446.86 3144.14,3454.52 3135,3471.5C 3133,3476.17 3131,3480.83 3129,3485.5C 3124.94,3468.44 3114.44,3457.61 3097.5,3453C 3090.19,3452.03 3082.86,3451.2 3075.5,3450.5C 3104.29,3388.39 3123.29,3323.05 3132.5,3254.5 Z"/></g>
<g><path style="opacity:1" fill="#f9fbfd" d="M 2502.5,3494.5 C 2524.95,3493.79 2547.29,3494.95 2569.5,3498C 2571.18,3498.35 2572.18,3499.35 2572.5,3501C 2568.68,3510.63 2562.68,3518.63 2554.5,3525C 2537.77,3529.55 2520.77,3531.88 2503.5,3532C 2500.83,3531 2498.17,3530 2495.5,3529C 2482.25,3521.22 2469.25,3513.22 2456.5,3505C 2453.23,3500.81 2454.23,3498.48 2459.5,3498C 2474.03,3497.28 2488.36,3496.11 2502.5,3494.5 Z"/></g>
<g><path style="opacity:1" fill="#2b3685" d="M 1029.5,3549.5 C 1072.65,3547.69 1113.32,3556.53 1151.5,3576C 1165.48,3584.21 1179.14,3592.87 1192.5,3602C 1210.21,3616.71 1227.05,3632.54 1243,3649.5C 1249.61,3659.11 1256.61,3668.44 1264,3677.5C 1281.18,3703.54 1293.18,3731.87 1300,3762.5C 1311.89,3829.65 1295.22,3888.32 1250,3938.5C 1197.21,3996.22 1131.71,4019.72 1053.5,4009C 1022.52,4002.43 993.853,3990.43 967.5,3973C 915.731,3937.88 876.898,3891.72 851,3834.5C 836.623,3800.52 831.957,3765.19 837,3728.5C 851.881,3664.53 887.381,3615.7 943.5,3582C 963.058,3571.07 983.391,3562.07 1004.5,3555C 1012.85,3552.7 1021.18,3550.87 1029.5,3549.5 Z"/></g>
<g><path style="opacity:1" fill="#2b3685" d="M 2608.5,3611.5 C 2613.47,3612.28 2617.63,3614.61 2621,3618.5C 2709.97,3741.51 2830.14,3790.67 2981.5,3766C 3006.27,3761.85 3030.94,3757.18 3055.5,3752C 3102.28,3738.81 3149.61,3728.14 3197.5,3720C 3241.44,3712.75 3284.44,3716.09 3326.5,3730C 3334.7,3732.95 3342.7,3736.28 3350.5,3740C 3166.23,3865.26 2963.89,3947.26 2743.5,3986C 2527.01,4023.68 2312.35,4015.34 2099.5,3961C 1952.71,3922.78 1816.37,3860.78 1690.5,3775C 1685,3770.99 1679.67,3766.83 1674.5,3762.5C 1708.12,3728.03 1749.12,3709.2 1797.5,3706C 1817.57,3705.05 1837.57,3705.72 1857.5,3708C 1877.95,3710.93 1898.28,3714.6 1918.5,3719C 1954.47,3726.99 1990.47,3734.99 2026.5,3743C 2089.29,3754.09 2152.29,3755.42 2215.5,3747C 2260.92,3739.92 2302.92,3724.09 2341.5,3699.5C 2368.99,3679.84 2391.49,3655.5 2409,3626.5C 2411.41,3623.21 2414.58,3622.04 2418.5,3623C 2446.22,3636.61 2475.55,3641.61 2506.5,3638C 2542.3,3635.29 2576.3,3626.45 2608.5,3611.5 Z"/></g>
<g><path style="opacity:1" fill="#fefefe" d="M 1063.5,3642.5 C 1088.71,3640.59 1112.71,3644.93 1135.5,3655.5C 1143.89,3660.38 1151.89,3665.88 1159.5,3672C 1234.51,3740.53 1235.18,3810.2 1161.5,3881C 1128.95,3909 1090.95,3922.33 1047.5,3921C 1025.63,3915.9 1005.97,3906.23 988.5,3892C 966.903,3873.33 949.736,3851.16 937,3825.5C 919.319,3772.9 930.486,3727.4 970.5,3689C 997.226,3664.97 1028.23,3649.47 1063.5,3642.5 Z"/></g>
<g><path style="opacity:1" fill="#fdfdfe" d="M 2514.5,3644.5 C 2536.26,3644.13 2552.43,3653.46 2563,3672.5C 2563.56,3709.37 2560.56,3746.04 2554,3782.5C 2547.31,3816.61 2538.48,3849.94 2527.5,3882.5C 2526.5,3882.5 2525.5,3882.5 2524.5,3882.5C 2514.01,3850.18 2503.17,3817.85 2492,3785.5C 2484.32,3759.06 2481.32,3732.06 2483,3704.5C 2486.33,3683.82 2494.66,3665.48 2508,3649.5C 2510.33,3647.93 2512.49,3646.27 2514.5,3644.5 Z"/></g>
<g><path style="opacity:1" fill="#2b3785" d="M 3685.5,3766.5 C 3680.83,3765.83 3676.17,3765.17 3671.5,3764.5C 3701.13,3728.71 3731.96,3694.04 3764,3660.5C 3765.28,3674.31 3769.61,3686.98 3777,3698.5C 3783.39,3705.57 3789.89,3712.73 3796.5,3720C 3801.91,3724.55 3807.58,3728.89 3813.5,3733C 3876.07,3786.42 3938.74,3839.59 4001.5,3892.5C 4035.09,3855.39 4067.93,3817.39 4100,3778.5C 4116.06,3756.35 4128.73,3732.35 4138,3706.5C 4142.29,3691.43 4145.29,3676.1 4147,3660.5C 4153.49,3668.99 4159.16,3677.99 4164,3687.5C 4172.49,3706.81 4181.82,3725.81 4192,3744.5C 4194.24,3746.71 4196.74,3748.55 4199.5,3750C 4204.08,3751.42 4208.41,3753.42 4212.5,3756C 4133.22,3849.59 4053.05,3942.09 3972,4033.5C 3970.72,4010.13 3962.22,3989.96 3946.5,3973C 3873.54,3911.38 3801.21,3849.04 3729.5,3786C 3722,3781.08 3714.33,3776.42 3706.5,3772C 3699.77,3769.32 3692.77,3767.48 3685.5,3766.5 Z"/></g>
<g><path style="opacity:1" fill="#6a96c3" d="M 3671.5,3764.5 C 3676.17,3765.17 3680.83,3765.83 3685.5,3766.5C 3680.16,3766.67 3674.82,3766.5 3669.5,3766C 3670.04,3765.28 3670.71,3764.78 3671.5,3764.5 Z"/></g>
<g><path style="opacity:1" fill="#2b3685" d="M 3661.5,3775.5 C 3663.41,3776.97 3664.58,3778.97 3665,3781.5C 3674.08,3812.91 3683.25,3844.24 3692.5,3875.5C 3672.47,3873.94 3652.8,3876.1 3633.5,3882C 3582.25,3897.93 3542.75,3928.76 3515,3974.5C 3500.44,4004.24 3497.44,4035.24 3506,4067.5C 3518.33,4105.75 3540.5,4136.59 3572.5,4160C 3613.48,4186.79 3655.48,4188.46 3698.5,4165C 3745.2,4134.3 3783.03,4095.14 3812,4047.5C 3815.59,4041.1 3818.43,4034.43 3820.5,4027.5C 3821.55,4027.35 3822.55,4027.52 3823.5,4028C 3846.41,4055.61 3868.74,4083.94 3890.5,4113C 3882.4,4113.88 3874.73,4116.22 3867.5,4120C 3861.5,4124 3855.5,4128 3849.5,4132C 3827.41,4154.09 3804.74,4175.43 3781.5,4196C 3759.44,4213.36 3736.1,4228.69 3711.5,4242C 3682.37,4256.15 3651.71,4265.48 3619.5,4270C 3573.11,4272.94 3531.44,4260.6 3494.5,4233C 3458.31,4202.45 3431.81,4164.95 3415,4120.5C 3394.33,4048.8 3406.66,3983.8 3452,3925.5C 3493.04,3875.78 3543.54,3839.28 3603.5,3816C 3621.54,3807.66 3638.21,3797.33 3653.5,3785C 3656.45,3782.04 3659.12,3778.87 3661.5,3775.5 Z"/></g>
<g><path style="opacity:1" fill="#2b3685" d="M 1323.5,3889.5 C 1318.5,3888.83 1313.5,3888.17 1308.5,3887.5C 1313.5,3878.99 1319.83,3871.49 1327.5,3865C 1338.5,3856.51 1350.16,3849.01 1362.5,3842.5C 1366.85,3838.98 1370.69,3834.98 1374,3830.5C 1375.64,3825.62 1376.47,3820.62 1376.5,3815.5C 1443.22,3858.06 1509.56,3901.22 1575.5,3945C 1620.56,3973.85 1665.22,4003.19 1709.5,4033C 1698.43,4038.75 1690.93,4047.58 1687,4059.5C 1682.33,4076.8 1677.67,4094.14 1673,4111.5C 1670.86,4116.92 1668.53,4122.25 1666,4127.5C 1662.45,4118.07 1658.12,4109.07 1653,4100.5C 1625.47,4063.97 1591.97,4034.13 1552.5,4011C 1550.5,4010.33 1548.5,4010.33 1546.5,4011C 1532.33,4031.17 1518.17,4051.33 1504,4071.5C 1466.06,4128.12 1428.06,4184.79 1390,4241.5C 1382.9,4256.41 1380.56,4272.08 1383,4288.5C 1384.01,4293.52 1384.67,4298.52 1385,4303.5C 1342.54,4274.39 1300.04,4245.23 1257.5,4216C 1268.54,4214.8 1279.2,4212.14 1289.5,4208C 1293.66,4204.84 1297.49,4201.34 1301,4197.5C 1356.52,4116.3 1411.68,4034.8 1466.5,3953C 1430.34,3926.49 1390.67,3906.82 1347.5,3894C 1339.57,3892.05 1331.57,3890.55 1323.5,3889.5 Z"/></g>
<g><path style="opacity:1" fill="#6e9ac6" d="M 1308.5,3887.5 C 1313.5,3888.17 1318.5,3888.83 1323.5,3889.5C 1317.82,3889.67 1312.16,3889.5 1306.5,3889C 1307.04,3888.28 1307.71,3887.78 1308.5,3887.5 Z"/></g>
<g><path style="opacity:1" fill="#2b3685" d="M 1820.5,4079.5 C 1826.5,4082.28 1832.83,4084.28 1839.5,4085.5C 1891.13,4103.77 1943.13,4121.6 1995.5,4139C 2019.17,4148.04 2040.84,4160.38 2060.5,4176C 2095.7,4205.65 2104.2,4241.82 2086,4284.5C 2071.51,4314.69 2047.34,4330.86 2013.5,4333C 2004.48,4333.43 1995.48,4333.43 1986.5,4333C 2011.03,4343.87 2032.53,4359.03 2051,4378.5C 2064.68,4397.9 2068.68,4419.24 2063,4442.5C 2051.46,4498.03 2017.29,4528.2 1960.5,4533C 1943.05,4533.99 1925.72,4532.99 1908.5,4530C 1888.22,4525.26 1868.22,4519.6 1848.5,4513C 1763.91,4485.11 1679.57,4457.11 1595.5,4429C 1606.68,4425.91 1617.02,4420.91 1626.5,4414C 1635.62,4405.26 1641.79,4394.76 1645,4382.5C 1664.31,4319.52 1685.65,4257.19 1709,4195.5C 1718.43,4167.21 1727.43,4138.88 1736,4110.5C 1738.34,4097.26 1739.01,4083.93 1738,4070.5C 1736.39,4064.3 1734.23,4058.3 1731.5,4052.5C 1732,4052.17 1732.5,4051.83 1733,4051.5C 1762.36,4060.3 1791.53,4069.63 1820.5,4079.5 Z"/></g>
<g><path style="opacity:1" fill="#6591c0" d="M 891.5,4070.5 C 897.833,4076.17 903.833,4082.17 909.5,4088.5C 902.5,4083.5 896.5,4077.5 891.5,4070.5 Z"/></g>
<g><path style="opacity:1" fill="#8aacd1" d="M 1820.5,4079.5 C 1827.17,4080.72 1833.5,4082.72 1839.5,4085.5C 1832.83,4084.28 1826.5,4082.28 1820.5,4079.5 Z"/></g>
<g><path style="opacity:1" fill="#6591c0" d="M 911.5,4090.5 C 917.167,4095.5 922.5,4100.83 927.5,4106.5C 921.167,4102.17 915.833,4096.83 911.5,4090.5 Z"/></g>
<g><path style="opacity:1" fill="#2b3685" d="M 3039.5,4123.5 C 3041.2,4123.34 3042.87,4123.51 3044.5,4124C 3039.88,4132.54 3036.05,4141.38 3033,4150.5C 3032.24,4159.54 3032.57,4168.54 3034,4177.5C 3057.68,4245.51 3081.68,4313.51 3106,4381.5C 3112.89,4403.33 3120.06,4425 3127.5,4446.5C 3134.61,4446.04 3141.61,4444.88 3148.5,4443C 3190.03,4427.9 3231.36,4412.24 3272.5,4396C 3297.18,4385.96 3319.85,4372.62 3340.5,4356C 3351.73,4345.36 3360.9,4333.19 3368,4319.5C 3366.43,4351.8 3365.76,4384.14 3366,4416.5C 3369.44,4422.28 3373.28,4427.78 3377.5,4433C 3264.83,4472.33 3152,4510.83 3039,4548.5C 3039.72,4544.69 3041.05,4541.03 3043,4537.5C 3046.95,4518.24 3045.95,4499.24 3040,4480.5C 3016.03,4410.92 2990.7,4341.92 2964,4273.5C 2956.28,4252.33 2948.94,4230.99 2942,4209.5C 2938.15,4201.01 2932.65,4193.85 2925.5,4188C 2916.64,4183.4 2907.64,4179.07 2898.5,4175C 2945.38,4157.05 2992.38,4139.88 3039.5,4123.5 Z"/></g>
<g><path style="opacity:1" fill="#fdfefe" d="M 1816.5,4151.5 C 1854.8,4163.24 1893.46,4173.74 1932.5,4183C 1948.96,4188.26 1965.29,4193.93 1981.5,4200C 1993.9,4207.63 1999.9,4218.79 1999.5,4233.5C 1999.22,4258.57 1987.89,4276.4 1965.5,4287C 1961.19,4287.73 1956.86,4288.23 1952.5,4288.5C 1942.05,4287.38 1931.71,4285.54 1921.5,4283C 1877.06,4271.73 1833.06,4259.23 1789.5,4245.5C 1797.85,4214.09 1806.85,4182.76 1816.5,4151.5 Z"/></g>
<g><path style="opacity:1" fill="#2b3685" d="M 2259.5,4199.5 C 2307.64,4203.45 2355.98,4207.95 2404.5,4213C 2409.82,4213.5 2415.16,4213.67 2420.5,4213.5C 2418.86,4219.02 2417.86,4224.69 2417.5,4230.5C 2418.02,4235.21 2418.85,4239.88 2420,4244.5C 2456.98,4349.76 2492.98,4455.43 2528,4561.5C 2537.73,4583.14 2550.56,4602.64 2566.5,4620C 2517.86,4618.37 2469.19,4618.04 2420.5,4619C 2433.94,4604.73 2438.44,4587.9 2434,4568.5C 2430.65,4556.11 2426.32,4544.11 2421,4532.5C 2384.35,4527.47 2347.52,4523.64 2310.5,4521C 2269.53,4517.28 2228.53,4514.28 2187.5,4512C 2172.72,4531.87 2167.89,4554.04 2173,4578.5C 2174.55,4584.72 2176.72,4590.72 2179.5,4596.5C 2179,4596.83 2178.5,4597.17 2178,4597.5C 2130.49,4586.3 2082.99,4575.3 2035.5,4564.5C 2054.8,4551.37 2070.97,4535.03 2084,4515.5C 2140.23,4419.6 2196.89,4323.93 2254,4228.5C 2256.26,4223.63 2258.26,4218.63 2260,4213.5C 2260.82,4208.65 2260.65,4203.98 2259.5,4199.5 Z"/></g>
<g><path style="opacity:1" fill="#2b3685" d="M 2704.5,4200.5 C 2705.55,4200.35 2706.55,4200.52 2707.5,4201C 2694.2,4213.92 2686.87,4229.59 2685.5,4248C 2696.56,4332.2 2708.06,4416.37 2720,4500.5C 2721.33,4511.82 2722.5,4523.16 2723.5,4534.5C 2780.79,4530.67 2837.46,4522.51 2893.5,4510C 2929.66,4500.13 2960.49,4481.63 2986,4454.5C 2986.67,4456.17 2986.67,4457.83 2986,4459.5C 2979.96,4486.58 2973.62,4513.58 2967,4540.5C 2966.33,4545.5 2966.33,4550.5 2967,4555.5C 2969.46,4560.75 2971.63,4566.09 2973.5,4571.5C 2952.1,4573.34 2930.77,4575.84 2909.5,4579C 2829.16,4590.43 2748.83,4601.76 2668.5,4613C 2648.86,4615.57 2629.19,4617.57 2609.5,4619C 2612,4615.83 2614.5,4612.67 2617,4609.5C 2626.3,4586.14 2629.63,4561.81 2627,4536.5C 2619.28,4480.68 2610.61,4425.01 2601,4369.5C 2595.75,4332.48 2590.41,4295.48 2585,4258.5C 2584,4255.83 2583,4253.17 2582,4250.5C 2578.65,4246.81 2575.65,4242.81 2573,4238.5C 2565.17,4232.67 2557.33,4226.83 2549.5,4221C 2601.46,4215.28 2653.13,4208.45 2704.5,4200.5 Z"/></g>
<g><path style="opacity:1" fill="#fcfdfe" d="M 2327.5,4267.5 C 2328.5,4267.47 2329.16,4267.97 2329.5,4269C 2352.33,4330.82 2375,4392.65 2397.5,4454.5C 2341.4,4453.33 2285.4,4449.83 2229.5,4444C 2229.17,4443.67 2228.83,4443.33 2228.5,4443C 2262.16,4384.85 2295.16,4326.35 2327.5,4267.5 Z"/></g>
<g><path style="opacity:1" fill="#fdfefe" d="M 1773.5,4304.5 C 1824.85,4323.23 1876.18,4342.06 1927.5,4361C 1945.31,4370.48 1956.81,4384.98 1962,4404.5C 1963.97,4441.54 1946.3,4460.2 1909,4460.5C 1903.79,4460.45 1898.62,4459.95 1893.5,4459C 1869.41,4451.98 1845.41,4444.64 1821.5,4437C 1794.74,4428.08 1768.07,4418.75 1741.5,4409C 1740.94,4408.28 1740.61,4407.44 1740.5,4406.5C 1742.49,4400.21 1744.32,4393.88 1746,4387.5C 1755.73,4360.04 1764.89,4332.38 1773.5,4304.5 Z"/></g>
<g><path style="opacity:1" fill="#8bacd1" d="M 1786.5,4632.5 C 1792.17,4633.39 1797.5,4635.06 1802.5,4637.5C 1796.83,4636.61 1791.5,4634.94 1786.5,4632.5 Z"/></g>
<g><path style="opacity:1" fill="#93b2d4" d="M 3245.5,4650.5 C 3241.92,4652.81 3237.92,4654.14 3233.5,4654.5C 3237.22,4652.59 3241.22,4651.26 3245.5,4650.5 Z"/></g>
</svg>
