<?xml version="1.0" encoding="UTF-8"?>
<!DOCTYPE svg PUBLIC "-//W3C//DTD SVG 1.1//EN" "http://www.w3.org/Graphics/SVG/1.1/DTD/svg11.dtd">
<svg xmlns="http://www.w3.org/2000/svg" version="1.1" width="2066px" height="2389px" style="shape-rendering:geometricPrecision; text-rendering:geometricPrecision; image-rendering:optimizeQuality; fill-rule:evenodd; clip-rule:evenodd" xmlns:xlink="http://www.w3.org/1999/xlink">
<g><path style="opacity:0.988" fill="#010100" d="M 993.5,-0.5 C 1019.5,-0.5 1045.5,-0.5 1071.5,-0.5C 1150.24,3.21804 1225.58,21.3847 1297.5,54C 1336.76,72.2596 1370.6,97.7596 1399,130.5C 1440.99,185.226 1443.32,241.56 1406,299.5C 1384.33,328.176 1357.99,351.51 1327,369.5C 1337.07,423.205 1333.57,476.039 1316.5,528C 1316.83,528.5 1317.17,529 1317.5,529.5C 1373.09,497.273 1431.42,491.44 1492.5,512C 1522.94,525.433 1548.44,545.266 1569,571.5C 1584,545.167 1599,518.833 1614,492.5C 1631.75,471.21 1654.59,460.543 1682.5,460.5C 1700.7,460.466 1717.7,464.966 1733.5,474C 1742.36,479.265 1750.7,485.265 1758.5,492C 1787.48,521.643 1814.98,552.476 1841,584.5C 1867.21,615.725 1897.38,642.225 1931.5,664C 1974.99,686.425 2019.66,689.592 2065.5,673.5C 2065.5,674.5 2065.5,675.5 2065.5,676.5C 2000.94,797.947 1936.61,919.614 1872.5,1041.5C 1792.5,1039.73 1724.33,1010.73 1668,954.5C 1649.74,974.441 1627.57,980.774 1601.5,973.5C 1600.33,1268.5 1600.17,1563.5 1601,1858.5C 1636.46,1828.71 1671.63,1798.54 1706.5,1768C 1727.38,1748.62 1747.38,1728.46 1766.5,1707.5C 1839.86,1787.36 1912.69,1867.69 1985,1948.5C 1985.67,1949.17 1985.67,1949.83 1985,1950.5C 1793.43,2170.73 1553.6,2309.56 1265.5,2367C 1199.21,2379.13 1132.54,2386.29 1065.5,2388.5C 1043.5,2388.5 1021.5,2388.5 999.5,2388.5C 677.846,2376.08 400.179,2260.58 166.5,2042C 136.033,2012.21 107.033,1981.21 79.5,1949C 151.974,1868.03 224.974,1787.53 298.5,1707.5C 317.958,1728.79 338.291,1749.29 359.5,1769C 393.706,1798.87 428.206,1828.37 463,1857.5C 463.667,1562.83 463.667,1268.17 463,973.5C 437.128,980.698 415.128,974.365 397,954.5C 340.617,1010.59 272.45,1039.59 192.5,1041.5C 128.392,919.614 64.0591,797.947 -0.5,676.5C -0.5,675.5 -0.5,674.5 -0.5,673.5C 47.5656,690.346 93.899,686.18 138.5,661C 161.793,644.718 183.626,626.551 204,606.5C 228.373,579.129 252.373,551.462 276,523.5C 286.137,512.363 296.637,501.529 307.5,491C 323.852,476.323 342.852,466.657 364.5,462C 391.656,457.096 416.323,462.763 438.5,479C 443.034,483.199 447.201,487.699 451,492.5C 465.747,518.996 480.747,545.329 496,571.5C 516.061,546.391 540.561,526.891 569.5,513C 631.459,491.381 690.792,496.881 747.5,529.5C 747.833,529 748.167,528.5 748.5,528C 731.426,476.039 727.926,423.205 738,369.5C 703.283,350.12 674.95,323.786 653,290.5C 622.025,234.302 626.358,180.969 666,130.5C 694.798,97.033 729.298,71.1996 769.5,53C 840.883,21.0928 915.55,3.25951 993.5,-0.5 Z M 378.5,482.5 C 439.013,489.199 452.18,517.866 418,568.5C 394.078,596.766 366.245,620.266 334.5,639C 317.059,648.25 299.392,656.917 281.5,665C 271.226,676.353 268.059,689.52 272,704.5C 273.131,708.894 274.465,713.227 276,717.5C 308.963,791.259 344.463,863.759 382.5,935C 353.749,965.892 319.415,988.559 279.5,1003C 255.754,1011.08 231.42,1016.08 206.5,1018C 151.451,914.737 96.7845,811.237 42.5,707.5C 85.5102,708.752 124.844,697.585 160.5,674C 185.115,656.064 207.948,635.898 229,613.5C 252,586.833 275,560.167 298,533.5C 307.167,524.333 316.333,515.167 325.5,506C 340.95,493.022 358.617,485.189 378.5,482.5 Z M 1678.5,482.5 C 1701.63,483.155 1721.97,490.988 1739.5,506C 1751.36,517.529 1762.86,529.362 1774,541.5C 1794.33,565.167 1814.67,588.833 1835,612.5C 1858.51,638.367 1884.68,660.867 1913.5,680C 1947.19,699.243 1983.53,708.41 2022.5,707.5C 1968.03,811.125 1913.37,914.625 1858.5,1018C 1788.65,1012.96 1729.65,985.297 1681.5,935C 1686.96,927.246 1691.8,919.079 1696,910.5C 1728.36,846.776 1759.36,782.443 1789,717.5C 1794.75,704.476 1795.75,691.142 1792,677.5C 1787.9,668.186 1781.06,661.686 1771.5,658C 1726.82,640.076 1687.99,613.576 1655,578.5C 1642.4,564.298 1633.73,547.964 1629,529.5C 1626.66,512.355 1633.16,499.855 1648.5,492C 1658.02,486.879 1668.02,483.712 1678.5,482.5 Z M 639.5,522.5 C 682.908,522.801 721.574,536.301 755.5,563C 770.199,579.027 783.366,596.194 795,614.5C 867.115,702.111 959.949,739.945 1073.5,728C 1149.26,716.548 1212.09,682.048 1262,624.5C 1274.67,607.167 1287.33,589.833 1300,572.5C 1326.23,547.3 1357.4,531.467 1393.5,525C 1421.87,521.312 1449.87,523.312 1477.5,531C 1496.06,537.942 1512.72,547.942 1527.5,561C 1537.4,570.231 1546.57,580.064 1555,590.5C 1563.84,605.514 1572.17,620.847 1580,636.5C 1596.25,661.753 1617.42,681.92 1643.5,697C 1664.37,709.401 1686.7,718.067 1710.5,723C 1721.79,724.492 1733.13,724.826 1744.5,724C 1750.54,723.198 1756.37,721.698 1762,719.5C 1732.21,786.426 1700.21,852.426 1666,917.5C 1660.6,927.133 1654.1,935.967 1646.5,944C 1633.11,955.088 1618.78,956.755 1603.5,949C 1575.01,913.174 1543.68,879.84 1509.5,849C 1480.43,823.119 1447.76,802.786 1411.5,788C 1378.31,777.015 1344.98,776.682 1311.5,787C 1284.72,795.816 1259.05,807.149 1234.5,821C 1204.67,838.749 1175,856.749 1145.5,875C 1120.97,889.931 1094.97,901.598 1067.5,910C 1029.82,918.235 993.816,913.569 959.5,896C 943.675,887.921 928.008,879.588 912.5,871C 875.315,846.9 836.981,824.567 797.5,804C 774.885,793.128 751.218,785.462 726.5,781C 695.846,776.474 666.513,780.808 638.5,794C 611.126,807.342 585.793,823.676 562.5,843C 525.715,875.45 492.048,910.783 461.5,949C 440.618,957.984 423.451,953.151 410,934.5C 406.333,928.833 402.667,923.167 399,917.5C 365.233,852.632 333.066,786.965 302.5,720.5C 329.729,727.204 356.729,725.37 383.5,715C 416.891,702.595 445.724,683.429 470,657.5C 475.723,650.109 481.056,642.443 486,634.5C 493.492,619.513 501.492,604.847 510,590.5C 529.134,565.354 552.967,546.187 581.5,533C 600.601,527.429 619.935,523.929 639.5,522.5 Z M 454.5,547.5 C 455.458,547.953 456.292,548.619 457,549.5C 465.167,563.833 473.333,578.167 481.5,592.5C 471.677,617.129 457.344,638.629 438.5,657C 414.497,676.504 387.497,690.504 357.5,699C 340.597,704.071 323.93,703.404 307.5,697C 302.494,694.499 297.827,691.499 293.5,688C 294.361,685.132 296.028,682.798 298.5,681C 353.279,659.706 399.445,626.539 437,581.5C 444.677,571.147 450.51,559.814 454.5,547.5 Z M 1608.5,547.5 C 1612.51,554.513 1616.34,561.846 1620,569.5C 1631.99,587.495 1646.16,603.662 1662.5,618C 1692.67,644.76 1726.67,665.426 1764.5,680C 1767.89,681.727 1770.23,684.394 1771.5,688C 1759.86,697.27 1746.53,702.103 1731.5,702.5C 1691.93,697.712 1656.93,682.545 1626.5,657C 1617.27,648.339 1609.1,638.839 1602,628.5C 1595.58,616.657 1589.41,604.657 1583.5,592.5C 1592.11,577.607 1600.44,562.607 1608.5,547.5 Z"/></g>
<g><path style="opacity:1" fill="#eed039" d="M 997.5,34.5 C 1072.27,31.0132 1145.6,39.5132 1217.5,60C 1264.22,73.5259 1306.56,95.1925 1344.5,125C 1364.09,141.384 1378.92,161.217 1389,184.5C 1400.3,217.427 1396.97,248.76 1379,278.5C 1362.58,302.255 1342.25,321.921 1318,337.5C 1311.66,320.489 1304.16,303.989 1295.5,288C 1333.14,255.649 1332.81,223.649 1294.5,192C 1268.87,174.187 1240.87,161.187 1210.5,153C 1109.11,126.288 1006.78,122.288 903.5,141C 865.776,147.429 829.776,159.096 795.5,176C 777.323,184.844 762.156,197.344 750,213.5C 737.373,236.091 739.707,257.091 757,276.5C 760.867,280.702 765.033,284.535 769.5,288C 760.839,303.989 753.339,320.489 747,337.5C 720.287,320.454 698.62,298.454 682,271.5C 665.007,237.314 665.34,203.314 683,169.5C 701.259,141.24 724.759,118.407 753.5,101C 799.858,73.9998 849.525,55.6665 902.5,46C 934.051,40.1256 965.718,36.2923 997.5,34.5 Z"/></g>
<g><path style="opacity:1" fill="#fdfdfd" d="M 1008.5,153.5 C 1034.33,152.406 1060,153.906 1085.5,158C 1087.89,158.681 1090.23,159.515 1092.5,160.5C 1084.57,190.871 1077.91,221.537 1072.5,252.5C 1045.62,261.809 1018.78,261.809 992,252.5C 987.075,221.47 980.575,190.803 972.5,160.5C 974.22,159.066 976.22,158.233 978.5,158C 988.611,156.247 998.611,154.747 1008.5,153.5 Z"/></g>
<g><path style="opacity:1" fill="#fdfdfd" d="M 961.5,161.5 C 962.5,161.5 963.5,161.5 964.5,161.5C 970.059,186.795 975.559,212.128 981,237.5C 982.397,244.452 982.73,251.452 982,258.5C 964.474,276.597 943.14,286.264 918,287.5C 900.775,287.407 884.108,284.407 868,278.5C 867.178,276.212 866.511,273.878 866,271.5C 863.889,247.835 866.889,224.835 875,202.5C 901.615,184.109 930.448,170.442 961.5,161.5 Z"/></g>
<g><path style="opacity:1" fill="#fdfdfd" d="M 1100.5,161.5 C 1132.94,169.638 1162.77,183.305 1190,202.5C 1197.94,224.862 1200.94,247.862 1199,271.5C 1198.55,274.149 1197.71,276.649 1196.5,279C 1175.69,285.783 1154.35,288.45 1132.5,287C 1113.65,281.495 1097.15,271.995 1083,258.5C 1082.27,251.452 1082.6,244.452 1084,237.5C 1089.44,212.128 1094.94,186.795 1100.5,161.5 Z"/></g>
<g><path style="opacity:1" fill="#fdfdfd" d="M 862.5,210.5 C 863.097,210.735 863.43,211.235 863.5,212C 856.44,234.776 854.606,257.942 858,281.5C 842.928,296.972 831.928,314.972 825,335.5C 823.053,350.707 825.719,365.041 833,378.5C 834.141,380.609 835.641,382.442 837.5,384C 832.877,388.738 829.377,394.238 827,400.5C 820.315,423.203 821.315,445.536 830,467.5C 832.112,471.278 834.612,474.778 837.5,478C 830.229,485.711 826.063,494.878 825,505.5C 823.278,521.281 826.611,535.948 835,549.5C 841.517,560.354 849.184,570.354 858,579.5C 856.566,592.419 856.233,605.419 857,618.5C 859.021,629.264 861.021,639.931 863,650.5C 792.414,593.655 756.247,519.655 754.5,428.5C 757.508,339.154 793.508,266.487 862.5,210.5 Z"/></g>
<g><path style="opacity:1" fill="#fdfdfd" d="M 1201.5,210.5 C 1284.68,278.456 1319.84,366.123 1307,473.5C 1294.74,545.679 1260.08,604.346 1203,649.5C 1204.17,639.141 1205.84,628.808 1208,618.5C 1208.77,605.419 1208.43,592.419 1207,579.5C 1222.85,564.143 1233.85,545.81 1240,524.5C 1241.98,510.374 1239.65,497.041 1233,484.5C 1231.54,482.04 1229.71,479.873 1227.5,478C 1232.17,472.5 1235.67,466.334 1238,459.5C 1245.19,435.797 1243.52,412.797 1233,390.5C 1231.54,388.04 1229.71,385.873 1227.5,384C 1241.37,365.436 1244.21,345.269 1236,323.5C 1228.28,308.124 1218.62,294.124 1207,281.5C 1210.36,257.45 1208.53,233.783 1201.5,210.5 Z"/></g>
<g><path style="opacity:1" fill="#fdfdfd" d="M 989.5,261.5 C 1003.4,265.4 1017.57,267.734 1032,268.5C 1046.27,267.788 1060.27,265.455 1074,261.5C 1080.93,269.755 1089.09,276.589 1098.5,282C 1108.79,288.427 1119.79,293.093 1131.5,296C 1141.17,296.667 1150.83,296.667 1160.5,296C 1173.91,293.319 1187.24,290.652 1200.5,288C 1214.33,301.821 1224.5,317.988 1231,336.5C 1233.16,350.032 1230.83,362.699 1224,374.5C 1221.93,377.876 1218.93,379.209 1215,378.5C 1126.36,369.613 1037.53,367.113 948.5,371C 913.796,373.183 879.13,375.516 844.5,378C 838.715,371.596 835.215,364.096 834,355.5C 832.662,345.883 833.662,336.55 837,327.5C 844.318,313.024 853.485,299.857 864.5,288C 877.679,291.05 891.012,293.716 904.5,296C 920.763,298.156 936.43,296.156 951.5,290C 964.788,283.444 976.954,275.278 988,265.5C 988.791,264.255 989.291,262.922 989.5,261.5 Z"/></g>
<g><path style="opacity:1" fill="#fefefe" d="M 969.5,378.5 C 1053.47,375.663 1137.13,379.163 1220.5,389C 1229.92,400.774 1234.26,414.274 1233.5,429.5C 1233.43,442.045 1230.93,454.045 1226,465.5C 1224.21,468.295 1222.04,470.795 1219.5,473C 1094.84,486.933 970.169,486.933 845.5,473C 839.471,467.446 835.638,460.613 834,452.5C 830.16,435.628 830.827,418.962 836,402.5C 838.048,396.897 841.214,392.064 845.5,388C 886.902,383.69 928.235,380.523 969.5,378.5 Z"/></g>
<g><path style="opacity:1" fill="#fefefe" d="M 844.5,482.5 C 968.835,495.769 1093.17,495.769 1217.5,482.5C 1219.91,482.406 1221.74,483.406 1223,485.5C 1234.47,505.594 1234.14,525.594 1222,545.5C 1215.53,556.108 1207.86,565.775 1199,574.5C 1178.35,567.697 1157.18,564.53 1135.5,565C 1111.44,570.527 1090.77,582.027 1073.5,599.5C 1046.15,591.547 1018.82,591.547 991.5,599.5C 975.622,583.22 956.622,572.054 934.5,566C 911.055,563.768 888.222,566.601 866,574.5C 852.423,561.024 842.09,545.358 835,527.5C 830.757,510.822 833.923,495.822 844.5,482.5 Z"/></g>
<g><path style="opacity:0.974" fill="#de262d" d="M 377.5,503.5 C 387.921,502.55 397.588,504.716 406.5,510C 413.837,517.357 416.337,526.191 414,536.5C 411.502,545.83 407.169,554.163 401,561.5C 386.939,576.23 372.273,590.23 357,603.5C 344.966,582.294 333.133,560.961 321.5,539.5C 334.313,526.191 348.98,515.358 365.5,507C 369.623,505.808 373.623,504.641 377.5,503.5 Z"/></g>
<g><path style="opacity:0.975" fill="#de262d" d="M 1674.5,503.5 C 1687.05,502.721 1698.72,505.555 1709.5,512C 1721.75,519.968 1733.08,529.134 1743.5,539.5C 1731.41,560.672 1719.58,582.006 1708,603.5C 1692.67,590.174 1678.01,576.174 1664,561.5C 1655.77,552.214 1651.27,541.381 1650.5,529C 1649.96,519.755 1653.62,512.755 1661.5,508C 1665.85,506.164 1670.18,504.664 1674.5,503.5 Z"/></g>
<g><path style="opacity:0.985" fill="#de262d" d="M 635.5,540.5 C 670.019,540.285 702.019,549.119 731.5,567C 740.417,572.375 749.251,577.875 758,583.5C 758.833,646.503 758.667,709.503 757.5,772.5C 725.547,758.225 692.881,756.225 659.5,766.5C 648.616,691.766 638.95,616.766 630.5,541.5C 632.415,541.784 634.081,541.451 635.5,540.5 Z"/></g>
<g><path style="opacity:0.987" fill="#de262d" d="M 1413.5,540.5 C 1420.53,540.377 1427.53,540.71 1434.5,541.5C 1425.89,616.7 1416.23,691.7 1405.5,766.5C 1372.12,756.225 1339.45,758.225 1307.5,772.5C 1306.33,709.503 1306.17,646.503 1307,583.5C 1324.16,571.698 1342.33,561.531 1361.5,553C 1378.37,546.331 1395.7,542.165 1413.5,540.5 Z"/></g>
<g><path style="opacity:1" fill="#fdfdfd" d="M 908.5,573.5 C 921.628,572.288 934.295,574.121 946.5,579C 960.062,584.848 971.896,593.015 982,603.5C 982.761,611.609 982.094,619.609 980,627.5C 974.51,651.457 969.343,675.457 964.5,699.5C 932.133,691.731 902.299,678.398 875,659.5C 871.038,646.066 868.038,632.399 866,618.5C 865.174,607.128 865.508,595.794 867,584.5C 867.388,583.572 868.055,582.905 869,582.5C 882.034,578.396 895.201,575.396 908.5,573.5 Z"/></g>
<g><path style="opacity:1" fill="#fdfdfd" d="M 1138.5,573.5 C 1158.8,573.273 1178.47,576.606 1197.5,583.5C 1199.47,595.074 1199.97,606.741 1199,618.5C 1196.96,632.399 1193.96,646.066 1190,659.5C 1162.7,678.396 1132.87,691.729 1100.5,699.5C 1094.61,671.864 1088.77,644.198 1083,616.5C 1082.33,612.167 1082.33,607.833 1083,603.5C 1094.66,592.07 1108.16,583.237 1123.5,577C 1128.55,575.425 1133.55,574.259 1138.5,573.5 Z"/></g>
<g><path style="opacity:1" fill="#fdfdfd" d="M 1027.5,601.5 C 1043.12,602.036 1058.46,604.369 1073.5,608.5C 1078.55,640.111 1084.88,671.445 1092.5,702.5C 1052.5,710.5 1012.5,710.5 972.5,702.5C 980.121,671.445 986.454,640.111 991.5,608.5C 1003.44,605.176 1015.44,602.842 1027.5,601.5 Z"/></g>
<g><path style="opacity:0.985" fill="#de262d" d="M 513.5,620.5 C 535.333,681.993 557,743.66 578.5,805.5C 547.071,827.421 519.238,853.421 495,883.5C 467.578,830.323 440.411,776.989 413.5,723.5C 449.57,703.87 479.403,677.204 503,643.5C 507.593,636.315 511.093,628.648 513.5,620.5 Z"/></g>
<g><path style="opacity:0.985" fill="#de262d" d="M 1550.5,620.5 C 1557.85,638.186 1568.02,654.186 1581,668.5C 1601.33,691.06 1624.83,709.393 1651.5,723.5C 1624.59,776.989 1597.42,830.323 1570,883.5C 1545.58,853.403 1517.75,827.237 1486.5,805C 1508.34,743.652 1529.67,682.152 1550.5,620.5 Z"/></g>
<g><path style="opacity:0.985" fill="#de262d" d="M 237.5,635.5 C 239.017,635.511 240.184,636.177 241,637.5C 246.635,647.298 252.468,656.965 258.5,666.5C 249.204,680.39 247.037,695.39 252,711.5C 286.733,785.03 322.233,858.197 358.5,931C 343.825,947.004 326.825,960.004 307.5,970C 300.955,973.44 294.288,976.606 287.5,979.5C 238.949,889.449 190.615,799.282 142.5,709C 177.925,689.296 209.592,664.796 237.5,635.5 Z"/></g>
<g><path style="opacity:0.985" fill="#de262d" d="M 1824.5,635.5 C 1839.58,648.888 1854.92,662.054 1870.5,675C 1886.84,687.837 1904.17,699.17 1922.5,709C 1874.3,799.23 1825.97,889.397 1777.5,979.5C 1755.7,970.109 1735.7,957.942 1717.5,943C 1713.28,939.278 1709.61,935.112 1706.5,930.5C 1742.54,857.745 1778.04,784.745 1813,711.5C 1817.97,695.436 1815.8,680.436 1806.5,666.5C 1812.78,656.275 1818.78,645.942 1824.5,635.5 Z"/></g>
<g><path style="opacity:0.984" fill="#de262d" d="M 859.5,693.5 C 890.803,714.397 924.803,729.73 961.5,739.5C 961.833,786.171 961.5,832.838 960.5,879.5C 926.421,860.381 892.921,840.381 860,819.5C 859.5,777.501 859.333,735.501 859.5,693.5 Z"/></g>
<g><path style="opacity:0.977" fill="#de262d" d="M 1202.5,693.5 C 1203.75,693.577 1204.58,694.244 1205,695.5C 1205.67,736.833 1205.67,778.167 1205,819.5C 1179.75,834.875 1154.58,850.375 1129.5,866C 1120.71,871.059 1111.71,875.559 1102.5,879.5C 1102.5,832.833 1102.5,786.167 1102.5,739.5C 1132.88,731.808 1161.55,719.975 1188.5,704C 1193.41,700.723 1198.08,697.223 1202.5,693.5 Z"/></g>
<g><path style="opacity:0.951" fill="#de262d" d="M 109.5,718.5 C 111.288,718.215 112.955,718.548 114.5,719.5C 119.068,728.157 123.235,736.824 127,745.5C 113.89,751.969 100.056,754.302 85.5,752.5C 80.627,743.253 75.627,734.087 70.5,725C 83.8301,723.98 96.8301,721.813 109.5,718.5 Z"/></g>
<g><path style="opacity:0.954" fill="#de262d" d="M 1950.5,718.5 C 1964.69,721.433 1979.03,723.433 1993.5,724.5C 1989.39,734.048 1984.73,743.381 1979.5,752.5C 1965.73,753.985 1952.4,752.152 1939.5,747C 1938.64,746.311 1937.98,745.478 1937.5,744.5C 1941.86,735.78 1946.19,727.114 1950.5,718.5 Z"/></g>
<g><path style="opacity:0.956" fill="#de262d" d="M 150.5,789.5 C 157.86,801.711 164.86,814.211 171.5,827C 165.547,831.212 158.88,833.879 151.5,835C 144.208,836.353 136.875,836.686 129.5,836C 123.421,823.842 117.088,811.842 110.5,800C 120.587,798.985 130.587,797.319 140.5,795C 144.346,793.914 147.68,792.081 150.5,789.5 Z"/></g>
<g><path style="opacity:0.955" fill="#de262d" d="M 1913.5,789.5 C 1916.86,791.847 1920.53,793.681 1924.5,795C 1934.41,797.319 1944.41,798.985 1954.5,800C 1948.04,811.754 1941.71,823.587 1935.5,835.5C 1923.92,836.919 1912.59,835.752 1901.5,832C 1898.47,830.822 1895.8,829.156 1893.5,827C 1899.98,814.367 1906.64,801.867 1913.5,789.5 Z"/></g>
<g><path style="opacity:1" fill="#fefefe" d="M 691.5,801.5 C 718.192,800.194 743.859,804.694 768.5,815C 784.351,821.259 799.684,828.592 814.5,837C 844.764,854.936 874.764,873.27 904.5,892C 932.096,909.131 961.429,922.464 992.5,932C 1031.82,940.066 1069.82,936.066 1106.5,920C 1124.98,911.507 1142.98,902.174 1160.5,892C 1198.01,868.073 1236.34,845.407 1275.5,824C 1297.56,812.646 1320.9,805.312 1345.5,802C 1369.46,799.715 1392.46,803.382 1414.5,813C 1448.29,829.553 1478.96,850.553 1506.5,876C 1532.87,900.364 1557.04,926.531 1579,954.5C 1579.67,1252.17 1579.67,1549.83 1579,1847.5C 1577.08,1873.18 1565.92,1893.68 1545.5,1909C 1523.94,1920.96 1501.94,1931.96 1479.5,1942C 1339.33,2005.61 1198.33,2067.28 1056.5,2127C 1048.44,2129.95 1040.27,2132.45 1032,2134.5C 1027.35,2133.95 1022.85,2132.78 1018.5,2131C 885.606,2075.6 753.606,2018.26 622.5,1959C 589.157,1944.11 556.157,1928.44 523.5,1912C 508.932,1902.44 498.432,1889.6 492,1873.5C 489.37,1864.98 487.37,1856.31 486,1847.5C 485.333,1549.83 485.333,1252.17 486,954.5C 518.87,913.296 556.037,876.463 597.5,844C 619.443,827.692 643.443,815.026 669.5,806C 676.882,804.024 684.216,802.524 691.5,801.5 Z"/></g>
<g><path style="opacity:1" fill="#000000" d="M 882.5,904.5 C 775.335,905.499 668.001,905.833 560.5,905.5C 583.672,881.823 609.338,861.323 637.5,844C 654.026,834.234 671.692,827.567 690.5,824C 712.193,822.071 733.193,825.071 753.5,833C 772.469,840.318 790.802,848.984 808.5,859C 833.362,873.927 858.028,889.094 882.5,904.5 Z"/></g>
<g><path style="opacity:1" fill="#000000" d="M 1504.5,905.5 C 1397,905.833 1289.67,905.499 1182.5,904.5C 1217.49,881.326 1253.83,860.159 1291.5,841C 1312.94,830.351 1335.61,824.518 1359.5,823.5C 1383.11,824.423 1405.11,830.923 1425.5,843C 1454.61,860.27 1480.94,881.103 1504.5,905.5 Z"/></g>
<g><path style="opacity:0.956" fill="#de262d" d="M 194.5,872.5 C 196.776,874.331 198.609,876.664 200,879.5C 205.558,889.448 210.724,899.615 215.5,910C 210.938,913.944 205.605,916.278 199.5,917C 191.266,919.044 182.933,919.71 174.5,919C 167.833,907 161.167,895 154.5,883C 164.479,881.81 174.479,880.144 184.5,878C 188.346,876.914 191.68,875.081 194.5,872.5 Z"/></g>
<g><path style="opacity:0.952" fill="#de262d" d="M 1868.5,872.5 C 1881.26,879.188 1894.93,882.188 1909.5,881.5C 1903.85,894.294 1897.52,906.794 1890.5,919C 1877.36,919.98 1864.69,917.98 1852.5,913C 1850.59,912.592 1849.59,911.425 1849.5,909.5C 1855.59,896.993 1861.92,884.66 1868.5,872.5 Z"/></g>
<g><path style="opacity:1" fill="#3f3f3f" d="M 882.5,904.5 C 883.289,904.783 883.956,905.283 884.5,906C 775.764,906.832 667.764,906.665 560.5,905.5C 668.001,905.833 775.335,905.499 882.5,904.5 Z"/></g>
<g><path style="opacity:1" fill="#3f3f3f" d="M 1182.5,904.5 C 1289.67,905.499 1397,905.833 1504.5,905.5C 1397.24,906.665 1289.24,906.832 1180.5,906C 1181.04,905.283 1181.71,904.783 1182.5,904.5 Z"/></g>
<g><path style="opacity:0.946" fill="#de262d" d="M 240.5,962.5 C 243.292,962.452 245.125,963.785 246,966.5C 249.412,973.658 253.078,980.658 257,987.5C 257.749,988.635 257.583,989.635 256.5,990.5C 243.371,996.188 229.704,998.521 215.5,997.5C 210.882,987.763 205.882,978.263 200.5,969C 214.23,968.433 227.563,966.267 240.5,962.5 Z"/></g>
<g><path style="opacity:0.948" fill="#de262d" d="M 1821.5,962.5 C 1835.27,966.018 1849.27,968.018 1863.5,968.5C 1859.19,978.628 1854.19,988.461 1848.5,998C 1837.68,998.107 1827.02,996.773 1816.5,994C 1813.02,993.095 1810.02,991.429 1807.5,989C 1812.04,980.076 1816.71,971.243 1821.5,962.5 Z"/></g>
<g><path style="opacity:1" fill="#1c3224" d="M 991.5,967.5 C 1009.51,968.835 1027.51,970.335 1045.5,972C 1060.03,977.93 1074.03,984.93 1087.5,993C 1092.73,998.143 1097.73,1003.48 1102.5,1009C 1106.33,1011.04 1110,1010.7 1113.5,1008C 1119.96,1001.94 1126.96,996.606 1134.5,992C 1152.14,984.738 1170.48,981.071 1189.5,981C 1200.47,982.05 1211.14,984.383 1221.5,988C 1236.99,999.078 1253.65,1008.08 1271.5,1015C 1273.61,1016.14 1275.44,1017.64 1277,1019.5C 1277.09,1022.01 1277.93,1024.17 1279.5,1026C 1288.8,1028.3 1295.3,1033.8 1299,1042.5C 1301.33,1048.83 1303.67,1055.17 1306,1061.5C 1306.88,1070.59 1306.38,1079.59 1304.5,1088.5C 1304.28,1091.79 1305.61,1094.29 1308.5,1096C 1321.15,1095.13 1333.15,1097.46 1344.5,1103C 1352.63,1109.46 1360.46,1116.29 1368,1123.5C 1373.5,1130.33 1376,1138.17 1375.5,1147C 1376.95,1172.79 1366.28,1191.45 1343.5,1203C 1337,1208.83 1330.5,1214.67 1324,1220.5C 1323.33,1222.83 1323.33,1225.17 1324,1227.5C 1332.5,1242.09 1332.5,1256.76 1324,1271.5C 1319.72,1279.57 1313.55,1285.74 1305.5,1290C 1295.3,1292.1 1284.97,1293.1 1274.5,1293C 1268.58,1298.85 1265.75,1306.01 1266,1314.5C 1264.41,1321.51 1260.91,1327.35 1255.5,1332C 1248.17,1336.33 1240.83,1340.67 1233.5,1345C 1221.85,1348.3 1210.18,1348.3 1198.5,1345C 1184.66,1336.58 1171,1327.92 1157.5,1319C 1154.67,1316.17 1151.83,1313.33 1149,1310.5C 1144.92,1302.67 1140.59,1295 1136,1287.5C 1128.99,1281.35 1121.49,1280.85 1113.5,1286C 1095.3,1296.2 1078.8,1308.7 1064,1323.5C 1058.9,1328.98 1058.23,1334.98 1062,1341.5C 1072.55,1350.38 1083.38,1358.88 1094.5,1367C 1099.95,1371.49 1105.12,1376.32 1110,1381.5C 1114.16,1386.32 1117.49,1391.66 1120,1397.5C 1122.07,1402.49 1121.9,1407.32 1119.5,1412C 1104.32,1410.06 1088.99,1408.73 1073.5,1408C 1066.89,1406.46 1060.55,1404.13 1054.5,1401C 1047.15,1398.2 1040.49,1399.2 1034.5,1404C 1031.11,1408.05 1027.77,1412.05 1024.5,1416C 1017.15,1417.23 1010.15,1416.23 1003.5,1413C 995.193,1404.68 985.193,1399.85 973.5,1398.5C 971.5,1398.67 969.5,1398.83 967.5,1399C 963.817,1402.34 959.484,1404.34 954.5,1405C 945.833,1405.33 937.167,1405.67 928.5,1406C 924.48,1408.03 920.48,1410.03 916.5,1412C 904.413,1412.58 901.58,1407.75 908,1397.5C 917.04,1389.07 926.54,1381.24 936.5,1374C 943.127,1368.38 948.627,1361.88 953,1354.5C 955.295,1348 955.961,1341.34 955,1334.5C 953.207,1331.7 951.04,1329.2 948.5,1327C 938.237,1319.7 927.237,1313.7 915.5,1309C 911.833,1308.33 908.167,1308.33 904.5,1309C 894.12,1317.72 883.453,1326.05 872.5,1334C 856.626,1343.62 839.46,1349.46 821,1351.5C 814.772,1350.76 808.605,1349.59 802.5,1348C 794.284,1344.06 785.951,1340.39 777.5,1337C 764.835,1326.18 756.335,1312.68 752,1296.5C 750.789,1293.24 748.956,1290.41 746.5,1288C 740.358,1286.95 734.358,1285.29 728.5,1283C 720.906,1279.07 713.573,1274.73 706.5,1270C 704.211,1264.96 702.045,1259.79 700,1254.5C 696.568,1250.64 693.901,1246.3 692,1241.5C 693.052,1226.91 693.719,1212.24 694,1197.5C 695.996,1189.84 699.33,1182.84 704,1176.5C 712.288,1170.55 720.288,1164.21 728,1157.5C 731.681,1153.48 733.014,1148.81 732,1143.5C 714.18,1119.42 714.18,1095.42 732,1071.5C 738.915,1062.58 747.082,1055.08 756.5,1049C 765.384,1045.05 774.717,1043.22 784.5,1043.5C 793.048,1043.82 801.382,1044.98 809.5,1047C 814.794,1036.91 819.961,1026.74 825,1016.5C 844.046,996.539 866.546,991.706 892.5,1002C 898.431,1006.22 904.598,1010.05 911,1013.5C 912.225,1013.14 913.391,1012.64 914.5,1012C 931.556,994.303 951.89,981.97 975.5,975C 978.433,973.729 981.099,972.062 983.5,970C 986.31,969.218 988.977,968.384 991.5,967.5 Z"/></g>
<g><path style="opacity:1" fill="#eacd39" d="M 1032.5,981.5 C 1038.88,980.476 1044.38,982.143 1049,986.5C 1049.92,989.308 1049.09,991.475 1046.5,993C 1038.27,995.604 1032.94,992.771 1030.5,984.5C 1031.19,983.482 1031.86,982.482 1032.5,981.5 Z"/></g>
<g><path style="opacity:1" fill="#489ab3" d="M 1026.5,1015.5 C 1022.76,1014.12 1019.42,1011.95 1016.5,1009C 1010.01,1008.93 1003.67,1007.93 997.5,1006C 994.167,1005.33 990.833,1005.33 987.5,1006C 985.126,1008.04 983.126,1010.37 981.5,1013C 974.8,1013.2 971.3,1016.7 971,1023.5C 968.333,1026.17 965.667,1028.83 963,1031.5C 962.667,1035.83 962.333,1040.17 962,1044.5C 961.283,1045.04 960.783,1045.71 960.5,1046.5C 956.617,1048.42 953.784,1047.42 952,1043.5C 951.212,1036.44 951.545,1029.44 953,1022.5C 957.305,1015.21 961.971,1008.21 967,1001.5C 970.246,997.523 974.413,995.023 979.5,994C 982.167,991 984.833,988 987.5,985C 992.838,984.165 998.172,983.332 1003.5,982.5C 1010.65,983.828 1017.65,985.662 1024.5,988C 1031.14,994.456 1033.31,1002.29 1031,1011.5C 1030.21,1013.64 1028.71,1014.98 1026.5,1015.5 Z"/></g>
<g><path style="opacity:1" fill="#489ab3" d="M 1288.5,1053.5 C 1287.05,1058.61 1283.72,1061.61 1278.5,1062.5C 1276.91,1055.63 1272.75,1052.96 1266,1054.5C 1263.29,1053.89 1260.79,1052.89 1258.5,1051.5C 1251.82,1041.66 1242.49,1037.5 1230.5,1039C 1226.08,1030.97 1221.08,1023.47 1215.5,1016.5C 1213.82,1013.32 1211.15,1011.66 1207.5,1011.5C 1203.65,1013.09 1199.65,1014.09 1195.5,1014.5C 1190.29,1012.87 1184.96,1012.37 1179.5,1013C 1177.34,1014 1175.67,1015.5 1174.5,1017.5C 1173.03,1017.89 1171.53,1018.23 1170,1018.5C 1163.02,1015.9 1156.18,1016.07 1149.5,1019C 1147.3,1022.36 1144.64,1025.19 1141.5,1027.5C 1134.12,1028.85 1128.45,1032.69 1124.5,1039C 1122.35,1040.41 1120.02,1041.24 1117.5,1041.5C 1114.68,1041.25 1112.01,1041.75 1109.5,1043C 1103.88,1052.93 1096.71,1054.1 1088,1046.5C 1087.33,1044.17 1087.33,1041.83 1088,1039.5C 1091.38,1035.24 1094.88,1031.07 1098.5,1027C 1101.42,1026.01 1104.42,1025.35 1107.5,1025C 1111.11,1020.19 1115.78,1016.86 1121.5,1015C 1139,1000.33 1159.17,992.167 1182,990.5C 1188.26,991.544 1194.43,993.044 1200.5,995C 1208.32,994.594 1215.66,996.261 1222.5,1000C 1225.93,1004.19 1229.6,1008.19 1233.5,1012C 1235.83,1013 1238.17,1014 1240.5,1015C 1244.61,1020.39 1249.95,1023.72 1256.5,1025C 1258.5,1027 1260.5,1029 1262.5,1031C 1264.95,1031.29 1267.29,1031.96 1269.5,1033C 1275.02,1037.2 1280.52,1041.36 1286,1045.5C 1287.71,1047.91 1288.54,1050.58 1288.5,1053.5 Z"/></g>
<g><path style="opacity:1" fill="#489ab3" d="M 1090.5,1014.5 C 1089.26,1016.8 1087.26,1018.13 1084.5,1018.5C 1082.06,1017.23 1079.72,1015.73 1077.5,1014C 1076.17,1013.83 1074.83,1013.67 1073.5,1013.5C 1065.93,1015.04 1058.26,1015.87 1050.5,1016C 1046.5,1017.66 1042.84,1019.83 1039.5,1022.5C 1038.48,1022.14 1037.81,1021.48 1037.5,1020.5C 1037.53,1011.27 1041.2,1003.77 1048.5,998C 1057.17,997.333 1065.83,997.333 1074.5,998C 1080.19,1000.37 1085.36,1003.54 1090,1007.5C 1090.5,1009.81 1090.66,1012.14 1090.5,1014.5 Z"/></g>
<g><path style="opacity:1" fill="#1a8848" d="M 1026.5,1015.5 C 1023.68,1019.8 1020.84,1024.14 1018,1028.5C 1016.78,1034.38 1017.61,1039.88 1020.5,1045C 1023.31,1045.92 1025.47,1045.09 1027,1042.5C 1030.62,1035.11 1034.12,1027.77 1037.5,1020.5C 1037.81,1021.48 1038.48,1022.14 1039.5,1022.5C 1042.84,1019.83 1046.5,1017.66 1050.5,1016C 1058.26,1015.87 1065.93,1015.04 1073.5,1013.5C 1074.83,1013.67 1076.17,1013.83 1077.5,1014C 1079.72,1015.73 1082.06,1017.23 1084.5,1018.5C 1087.26,1018.13 1089.26,1016.8 1090.5,1014.5C 1089.62,1019.36 1088.12,1024.03 1086,1028.5C 1085,1029.17 1084,1029.83 1083,1030.5C 1081.27,1034.36 1079.93,1038.36 1079,1042.5C 1073.48,1047.19 1069.14,1052.86 1066,1059.5C 1058.89,1065.28 1054.23,1072.61 1052,1081.5C 1049.77,1084.36 1046.94,1086.36 1043.5,1087.5C 1042.36,1094.68 1040.53,1101.68 1038,1108.5C 1032.5,1112.67 1027.67,1117.5 1023.5,1123C 1014.8,1127.98 1008.63,1125.81 1005,1116.5C 1002.98,1107.43 1003.31,1098.43 1006,1089.5C 1006.67,1084.83 1006.67,1080.17 1006,1075.5C 1003.69,1066.96 1002.02,1058.3 1001,1049.5C 997.342,1041.51 993.175,1033.85 988.5,1026.5C 986.051,1025.09 983.884,1025.42 982,1027.5C 979.548,1034.54 980.215,1041.2 984,1047.5C 987.358,1048.58 990.358,1050.25 993,1052.5C 992.344,1060.47 992.011,1068.47 992,1076.5C 992.936,1078.71 994.602,1080.04 997,1080.5C 997.167,1081.83 997.333,1083.17 997.5,1084.5C 996.757,1093.16 996.59,1101.82 997,1110.5C 996.535,1111.93 995.701,1113.1 994.5,1114C 984.854,1116.12 976.854,1113.45 970.5,1106C 968.634,1105.02 966.634,1104.52 964.5,1104.5C 956.764,1103.74 950.43,1106.24 945.5,1112C 942.697,1112.75 940.03,1112.42 937.5,1111C 932.41,1103.91 926.076,1098.24 918.5,1094C 907.248,1084.41 903.081,1072.24 906,1057.5C 904.333,1055.17 902.667,1052.83 901,1050.5C 900.506,1048.87 900.34,1047.2 900.5,1045.5C 905.194,1048.71 910.194,1049.21 915.5,1047C 917.965,1041.51 920.965,1041.17 924.5,1046C 928.868,1048.22 932.868,1047.72 936.5,1044.5C 929.361,1055.02 926.861,1066.68 929,1079.5C 929.545,1086.48 932.379,1092.32 937.5,1097C 940.624,1098.09 942.957,1097.25 944.5,1094.5C 943.421,1091.35 941.588,1088.69 939,1086.5C 933.658,1074.91 934.825,1064.08 942.5,1054C 946.483,1051.56 950.816,1050.9 955.5,1052C 959.063,1055.23 962.896,1058.07 967,1060.5C 967.5,1060.17 968,1059.83 968.5,1059.5C 965.059,1055.61 962.392,1051.28 960.5,1046.5C 960.783,1045.71 961.283,1045.04 962,1044.5C 962.333,1040.17 962.667,1035.83 963,1031.5C 965.667,1028.83 968.333,1026.17 971,1023.5C 971.3,1016.7 974.8,1013.2 981.5,1013C 983.126,1010.37 985.126,1008.04 987.5,1006C 990.833,1005.33 994.167,1005.33 997.5,1006C 1003.67,1007.93 1010.01,1008.93 1016.5,1009C 1019.42,1011.95 1022.76,1014.12 1026.5,1015.5 Z"/></g>
<g><path style="opacity:1" fill="#489ab3" d="M 936.5,1044.5 C 932.868,1047.72 928.868,1048.22 924.5,1046C 920.965,1041.17 917.965,1041.51 915.5,1047C 910.194,1049.21 905.194,1048.71 900.5,1045.5C 898.545,1044.07 896.879,1044.4 895.5,1046.5C 893.386,1048.79 890.886,1050.45 888,1051.5C 883.899,1049.87 879.733,1048.37 875.5,1047C 870.03,1045.78 866.53,1047.95 865,1053.5C 859.134,1060.63 852.968,1061.13 846.5,1055C 844.833,1054.33 843.167,1054.33 841.5,1055C 839.297,1058.61 837.464,1062.44 836,1066.5C 833.049,1069.55 829.549,1071.22 825.5,1071.5C 823.983,1071.51 822.816,1072.18 822,1073.5C 819.039,1082.56 812.873,1086.39 803.5,1085C 798.979,1080.98 794.312,1077.14 789.5,1073.5C 787.265,1075.64 785.265,1077.97 783.5,1080.5C 776.474,1080.71 770.807,1083.54 766.5,1089C 759.076,1090.43 753.243,1094.26 749,1100.5C 748.501,1104.49 748.334,1108.49 748.5,1112.5C 745.802,1120.53 740.468,1122.69 732.5,1119C 727.756,1113.62 727.256,1107.79 731,1101.5C 732.896,1099.47 735.063,1097.8 737.5,1096.5C 737.997,1092.82 738.997,1089.32 740.5,1086C 744.716,1084.19 749.05,1082.69 753.5,1081.5C 754.701,1077.47 756.367,1073.63 758.5,1070C 767.958,1070.31 775.292,1066.64 780.5,1059C 786.078,1055.7 792.078,1054.7 798.5,1056C 803.882,1057.52 808.882,1059.86 813.5,1063C 818.301,1062.82 821.468,1060.32 823,1055.5C 822.01,1042.32 828.177,1035.65 841.5,1035.5C 846.075,1035.75 850.408,1036.91 854.5,1039C 856.833,1039.67 859.167,1039.67 861.5,1039C 864.595,1034.82 867.928,1030.82 871.5,1027C 875.738,1026.18 879.738,1026.84 883.5,1029C 886.732,1031.9 890.232,1034.4 894,1036.5C 896.767,1033.73 899.6,1030.9 902.5,1028C 908.127,1026.25 913.794,1024.59 919.5,1023C 922.502,1020.5 925.835,1018.5 929.5,1017C 932.5,1014 935.5,1011 938.5,1008C 943.254,1005.92 947.921,1006.08 952.5,1008.5C 948.844,1012.48 945.678,1016.81 943,1021.5C 941.017,1029.27 938.85,1036.93 936.5,1044.5 Z"/></g>
<g><path style="opacity:1" fill="#e5c939" d="M 862.5,1009.5 C 866.463,1009.09 870.13,1009.92 873.5,1012C 875.501,1017.36 873.501,1020.03 867.5,1020C 864.931,1022.48 862.598,1025.15 860.5,1028C 844.98,1028.53 843.313,1023.53 855.5,1013C 857.925,1011.79 860.259,1010.62 862.5,1009.5 Z"/></g>
<g><path style="opacity:1" fill="#1a8848" d="M 1215.5,1016.5 C 1215.34,1025.62 1215.84,1034.62 1217,1043.5C 1212.84,1044.62 1209.18,1046.62 1206,1049.5C 1205.33,1050.83 1205.33,1052.17 1206,1053.5C 1214.11,1053.33 1222.27,1053.67 1230.5,1054.5C 1232.75,1046.41 1237.75,1043.91 1245.5,1047C 1247.04,1048.58 1248.21,1050.41 1249,1052.5C 1250.38,1058.99 1249.38,1064.99 1246,1070.5C 1239.93,1076.12 1233.76,1081.62 1227.5,1087C 1223.95,1088.17 1220.29,1088.84 1216.5,1089C 1212.94,1089.87 1211.44,1092.04 1212,1095.5C 1216.38,1097.97 1220.38,1100.97 1224,1104.5C 1224.67,1107.17 1224.67,1109.83 1224,1112.5C 1222.14,1115.27 1219.81,1117.61 1217,1119.5C 1216.7,1121.89 1215.86,1124.06 1214.5,1126C 1205.71,1129.93 1196.55,1132.43 1187,1133.5C 1182.12,1133.15 1177.28,1132.48 1172.5,1131.5C 1167.25,1132.97 1161.92,1133.47 1156.5,1133C 1155.07,1130.16 1153.57,1127.32 1152,1124.5C 1150.59,1123.21 1149.09,1122.05 1147.5,1121C 1139.91,1119.77 1132.24,1119.1 1124.5,1119C 1119.4,1114.9 1118.07,1110.07 1120.5,1104.5C 1129.6,1095.55 1140.6,1091.71 1153.5,1093C 1160,1087.91 1167,1083.58 1174.5,1080C 1179.21,1079.62 1183.88,1078.96 1188.5,1078C 1191.61,1075.16 1192.61,1071.83 1191.5,1068C 1190.17,1067.33 1188.83,1067.33 1187.5,1068C 1181.35,1072.91 1174.35,1075.91 1166.5,1077C 1161.88,1079.95 1157.55,1083.28 1153.5,1087C 1146.73,1092.13 1140.56,1091.63 1135,1085.5C 1133.18,1080.68 1132.01,1075.68 1131.5,1070.5C 1130.81,1071.03 1130.31,1071.69 1130,1072.5C 1129.67,1077.5 1129.33,1082.5 1129,1087.5C 1128.33,1088.83 1127.67,1090.17 1127,1091.5C 1120.04,1095.73 1112.87,1099.56 1105.5,1103C 1102.7,1103.75 1100.03,1103.42 1097.5,1102C 1094.78,1098.94 1092.44,1095.61 1090.5,1092C 1086.25,1092.08 1084.25,1094.41 1084.5,1099C 1085.45,1102.18 1086.62,1105.34 1088,1108.5C 1091.24,1111.86 1094.74,1114.7 1098.5,1117C 1096.35,1120.49 1093.51,1123.32 1090,1125.5C 1089,1132.83 1092.17,1135.67 1099.5,1134C 1102.37,1131.63 1104.7,1128.79 1106.5,1125.5C 1109.62,1123.65 1112.96,1123.15 1116.5,1124C 1118.9,1126.06 1121.57,1127.73 1124.5,1129C 1131.14,1130.76 1137.81,1132.43 1144.5,1134C 1146.5,1135 1148.5,1136 1150.5,1137C 1153.06,1140.47 1156.06,1143.47 1159.5,1146C 1161.74,1146.91 1164.08,1147.41 1166.5,1147.5C 1178.79,1143.38 1191.46,1140.88 1204.5,1140C 1208.27,1138.47 1210.94,1135.81 1212.5,1132C 1218.17,1129.66 1223.34,1126.49 1228,1122.5C 1229,1120.83 1230,1119.17 1231,1117.5C 1231.13,1111.49 1231.13,1105.49 1231,1099.5C 1236,1096.19 1239,1091.52 1240,1085.5C 1244.9,1081.39 1249.57,1077.06 1254,1072.5C 1255.39,1065.49 1256.89,1058.49 1258.5,1051.5C 1260.79,1052.89 1263.29,1053.89 1266,1054.5C 1272.75,1052.96 1276.91,1055.63 1278.5,1062.5C 1278.47,1068.35 1278.81,1074.19 1279.5,1080C 1279,1085.5 1278.5,1091 1278,1096.5C 1272.92,1100.62 1267.42,1104.12 1261.5,1107C 1254.58,1112.48 1253.91,1118.48 1259.5,1125C 1260.79,1125.49 1262.13,1125.66 1263.5,1125.5C 1258.32,1134.5 1250.65,1140.33 1240.5,1143C 1236.79,1145.6 1235.62,1149.1 1237,1153.5C 1237.89,1154.08 1238.89,1154.41 1240,1154.5C 1246.58,1150.4 1253.75,1148.9 1261.5,1150C 1269.6,1153.79 1277.44,1157.96 1285,1162.5C 1289.79,1161.88 1292.29,1159.21 1292.5,1154.5C 1285.95,1154.56 1279.61,1153.39 1273.5,1151C 1271,1149.83 1269.17,1148 1268,1145.5C 1266.05,1138.68 1267.89,1133.18 1273.5,1129C 1278.57,1126.57 1283.9,1125.07 1289.5,1124.5C 1288.3,1126.39 1286.97,1128.23 1285.5,1130C 1281.39,1132.45 1277.55,1135.28 1274,1138.5C 1272.71,1142.63 1273.87,1145.79 1277.5,1148C 1280.17,1148.67 1282.83,1148.67 1285.5,1148C 1288.15,1145.68 1290.48,1143.01 1292.5,1140C 1294.47,1139.5 1296.47,1139.34 1298.5,1139.5C 1298.43,1143.16 1299.93,1145.83 1303,1147.5C 1307.48,1146.01 1311.98,1144.67 1316.5,1143.5C 1320.56,1144.02 1324.56,1144.85 1328.5,1146C 1330.04,1148.28 1331.2,1150.78 1332,1153.5C 1334.69,1155.36 1337.19,1157.36 1339.5,1159.5C 1328.28,1163.76 1322.61,1171.93 1322.5,1184C 1314.21,1183.49 1311.04,1178.99 1313,1170.5C 1312.5,1169.33 1311.67,1168.5 1310.5,1168C 1301.05,1165.3 1296.38,1168.8 1296.5,1178.5C 1292.82,1178.33 1289.15,1178.5 1285.5,1179C 1283.34,1180.91 1281.01,1182.58 1278.5,1184C 1276.32,1187.65 1275.98,1191.48 1277.5,1195.5C 1281.53,1197.1 1285.7,1198.43 1290,1199.5C 1293.78,1198.26 1297.61,1197.76 1301.5,1198C 1304.66,1204.14 1309.49,1205.97 1316,1203.5C 1318.01,1203.76 1319.84,1204.42 1321.5,1205.5C 1319.54,1207.02 1317.2,1207.68 1314.5,1207.5C 1307.23,1205.89 1299.9,1205.39 1292.5,1206C 1291.14,1207.94 1291.47,1209.6 1293.5,1211C 1296.71,1212.15 1300.04,1212.82 1303.5,1213C 1305.66,1214 1307.33,1215.5 1308.5,1217.5C 1300.84,1216.37 1293.84,1217.87 1287.5,1222C 1283.45,1224.79 1282.78,1228.12 1285.5,1232C 1289.86,1231.69 1294.19,1231.86 1298.5,1232.5C 1300.06,1232.28 1301.39,1231.61 1302.5,1230.5C 1304.64,1231.95 1306.97,1232.95 1309.5,1233.5C 1309.2,1236.52 1308.7,1239.52 1308,1242.5C 1305.26,1244.98 1303.26,1247.98 1302,1251.5C 1299.83,1253.12 1297.33,1253.95 1294.5,1254C 1293.83,1255.67 1293.17,1257.33 1292.5,1259C 1289.62,1260.13 1286.62,1260.79 1283.5,1261C 1282.87,1261.75 1282.37,1262.58 1282,1263.5C 1279.23,1261.4 1277.23,1258.73 1276,1255.5C 1269.08,1253.58 1265.91,1256.25 1266.5,1263.5C 1260.71,1263.44 1255.05,1264.11 1249.5,1265.5C 1246.71,1265.55 1244.04,1265.05 1241.5,1264C 1239.32,1261.14 1237.32,1258.14 1235.5,1255C 1232.04,1253.26 1228.38,1252.26 1224.5,1252C 1220.68,1249.18 1218.84,1245.35 1219,1240.5C 1216.33,1235.83 1213.67,1231.17 1211,1226.5C 1210.33,1224.5 1210.33,1222.5 1211,1220.5C 1212.5,1219 1214,1217.5 1215.5,1216C 1220.89,1214.99 1226.23,1213.66 1231.5,1212C 1233.23,1210.61 1234.56,1208.94 1235.5,1207C 1235.18,1205.35 1234.18,1204.35 1232.5,1204C 1225.84,1204.12 1219.17,1204.12 1212.5,1204C 1209.77,1203.6 1207.93,1202.1 1207,1199.5C 1206.13,1193.08 1206.46,1186.75 1208,1180.5C 1212.55,1171.96 1218.55,1164.62 1226,1158.5C 1226.72,1156.89 1226.55,1155.39 1225.5,1154C 1223.17,1153.33 1220.83,1153.33 1218.5,1154C 1212.73,1160.78 1206.56,1167.28 1200,1173.5C 1199.02,1175.37 1198.52,1177.37 1198.5,1179.5C 1199.37,1183.82 1199.54,1188.15 1199,1192.5C 1198.52,1199.32 1195.02,1201.82 1188.5,1200C 1186.5,1199.33 1185.17,1198 1184.5,1196C 1178.31,1194.92 1173.31,1196.92 1169.5,1202C 1168.17,1202.67 1166.83,1202.67 1165.5,1202C 1161.05,1196.22 1155.89,1191.05 1150,1186.5C 1149.07,1182.99 1148.24,1179.49 1147.5,1176C 1141.55,1174.86 1135.89,1172.86 1130.5,1170C 1125.97,1169.47 1123.97,1171.63 1124.5,1176.5C 1125.99,1181.89 1125.83,1187.22 1124,1192.5C 1120.77,1196.06 1117.93,1199.9 1115.5,1204C 1119.5,1209.33 1123.5,1214.67 1127.5,1220C 1124.11,1224.19 1121.45,1228.69 1119.5,1233.5C 1114.9,1231.58 1110.23,1229.74 1105.5,1228C 1102.2,1222.85 1097.53,1220.68 1091.5,1221.5C 1091.8,1218.42 1092.8,1215.59 1094.5,1213C 1091.83,1212.67 1089.17,1212.33 1086.5,1212C 1085.07,1211.53 1083.9,1210.7 1083,1209.5C 1080.88,1203.65 1080.22,1197.65 1081,1191.5C 1084.04,1188.8 1086.7,1185.8 1089,1182.5C 1089.33,1178.83 1089.67,1175.17 1090,1171.5C 1092.25,1169.04 1094.25,1166.37 1096,1163.5C 1096.67,1161.17 1096.67,1158.83 1096,1156.5C 1092.59,1155.38 1089.09,1155.21 1085.5,1156C 1084.33,1156.5 1083.5,1157.33 1083,1158.5C 1083.77,1165.12 1084.1,1171.79 1084,1178.5C 1080.57,1181.26 1077.91,1184.59 1076,1188.5C 1075.36,1194.53 1075.53,1200.53 1076.5,1206.5C 1074.6,1205.49 1072.6,1205.32 1070.5,1206C 1066.37,1209.93 1061.37,1211.6 1055.5,1211C 1053.83,1212 1052.17,1213 1050.5,1214C 1044.17,1214.33 1037.83,1214.67 1031.5,1215C 1029.09,1215.76 1028.09,1217.42 1028.5,1220C 1028.39,1222.18 1029.06,1224.01 1030.5,1225.5C 1027.63,1225.38 1025.13,1224.38 1023,1222.5C 1021.78,1213.56 1021.12,1204.56 1021,1195.5C 1020.59,1195.04 1020.09,1194.71 1019.5,1194.5C 1017.11,1196.73 1015.28,1199.4 1014,1202.5C 1013.27,1209.87 1013.44,1217.2 1014.5,1224.5C 1010.09,1222.42 1005.43,1221.26 1000.5,1221C 996.694,1215.9 991.694,1214.24 985.5,1216C 983.859,1217.13 982.859,1218.63 982.5,1220.5C 977.229,1216.56 971.229,1214.4 964.5,1214C 947.821,1201.56 932.654,1187.39 919,1171.5C 914.826,1166.01 915.826,1162.01 922,1159.5C 924.074,1156.21 923.908,1153.04 921.5,1150C 917.797,1148.1 913.963,1146.6 910,1145.5C 908.262,1133.57 913.262,1126.24 925,1123.5C 929.82,1124.12 934.653,1124.62 939.5,1125C 942.134,1126.59 943.801,1128.92 944.5,1132C 948.901,1135.12 953.734,1137.28 959,1138.5C 960.107,1138.41 961.107,1138.08 962,1137.5C 964.058,1129.57 967.724,1128.57 973,1134.5C 973.667,1139.5 973.667,1144.5 973,1149.5C 970,1152.83 967,1156.17 964,1159.5C 963.333,1161.83 963.333,1164.17 964,1166.5C 964.956,1167.89 966.289,1168.56 968,1168.5C 989.536,1160.7 998.202,1168.04 994,1190.5C 992.039,1193.46 989.706,1196.13 987,1198.5C 986.107,1201.92 986.607,1205.08 988.5,1208C 990.167,1208.67 991.833,1208.67 993.5,1208C 999.189,1202.65 1003.69,1196.49 1007,1189.5C 1010.89,1176.11 1006.39,1166.94 993.5,1162C 985.324,1154.43 982.99,1145.43 986.5,1135C 991.5,1134.67 996.5,1134.33 1001.5,1134C 1008.44,1129.08 1014.94,1129.58 1021,1135.5C 1021.58,1142.34 1018.91,1147.68 1013,1151.5C 1011,1154.5 1011,1157.5 1013,1160.5C 1016.07,1163.26 1019.4,1165.59 1023,1167.5C 1023.67,1170.83 1024.33,1174.17 1025,1177.5C 1028,1179.04 1031.17,1180.21 1034.5,1181C 1044.92,1181.28 1055.25,1181.94 1065.5,1183C 1068.31,1181.69 1069.14,1179.53 1068,1176.5C 1063.01,1170.82 1057.01,1166.82 1050,1164.5C 1043.77,1165.98 1037.6,1165.81 1031.5,1164C 1026.78,1160.66 1025.28,1156.16 1027,1150.5C 1028.96,1144.88 1032.12,1140.04 1036.5,1136C 1044.5,1135.67 1052.5,1135.33 1060.5,1135C 1062.84,1134.16 1065.17,1133.33 1067.5,1132.5C 1071.58,1134.53 1075.75,1134.87 1080,1133.5C 1080.69,1131.08 1080.19,1128.91 1078.5,1127C 1072.05,1122.85 1065.05,1121.18 1057.5,1122C 1051.3,1128.66 1047.14,1127.5 1045,1118.5C 1044.33,1115.5 1044.33,1112.5 1045,1109.5C 1049.42,1101.51 1053.08,1093.18 1056,1084.5C 1060.18,1081.74 1064.18,1078.74 1068,1075.5C 1072.11,1068.4 1076.61,1061.56 1081.5,1055C 1084.8,1052.63 1088.47,1051.96 1092.5,1053C 1094.55,1055.59 1096.72,1058.09 1099,1060.5C 1104.96,1056.21 1110.62,1051.54 1116,1046.5C 1117.01,1044.98 1117.51,1043.31 1117.5,1041.5C 1120.02,1041.24 1122.35,1040.41 1124.5,1039C 1128.45,1032.69 1134.12,1028.85 1141.5,1027.5C 1143.85,1027.84 1146.19,1028.34 1148.5,1029C 1152.08,1033.71 1154.91,1038.88 1157,1044.5C 1161.61,1049.78 1165.94,1049.45 1170,1043.5C 1171.28,1041.28 1172.28,1038.95 1173,1036.5C 1173.21,1030.09 1173.71,1023.75 1174.5,1017.5C 1175.67,1015.5 1177.34,1014 1179.5,1013C 1184.96,1012.37 1190.29,1012.87 1195.5,1014.5C 1199.65,1014.09 1203.65,1013.09 1207.5,1011.5C 1211.15,1011.66 1213.82,1013.32 1215.5,1016.5 Z"/></g>
<g><path style="opacity:1" fill="#1b3224" d="M 1174.5,1017.5 C 1173.71,1023.75 1173.21,1030.09 1173,1036.5C 1172.28,1038.95 1171.28,1041.28 1170,1043.5C 1165.94,1049.45 1161.61,1049.78 1157,1044.5C 1154.91,1038.88 1152.08,1033.71 1148.5,1029C 1146.19,1028.34 1143.85,1027.84 1141.5,1027.5C 1144.64,1025.19 1147.3,1022.36 1149.5,1019C 1156.18,1016.07 1163.02,1015.9 1170,1018.5C 1171.53,1018.23 1173.03,1017.89 1174.5,1017.5 Z"/></g>
<g><path style="opacity:1" fill="#1b3324" d="M 1215.5,1016.5 C 1221.08,1023.47 1226.08,1030.97 1230.5,1039C 1242.49,1037.5 1251.82,1041.66 1258.5,1051.5C 1256.89,1058.49 1255.39,1065.49 1254,1072.5C 1249.57,1077.06 1244.9,1081.39 1240,1085.5C 1239,1091.52 1236,1096.19 1231,1099.5C 1231.13,1105.49 1231.13,1111.49 1231,1117.5C 1230,1119.17 1229,1120.83 1228,1122.5C 1223.34,1126.49 1218.17,1129.66 1212.5,1132C 1210.94,1135.81 1208.27,1138.47 1204.5,1140C 1191.46,1140.88 1178.79,1143.38 1166.5,1147.5C 1164.08,1147.41 1161.74,1146.91 1159.5,1146C 1156.06,1143.47 1153.06,1140.47 1150.5,1137C 1148.5,1136 1146.5,1135 1144.5,1134C 1137.81,1132.43 1131.14,1130.76 1124.5,1129C 1121.57,1127.73 1118.9,1126.06 1116.5,1124C 1112.96,1123.15 1109.62,1123.65 1106.5,1125.5C 1104.7,1128.79 1102.37,1131.63 1099.5,1134C 1092.17,1135.67 1089,1132.83 1090,1125.5C 1093.51,1123.32 1096.35,1120.49 1098.5,1117C 1094.74,1114.7 1091.24,1111.86 1088,1108.5C 1086.62,1105.34 1085.45,1102.18 1084.5,1099C 1084.25,1094.41 1086.25,1092.08 1090.5,1092C 1092.44,1095.61 1094.78,1098.94 1097.5,1102C 1100.03,1103.42 1102.7,1103.75 1105.5,1103C 1112.87,1099.56 1120.04,1095.73 1127,1091.5C 1127.67,1090.17 1128.33,1088.83 1129,1087.5C 1129.33,1082.5 1129.67,1077.5 1130,1072.5C 1130.31,1071.69 1130.81,1071.03 1131.5,1070.5C 1132.01,1075.68 1133.18,1080.68 1135,1085.5C 1140.56,1091.63 1146.73,1092.13 1153.5,1087C 1157.55,1083.28 1161.88,1079.95 1166.5,1077C 1174.35,1075.91 1181.35,1072.91 1187.5,1068C 1188.83,1067.33 1190.17,1067.33 1191.5,1068C 1192.61,1071.83 1191.61,1075.16 1188.5,1078C 1183.88,1078.96 1179.21,1079.62 1174.5,1080C 1167,1083.58 1160,1087.91 1153.5,1093C 1140.6,1091.71 1129.6,1095.55 1120.5,1104.5C 1118.07,1110.07 1119.4,1114.9 1124.5,1119C 1132.24,1119.1 1139.91,1119.77 1147.5,1121C 1149.09,1122.05 1150.59,1123.21 1152,1124.5C 1153.57,1127.32 1155.07,1130.16 1156.5,1133C 1161.92,1133.47 1167.25,1132.97 1172.5,1131.5C 1177.28,1132.48 1182.12,1133.15 1187,1133.5C 1196.55,1132.43 1205.71,1129.93 1214.5,1126C 1215.86,1124.06 1216.7,1121.89 1217,1119.5C 1219.81,1117.61 1222.14,1115.27 1224,1112.5C 1224.67,1109.83 1224.67,1107.17 1224,1104.5C 1220.38,1100.97 1216.38,1097.97 1212,1095.5C 1211.44,1092.04 1212.94,1089.87 1216.5,1089C 1220.29,1088.84 1223.95,1088.17 1227.5,1087C 1233.76,1081.62 1239.93,1076.12 1246,1070.5C 1249.38,1064.99 1250.38,1058.99 1249,1052.5C 1248.21,1050.41 1247.04,1048.58 1245.5,1047C 1237.75,1043.91 1232.75,1046.41 1230.5,1054.5C 1222.27,1053.67 1214.11,1053.33 1206,1053.5C 1205.33,1052.17 1205.33,1050.83 1206,1049.5C 1209.18,1046.62 1212.84,1044.62 1217,1043.5C 1215.84,1034.62 1215.34,1025.62 1215.5,1016.5 Z"/></g>
<g><path style="opacity:1" fill="#1a8848" d="M 895.5,1046.5 C 894.565,1053.37 891.731,1059.37 887,1064.5C 886.333,1066.5 886.333,1068.5 887,1070.5C 889.708,1074.1 893.208,1076.6 897.5,1078C 901.612,1082.39 905.112,1087.22 908,1092.5C 910.488,1094.74 913.154,1096.74 916,1098.5C 918.511,1102.6 919.011,1106.93 917.5,1111.5C 913.049,1112.48 908.882,1114.15 905,1116.5C 904.07,1121.73 902.404,1126.73 900,1131.5C 894.045,1137.45 888.878,1143.95 884.5,1151C 881.167,1151.67 877.833,1151.67 874.5,1151C 874.818,1140.74 874.485,1130.41 873.5,1120C 873.612,1114.72 874.112,1109.56 875,1104.5C 867.761,1103.93 863.761,1099.93 863,1092.5C 862.667,1088.83 862.333,1085.17 862,1081.5C 860.828,1078.3 858.661,1076.8 855.5,1077C 854.398,1079.4 854.231,1081.9 855,1084.5C 857.894,1090.29 860.227,1096.29 862,1102.5C 862.12,1109.17 862.12,1115.84 862,1122.5C 864,1126.5 866,1130.5 868,1134.5C 869.932,1148.57 864.432,1152.74 851.5,1147C 849.126,1144.96 847.126,1142.63 845.5,1140C 843.55,1138.5 841.55,1138.34 839.5,1139.5C 838.738,1143.11 838.238,1146.78 838,1150.5C 834.22,1153.51 833.553,1157.17 836,1161.5C 838.847,1163.96 840.18,1166.96 840,1170.5C 837.292,1174.1 833.792,1176.6 829.5,1178C 824.054,1178.1 818.721,1178.77 813.5,1180C 813.023,1182.9 812.023,1185.57 810.5,1188C 802.803,1188.57 795.136,1188.24 787.5,1187C 785.513,1185.68 784.346,1183.85 784,1181.5C 783.667,1176.83 783.333,1172.17 783,1167.5C 782.626,1166.58 782.126,1165.75 781.5,1165C 778.623,1163.87 775.623,1163.21 772.5,1163C 771.773,1160.88 771.106,1158.71 770.5,1156.5C 762.171,1155.53 754.171,1153.37 746.5,1150C 742.935,1146.27 741.269,1141.77 741.5,1136.5C 741.616,1129.87 744.949,1125.71 751.5,1124C 755.152,1122.23 758.985,1121.06 763,1120.5C 768.692,1122.76 774.525,1124.59 780.5,1126C 784.298,1131.09 787.465,1136.59 790,1142.5C 792.925,1149.05 797.758,1151.38 804.5,1149.5C 806.911,1147.68 807.078,1145.68 805,1143.5C 800.289,1139.12 795.289,1135.12 790,1131.5C 786.591,1125.61 784.591,1119.27 784,1112.5C 777.534,1106.79 770.034,1104.29 761.5,1105C 756.785,1107.02 752.451,1109.52 748.5,1112.5C 748.334,1108.49 748.501,1104.49 749,1100.5C 753.243,1094.26 759.076,1090.43 766.5,1089C 770.807,1083.54 776.474,1080.71 783.5,1080.5C 786.165,1083.33 788.665,1086.33 791,1089.5C 792.461,1094.21 794.295,1098.71 796.5,1103C 797.5,1103.67 798.5,1103.67 799.5,1103C 802.517,1099.91 805.517,1096.91 808.5,1094C 811.634,1093.21 814.634,1093.54 817.5,1095C 820.567,1098.3 822.733,1102.13 824,1106.5C 824.129,1112.91 824.796,1119.25 826,1125.5C 829.472,1128.42 832.472,1128.08 835,1124.5C 835.667,1116.5 835.667,1108.5 835,1100.5C 832.571,1095.97 829.904,1091.63 827,1087.5C 825.809,1082.23 825.309,1076.9 825.5,1071.5C 829.549,1071.22 833.049,1069.55 836,1066.5C 837.464,1062.44 839.297,1058.61 841.5,1055C 843.167,1054.33 844.833,1054.33 846.5,1055C 852.968,1061.13 859.134,1060.63 865,1053.5C 866.53,1047.95 870.03,1045.78 875.5,1047C 879.733,1048.37 883.899,1049.87 888,1051.5C 890.886,1050.45 893.386,1048.79 895.5,1046.5 Z"/></g>
<g><path style="opacity:1" fill="#eace3a" d="M 1263.5,1125.5 C 1262.13,1125.66 1260.79,1125.49 1259.5,1125C 1253.91,1118.48 1254.58,1112.48 1261.5,1107C 1267.42,1104.12 1272.92,1100.62 1278,1096.5C 1278.5,1091 1279,1085.5 1279.5,1080C 1278.81,1074.19 1278.47,1068.35 1278.5,1062.5C 1283.72,1061.61 1287.05,1058.61 1288.5,1053.5C 1290.34,1052.25 1292.17,1052.25 1294,1053.5C 1296.36,1063.01 1297.03,1072.68 1296,1082.5C 1294.27,1087.33 1293.27,1092.33 1293,1097.5C 1289.95,1103.78 1286.78,1109.94 1283.5,1116C 1279.53,1116.85 1275.53,1117.52 1271.5,1118C 1268.31,1120.03 1265.64,1122.53 1263.5,1125.5 Z"/></g>
<g><path style="opacity:1" fill="#1b3224" d="M 825.5,1071.5 C 825.309,1076.9 825.809,1082.23 827,1087.5C 829.904,1091.63 832.571,1095.97 835,1100.5C 835.667,1108.5 835.667,1116.5 835,1124.5C 832.472,1128.08 829.472,1128.42 826,1125.5C 824.796,1119.25 824.129,1112.91 824,1106.5C 822.733,1102.13 820.567,1098.3 817.5,1095C 814.634,1093.54 811.634,1093.21 808.5,1094C 805.517,1096.91 802.517,1099.91 799.5,1103C 798.5,1103.67 797.5,1103.67 796.5,1103C 794.295,1098.71 792.461,1094.21 791,1089.5C 788.665,1086.33 786.165,1083.33 783.5,1080.5C 785.265,1077.97 787.265,1075.64 789.5,1073.5C 794.312,1077.14 798.979,1080.98 803.5,1085C 812.873,1086.39 819.039,1082.56 822,1073.5C 822.816,1072.18 823.983,1071.51 825.5,1071.5 Z"/></g>
<g><path style="opacity:1" fill="#489bb4" d="M 1361.5,1141.5 C 1358.85,1148.61 1353.85,1150.95 1346.5,1148.5C 1346.06,1144.37 1344.73,1140.54 1342.5,1137C 1335.13,1139.13 1328.79,1137.46 1323.5,1132C 1321.17,1131.33 1318.83,1131.33 1316.5,1132C 1310.76,1135.37 1304.76,1137.87 1298.5,1139.5C 1296.47,1139.34 1294.47,1139.5 1292.5,1140C 1290.48,1143.01 1288.15,1145.68 1285.5,1148C 1282.83,1148.67 1280.17,1148.67 1277.5,1148C 1273.87,1145.79 1272.71,1142.63 1274,1138.5C 1277.55,1135.28 1281.39,1132.45 1285.5,1130C 1286.97,1128.23 1288.3,1126.39 1289.5,1124.5C 1290.96,1123.54 1292.29,1122.38 1293.5,1121C 1297.43,1120.92 1301.1,1119.92 1304.5,1118C 1305.83,1115.33 1307.83,1113.33 1310.5,1112C 1319.52,1112.29 1328.52,1112.29 1337.5,1112C 1338.83,1112.67 1340.17,1113.33 1341.5,1114C 1346.99,1120.45 1352.82,1126.62 1359,1132.5C 1360.91,1135.21 1361.74,1138.21 1361.5,1141.5 Z"/></g>
<g><path style="opacity:1" fill="#1c3324" d="M 1346.5,1148.5 C 1345.67,1151.13 1344.84,1153.8 1344,1156.5C 1342.87,1158.14 1341.37,1159.14 1339.5,1159.5C 1337.19,1157.36 1334.69,1155.36 1332,1153.5C 1331.2,1150.78 1330.04,1148.28 1328.5,1146C 1324.56,1144.85 1320.56,1144.02 1316.5,1143.5C 1311.98,1144.67 1307.48,1146.01 1303,1147.5C 1299.93,1145.83 1298.43,1143.16 1298.5,1139.5C 1304.76,1137.87 1310.76,1135.37 1316.5,1132C 1318.83,1131.33 1321.17,1131.33 1323.5,1132C 1328.79,1137.46 1335.13,1139.13 1342.5,1137C 1344.73,1140.54 1346.06,1144.37 1346.5,1148.5 Z"/></g>
<g><path style="opacity:1" fill="#ebcf3a" d="M 1361.5,1141.5 C 1363.92,1151.41 1363.76,1161.41 1361,1171.5C 1359.2,1173.32 1357.03,1174.48 1354.5,1175C 1351.44,1175.26 1348.44,1175.76 1345.5,1176.5C 1339.85,1186.98 1332.85,1196.48 1324.5,1205C 1323.55,1205.48 1322.55,1205.65 1321.5,1205.5C 1319.84,1204.42 1318.01,1203.76 1316,1203.5C 1309.49,1205.97 1304.66,1204.14 1301.5,1198C 1297.61,1197.76 1293.78,1198.26 1290,1199.5C 1285.7,1198.43 1281.53,1197.1 1277.5,1195.5C 1275.98,1191.48 1276.32,1187.65 1278.5,1184C 1281.01,1182.58 1283.34,1180.91 1285.5,1179C 1289.15,1178.5 1292.82,1178.33 1296.5,1178.5C 1296.38,1168.8 1301.05,1165.3 1310.5,1168C 1311.67,1168.5 1312.5,1169.33 1313,1170.5C 1311.04,1178.99 1314.21,1183.49 1322.5,1184C 1322.61,1171.93 1328.28,1163.76 1339.5,1159.5C 1341.37,1159.14 1342.87,1158.14 1344,1156.5C 1344.84,1153.8 1345.67,1151.13 1346.5,1148.5C 1353.85,1150.95 1358.85,1148.61 1361.5,1141.5 Z"/></g>
<g><path style="opacity:1" fill="#1a8848" d="M 901.5,1280.5 C 902.293,1274.19 899.626,1271.36 893.5,1272C 888.667,1276.83 883.833,1281.67 879,1286.5C 877.428,1291.45 875.595,1296.28 873.5,1301C 871.725,1302.44 869.725,1303.44 867.5,1304C 863.381,1304.14 859.381,1304.81 855.5,1306C 853.354,1308.74 851.687,1311.74 850.5,1315C 845.942,1315.95 841.942,1317.95 838.5,1321C 836.888,1321.72 835.388,1321.55 834,1320.5C 832.847,1317.29 832.18,1313.96 832,1310.5C 830.23,1308.58 828.063,1308.08 825.5,1309C 823.129,1311.71 820.463,1314.04 817.5,1316C 809.94,1316.11 804.274,1319.27 800.5,1325.5C 800.283,1318.15 800.117,1310.81 800,1303.5C 803.555,1296.95 808.721,1292.11 815.5,1289C 812.905,1288.77 810.405,1288.27 808,1287.5C 806.068,1282.81 806.068,1278.14 808,1273.5C 812.244,1268.59 817.077,1264.42 822.5,1261C 827.534,1256.3 832.2,1251.3 836.5,1246C 844.008,1244.86 846.508,1248.03 844,1255.5C 843,1257.5 842,1259.5 841,1261.5C 835.688,1267.14 830.021,1272.48 824,1277.5C 822.538,1283.05 824.705,1286.22 830.5,1287C 831.211,1288.25 832.044,1289.42 833,1290.5C 833.859,1297.37 835.525,1304.04 838,1310.5C 839.133,1312.21 840.633,1312.71 842.5,1312C 846.697,1307.77 847.197,1303.27 844,1298.5C 843.116,1291.42 843.449,1284.42 845,1277.5C 847.295,1275.06 850.128,1273.56 853.5,1273C 857.199,1269.63 858.865,1265.63 858.5,1261C 850.558,1259.94 848.392,1255.77 852,1248.5C 855,1240.83 858.667,1240.5 863,1247.5C 863.494,1249.13 863.66,1250.8 863.5,1252.5C 870.974,1251.1 877.307,1247.6 882.5,1242C 878.094,1241.09 873.761,1239.93 869.5,1238.5C 869,1237.5 868.5,1236.5 868,1235.5C 867.667,1229.83 867.333,1224.17 867,1218.5C 864.657,1217.87 862.49,1216.87 860.5,1215.5C 858.881,1209.98 858.048,1204.31 858,1198.5C 857.333,1197.17 856.667,1195.83 856,1194.5C 852.681,1191.33 849.347,1188.33 846,1185.5C 840.523,1166.63 847.69,1158.46 867.5,1161C 870.62,1161.71 872.62,1163.54 873.5,1166.5C 870.864,1170.58 869.531,1175.08 869.5,1180C 870.153,1186.6 871.319,1193.1 873,1199.5C 873.883,1202.1 875.383,1204.27 877.5,1206C 883.379,1209.44 889.379,1212.61 895.5,1215.5C 897.266,1215.57 898.266,1214.73 898.5,1213C 894.38,1207.1 888.714,1203.43 881.5,1202C 878.533,1199.9 876.7,1197.07 876,1193.5C 872.734,1180.87 876.901,1171.7 888.5,1166C 892.167,1165.33 895.833,1165.33 899.5,1166C 903.327,1167.75 906.993,1169.75 910.5,1172C 925.356,1189.19 941.189,1205.35 958,1220.5C 960.126,1225.33 961.793,1230.33 963,1235.5C 965.25,1239.67 967.75,1243.67 970.5,1247.5C 970.291,1248.09 969.957,1248.59 969.5,1249C 966.5,1249.33 963.5,1249.67 960.5,1250C 950.552,1258.62 944.052,1256.45 941,1243.5C 938.398,1239.79 934.898,1238.62 930.5,1240C 925.481,1242.84 920.814,1246.18 916.5,1250C 911.478,1251 906.645,1252.5 902,1254.5C 902.648,1259.32 903.482,1264.16 904.5,1269C 904.461,1273.2 903.461,1277.03 901.5,1280.5 Z"/></g>
<g><path style="opacity:1" fill="#489ab3" d="M 754.5,1188.5 C 750.486,1188.33 746.486,1188.5 742.5,1189C 741.833,1190.33 741.167,1191.67 740.5,1193C 733.781,1195.21 727.114,1197.54 720.5,1200C 719.299,1200.9 718.465,1202.07 718,1203.5C 717.667,1207.17 717.333,1210.83 717,1214.5C 716.215,1216.29 715.049,1217.79 713.5,1219C 708.01,1220.5 703.343,1219.34 699.5,1215.5C 699.149,1207.2 702.315,1200.53 709,1195.5C 711.039,1184.8 717.206,1177.97 727.5,1175C 728.833,1173.33 730.167,1171.67 731.5,1170C 739.885,1169.3 747.885,1167.46 755.5,1164.5C 768.226,1165.38 774.393,1172.05 774,1184.5C 769.557,1187.04 765.057,1187.04 760.5,1184.5C 758.235,1185.43 756.235,1186.76 754.5,1188.5 Z"/></g>
<g><path style="opacity:1" fill="#1b8848" d="M 754.5,1188.5 C 754.414,1189.5 754.748,1190.33 755.5,1191C 761.581,1191.14 767.581,1191.8 773.5,1193C 774.333,1193.83 775.167,1194.67 776,1195.5C 776.333,1198.17 776.667,1200.83 777,1203.5C 778.299,1204.98 779.966,1205.65 782,1205.5C 786.332,1204.2 790.499,1202.37 794.5,1200C 803.764,1199.91 812.43,1197.58 820.5,1193C 829.19,1192.49 837.856,1192.82 846.5,1194C 850.126,1196.25 851.293,1199.42 850,1203.5C 845.287,1212.53 837.787,1217.03 827.5,1217C 823.104,1220.81 823.771,1223.14 829.5,1224C 831.049,1225.21 832.215,1226.71 833,1228.5C 834.642,1236.93 832.975,1244.59 828,1251.5C 820.333,1258.17 812.667,1264.83 805,1271.5C 802.517,1275.48 800.35,1279.48 798.5,1283.5C 795.725,1276.53 790.725,1273.69 783.5,1275C 780.28,1276.78 776.947,1278.28 773.5,1279.5C 771.077,1279.3 769.411,1278.13 768.5,1276C 773.728,1267.64 772.395,1260.81 764.5,1255.5C 764.744,1252.74 766.077,1250.57 768.5,1249C 773.267,1246.64 778.1,1244.47 783,1242.5C 783.561,1239.7 782.394,1237.87 779.5,1237C 767.938,1236.77 760.938,1242.27 758.5,1253.5C 754.869,1253.16 751.536,1253.99 748.5,1256C 745.833,1256.67 743.167,1256.67 740.5,1256C 737.951,1253.6 735.617,1250.94 733.5,1248C 729.898,1246.92 726.231,1246.09 722.5,1245.5C 720.146,1243.75 719.146,1241.42 719.5,1238.5C 726.53,1237.57 733.53,1236.4 740.5,1235C 743.76,1229.86 742.427,1226.2 736.5,1224C 726.321,1222.37 720.655,1226.54 719.5,1236.5C 720.725,1228.72 717.392,1224.39 709.5,1223.5C 707.088,1223.41 705.255,1224.41 704,1226.5C 703.501,1230.49 703.334,1234.49 703.5,1238.5C 701.837,1236.51 700.67,1234.17 700,1231.5C 699.501,1226.18 699.334,1220.84 699.5,1215.5C 703.343,1219.34 708.01,1220.5 713.5,1219C 715.049,1217.79 716.215,1216.29 717,1214.5C 717.333,1210.83 717.667,1207.17 718,1203.5C 718.465,1202.07 719.299,1200.9 720.5,1200C 727.114,1197.54 733.781,1195.21 740.5,1193C 741.167,1191.67 741.833,1190.33 742.5,1189C 746.486,1188.5 750.486,1188.33 754.5,1188.5 Z"/></g>
<g><path style="opacity:1" fill="#1c8848" d="M 1256.5,1288.5 C 1246.16,1286.59 1240.99,1290.93 1241,1301.5C 1240.17,1302.33 1239.33,1303.17 1238.5,1304C 1230.65,1303.41 1225.99,1306.91 1224.5,1314.5C 1222.39,1317.04 1220.22,1317.04 1218,1314.5C 1216.09,1306.59 1211.09,1302.26 1203,1301.5C 1202.51,1298.02 1201.34,1294.85 1199.5,1292C 1196.71,1291.76 1194.04,1291.09 1191.5,1290C 1189.71,1287.72 1187.71,1285.72 1185.5,1284C 1181.86,1284.28 1178.19,1284.28 1174.5,1284C 1171.2,1280.19 1169.7,1275.69 1170,1270.5C 1169.53,1269.07 1168.7,1267.9 1167.5,1267C 1163.97,1265.53 1160.3,1264.53 1156.5,1264C 1154.96,1262.07 1153.79,1259.9 1153,1257.5C 1150.03,1255.97 1146.87,1254.8 1143.5,1254C 1140.92,1250.84 1138.59,1247.51 1136.5,1244C 1133.96,1242.91 1131.29,1242.24 1128.5,1242C 1126.42,1241.3 1124.75,1240.14 1123.5,1238.5C 1124.54,1233.94 1127.04,1230.27 1131,1227.5C 1131.7,1225.72 1132.2,1223.89 1132.5,1222C 1130.87,1216.12 1129.04,1210.29 1127,1204.5C 1124.93,1197.42 1127.43,1194.25 1134.5,1195C 1138.83,1198.67 1143.17,1202.33 1147.5,1206C 1152.13,1208.74 1157.13,1210.41 1162.5,1211C 1163.93,1211.47 1165.1,1212.3 1166,1213.5C 1169.12,1222.48 1167.12,1230.15 1160,1236.5C 1159.04,1243.29 1160.37,1249.62 1164,1255.5C 1167.75,1258.27 1171.75,1260.6 1176,1262.5C 1177.65,1265.97 1179.15,1269.47 1180.5,1273C 1185.75,1274.1 1189.41,1272.26 1191.5,1267.5C 1188.43,1261.03 1184.6,1255.03 1180,1249.5C 1176.33,1248.5 1174,1246.17 1173,1242.5C 1170.94,1230.78 1175.11,1222.28 1185.5,1217C 1190.12,1215.7 1193.95,1216.87 1197,1220.5C 1198.88,1227.46 1201.54,1234.12 1205,1240.5C 1205.48,1247.57 1203.98,1254.24 1200.5,1260.5C 1200.83,1261.17 1201.17,1261.83 1201.5,1262.5C 1204.3,1260.86 1206.97,1259.03 1209.5,1257C 1217.49,1255.93 1222.33,1259.43 1224,1267.5C 1226.62,1270.89 1230.12,1272.39 1234.5,1272C 1237.13,1273.63 1239.46,1275.63 1241.5,1278C 1248.29,1279.05 1253.29,1282.55 1256.5,1288.5 Z"/></g>
<g><path style="opacity:1" fill="#eccf39" d="M 1076.5,1206.5 C 1078.39,1209.93 1078.89,1213.6 1078,1217.5C 1077.17,1219.67 1075.67,1221.17 1073.5,1222C 1067.52,1223.07 1061.52,1224.07 1055.5,1225C 1052.45,1227.03 1049.11,1228.2 1045.5,1228.5C 1040.43,1227.65 1035.43,1226.65 1030.5,1225.5C 1029.06,1224.01 1028.39,1222.18 1028.5,1220C 1028.09,1217.42 1029.09,1215.76 1031.5,1215C 1037.83,1214.67 1044.17,1214.33 1050.5,1214C 1052.17,1213 1053.83,1212 1055.5,1211C 1061.37,1211.6 1066.37,1209.93 1070.5,1206C 1072.6,1205.32 1074.6,1205.49 1076.5,1206.5 Z"/></g>
<g><path style="opacity:1" fill="#1a8648" d="M 847.5,1215.5 C 849.591,1215.32 851.591,1215.65 853.5,1216.5C 858.467,1220.42 860.634,1225.42 860,1231.5C 856.608,1236.04 852.275,1237.71 847,1236.5C 846.667,1234.17 846.333,1231.83 846,1229.5C 842.131,1226.98 841.464,1223.65 844,1219.5C 845.032,1217.97 846.199,1216.64 847.5,1215.5 Z"/></g>
<g><path style="opacity:1" fill="#eace39" d="M 1014.5,1224.5 C 1019.8,1227.86 1019.8,1231.36 1014.5,1235C 1011.7,1236.55 1008.7,1237.38 1005.5,1237.5C 1001.17,1236.96 996.838,1236.46 992.5,1236C 987.541,1231.92 984.207,1226.76 982.5,1220.5C 982.859,1218.63 983.859,1217.13 985.5,1216C 991.694,1214.24 996.694,1215.9 1000.5,1221C 1005.43,1221.26 1010.09,1222.42 1014.5,1224.5 Z"/></g>
<g><path style="opacity:1" fill="#489bb3" d="M 1308.5,1217.5 C 1313.8,1221.43 1316.46,1226.76 1316.5,1233.5C 1314.31,1234.62 1311.98,1234.62 1309.5,1233.5C 1306.97,1232.95 1304.64,1231.95 1302.5,1230.5C 1301.39,1231.61 1300.06,1232.28 1298.5,1232.5C 1294.19,1231.86 1289.86,1231.69 1285.5,1232C 1282.78,1228.12 1283.45,1224.79 1287.5,1222C 1293.84,1217.87 1300.84,1216.37 1308.5,1217.5 Z"/></g>
<g><path style="opacity:1" fill="#eccf39" d="M 1091.5,1221.5 C 1097.53,1220.68 1102.2,1222.85 1105.5,1228C 1110.23,1229.74 1114.9,1231.58 1119.5,1233.5C 1120.12,1235.75 1121.46,1237.42 1123.5,1238.5C 1124.75,1240.14 1126.42,1241.3 1128.5,1242C 1131.29,1242.24 1133.96,1242.91 1136.5,1244C 1138.59,1247.51 1140.92,1250.84 1143.5,1254C 1146.87,1254.8 1150.03,1255.97 1153,1257.5C 1153.79,1259.9 1154.96,1262.07 1156.5,1264C 1160.3,1264.53 1163.97,1265.53 1167.5,1267C 1168.7,1267.9 1169.53,1269.07 1170,1270.5C 1169.7,1275.69 1171.2,1280.19 1174.5,1284C 1178.19,1284.28 1181.86,1284.28 1185.5,1284C 1187.71,1285.72 1189.71,1287.72 1191.5,1290C 1194.04,1291.09 1196.71,1291.76 1199.5,1292C 1201.34,1294.85 1202.51,1298.02 1203,1301.5C 1211.09,1302.26 1216.09,1306.59 1218,1314.5C 1220.22,1317.04 1222.39,1317.04 1224.5,1314.5C 1225.99,1306.91 1230.65,1303.41 1238.5,1304C 1239.33,1303.17 1240.17,1302.33 1241,1301.5C 1240.99,1290.93 1246.16,1286.59 1256.5,1288.5C 1257.64,1291.3 1257.8,1294.3 1257,1297.5C 1252.82,1304.23 1250.48,1311.56 1250,1319.5C 1248.79,1321.05 1247.29,1322.22 1245.5,1323C 1240.48,1323.22 1235.48,1323.22 1230.5,1323C 1229.17,1325.67 1227.83,1328.33 1226.5,1331C 1219.16,1336.14 1212.32,1335.64 1206,1329.5C 1204.14,1326.06 1202.81,1322.4 1202,1318.5C 1198.42,1315.63 1194.59,1313.13 1190.5,1311C 1188.6,1309.18 1186.93,1307.18 1185.5,1305C 1183.5,1304.33 1181.5,1304.33 1179.5,1305C 1173.03,1309.03 1166.03,1310.7 1158.5,1310C 1156.4,1307.96 1155.23,1305.46 1155,1302.5C 1154.92,1296.06 1154.25,1289.72 1153,1283.5C 1150.69,1281.18 1147.86,1279.85 1144.5,1279.5C 1143.77,1276.89 1143.27,1274.22 1143,1271.5C 1140.14,1270.83 1137.31,1269.99 1134.5,1269C 1130.99,1264.81 1127.66,1260.48 1124.5,1256C 1121.58,1255.01 1118.58,1254.35 1115.5,1254C 1112.56,1250.1 1108.56,1248.44 1103.5,1249C 1102.07,1248.53 1100.9,1247.7 1100,1246.5C 1099.73,1243.78 1099.23,1241.11 1098.5,1238.5C 1095.49,1236.55 1092.32,1234.88 1089,1233.5C 1087.89,1229.02 1088.72,1225.02 1091.5,1221.5 Z"/></g>
<g><path style="opacity:1" fill="#ebce39" d="M 719.5,1236.5 C 719.5,1237.17 719.5,1237.83 719.5,1238.5C 719.146,1241.42 720.146,1243.75 722.5,1245.5C 726.231,1246.09 729.898,1246.92 733.5,1248C 735.617,1250.94 737.951,1253.6 740.5,1256C 743.167,1256.67 745.833,1256.67 748.5,1256C 751.536,1253.99 754.869,1253.16 758.5,1253.5C 760.579,1253.97 762.579,1254.64 764.5,1255.5C 772.395,1260.81 773.728,1267.64 768.5,1276C 769.411,1278.13 771.077,1279.3 773.5,1279.5C 776.947,1278.28 780.28,1276.78 783.5,1275C 790.725,1273.69 795.725,1276.53 798.5,1283.5C 798.531,1287.6 796.531,1290.1 792.5,1291C 784.898,1292.52 777.232,1292.86 769.5,1292C 761.751,1288.51 758.418,1282.51 759.5,1274C 757.298,1272.98 754.965,1272.48 752.5,1272.5C 747.558,1273.76 742.558,1274.26 737.5,1274C 734.162,1269.83 729.828,1267.5 724.5,1267C 722.383,1265.27 720.883,1263.1 720,1260.5C 720.578,1250.91 716.078,1245.91 706.5,1245.5C 704.146,1243.75 703.146,1241.42 703.5,1238.5C 703.334,1234.49 703.501,1230.49 704,1226.5C 705.255,1224.41 707.088,1223.41 709.5,1223.5C 717.392,1224.39 720.725,1228.72 719.5,1236.5 Z"/></g>
<g><path style="opacity:1" fill="#1b3223" d="M 719.5,1238.5 C 719.5,1237.83 719.5,1237.17 719.5,1236.5C 720.655,1226.54 726.321,1222.37 736.5,1224C 742.427,1226.2 743.76,1229.86 740.5,1235C 733.53,1236.4 726.53,1237.57 719.5,1238.5 Z"/></g>
<g><path style="opacity:1" fill="#1b3424" d="M 803.5,1224.5 C 805.857,1224.34 808.19,1224.5 810.5,1225C 811.428,1225.39 812.095,1226.05 812.5,1227C 810.874,1228.82 808.874,1230.15 806.5,1231C 804.409,1235.94 800.742,1238.11 795.5,1237.5C 795.377,1231.41 798.043,1227.07 803.5,1224.5 Z"/></g>
<g><path style="opacity:1" fill="#1b3324" d="M 1271.5,1232.5 C 1278.77,1231.62 1282.27,1234.62 1282,1241.5C 1277.81,1246.87 1272.64,1250.87 1266.5,1253.5C 1259.12,1250.24 1256.12,1244.74 1257.5,1237C 1261.32,1236.42 1264.99,1236.92 1268.5,1238.5C 1268.62,1236.05 1269.62,1234.05 1271.5,1232.5 Z"/></g>
<g><path style="opacity:1" fill="#eace3a" d="M 1309.5,1233.5 C 1311.98,1234.62 1314.31,1234.62 1316.5,1233.5C 1317.97,1234.35 1318.8,1235.68 1319,1237.5C 1321.6,1252.37 1317.43,1264.87 1306.5,1275C 1301.83,1277.33 1297.17,1279.67 1292.5,1282C 1283.13,1283.39 1276.96,1279.56 1274,1270.5C 1272.24,1269.06 1270.24,1268.06 1268,1267.5C 1267.21,1266.26 1266.71,1264.92 1266.5,1263.5C 1265.91,1256.25 1269.08,1253.58 1276,1255.5C 1277.23,1258.73 1279.23,1261.4 1282,1263.5C 1282.37,1262.58 1282.87,1261.75 1283.5,1261C 1286.62,1260.79 1289.62,1260.13 1292.5,1259C 1293.17,1257.33 1293.83,1255.67 1294.5,1254C 1297.33,1253.95 1299.83,1253.12 1302,1251.5C 1303.26,1247.98 1305.26,1244.98 1308,1242.5C 1308.7,1239.52 1309.2,1236.52 1309.5,1233.5 Z"/></g>
<g><path style="opacity:1" fill="#1b3424" d="M 764.5,1255.5 C 762.579,1254.64 760.579,1253.97 758.5,1253.5C 760.938,1242.27 767.938,1236.77 779.5,1237C 782.394,1237.87 783.561,1239.7 783,1242.5C 778.1,1244.47 773.267,1246.64 768.5,1249C 766.077,1250.57 764.744,1252.74 764.5,1255.5 Z"/></g>
<g><path style="opacity:1" fill="#fafafa" d="M 1071.5,1242.5 C 1074.65,1241.96 1077.15,1242.96 1079,1245.5C 1079.67,1248.83 1079.67,1252.17 1079,1255.5C 1071.83,1264 1064,1271.83 1055.5,1279C 1048.59,1280.95 1045.26,1278.12 1045.5,1270.5C 1046.37,1262.12 1050.37,1255.62 1057.5,1251C 1062.06,1247.89 1066.73,1245.06 1071.5,1242.5 Z"/></g>
<g><path style="opacity:1" fill="#fbfbfb" d="M 930.5,1242.5 C 936.442,1243.61 939.942,1247.28 941,1253.5C 944.699,1258.27 949.533,1259.77 955.5,1258C 957.719,1256.24 959.719,1254.24 961.5,1252C 964.146,1251.5 966.813,1251.34 969.5,1251.5C 970.161,1261.68 969.328,1271.68 967,1281.5C 964.106,1287.8 959.273,1290.3 952.5,1289C 943.048,1284.21 935.548,1277.38 930,1268.5C 926.527,1259.68 926.694,1251.01 930.5,1242.5 Z"/></g>
<g><path style="opacity:1" fill="#eccf3a" d="M 901.5,1280.5 C 898.877,1287.75 895.71,1294.75 892,1301.5C 891.012,1304.42 890.346,1307.42 890,1310.5C 887.204,1312.89 884.037,1314.72 880.5,1316C 875.222,1322.97 868.222,1326.81 859.5,1327.5C 854.713,1331.11 850.046,1334.95 845.5,1339C 842.167,1339.67 838.833,1339.67 835.5,1339C 830.853,1335.96 826.186,1335.79 821.5,1338.5C 816.186,1337.82 810.852,1337.32 805.5,1337C 800.937,1334.58 799.271,1330.74 800.5,1325.5C 804.274,1319.27 809.94,1316.11 817.5,1316C 820.463,1314.04 823.129,1311.71 825.5,1309C 828.063,1308.08 830.23,1308.58 832,1310.5C 832.18,1313.96 832.847,1317.29 834,1320.5C 835.388,1321.55 836.888,1321.72 838.5,1321C 841.942,1317.95 845.942,1315.95 850.5,1315C 851.687,1311.74 853.354,1308.74 855.5,1306C 859.381,1304.81 863.381,1304.14 867.5,1304C 869.725,1303.44 871.725,1302.44 873.5,1301C 875.595,1296.28 877.428,1291.45 879,1286.5C 883.833,1281.67 888.667,1276.83 893.5,1272C 899.626,1271.36 902.293,1274.19 901.5,1280.5 Z"/></g>
<g><path style="opacity:1" fill="#e9cc39" d="M 767.5,1301.5 C 775.262,1301.83 782.929,1302.66 790.5,1304C 796.608,1312.56 795.274,1319.89 786.5,1326C 781.161,1328.66 777.161,1327.33 774.5,1322C 766.843,1321.67 763.509,1317.67 764.5,1310C 764.051,1306.56 765.051,1303.73 767.5,1301.5 Z"/></g>
<g><path style="opacity:1" fill="#4b9db6" d="M 602.5,1446.5 C 613.01,1460.5 626.344,1471 642.5,1478C 677.486,1486.42 705.319,1475.92 726,1446.5C 751.654,1482.04 784.154,1490.21 823.5,1471C 833.644,1464.69 841.977,1456.52 848.5,1446.5C 877.653,1484.85 912.653,1491.35 953.5,1466C 960.052,1459.95 966.052,1453.45 971.5,1446.5C 993.446,1478.3 1022.78,1488.14 1059.5,1476C 1073.75,1469.42 1085.25,1459.59 1094,1446.5C 1119.63,1482.03 1152.13,1490.2 1191.5,1471C 1201.64,1464.69 1209.98,1456.52 1216.5,1446.5C 1243.7,1483.22 1277.36,1490.72 1317.5,1469C 1325.68,1462.32 1333.02,1454.82 1339.5,1446.5C 1364.54,1480.93 1396.54,1489.43 1435.5,1472C 1445.96,1465.21 1454.79,1456.71 1462,1446.5C 1474.74,1465.24 1492.24,1476.74 1514.5,1481C 1529.48,1482.74 1543.48,1479.91 1556.5,1472.5C 1557.83,1480.83 1557.83,1489.17 1556.5,1497.5C 1518.04,1514.34 1486.54,1505.67 1462,1471.5C 1440.73,1501.92 1412.23,1512.09 1376.5,1502C 1361.28,1495.27 1348.94,1485.1 1339.5,1471.5C 1313.49,1506.67 1280.82,1514.84 1241.5,1496C 1232,1489.17 1223.83,1481 1217,1471.5C 1191.56,1505.76 1159.39,1514.26 1120.5,1497C 1110.04,1490.21 1101.21,1481.71 1094,1471.5C 1070.18,1504.49 1039.34,1513.66 1001.5,1499C 989.468,1492.47 979.468,1483.63 971.5,1472.5C 960.447,1487.37 946.113,1497.87 928.5,1504C 905.677,1509.77 885.011,1505.44 866.5,1491C 859.948,1484.95 853.948,1478.45 848.5,1471.5C 828.966,1499.76 802.3,1510.6 768.5,1504C 750.866,1497.7 736.699,1486.87 726,1471.5C 701.427,1505.18 669.927,1514.02 631.5,1498C 620.09,1491.26 610.59,1482.42 603,1471.5C 583.676,1499.91 557.176,1510.75 523.5,1504C 518.267,1502.38 513.267,1500.22 508.5,1497.5C 507.167,1489.17 507.167,1480.83 508.5,1472.5C 543.053,1488.71 572.887,1482.38 598,1453.5C 599.723,1451.28 601.223,1448.95 602.5,1446.5 Z"/></g>
<g><path style="opacity:1" fill="#4b9db6" d="M 602.5,1483.5 C 607.25,1488.43 611.917,1493.59 616.5,1499C 647.88,1524.65 679.547,1524.98 711.5,1500C 716.922,1494.97 721.755,1489.47 726,1483.5C 751,1517.83 782.833,1526.33 821.5,1509C 832.238,1502.31 841.238,1493.81 848.5,1483.5C 859.52,1498.68 873.853,1509.52 891.5,1516C 914.776,1521.46 935.776,1516.79 954.5,1502C 960.747,1496.26 966.414,1490.09 971.5,1483.5C 995.001,1516.61 1025.67,1525.78 1063.5,1511C 1075.86,1504.31 1086.03,1495.14 1094,1483.5C 1119.72,1518.72 1152.22,1526.89 1191.5,1508C 1201.64,1501.69 1209.98,1493.52 1216.5,1483.5C 1228.13,1500.29 1243.8,1511.46 1263.5,1517C 1285.39,1520.61 1305.06,1515.61 1322.5,1502C 1328.75,1496.26 1334.41,1490.09 1339.5,1483.5C 1350.2,1499.18 1364.54,1510.01 1382.5,1516C 1416.05,1522.37 1442.55,1511.54 1462,1483.5C 1476.79,1505.15 1497.29,1516.81 1523.5,1518.5C 1535.22,1518.15 1546.22,1515.15 1556.5,1509.5C 1557.83,1517.83 1557.83,1526.17 1556.5,1534.5C 1523.2,1550.19 1494.04,1544.52 1469,1517.5C 1466.67,1514.5 1464.33,1511.5 1462,1508.5C 1442.48,1536.34 1415.98,1547.17 1382.5,1541C 1364.46,1534.99 1350.12,1524.16 1339.5,1508.5C 1314.25,1542.87 1282.25,1551.37 1243.5,1534C 1233.06,1527.06 1224.06,1518.56 1216.5,1508.5C 1197.27,1536.44 1170.94,1547.28 1137.5,1541C 1119.3,1535.13 1104.8,1524.3 1094,1508.5C 1068.24,1543.72 1035.74,1551.88 996.5,1533C 986.356,1526.69 978.023,1518.52 971.5,1508.5C 946.195,1542.66 914.195,1551.16 875.5,1534C 865.062,1527.06 856.062,1518.56 848.5,1508.5C 824.089,1541.94 792.756,1550.77 754.5,1535C 743.09,1528.26 733.59,1519.42 726,1508.5C 700.249,1543.71 667.749,1551.87 628.5,1533C 618.377,1526.54 609.877,1518.38 603,1508.5C 583.536,1536.54 557.036,1547.38 523.5,1541C 518.294,1539.32 513.294,1537.15 508.5,1534.5C 507.167,1526.17 507.167,1517.83 508.5,1509.5C 542.907,1525.11 572.74,1518.78 598,1490.5C 599.723,1488.28 601.223,1485.95 602.5,1483.5 Z"/></g>
<g><path style="opacity:1" fill="#df262e" d="M 602.5,1544.5 C 614.001,1560.82 629.334,1571.99 648.5,1578C 681.392,1583.14 707.225,1571.97 726,1544.5C 751.049,1579.8 783.216,1588.3 822.5,1570C 832.957,1563.21 841.79,1554.71 849,1544.5C 873.183,1579.08 904.683,1587.91 943.5,1571C 954.583,1564.42 963.917,1555.92 971.5,1545.5C 997.643,1580.6 1030.31,1588.44 1069.5,1569C 1079,1562.17 1087.17,1554 1094,1544.5C 1115.48,1575.55 1144.31,1585.71 1180.5,1575C 1195.69,1568.48 1207.86,1558.31 1217,1544.5C 1238.94,1576.7 1268.44,1586.53 1305.5,1574C 1319.03,1567.08 1330.36,1557.58 1339.5,1545.5C 1364.52,1578.84 1396.18,1587.34 1434.5,1571C 1445.32,1563.85 1454.48,1555.02 1462,1544.5C 1483.42,1575.8 1512.26,1585.97 1548.5,1575C 1551.41,1573.63 1554.25,1572.13 1557,1570.5C 1557.67,1660.83 1557.67,1751.17 1557,1841.5C 1556.5,1864.01 1547,1881.51 1528.5,1894C 1376.25,1965.29 1222.59,2033.62 1067.5,2099C 1056.5,2103.33 1045.5,2107.67 1034.5,2112C 1033.17,2112.67 1031.83,2112.67 1030.5,2112C 900.234,2058.2 770.901,2002.2 642.5,1944C 606.925,1927.88 571.592,1911.21 536.5,1894C 518.003,1881.51 508.503,1864.01 508,1841.5C 507.333,1751.17 507.333,1660.83 508,1570.5C 539.95,1586.24 568.617,1581.58 594,1556.5C 597.467,1552.88 600.3,1548.88 602.5,1544.5 Z"/></g>
<g><path style="opacity:1" fill="#e8c738" d="M 1031.5,1586.5 C 1035.32,1585.83 1038.15,1587.16 1040,1590.5C 1043.61,1602.27 1046.28,1614.27 1048,1626.5C 1049.84,1634.16 1054.67,1638.16 1062.5,1638.5C 1117.48,1631.09 1160.98,1649.76 1193,1694.5C 1203.55,1711.47 1210.55,1729.81 1214,1749.5C 1216.93,1755.39 1221.76,1758.39 1228.5,1758.5C 1241.91,1755.81 1255.24,1755.97 1268.5,1759C 1274.73,1763.17 1275.06,1767.84 1269.5,1773C 1260.13,1778.24 1250.46,1782.9 1240.5,1787C 1233.2,1791.11 1230.36,1797.27 1232,1805.5C 1254.72,1853.39 1251.39,1899.39 1222,1943.5C 1209.11,1960.34 1193.27,1973.51 1174.5,1983C 1168.31,1988.29 1166.81,1994.79 1170,2002.5C 1174.06,2012.02 1177.73,2021.69 1181,2031.5C 1183.19,2043.74 1178.69,2046.91 1167.5,2041C 1158.9,2034.4 1150.9,2027.07 1143.5,2019C 1138.49,2015.37 1133.16,2014.71 1127.5,2017C 1088.26,2055.31 1042.26,2066.64 989.5,2051C 970.491,2043.84 953.825,2033.17 939.5,2019C 932.639,2014.19 925.972,2014.52 919.5,2020C 911.204,2027.81 902.538,2035.14 893.5,2042C 886.797,2044.82 882.797,2042.65 881.5,2035.5C 885.302,2023.26 889.802,2011.26 895,1999.5C 895.667,1995.83 895.667,1992.17 895,1988.5C 894.215,1986.71 893.049,1985.21 891.5,1984C 831.385,1950.26 808.218,1899.42 822,1831.5C 825.112,1821.94 828.779,1812.61 833,1803.5C 833.628,1796.92 831.128,1791.75 825.5,1788C 815.666,1782.25 805.999,1776.25 796.5,1770C 789.925,1764.87 789.925,1759.87 796.5,1755C 809.711,1755.31 822.878,1756.48 836,1758.5C 843.357,1758.61 848.357,1755.28 851,1748.5C 860.334,1695.18 890.5,1659.68 941.5,1642C 961.248,1636.38 981.248,1635.21 1001.5,1638.5C 1007.61,1638.53 1012.11,1635.86 1015,1630.5C 1018.51,1618.8 1022.18,1607.14 1026,1595.5C 1026.87,1591.82 1028.71,1588.82 1031.5,1586.5 Z"/></g>
<g><path style="opacity:1" fill="#050301" d="M 1032.5,1591.5 C 1035.71,1592.53 1037.55,1594.86 1038,1598.5C 1040.29,1607.71 1041.96,1617.05 1043,1626.5C 1045.6,1637.11 1052.26,1642.44 1063,1642.5C 1111.97,1636.5 1152.31,1652.17 1184,1689.5C 1197.53,1708.42 1206.2,1729.42 1210,1752.5C 1213.68,1759.59 1219.51,1762.92 1227.5,1762.5C 1240.54,1761.04 1253.54,1761.21 1266.5,1763C 1267.57,1763.74 1268.24,1764.74 1268.5,1766C 1267.18,1768.65 1265.18,1770.65 1262.5,1772C 1252.54,1776.1 1242.87,1780.76 1233.5,1786C 1227.48,1791.21 1225.31,1797.71 1227,1805.5C 1250.9,1853.85 1247.23,1899.85 1216,1943.5C 1203.48,1959.02 1188.31,1971.19 1170.5,1980C 1164.56,1984.81 1162.4,1990.98 1164,1998.5C 1168.89,2011.18 1173.39,2024.02 1177.5,2037C 1177.33,2038.5 1176.5,2039.33 1175,2039.5C 1170.98,2038.14 1167.48,2035.97 1164.5,2033C 1158.83,2027.33 1153.17,2021.67 1147.5,2016C 1139.87,2010.92 1131.87,2010.25 1123.5,2014C 1085.19,2051.08 1040.52,2061.74 989.5,2046C 981.221,2042.53 973.221,2038.53 965.5,2034C 955.549,2027.05 945.883,2019.72 936.5,2012C 931.382,2011.11 926.382,2011.45 921.5,2013C 911.208,2020.96 901.208,2029.29 891.5,2038C 890.167,2038.67 888.833,2038.67 887.5,2038C 886.409,2035.94 886.242,2033.77 887,2031.5C 891.057,2021.05 895.391,2010.72 900,2000.5C 902.447,1991.57 899.947,1984.4 892.5,1979C 835.888,1946.88 813.721,1898.71 826,1834.5C 828.873,1824.55 832.54,1814.88 837,1805.5C 839.144,1796.96 836.644,1790.12 829.5,1785C 818.238,1778.45 807.404,1771.29 797,1763.5C 796.333,1762.5 796.333,1761.5 797,1760.5C 799.578,1759.86 802.245,1759.53 805,1759.5C 814.529,1760.3 824.029,1761.3 833.5,1762.5C 845.233,1763.57 852.733,1758.57 856,1747.5C 868.366,1687.13 904.866,1651.96 965.5,1642C 977.343,1641.35 989.176,1641.51 1001,1642.5C 1010.22,1643.06 1016.56,1639.06 1020,1630.5C 1023.67,1617.32 1027.84,1604.32 1032.5,1591.5 Z"/></g>
<g><path style="opacity:1" fill="#e8cb3e" d="M 968.5,1652.5 C 994.621,1649.79 1012.12,1660.79 1021,1685.5C 1023.07,1691.05 1024.74,1696.71 1026,1702.5C 1028.55,1718.43 1030.55,1734.43 1032,1750.5C 1033.6,1735.13 1035.6,1719.79 1038,1704.5C 1040.68,1685.63 1049.18,1670.13 1063.5,1658C 1067.81,1655.34 1072.48,1653.67 1077.5,1653C 1137.06,1650.02 1175.89,1676.85 1194,1733.5C 1196.75,1745.86 1194.41,1757.19 1187,1767.5C 1178.29,1778.21 1167.79,1786.71 1155.5,1793C 1142.65,1799.26 1129.65,1805.26 1116.5,1811C 1131.04,1808.09 1145.71,1805.43 1160.5,1803C 1178.97,1799.98 1196.31,1802.98 1212.5,1812C 1222.69,1821.21 1228.52,1832.71 1230,1846.5C 1238.26,1898.48 1219.76,1937.64 1174.5,1964C 1165.5,1967.33 1156.5,1967.33 1147.5,1964C 1137.88,1960.53 1129.22,1955.53 1121.5,1949C 1108.6,1936.77 1096.44,1923.94 1085,1910.5C 1092.58,1924.99 1100.25,1939.66 1108,1954.5C 1116.1,1971.01 1117.43,1988.01 1112,2005.5C 1107.88,2013.28 1102.05,2019.45 1094.5,2024C 1050.79,2052.2 1007.79,2051.2 965.5,2021C 950.777,2008.83 945.61,1993.33 950,1974.5C 951.26,1968.72 952.927,1963.05 955,1957.5C 962.909,1941.01 971.242,1925.01 980,1909.5C 967.06,1925.23 952.893,1939.73 937.5,1953C 926.364,1961.27 913.864,1965.77 900,1966.5C 894.101,1965.87 888.601,1964.03 883.5,1961C 836.447,1928.33 821.613,1884.5 839,1829.5C 844.599,1815.57 854.766,1807.07 869.5,1804C 882.493,1802.05 895.493,1802.05 908.5,1804C 920.781,1806.66 933.114,1808.66 945.5,1810C 931.257,1803.88 917.257,1797.21 903.5,1790C 892.743,1783.57 883.576,1775.41 876,1765.5C 868.062,1751.61 867.396,1737.27 874,1722.5C 891.248,1679.73 922.748,1656.4 968.5,1652.5 Z"/></g>
<g><path style="opacity:1" fill="#fefefe" d="M 964.5,1657.5 C 985.22,1653.12 1001.05,1659.79 1012,1677.5C 1016.19,1685.4 1019.19,1693.74 1021,1702.5C 1024.92,1727.05 1027.92,1751.72 1030,1776.5C 1031.33,1777.83 1032.67,1777.83 1034,1776.5C 1036.35,1749.31 1040.02,1722.31 1045,1695.5C 1048.28,1683.24 1054.45,1672.74 1063.5,1664C 1066.94,1660.95 1070.94,1658.95 1075.5,1658C 1134.35,1654.32 1172.52,1680.49 1190,1736.5C 1191.85,1748.27 1188.85,1758.61 1181,1767.5C 1168.31,1780.44 1153.48,1790.27 1136.5,1797C 1121.42,1803.47 1106.42,1810.14 1091.5,1817C 1089.88,1819.8 1090.72,1821.3 1094,1821.5C 1120.94,1814.45 1148.27,1809.45 1176,1806.5C 1190.84,1806.29 1203.84,1810.95 1215,1820.5C 1221.92,1831.84 1225.92,1844.17 1227,1857.5C 1230.07,1904.53 1210.91,1939.03 1169.5,1961C 1154.62,1962.26 1141.29,1958.26 1129.5,1949C 1126.17,1946.33 1122.83,1943.67 1119.5,1941C 1103.17,1923.33 1086.83,1905.67 1070.5,1888C 1068.53,1887.46 1067.53,1888.3 1067.5,1890.5C 1075.48,1905.79 1083.98,1920.79 1093,1935.5C 1100.9,1948.63 1106.57,1962.63 1110,1977.5C 1113.49,1995.05 1107.99,2008.89 1093.5,2019C 1047.17,2048.72 1003,2045.89 961,2010.5C 954.559,2001.16 952.226,1990.83 954,1979.5C 956.41,1966.01 961.077,1953.34 968,1941.5C 977.333,1925.5 986.667,1909.5 996,1893.5C 996.495,1891.53 996.662,1889.53 996.5,1887.5C 993.041,1888.44 990.207,1890.44 988,1893.5C 973.57,1910.6 958.403,1927.1 942.5,1943C 932.436,1952.05 920.769,1958.05 907.5,1961C 897.804,1962.55 889.137,1960.21 881.5,1954C 839.178,1921.69 826.678,1880.19 844,1829.5C 849.165,1818.68 857.665,1811.85 869.5,1809C 875.364,1807.19 881.364,1806.36 887.5,1806.5C 897.59,1806.9 907.59,1808.07 917.5,1810C 936.158,1813.97 954.824,1817.81 973.5,1821.5C 973.785,1819.71 973.452,1818.05 972.5,1816.5C 951.262,1807.55 930.262,1798.05 909.5,1788C 896.202,1781.6 885.702,1772.1 878,1759.5C 872.52,1749.07 872.187,1738.4 877,1727.5C 892.214,1686.43 921.38,1663.09 964.5,1657.5 Z"/></g>
<g><path style="opacity:1" fill="#e8cc40" d="M 1024.5,1792.5 C 1052.65,1791.5 1070.49,1804.5 1078,1831.5C 1079.81,1858.72 1067.64,1876.22 1041.5,1884C 1013.7,1886.86 995.535,1875.02 987,1848.5C 983.84,1819.19 996.34,1800.52 1024.5,1792.5 Z"/></g>
<g><path style="opacity:1" fill="#0b0802" d="M 1023.5,1797.5 C 1048.75,1795.61 1065.25,1806.61 1073,1830.5C 1074.5,1862.33 1059.33,1878.83 1027.5,1880C 998.338,1872.5 986.838,1854 993,1824.5C 999.004,1810.66 1009.17,1801.66 1023.5,1797.5 Z"/></g>
<g><path style="opacity:1" fill="#e8cb3e" d="M 1022.5,1805.5 C 1041.66,1802.33 1055.49,1809.33 1064,1826.5C 1069.2,1845.92 1063.03,1860.42 1045.5,1870C 1024.16,1876.57 1008.99,1869.74 1000,1849.5C 995.579,1828.67 1003.08,1814.01 1022.5,1805.5 Z"/></g>
<g><path style="opacity:1" fill="#fefefd" d="M 1025.5,1809.5 C 1046.27,1808.12 1058.27,1817.62 1061.5,1838C 1060.86,1851.3 1054.53,1860.63 1042.5,1866C 1023.34,1870.84 1010.51,1864.01 1004,1845.5C 1001.44,1827.58 1008.61,1815.58 1025.5,1809.5 Z"/></g>
<g><path style="opacity:1" fill="#edcf39" d="M 301.5,1864.5 C 322.329,1861.17 339.496,1867.51 353,1883.5C 354.025,1889.53 357.525,1893.36 363.5,1895C 366.265,1897.99 367.098,1901.49 366,1905.5C 363.428,1918.15 357.595,1928.98 348.5,1938C 342.771,1942.01 336.438,1943.34 329.5,1942C 326.333,1940.17 323.833,1937.67 322,1934.5C 322.01,1926.78 322.843,1919.11 324.5,1911.5C 323.216,1901.02 317.882,1898.19 308.5,1903C 305.413,1905.91 303.413,1909.41 302.5,1913.5C 305.56,1923.85 308.726,1934.18 312,1944.5C 316.576,1967.17 310.41,1986.33 293.5,2002C 278.852,2015.66 261.519,2021.99 241.5,2021C 219.954,2015.79 205.787,2002.62 199,1981.5C 196.836,1959.66 205.002,1942.83 223.5,1931C 232.073,1928.91 236.74,1932.24 237.5,1941C 236.817,1947.05 235.317,1952.88 233,1958.5C 232.13,1964.92 232.464,1971.25 234,1977.5C 235.167,1980 237,1981.83 239.5,1983C 250.271,1985.23 256.271,1980.89 257.5,1970C 254.668,1959.5 251.835,1949 249,1938.5C 245.785,1919.82 250.452,1903.49 263,1889.5C 273.405,1877.23 286.238,1868.9 301.5,1864.5 Z"/></g>
<g><path style="opacity:1" fill="#eccf39" d="M 1734.5,1868.5 C 1750.63,1870.32 1764.13,1877.32 1775,1889.5C 1780.8,1897.93 1780.96,1906.43 1775.5,1915C 1771.78,1917.3 1767.78,1917.97 1763.5,1917C 1754.02,1912.18 1744.36,1911.51 1734.5,1915C 1726.42,1922.01 1725.25,1930.18 1731,1939.5C 1743.91,1959.08 1761.08,1973.58 1782.5,1983C 1792.03,1985.82 1801.03,1984.82 1809.5,1980C 1812.46,1977.13 1814.3,1973.63 1815,1969.5C 1815.33,1960.17 1815.67,1950.83 1816,1941.5C 1817.86,1938.79 1820.36,1937.96 1823.5,1939C 1834.39,1943.6 1840.89,1951.76 1843,1963.5C 1844.85,1977.18 1844.85,1990.84 1843,2004.5C 1836.45,2023.21 1823.29,2034.05 1803.5,2037C 1785.49,2038.78 1768.82,2034.78 1753.5,2025C 1723.83,2006.67 1703,1981.17 1691,1948.5C 1685.23,1927.28 1689.06,1908.11 1702.5,1891C 1708.72,1885.72 1715.72,1881.72 1723.5,1879C 1727.24,1875.48 1730.91,1871.98 1734.5,1868.5 Z"/></g>
<g><path style="opacity:1" fill="#edcf39" d="M 386.5,1934.5 C 418.749,1931.53 439.249,1945.53 448,1976.5C 450.294,2003.66 443.961,2028.66 429,2051.5C 416.571,2072.26 399.404,2087.76 377.5,2098C 359.302,2105.65 341.302,2105.31 323.5,2097C 306.347,2085.53 298.013,2069.36 298.5,2048.5C 303.233,2006.19 322.567,1972.35 356.5,1947C 366.01,1941.4 376.01,1937.24 386.5,1934.5 Z"/></g>
<g><path style="opacity:1" fill="#edcf39" d="M 1648.5,1936.5 C 1657.14,1936.1 1664.8,1938.6 1671.5,1944C 1680.75,1952.67 1686.75,1963.17 1689.5,1975.5C 1689.62,1979.88 1687.45,1982.22 1683,1982.5C 1678.67,1981.09 1674.5,1979.25 1670.5,1977C 1660,1973.66 1651.5,1976.49 1645,1985.5C 1644.16,1989.12 1644.83,1992.45 1647,1995.5C 1651.67,2002.17 1656.33,2008.83 1661,2015.5C 1666.29,2021.22 1670.12,2020.39 1672.5,2013C 1670.81,2008.46 1668.98,2003.96 1667,1999.5C 1666.02,1996.33 1666.52,1993.5 1668.5,1991C 1672.26,1990.26 1675.93,1990.6 1679.5,1992C 1696.52,2003.83 1708.35,2019.66 1715,2039.5C 1716.43,2044.76 1715.26,2049.26 1711.5,2053C 1708.58,2053.55 1705.91,2052.88 1703.5,2051C 1700.32,2047.98 1697.32,2044.82 1694.5,2041.5C 1690.46,2039.72 1686.96,2040.38 1684,2043.5C 1683.33,2044.5 1683.33,2045.5 1684,2046.5C 1690.74,2057.48 1698.58,2067.65 1707.5,2077C 1712.48,2076.78 1717.48,2076.78 1722.5,2077C 1731.54,2081.25 1734.37,2088.08 1731,2097.5C 1717.19,2111.31 1701.69,2122.81 1684.5,2132C 1672.9,2133.73 1666.56,2128.73 1665.5,2117C 1665.48,2113.35 1666.15,2109.85 1667.5,2106.5C 1666.5,2102.33 1665,2098.33 1663,2094.5C 1645.83,2068.82 1628.16,2043.48 1610,2018.5C 1603.93,2013.92 1597.1,2011.09 1589.5,2010C 1579.82,2001.9 1579.15,1993.23 1587.5,1984C 1605.83,1971 1624.17,1958 1642.5,1945C 1644.39,1942.05 1646.39,1939.22 1648.5,1936.5 Z"/></g>
<g><path style="opacity:1" fill="#040301" d="M 393.5,1970.5 C 400.676,1970.01 404.342,1973.34 404.5,1980.5C 395.858,2009.45 382.692,2036.12 365,2060.5C 360.608,2066.61 354.774,2069.45 347.5,2069C 344.671,2064.6 343.837,2059.76 345,2054.5C 353.906,2028.35 366.239,2004.02 382,1981.5C 385.729,1977.6 389.562,1973.94 393.5,1970.5 Z"/></g>
<g><path style="opacity:1" fill="#eccf39" d="M 468.5,1986.5 C 480.586,1986.54 491.586,1990.04 501.5,1997C 505.088,1999.38 508.588,2001.88 512,2004.5C 520.45,2013.57 520.616,2022.73 512.5,2032C 508.122,2034.6 503.455,2036.6 498.5,2038C 482.944,2061.6 468.777,2086.1 456,2111.5C 450.476,2126.78 455.309,2136.78 470.5,2141.5C 480.676,2139.17 488.51,2133.5 494,2124.5C 505.333,2105.17 516.667,2085.83 528,2066.5C 529.753,2063 530.92,2059.33 531.5,2055.5C 527.395,2045.24 529.395,2036.41 537.5,2029C 540.009,2027.66 542.676,2026.83 545.5,2026.5C 558.327,2028.99 569.16,2034.99 578,2044.5C 583.76,2059.82 578.594,2068.65 562.5,2071C 560.376,2072.12 558.543,2073.62 557,2075.5C 540.087,2105 522.42,2134 504,2162.5C 489.209,2179.39 471.042,2184.56 449.5,2178C 434.758,2172.26 422.591,2163.09 413,2150.5C 407.319,2140.08 405.652,2129.08 408,2117.5C 410.137,2111.42 412.471,2105.42 415,2099.5C 429,2072.83 443,2046.17 457,2019.5C 457.613,2014.57 457.113,2009.74 455.5,2005C 457.279,1996.91 461.612,1990.74 468.5,1986.5 Z"/></g>
<g><path style="opacity:1" fill="#edcf39" d="M 1519.5,2024.5 C 1529.18,2023.09 1536.68,2026.42 1542,2034.5C 1542.84,2040.47 1541.34,2045.81 1537.5,2050.5C 1557.89,2091.29 1577.73,2132.29 1597,2173.5C 1597.67,2177.5 1597.67,2181.5 1597,2185.5C 1595.34,2190.04 1592.17,2191.54 1587.5,2190C 1580.67,2187.72 1574.01,2185.06 1567.5,2182C 1543.45,2169.77 1519.79,2156.94 1496.5,2143.5C 1496.17,2144 1495.83,2144.5 1495.5,2145C 1500.87,2159.9 1507.7,2174.07 1516,2187.5C 1519.37,2191.1 1523.54,2192.93 1528.5,2193C 1541.76,2202.58 1541.76,2212.25 1528.5,2222C 1521.84,2225.83 1514.84,2228.83 1507.5,2231C 1496.85,2232.35 1490.85,2227.69 1489.5,2217C 1489.89,2214.05 1490.72,2211.21 1492,2208.5C 1492.67,2206.5 1492.67,2204.5 1492,2202.5C 1476.88,2169.59 1460.21,2137.59 1442,2106.5C 1436.94,2102.05 1431.44,2098.22 1425.5,2095C 1418.79,2084.44 1420.46,2075.44 1430.5,2068C 1442.33,2060.55 1454,2060.88 1465.5,2069C 1487.02,2082.35 1509.35,2094.18 1532.5,2104.5C 1528.71,2092.59 1523.55,2081.26 1517,2070.5C 1515.17,2068.67 1513.33,2066.83 1511.5,2065C 1506.67,2063.39 1502,2061.39 1497.5,2059C 1491.43,2047.22 1494.09,2037.89 1505.5,2031C 1510.15,2028.51 1514.81,2026.34 1519.5,2024.5 Z"/></g>
<g><path style="opacity:1" fill="#edcf39" d="M 594.5,2050.5 C 597.187,2050.34 599.854,2050.5 602.5,2051C 612.671,2060.26 624.338,2067.26 637.5,2072C 650.951,2078.15 664.951,2082.48 679.5,2085C 683.937,2089.75 685.604,2095.42 684.5,2102C 684.19,2115.74 680.69,2128.58 674,2140.5C 668.106,2147.45 661.773,2148.12 655,2142.5C 654.489,2140.12 653.822,2137.79 653,2135.5C 652.847,2126.09 652.014,2116.76 650.5,2107.5C 648.528,2108.31 647.028,2109.64 646,2111.5C 632.468,2140.57 619.468,2169.9 607,2199.5C 606.306,2202.47 605.806,2205.47 605.5,2208.5C 606.913,2214.65 608.246,2220.82 609.5,2227C 609.737,2231.66 608.07,2235.32 604.5,2238C 593.799,2241.15 583.132,2241.15 572.5,2238C 561.397,2234.54 552.23,2228.37 545,2219.5C 537.903,2205.2 542.069,2196.03 557.5,2192C 559.96,2190.54 562.127,2188.71 564,2186.5C 578.693,2155.27 592.527,2123.6 605.5,2091.5C 605.426,2089.26 604.259,2088.26 602,2088.5C 596.381,2091.45 592.048,2095.79 589,2101.5C 584.569,2107.47 578.735,2109.63 571.5,2108C 569.333,2107.17 567.833,2105.67 567,2103.5C 566.333,2099.5 566.333,2095.5 567,2091.5C 572.722,2075.35 581.889,2061.68 594.5,2050.5 Z"/></g>
<g><path style="opacity:1" fill="#edcf39" d="M 1369.5,2089.5 C 1388.57,2087.87 1405.24,2093.37 1419.5,2106C 1451.75,2137.07 1465.58,2174.9 1461,2219.5C 1456.62,2242.81 1443.46,2258.64 1421.5,2267C 1406.53,2270.47 1392.53,2268.14 1379.5,2260C 1359.82,2245.64 1345.32,2227.14 1336,2204.5C 1324.13,2180.09 1321.46,2154.76 1328,2128.5C 1334.66,2107.66 1348.5,2094.66 1369.5,2089.5 Z"/></g>
<g><path style="opacity:1" fill="#edcf39" d="M 700.5,2099.5 C 717.087,2098.54 732.42,2102.37 746.5,2111C 751.087,2115.23 752.587,2120.39 751,2126.5C 746.377,2132.79 741.377,2138.79 736,2144.5C 729.897,2153.58 727.23,2163.58 728,2174.5C 733.544,2182.85 741.044,2185.35 750.5,2182C 753.433,2179.74 755.6,2176.9 757,2173.5C 758.942,2166.46 760.109,2159.3 760.5,2152C 759.109,2145.21 757.776,2138.38 756.5,2131.5C 758.628,2121.67 764.795,2117.34 775,2118.5C 785.704,2118.77 795.87,2121.27 805.5,2126C 815.229,2131.84 818.729,2140.34 816,2151.5C 811.36,2156.14 806.694,2160.81 802,2165.5C 789.622,2194.34 781.289,2224.34 777,2255.5C 777.831,2266.49 778.498,2277.49 779,2288.5C 777.594,2293.57 774.428,2297.07 769.5,2299C 753.318,2300.16 738.318,2296.5 724.5,2288C 715.741,2281.17 714.241,2273 720,2263.5C 724,2259.5 728,2255.5 732,2251.5C 736.889,2240.61 739.889,2229.27 741,2217.5C 734.439,2209.77 726.772,2208.1 718,2212.5C 710.084,2228.98 707.918,2246.15 711.5,2264C 712.041,2267.92 711.041,2271.25 708.5,2274C 699.3,2278.3 689.633,2279.63 679.5,2278C 669.289,2275.93 659.955,2271.93 651.5,2266C 644.618,2258.37 644.951,2251.04 652.5,2244C 659.48,2242.44 663.98,2238.27 666,2231.5C 671.998,2212.17 677.998,2192.84 684,2173.5C 688.244,2159.95 691.077,2146.11 692.5,2132C 692.165,2126.49 690.665,2121.33 688,2116.5C 687.416,2113.74 687.75,2111.08 689,2108.5C 692.183,2104.46 696.016,2101.46 700.5,2099.5 Z"/></g>
<g><path style="opacity:1" fill="#eccf39" d="M 1287.5,2116.5 C 1289.93,2116.52 1292.26,2117.02 1294.5,2118C 1305.68,2128.85 1312.85,2142.02 1316,2157.5C 1317.35,2164.95 1315.51,2171.45 1310.5,2177C 1306.07,2179.18 1302.07,2178.52 1298.5,2175C 1292.4,2167.48 1286.07,2160.15 1279.5,2153C 1278.55,2152.38 1277.72,2152.55 1277,2153.5C 1276.83,2155 1276.67,2156.5 1276.5,2158C 1282.48,2187.2 1288.65,2216.36 1295,2245.5C 1296.47,2250.24 1298.14,2254.91 1300,2259.5C 1305,2263.83 1310,2268.17 1315,2272.5C 1317.3,2276.22 1317.97,2280.22 1317,2284.5C 1302.12,2301.8 1283.28,2308.63 1260.5,2305C 1249.12,2301.63 1244.28,2294.13 1246,2282.5C 1252.13,2276.43 1254.47,2269.09 1253,2260.5C 1246.84,2229.04 1240.18,2197.71 1233,2166.5C 1229.24,2162.19 1226.57,2162.86 1225,2168.5C 1224.99,2176.64 1223.99,2184.64 1222,2192.5C 1216.27,2199.86 1210.27,2200.19 1204,2193.5C 1196.73,2175.99 1195.06,2157.99 1199,2139.5C 1200.17,2137 1202,2135.17 1204.5,2134C 1209.31,2133.93 1214.15,2134.1 1219,2134.5C 1242.88,2131.99 1265.71,2125.99 1287.5,2116.5 Z"/></g>
<g><path style="opacity:1" fill="#030200" d="M 1369.5,2129.5 C 1376.6,2130.09 1382.1,2133.42 1386,2139.5C 1401.18,2160.84 1413.51,2183.84 1423,2208.5C 1425.46,2215.15 1424.96,2221.49 1421.5,2227.5C 1419.23,2228.54 1416.9,2228.71 1414.5,2228C 1410.37,2224.87 1406.53,2221.37 1403,2217.5C 1386.37,2194.57 1373.7,2169.57 1365,2142.5C 1363.38,2136.92 1364.88,2132.59 1369.5,2129.5 Z"/></g>
<g><path style="opacity:1" fill="#eccf39" d="M 861.5,2136.5 C 876.093,2135.58 885.26,2142.25 889,2156.5C 891.179,2164.73 892.846,2173.06 894,2181.5C 898.448,2214.85 903.114,2248.19 908,2281.5C 908.725,2283.95 909.725,2286.28 911,2288.5C 914.824,2292.81 918.157,2297.48 921,2302.5C 922.279,2319.55 914.446,2326.38 897.5,2323C 887.523,2321.52 877.523,2320.19 867.5,2319C 855.865,2317.37 851.365,2310.87 854,2299.5C 858.843,2295.3 862.01,2290.14 863.5,2284C 863.666,2280.56 861.999,2278.56 858.5,2278C 850.979,2276.96 843.479,2275.8 836,2274.5C 833.019,2274.08 830.686,2275.08 829,2277.5C 828.333,2280.5 828.333,2283.5 829,2286.5C 830.369,2290.73 831.869,2294.9 833.5,2299C 833.066,2303.54 831.066,2307.2 827.5,2310C 816.683,2311.14 806.017,2310.47 795.5,2308C 783.257,2302.27 780.424,2293.44 787,2281.5C 789.592,2278.24 792.759,2275.74 796.5,2274C 799.04,2271.8 801.207,2269.3 803,2266.5C 817.549,2235.4 831.549,2204.07 845,2172.5C 846.951,2164.29 847.951,2155.96 848,2147.5C 850.616,2141.37 855.116,2137.71 861.5,2136.5 Z"/></g>
<g><path style="opacity:1" fill="#edcf39" d="M 1136.5,2145.5 C 1171.6,2141.3 1192.1,2156.63 1198,2191.5C 1198.78,2202.2 1198.44,2212.87 1197,2223.5C 1193.48,2240.69 1183.31,2251.85 1166.5,2257C 1159.56,2258.36 1152.73,2259.86 1146,2261.5C 1145.75,2271.6 1146.75,2281.6 1149,2291.5C 1150.17,2292.67 1151.33,2293.83 1152.5,2295C 1165.33,2296.82 1169.16,2303.66 1164,2315.5C 1158.36,2321.24 1151.53,2324.74 1143.5,2326C 1132.87,2327.4 1122.2,2327.74 1111.5,2327C 1091.94,2320.4 1089.44,2309.9 1104,2295.5C 1104.96,2293.8 1105.46,2291.97 1105.5,2290C 1102.71,2260.19 1100.21,2230.36 1098,2200.5C 1097.04,2189.91 1092.04,2181.91 1083,2176.5C 1077.37,2166.87 1078.87,2158.71 1087.5,2152C 1103.96,2149.82 1120.3,2147.66 1136.5,2145.5 Z"/></g>
<g><path style="opacity:1" fill="#edcf39" d="M 950.5,2148.5 C 957.175,2148.33 963.842,2148.5 970.5,2149C 974.468,2149.96 977.635,2152.13 980,2155.5C 988.48,2178.61 997.147,2201.61 1006,2224.5C 1013.11,2204.94 1020.78,2185.61 1029,2166.5C 1039.08,2149.61 1052.91,2145.77 1070.5,2155C 1077.01,2159.2 1079.17,2165.04 1077,2172.5C 1074.53,2178.91 1071.86,2185.25 1069,2191.5C 1067.84,2198.14 1066.84,2204.81 1066,2211.5C 1065.33,2238.17 1065.33,2264.83 1066,2291.5C 1067.08,2297.66 1069.75,2302.99 1074,2307.5C 1076.84,2323 1070.34,2331.17 1054.5,2332C 1042.62,2333.26 1030.95,2332.26 1019.5,2329C 1011.42,2324.45 1008.59,2317.61 1011,2308.5C 1013.68,2304.82 1017.02,2301.82 1021,2299.5C 1021.67,2297.5 1022.33,2295.5 1023,2293.5C 1023.67,2285.5 1023.67,2277.5 1023,2269.5C 1022.86,2266.96 1022.19,2264.62 1021,2262.5C 1013.49,2281.01 1005.33,2299.18 996.5,2317C 995.5,2317.67 994.5,2317.67 993.5,2317C 985.023,2298.57 977.523,2279.74 971,2260.5C 969.369,2274.41 969.036,2288.41 970,2302.5C 973.322,2306.17 976.322,2310.17 979,2314.5C 979.494,2321.68 976.327,2326.52 969.5,2329C 959.167,2329.67 948.833,2329.67 938.5,2329C 928.374,2323.28 925.874,2315.12 931,2304.5C 935.361,2301.47 939.027,2297.81 942,2293.5C 943.999,2258.86 944.999,2224.19 945,2189.5C 942.584,2185 939.917,2180.67 937,2176.5C 930.809,2162.15 935.309,2152.82 950.5,2148.5 Z"/></g>
<g><path style="opacity:1" fill="#080602" d="M 1137.5,2173.5 C 1142.42,2173.04 1145.92,2175.04 1148,2179.5C 1155.67,2193.17 1157.33,2207.51 1153,2222.5C 1151.02,2227.99 1147.19,2230.99 1141.5,2231.5C 1139.84,2212.19 1138.5,2192.86 1137.5,2173.5 Z"/></g>
<g><path style="opacity:1" fill="#0c0a03" d="M 855.5,2213.5 C 856.75,2213.58 857.583,2214.24 858,2215.5C 860.876,2224.9 862.043,2234.4 861.5,2244C 855.473,2245.03 849.806,2244.03 844.5,2241C 843.941,2240.28 843.608,2239.44 843.5,2238.5C 846.709,2229.75 850.709,2221.42 855.5,2213.5 Z"/></g>
</svg>
