<?xml version="1.0" encoding="UTF-8"?>
<!DOCTYPE svg PUBLIC "-//W3C//DTD SVG 1.1//EN" "http://www.w3.org/Graphics/SVG/1.1/DTD/svg11.dtd">
<svg xmlns="http://www.w3.org/2000/svg" version="1.1" width="3970px" height="5000px" style="shape-rendering:geometricPrecision; text-rendering:geometricPrecision; image-rendering:optimizeQuality; fill-rule:evenodd; clip-rule:evenodd" xmlns:xlink="http://www.w3.org/1999/xlink">
<g><path style="opacity:0.99" fill="#fefefe" d="M 1832.5,57.5 C 1862.64,54.6248 1890.31,61.4582 1915.5,78C 1926.23,85.0233 1936.56,92.5233 1946.5,100.5C 1959.06,97.8504 1971.73,95.8504 1984.5,94.5C 1997.9,96.2355 2011.24,98.0688 2024.5,100C 2076.38,52.7583 2134.38,44.0916 2198.5,74C 2230.55,92.5717 2248.72,120.405 2253,157.5C 2254.01,171.918 2253.34,186.251 2251,200.5C 2244.32,233.856 2234.82,266.356 2222.5,298C 2264.89,327.354 2309.22,330.354 2355.5,307C 2383.46,291.857 2409.12,273.524 2432.5,252C 2450.29,234.091 2467.62,215.757 2484.5,197C 2515.2,172.789 2549.86,164.456 2588.5,172C 2598.01,174.044 2607.34,176.71 2616.5,180C 2766.14,247.763 2903.47,334.096 3028.5,439C 3154.82,545.647 3268.32,664.147 3369,794.5C 3463.24,916.825 3547.24,1046.16 3621,1182.5C 3780.13,1491.02 3855.13,1819.02 3846,2166.5C 3844.07,2245.01 3836.73,2323.01 3824,2400.5C 3773.73,2703.94 3686.73,2996.28 3563,3277.5C 3456.36,3519.21 3329.03,3748.21 3181,3964.5C 3031.88,4185.06 2860.38,4387.89 2666.5,4573C 2595.67,4639.19 2521.33,4700.86 2443.5,4758C 2371.26,4810.48 2293.92,4854.81 2211.5,4891C 2156.92,4914.19 2100.26,4929.86 2041.5,4938C 1988.28,4944.7 1935.62,4941.7 1883.5,4929C 1817.23,4911.7 1754.23,4886.36 1694.5,4853C 1611.51,4806.31 1533.18,4752.98 1459.5,4693C 1397.72,4642.57 1337.72,4589.9 1279.5,4535C 1136.72,4397.59 1004.22,4251.76 882,4097.5C 723.228,3881.46 584.561,3652.13 466,3409.5C 326.905,3122.55 225.905,2822.55 163,2509.5C 116.65,2279.71 109.65,2048.71 142,1816.5C 181.716,1543.31 274.383,1289.98 420,1056.5C 532.943,869.696 667.443,699.196 823.5,545C 952.425,420.046 1095.42,314.379 1252.5,228C 1286.01,210.576 1320.01,194.243 1354.5,179C 1395.88,163.49 1435.54,166.823 1473.5,189C 1478.45,192.285 1483.12,195.952 1487.5,200C 1510.87,227.702 1536.53,253.035 1564.5,276C 1584.98,292.581 1607.65,305.581 1632.5,315C 1672.38,328.97 1709.38,323.637 1743.5,299C 1744.06,298.275 1744.39,297.442 1744.5,296.5C 1730.47,257.271 1720.47,217.104 1714.5,176C 1715.15,113.335 1746.15,75.0018 1807.5,61C 1815.97,59.7353 1824.3,58.5687 1832.5,57.5 Z"/></g>
<g><path style="opacity:1" fill="#1a1a18" d="M 1839.5,123.5 C 1850.32,122.748 1860.65,124.581 1870.5,129C 1889.54,140.356 1906.54,154.356 1921.5,171C 1922.5,171.167 1923.5,171.333 1924.5,171.5C 1944.48,168.037 1964.48,164.703 1984.5,161.5C 2000.86,164.194 2017.19,167.027 2033.5,170C 2038.14,170.998 2042.81,171.332 2047.5,171C 2062.08,155.075 2078.41,141.408 2096.5,130C 2107.44,123.93 2119.11,121.93 2131.5,124C 2144.57,124.685 2156.91,128.018 2168.5,134C 2184.18,145.548 2190.35,161.048 2187,180.5C 2177.77,225.518 2164.11,269.184 2146,311.5C 2145.33,312.833 2145.33,314.167 2146,315.5C 2199.72,379.404 2267.22,401.238 2348.5,381C 2388.96,367.281 2425.29,346.614 2457.5,319C 2482.2,297.3 2505.2,273.967 2526.5,249C 2542.16,236.134 2559.83,232.467 2579.5,238C 2583.5,239.333 2587.5,240.667 2591.5,242C 2730.59,305.254 2858.59,385.254 2975.5,482C 3094.95,581.451 3202.79,691.951 3299,813.5C 3391.59,930.619 3474.26,1054.62 3547,1185.5C 3689.36,1448.82 3766.7,1730.49 3779,2030.5C 3783.13,2143.02 3777.46,2255.02 3762,2366.5C 3719.51,2636 3646.84,2897 3544,3149.5C 3437.34,3410.22 3306.34,3656.88 3151,3889.5C 3006.78,4108.84 2840.28,4311.01 2651.5,4496C 2576.78,4568.79 2497.78,4636.12 2414.5,4698C 2349.66,4745.4 2280.66,4786.4 2207.5,4821C 2152.28,4846.22 2094.61,4863.22 2034.5,4872C 1987.98,4877.56 1941.98,4874.89 1896.5,4864C 1857.46,4853.4 1819.46,4839.73 1782.5,4823C 1704.72,4784.81 1631.38,4739.81 1562.5,4688C 1464.78,4613.65 1371.78,4533.31 1283.5,4447C 1167.27,4332.81 1058.44,4212.64 957,4086.5C 773.616,3840.92 617.282,3577.92 488,3297.5C 380.418,3061.42 298.418,2816.75 242,2563.5C 228.247,2498.82 216.247,2433.82 206,2368.5C 167.667,2083.21 190.667,1803.21 275,1528.5C 317.577,1395.11 373.91,1267.78 444,1146.5C 546.443,969.025 667.776,805.358 808,655.5C 917.781,539.969 1038.95,439.136 1171.5,353C 1216.54,324.335 1262.88,297.669 1310.5,273C 1332.56,262.634 1354.56,252.301 1376.5,242C 1396.54,232.772 1416.2,233.439 1435.5,244C 1454.75,264.251 1474.42,284.251 1494.5,304C 1518.37,325.933 1544.37,344.933 1572.5,361C 1651.73,404.216 1726.4,397.882 1796.5,342C 1805.72,333.287 1814.38,324.12 1822.5,314.5C 1804.96,270.993 1791.46,226.327 1782,180.5C 1778.04,152.567 1789.54,134.733 1816.5,127C 1824.24,125.351 1831.91,124.185 1839.5,123.5 Z"/></g>
<g><path style="opacity:1" fill="#f9f9f9" d="M 1017.5,1039.5 C 1016.51,1029.68 1016.17,1019.68 1016.5,1009.5C 1021.64,926.949 1038.47,846.949 1067,769.5C 1109.61,657.55 1167.61,554.884 1241,461.5C 1283.34,407.957 1329.17,357.291 1378.5,309.5C 1382,313.827 1385,318.494 1387.5,323.5C 1271.88,444.961 1176.38,580.628 1101,730.5C 1067.55,800.859 1042.88,874.193 1027,950.5C 1021.87,979.963 1018.7,1009.63 1017.5,1039.5 Z"/></g>
<g><path style="opacity:1" fill="#f9f9f9" d="M 2600.5,309.5 C 2714.28,414.773 2805.44,536.773 2874,675.5C 2919.54,769.602 2948.54,868.602 2961,972.5C 2963.43,1004.12 2964.09,1035.79 2963,1067.5C 2962.87,1013.74 2956.54,960.744 2944,908.5C 2919.58,815.576 2883.25,727.576 2835,644.5C 2767.31,528.782 2687.31,422.115 2595,324.5C 2594.68,322.447 2595.01,320.447 2596,318.5C 2598.04,315.757 2599.54,312.757 2600.5,309.5 Z"/></g>
<g><path style="opacity:1" fill="#a2a2a2" d="M 1016.5,1009.5 C 1016.17,1019.68 1016.51,1029.68 1017.5,1039.5C 1017.67,1048.17 1017.5,1056.84 1017,1065.5C 1015.27,1046.69 1015.11,1028.03 1016.5,1009.5 Z"/></g>
<g><path style="opacity:1" fill="#fefefe" d="M 3533.5,1672.5 C 2500.83,1673.83 1468.17,1673.83 435.5,1672.5C 482.651,1581.48 536.818,1495.15 598,1413.5C 647.462,1348.37 704.628,1290.87 769.5,1241C 810.825,1210.5 855.825,1186.5 904.5,1169C 939.158,1157.06 974.824,1151.72 1011.5,1153C 1018.41,1153.31 1025.24,1154.14 1032,1155.5C 1066.46,1131.69 1103.29,1112.19 1142.5,1097C 1271.75,1054.56 1392.42,1071.56 1504.5,1148C 1602.79,1219.53 1660.12,1315.86 1676.5,1437C 1670.83,1445.85 1666.33,1455.35 1663,1465.5C 1657.08,1490.82 1666.24,1507.99 1690.5,1517C 1697.47,1518.46 1703.8,1517.13 1709.5,1513C 1735.17,1486.67 1760.83,1460.33 1786.5,1434C 1828.07,1434.8 1864.74,1448.46 1896.5,1475C 1935.06,1509.25 1963.89,1550.42 1983,1598.5C 2003.52,1549.61 2033.68,1507.77 2073.5,1473C 2104.77,1447.13 2140.77,1434.13 2181.5,1434C 2209.25,1462.08 2237.25,1489.75 2265.5,1517C 2283.3,1517.68 2296.46,1510.18 2305,1494.5C 2308.45,1482.74 2308.12,1471.08 2304,1459.5C 2300.79,1451.58 2296.96,1444.08 2292.5,1437C 2311.01,1303.91 2377.01,1201.91 2490.5,1131C 2585.39,1074.97 2686.39,1059.97 2793.5,1086C 2845.24,1101.21 2892.91,1124.37 2936.5,1155.5C 2945.51,1153.23 2954.68,1152.23 2964,1152.5C 2990.94,1152.63 3017.44,1156.13 3043.5,1163C 3094.33,1177.92 3141.33,1200.58 3184.5,1231C 3228.26,1262.4 3268.76,1297.9 3306,1337.5C 3359.09,1395.57 3406.42,1457.91 3448,1524.5C 3478.29,1572.74 3506.79,1622.08 3533.5,1672.5 Z"/></g>
<g><path style="opacity:1" fill="#2481a9" d="M 435.5,1672.5 C 1468.17,1673.83 2500.83,1673.83 3533.5,1672.5C 3534.34,1672.84 3534.67,1673.51 3534.5,1674.5C 2501.17,1674.5 1467.83,1674.5 434.5,1674.5C 434.328,1673.51 434.662,1672.84 435.5,1672.5 Z"/></g>
<g><path style="opacity:1" fill="#5ab6e8" d="M 434.5,1674.5 C 1467.83,1674.5 2501.17,1674.5 3534.5,1674.5C 3587.62,1776.71 3630.12,1883.04 3662,1993.5C 3666.16,2012.8 3669.99,2032.14 3673.5,2051.5C 3556.17,2051.5 3438.83,2051.5 3321.5,2051.5C 3321.17,2051.5 3320.83,2051.5 3320.5,2051.5C 3194.17,2051.5 3067.83,2051.5 2941.5,2051.5C 2815.5,2051.5 2689.5,2051.5 2563.5,2051.5C 2437.17,2051.5 2310.83,2051.5 2184.5,2051.5C 2184.17,2051.5 2183.83,2051.5 2183.5,2051.5C 2057.17,2051.5 1930.83,2051.5 1804.5,2051.5C 1678.83,2051.5 1553.17,2051.5 1427.5,2051.5C 1427.17,2051.5 1426.83,2051.5 1426.5,2051.5C 1300.17,2051.5 1173.83,2051.5 1047.5,2051.5C 921.833,2051.5 796.167,2051.5 670.5,2051.5C 670.167,2051.5 669.833,2051.5 669.5,2051.5C 546.167,2051.5 422.833,2051.5 299.5,2051.5C 315.367,1973.53 336.533,1897.2 363,1822.5C 377.85,1782.11 395.517,1742.78 416,1704.5C 421.941,1694.27 428.108,1684.27 434.5,1674.5 Z"/></g>
<g><path style="opacity:1" fill="#fefefe" d="M 2012.5,1740.5 C 2041.24,1739.29 2068.57,1744.79 2094.5,1757C 2111.02,1767.85 2124.52,1781.68 2135,1798.5C 2140.49,1808.11 2143.32,1818.44 2143.5,1829.5C 2124.16,1829.67 2104.83,1829.5 2085.5,1829C 2082.45,1819.4 2077.95,1810.57 2072,1802.5C 2064.56,1794.36 2055.39,1789.19 2044.5,1787C 2016.1,1780.3 1991.94,1787.47 1972,1808.5C 1959.63,1827.96 1953.8,1849.29 1954.5,1872.5C 1953.12,1893.49 1957.95,1912.82 1969,1930.5C 1986.74,1953.1 2009.9,1961.94 2038.5,1957C 2056.5,1954.6 2069.67,1945.43 2078,1929.5C 2080.7,1923.72 2083.2,1917.89 2085.5,1912C 2104.84,1911.17 2124.18,1911.33 2143.5,1912.5C 2130.14,1965.68 2096.14,1995.18 2041.5,2001C 2006.4,2005.58 1973.73,1998.91 1943.5,1981C 1916.78,1961.08 1900.61,1934.58 1895,1901.5C 1890.4,1872.15 1893.07,1843.48 1903,1815.5C 1925.19,1769.5 1961.69,1744.5 2012.5,1740.5 Z"/></g>
<g><path style="opacity:1" fill="#fefefe" d="M 2867.5,1740.5 C 2893.93,1739.42 2919.6,1743.25 2944.5,1752C 2964.83,1761.42 2981,1775.58 2993,1794.5C 3000.03,1805.1 3003.53,1816.77 3003.5,1829.5C 2984.16,1829.83 2964.82,1829.5 2945.5,1828.5C 2942.23,1818.82 2937.73,1809.82 2932,1801.5C 2922.82,1793 2911.99,1787.83 2899.5,1786C 2849.89,1781.92 2822.05,1804.76 2816,1854.5C 2814.42,1873.73 2815.76,1892.73 2820,1911.5C 2834.09,1947.22 2860.26,1962.39 2898.5,1957C 2913.38,1954.81 2925.22,1947.64 2934,1935.5C 2938.89,1928.39 2942.72,1920.72 2945.5,1912.5C 2964.82,1911.5 2984.16,1911.17 3003.5,1911.5C 2995.89,1949.2 2974.56,1976.03 2939.5,1992C 2900.4,2006.17 2861.4,2005.84 2822.5,1991C 2785.52,1973.26 2763.36,1944.1 2756,1903.5C 2749.61,1868.69 2753.94,1835.36 2769,1803.5C 2791.57,1766.46 2824.41,1745.46 2867.5,1740.5 Z"/></g>
<g><path style="opacity:1" fill="#c7e8f6" d="M 3207.5,1746.5 C 3275.66,1745.5 3344,1745.17 3412.5,1745.5C 3412.5,1760.5 3412.5,1775.5 3412.5,1790.5C 3363.83,1790.5 3315.17,1790.5 3266.5,1790.5C 3314.66,1789.5 3363,1789.17 3411.5,1789.5C 3411.5,1775.17 3411.5,1760.83 3411.5,1746.5C 3343.5,1746.5 3275.5,1746.5 3207.5,1746.5 Z"/></g>
<g><path style="opacity:1" fill="#fefefe" d="M 494.5,1747.5 C 515.67,1746.17 537.004,1746.17 558.5,1747.5C 578.972,1809.58 599.639,1871.58 620.5,1933.5C 641.563,1871.31 662.23,1808.98 682.5,1746.5C 703.177,1746.17 723.844,1746.5 744.5,1747.5C 711.593,1829.98 679.259,1912.64 647.5,1995.5C 628.924,1995.83 610.424,1995.49 592,1994.5C 559.767,1911.95 527.267,1829.61 494.5,1747.5 Z"/></g>
<g><path style="opacity:1" fill="#fefefe" d="M 796.5,1994.5 C 776.66,1994.83 756.993,1994.5 737.5,1993.5C 770.631,1911.44 803.965,1829.44 837.5,1747.5C 860.399,1746.17 883.232,1746.17 906,1747.5C 939.333,1830 972.166,1912.67 1004.5,1995.5C 983.497,1995.67 962.497,1995.5 941.5,1995C 935.701,1977.94 929.701,1960.94 923.5,1944C 887.833,1943.33 852.167,1943.33 816.5,1944C 809.716,1960.87 803.049,1977.7 796.5,1994.5 Z"/></g>
<g><path style="opacity:1" fill="#fefefe" d="M 1108.5,1950.5 C 1155.66,1951.5 1203,1951.83 1250.5,1951.5C 1250.5,1965.83 1250.5,1980.17 1250.5,1994.5C 1183.17,1994.5 1115.83,1994.5 1048.5,1994.5C 1048.5,1911.5 1048.5,1828.5 1048.5,1745.5C 1068.5,1745.5 1088.5,1745.5 1108.5,1745.5C 1108.5,1813.83 1108.5,1882.17 1108.5,1950.5 Z"/></g>
<g><path style="opacity:1" fill="#fdfefe" d="M 1310.5,1745.5 C 1379.17,1745.5 1447.83,1745.5 1516.5,1745.5C 1516.5,1760.5 1516.5,1775.5 1516.5,1790.5C 1467.17,1790.5 1417.83,1790.5 1368.5,1790.5C 1368.5,1807.83 1368.5,1825.17 1368.5,1842.5C 1413.83,1842.5 1459.17,1842.5 1504.5,1842.5C 1504.5,1856.5 1504.5,1870.5 1504.5,1884.5C 1459.17,1884.5 1413.83,1884.5 1368.5,1884.5C 1368.5,1906.5 1368.5,1928.5 1368.5,1950.5C 1420.17,1950.5 1471.83,1950.5 1523.5,1950.5C 1523.5,1965.5 1523.5,1980.5 1523.5,1995.5C 1452.5,1995.5 1381.5,1995.5 1310.5,1995.5C 1310.5,1912.17 1310.5,1828.83 1310.5,1745.5 Z"/></g>
<g><path style="opacity:1" fill="#fefefe" d="M 1768.5,1919.5 C 1768.56,1920.04 1768.89,1920.38 1769.5,1920.5C 1770.5,1862.5 1770.83,1804.5 1770.5,1746.5C 1788.5,1746.5 1806.5,1746.5 1824.5,1746.5C 1824.5,1829.5 1824.5,1912.5 1824.5,1995.5C 1804.26,1995.83 1784.09,1995.49 1764,1994.5C 1725.25,1935.33 1686.25,1876.33 1647,1817.5C 1646.5,1876.83 1646.33,1936.17 1646.5,1995.5C 1628.17,1995.5 1609.83,1995.5 1591.5,1995.5C 1591.5,1912.5 1591.5,1829.5 1591.5,1746.5C 1612.51,1746.17 1633.51,1746.5 1654.5,1747.5C 1692.92,1804.58 1730.92,1861.91 1768.5,1919.5 Z"/></g>
<g><path style="opacity:1" fill="#a4daf0" d="M 2217.5,1746.5 C 2217.5,1829.17 2217.5,1911.83 2217.5,1994.5C 2236.83,1994.5 2256.17,1994.5 2275.5,1994.5C 2256.01,1995.5 2236.34,1995.83 2216.5,1995.5C 2216.17,1912.33 2216.5,1829.33 2217.5,1746.5 Z"/></g>
<g><path style="opacity:1" fill="#fefffe" d="M 2217.5,1746.5 C 2236.83,1746.5 2256.17,1746.5 2275.5,1746.5C 2275.5,1829.17 2275.5,1911.83 2275.5,1994.5C 2256.17,1994.5 2236.83,1994.5 2217.5,1994.5C 2217.5,1911.83 2217.5,1829.17 2217.5,1746.5 Z"/></g>
<g><path style="opacity:1" fill="#fefefe" d="M 2389.5,1994.5 C 2368.99,1994.83 2348.66,1994.5 2328.5,1993.5C 2361.63,1911.44 2394.96,1829.44 2428.5,1747.5C 2451.16,1746.33 2473.83,1746.17 2496.5,1747C 2530.3,1829.43 2563.96,1911.93 2597.5,1994.5C 2575.84,1995.67 2554.17,1995.83 2532.5,1995C 2526.7,1977.94 2520.7,1960.94 2514.5,1944C 2479.5,1943.33 2444.5,1943.33 2409.5,1944C 2402.41,1960.68 2395.74,1977.51 2389.5,1994.5 Z"/></g>
<g><path style="opacity:1" fill="#fefefe" d="M 3207.5,1746.5 C 3275.5,1746.5 3343.5,1746.5 3411.5,1746.5C 3411.5,1760.83 3411.5,1775.17 3411.5,1789.5C 3363,1789.17 3314.66,1789.5 3266.5,1790.5C 3265.5,1809.33 3265.17,1828.33 3265.5,1847.5C 3307.83,1847.5 3350.17,1847.5 3392.5,1847.5C 3392.5,1861.5 3392.5,1875.5 3392.5,1889.5C 3350.33,1889.17 3308.33,1889.5 3266.5,1890.5C 3265.5,1925 3265.17,1959.66 3265.5,1994.5C 3246.17,1994.5 3226.83,1994.5 3207.5,1994.5C 3207.5,1911.83 3207.5,1829.17 3207.5,1746.5 Z"/></g>
<g><path style="opacity:1" fill="#5ab7e8" d="M 906.5,1898.5 C 894.686,1899.83 882.519,1900.5 870,1900.5C 857.481,1900.5 845.314,1899.83 833.5,1898.5C 845.098,1866.63 857.265,1834.97 870,1803.5C 882.851,1834.88 895.017,1866.55 906.5,1898.5 Z"/></g>
<g><path style="opacity:1" fill="#5cb7e9" d="M 2462.5,1803.5 C 2474.86,1835.56 2486.86,1867.89 2498.5,1900.5C 2474.18,1901.5 2449.84,1901.83 2425.5,1901.5C 2437.27,1868.62 2449.61,1835.95 2462.5,1803.5 Z"/></g>
<g><path style="opacity:1" fill="#ceeaf6" d="M 1824.5,1746.5 C 1806.5,1746.5 1788.5,1746.5 1770.5,1746.5C 1770.83,1804.5 1770.5,1862.5 1769.5,1920.5C 1768.89,1920.38 1768.56,1920.04 1768.5,1919.5C 1769.5,1861.67 1769.83,1803.67 1769.5,1745.5C 1788.01,1745.17 1806.34,1745.5 1824.5,1746.5 Z"/></g>
<g><path style="opacity:1" fill="#a7dbf1" d="M 3266.5,1890.5 C 3266.5,1925.5 3266.5,1960.5 3266.5,1995.5C 3246.66,1995.83 3226.99,1995.5 3207.5,1994.5C 3226.83,1994.5 3246.17,1994.5 3265.5,1994.5C 3265.17,1959.66 3265.5,1925 3266.5,1890.5 Z"/></g>
<g><path style="opacity:1" fill="#9dd7ef" d="M 833.5,1898.5 C 845.314,1899.83 857.481,1900.5 870,1900.5C 882.519,1900.5 894.686,1899.83 906.5,1898.5C 907.404,1899.21 907.737,1900.21 907.5,1901.5C 882.5,1901.5 857.5,1901.5 832.5,1901.5C 832.263,1900.21 832.596,1899.21 833.5,1898.5 Z"/></g>
<g><path style="opacity:1" fill="#fdfefe" d="M 3077.5,1945.5 C 3096.83,1945.5 3116.17,1945.5 3135.5,1945.5C 3135.5,1962.17 3135.5,1978.83 3135.5,1995.5C 3116.17,1995.5 3096.83,1995.5 3077.5,1995.5C 3077.5,1978.83 3077.5,1962.17 3077.5,1945.5 Z"/></g>
<g><path style="opacity:1" fill="#fdfefe" d="M 3419.5,1945.5 C 3438.83,1945.5 3458.17,1945.5 3477.5,1945.5C 3477.5,1962.17 3477.5,1978.83 3477.5,1995.5C 3458.17,1995.5 3438.83,1995.5 3419.5,1995.5C 3419.5,1978.83 3419.5,1962.17 3419.5,1945.5 Z"/></g>
<g><path style="opacity:1" fill="#bee4f4" d="M 737.5,1993.5 C 756.993,1994.5 776.66,1994.83 796.5,1994.5C 776.663,1995.83 756.663,1995.83 736.5,1994.5C 736.624,1993.89 736.957,1993.56 737.5,1993.5 Z"/></g>
<g><path style="opacity:1" fill="#bee4f4" d="M 1108.5,1950.5 C 1156.17,1950.5 1203.83,1950.5 1251.5,1950.5C 1251.5,1965.5 1251.5,1980.5 1251.5,1995.5C 1183.66,1995.83 1116,1995.5 1048.5,1994.5C 1115.83,1994.5 1183.17,1994.5 1250.5,1994.5C 1250.5,1980.17 1250.5,1965.83 1250.5,1951.5C 1203,1951.83 1155.66,1951.5 1108.5,1950.5 Z"/></g>
<g><path style="opacity:1" fill="#bee4f4" d="M 2328.5,1993.5 C 2348.66,1994.5 2368.99,1994.83 2389.5,1994.5C 2369,1995.83 2348.33,1995.83 2327.5,1994.5C 2327.62,1993.89 2327.96,1993.56 2328.5,1993.5 Z"/></g>
<g><path style="opacity:1" fill="#feea00" d="M 299.5,2051.5 C 422.833,2051.5 546.167,2051.5 669.5,2051.5C 669.833,2519.67 669.5,2987.67 668.5,3455.5C 584.471,3285.49 509.971,3111.83 445,2934.5C 413.144,2845.17 384.811,2754.84 360,2663.5C 334.326,2567.45 314.659,2470.12 301,2371.5C 288.973,2281.11 286.306,2190.44 293,2099.5C 295.018,2083.35 297.185,2067.35 299.5,2051.5 Z"/></g>
<g><path style="opacity:1" fill="#e71100" d="M 670.5,2051.5 C 796.167,2051.5 921.833,2051.5 1047.5,2051.5C 1047.5,2720.5 1047.5,3389.5 1047.5,4058.5C 991.737,3985.67 938.904,3910.67 889,3833.5C 839.741,3758 792.741,3681 748,3602.5C 721.599,3554.36 695.766,3506.03 670.5,3457.5C 670.5,2988.83 670.5,2520.17 670.5,2051.5 Z"/></g>
<g><path style="opacity:1" fill="#feea00" d="M 1047.5,2051.5 C 1173.83,2051.5 1300.17,2051.5 1426.5,2051.5C 1426.83,2857.67 1426.5,3663.67 1425.5,4469.5C 1286.53,4343.56 1160.53,4206.56 1047.5,4058.5C 1047.5,3389.5 1047.5,2720.5 1047.5,2051.5 Z"/></g>
<g><path style="opacity:1" fill="#e71100" d="M 1427.5,2051.5 C 1553.17,2051.5 1678.83,2051.5 1804.5,2051.5C 1804.5,2170.5 1804.5,2289.5 1804.5,2408.5C 1649.31,2468.86 1541.14,2576.52 1480,2731.5C 1434.58,2857.73 1434.25,2984.06 1479,3110.5C 1540.11,3266.44 1648.61,3374.77 1804.5,3435.5C 1804.5,3867.5 1804.5,4299.5 1804.5,4731.5C 1739.61,4701.63 1677.95,4666.46 1619.5,4626C 1552.15,4578.5 1488.15,4526.67 1427.5,4470.5C 1427.5,3664.17 1427.5,2857.83 1427.5,2051.5 Z"/></g>
<g><path style="opacity:1" fill="#feea00" d="M 1804.5,2051.5 C 1930.83,2051.5 2057.17,2051.5 2183.5,2051.5C 2183.67,2171.83 2183.5,2292.17 2183,2412.5C 2057.42,2365.99 1931.25,2364.66 1804.5,2408.5C 1804.5,2289.5 1804.5,2170.5 1804.5,2051.5 Z"/></g>
<g><path style="opacity:1" fill="#e71100" d="M 2184.5,2051.5 C 2310.83,2051.5 2437.17,2051.5 2563.5,2051.5C 2563.5,2854.83 2563.5,3658.17 2563.5,4461.5C 2476.47,4544.32 2382.13,4617.48 2280.5,4681C 2249.74,4699.72 2218.07,4716.88 2185.5,4732.5C 2184.5,4298.67 2184.17,3864.67 2184.5,3430.5C 2335.18,3368.99 2440.01,3262.32 2499,3110.5C 2548.64,2966.5 2541.98,2825.16 2479,2686.5C 2422.89,2572.06 2337.72,2486.56 2223.5,2430C 2210.95,2424.22 2198.28,2418.72 2185.5,2413.5C 2184.5,2292.84 2184.17,2172.17 2184.5,2051.5 Z"/></g>
<g><path style="opacity:1" fill="#feea00" d="M 2563.5,2051.5 C 2689.5,2051.5 2815.5,2051.5 2941.5,2051.5C 2941.5,2714.5 2941.5,3377.5 2941.5,4040.5C 2840,4173.89 2729.34,4300.05 2609.5,4419C 2594.6,4433.74 2579.26,4447.91 2563.5,4461.5C 2563.5,3658.17 2563.5,2854.83 2563.5,2051.5 Z"/></g>
<g><path style="opacity:1" fill="#e71100" d="M 2941.5,2051.5 C 3067.83,2051.5 3194.17,2051.5 3320.5,2051.5C 3320.5,2509.5 3320.5,2967.5 3320.5,3425.5C 3304.15,3461.21 3286.98,3496.54 3269,3531.5C 3197.1,3657.01 3121.43,3780.01 3042,3900.5C 3020.67,3931.17 2999.33,3961.83 2978,3992.5C 2966.06,4008.75 2953.89,4024.75 2941.5,4040.5C 2941.5,3377.5 2941.5,2714.5 2941.5,2051.5 Z"/></g>
<g><path style="opacity:1" fill="#feea00" d="M 3321.5,2051.5 C 3438.83,2051.5 3556.17,2051.5 3673.5,2051.5C 3679.11,2082.02 3681.78,2112.86 3681.5,2144C 3679.9,2216.93 3673.4,2289.43 3662,2361.5C 3634.19,2528.46 3594.85,2692.46 3544,2853.5C 3482.4,3047.84 3408.57,3237.17 3322.5,3421.5C 3321.5,2965 3321.17,2508.33 3321.5,2051.5 Z"/></g>
<g><path style="opacity:1" fill="#b23527" d="M 2183.5,2051.5 C 2183.83,2051.5 2184.17,2051.5 2184.5,2051.5C 2184.17,2172.17 2184.5,2292.84 2185.5,2413.5C 2198.28,2418.72 2210.95,2424.22 2223.5,2430C 2337.72,2486.56 2422.89,2572.06 2479,2686.5C 2541.98,2825.16 2548.64,2966.5 2499,3110.5C 2440.01,3262.32 2335.18,3368.99 2184.5,3430.5C 2183.51,3430.33 2182.84,3430.66 2182.5,3431.5C 2073.5,3471.81 1962.5,3477.64 1849.5,3449C 1834.41,3444.8 1819.41,3440.3 1804.5,3435.5C 1648.61,3374.77 1540.11,3266.44 1479,3110.5C 1434.25,2984.06 1434.58,2857.73 1480,2731.5C 1541.14,2576.52 1649.31,2468.86 1804.5,2408.5C 1931.25,2364.66 2057.42,2365.99 2183,2412.5C 2183.5,2292.17 2183.67,2171.83 2183.5,2051.5 Z"/></g>
<g><path style="opacity:1" fill="#d79301" d="M 1953.5,2414.5 C 1959.18,2414.33 1964.84,2414.5 1970.5,2415C 1917.27,2453.22 1873.44,2500.06 1839,2555.5C 1817.48,2592.56 1806.65,2632.56 1806.5,2675.5C 1783.34,2685.13 1759.34,2691.96 1734.5,2696C 1670.71,2702.68 1619.54,2680.51 1581,2629.5C 1579.71,2627.95 1579.04,2626.28 1579,2624.5C 1672.73,2499.54 1797.56,2429.54 1953.5,2414.5 Z"/></g>
<g><path style="opacity:1" fill="#d79301" d="M 2013.5,2414.5 C 2112.96,2420.15 2202.96,2451.65 2283.5,2509C 2246.73,2516.54 2215.4,2533.71 2189.5,2560.5C 2113.89,2552.88 2059.39,2582.88 2026,2650.5C 2022.54,2659.05 2019.37,2667.72 2016.5,2676.5C 1971.52,2700.23 1924.19,2706.73 1874.5,2696C 1859.46,2691.44 1845.63,2684.61 1833,2675.5C 1832.59,2672.32 1832.09,2669.15 1831.5,2666C 1831.84,2650.56 1834.01,2635.39 1838,2620.5C 1851.04,2581.4 1871.04,2546.4 1898,2515.5C 1932.77,2477.21 1971.27,2443.54 2013.5,2414.5 Z"/></g>
<g><path style="opacity:1" fill="#d79301" d="M 2296.5,2532.5 C 2302.51,2532.33 2308.51,2532.5 2314.5,2533C 2420.1,2624.36 2479.6,2739.86 2493,2879.5C 2502.78,3025.84 2459.78,3153.84 2364,3263.5C 2299.78,3333.7 2221.95,3382.2 2130.5,3409C 2227.83,3359.66 2295.67,3283.83 2334,3181.5C 2353.82,3125.9 2364.82,3068.56 2367,3009.5C 2371.02,2932.71 2363.69,2857.04 2345,2782.5C 2329.1,2722.03 2302.1,2667.37 2264,2618.5C 2248.92,2601.59 2232.76,2585.92 2215.5,2571.5C 2238.25,2549.63 2265.25,2536.63 2296.5,2532.5 Z"/></g>
<g><path style="opacity:1" fill="#d79301" d="M 2150.5,2586.5 C 2165.58,2586.07 2180.58,2586.91 2195.5,2589C 2219.96,2605.79 2240.79,2626.29 2258,2650.5C 2282.27,2685.7 2300.6,2723.7 2313,2764.5C 2345.73,2877.83 2351.07,2992.5 2329,3108.5C 2309.26,3202.55 2263.09,3280.39 2190.5,3342C 2162.03,3364.25 2131.03,3382.41 2097.5,3396.5C 2055.57,3377.9 2026.23,3347.23 2009.5,3304.5C 2040.74,3293.54 2069.08,3277.38 2094.5,3256C 2145.43,3206.23 2165.27,3145.73 2154,3074.5C 2148.28,3040.24 2136.78,3008.07 2119.5,2978C 2134.72,2933.41 2140.55,2887.58 2137,2840.5C 2129.8,2772.9 2098.64,2719.73 2043.5,2681C 2042.92,2680.11 2042.59,2679.11 2042.5,2678C 2059.39,2624.94 2095.39,2594.44 2150.5,2586.5 Z"/></g>
<g><path style="opacity:1" fill="#d79301" d="M 1562.5,2648.5 C 1563.24,2648.37 1563.91,2648.54 1564.5,2649C 1623.74,2718.15 1697.07,2738.82 1784.5,2711C 1795.94,2706.78 1807.27,2702.28 1818.5,2697.5C 1853.68,2720.46 1892.35,2729.96 1934.5,2726C 1965.79,2722.34 1995.79,2714.01 2024.5,2701C 2025.83,2700.33 2027.17,2700.33 2028.5,2701C 2071.74,2729.6 2098.24,2769.43 2108,2820.5C 2115.61,2870.72 2111.61,2920.05 2096,2968.5C 2052.45,2981.81 2007.95,2990.64 1962.5,2995C 1795.43,3009.81 1636.09,2981.98 1484.5,2911.5C 1485.85,2816.37 1511.85,2728.71 1562.5,2648.5 Z"/></g>
<g><path style="opacity:1" fill="#c5381c" d="M 669.5,2051.5 C 669.833,2051.5 670.167,2051.5 670.5,2051.5C 670.5,2520.17 670.5,2988.83 670.5,3457.5C 669.5,3457.17 668.833,3456.5 668.5,3455.5C 669.5,2987.67 669.833,2519.67 669.5,2051.5 Z"/></g>
<g><path style="opacity:1" fill="#d79301" d="M 1483.5,2938.5 C 1672.15,3023.87 1867.82,3045.37 2070.5,3003C 2080.33,3000.63 2090,2997.79 2099.5,2994.5C 2131.51,3049.62 2139.01,3107.95 2122,3169.5C 2102.74,3221.09 2067.24,3256.26 2015.5,3275C 2008.31,3277.85 2000.97,3279.85 1993.5,3281C 1950.88,3255.24 1904.72,3240.74 1855,3237.5C 1818.92,3237.42 1786.42,3247.92 1757.5,3269C 1756.5,3269.67 1755.5,3269.67 1754.5,3269C 1724.16,3234.49 1686.82,3211.16 1642.5,3199C 1617.2,3193.19 1591.87,3193.02 1566.5,3198.5C 1565.56,3198.39 1564.72,3198.06 1564,3197.5C 1513.85,3118.59 1487.01,3032.26 1483.5,2938.5 Z"/></g>
<g><path style="opacity:1" fill="#d8961a" d="M 3320.5,2051.5 C 3320.83,2051.5 3321.17,2051.5 3321.5,2051.5C 3321.17,2508.33 3321.5,2965 3322.5,3421.5C 3322.01,3423 3321.34,3424.33 3320.5,3425.5C 3320.5,2967.5 3320.5,2509.5 3320.5,2051.5 Z"/></g>
<g><path style="opacity:1" fill="#d79301" d="M 1591.5,3219.5 C 1627.55,3217.93 1660.55,3227.09 1690.5,3247C 1699.17,3253.67 1707.83,3260.33 1716.5,3267C 1725,3275.5 1733.5,3284 1742,3292.5C 1750.73,3326.46 1765.23,3357.62 1785.5,3386C 1702.63,3349.66 1634.29,3294.83 1580.5,3221.5C 1584.31,3220.83 1587.98,3220.17 1591.5,3219.5 Z"/></g>
<g><path style="opacity:1" fill="#d79301" d="M 1844.5,3262.5 C 1868.4,3262.22 1891.74,3265.72 1914.5,3273C 1937.88,3280.89 1960.21,3290.89 1981.5,3303C 2000.36,3356.53 2035.36,3395.53 2086.5,3420C 1999.78,3436.41 1914.44,3431.08 1830.5,3404C 1801.99,3372.16 1781.32,3335.66 1768.5,3294.5C 1773.73,3288.78 1779.73,3283.95 1786.5,3280C 1804.54,3269.57 1823.87,3263.73 1844.5,3262.5 Z"/></g>
<g><path style="opacity:1" fill="#feea00" d="M 2182.5,3431.5 C 2183.5,3866 2183.83,4300.67 2183.5,4735.5C 2133.89,4759.31 2081.89,4775.81 2027.5,4785C 2005.14,4788.18 1982.81,4788.18 1960.5,4785C 1906.08,4774.03 1854.08,4756.19 1804.5,4731.5C 1804.5,4299.5 1804.5,3867.5 1804.5,3435.5C 1819.41,3440.3 1834.41,3444.8 1849.5,3449C 1962.5,3477.64 2073.5,3471.81 2182.5,3431.5 Z"/></g>
<g><path style="opacity:1" fill="#bc6a18" d="M 2182.5,3431.5 C 2182.84,3430.66 2183.51,3430.33 2184.5,3430.5C 2184.17,3864.67 2184.5,4298.67 2185.5,4732.5C 2185.07,4733.71 2184.4,4734.71 2183.5,4735.5C 2183.83,4300.67 2183.5,3866 2182.5,3431.5 Z"/></g>
<g><path style="opacity:1" fill="#be451a" d="M 1426.5,2051.5 C 1426.83,2051.5 1427.17,2051.5 1427.5,2051.5C 1427.5,2857.83 1427.5,3664.17 1427.5,4470.5C 1426.51,4470.67 1425.84,4470.34 1425.5,4469.5C 1426.5,3663.67 1426.83,2857.67 1426.5,2051.5 Z"/></g>
</svg>
