<?xml version="1.0" encoding="UTF-8"?>
<!DOCTYPE svg PUBLIC "-//W3C//DTD SVG 1.1//EN" "http://www.w3.org/Graphics/SVG/1.1/DTD/svg11.dtd">
<svg xmlns="http://www.w3.org/2000/svg" version="1.1" width="2500px" height="2500px" style="shape-rendering:geometricPrecision; text-rendering:geometricPrecision; image-rendering:optimizeQuality; fill-rule:evenodd; clip-rule:evenodd" xmlns:xlink="http://www.w3.org/1999/xlink">
<g><path style="opacity:0.977" fill="#fefefe" d="M 1248.5,-0.5 C 1249.17,-0.5 1249.83,-0.5 1250.5,-0.5C 1533.06,304.227 1815.4,609.06 2097.5,914C 1814.89,1442.42 1532.56,1970.92 1250.5,2499.5C 1249.83,2499.5 1249.17,2499.5 1248.5,2499.5C 965.98,1970.96 683.314,1442.46 400.5,914C 683.081,608.934 965.748,304.1 1248.5,-0.5 Z"/></g>
<g><path style="opacity:1" fill="#a19060" d="M 1248.5,41.5 C 1520.52,333.185 1791.85,625.519 2062.5,918.5C 1791.59,1425.33 1520.42,1931.99 1249,2438.5C 977.833,1932.08 706.666,1425.41 435.5,918.5C 706.889,626.447 977.889,334.114 1248.5,41.5 Z"/></g>
<g><path style="opacity:1" fill="#fefefe" d="M 1247.5,140.5 C 1251.3,141.779 1254.47,144.112 1257,147.5C 1495.17,404.333 1733.33,661.167 1971.5,918C 1731.02,1122.4 1490.35,1326.57 1249.5,1530.5C 1008.35,1326.52 767.353,1122.35 526.5,918C 767.039,658.963 1007.37,399.797 1247.5,140.5 Z"/></g>
<g><path style="opacity:1" fill="#ec1c23" d="M 1367.5,1283.5 C 1359.83,1284.17 1352.17,1284.83 1344.5,1285.5C 1331.84,1285.96 1319.17,1286.29 1306.5,1286.5C 1308.58,1308.34 1304.75,1329 1295,1348.5C 1277.95,1375.29 1254.79,1382.79 1225.5,1371C 1204.34,1356.52 1193.17,1336.35 1192,1310.5C 1191.5,1302.51 1191.33,1294.51 1191.5,1286.5C 1171.16,1286.16 1150.82,1285.49 1130.5,1284.5C 1149.77,1263.38 1165.27,1239.71 1177,1213.5C 1180.3,1205.43 1182.47,1197.1 1183.5,1188.5C 1184.4,1187.79 1184.74,1186.79 1184.5,1185.5C 1162.17,1185.5 1139.83,1185.5 1117.5,1185.5C 1117.5,1175.83 1117.5,1166.17 1117.5,1156.5C 1140.5,1156.5 1163.5,1156.5 1186.5,1156.5C 1186.81,1153.61 1186.47,1150.95 1185.5,1148.5C 1183.83,1118.32 1176.33,1089.65 1163,1062.5C 1143.69,1020.54 1116.19,985.041 1080.5,956C 1061.97,941.738 1041.31,931.738 1018.5,926C 1001.71,922.646 989.547,928.479 982,943.5C 981.909,950.475 983.409,957.142 986.5,963.5C 1002.12,973.953 1015.62,986.619 1027,1001.5C 1041.58,1027.35 1038.92,1051.35 1019,1073.5C 1010.96,1051.46 996.126,1035.96 974.5,1027C 967.625,1024.82 960.625,1023.16 953.5,1022C 928.167,1021.67 902.833,1021.33 877.5,1021C 847.998,1016.49 825.832,1001.32 811,975.5C 801.941,959.154 795.774,941.821 792.5,923.5C 792.473,917.949 791.806,912.616 790.5,907.5C 788.203,848.543 813.869,807.376 867.5,784C 888.808,776.172 910.808,772.672 933.5,773.5C 963.645,774.23 992.979,779.396 1021.5,789C 1053.84,801.678 1080.01,822.178 1100,850.5C 1117.75,878.337 1135.75,906.004 1154,933.5C 1161.76,944.014 1169.76,954.347 1178,964.5C 1170.54,931.686 1159.54,900.02 1145,869.5C 1113.44,804.163 1074.27,743.996 1027.5,689C 1012.48,684.572 997.151,682.072 981.5,681.5C 978.959,663.14 978.959,644.806 981.5,626.5C 1000.28,626.352 1018.62,629.352 1036.5,635.5C 1038.57,647.23 1041.07,658.897 1044,670.5C 1086.19,715.565 1122.53,764.898 1153,818.5C 1165.52,840.212 1177.52,862.212 1189,884.5C 1171.29,828.359 1154.96,771.692 1140,714.5C 1129.78,673.714 1122.78,632.38 1119,590.5C 1112.4,512.968 1131.4,442.635 1176,379.5C 1197.52,350.647 1221.85,324.314 1249,300.5C 1290.15,335.301 1323.49,376.301 1349,423.5C 1373.96,475.648 1384.3,530.648 1380,588.5C 1377.53,615.004 1373.86,641.338 1369,667.5C 1352.01,740.788 1332.01,813.121 1309,884.5C 1332.9,837.685 1359.56,792.685 1389,749.5C 1408.78,722.04 1430.45,696.04 1454,671.5C 1457.04,659.601 1459.54,647.601 1461.5,635.5C 1479.34,629.389 1497.67,626.222 1516.5,626C 1519.01,644.443 1519.01,662.943 1516.5,681.5C 1500.77,681.511 1485.43,684.011 1470.5,689C 1426.38,741.391 1388.88,798.224 1358,859.5C 1341.9,892.955 1329.07,927.621 1319.5,963.5C 1320.17,964.833 1320.83,964.833 1321.5,963.5C 1344.09,934.065 1364.93,903.399 1384,871.5C 1397.52,848.974 1414.35,829.141 1434.5,812C 1462.4,792.36 1493.4,780.36 1527.5,776C 1562.5,770.525 1596.84,773.191 1630.5,784C 1675.01,801.521 1700.51,834.021 1707,881.5C 1710.75,922.844 1700.09,959.844 1675,992.5C 1661.47,1008.35 1644.3,1017.52 1623.5,1020C 1596.53,1021.25 1569.53,1021.92 1542.5,1022C 1511.18,1026.49 1490.18,1043.65 1479.5,1073.5C 1456.64,1047.5 1455.81,1020.84 1477,993.5C 1487.03,982.174 1498.37,972.507 1511,964.5C 1521.42,945.857 1516.59,933.024 1496.5,926C 1477.19,925.321 1459.19,929.988 1442.5,940C 1406.38,961.786 1377.21,990.619 1355,1026.5C 1341.31,1048.54 1330.31,1071.88 1322,1096.5C 1315.67,1115.99 1312.5,1135.99 1312.5,1156.5C 1335.17,1156.5 1357.83,1156.5 1380.5,1156.5C 1380.5,1166.17 1380.5,1175.83 1380.5,1185.5C 1358.5,1185.5 1336.5,1185.5 1314.5,1185.5C 1316.47,1200.58 1320.97,1214.92 1328,1228.5C 1338.74,1248.66 1351.9,1267 1367.5,1283.5 Z"/></g>
<g><path style="opacity:1" fill="#fdc1c1" d="M 790.5,907.5 C 791.806,912.616 792.473,917.949 792.5,923.5C 791.043,918.402 790.376,913.069 790.5,907.5 Z"/></g>
<g><path style="opacity:1" fill="#482e91" d="M 584.5,1054.5 C 805.845,1242.34 1027.35,1430.01 1249,1617.5C 1470.12,1430.72 1690.95,1243.56 1911.5,1056C 1912.33,1055.31 1913,1055.48 1913.5,1056.5C 1692.28,1469.93 1470.78,1883.26 1249,2296.5C 1027.26,1882.7 805.765,1468.7 584.5,1054.5 Z"/></g>
<g><path style="opacity:1" fill="#faccce" d="M 1185.5,1148.5 C 1186.47,1150.95 1186.81,1153.61 1186.5,1156.5C 1163.5,1156.5 1140.5,1156.5 1117.5,1156.5C 1139.99,1155.5 1162.66,1155.17 1185.5,1155.5C 1185.5,1153.17 1185.5,1150.83 1185.5,1148.5 Z"/></g>
<g><path style="opacity:1" fill="#fcdedf" d="M 1117.5,1185.5 C 1139.83,1185.5 1162.17,1185.5 1184.5,1185.5C 1184.74,1186.79 1184.4,1187.79 1183.5,1188.5C 1161.69,1186.84 1139.69,1185.84 1117.5,1185.5 Z"/></g>
<g><path style="opacity:1" fill="#f57a7c" d="M 1367.5,1283.5 C 1368.04,1283.56 1368.38,1283.89 1368.5,1284.5C 1360.53,1285.5 1352.53,1285.83 1344.5,1285.5C 1352.17,1284.83 1359.83,1284.17 1367.5,1283.5 Z"/></g>
<g><path style="opacity:1" fill="#fdfdfd" d="M 1369.5,1631.5 C 1389.47,1630.06 1408.47,1633.56 1426.5,1642C 1441.03,1651.88 1451.03,1665.21 1456.5,1682C 1456.09,1682.95 1455.43,1683.61 1454.5,1684C 1440.25,1686.94 1426.08,1690.11 1412,1693.5C 1405.36,1675.59 1392.53,1668.09 1373.5,1671C 1360.65,1675.85 1352.82,1685.02 1350,1698.5C 1349.33,1710.83 1349.33,1723.17 1350,1735.5C 1354.6,1760.42 1369.1,1769.25 1393.5,1762C 1397.79,1760.6 1401.29,1758.1 1404,1754.5C 1408.1,1747.54 1411.43,1740.2 1414,1732.5C 1428.62,1737.54 1443.46,1741.87 1458.5,1745.5C 1448.64,1784.5 1423.48,1803.83 1383,1803.5C 1348.22,1805.62 1322.56,1791.62 1306,1761.5C 1295.5,1733.39 1294.84,1705.06 1304,1676.5C 1317.26,1648.96 1339.09,1633.96 1369.5,1631.5 Z"/></g>
<g><path style="opacity:1" fill="#fdfdfe" d="M 1223.5,1798.5 C 1205.67,1799.5 1187.67,1799.83 1169.5,1799.5C 1166.44,1791.31 1163.77,1782.98 1161.5,1774.5C 1141.5,1773.17 1121.5,1773.17 1101.5,1774.5C 1099.06,1783.02 1096.39,1791.35 1093.5,1799.5C 1075.66,1799.83 1057.99,1799.5 1040.5,1798.5C 1061.31,1744.2 1082.15,1689.86 1103,1635.5C 1112.59,1634.84 1122.26,1634.51 1132,1634.5C 1141.74,1634.51 1151.41,1634.84 1161,1635.5C 1182.13,1689.74 1202.97,1744.07 1223.5,1798.5 Z"/></g>
<g><path style="opacity:1" fill="#492f92" d="M 1149.5,1735.5 C 1137.68,1736.5 1125.68,1736.83 1113.5,1736.5C 1119.49,1717.51 1125.49,1698.51 1131.5,1679.5C 1138.06,1697.96 1144.06,1716.62 1149.5,1735.5 Z"/></g>
<g><path style="opacity:1" fill="#d3cce5" d="M 1149.5,1735.5 C 1150.04,1735.56 1150.38,1735.89 1150.5,1736.5C 1138.01,1737.82 1125.67,1737.82 1113.5,1736.5C 1125.68,1736.83 1137.68,1736.5 1149.5,1735.5 Z"/></g>
<g><path style="opacity:1" fill="#cdc6e1" d="M 1040.5,1798.5 C 1057.99,1799.5 1075.66,1799.83 1093.5,1799.5C 1075.66,1800.83 1057.66,1800.83 1039.5,1799.5C 1039.62,1798.89 1039.96,1798.56 1040.5,1798.5 Z"/></g>
<g><path style="opacity:1" fill="#cec6e1" d="M 1223.5,1798.5 C 1224.04,1798.56 1224.38,1798.89 1224.5,1799.5C 1206,1800.83 1187.67,1800.83 1169.5,1799.5C 1187.67,1799.83 1205.67,1799.5 1223.5,1798.5 Z"/></g>
<g><path style="opacity:1" fill="#d31e33" d="M 1313.5,1861.5 C 1270.83,1861.5 1228.17,1861.5 1185.5,1861.5C 1185.83,1916 1185.5,1970.34 1184.5,2024.5C 1184.5,1969.83 1184.5,1915.17 1184.5,1860.5C 1227.67,1860.17 1270.67,1860.5 1313.5,1861.5 Z"/></g>
<g><path style="opacity:1" fill="#f81a1a" d="M 1313.5,1861.5 C 1313.5,1861.83 1313.5,1862.17 1313.5,1862.5C 1271.17,1862.5 1228.83,1862.5 1186.5,1862.5C 1186.5,1916.5 1186.5,1970.5 1186.5,2024.5C 1202.83,2024.5 1219.17,2024.5 1235.5,2024.5C 1235.33,2002.5 1235.5,1980.5 1236,1958.5C 1236.5,1980.83 1236.67,2003.16 1236.5,2025.5C 1218.99,2025.83 1201.66,2025.5 1184.5,2024.5C 1185.5,1970.34 1185.83,1916 1185.5,1861.5C 1228.17,1861.5 1270.83,1861.5 1313.5,1861.5 Z"/></g>
<g><path style="opacity:1" fill="#eb1c23" d="M 1313.5,1862.5 C 1313.5,1873.83 1313.5,1885.17 1313.5,1896.5C 1288.17,1896.5 1262.83,1896.5 1237.5,1896.5C 1237.5,1906.17 1237.5,1915.83 1237.5,1925.5C 1259.17,1925.5 1280.83,1925.5 1302.5,1925.5C 1302.5,1936.5 1302.5,1947.5 1302.5,1958.5C 1280.83,1958.5 1259.17,1958.5 1237.5,1958.5C 1237.83,1981.01 1237.5,2003.34 1236.5,2025.5C 1236.67,2003.16 1236.5,1980.83 1236,1958.5C 1235.5,1980.5 1235.33,2002.5 1235.5,2024.5C 1219.17,2024.5 1202.83,2024.5 1186.5,2024.5C 1186.5,1970.5 1186.5,1916.5 1186.5,1862.5C 1228.83,1862.5 1271.17,1862.5 1313.5,1862.5 Z"/></g>
</svg>
