<?xml version="1.0" encoding="UTF-8"?>
<!DOCTYPE svg PUBLIC "-//W3C//DTD SVG 1.1//EN" "http://www.w3.org/Graphics/SVG/1.1/DTD/svg11.dtd">
<svg xmlns="http://www.w3.org/2000/svg" version="1.1" width="1920px" height="1080px" style="shape-rendering:geometricPrecision; text-rendering:geometricPrecision; image-rendering:optimizeQuality; fill-rule:evenodd; clip-rule:evenodd" xmlns:xlink="http://www.w3.org/1999/xlink">
<g><path style="opacity:0.818" fill="#070406" d="M 595.5,31.5 C 838.833,31.5 1082.17,31.5 1325.5,31.5C 1325.67,293.5 1325.5,555.5 1325,817.5C 1321.17,857.671 1307.5,894.005 1284,926.5C 1255.57,960.803 1219.07,980.636 1174.5,986C 1142.5,987.581 1110.5,989.248 1078.5,991C 1050.07,993.275 1022.73,999.942 996.5,1011C 984.857,1016.57 975.023,1024.4 967,1034.5C 964.189,1038.77 962.689,1043.43 962.5,1048.5C 961.167,1048.5 959.833,1048.5 958.5,1048.5C 956.774,1037.58 951.441,1028.75 942.5,1022C 930.949,1013.56 918.282,1007.22 904.5,1003C 884.234,996.947 863.567,992.947 842.5,991C 813.863,989.114 785.196,987.781 756.5,987C 672.391,977.232 620.558,931.065 601,848.5C 598.792,838.253 597.125,827.919 596,817.5C 595.5,555.5 595.333,293.5 595.5,31.5 Z"/></g>
<g><path style="opacity:1" fill="#fefefe" d="M 938.5,33.5 C 938.5,63.8333 938.5,94.1667 938.5,124.5C 825.167,124.5 711.833,124.5 598.5,124.5C 598.5,94.1667 598.5,63.8333 598.5,33.5C 711.833,33.5 825.167,33.5 938.5,33.5 Z"/></g>
<g><path style="opacity:1" fill="#fefefe" d="M 982.5,33.5 C 1095.83,33.5 1209.17,33.5 1322.5,33.5C 1322.5,63.8333 1322.5,94.1667 1322.5,124.5C 1209.17,124.5 1095.83,124.5 982.5,124.5C 982.5,94.1667 982.5,63.8333 982.5,33.5 Z"/></g>
<g><path style="opacity:1" fill="#e3898c" d="M 938.5,33.5 C 938.833,33.5 939.167,33.5 939.5,33.5C 939.5,64.1667 939.5,94.8333 939.5,125.5C 825.833,125.5 712.167,125.5 598.5,125.5C 598.5,125.167 598.5,124.833 598.5,124.5C 711.833,124.5 825.167,124.5 938.5,124.5C 938.5,94.1667 938.5,63.8333 938.5,33.5 Z"/></g>
<g><path style="opacity:1" fill="#e3888c" d="M 981.5,33.5 C 981.833,33.5 982.167,33.5 982.5,33.5C 982.5,63.8333 982.5,94.1667 982.5,124.5C 1095.83,124.5 1209.17,124.5 1322.5,124.5C 1322.5,124.833 1322.5,125.167 1322.5,125.5C 1208.83,125.5 1095.17,125.5 981.5,125.5C 981.5,94.8333 981.5,64.1667 981.5,33.5 Z"/></g>
<g><path style="opacity:1" fill="#fefefe" d="M 598.5,167.5 C 711.833,167.5 825.167,167.5 938.5,167.5C 938.5,198.167 938.5,228.833 938.5,259.5C 825.167,259.5 711.833,259.5 598.5,259.5C 598.5,228.833 598.5,198.167 598.5,167.5 Z"/></g>
<g><path style="opacity:1" fill="#fefefe" d="M 982.5,167.5 C 1095.83,167.5 1209.17,167.5 1322.5,167.5C 1322.5,198.167 1322.5,228.833 1322.5,259.5C 1209.17,259.5 1095.83,259.5 982.5,259.5C 982.5,228.833 982.5,198.167 982.5,167.5 Z"/></g>
<g><path style="opacity:1" fill="#ebacaf" d="M 938.5,167.5 C 939.498,198.329 939.831,229.329 939.5,260.5C 825.833,260.5 712.167,260.5 598.5,260.5C 598.5,260.167 598.5,259.833 598.5,259.5C 711.833,259.5 825.167,259.5 938.5,259.5C 938.5,228.833 938.5,198.167 938.5,167.5 Z"/></g>
<g><path style="opacity:1" fill="#bcb8ce" d="M 982.5,167.5 C 982.5,198.167 982.5,228.833 982.5,259.5C 1095.83,259.5 1209.17,259.5 1322.5,259.5C 1322.5,259.833 1322.5,260.167 1322.5,260.5C 1208.83,260.5 1095.17,260.5 981.5,260.5C 981.169,229.329 981.502,198.329 982.5,167.5 Z"/></g>
<g><path style="opacity:1" fill="#cb2128" d="M 939.5,33.5 C 953.5,33.5 967.5,33.5 981.5,33.5C 981.5,64.1667 981.5,94.8333 981.5,125.5C 1095.17,125.5 1208.83,125.5 1322.5,125.5C 1322.5,139.5 1322.5,153.5 1322.5,167.5C 1209.17,167.5 1095.83,167.5 982.5,167.5C 981.502,198.329 981.169,229.329 981.5,260.5C 974.5,260.5 967.5,260.5 960.5,260.5C 960.5,290.5 960.5,320.5 960.5,350.5C 955.464,352.733 951.797,351.233 949.5,346C 943.769,345.79 938.103,345.124 932.5,344C 921.97,339.481 911.136,335.981 900,333.5C 892.214,334.454 886.048,338.12 881.5,344.5C 859.287,336.19 844.787,343.524 838,366.5C 836.683,371.431 835.85,376.431 835.5,381.5C 845.256,379.718 855.089,378.385 865,377.5C 866.728,377.454 868.228,377.954 869.5,379C 863.485,379.424 857.485,379.924 851.5,380.5C 851.281,381.675 851.614,382.675 852.5,383.5C 876.521,395.034 891.521,413.867 897.5,440C 897.136,444.303 895.636,448.137 893,451.5C 885.365,459.445 878.698,468.112 873,477.5C 872.825,481.211 872.325,484.878 871.5,488.5C 867.833,491.5 864.5,494.833 861.5,498.5C 852.57,493.454 844.07,487.787 836,481.5C 834.077,478.456 833.244,475.123 833.5,471.5C 834.381,464.844 834.547,458.177 834,451.5C 832.552,447.512 829.719,445.012 825.5,444C 823.667,442.167 821.833,440.333 820,438.5C 817.185,432.377 814.185,426.377 811,420.5C 801.66,414.749 791.493,411.749 780.5,411.5C 779.792,419.41 781.959,426.41 787,432.5C 787.333,434.5 787.667,436.5 788,438.5C 792.315,443.649 796.815,448.649 801.5,453.5C 801.167,453.833 800.833,454.167 800.5,454.5C 793.893,451.909 787.059,450.242 780,449.5C 772.972,450.963 765.805,452.13 758.5,453C 755.79,454.015 753.457,455.515 751.5,457.5C 755.606,464.273 761.273,469.273 768.5,472.5C 769.648,474.149 770.981,475.649 772.5,477C 786.874,473.376 796.874,478.209 802.5,491.5C 797.387,495.897 792.053,500.064 786.5,504C 784.291,505.873 782.458,508.04 781,510.5C 780.318,512.938 780.818,515.105 782.5,517C 779.966,522.971 778.3,529.137 777.5,535.5C 783.627,536.081 789.461,535.081 795,532.5C 799.668,534.194 803.835,533.361 807.5,530C 811.677,524.992 816.01,520.159 820.5,515.5C 832.887,520.193 844.554,526.193 855.5,533.5C 859.443,555.512 867.943,575.512 881,593.5C 884.046,598.195 885.213,603.195 884.5,608.5C 872.167,614 859.833,619.5 847.5,625C 843.88,625.841 840.546,625.174 837.5,623C 830.075,615.578 824.241,607.078 820,597.5C 817.623,593.912 815.123,590.412 812.5,587C 809.499,584.247 806.499,584.081 803.5,586.5C 796.959,581.559 789.625,578.892 781.5,578.5C 782.153,589.369 783.32,600.035 785,610.5C 790.435,614.093 796.268,616.926 802.5,619C 804.638,620.422 805.805,622.255 806,624.5C 788.692,614.26 772.525,615.76 757.5,629C 761.468,634.829 766.802,638.995 773.5,641.5C 775.024,643.858 777.024,645.691 779.5,647C 786.875,647.947 794.209,649.114 801.5,650.5C 797.262,652.481 792.929,654.314 788.5,656C 786.114,657.887 784.947,660.387 785,663.5C 778.784,668.516 774.95,674.849 773.5,682.5C 784.9,681.638 796.233,680.805 807.5,680C 816.335,677.147 824.169,672.647 831,666.5C 832.689,667.858 834.022,669.525 835,671.5C 838.333,680.833 841.667,690.167 845,699.5C 847.803,703.07 851.303,704.236 855.5,703C 861.262,707.295 867.096,711.462 873,715.5C 875.579,713.912 876.913,711.578 877,708.5C 877.742,702.801 877.575,697.134 876.5,691.5C 882.078,685.756 881.745,680.256 875.5,675C 869.066,671.452 863.399,666.952 858.5,661.5C 877.27,659.402 896.103,657.735 915,656.5C 917.167,656.667 919.333,656.833 921.5,657C 929.75,665.246 937.25,674.079 944,683.5C 946.805,689.364 946.972,695.198 944.5,701C 918.168,707.234 899.001,722.4 887,746.5C 877.365,770.595 883.532,789.428 905.5,803C 910.249,807.078 914.249,811.745 917.5,817C 907.484,826.84 895.484,830.84 881.5,829C 869.979,826.161 858.312,825.161 846.5,826C 838.586,829.45 832.586,834.95 828.5,842.5C 834.494,847.617 841.494,850.617 849.5,851.5C 852.221,850.546 854.888,850.546 857.5,851.5C 853.147,853.81 848.48,855.31 843.5,856C 842.646,857.022 841.646,857.855 840.5,858.5C 839.355,859.776 839.355,861.109 840.5,862.5C 835.701,867.552 833.701,873.385 834.5,880C 837.167,880.667 839.833,880.667 842.5,880C 848.755,877.703 855.088,875.703 861.5,874C 864.701,871.733 868.034,870.066 871.5,869C 868.833,872.333 866.167,875.667 863.5,879C 864.357,879.689 865.023,880.522 865.5,881.5C 861.848,887.244 861.681,892.911 865,898.5C 871.04,897.395 876.54,895.062 881.5,891.5C 882.768,892.428 884.101,892.595 885.5,892C 889.939,887.562 893.606,882.562 896.5,877C 903.726,873.813 911.226,871.646 919,870.5C 926.328,870.331 931.328,873.665 934,880.5C 939.908,885.567 945.741,890.9 951.5,896.5C 954.368,893.425 956.201,889.759 957,885.5C 957.175,880.981 957.675,876.647 958.5,872.5C 959.833,927.167 959.833,981.833 958.5,1036.5C 950.501,1023.68 939.501,1014.18 925.5,1008C 898.578,997.014 870.578,990.347 841.5,988C 809.532,985.604 777.532,983.937 745.5,983C 679.719,972.874 635.219,936.707 612,874.5C 604.724,854.455 600.391,833.788 599,812.5C 598.5,628.5 598.333,444.5 598.5,260.5C 712.167,260.5 825.833,260.5 939.5,260.5C 939.831,229.329 939.498,198.329 938.5,167.5C 825.167,167.5 711.833,167.5 598.5,167.5C 598.5,153.5 598.5,139.5 598.5,125.5C 712.167,125.5 825.833,125.5 939.5,125.5C 939.5,94.8333 939.5,64.1667 939.5,33.5 Z"/></g>
<g><path style="opacity:1" fill="#284790" d="M 981.5,260.5 C 1095.17,260.5 1208.83,260.5 1322.5,260.5C 1322.67,444.5 1322.5,628.5 1322,812.5C 1318.98,858.168 1302.98,898.501 1274,933.5C 1247.9,960.635 1216.07,976.802 1178.5,982C 1147.18,983.783 1115.84,985.449 1084.5,987C 1057.08,989.218 1030.41,994.884 1004.5,1004C 985.678,1010.88 971.012,1022.72 960.5,1039.5C 960.5,974.5 960.5,909.5 960.5,844.5C 969.432,851.036 979.432,855.036 990.5,856.5C 1009.84,853.29 1028.68,848.29 1047,841.5C 1051.35,841.518 1054.35,843.518 1056,847.5C 1056.48,861.723 1051.98,874.223 1042.5,885C 1026.49,891.999 1012.16,889.333 999.5,877C 990.218,872.202 981.052,872.369 972,877.5C 971.743,880.017 972.41,882.35 974,884.5C 977.527,888.902 980.527,893.569 983,898.5C 985.894,901.361 989.061,903.861 992.5,906C 986.5,909.667 980.5,913.333 974.5,917C 970.872,920.831 969.705,925.331 971,930.5C 972.004,936.983 973.17,943.483 974.5,950C 980.719,949.812 986.053,947.478 990.5,943C 997.541,942.561 1003.04,939.395 1007,933.5C 1010.68,926.065 1016.51,921.065 1024.5,918.5C 1025.93,918.733 1026.43,919.4 1026,920.5C 1018.86,927.307 1012.86,934.973 1008,943.5C 1009.81,950.523 1011.14,957.857 1012,965.5C 1012.52,966.516 1013.35,967.182 1014.5,967.5C 1022.34,964.998 1029.51,961.331 1036,956.5C 1038.88,947.781 1041.88,939.114 1045,930.5C 1047.07,927.93 1049.57,925.93 1052.5,924.5C 1058.51,928.507 1064.84,932.007 1071.5,935C 1073.87,937.039 1075.87,939.372 1077.5,942C 1080.17,942.333 1082.83,942.667 1085.5,943C 1091.63,945.91 1097.96,947.91 1104.5,949C 1106.03,941.713 1104.69,934.879 1100.5,928.5C 1101.5,927.167 1102.5,925.833 1103.5,924.5C 1101.73,920.603 1098.73,918.103 1094.5,917C 1087.13,916.179 1079.8,915.179 1072.5,914C 1064.22,911.2 1062.39,906.033 1067,898.5C 1082.52,881.634 1092.02,861.801 1095.5,839C 1092.3,819.811 1080.97,811.144 1061.5,813C 1051.64,814.337 1041.81,815.837 1032,817.5C 1030.5,817.167 1029,816.833 1027.5,816.5C 1030.32,813.182 1033.32,810.015 1036.5,807C 1045.17,802 1053.83,797 1062.5,792C 1069.52,786.323 1075.02,779.489 1079,771.5C 1080.52,766.81 1081.85,762.144 1083,757.5C 1101.18,767.92 1120.68,772.753 1141.5,772C 1158.07,766.58 1166.4,755.08 1166.5,737.5C 1165.43,725.774 1162.59,714.441 1158,703.5C 1144.32,673.469 1132.32,642.802 1122,611.5C 1119.78,601.601 1119.12,591.601 1120,581.5C 1123.18,570.885 1129.35,568.718 1138.5,575C 1146.38,581.532 1150.71,589.866 1151.5,600C 1144.8,621.53 1150.13,639.196 1167.5,653C 1177.33,659.911 1187.66,665.744 1198.5,670.5C 1200.2,655.209 1200.7,639.875 1200,624.5C 1195.26,610.664 1185.93,601.664 1172,597.5C 1167.31,583.275 1159.47,571.108 1148.5,561C 1128.41,548.422 1113.57,552.922 1104,574.5C 1101.75,589.279 1102.42,603.946 1106,618.5C 1114,643.827 1123.66,668.494 1135,692.5C 1164.1,756.563 1147.26,772.229 1084.5,739.5C 1082.59,720.191 1075.59,703.024 1063.5,688C 1035,672.138 1018.17,647.971 1013,615.5C 1011.92,614.335 1011.08,613.002 1010.5,611.5C 1018.53,604.481 1027.53,598.981 1037.5,595C 1041.78,591.555 1045.12,587.388 1047.5,582.5C 1069.83,572.667 1092.17,562.833 1114.5,553C 1125.32,548.265 1129.99,539.932 1128.5,528C 1128.94,522.961 1127.94,518.294 1125.5,514C 1134.5,508.835 1143.83,504.169 1153.5,500C 1163.29,489.333 1164.12,477.833 1156,465.5C 1154.86,463.391 1153.36,461.558 1151.5,460C 1170.69,446.764 1171.35,432.431 1153.5,417C 1150.81,415.148 1148.14,414.315 1145.5,414.5C 1149.61,406.086 1149.45,397.752 1145,389.5C 1139.01,382.098 1131.51,377.098 1122.5,374.5C 1121.5,374.667 1120.5,374.833 1119.5,375C 1109.95,383.917 1099.95,391.917 1089.5,399C 1093.75,387.536 1090.09,379.536 1078.5,375C 1075.59,373.682 1072.59,373.348 1069.5,374C 1052.99,390.681 1036.32,407.181 1019.5,423.5C 1015,410.174 1008.67,397.84 1000.5,386.5C 1009.31,374.565 1013.81,361.231 1014,346.5C 1013.32,344.487 1011.99,343.154 1010,342.5C 1007.03,344.298 1004.53,346.631 1002.5,349.5C 1002.17,349.333 1001.83,349.167 1001.5,349C 1005.13,339.378 1005.97,329.545 1004,319.5C 998.087,308.625 988.92,303.625 976.5,304.5C 985.283,320.752 982.616,334.919 968.5,347C 966.182,348.993 963.516,350.159 960.5,350.5C 960.5,320.5 960.5,290.5 960.5,260.5C 967.5,260.5 974.5,260.5 981.5,260.5 Z"/></g>
<g><path style="opacity:1" fill="#140f07" d="M 960.5,844.5 C 960.5,843.833 960.167,843.5 959.5,843.5C 957.554,839.561 955.221,835.894 952.5,832.5C 944.721,836.052 938.055,841.052 932.5,847.5C 933.648,849.149 934.981,850.649 936.5,852C 941.833,854.333 947.167,856.667 952.5,859C 955.647,861.464 957.647,864.63 958.5,868.5C 958.5,869.833 958.5,871.167 958.5,872.5C 957.675,876.647 957.175,880.981 957,885.5C 956.201,889.759 954.368,893.425 951.5,896.5C 945.741,890.9 939.908,885.567 934,880.5C 931.328,873.665 926.328,870.331 919,870.5C 911.226,871.646 903.726,873.813 896.5,877C 893.606,882.562 889.939,887.562 885.5,892C 884.101,892.595 882.768,892.428 881.5,891.5C 876.54,895.062 871.04,897.395 865,898.5C 861.681,892.911 861.848,887.244 865.5,881.5C 865.023,880.522 864.357,879.689 863.5,879C 866.167,875.667 868.833,872.333 871.5,869C 868.034,870.066 864.701,871.733 861.5,874C 855.088,875.703 848.755,877.703 842.5,880C 839.833,880.667 837.167,880.667 834.5,880C 833.701,873.385 835.701,867.552 840.5,862.5C 839.355,861.109 839.355,859.776 840.5,858.5C 841.646,857.855 842.646,857.022 843.5,856C 848.48,855.31 853.147,853.81 857.5,851.5C 854.888,850.546 852.221,850.546 849.5,851.5C 841.494,850.617 834.494,847.617 828.5,842.5C 832.586,834.95 838.586,829.45 846.5,826C 858.312,825.161 869.979,826.161 881.5,829C 895.484,830.84 907.484,826.84 917.5,817C 914.249,811.745 910.249,807.078 905.5,803C 883.532,789.428 877.365,770.595 887,746.5C 899.001,722.4 918.168,707.234 944.5,701C 946.972,695.198 946.805,689.364 944,683.5C 937.25,674.079 929.75,665.246 921.5,657C 919.333,656.833 917.167,656.667 915,656.5C 896.103,657.735 877.27,659.402 858.5,661.5C 863.399,666.952 869.066,671.452 875.5,675C 881.745,680.256 882.078,685.756 876.5,691.5C 877.575,697.134 877.742,702.801 877,708.5C 876.913,711.578 875.579,713.912 873,715.5C 867.096,711.462 861.262,707.295 855.5,703C 851.303,704.236 847.803,703.07 845,699.5C 841.667,690.167 838.333,680.833 835,671.5C 834.022,669.525 832.689,667.858 831,666.5C 824.169,672.647 816.335,677.147 807.5,680C 796.233,680.805 784.9,681.638 773.5,682.5C 774.95,674.849 778.784,668.516 785,663.5C 784.947,660.387 786.114,657.887 788.5,656C 792.929,654.314 797.262,652.481 801.5,650.5C 794.209,649.114 786.875,647.947 779.5,647C 777.024,645.691 775.024,643.858 773.5,641.5C 766.802,638.995 761.468,634.829 757.5,629C 772.525,615.76 788.692,614.26 806,624.5C 805.805,622.255 804.638,620.422 802.5,619C 796.268,616.926 790.435,614.093 785,610.5C 783.32,600.035 782.153,589.369 781.5,578.5C 789.625,578.892 796.959,581.559 803.5,586.5C 806.499,584.081 809.499,584.247 812.5,587C 815.123,590.412 817.623,593.912 820,597.5C 824.241,607.078 830.075,615.578 837.5,623C 840.546,625.174 843.88,625.841 847.5,625C 859.833,619.5 872.167,614 884.5,608.5C 885.213,603.195 884.046,598.195 881,593.5C 867.943,575.512 859.443,555.512 855.5,533.5C 844.554,526.193 832.887,520.193 820.5,515.5C 816.01,520.159 811.677,524.992 807.5,530C 803.835,533.361 799.668,534.194 795,532.5C 789.461,535.081 783.627,536.081 777.5,535.5C 778.3,529.137 779.966,522.971 782.5,517C 780.818,515.105 780.318,512.938 781,510.5C 782.458,508.04 784.291,505.873 786.5,504C 792.053,500.064 797.387,495.897 802.5,491.5C 796.874,478.209 786.874,473.376 772.5,477C 770.981,475.649 769.648,474.149 768.5,472.5C 761.273,469.273 755.606,464.273 751.5,457.5C 753.457,455.515 755.79,454.015 758.5,453C 765.805,452.13 772.972,450.963 780,449.5C 787.059,450.242 793.893,451.909 800.5,454.5C 800.833,454.167 801.167,453.833 801.5,453.5C 796.815,448.649 792.315,443.649 788,438.5C 787.667,436.5 787.333,434.5 787,432.5C 781.959,426.41 779.792,419.41 780.5,411.5C 791.493,411.749 801.66,414.749 811,420.5C 814.185,426.377 817.185,432.377 820,438.5C 821.833,440.333 823.667,442.167 825.5,444C 829.719,445.012 832.552,447.512 834,451.5C 834.547,458.177 834.381,464.844 833.5,471.5C 833.244,475.123 834.077,478.456 836,481.5C 844.07,487.787 852.57,493.454 861.5,498.5C 864.5,494.833 867.833,491.5 871.5,488.5C 872.325,484.878 872.825,481.211 873,477.5C 878.698,468.112 885.365,459.445 893,451.5C 895.636,448.137 897.136,444.303 897.5,440C 891.521,413.867 876.521,395.034 852.5,383.5C 851.614,382.675 851.281,381.675 851.5,380.5C 857.485,379.924 863.485,379.424 869.5,379C 868.228,377.954 866.728,377.454 865,377.5C 855.089,378.385 845.256,379.718 835.5,381.5C 835.85,376.431 836.683,371.431 838,366.5C 844.787,343.524 859.287,336.19 881.5,344.5C 886.048,338.12 892.214,334.454 900,333.5C 911.136,335.981 921.97,339.481 932.5,344C 938.103,345.124 943.769,345.79 949.5,346C 951.797,351.233 955.464,352.733 960.5,350.5C 963.516,350.159 966.182,348.993 968.5,347C 982.616,334.919 985.283,320.752 976.5,304.5C 988.92,303.625 998.087,308.625 1004,319.5C 1005.97,329.545 1005.13,339.378 1001.5,349C 1001.83,349.167 1002.17,349.333 1002.5,349.5C 1004.53,346.631 1007.03,344.298 1010,342.5C 1011.99,343.154 1013.32,344.487 1014,346.5C 1013.81,361.231 1009.31,374.565 1000.5,386.5C 1008.67,397.84 1015,410.174 1019.5,423.5C 1036.32,407.181 1052.99,390.681 1069.5,374C 1072.59,373.348 1075.59,373.682 1078.5,375C 1090.09,379.536 1093.75,387.536 1089.5,399C 1099.95,391.917 1109.95,383.917 1119.5,375C 1120.5,374.833 1121.5,374.667 1122.5,374.5C 1131.51,377.098 1139.01,382.098 1145,389.5C 1149.45,397.752 1149.61,406.086 1145.5,414.5C 1148.14,414.315 1150.81,415.148 1153.5,417C 1171.35,432.431 1170.69,446.764 1151.5,460C 1153.36,461.558 1154.86,463.391 1156,465.5C 1164.12,477.833 1163.29,489.333 1153.5,500C 1143.83,504.169 1134.5,508.835 1125.5,514C 1127.94,518.294 1128.94,522.961 1128.5,528C 1129.99,539.932 1125.32,548.265 1114.5,553C 1092.17,562.833 1069.83,572.667 1047.5,582.5C 1045.12,587.388 1041.78,591.555 1037.5,595C 1027.53,598.981 1018.53,604.481 1010.5,611.5C 1011.08,613.002 1011.92,614.335 1013,615.5C 1018.17,647.971 1035,672.138 1063.5,688C 1075.59,703.024 1082.59,720.191 1084.5,739.5C 1147.26,772.229 1164.1,756.563 1135,692.5C 1123.66,668.494 1114,643.827 1106,618.5C 1102.42,603.946 1101.75,589.279 1104,574.5C 1113.57,552.922 1128.41,548.422 1148.5,561C 1159.47,571.108 1167.31,583.275 1172,597.5C 1185.93,601.664 1195.26,610.664 1200,624.5C 1200.7,639.875 1200.2,655.209 1198.5,670.5C 1187.66,665.744 1177.33,659.911 1167.5,653C 1150.13,639.196 1144.8,621.53 1151.5,600C 1150.71,589.866 1146.38,581.532 1138.5,575C 1129.35,568.718 1123.18,570.885 1120,581.5C 1119.12,591.601 1119.78,601.601 1122,611.5C 1132.32,642.802 1144.32,673.469 1158,703.5C 1162.59,714.441 1165.43,725.774 1166.5,737.5C 1166.4,755.08 1158.07,766.58 1141.5,772C 1120.68,772.753 1101.18,767.92 1083,757.5C 1081.85,762.144 1080.52,766.81 1079,771.5C 1075.02,779.489 1069.52,786.323 1062.5,792C 1053.83,797 1045.17,802 1036.5,807C 1033.32,810.015 1030.32,813.182 1027.5,816.5C 1029,816.833 1030.5,817.167 1032,817.5C 1041.81,815.837 1051.64,814.337 1061.5,813C 1080.97,811.144 1092.3,819.811 1095.5,839C 1092.02,861.801 1082.52,881.634 1067,898.5C 1062.39,906.033 1064.22,911.2 1072.5,914C 1079.8,915.179 1087.13,916.179 1094.5,917C 1098.73,918.103 1101.73,920.603 1103.5,924.5C 1102.5,925.833 1101.5,927.167 1100.5,928.5C 1104.69,934.879 1106.03,941.713 1104.5,949C 1097.96,947.91 1091.63,945.91 1085.5,943C 1082.83,942.667 1080.17,942.333 1077.5,942C 1075.87,939.372 1073.87,937.039 1071.5,935C 1064.84,932.007 1058.51,928.507 1052.5,924.5C 1049.57,925.93 1047.07,927.93 1045,930.5C 1041.88,939.114 1038.88,947.781 1036,956.5C 1029.51,961.331 1022.34,964.998 1014.5,967.5C 1013.35,967.182 1012.52,966.516 1012,965.5C 1011.14,957.857 1009.81,950.523 1008,943.5C 1012.86,934.973 1018.86,927.307 1026,920.5C 1026.43,919.4 1025.93,918.733 1024.5,918.5C 1016.51,921.065 1010.68,926.065 1007,933.5C 1003.04,939.395 997.541,942.561 990.5,943C 986.053,947.478 980.719,949.812 974.5,950C 973.17,943.483 972.004,936.983 971,930.5C 969.705,925.331 970.872,920.831 974.5,917C 980.5,913.333 986.5,909.667 992.5,906C 989.061,903.861 985.894,901.361 983,898.5C 980.527,893.569 977.527,888.902 974,884.5C 972.41,882.35 971.743,880.017 972,877.5C 981.052,872.369 990.218,872.202 999.5,877C 1012.16,889.333 1026.49,891.999 1042.5,885C 1051.98,874.223 1056.48,861.723 1056,847.5C 1054.35,843.518 1051.35,841.518 1047,841.5C 1028.68,848.29 1009.84,853.29 990.5,856.5C 979.432,855.036 969.432,851.036 960.5,844.5 Z"/></g>
<g><path style="opacity:1" fill="#fbe42e" d="M 841.5,377.5 C 839.952,377.179 839.285,376.179 839.5,374.5C 840.71,361.219 847.044,351.386 858.5,345C 867.082,342.31 875.082,343.476 882.5,348.5C 887.238,339.631 894.571,335.798 904.5,337C 913.974,339.936 923.308,343.269 932.5,347C 937.827,347.863 943.161,348.697 948.5,349.5C 952.454,354.668 957.454,355.834 963.5,353C 982.731,342.8 988.398,327.633 980.5,307.5C 996.099,308.949 1003.27,317.615 1002,333.5C 1000.98,340.225 999.979,346.892 999,353.5C 999.414,353.957 999.914,354.291 1000.5,354.5C 1003.97,352.86 1006.64,350.36 1008.5,347C 1009.45,346.383 1010.28,346.549 1011,347.5C 1011.57,354.816 1010.23,361.816 1007,368.5C 1004.07,374.695 1000.9,380.695 997.5,386.5C 1005.73,398.96 1012.4,412.294 1017.5,426.5C 1018.36,427.583 1019.36,427.749 1020.5,427C 1037.17,410.333 1053.83,393.667 1070.5,377C 1078.41,377.036 1084.24,380.536 1088,387.5C 1088.74,391.261 1088.4,394.928 1087,398.5C 1068.81,414.265 1050.81,430.265 1033,446.5C 1032.22,447.944 1032.39,449.277 1033.5,450.5C 1062.65,426.522 1091.65,402.355 1120.5,378C 1132.02,379.496 1140.19,385.663 1145,396.5C 1147.41,406.511 1144.57,414.678 1136.5,421C 1106.66,441.42 1076.99,462.087 1047.5,483C 1045.58,484.241 1045.25,485.741 1046.5,487.5C 1080.21,463.957 1114.04,440.623 1148,417.5C 1157.91,422.994 1162.91,431.327 1163,442.5C 1160.99,449.181 1156.82,454.014 1150.5,457C 1117,476.586 1083.33,495.919 1049.5,515C 1047.56,515.908 1046.56,517.408 1046.5,519.5C 1080.9,500.797 1115.23,481.797 1149.5,462.5C 1157.41,470.398 1159.91,479.731 1157,490.5C 1155.94,493.562 1154.11,496.062 1151.5,498C 1120.17,512.333 1088.83,526.667 1057.5,541C 1054.13,542.346 1051.13,544.179 1048.5,546.5C 1050.47,547.372 1052.47,547.205 1054.5,546C 1076.94,535.696 1099.44,525.53 1122,515.5C 1125.17,519.16 1126.67,523.493 1126.5,528.5C 1126.42,535.571 1124.09,541.737 1119.5,547C 1095.1,558.532 1070.43,569.532 1045.5,580C 1043.24,584.502 1040.24,588.502 1036.5,592C 1029.63,595.937 1022.63,599.603 1015.5,603C 1011.51,606.997 1006.85,609.997 1001.5,612C 993.681,617.339 986.514,623.505 980,630.5C 975.552,637.282 970.719,643.782 965.5,650C 963.833,650.667 962.167,650.667 960.5,650C 955.706,647.769 951.039,645.269 946.5,642.5C 938.101,648.535 928.767,652.035 918.5,653C 897.225,655.384 875.891,656.884 854.5,657.5C 855.247,662.775 857.914,666.942 862.5,670C 866.5,672.667 870.5,675.333 874.5,678C 877.796,680.801 878.129,683.801 875.5,687C 867.577,690.966 859.91,695.299 852.5,700C 850.633,700.711 849.133,700.211 848,698.5C 844.273,689.319 840.939,679.985 838,670.5C 836.631,666.754 834.131,664.088 830.5,662.5C 821.861,672.001 811.194,677.167 798.5,678C 795.333,673.5 792.167,669 789,664.5C 788.333,662.833 788.333,661.167 789,659.5C 793.172,656.992 797.672,655.158 802.5,654C 806.796,650.416 806.129,648.083 800.5,647C 794.883,645.948 789.216,645.282 783.5,645C 780.477,644.675 778.477,643.175 777.5,640.5C 778.282,634.131 779.282,627.798 780.5,621.5C 782.273,620.913 784.106,620.58 786,620.5C 793.242,622.025 800.242,624.358 807,627.5C 808.885,627.138 809.719,625.971 809.5,624C 808.825,620.991 807.158,618.657 804.5,617C 798.139,614.737 792.306,611.571 787,607.5C 786.333,606.5 786.333,605.5 787,604.5C 793.557,598.476 800.39,592.809 807.5,587.5C 814.568,593.287 819.401,600.62 822,609.5C 826.708,616.085 832.208,621.919 838.5,627C 840.199,627.958 842.033,628.458 844,628.5C 867.643,619.098 891.143,609.265 914.5,599C 914.957,598.586 915.291,598.086 915.5,597.5C 910.605,581.894 908.605,565.894 909.5,549.5C 906.92,524.84 915.586,505.34 935.5,491C 945.762,485.352 956.762,483.019 968.5,484C 982.5,474 996.5,464 1010.5,454C 1011.73,452.817 1011.73,451.651 1010.5,450.5C 996.028,460.472 981.694,470.639 967.5,481C 947.276,479.369 931.109,486.535 919,502.5C 913.378,510.411 909.378,519.078 907,528.5C 906.333,542.833 906.333,557.167 907,571.5C 907.805,579.633 909.305,587.633 911.5,595.5C 904.32,600.684 896.32,604.351 887.5,606.5C 887.605,602.313 886.772,598.313 885,594.5C 866.898,570.526 858.231,543.526 859,513.5C 860.163,508.172 862.163,503.172 865,498.5C 868.708,494.623 872.542,490.957 876.5,487.5C 875.082,483.43 875.249,479.43 877,475.5C 882.617,467.281 888.951,459.614 896,452.5C 899.729,447.726 901.062,442.393 900,436.5C 895.187,420.027 886.687,405.86 874.5,394C 868.833,390.333 863.167,386.667 857.5,383C 870.815,380.491 883.149,382.824 894.5,390C 899.833,393.667 905.167,397.333 910.5,401C 911.725,401.563 912.725,401.23 913.5,400C 893.989,378.331 869.989,370.831 841.5,377.5 Z"/></g>
<g><path style="opacity:1" fill="#080601" d="M 916.5,358.5 C 922.734,357.373 927.568,359.373 931,364.5C 932.303,370.87 929.636,373.87 923,373.5C 915.228,373.07 911.895,369.07 913,361.5C 914.145,360.364 915.312,359.364 916.5,358.5 Z"/></g>
<g><path style="opacity:1" fill="#726815" d="M 839.5,374.5 C 839.285,376.179 839.952,377.179 841.5,377.5C 840.791,378.404 839.791,378.737 838.5,378.5C 838.232,376.901 838.566,375.568 839.5,374.5 Z"/></g>
<g><path style="opacity:1" fill="#f3df2d" d="M 783.5,414.5 C 788.857,414.621 793.857,415.955 798.5,418.5C 795.138,422.192 791.805,425.859 788.5,429.5C 784.848,425.188 783.181,420.188 783.5,414.5 Z"/></g>
<g><path style="opacity:1" fill="#f9e32e" d="M 801.5,420.5 C 804.157,420.162 806.49,420.829 808.5,422.5C 812.333,429.5 816.167,436.5 820,443.5C 822.869,446.268 826.202,448.268 830,449.5C 831.711,456.743 831.878,464.076 830.5,471.5C 830.608,475.327 831.442,478.993 833,482.5C 841.478,489.809 850.645,496.142 860.5,501.5C 858.319,505.206 856.819,509.206 856,513.5C 855.829,518.864 855.329,524.198 854.5,529.5C 843.616,522.642 832.116,516.975 820,512.5C 817.384,514.112 815.05,516.112 813,518.5C 810.5,521.667 808,524.833 805.5,528C 803.086,529.885 800.419,530.552 797.5,530C 792.713,524.258 788.047,518.425 783.5,512.5C 784.592,509.906 786.259,507.739 788.5,506C 794.167,501.833 799.833,497.667 805.5,493.5C 806.583,492.635 806.749,491.635 806,490.5C 802.869,483.737 798.036,478.57 791.5,475C 785.509,474.501 779.509,474.334 773.5,474.5C 773.465,467.154 774.465,459.987 776.5,453C 783.114,452.189 789.447,453.189 795.5,456C 798.482,456.498 801.482,456.665 804.5,456.5C 804.66,454.801 804.494,453.134 804,451.5C 799.667,447.167 795.333,442.833 791,438.5C 790.159,434.88 790.826,431.546 793,428.5C 795.729,425.601 798.562,422.934 801.5,420.5 Z"/></g>
<g><path style="opacity:1" fill="#695f13" d="M 767.5,454.5 C 769.265,453.539 771.265,453.205 773.5,453.5C 773.737,454.791 773.404,455.791 772.5,456.5C 771.448,454.744 769.781,454.077 767.5,454.5 Z"/></g>
<g><path style="opacity:1" fill="#f3de2d" d="M 767.5,454.5 C 769.781,454.077 771.448,454.744 772.5,456.5C 771.941,460.853 771.275,465.186 770.5,469.5C 768.217,469.392 766.217,468.559 764.5,467C 761.021,464.688 758.021,461.854 755.5,458.5C 758.891,455.645 762.891,454.312 767.5,454.5 Z"/></g>
<g><path style="opacity:1" fill="#171406" d="M 984.5,489.5 C 993.423,491.424 999.09,496.758 1001.5,505.5C 1001.38,506.894 1001.05,508.228 1000.5,509.5C 1005.14,512.31 1008.98,515.977 1012,520.5C 1013.06,526.83 1011.22,532.163 1006.5,536.5C 1011.17,541.636 1012.67,547.636 1011,554.5C 1010.22,556.286 1009.05,557.786 1007.5,559C 1002.88,561.298 998.551,563.965 994.5,567C 997.923,574.715 996.923,581.715 991.5,588C 979.167,594.833 966.833,601.667 954.5,608.5C 953.269,607.349 953.269,606.183 954.5,605C 966.167,598.667 977.833,592.333 989.5,586C 993.305,581.909 994.472,577.076 993,571.5C 992.581,570.328 991.915,569.328 991,568.5C 978.478,575.761 965.812,582.761 953,589.5C 951.743,589.15 951.409,588.483 952,587.5C 968.922,577.287 986.089,567.454 1003.5,558C 1008.22,554.746 1009.72,550.246 1008,544.5C 1007.22,541.924 1005.72,539.924 1003.5,538.5C 986.03,550.138 968.696,561.971 951.5,574C 950.517,574.591 949.85,574.257 949.5,573C 967.884,558.637 986.884,544.97 1006.5,532C 1011.6,523.98 1009.76,517.814 1001,513.5C 983.776,528.192 966.276,542.525 948.5,556.5C 948.167,556 947.833,555.5 947.5,555C 963.938,540.571 980.438,526.071 997,511.5C 999.9,505.077 998.4,499.91 992.5,496C 990.167,494.833 987.833,493.667 985.5,492.5C 970.681,506.819 956.014,521.319 941.5,536C 940.517,536.591 939.85,536.257 939.5,535C 954.021,519.313 969.021,504.146 984.5,489.5 Z"/></g>
<g><path style="opacity:1" fill="#e9d62b" d="M 784.5,519.5 C 787.493,522.501 790.159,525.835 792.5,529.5C 788.907,531.956 784.907,533.289 780.5,533.5C 781.229,528.649 782.562,523.982 784.5,519.5 Z"/></g>
<g><path style="opacity:1" fill="#fae42e" d="M 1125.5,556.5 C 1133.71,556.549 1141.04,559.049 1147.5,564C 1157.5,573.681 1164.67,585.181 1169,598.5C 1182.18,603.014 1191.51,611.68 1197,624.5C 1197.93,637.563 1197.43,650.563 1195.5,663.5C 1195.17,664.5 1194.83,665.5 1194.5,666.5C 1186.17,661.333 1177.83,656.167 1169.5,651C 1161.65,645.163 1156.15,637.663 1153,628.5C 1152.6,617.097 1152.93,605.764 1154,594.5C 1150.94,582.538 1143.77,574.038 1132.5,569C 1124.24,568.895 1119.07,573.061 1117,581.5C 1116.03,592.998 1117.03,604.331 1120,615.5C 1123.13,625.231 1126.47,634.897 1130,644.5C 1142.37,671.958 1153.37,699.958 1163,728.5C 1165.98,759.183 1152.15,772.683 1121.5,769C 1107.38,765.769 1094.04,760.602 1081.5,753.5C 1080.91,753.709 1080.41,754.043 1080,754.5C 1079.03,768.796 1072.87,780.296 1061.5,789C 1050.67,794.581 1040.33,800.914 1030.5,808C 1027.88,810.739 1025.38,813.573 1023,816.5C 1022.25,817.635 1022.42,818.635 1023.5,819.5C 1025.61,820.102 1027.77,820.435 1030,820.5C 1039.52,819.163 1049.02,817.663 1058.5,816C 1072.9,813.122 1083.74,817.955 1091,830.5C 1092.28,845.738 1088.94,860.072 1081,873.5C 1076.78,881.057 1071.78,888.057 1066,894.5C 1061.65,899.605 1060.65,905.272 1063,911.5C 1065.08,913.123 1067.25,914.623 1069.5,916C 1078.56,917.376 1087.56,919.043 1096.5,921C 1097.73,921.779 1098.73,922.779 1099.5,924C 1094.23,930.274 1088.06,935.441 1081,939.5C 1077.53,936.709 1074.03,933.875 1070.5,931C 1064.84,928.507 1059.51,925.507 1054.5,922C 1053.17,921.333 1051.83,921.333 1050.5,922C 1047.16,923.922 1044.32,926.422 1042,929.5C 1039.29,936.704 1036.96,944.037 1035,951.5C 1034.48,953.223 1033.48,954.556 1032,955.5C 1026.11,953.472 1020.28,951.306 1014.5,949C 1012.52,948.519 1011.19,947.353 1010.5,945.5C 1015.63,936.19 1022.13,927.857 1030,920.5C 1030.49,919.207 1030.66,917.873 1030.5,916.5C 1027.86,915.737 1025.19,915.57 1022.5,916C 1018.5,918.333 1014.5,920.667 1010.5,923C 1006.98,928.365 1002.98,933.365 998.5,938C 997.271,938.781 995.938,939.281 994.5,939.5C 987.56,936.696 980.893,933.363 974.5,929.5C 972.897,925.545 973.564,922.045 976.5,919C 983.112,915.352 989.612,911.519 996,907.5C 996.667,906.5 996.667,905.5 996,904.5C 991.523,902.015 987.689,898.848 984.5,895C 986.532,888.448 989.199,882.281 992.5,876.5C 997.543,878.689 1001.88,881.856 1005.5,886C 1017.86,893.643 1030.52,894.309 1043.5,888C 1052.37,877.596 1057.7,865.596 1059.5,852C 1059.09,843.753 1054.75,839.253 1046.5,838.5C 1030.78,844.263 1014.78,849.096 998.5,853C 986.192,853.756 974.859,850.756 964.5,844C 949.365,822.894 943.865,799.394 948,773.5C 949.163,760.001 955.329,749.501 966.5,742C 976.5,737.333 986.5,732.667 996.5,728C 1003.86,721.449 1006.86,713.282 1005.5,703.5C 1004.5,703.5 1003.5,703.5 1002.5,703.5C 1003.89,715.21 999.22,723.377 988.5,728C 977.728,732.552 967.394,737.886 957.5,744C 948.701,754.115 944.201,765.948 944,779.5C 942.773,796.245 945.273,812.412 951.5,828C 951.241,829.261 950.574,830.261 949.5,831C 941.013,834.395 934.346,839.895 929.5,847.5C 931.277,851.112 933.944,853.945 937.5,856C 942.331,857.61 946.997,859.61 951.5,862C 953.95,864.389 955.117,867.222 955,870.5C 949.318,873.507 943.651,876.507 938,879.5C 931.29,868.566 921.79,865.066 909.5,869C 904.833,870.667 900.167,872.333 895.5,874C 891.852,879.477 887.852,884.643 883.5,889.5C 877.782,886.314 872.448,882.648 867.5,878.5C 871.681,875.136 874.015,870.803 874.5,865.5C 872.473,865.338 870.473,865.505 868.5,866C 865.672,868.248 862.672,870.248 859.5,872C 857.741,872.798 856.074,872.631 854.5,871.5C 851.69,866.856 848.023,863.023 843.5,860C 847.898,857.729 852.564,856.062 857.5,855C 861.462,853.789 862.129,851.789 859.5,849C 855.848,848.501 852.182,848.335 848.5,848.5C 848.181,842.751 846.848,837.251 844.5,832C 844.759,830.739 845.426,829.739 846.5,829C 858.656,828.03 870.656,829.03 882.5,832C 897.175,833.581 909.675,829.081 920,818.5C 920.164,815.478 919.164,812.811 917,810.5C 908.667,802.833 900.333,795.167 892,787.5C 884.419,775.47 883.419,762.803 889,749.5C 900.512,724.997 919.512,709.664 946,703.5C 947.477,702.556 948.477,701.223 949,699.5C 950.207,692.327 948.873,685.66 945,679.5C 938.354,671.353 931.521,663.353 924.5,655.5C 927.367,654.226 930.367,653.393 933.5,653C 937.56,650.304 941.893,648.137 946.5,646.5C 951.011,648.921 955.677,651.088 960.5,653C 962.5,653.667 964.5,653.667 966.5,653C 972.848,646.464 978.348,639.297 983,631.5C 990.148,624.01 998.148,617.677 1007,612.5C 1008.48,613.444 1009.48,614.777 1010,616.5C 1016.06,649.694 1033.56,674.694 1062.5,691.5C 1073.85,706.031 1080.18,722.531 1081.5,741C 1095.31,748.907 1109.98,754.574 1125.5,758C 1134.02,759.948 1141.52,758.114 1148,752.5C 1152.71,744.678 1153.71,736.345 1151,727.5C 1139.92,697.928 1128.25,668.595 1116,639.5C 1109.65,623.251 1105.82,606.417 1104.5,589C 1104.91,573.632 1111.91,562.799 1125.5,556.5 Z"/></g>
<g><path style="opacity:1" fill="#f1de2d" d="M 784.5,581.5 C 790.693,582.175 796.026,584.675 800.5,589C 796.311,592.69 791.978,596.19 787.5,599.5C 784.948,593.797 783.948,587.797 784.5,581.5 Z"/></g>
<g><path style="opacity:1" fill="#f3e02d" d="M 770.5,623.5 C 772.5,623.5 774.5,623.5 776.5,623.5C 775.671,628.453 775.337,633.453 775.5,638.5C 769.8,637.138 765.133,634.138 761.5,629.5C 764.357,627.242 767.357,625.242 770.5,623.5 Z"/></g>
<g><path style="opacity:1" fill="#f6e32e" d="M 785.5,666.5 C 788.608,669.328 791.275,672.662 793.5,676.5C 791.78,677.934 789.78,678.767 787.5,679C 783.833,679.667 780.167,679.667 776.5,679C 778.897,674.363 781.897,670.196 785.5,666.5 Z"/></g>
<g><path style="opacity:1" fill="#f0dd2d" d="M 872.5,691.5 C 873.816,694.087 874.483,697.087 874.5,700.5C 874.333,703.5 874.167,706.5 874,709.5C 873.692,710.308 873.192,710.975 872.5,711.5C 867.362,708.195 862.362,704.695 857.5,701C 862.227,697.309 867.227,694.142 872.5,691.5 Z"/></g>
<g><path style="opacity:1" fill="#ca2128" d="M 959.5,843.5 C 959.826,852.017 959.493,860.35 958.5,868.5C 957.647,864.63 955.647,861.464 952.5,859C 947.167,856.667 941.833,854.333 936.5,852C 934.981,850.649 933.648,849.149 932.5,847.5C 938.055,841.052 944.721,836.052 952.5,832.5C 955.221,835.894 957.554,839.561 959.5,843.5 Z"/></g>
<g><path style="opacity:1" fill="#f3df2d" d="M 839.5,833.5 C 841.411,833.574 842.578,834.574 843,836.5C 844.199,839.726 844.699,843.059 844.5,846.5C 839.783,846.473 835.783,844.806 832.5,841.5C 834.169,838.17 836.502,835.503 839.5,833.5 Z"/></g>
<g><path style="opacity:1" fill="#f1de2d" d="M 842.5,876.5 C 840.219,876.923 838.552,876.256 837.5,874.5C 838.595,870.389 840.595,866.722 843.5,863.5C 846.861,865.895 849.528,868.895 851.5,872.5C 849.137,875.18 846.137,876.513 842.5,876.5 Z"/></g>
<g><path style="opacity:1" fill="#988a1c" d="M 837.5,874.5 C 838.552,876.256 840.219,876.923 842.5,876.5C 840.735,877.461 838.735,877.795 836.5,877.5C 836.263,876.209 836.596,875.209 837.5,874.5 Z"/></g>
<g><path style="opacity:1" fill="#f3e02d" d="M 952.5,874.5 C 955.246,880.499 954.746,886.499 951,892.5C 947.451,889.287 944.284,885.787 941.5,882C 945.203,879.488 948.869,876.988 952.5,874.5 Z"/></g>
<g><path style="opacity:1" fill="#f1dd2d" d="M 979.5,876.5 C 982.572,876.183 985.572,876.516 988.5,877.5C 986.498,881.843 984.498,886.177 982.5,890.5C 979.171,887.67 976.838,884.17 975.5,880C 976.686,878.588 978.019,877.421 979.5,876.5 Z"/></g>
<g><path style="opacity:1" fill="#ecda2c" d="M 867.5,883.5 C 871.282,885.225 874.948,887.225 878.5,889.5C 874.707,892.654 870.374,894.654 865.5,895.5C 865.191,891.295 865.857,887.295 867.5,883.5 Z"/></g>
<g><path style="opacity:1" fill="#edda2c" d="M 1096.5,930.5 C 1098.41,930.574 1099.58,931.574 1100,933.5C 1101.77,937.313 1102.61,941.313 1102.5,945.5C 1097.14,944.826 1092.14,943.159 1087.5,940.5C 1090.52,937.147 1093.52,933.813 1096.5,930.5 Z"/></g>
<g><path style="opacity:1" fill="#f0dc2d" d="M 975.5,934.5 C 979.697,935.596 983.697,937.262 987.5,939.5C 988.521,940.002 988.688,940.668 988,941.5C 984.524,944.324 980.69,946.157 976.5,947C 975.536,942.934 975.203,938.767 975.5,934.5 Z"/></g>
<g><path style="opacity:1" fill="#766d16" d="M 1015.5,952.5 C 1013.66,954.279 1012.99,956.612 1013.5,959.5C 1012.53,957.052 1012.19,954.385 1012.5,951.5C 1013.79,951.263 1014.79,951.596 1015.5,952.5 Z"/></g>
<g><path style="opacity:1" fill="#f6e22e" d="M 1015.5,952.5 C 1019.64,953.771 1023.64,955.438 1027.5,957.5C 1024.16,960.841 1020.16,963.174 1015.5,964.5C 1014.44,962.978 1013.77,961.312 1013.5,959.5C 1012.99,956.612 1013.66,954.279 1015.5,952.5 Z"/></g>
<g><path style="opacity:1" fill="#bd2531" d="M 959.5,843.5 C 960.167,843.5 960.5,843.833 960.5,844.5C 960.5,909.5 960.5,974.5 960.5,1039.5C 959.599,1038.71 958.932,1037.71 958.5,1036.5C 959.833,981.833 959.833,927.167 958.5,872.5C 958.5,871.167 958.5,869.833 958.5,868.5C 959.493,860.35 959.826,852.017 959.5,843.5 Z"/></g>
</svg>
