<?xml version="1.0" encoding="UTF-8"?>
<!DOCTYPE svg PUBLIC "-//W3C//DTD SVG 1.1//EN" "http://www.w3.org/Graphics/SVG/1.1/DTD/svg11.dtd">
<svg xmlns="http://www.w3.org/2000/svg" version="1.1" width="1200px" height="1449px" style="shape-rendering:geometricPrecision; text-rendering:geometricPrecision; image-rendering:optimizeQuality; fill-rule:evenodd; clip-rule:evenodd" xmlns:xlink="http://www.w3.org/1999/xlink">
<g><path style="opacity:0.988" fill="#e8a90f" d="M 34.5,-0.5 C 37.1667,-0.5 39.8333,-0.5 42.5,-0.5C 98.3946,9.50825 154.728,17.3416 211.5,23C 251.21,25.2258 290.876,24.5592 330.5,21C 409.313,13.7507 487.98,6.58402 566.5,-0.5C 587.833,-0.5 609.167,-0.5 630.5,-0.5C 705.711,5.98633 781.044,12.8197 856.5,20C 911.18,25.8306 965.847,25.8306 1020.5,20C 1066.11,14.0336 1111.44,7.20029 1156.5,-0.5C 1159.5,-0.5 1162.5,-0.5 1165.5,-0.5C 1165.82,7.21573 1166.65,14.8824 1168,22.5C 1174.85,61.4202 1181.18,100.42 1187,139.5C 1192.56,187.202 1196.72,234.869 1199.5,282.5C 1199.5,325.833 1199.5,369.167 1199.5,412.5C 1190.72,658.028 1120.89,884.362 990,1091.5C 943.397,1163.48 889.23,1229.64 827.5,1290C 781.909,1330.94 734.576,1369.6 685.5,1406C 659.575,1422.3 632.575,1436.46 604.5,1448.5C 601.167,1448.5 597.833,1448.5 594.5,1448.5C 565.897,1436.37 538.564,1421.87 512.5,1405C 461.42,1366.6 412.086,1325.93 364.5,1283C 269.943,1188.08 193.443,1080.25 135,959.5C 63.5698,812.522 20.5698,657.522 6,494.5C 3.27054,463.715 1.10387,433.049 -0.5,402.5C -0.5,365.833 -0.5,329.167 -0.5,292.5C 2.21069,239.84 6.71069,187.173 13,134.5C 20.3848,89.525 27.5515,44.525 34.5,-0.5 Z"/></g>
<g><path style="opacity:1" fill="#7b1e20" d="M 571.5,29.5 C 593.844,29.4789 616.178,29.9789 638.5,31C 701.134,37.2634 763.801,43.2634 826.5,49C 902.513,56.2987 978.513,56.2987 1054.5,49C 1082.75,45.6067 1110.75,40.7734 1138.5,34.5C 1139.65,34.8178 1140.48,35.4844 1141,36.5C 1154.82,92.6978 1163.48,149.698 1167,207.5C 1184.1,399.034 1164.77,586.701 1109,770.5C 1062.71,921.794 990.372,1058.46 892,1180.5C 827.838,1258.01 754.338,1324.85 671.5,1381C 651.443,1393.36 630.776,1404.7 609.5,1415C 604.363,1417.25 599.03,1417.91 593.5,1417C 549.03,1395.84 507.696,1369.84 469.5,1339C 347.138,1240.01 249.971,1120.84 178,981.5C 91.5334,812.852 42.2,633.852 30,444.5C 26.2444,390.539 25.5777,336.539 28,282.5C 33.464,199.726 42.6307,117.392 55.5,35.5C 132.049,51.1506 209.382,56.984 287.5,53C 329.902,51.4236 372.236,48.757 414.5,45C 466.993,39.9468 519.327,34.7801 571.5,29.5 Z"/></g>
<g><path style="opacity:1" fill="#fefafd" d="M 556.5,65.5 C 592.529,65.1254 628.529,65.9588 664.5,68C 738.456,74.1801 812.456,79.8467 886.5,85C 940.505,89.5425 994.505,89.5425 1048.5,85C 1069.36,82.3781 1090.03,78.8781 1110.5,74.5C 1129.18,172.264 1137.51,270.931 1135.5,370.5C 778.5,370.5 421.5,370.5 64.5,370.5C 61.4723,271.812 68.139,173.812 84.5,76.5C 144.526,84.8436 204.859,88.3436 265.5,87C 362.907,83.2552 459.907,76.0886 556.5,65.5 Z"/></g>
<g><path style="opacity:1" fill="#e8a915" d="M 353.5,126.5 C 397.638,124.651 428.472,143.984 446,184.5C 462.537,228.734 457.204,270.068 430,308.5C 401.497,340.944 367.664,348.111 328.5,330C 297.982,309.828 281.149,281.328 278,244.5C 274.962,211.622 283.629,182.288 304,156.5C 317.41,141.22 333.91,131.22 353.5,126.5 Z"/></g>
<g><path style="opacity:1" fill="#e8a915" d="M 972.5,126.5 C 1010.01,123.874 1038.51,138.541 1058,170.5C 1077.3,206.395 1079.64,243.395 1065,281.5C 1055.01,305.159 1038.51,322.659 1015.5,334C 970.53,347.233 936.03,333.733 912,293.5C 890.333,250.906 891.333,208.906 915,167.5C 928.875,146.321 948.042,132.654 972.5,126.5 Z"/></g>
<g><path style="opacity:1" fill="#e7a815" d="M 632.5,338.5 C 611.673,339.497 590.673,339.831 569.5,339.5C 560.242,314.896 551.075,290.229 542,265.5C 534.587,264.519 527.087,264.186 519.5,264.5C 519.5,289.833 519.5,315.167 519.5,340.5C 501.167,340.5 482.833,340.5 464.5,340.5C 464.5,269.5 464.5,198.5 464.5,127.5C 502.501,127.333 540.501,127.5 578.5,128C 603.331,135.502 618.497,152.002 624,177.5C 625.019,192.254 624.353,206.921 622,221.5C 618.505,234.672 611.005,244.838 599.5,252C 610.936,280.699 621.936,309.533 632.5,338.5 Z"/></g>
<g><path style="opacity:1" fill="#e8aa14" d="M 719.5,128.5 C 735.167,128.5 750.833,128.5 766.5,128.5C 766.264,131.226 767.097,133.559 769,135.5C 789.91,162.988 810.577,190.655 831,218.5C 831.5,188.502 831.667,158.502 831.5,128.5C 850.167,128.5 868.833,128.5 887.5,128.5C 887.5,199.167 887.5,269.833 887.5,340.5C 870.154,340.833 852.821,340.5 835.5,339.5C 815.141,312.975 794.975,286.308 775,259.5C 774.5,286.165 774.333,312.831 774.5,339.5C 756.167,339.5 737.833,339.5 719.5,339.5C 719.5,269.167 719.5,198.833 719.5,128.5 Z"/></g>
<g><path style="opacity:1" fill="#e7a819" d="M 124.5,129.5 C 175.167,129.5 225.833,129.5 276.5,129.5C 276.5,150.167 276.5,170.833 276.5,191.5C 260.167,191.5 243.833,191.5 227.5,191.5C 227.5,241.167 227.5,290.833 227.5,340.5C 208.924,340.826 190.424,340.493 172,339.5C 171.5,290.168 171.333,240.834 171.5,191.5C 155.833,191.5 140.167,191.5 124.5,191.5C 124.5,170.833 124.5,150.167 124.5,129.5 Z"/></g>
<g><path style="opacity:1" fill="#e9aa13" d="M 643.5,128.5 C 661.833,128.5 680.167,128.5 698.5,128.5C 698.5,199.167 698.5,269.833 698.5,340.5C 680.167,340.5 661.833,340.5 643.5,340.5C 643.5,269.833 643.5,199.167 643.5,128.5 Z"/></g>
<g><path style="opacity:1" fill="#7b1e1f" d="M 354.5,136.5 C 392.035,134.68 418.869,150.68 435,184.5C 450.591,221.507 448.591,257.507 429,292.5C 404.195,329.103 371.695,338.27 331.5,320C 307.589,303.37 293.422,280.537 289,251.5C 282.775,210.831 294.942,176.998 325.5,150C 334.496,143.833 344.162,139.333 354.5,136.5 Z"/></g>
<g><path style="opacity:1" fill="#7b1e1f" d="M 973.5,136.5 C 1008.34,134.165 1034.17,148.165 1051,178.5C 1069.74,216.998 1068.74,254.998 1048,292.5C 1023.15,329.121 990.647,338.288 950.5,320C 926.328,303.192 912.161,280.026 908,250.5C 902.223,210.818 914.056,177.652 943.5,151C 952.655,144.255 962.655,139.422 973.5,136.5 Z"/></g>
<g><path style="opacity:1" fill="#7b1f1f" d="M 474.5,136.5 C 507.502,136.333 540.502,136.5 573.5,137C 596.811,142.314 610.644,156.814 615,180.5C 616.524,197.31 614.524,213.643 609,229.5C 604.345,238.079 597.178,243.079 587.5,244.5C 597.763,272.953 608.43,301.286 619.5,329.5C 605.178,330.666 590.845,330.833 576.5,330C 567.27,305.478 557.936,280.978 548.5,256.5C 535.851,255.501 523.184,255.168 510.5,255.5C 510.5,280.5 510.5,305.5 510.5,330.5C 498.5,330.5 486.5,330.5 474.5,330.5C 474.5,265.833 474.5,201.167 474.5,136.5 Z"/></g>
<g><path style="opacity:1" fill="#7b1e1f" d="M 839.5,246.5 C 839.56,247.043 839.893,247.376 840.5,247.5C 841.5,210.839 841.833,174.173 841.5,137.5C 853.833,137.5 866.167,137.5 878.5,137.5C 878.5,201.833 878.5,266.167 878.5,330.5C 865.829,330.667 853.162,330.5 840.5,330C 815.703,297.56 791.036,265.06 766.5,232.5C 766.217,231.711 765.717,231.044 765,230.5C 764.5,263.498 764.333,296.498 764.5,329.5C 752.5,329.5 740.5,329.5 728.5,329.5C 728.5,265.5 728.5,201.5 728.5,137.5C 738.839,137.334 749.172,137.5 759.5,138C 786.384,174.044 813.051,210.211 839.5,246.5 Z"/></g>
<g><path style="opacity:1" fill="#89301d" d="M 841.5,137.5 C 841.833,174.173 841.5,210.839 840.5,247.5C 839.893,247.376 839.56,247.043 839.5,246.5C 840.167,210.167 840.833,173.833 841.5,137.5 Z"/></g>
<g><path style="opacity:1" fill="#ab5c18" d="M 689.5,138.5 C 677.5,138.5 665.5,138.5 653.5,138.5C 653.5,202.5 653.5,266.5 653.5,330.5C 652.501,266.335 652.168,202.002 652.5,137.5C 665.011,137.171 677.345,137.505 689.5,138.5 Z"/></g>
<g><path style="opacity:1" fill="#7a1e1f" d="M 689.5,138.5 C 689.5,202.5 689.5,266.5 689.5,330.5C 677.5,330.5 665.5,330.5 653.5,330.5C 653.5,266.5 653.5,202.5 653.5,138.5C 665.5,138.5 677.5,138.5 689.5,138.5 Z"/></g>
<g><path style="opacity:1" fill="#7b1e1f" d="M 134.5,139.5 C 178.5,139.5 222.5,139.5 266.5,139.5C 266.5,153.5 266.5,167.5 266.5,181.5C 250.167,181.5 233.833,181.5 217.5,181.5C 217.5,230.833 217.5,280.167 217.5,329.5C 205.833,329.5 194.167,329.5 182.5,329.5C 182.5,280.167 182.5,230.833 182.5,181.5C 166.5,181.5 150.5,181.5 134.5,181.5C 134.5,167.5 134.5,153.5 134.5,139.5 Z"/></g>
<g><path style="opacity:1" fill="#e8a910" d="M 510.5,171.5 C 529.836,171.333 549.17,171.5 568.5,172C 580.391,175.269 586.391,183.102 586.5,195.5C 586.871,207.948 581.204,216.114 569.5,220C 549.836,220.5 530.169,220.667 510.5,220.5C 510.5,204.167 510.5,187.833 510.5,171.5 Z"/></g>
<g><path style="opacity:1" fill="#e7a814" d="M 357.5,179.5 C 375.99,177.328 389.823,184.328 399,200.5C 410.469,224.63 410.135,248.63 398,272.5C 383.542,294.325 365.376,298.158 343.5,284C 333.221,273.608 327.054,261.108 325,246.5C 321.899,225.565 326.899,206.899 340,190.5C 345.228,185.752 351.061,182.086 357.5,179.5 Z"/></g>
<g><path style="opacity:1" fill="#e7a814" d="M 978.5,179.5 C 999.265,178.096 1013.43,187.096 1021,206.5C 1029.13,229.085 1027.8,251.085 1017,272.5C 1002.56,294.321 984.389,298.155 962.5,284C 945.69,265.268 939.856,243.435 945,218.5C 948.969,199.05 960.135,186.05 978.5,179.5 Z"/></g>
<g><path style="opacity:1" fill="#fef9fb" d="M 519.5,180.5 C 535.17,180.333 550.837,180.5 566.5,181C 577.751,186.037 580.584,194.204 575,205.5C 572.9,208.467 570.066,210.3 566.5,211C 550.837,211.5 535.17,211.667 519.5,211.5C 519.5,201.167 519.5,190.833 519.5,180.5 Z"/></g>
<g><path style="opacity:1" fill="#fefafd" d="M 359.5,189.5 C 372.448,187.754 382.281,192.42 389,203.5C 396.134,217.332 398.468,231.998 396,247.5C 394.201,262.298 387.034,273.465 374.5,281C 358.245,283.953 346.745,277.786 340,262.5C 331.535,241.431 332.869,221.098 344,201.5C 348.211,196.106 353.377,192.106 359.5,189.5 Z"/></g>
<g><path style="opacity:1" fill="#fefafd" d="M 979.5,189.5 C 990.446,188.201 999.28,191.868 1006,200.5C 1020.1,224.692 1019.76,248.692 1005,272.5C 990.021,286.579 976.021,285.579 963,269.5C 951.737,248.96 950.737,227.96 960,206.5C 964.546,198.445 971.046,192.779 979.5,189.5 Z"/></g>
<g><path style="opacity:1" fill="#cf8914" d="M 766.5,232.5 C 765.502,264.996 765.168,297.662 765.5,330.5C 752.989,330.829 740.655,330.495 728.5,329.5C 740.5,329.5 752.5,329.5 764.5,329.5C 764.333,296.498 764.5,263.498 765,230.5C 765.717,231.044 766.217,231.711 766.5,232.5 Z"/></g>
<g><path style="opacity:1" fill="#f5d58f" d="M 632.5,338.5 C 633.043,338.56 633.376,338.893 633.5,339.5C 612.004,340.828 590.67,340.828 569.5,339.5C 590.673,339.831 611.673,339.497 632.5,338.5 Z"/></g>
<g><path style="opacity:1" fill="#fefdfd" d="M 608.5,1015.5 C 606.5,1016.17 604.5,1016.83 602.5,1017.5C 565.201,1020.16 527.868,1022.33 490.5,1024C 481.567,1024.69 472.9,1026.36 464.5,1029C 466.357,1030.18 467.357,1031.85 467.5,1034C 467.018,1040.92 466.185,1047.75 465,1054.5C 463.833,1056.33 462.333,1057.83 460.5,1059C 451.015,1058.79 443.515,1062.62 438,1070.5C 432.503,1085.85 421.67,1095.02 405.5,1098C 397.812,1099.84 390.146,1099.84 382.5,1098C 376.436,1095.09 370.769,1091.59 365.5,1087.5C 364.515,1085.9 364.349,1084.24 365,1082.5C 376.174,1065.48 387.841,1048.82 400,1032.5C 414.226,1014.93 431.393,1001.1 451.5,991C 463.032,985.509 475.032,984.176 487.5,987C 497.577,989.916 507.744,992.416 518,994.5C 530.346,993.66 538.346,987.326 542,975.5C 544.08,964.772 543.747,954.106 541,943.5C 538.841,935.196 536.841,926.863 535,918.5C 534.333,910.833 534.333,903.167 535,895.5C 535.145,891.015 535.978,886.682 537.5,882.5C 542.392,880.187 547.392,878.02 552.5,876C 564.174,876.224 575.84,876.557 587.5,877C 598.533,872.772 601.699,865.272 597,854.5C 593.66,847.492 589.16,841.326 583.5,836C 576.998,832.25 570.665,828.25 564.5,824C 556.828,815.323 550.328,805.823 545,795.5C 544.448,783.561 550.281,778.227 562.5,779.5C 572.853,780.447 583.186,781.614 593.5,783C 600.473,784.043 606.807,786.543 612.5,790.5C 612.833,790.167 613.167,789.833 613.5,789.5C 607.154,782.655 599.487,777.822 590.5,775C 562.47,769.826 535.136,762.159 508.5,752C 494.239,744.065 480.239,735.731 466.5,727C 463.203,724.705 460.203,722.038 457.5,719C 456.167,718.333 454.833,718.333 453.5,719C 451.354,721.795 450.187,724.961 450,728.5C 449.833,732.833 449.667,737.167 449.5,741.5C 451.154,766.52 452.654,791.52 454,816.5C 453.121,821.136 451.455,825.469 449,829.5C 448.667,834.5 448.333,839.5 448,844.5C 441.386,850.362 433.886,852.196 425.5,850C 422.117,846.731 419.617,842.897 418,838.5C 419.306,818.669 415.973,799.669 408,781.5C 404.856,768.669 403.856,755.669 405,742.5C 405.438,739.624 406.438,736.957 408,734.5C 413.677,727.482 420.511,721.982 428.5,718C 429.451,717.282 429.617,716.449 429,715.5C 423.786,713.123 418.286,712.123 412.5,712.5C 402.383,713.015 392.383,714.182 382.5,716C 379.213,719.293 376.713,723.127 375,727.5C 372.786,739.8 370.953,752.133 369.5,764.5C 368.566,765.568 368.232,766.901 368.5,768.5C 365.287,768.19 362.287,768.523 359.5,769.5C 351.486,770.502 343.486,771.669 335.5,773C 328.167,773.667 320.833,773.667 313.5,773C 306.076,770.075 304.576,765.242 309,758.5C 316.405,751.765 323.072,744.432 329,736.5C 334.114,727.157 336.781,717.157 337,706.5C 345.664,690.752 358.831,681.252 376.5,678C 387.901,675.72 399.401,674.22 411,673.5C 426.146,673.862 440.646,677.029 454.5,683C 456.617,684.731 458.117,686.898 459,689.5C 460.961,692.135 463.461,693.969 466.5,695C 473.5,695.667 480.5,695.667 487.5,695C 491.005,694.343 494.005,692.843 496.5,690.5C 495.91,689.201 494.91,688.368 493.5,688C 486.079,686.311 478.746,684.311 471.5,682C 468.293,680.865 466.959,678.865 467.5,676C 490.018,675.379 511.685,679.379 532.5,688C 537.152,689.193 541.319,688.36 545,685.5C 545.875,684.127 546.375,682.627 546.5,681C 544.096,674.456 542.096,667.789 540.5,661C 541.402,653.364 544.568,646.864 550,641.5C 554.214,637.618 558.714,634.118 563.5,631C 566.704,628.131 569.537,624.965 572,621.5C 572.743,619.559 572.576,617.726 571.5,616C 565.588,616.208 560.755,618.708 557,623.5C 551.88,632.287 545.047,639.453 536.5,645C 534.5,645.667 532.5,646.333 530.5,647C 512.756,643.451 500.589,649.951 494,666.5C 485.363,672.993 476.53,673.159 467.5,667C 463.511,667.107 460.011,665.941 457,663.5C 452.667,654.17 450.5,644.337 450.5,634C 452.271,598.146 456.771,562.646 464,527.5C 466.319,517.696 470.152,508.529 475.5,500C 474.964,498.623 473.964,498.623 472.5,500C 469.02,502.646 465.686,505.479 462.5,508.5C 456.129,503.429 452.629,496.762 452,488.5C 450.503,477.856 449.169,467.189 448,456.5C 447.269,448.798 447.436,441.131 448.5,433.5C 454.632,434.817 459.799,437.817 464,442.5C 471.284,452.785 478.95,462.785 487,472.5C 487.115,470.893 486.615,469.393 485.5,468C 486.994,460.513 489.327,453.346 492.5,446.5C 495.58,447.789 498.414,449.455 501,451.5C 503.207,459.326 505.873,466.992 509,474.5C 513.692,480.531 519.525,485.031 526.5,488C 535.201,491.678 544.201,494.345 553.5,496C 580.426,496.922 607.093,499.922 633.5,505C 639.5,505.333 645.5,505.667 651.5,506C 655.112,507.139 658.446,508.806 661.5,511C 670.645,518.407 680.311,525.074 690.5,531C 697.53,537.547 702.697,545.381 706,554.5C 716.188,580.623 722.854,607.623 726,635.5C 727.953,659.168 729.953,682.834 732,706.5C 735.875,731.999 739.708,757.499 743.5,783C 743.333,785.167 743.167,787.333 743,789.5C 738.747,770.74 734.081,752.073 729,733.5C 727.857,730.085 726.19,729.751 724,732.5C 720.545,738.778 718.212,745.445 717,752.5C 715.696,767.016 716.696,781.35 720,795.5C 728.483,819.478 740.816,841.145 757,860.5C 765.101,869.69 773.434,878.69 782,887.5C 781.968,885.402 781.301,883.402 780,881.5C 770.575,866.99 761.909,851.99 754,836.5C 749.666,826.498 746.333,816.164 744,805.5C 743.18,803.272 743.513,801.272 745,799.5C 752.635,816.107 761.302,832.107 771,847.5C 780.579,859.47 790.746,870.97 801.5,882C 808.225,887.031 815.558,891.031 823.5,894C 833.241,895.065 842.574,893.565 851.5,889.5C 852.584,888.335 853.417,887.002 854,885.5C 854.667,880.5 854.667,875.5 854,870.5C 839.177,842.174 822.843,814.84 805,788.5C 803.699,786.598 803.032,784.598 803,782.5C 814,797.5 825,812.5 836,827.5C 842.2,835.212 848.866,842.545 856,849.5C 861.284,857.119 866.951,864.452 873,871.5C 883.875,897.992 885.208,924.992 877,952.5C 876.535,953.931 875.701,955.097 874.5,956C 870.286,958.274 865.953,960.274 861.5,962C 854.167,961.667 846.833,961.333 839.5,961C 835.427,963.475 833.427,967.142 833.5,972C 837.117,985.653 835.95,998.82 830,1011.5C 826.748,1016.33 823.748,1021.33 821,1026.5C 818.071,1027.28 816.404,1025.94 816,1022.5C 815.177,1015.38 814.177,1008.38 813,1001.5C 812.836,1007.97 811.836,1014.3 810,1020.5C 807.116,1024.43 804.616,1028.6 802.5,1033C 802.93,1034.43 803.764,1035.6 805,1036.5C 805.781,1037.94 805.614,1039.28 804.5,1040.5C 799.68,1044.75 794.347,1048.25 788.5,1051C 781.393,1056.21 778.06,1063.21 778.5,1072C 779.17,1079.99 780.336,1087.83 782,1095.5C 779.002,1093.92 775.835,1092.75 772.5,1092C 769.398,1089.03 768.065,1085.37 768.5,1081C 769.209,1076.5 769.376,1072 769,1067.5C 768.535,1066.07 767.701,1064.9 766.5,1064C 762.625,1062.48 758.625,1062.15 754.5,1063C 747.933,1067.21 746.766,1072.71 751,1079.5C 757.064,1088.79 765.231,1095.62 775.5,1100C 779.002,1100.69 782.336,1100.19 785.5,1098.5C 788.547,1098.97 791.381,1099.97 794,1101.5C 799.557,1111.16 801.557,1121.5 800,1132.5C 799.18,1139.32 795.346,1142.49 788.5,1142C 786.359,1143.31 784.359,1144.81 782.5,1146.5C 776.259,1153.98 770.759,1161.98 766,1170.5C 757.863,1185.77 750.53,1201.44 744,1217.5C 741.349,1227.37 739.349,1237.37 738,1247.5C 729.409,1265.05 715.242,1272.55 695.5,1270C 686.893,1272.15 678.227,1273.99 669.5,1275.5C 659.047,1274.63 654.88,1268.96 657,1258.5C 661.005,1246.98 667.172,1236.82 675.5,1228C 681.206,1225.58 686.039,1222.08 690,1217.5C 690.667,1216.17 691.333,1214.83 692,1213.5C 689.996,1203.53 691.663,1194.19 697,1185.5C 706.357,1170.79 716.691,1156.79 728,1143.5C 732.709,1135.91 737.542,1128.41 742.5,1121C 736.546,1113.59 730.713,1106.09 725,1098.5C 703.503,1078.35 685.836,1055.35 672,1029.5C 668.633,1025.8 664.966,1022.46 661,1019.5C 655.37,1009.57 652.037,998.902 651,987.5C 647.054,978.504 644.22,978.504 642.5,987.5C 644.162,994.823 645.829,1002.16 647.5,1009.5C 647.311,1017.27 643.311,1020.94 635.5,1020.5C 629.815,1020.41 625.315,1018.07 622,1013.5C 621.725,1007.15 621.725,1000.82 622,994.5C 617.956,990.499 614.623,991.165 612,996.5C 612.465,1003.08 610.965,1009.08 607.5,1014.5C 607.624,1015.11 607.957,1015.44 608.5,1015.5 Z"/></g>
<g><path style="opacity:1" fill="#c98014" d="M 900.5,449.5 C 852.5,449.5 804.5,449.5 756.5,449.5C 756.5,509.5 756.5,569.5 756.5,629.5C 775.833,629.5 795.167,629.5 814.5,629.5C 795.007,630.497 775.34,630.83 755.5,630.5C 755.5,569.833 755.5,509.167 755.5,448.5C 804.003,448.168 852.336,448.501 900.5,449.5 Z"/></g>
<g><path style="opacity:1" fill="#e8a916" d="M 900.5,449.5 C 900.5,466.167 900.5,482.833 900.5,499.5C 871.5,499.5 842.5,499.5 813.5,499.5C 813.5,504.833 813.5,510.167 813.5,515.5C 829.5,515.5 845.5,515.5 861.5,515.5C 861.5,532.167 861.5,548.833 861.5,565.5C 845.833,565.5 830.167,565.5 814.5,565.5C 814.5,586.833 814.5,608.167 814.5,629.5C 795.167,629.5 775.833,629.5 756.5,629.5C 756.5,569.5 756.5,509.5 756.5,449.5C 804.5,449.5 852.5,449.5 900.5,449.5 Z"/></g>
<g><path style="opacity:1" fill="#fefefe" d="M 133.5,451.5 C 137.5,451.5 141.5,451.5 145.5,451.5C 145.5,477.167 145.5,502.833 145.5,528.5C 141.5,528.5 137.5,528.5 133.5,528.5C 133.5,502.833 133.5,477.167 133.5,451.5 Z"/></g>
<g><path style="opacity:1" fill="#fcfafa" d="M 183.5,450.5 C 195.309,448.992 205.143,452.659 213,461.5C 214.908,464.215 216.241,467.215 217,470.5C 221.475,497.058 211.642,515.891 187.5,527C 182.705,529.033 177.705,529.866 172.5,529.5C 172.384,526.14 172.051,522.807 171.5,519.5C 185.795,517.533 196.462,510.367 203.5,498C 203.167,497.5 202.833,497 202.5,496.5C 200.459,497.236 198.459,498.069 196.5,499C 189.833,499.667 183.167,499.667 176.5,499C 161.361,493.554 156.194,483.054 161,467.5C 166.077,458.553 173.577,452.886 183.5,450.5 Z"/></g>
<g><path style="opacity:1" fill="#e7a915" d="M 985.5,450.5 C 1022.74,449.112 1050.07,464.779 1067.5,497.5C 1052.34,502.749 1037,507.415 1021.5,511.5C 1010.18,500.555 997.509,498.722 983.5,506C 971.828,518.336 967.995,532.836 972,549.5C 979.62,579.319 996.286,585.986 1022,569.5C 1037.5,573.418 1053,577.418 1068.5,581.5C 1047.04,621.399 1014.37,635.899 970.5,625C 939.812,610.955 921.978,587.121 917,553.5C 912.76,516.832 924.927,486.999 953.5,464C 963.454,457.515 974.121,453.015 985.5,450.5 Z"/></g>
<g><path style="opacity:1" fill="#fcf9f9" d="M 254.5,451.5 C 271.499,450.234 282.665,457.567 288,473.5C 288.667,483.167 288.667,492.833 288,502.5C 285.165,519.168 275.331,528.501 258.5,530.5C 244.165,528.004 234.999,519.671 231,505.5C 229.861,493.369 230.528,481.369 233,469.5C 237.322,460.005 244.488,454.005 254.5,451.5 Z"/></g>
<g><path style="opacity:1" fill="#fcfafa" d="M 340.5,451.5 C 342.5,451.5 344.5,451.5 346.5,451.5C 347.192,454.897 347.192,458.23 346.5,461.5C 332.835,464.643 322.501,472.143 315.5,484C 315.833,484.5 316.167,485 316.5,485.5C 327.02,480.495 337.687,480.328 348.5,485C 358.768,491.05 362.268,499.884 359,511.5C 350.187,528.644 336.354,534.478 317.5,529C 309.071,525.571 303.904,519.404 302,510.5C 297.795,479.55 310.629,459.883 340.5,451.5 Z"/></g>
<g><path style="opacity:1" fill="#f1da9e" d="M 766.5,459.5 C 766.5,512.833 766.5,566.167 766.5,619.5C 779.167,619.5 791.833,619.5 804.5,619.5C 791.677,620.495 778.677,620.829 765.5,620.5C 765.168,566.664 765.501,512.997 766.5,459.5 Z"/></g>
<g><path style="opacity:1" fill="#f7fafc" d="M 766.5,459.5 C 807.833,459.5 849.167,459.5 890.5,459.5C 890.5,469.167 890.5,478.833 890.5,488.5C 861.5,488.5 832.5,488.5 803.5,488.5C 803.5,501.167 803.5,513.833 803.5,526.5C 819.5,526.5 835.5,526.5 851.5,526.5C 851.5,535.833 851.5,545.167 851.5,554.5C 835.833,554.5 820.167,554.5 804.5,554.5C 804.5,576.167 804.5,597.833 804.5,619.5C 791.833,619.5 779.167,619.5 766.5,619.5C 766.5,566.167 766.5,512.833 766.5,459.5 Z"/></g>
<g><path style="opacity:1" fill="#f7fafb" d="M 986.5,460.5 C 1014.17,459.006 1036.17,469.339 1052.5,491.5C 1043.49,494.67 1034.32,497.337 1025,499.5C 1009.41,489.684 993.579,489.184 977.5,498C 962.814,512.56 957.647,530.06 962,550.5C 964.486,568.966 974.32,581.466 991.5,588C 1003.54,589.325 1014.71,586.825 1025,580.5C 1034.39,582.636 1043.55,585.303 1052.5,588.5C 1032.18,616.415 1005.51,625.248 972.5,615C 946.65,602.473 931.483,581.973 927,553.5C 922.578,520.075 933.411,492.908 959.5,472C 967.899,466.487 976.899,462.653 986.5,460.5 Z"/></g>
<g><path style="opacity:1" fill="#7d2122" d="M 183.5,463.5 C 190.724,462.597 197.224,464.264 203,468.5C 208.172,477.93 205.672,484.43 195.5,488C 185.375,490.926 177.542,488.093 172,479.5C 170.936,474.122 172.769,469.956 177.5,467C 179.727,466.059 181.727,464.892 183.5,463.5 Z"/></g>
<g><path style="opacity:1" fill="#7c2021" d="M 254.5,464.5 C 267.61,462.78 275.11,468.446 277,481.5C 277.95,489.966 277.283,498.299 275,506.5C 270.491,517.009 262.991,520.176 252.5,516C 247.14,511.781 243.973,506.281 243,499.5C 242.333,492.833 242.333,486.167 243,479.5C 244.466,472.551 248.3,467.551 254.5,464.5 Z"/></g>
<g><path style="opacity:1" fill="#7d2223" d="M 325.5,492.5 C 333.448,491.76 340.282,494.093 346,499.5C 348.439,509.78 344.273,515.946 333.5,518C 322.381,520.126 315.715,515.793 313.5,505C 314.948,498.385 318.948,494.219 325.5,492.5 Z"/></g>
<g><path style="opacity:1" fill="#812928" d="M 495.5,508.5 C 505.527,508.301 515.527,508.634 525.5,509.5C 525.007,511.806 524.674,514.139 524.5,516.5C 515.138,517.967 505.805,517.8 496.5,516C 491.704,513.842 491.371,511.342 495.5,508.5 Z"/></g>
<g><path style="opacity:1" fill="#7e2424" d="M 583.5,518.5 C 585.833,518.5 588.167,518.5 590.5,518.5C 588.762,527.406 583.429,532.906 574.5,535C 565.41,537.121 556.41,536.788 547.5,534C 545.91,532.954 544.41,531.787 543,530.5C 542.316,529.216 542.483,528.049 543.5,527C 549.678,526.449 555.845,526.616 562,527.5C 570.727,527.879 577.893,524.879 583.5,518.5 Z"/></g>
<g><path style="opacity:1" fill="#7d2223" d="M 490.5,555.5 C 494.503,555.971 497.669,557.971 500,561.5C 500.782,564.257 500.282,566.757 498.5,569C 489.315,574.796 479.315,577.129 468.5,576C 464.813,572.804 464.647,569.304 468,565.5C 472.065,561.007 477.231,559.173 483.5,560C 486.547,559.484 488.88,557.984 490.5,555.5 Z"/></g>
<g><path style="opacity:1" fill="#fcfafa" d="M 799.5,678.5 C 814.597,677.912 829.597,678.745 844.5,681C 850,688.5 855.5,696 861,703.5C 866.349,712.694 869.849,722.527 871.5,733C 869.803,749.848 867.136,766.514 863.5,783C 862.973,788.564 864.307,793.564 867.5,798C 870.298,798.561 872.131,797.394 873,794.5C 873.008,779.443 875.341,764.777 880,750.5C 882.262,739.933 882.928,729.267 882,718.5C 881.333,717.167 880.667,715.833 880,714.5C 874.175,709.376 868.675,703.876 863.5,698C 864.43,697.009 865.596,696.509 867,696.5C 875,699.157 882,703.49 888,709.5C 891.805,717.219 893.638,725.386 893.5,734C 892.652,751.921 889.485,769.421 884,786.5C 883.301,796.514 883.467,806.514 884.5,816.5C 885.178,824.002 882.178,826.169 875.5,823C 865.901,812.07 857.067,800.57 849,788.5C 845.966,783.726 841.799,781.893 836.5,783C 831.913,769.733 833.08,756.899 840,744.5C 849.326,737.834 853.659,728.834 853,717.5C 852.275,715.051 851.275,712.717 850,710.5C 841.636,701.773 831.469,697.273 819.5,697C 806.126,696.881 792.793,696.215 779.5,695C 777.254,693.961 775.087,692.794 773,691.5C 772.333,690.167 772.333,688.833 773,687.5C 781.342,682.715 790.175,679.715 799.5,678.5 Z"/></g>
<g><path style="opacity:1" fill="#c49a9b" d="M 369.5,764.5 C 369.5,766.167 369.5,767.833 369.5,769.5C 366.167,769.5 362.833,769.5 359.5,769.5C 362.287,768.523 365.287,768.19 368.5,768.5C 368.232,766.901 368.566,765.568 369.5,764.5 Z"/></g>
<g><path style="opacity:1" fill="#7d2223" d="M 623.5,770.5 C 630.921,770.109 638.254,770.609 645.5,772C 649.104,773.334 650.271,775.834 649,779.5C 639.428,783.1 630.761,781.433 623,774.5C 622.421,773.072 622.588,771.738 623.5,770.5 Z"/></g>
<g><path style="opacity:1" fill="#7f2525" d="M 657.5,921.5 C 658.5,921.5 659.5,921.5 660.5,921.5C 659.576,928.618 658.076,935.618 656,942.5C 655.755,946.853 655.755,951.187 656,955.5C 654.155,958.183 651.655,959.85 648.5,960.5C 646.971,960.471 645.804,959.804 645,958.5C 643.874,944.379 648.04,932.045 657.5,921.5 Z"/></g>
<g><path style="opacity:1" fill="#812929" d="M 823.5,958.5 C 824.693,958.97 825.36,959.97 825.5,961.5C 826.56,968.811 826.727,976.144 826,983.5C 825.64,985.421 824.806,987.088 823.5,988.5C 820.704,985.171 817.537,982.171 814,979.5C 813.183,976.036 813.517,972.702 815,969.5C 818.073,965.939 820.906,962.272 823.5,958.5 Z"/></g>
<g><path style="opacity:1" fill="#a86867" d="M 608.5,1015.5 C 609.043,1015.56 609.376,1015.89 609.5,1016.5C 607.257,1017.47 604.924,1017.81 602.5,1017.5C 604.5,1016.83 606.5,1016.17 608.5,1015.5 Z"/></g>
</svg>
