<?xml version="1.0" encoding="UTF-8"?>
<!DOCTYPE svg PUBLIC "-//W3C//DTD SVG 1.1//EN" "http://www.w3.org/Graphics/SVG/1.1/DTD/svg11.dtd">
<svg xmlns="http://www.w3.org/2000/svg" version="1.1" width="2500px" height="2500px" style="shape-rendering:geometricPrecision; text-rendering:geometricPrecision; image-rendering:optimizeQuality; fill-rule:evenodd; clip-rule:evenodd" xmlns:xlink="http://www.w3.org/1999/xlink">
<g><path style="opacity:0.976" fill="#fdfdfd" d="M 2499.5,967.5 C 2499.5,969.167 2499.5,970.833 2499.5,972.5C 2340.64,1460.69 2181.64,1949.02 2022.5,2437.5C 1764.83,2437.83 1507.17,2438.17 1249.5,2438.5C 991.833,2438.17 734.167,2437.83 476.5,2437.5C 326.375,1976.62 176.541,1515.62 27,1054.5C 18.0976,1027.29 8.93095,1000.29 -0.5,973.5C -0.5,971.5 -0.5,969.5 -0.5,967.5C 2.27394,966.277 4.9406,964.777 7.5,963C 421.08,661.586 835.08,360.753 1249.5,60.5C 1640.64,344.473 2031.64,628.64 2422.5,913C 2448.06,931.411 2473.73,949.578 2499.5,967.5 Z"/></g>
<g><path style="opacity:1" fill="#2b2a65" d="M 496.5,2409.5 C 998.167,2409.67 1499.83,2409.5 2001.5,2409C 1500.5,2408.67 999.5,2408.33 498.5,2408C 497.526,2405.34 496.859,2405.17 496.5,2407.5C 349.389,1957 202.555,1506.33 56,1055.5C 50.0662,1035.7 43.7329,1016.03 37,996.5C 35.0156,990.57 33.6823,984.57 33,978.5C 438.174,683.916 843.507,389.583 1249,95.5C 1434.08,228.961 1618.91,362.794 1803.5,497C 2023.89,657.72 2244.55,818.054 2465.5,978C 2466.02,978.561 2466.36,979.228 2466.5,980C 2311.77,1456.79 2157.11,1933.62 2002.5,2410.5C 1500.33,2410.83 998.333,2410.5 496.5,2409.5 Z"/></g>
<g><path style="opacity:1" fill="#fefefe" d="M 1926.5,2306.5 C 1474.63,2307.17 1022.96,2306.5 571.5,2304.5C 433.012,1878.57 294.512,1452.57 156,1026.5C 155.005,1023.87 154.672,1021.21 155,1018.5C 519.568,753.133 884.401,488.133 1249.5,223.5C 1614.6,488.133 1979.43,753.133 2344,1018.5C 2344.67,1019.83 2344.67,1021.17 2344,1022.5C 2330.74,1062.81 2317.74,1103.15 2305,1143.5C 2178.52,1531.1 2052.35,1918.76 1926.5,2306.5 Z"/></g>
<g><path style="opacity:1" fill="#df2017" d="M 384.5,1328.5 C 383.076,1330.51 382.41,1332.85 382.5,1335.5C 375.264,1363.11 367.097,1390.45 358,1417.5C 315.666,1293.5 274.332,1169.16 234,1044.5C 566.844,803.078 899.51,561.411 1232,319.5C 1232.51,396.641 1210.17,466.308 1165,528.5C 1137.81,565.704 1106.98,599.871 1072.5,631C 1022.08,675.77 969.077,717.104 913.5,755C 808.796,822.021 709.463,896.354 615.5,978C 571.128,1017.7 530.295,1060.53 493,1106.5C 441.084,1172.65 404.917,1246.65 384.5,1328.5 Z"/></g>
<g><path style="opacity:1" fill="#2b2a65" d="M 1192.5,1242.5 C 1191.83,1248.32 1191.5,1254.32 1191.5,1260.5C 1191.37,1270.38 1192.04,1280.04 1193.5,1289.5C 1196.3,1326.61 1212.3,1356.44 1241.5,1379C 1255.33,1387.75 1269.33,1396.25 1283.5,1404.5C 1284.69,1386.36 1288.86,1369.02 1296,1352.5C 1305.21,1337.32 1318.71,1328.49 1336.5,1326C 1376.06,1318.86 1411.39,1327.86 1442.5,1353C 1452.64,1362.14 1462.47,1371.64 1472,1381.5C 1493.04,1408.22 1515.21,1434.05 1538.5,1459C 1550.11,1470.27 1563.11,1479.61 1577.5,1487C 1599.05,1494.94 1621.39,1498.44 1644.5,1497.5C 1772.19,1498.8 1865.69,1443.47 1925,1331.5C 1952.41,1274.85 1969.41,1215.19 1976,1152.5C 1988.7,1146.04 2001.2,1139.21 2013.5,1132C 2027.91,1119.34 2036.75,1103.51 2040,1084.5C 2041.89,1078.56 2042.39,1072.56 2041.5,1066.5C 1922.65,1017.26 1811.32,955.431 1707.5,881C 1706.29,880.107 1706.29,879.274 1707.5,878.5C 1716.13,874.57 1724.79,870.736 1733.5,867C 1739.46,862.761 1743.46,857.095 1745.5,850C 1742.93,845.427 1739.6,841.427 1735.5,838C 1706.5,813 1677.5,788 1648.5,763C 1613.24,734.07 1576.57,707.07 1538.5,682C 1520.71,670.772 1502.05,661.105 1482.5,653C 1479.24,651.957 1475.91,651.457 1472.5,651.5C 1473.81,611.757 1464.65,574.757 1445,540.5C 1432.2,521.545 1416.7,505.212 1398.5,491.5C 1398.44,490.957 1398.11,490.624 1397.5,490.5C 1396.51,495.456 1396.17,500.456 1396.5,505.5C 1395.28,545.565 1387.45,584.232 1373,621.5C 1356.53,622.077 1340.03,621.41 1323.5,619.5C 1330.9,589.892 1336.07,559.892 1339,529.5C 1339.83,510.662 1339.66,491.995 1338.5,473.5C 1338.41,465.251 1337.41,457.251 1335.5,449.5C 1329.18,410.472 1316.01,374.139 1296,340.5C 1619,575.167 1942,809.833 2265,1044.5C 2186.15,1287.57 2107.31,1530.9 2028.5,1774.5C 2004.07,1765.85 1979.74,1756.69 1955.5,1747C 1726.35,1656.38 1497.01,1565.72 1267.5,1475C 1235.77,1461.23 1208.94,1441.06 1187,1414.5C 1161.92,1378.74 1154.26,1339.41 1164,1296.5C 1170.12,1270.13 1179.79,1245.13 1193,1221.5C 1192.91,1228.48 1192.75,1235.48 1192.5,1242.5 Z"/></g>
<g><path style="opacity:1" fill="#c1c0d2" d="M 1335.5,449.5 C 1337.41,457.251 1338.41,465.251 1338.5,473.5C 1336.77,465.727 1335.77,457.727 1335.5,449.5 Z"/></g>
<g><path style="opacity:1" fill="#c0c0d1" d="M 1398.5,491.5 C 1397.83,496.167 1397.17,500.833 1396.5,505.5C 1396.17,500.456 1396.51,495.456 1397.5,490.5C 1398.11,490.624 1398.44,490.957 1398.5,491.5 Z"/></g>
<g><path style="opacity:1" fill="#2b2a65" d="M 1424.5,850.5 C 1467.03,845.837 1506.69,854.004 1543.5,875C 1555.05,882.873 1565.71,891.873 1575.5,902C 1586.11,903.569 1596.77,903.903 1607.5,903C 1614.18,901.718 1620.51,899.551 1626.5,896.5C 1626.87,917.55 1619.21,935.05 1603.5,949C 1599.11,951.861 1594.45,954.194 1589.5,956C 1565.03,956.144 1541.03,959.31 1517.5,965.5C 1499.06,915.06 1466.06,877.393 1418.5,852.5C 1420.63,851.831 1422.63,851.165 1424.5,850.5 Z"/></g>
<g><path style="opacity:1" fill="#df2017" d="M 593.5,1304.5 C 592.076,1306.51 591.41,1308.85 591.5,1311.5C 574.003,1374.48 571.17,1438.14 583,1502.5C 587.726,1524.4 593.226,1546.07 599.5,1567.5C 599.116,1569.66 599.783,1571.33 601.5,1572.5C 602.493,1567.88 602.827,1563.21 602.5,1558.5C 602.442,1550.48 602.776,1542.48 603.5,1534.5C 604.083,1531.76 605.083,1529.09 606.5,1526.5C 605.552,1521.56 605.219,1516.56 605.5,1511.5C 609.334,1457.51 621.501,1405.51 642,1355.5C 670.093,1295.39 710.759,1245.39 764,1205.5C 741.509,1260.11 725.842,1316.78 717,1375.5C 715.918,1384.49 714.918,1393.49 714,1402.5C 713.333,1427.5 713.333,1452.5 714,1477.5C 715.748,1493.24 717.915,1508.9 720.5,1524.5C 720.41,1527.15 721.076,1529.49 722.5,1531.5C 732.373,1576.74 751.04,1617.91 778.5,1655C 679.833,1694.33 581.167,1733.67 482.5,1773C 480.553,1773.99 478.553,1774.32 476.5,1774C 441.243,1677.62 425.743,1578.12 430,1475.5C 436.565,1378.47 465.565,1288.81 517,1206.5C 559.293,1139.5 610.46,1079.67 670.5,1027C 718.74,984.811 769.24,945.644 822,909.5C 779.846,962.361 739.846,1017.03 702,1073.5C 661.562,1135.71 628.562,1201.71 603,1271.5C 599.676,1282.46 596.509,1293.46 593.5,1304.5 Z"/></g>
<g><path style="opacity:1" fill="#afaec5" d="M 1192.5,1242.5 C 1192.48,1258.18 1192.81,1273.84 1193.5,1289.5C 1192.04,1280.04 1191.37,1270.38 1191.5,1260.5C 1191.5,1254.32 1191.83,1248.32 1192.5,1242.5 Z"/></g>
<g><path style="opacity:1" fill="#f7b4b0" d="M 593.5,1304.5 C 593.59,1307.15 592.924,1309.49 591.5,1311.5C 591.41,1308.85 592.076,1306.51 593.5,1304.5 Z"/></g>
<g><path style="opacity:1" fill="#f7b6b1" d="M 384.5,1328.5 C 384.59,1331.15 383.924,1333.49 382.5,1335.5C 382.41,1332.85 383.076,1330.51 384.5,1328.5 Z"/></g>
<g><path style="opacity:1" fill="#e74f40" d="M 605.5,1511.5 C 605.219,1516.56 605.552,1521.56 606.5,1526.5C 605.083,1529.09 604.083,1531.76 603.5,1534.5C 603.461,1526.63 604.128,1518.96 605.5,1511.5 Z"/></g>
<g><path style="opacity:1" fill="#ed736a" d="M 720.5,1524.5 C 721.924,1526.51 722.59,1528.85 722.5,1531.5C 721.076,1529.49 720.41,1527.15 720.5,1524.5 Z"/></g>
<g><path style="opacity:1" fill="#df2017" d="M 1248.5,1535.5 C 1500.67,1639.27 1752.67,1742.94 2004.5,1846.5C 1962.02,1977.42 1919.68,2108.42 1877.5,2239.5C 1458.83,2239.5 1040.17,2239.5 621.5,2239.5C 580.034,2109.6 537.867,1979.94 495,1850.5C 494.219,1849.06 494.386,1847.72 495.5,1846.5C 746.743,1743.03 997.743,1639.37 1248.5,1535.5 Z"/></g>
<g><path style="opacity:1" fill="#ea6860" d="M 602.5,1558.5 C 602.827,1563.21 602.493,1567.88 601.5,1572.5C 599.783,1571.33 599.116,1569.66 599.5,1567.5C 600.268,1568.26 600.768,1569.26 601,1570.5C 601.176,1566.31 601.676,1562.31 602.5,1558.5 Z"/></g>
<g><path style="opacity:1" fill="#fefcfc" d="M 1183.5,1729.5 C 1178.5,1728.83 1173.5,1728.17 1168.5,1727.5C 1177.06,1717.38 1185.4,1707.05 1193.5,1696.5C 1209.74,1694.87 1222.91,1700.53 1233,1713.5C 1236.61,1718.39 1239.45,1723.72 1241.5,1729.5C 1242,1730.52 1242.67,1730.69 1243.5,1730C 1237.31,1706.79 1227.97,1684.95 1215.5,1664.5C 1226.36,1647.96 1238.03,1631.96 1250.5,1616.5C 1262.67,1632.19 1274.34,1648.19 1285.5,1664.5C 1272.68,1684.62 1263.34,1706.29 1257.5,1729.5C 1257.83,1729.83 1258.17,1730.17 1258.5,1730.5C 1264.07,1715.47 1274.07,1704.64 1288.5,1698C 1294.39,1696.21 1300.39,1695.54 1306.5,1696C 1315.5,1707 1324.5,1718 1333.5,1729C 1316.16,1727.64 1299.49,1730.3 1283.5,1737C 1267.93,1744.73 1259.26,1757.23 1257.5,1774.5C 1252.83,1774.5 1248.17,1774.5 1243.5,1774.5C 1240.58,1753.51 1228.91,1740.01 1208.5,1734C 1200.31,1731.66 1191.97,1730.16 1183.5,1729.5 Z"/></g>
<g><path style="opacity:1" fill="#f2a39e" d="M 1168.5,1727.5 C 1173.5,1728.17 1178.5,1728.83 1183.5,1729.5C 1178.13,1729.83 1172.79,1729.49 1167.5,1728.5C 1167.62,1727.89 1167.96,1727.56 1168.5,1727.5 Z"/></g>
<g><path style="opacity:1" fill="#fefefe" d="M 798.5,1842.5 C 798.5,1922.5 798.5,2002.5 798.5,2082.5C 830.167,2082.5 861.833,2082.5 893.5,2082.5C 895.812,2089.75 897.812,2097.08 899.5,2104.5C 899.41,2107.15 900.076,2109.49 901.5,2111.5C 905.476,2124.07 909.142,2136.74 912.5,2149.5C 845.503,2150.5 778.503,2150.83 711.5,2150.5C 711.5,2047.83 711.5,1945.17 711.5,1842.5C 740.5,1842.5 769.5,1842.5 798.5,1842.5 Z"/></g>
<g><path style="opacity:1" fill="#e33f36" d="M 798.5,1842.5 C 799.499,1922 799.833,2001.66 799.5,2081.5C 831.004,2081.17 862.338,2081.5 893.5,2082.5C 861.833,2082.5 830.167,2082.5 798.5,2082.5C 798.5,2002.5 798.5,1922.5 798.5,1842.5 Z"/></g>
<g><path style="opacity:1" fill="#fefefd" d="M 990.5,1842.5 C 1040.83,1842.33 1091.17,1842.5 1141.5,1843C 1165.74,1846.58 1181.24,1860.08 1188,1883.5C 1188.67,1958.5 1188.67,2033.5 1188,2108.5C 1181.66,2132.51 1166.16,2146.34 1141.5,2150C 1084.93,2150.83 1028.43,2150.66 972,2149.5C 962.735,2121.04 953.069,2092.71 943,2064.5C 942.333,2004.83 942.333,1945.17 943,1885.5C 949.213,1860.49 965.046,1846.15 990.5,1842.5 Z"/></g>
<g><path style="opacity:1" fill="#fefdfd" d="M 1487.5,1885.5 C 1487.5,1901.5 1487.5,1917.5 1487.5,1933.5C 1460.5,1933.5 1433.5,1933.5 1406.5,1933.5C 1406.83,1924.98 1406.49,1916.65 1405.5,1908.5C 1378.5,1908.5 1351.5,1908.5 1324.5,1908.5C 1324.17,1924.01 1324.5,1939.34 1325.5,1954.5C 1337.26,1957.99 1349.26,1960.99 1361.5,1963.5C 1363.51,1964.92 1365.85,1965.59 1368.5,1965.5C 1384.7,1969.8 1401.04,1973.63 1417.5,1977C 1435.13,1981.32 1451.8,1987.99 1467.5,1997C 1478.17,2004.17 1485,2014 1488,2026.5C 1488.67,2053.83 1488.67,2081.17 1488,2108.5C 1481.77,2132.06 1466.61,2145.89 1442.5,2150C 1385.5,2150.83 1328.5,2150.67 1271.5,2149.5C 1262.34,2121.34 1253,2093.34 1243.5,2065.5C 1270.15,2063.51 1297.15,2062.84 1324.5,2063.5C 1324.5,2070.83 1324.5,2078.17 1324.5,2085.5C 1351.5,2085.5 1378.5,2085.5 1405.5,2085.5C 1405.5,2070.17 1405.5,2054.83 1405.5,2039.5C 1368,2031.37 1330.67,2022.53 1293.5,2013C 1275.76,2009.39 1260.6,2001.22 1248,1988.5C 1245.57,1985.2 1243.9,1981.54 1243,1977.5C 1242.33,1945.83 1242.33,1914.17 1243,1882.5C 1250.22,1859.62 1265.72,1846.45 1289.5,1843C 1339.83,1842.33 1390.17,1842.33 1440.5,1843C 1459.92,1845.78 1474.42,1855.62 1484,1872.5C 1486.09,1876.6 1487.26,1880.93 1487.5,1885.5 Z"/></g>
<g><path style="opacity:1" fill="#fefdfd" d="M 1785.5,1878.5 C 1785.41,1881.15 1786.08,1883.49 1787.5,1885.5C 1787.5,1886.5 1787.5,1887.5 1787.5,1888.5C 1787.5,1909.83 1787.5,1931.17 1787.5,1952.5C 1760.17,1952.5 1732.83,1952.5 1705.5,1952.5C 1705.5,1937.83 1705.5,1923.17 1705.5,1908.5C 1678.33,1908.17 1651.33,1908.5 1624.5,1909.5C 1624.5,1968.17 1624.5,2026.83 1624.5,2085.5C 1651.5,2085.5 1678.5,2085.5 1705.5,2085.5C 1705.5,2070.5 1705.5,2055.5 1705.5,2040.5C 1732.83,2040.5 1760.17,2040.5 1787.5,2040.5C 1787.67,2062.84 1787.5,2085.17 1787,2107.5C 1781.1,2132.06 1765.6,2146.23 1740.5,2150C 1684.16,2150.83 1627.83,2150.67 1571.5,2149.5C 1561.99,2120.79 1552.15,2092.13 1542,2063.5C 1541.33,2004.17 1541.33,1944.83 1542,1885.5C 1548.7,1861.13 1564.54,1846.96 1589.5,1843C 1639.83,1842.33 1690.17,1842.33 1740.5,1843C 1755.56,1845.28 1768.06,1852.11 1778,1863.5C 1781.57,1867.96 1784.07,1872.96 1785.5,1878.5 Z"/></g>
<g><path style="opacity:1" fill="#f39d97" d="M 1785.5,1878.5 C 1786.92,1880.51 1787.59,1882.85 1787.5,1885.5C 1786.08,1883.49 1785.41,1881.15 1785.5,1878.5 Z"/></g>
<g><path style="opacity:1" fill="#e75750" d="M 1405.5,1908.5 C 1405.5,1908.83 1405.5,1909.17 1405.5,1909.5C 1378.83,1909.5 1352.17,1909.5 1325.5,1909.5C 1325.5,1924.5 1325.5,1939.5 1325.5,1954.5C 1324.5,1939.34 1324.17,1924.01 1324.5,1908.5C 1351.5,1908.5 1378.5,1908.5 1405.5,1908.5 Z"/></g>
<g><path style="opacity:1" fill="#e75750" d="M 1624.5,1909.5 C 1651.33,1908.5 1678.33,1908.17 1705.5,1908.5C 1705.5,1923.17 1705.5,1937.83 1705.5,1952.5C 1705.5,1952.83 1705.5,1953.17 1705.5,1953.5C 1704.5,1939.01 1704.17,1924.34 1704.5,1909.5C 1677.83,1909.5 1651.17,1909.5 1624.5,1909.5 Z"/></g>
<g><path style="opacity:1" fill="#de1f16" d="M 1025.5,1909.5 C 1052.17,1909.5 1078.83,1909.5 1105.5,1909.5C 1105.5,1968.17 1105.5,2026.83 1105.5,2085.5C 1078.83,2085.5 1052.17,2085.5 1025.5,2085.5C 1025.5,2026.83 1025.5,1968.17 1025.5,1909.5 Z"/></g>
<g><path style="opacity:1" fill="#eb746d" d="M 1025.5,1909.5 C 1052.33,1908.5 1079.33,1908.17 1106.5,1908.5C 1106.5,1967.83 1106.5,2027.17 1106.5,2086.5C 1079.33,2086.83 1052.33,2086.5 1025.5,2085.5C 1052.17,2085.5 1078.83,2085.5 1105.5,2085.5C 1105.5,2026.83 1105.5,1968.17 1105.5,1909.5C 1078.83,1909.5 1052.17,1909.5 1025.5,1909.5 Z"/></g>
<g><path style="opacity:1" fill="#f8cdcb" d="M 1487.5,1885.5 C 1488.5,1901.66 1488.83,1917.99 1488.5,1934.5C 1460.83,1934.5 1433.17,1934.5 1405.5,1934.5C 1405.5,1926.17 1405.5,1917.83 1405.5,1909.5C 1405.5,1909.17 1405.5,1908.83 1405.5,1908.5C 1406.49,1916.65 1406.83,1924.98 1406.5,1933.5C 1433.5,1933.5 1460.5,1933.5 1487.5,1933.5C 1487.5,1917.5 1487.5,1901.5 1487.5,1885.5 Z"/></g>
<g><path style="opacity:1" fill="#ef8c86" d="M 1787.5,1888.5 C 1788.5,1909.99 1788.83,1931.66 1788.5,1953.5C 1760.83,1953.5 1733.17,1953.5 1705.5,1953.5C 1705.5,1953.17 1705.5,1952.83 1705.5,1952.5C 1732.83,1952.5 1760.17,1952.5 1787.5,1952.5C 1787.5,1931.17 1787.5,1909.83 1787.5,1888.5 Z"/></g>
<g><path style="opacity:1" fill="#ec7067" d="M 1361.5,1963.5 C 1364.15,1963.41 1366.49,1964.08 1368.5,1965.5C 1365.85,1965.59 1363.51,1964.92 1361.5,1963.5 Z"/></g>
<g><path style="opacity:1" fill="#fae2e0" d="M 1324.5,2063.5 C 1297.15,2062.84 1270.15,2063.51 1243.5,2065.5C 1242.6,2064.79 1242.26,2063.79 1242.5,2062.5C 1270.01,2062.17 1297.34,2062.5 1324.5,2063.5 Z"/></g>
<g><path style="opacity:1" fill="#f7b2ad" d="M 899.5,2104.5 C 900.924,2106.51 901.59,2108.85 901.5,2111.5C 900.076,2109.49 899.41,2107.15 899.5,2104.5 Z"/></g>
<g><path style="opacity:1" fill="#5e5d8a" d="M 571.5,2304.5 C 1022.96,2306.5 1474.63,2307.17 1926.5,2306.5C 1475.1,2307.17 1023.6,2307.83 572,2308.5C 571.51,2307.21 571.343,2305.87 571.5,2304.5 Z"/></g>
<g><path style="opacity:1" fill="#242360" d="M 496.5,2409.5 C 496.5,2408.83 496.5,2408.17 496.5,2407.5C 496.859,2405.17 497.526,2405.34 498.5,2408C 999.5,2408.33 1500.5,2408.67 2001.5,2409C 1499.83,2409.5 998.167,2409.67 496.5,2409.5 Z"/></g>
</svg>
