<?xml version="1.0" encoding="UTF-8"?>
<!DOCTYPE svg PUBLIC "-//W3C//DTD SVG 1.1//EN" "http://www.w3.org/Graphics/SVG/1.1/DTD/svg11.dtd">
<svg xmlns="http://www.w3.org/2000/svg" version="1.1" width="1200px" height="1384px" style="shape-rendering:geometricPrecision; text-rendering:geometricPrecision; image-rendering:optimizeQuality; fill-rule:evenodd; clip-rule:evenodd" xmlns:xlink="http://www.w3.org/1999/xlink">
<g><path style="opacity:0.996" fill="#d1b353" d="M 601.5,1383.5 C 599.833,1383.5 598.167,1383.5 596.5,1383.5C 530.001,1296.04 442.001,1243.54 332.5,1226C 310.636,1222.02 288.636,1219.02 266.5,1217C 230.831,1214.64 195.164,1212.31 159.5,1210C 121.694,1206.08 88.0274,1192.41 58.5,1169C 31.8875,1143.29 15.0542,1112.12 8,1075.5C 5.14632,1060.3 3.47965,1044.96 3,1029.5C 2.33333,687.5 2.33333,345.5 3,3.5C 400.097,2.50034 797.264,2.167 1194.5,2.5C 1194.67,349.5 1194.5,696.5 1194,1043.5C 1186.5,1140.66 1134.67,1196.16 1038.5,1210C 1006.52,1212.33 974.525,1214.33 942.5,1216C 883.731,1219.74 826.731,1231.74 771.5,1252C 702.141,1279.54 645.474,1323.37 601.5,1383.5 Z"/></g>
<g><path style="opacity:1" fill="#d90222" d="M 34.5,34.5 C 410.833,34.5 787.167,34.5 1163.5,34.5C 1163.5,168.5 1163.5,302.5 1163.5,436.5C 787.167,436.5 410.833,436.5 34.5,436.5C 34.5,302.5 34.5,168.5 34.5,34.5 Z"/></g>
<g><path style="opacity:1" fill="#fefcfc" d="M 141.5,79.5 C 168.237,77.477 187.07,88.477 198,112.5C 199.625,117.712 200.625,123.045 201,128.5C 201.799,145.857 201.466,163.19 200,180.5C 195.157,205.008 180.324,218.842 155.5,222C 128.055,224.543 109.555,213.043 100,187.5C 99.0551,183.886 98.3884,180.219 98,176.5C 97.3333,158.5 97.3333,140.5 98,122.5C 103.134,98.532 117.634,84.1986 141.5,79.5 Z"/></g>
<g><path style="opacity:1" fill="#fefdfd" d="M 790.5,79.5 C 811.227,77.2383 828.393,83.905 842,99.5C 846.569,106.54 849.569,114.206 851,122.5C 851.667,139.5 851.667,156.5 851,173.5C 850.835,183.16 848.335,192.16 843.5,200.5C 846.484,203.985 849.651,207.318 853,210.5C 853.667,212.167 853.667,213.833 853,215.5C 849.5,219 846,222.5 842.5,226C 841.5,226.667 840.5,226.667 839.5,226C 835.954,222.118 832.121,218.618 828,215.5C 802.319,227.925 779.319,224.258 759,204.5C 753.315,196.785 749.982,188.118 749,178.5C 748.058,157.457 748.392,136.457 750,115.5C 753.777,103.397 760.944,93.8965 771.5,87C 777.604,83.5833 783.937,81.0833 790.5,79.5 Z"/></g>
<g><path style="opacity:1" fill="#fefcfd" d="M 227.5,80.5 C 236.085,80.1834 244.585,80.5168 253,81.5C 253.5,119.832 253.667,158.165 253.5,196.5C 272.17,196.333 290.836,196.5 309.5,197C 310,197.5 310.5,198 311,198.5C 311.813,206.08 311.647,213.58 310.5,221C 282.595,221.828 254.761,221.661 227,220.5C 226.172,173.763 226.339,127.096 227.5,80.5 Z"/></g>
<g><path style="opacity:1" fill="#fefafb" d="M 296.5,80.5 C 305.857,80.1684 315.19,80.5017 324.5,81.5C 332.898,99.9631 341.565,118.296 350.5,136.5C 359.568,118.196 368.235,99.6962 376.5,81C 385.833,80.3333 395.167,80.3333 404.5,81C 404.957,81.414 405.291,81.914 405.5,82.5C 392,108.833 378.5,135.167 365,161.5C 365.149,181.564 364.316,201.398 362.5,221C 353.921,221.816 345.421,221.649 337,220.5C 336.667,201.167 336.333,181.833 336,162.5C 322.756,135.678 309.256,109.011 295.5,82.5C 295.863,81.8165 296.196,81.1499 296.5,80.5 Z"/></g>
<g><path style="opacity:1" fill="#fefcfc" d="M 523.5,220.5 C 523.667,193.498 523.5,166.498 523,139.5C 522.283,140.044 521.783,140.711 521.5,141.5C 512.91,158.346 504.577,175.346 496.5,192.5C 489.745,192.793 483.078,192.46 476.5,191.5C 467.91,174.654 459.577,157.654 451.5,140.5C 451.44,139.957 451.107,139.624 450.5,139.5C 449.5,166.492 449.167,193.492 449.5,220.5C 440.962,221.817 432.295,221.817 423.5,220.5C 422.333,174.504 422.167,128.504 423,82.5C 423.5,82 424,81.5 424.5,81C 433.186,80.1681 441.853,80.3348 450.5,81.5C 462.138,106.776 474.305,131.776 487,156.5C 498.727,131.378 510.727,106.378 523,81.5C 532,80.1667 541,80.1667 550,81.5C 550.667,127.833 550.667,174.167 550,220.5C 541.068,221.828 532.235,221.828 523.5,220.5 Z"/></g>
<g><path style="opacity:1" fill="#fefbfb" d="M 577.5,80.5 C 597.169,80.3334 616.836,80.5 636.5,81C 662.021,85.1882 675.688,100.188 677.5,126C 676.731,152.431 663.397,168.098 637.5,173C 626.505,173.5 615.505,173.667 604.5,173.5C 604.833,189.181 604.499,204.848 603.5,220.5C 594.637,221.822 585.803,221.822 577,220.5C 576.172,173.763 576.339,127.096 577.5,80.5 Z"/></g>
<g><path style="opacity:1" fill="#fef9fa" d="M 697.5,80.5 C 705.84,80.3336 714.173,80.5003 722.5,81C 723,81.5 723.5,82 724,82.5C 724.83,128.738 724.663,174.904 723.5,221C 714.588,221.816 705.755,221.65 697,220.5C 696.172,173.763 696.339,127.096 697.5,80.5 Z"/></g>
<g><path style="opacity:1" fill="#fefcfc" d="M 877.5,80.5 C 886.085,80.1834 894.585,80.5168 903,81.5C 903.333,113.833 903.667,146.167 904,178.5C 906.374,191.195 914.041,197.862 927,198.5C 941.293,197.871 949.626,190.537 952,176.5C 952.333,144.833 952.667,113.167 953,81.5C 961.667,80.1667 970.333,80.1667 979,81.5C 979.667,114.167 979.667,146.833 979,179.5C 975.511,201.989 962.678,215.823 940.5,221C 916.611,225.955 897.444,218.788 883,199.5C 879.672,193.183 877.339,186.516 876,179.5C 875.333,147.167 875.333,114.833 876,82.5C 876.717,81.9558 877.217,81.2891 877.5,80.5 Z"/></g>
<g><path style="opacity:1" fill="#fefdfd" d="M 1032.5,105.5 C 1031.51,116.321 1031.17,127.321 1031.5,138.5C 1049.83,138.5 1068.17,138.5 1086.5,138.5C 1087.82,146.334 1087.82,154.167 1086.5,162C 1068.5,162.5 1050.5,162.667 1032.5,162.5C 1031.51,173.988 1031.17,185.655 1031.5,197.5C 1052.83,197.5 1074.17,197.5 1095.5,197.5C 1096.12,197.611 1096.62,197.944 1097,198.5C 1097.81,206.08 1097.65,213.58 1096.5,221C 1065.93,221.829 1035.43,221.662 1005,220.5C 1004.33,174.167 1004.33,127.833 1005,81.5C 1035.09,80.3382 1065.26,80.1715 1095.5,81C 1096,81.5 1096.5,82 1097,82.5C 1097.83,89.856 1097.66,97.1893 1096.5,104.5C 1075.21,105.489 1053.88,105.822 1032.5,105.5 Z"/></g>
<g><path style="opacity:1" fill="#d90724" d="M 141.5,104.5 C 159.146,101.888 169.646,109.221 173,126.5C 173.667,142.5 173.667,158.5 173,174.5C 169.455,194.373 157.955,201.539 138.5,196C 132.508,193.341 128.675,188.841 127,182.5C 124.547,164.586 123.88,146.586 125,128.5C 125.684,117.013 131.184,109.013 141.5,104.5 Z"/></g>
<g><path style="opacity:1" fill="#d90824" d="M 792.5,104.5 C 811.913,102.416 822.413,111.082 824,130.5C 824.667,143.5 824.667,156.5 824,169.5C 823.564,171.847 823.064,174.181 822.5,176.5C 822.267,177.932 821.6,178.432 820.5,178C 817.616,174.414 814.283,171.748 810.5,170C 805.985,174.348 801.651,178.848 797.5,183.5C 801.167,187.5 804.833,191.5 808.5,195.5C 789.782,201.044 778.948,194.044 776,174.5C 775.07,156.789 775.404,139.122 777,121.5C 779.256,113.081 784.423,107.415 792.5,104.5 Z"/></g>
<g><path style="opacity:1" fill="#d90022" d="M 604.5,105.5 C 615.578,105.069 626.578,105.569 637.5,107C 647.989,112.822 651.822,121.655 649,133.5C 647.325,139.841 643.492,144.341 637.5,147C 626.578,148.431 615.578,148.931 604.5,148.5C 604.5,134.167 604.5,119.833 604.5,105.5 Z"/></g>
<g><path style="opacity:1" fill="#e4495d" d="M 1032.5,105.5 C 1032.5,116.167 1032.5,126.833 1032.5,137.5C 1050.67,137.17 1068.67,137.503 1086.5,138.5C 1068.17,138.5 1049.83,138.5 1031.5,138.5C 1031.17,127.321 1031.51,116.321 1032.5,105.5 Z"/></g>
<g><path style="opacity:1" fill="#fae0e4" d="M 451.5,140.5 C 450.833,167.167 450.167,193.833 449.5,220.5C 449.167,193.492 449.5,166.492 450.5,139.5C 451.107,139.624 451.44,139.957 451.5,140.5 Z"/></g>
<g><path style="opacity:1" fill="#f1a4b0" d="M 523.5,220.5 C 522.833,194.167 522.167,167.833 521.5,141.5C 521.783,140.711 522.283,140.044 523,139.5C 523.5,166.498 523.667,193.498 523.5,220.5 Z"/></g>
<g><path style="opacity:1" fill="#e24259" d="M 476.5,191.5 C 483.078,192.46 489.745,192.793 496.5,192.5C 493.351,193.165 490.018,193.498 486.5,193.5C 482.761,193.486 479.428,192.82 476.5,191.5 Z"/></g>
<g><path style="opacity:1" fill="#ef91a0" d="M 1032.5,162.5 C 1032.5,173.833 1032.5,185.167 1032.5,196.5C 1053.67,196.169 1074.67,196.503 1095.5,197.5C 1074.17,197.5 1052.83,197.5 1031.5,197.5C 1031.17,185.655 1031.51,173.988 1032.5,162.5 Z"/></g>
<g><path style="opacity:1" fill="#fefdfd" d="M 372.5,250.5 C 393.973,247.822 412.139,254.155 427,269.5C 432.238,276.313 435.572,283.979 437,292.5C 438.516,308.804 438.849,325.137 438,341.5C 437.312,371.181 422.479,389.015 393.5,395C 371.716,398.407 353.549,391.907 339,375.5C 334.769,369.478 332.103,362.811 331,355.5C 329.419,334.867 329.085,314.2 330,293.5C 332.643,277.198 341.143,265.031 355.5,257C 361.16,254.507 366.826,252.341 372.5,250.5 Z"/></g>
<g><path style="opacity:1" fill="#fefcfc" d="M 1042.5,250.5 C 1060.58,248.106 1077.58,251.273 1093.5,260C 1096.48,261.984 1099.15,264.317 1101.5,267C 1096.63,273.542 1090.79,279.042 1084,283.5C 1070.04,274.239 1055.21,272.406 1039.5,278C 1032.16,282.536 1029.66,289.036 1032,297.5C 1034.43,302.979 1038.6,306.479 1044.5,308C 1053.78,309.707 1063.11,311.04 1072.5,312C 1097.17,317.685 1108.34,333.185 1106,358.5C 1101.43,378.069 1089.26,389.902 1069.5,394C 1053.33,396.528 1037.33,395.861 1021.5,392C 1012.58,388.721 1004.91,383.721 998.5,377C 1003.67,370.5 1009.5,364.667 1016,359.5C 1032.03,370.773 1049.53,373.606 1068.5,368C 1076.77,363.211 1079.61,356.045 1077,346.5C 1076.21,344.413 1075.04,342.579 1073.5,341C 1069.5,338.578 1065.16,336.911 1060.5,336C 1046.52,335.673 1033.19,332.673 1020.5,327C 1006.2,316.473 1000.7,302.306 1004,284.5C 1006.68,273.826 1012.51,265.326 1021.5,259C 1028.19,255.057 1035.19,252.224 1042.5,250.5 Z"/></g>
<g><path style="opacity:1" fill="#fefcfc" d="M 106.5,251.5 C 115.751,251.182 124.917,251.515 134,252.5C 134.5,291.499 134.667,330.499 134.5,369.5C 155.409,369.173 176.242,369.507 197,370.5C 197.814,378.413 197.647,386.246 196.5,394C 166.262,394.828 136.095,394.662 106,393.5C 105.172,346.096 105.339,298.763 106.5,251.5 Z"/></g>
<g><path style="opacity:1" fill="#fefdfd" d="M 192.5,251.5 C 202.855,251.168 213.188,251.501 223.5,252.5C 232.411,271.321 241.577,289.987 251,308.5C 260.106,289.954 268.94,271.288 277.5,252.5C 287.728,251.182 297.894,251.182 308,252.5C 294.008,280.146 279.674,307.812 265,335.5C 264.5,355.164 264.333,374.831 264.5,394.5C 255.249,394.818 246.083,394.485 237,393.5C 236.667,374.167 236.333,354.833 236,335.5C 221.219,307.604 206.719,279.604 192.5,251.5 Z"/></g>
<g><path style="opacity:1" fill="#fefbfb" d="M 562.5,336.5 C 562.783,337.289 563.283,337.956 564,338.5C 564.5,309.835 564.667,281.169 564.5,252.5C 573.804,251.169 583.137,251.169 592.5,252.5C 593.667,299.496 593.833,346.496 593,393.5C 584.226,394.816 575.393,394.816 566.5,393.5C 547.823,365.471 529.156,337.471 510.5,309.5C 510.217,308.711 509.717,308.044 509,307.5C 508.5,336.165 508.333,364.831 508.5,393.5C 499,394.821 489.5,394.821 480,393.5C 479.167,346.496 479.333,299.496 480.5,252.5C 488.785,251.364 497.118,251.197 505.5,252C 524.399,280.319 543.399,308.485 562.5,336.5 Z"/></g>
<g><path style="opacity:1" fill="#fefdfd" d="M 722.5,337.5 C 722.56,338.043 722.893,338.376 723.5,338.5C 724.5,309.841 724.833,281.174 724.5,252.5C 733.667,251.179 742.833,251.179 752,252.5C 752.667,299.5 752.667,346.5 752,393.5C 743.333,394.833 734.667,394.833 726,393.5C 707,364.833 688,336.167 669,307.5C 668.667,336.167 668.333,364.833 668,393.5C 658.667,394.833 649.333,394.833 640,393.5C 639.333,346.5 639.333,299.5 640,252.5C 648.421,251.351 656.921,251.184 665.5,252C 684.722,280.382 703.722,308.882 722.5,337.5 Z"/></g>
<g><path style="opacity:1" fill="#fefdfd" d="M 833.5,251.5 C 841.087,251.186 848.587,251.519 856,252.5C 873.932,299.461 891.765,346.461 909.5,393.5C 899.5,394.833 889.5,394.833 879.5,393.5C 876.833,385.833 874.167,378.167 871.5,370.5C 853.843,369.334 836.176,369.167 818.5,370C 815.303,377.922 812.303,385.922 809.5,394C 799.839,394.5 790.172,394.666 780.5,394.5C 797.57,346.626 815.236,298.96 833.5,251.5 Z"/></g>
<g><path style="opacity:1" fill="#fefcfc" d="M 936.5,251.5 C 945.751,251.182 954.917,251.515 964,252.5C 964.83,299.737 964.664,346.904 963.5,394C 954.255,394.817 945.089,394.65 936,393.5C 935.172,346.096 935.339,298.763 936.5,251.5 Z"/></g>
<g><path style="opacity:1" fill="#e5596f" d="M 564.5,252.5 C 564.667,281.169 564.5,309.835 564,338.5C 563.283,337.956 562.783,337.289 562.5,336.5C 563.167,308.5 563.833,280.5 564.5,252.5 Z"/></g>
<g><path style="opacity:1" fill="#ed8696" d="M 724.5,252.5 C 724.833,281.174 724.5,309.841 723.5,338.5C 722.893,338.376 722.56,338.043 722.5,337.5C 723.167,309.167 723.833,280.833 724.5,252.5 Z"/></g>
<g><path style="opacity:1" fill="#d90824" d="M 376.5,275.5 C 392.561,273.097 403.061,279.43 408,294.5C 410,312.833 410,331.167 408,349.5C 406.813,360.35 400.98,367.183 390.5,370C 377.378,373.192 367.544,369.025 361,357.5C 356.764,335.568 356.431,313.568 360,291.5C 362.752,283.247 368.252,277.913 376.5,275.5 Z"/></g>
<g><path style="opacity:1" fill="#d90c25" d="M 862.5,344.5 C 850.833,345.833 839.167,345.833 827.5,344.5C 833.026,327.756 838.86,311.089 845,294.5C 851.524,310.905 857.358,327.572 862.5,344.5 Z"/></g>
<g><path style="opacity:1" fill="#e44b63" d="M 510.5,309.5 C 509.833,337.5 509.167,365.5 508.5,393.5C 508.333,364.831 508.5,336.165 509,307.5C 509.717,308.044 510.217,308.711 510.5,309.5 Z"/></g>
<g><path style="opacity:1" fill="#f2a9b4" d="M 827.5,344.5 C 839.167,345.833 850.833,345.833 862.5,344.5C 863.043,344.56 863.376,344.893 863.5,345.5C 851.167,346.833 838.833,346.833 826.5,345.5C 826.624,344.893 826.957,344.56 827.5,344.5 Z"/></g>
<g><path style="opacity:1" fill="#918868" d="M 1163.5,467.5 C 787.167,467.5 410.833,467.5 34.5,467.5C 34.5,654.833 34.5,842.167 34.5,1029.5C 33.5003,842.001 33.167,654.334 33.5,466.5C 410.334,466.167 787,466.5 1163.5,467.5 Z"/></g>
<g><path style="opacity:1" fill="#274287" d="M 1163.5,467.5 C 1163.98,661.177 1163.48,854.844 1162,1048.5C 1156.41,1115.41 1121.24,1157.24 1056.5,1174C 1046.85,1175.77 1037.18,1177.44 1027.5,1179C 973.874,1180.52 920.54,1185.19 867.5,1193C 812.546,1201.49 760.213,1218.15 710.5,1243C 668.105,1265.55 630.771,1294.71 598.5,1330.5C 543.936,1269.86 476.936,1229.02 397.5,1208C 326.338,1189.98 254.005,1180.65 180.5,1180C 86.2818,1173.95 37.6151,1123.78 34.5,1029.5C 34.5,842.167 34.5,654.833 34.5,467.5C 410.833,467.5 787.167,467.5 1163.5,467.5 Z"/></g>
<g><path style="opacity:1" fill="#d1b354" d="M 362.5,532.5 C 475.964,530.309 564.131,575.975 627,669.5C 677.761,755.782 684.428,845.449 647,938.5C 617.854,1004.29 571.021,1053.12 506.5,1085C 433.405,1118.42 358.738,1122.42 282.5,1097C 186.895,1059.63 125.395,991.468 98,892.5C 75.1967,783.935 102.697,690.435 180.5,612C 231.857,564.495 292.524,537.995 362.5,532.5 Z"/></g>
<g><path style="opacity:1" fill="#d2b453" d="M 733.5,546.5 C 798.167,546.5 862.833,546.5 927.5,546.5C 927.167,672.668 927.5,798.668 928.5,924.5C 980.833,924.5 1033.17,924.5 1085.5,924.5C 1085.5,982.833 1085.5,1041.17 1085.5,1099.5C 968.167,1099.5 850.833,1099.5 733.5,1099.5C 733.5,915.167 733.5,730.833 733.5,546.5 Z"/></g>
<g><path style="opacity:1" fill="#7b7a6d" d="M 732.5,546.5 C 797.665,545.501 862.998,545.168 928.5,545.5C 928.5,671.5 928.5,797.5 928.5,923.5C 928.5,923.833 928.5,924.167 928.5,924.5C 927.5,798.668 927.167,672.668 927.5,546.5C 862.833,546.5 798.167,546.5 733.5,546.5C 733.167,546.5 732.833,546.5 732.5,546.5 Z"/></g>
<g><path style="opacity:1" fill="#fefefe" d="M 355.5,558.5 C 463.754,553.541 547.587,595.875 607,685.5C 649.859,759.514 656.859,836.847 628,917.5C 593.681,1000.81 533.181,1054.98 446.5,1080C 344.212,1102.45 256.712,1076.29 184,1001.5C 120.89,927.046 101.557,842.379 126,747.5C 156.023,656.811 216.523,596.977 307.5,568C 323.417,563.716 339.417,560.55 355.5,558.5 Z"/></g>
<g><path style="opacity:1" fill="#f1e8cb" d="M 756.5,570.5 C 756.833,570.5 757.167,570.5 757.5,570.5C 757.5,738.833 757.5,907.167 757.5,1075.5C 858.833,1075.5 960.167,1075.5 1061.5,1075.5C 1061.5,1033.17 1061.5,990.833 1061.5,948.5C 1062.5,990.997 1062.83,1033.66 1062.5,1076.5C 960.5,1076.5 858.5,1076.5 756.5,1076.5C 756.5,907.833 756.5,739.167 756.5,570.5 Z"/></g>
<g><path style="opacity:1" fill="#fefffe" d="M 757.5,570.5 C 806.167,570.5 854.833,570.5 903.5,570.5C 903.5,696.5 903.5,822.5 903.5,948.5C 956.167,948.5 1008.83,948.5 1061.5,948.5C 1061.5,990.833 1061.5,1033.17 1061.5,1075.5C 960.167,1075.5 858.833,1075.5 757.5,1075.5C 757.5,907.167 757.5,738.833 757.5,570.5 Z"/></g>
<g><path style="opacity:1" fill="#e8d9a8" d="M 756.5,570.5 C 805.664,569.501 854.997,569.168 904.5,569.5C 904.5,695.5 904.5,821.5 904.5,947.5C 957.003,947.168 1009.34,947.501 1061.5,948.5C 1008.83,948.5 956.167,948.5 903.5,948.5C 903.5,822.5 903.5,696.5 903.5,570.5C 854.833,570.5 806.167,570.5 757.5,570.5C 757.167,570.5 756.833,570.5 756.5,570.5 Z"/></g>
<g><path style="opacity:1" fill="#d2b454" d="M 374.5,720.5 C 375.434,719.432 375.768,718.099 375.5,716.5C 369.833,716.5 364.167,716.5 358.5,716.5C 355.144,715.975 353.311,713.975 353,710.5C 352.371,706.129 352.537,701.796 353.5,697.5C 362.426,699.32 371.426,700.154 380.5,700C 383.411,699.353 384.745,697.519 384.5,694.5C 381.447,685.272 375.614,678.272 367,673.5C 361.953,675.388 356.786,676.554 351.5,677C 349.3,674.766 347.467,672.266 346,669.5C 344.246,663.23 341.912,657.23 339,651.5C 338.223,648.571 338.39,645.737 339.5,643C 345.537,639.877 351.87,637.543 358.5,636C 359.833,633.667 361.167,631.333 362.5,629C 375.54,626.437 388.54,623.437 401.5,620C 411.92,618.355 421.587,620.355 430.5,626C 435.328,629.581 440.328,632.915 445.5,636C 448.726,637.199 452.059,637.699 455.5,637.5C 454.763,642.072 452.097,644.905 447.5,646C 455,648.167 459.833,653 462,660.5C 462.414,671.584 466.247,681.251 473.5,689.5C 472.975,690.192 472.308,690.692 471.5,691C 468.5,691.333 465.5,691.667 462.5,692C 468.013,698.593 468.846,705.76 465,713.5C 461.806,718.554 459.139,723.888 457,729.5C 455.808,736.883 456.975,743.883 460.5,750.5C 456.303,752.019 452.47,751.352 449,748.5C 448.833,748.833 448.667,749.167 448.5,749.5C 449.606,753.777 449.772,758.11 449,762.5C 446,767.833 443,773.167 440,778.5C 438.928,785.449 440.428,791.783 444.5,797.5C 440.903,800.077 437.237,800.077 433.5,797.5C 433.167,797.833 432.833,798.167 432.5,798.5C 445,822.833 457.5,847.167 470,871.5C 476.907,880.843 485.741,883.01 496.5,878C 502.702,873.719 505.202,867.886 504,860.5C 493.061,838.956 482.395,817.29 472,795.5C 465.891,772.48 473.058,754.98 493.5,743C 515.5,731.667 537.5,720.333 559.5,709C 569.045,699.957 570.545,689.79 564,678.5C 555.925,670.196 547.092,669.363 537.5,676C 532.231,683.977 532.897,691.644 539.5,699C 530.765,701.554 524.265,698.721 520,690.5C 511.178,695.746 501.678,697.579 491.5,696C 491.383,684.273 496.717,675.607 507.5,670C 500.83,661.577 500.997,653.411 508,645.5C 514.696,661.176 525.53,664.676 540.5,656C 558.107,652.388 571.607,658.221 581,673.5C 589.116,692.199 585.616,708.366 570.5,722C 546.991,734.588 523.324,746.922 499.5,759C 485.265,769.873 482.765,783.04 492,798.5C 492.208,787.914 496.708,779.748 505.5,774C 523.466,766.008 541.466,758.008 559.5,750C 566.333,745.833 571.833,740.333 576,733.5C 577.403,747.222 574.403,759.889 567,771.5C 563.419,775.752 559.252,779.252 554.5,782C 541.833,787.667 529.167,793.333 516.5,799C 506.064,807.823 503.564,818.656 509,831.5C 509.582,821.909 514.415,815.409 523.5,812C 533.577,808.53 543.577,804.863 553.5,801C 558.116,798.44 562.282,795.273 566,791.5C 567.373,806.584 561.873,818.417 549.5,827C 541.29,830.623 533.29,834.623 525.5,839C 519.594,844.508 518.094,851.008 521,858.5C 522.371,855.12 524.538,852.287 527.5,850C 533.324,847.711 539.324,846.044 545.5,845C 549.164,843.998 552.331,842.164 555,839.5C 555.013,846.126 553.013,852.126 549,857.5C 540.691,862.048 532.191,866.215 523.5,870C 520.292,874.247 517.458,878.747 515,883.5C 501.056,898.766 484.89,901.6 466.5,892C 465.574,890.42 464.574,889.92 463.5,890.5C 469.882,902.05 478.548,911.55 489.5,919C 505.201,930.352 522.201,939.352 540.5,946C 538.473,948.681 535.807,950.347 532.5,951C 527.521,951.923 522.521,952.756 517.5,953.5C 520.105,956.809 523.439,959.142 527.5,960.5C 525.869,962.297 523.869,963.464 521.5,964C 517.833,964.333 514.167,964.667 510.5,965C 507.234,971.533 504.234,978.2 501.5,985C 505.202,988.893 508.035,993.393 510,998.5C 510.826,1003.59 510.492,1008.59 509,1013.5C 508.385,1015.12 507.385,1016.45 506,1017.5C 504.485,1008.83 499.651,1006 491.5,1009C 488.371,1012.75 485.871,1016.92 484,1021.5C 481.538,1026.75 479.371,1032.09 477.5,1037.5C 461.995,1035.82 450.162,1041.49 442,1054.5C 437.839,1048.38 437.505,1042.04 441,1035.5C 443.833,1032.67 446.667,1029.83 449.5,1027C 445.406,1026.23 441.406,1026.57 437.5,1028C 432.423,1030.58 427.756,1033.75 423.5,1037.5C 422.227,1033.45 422.394,1029.45 424,1025.5C 427.739,1019.93 432.572,1015.59 438.5,1012.5C 436.631,1011.38 434.631,1010.54 432.5,1010C 426.78,1009.21 421.114,1009.38 415.5,1010.5C 414.417,1009.64 414.251,1008.64 415,1007.5C 419.591,1001.91 425.424,998.405 432.5,997C 442.161,996.5 451.828,996.334 461.5,996.5C 464.639,985.382 465.806,974.049 465,962.5C 461.915,956.364 457.081,952.198 450.5,950C 444.981,947.66 439.314,945.827 433.5,944.5C 433.467,949.899 431.3,954.233 427,957.5C 425.833,951.652 423.333,946.486 419.5,942C 409.63,940.364 400.297,941.864 391.5,946.5C 391.167,946.167 390.833,945.833 390.5,945.5C 394.239,938.128 399.906,932.795 407.5,929.5C 408.583,928.635 408.749,927.635 408,926.5C 403.167,919.667 398.333,912.833 393.5,906C 381.873,907.654 370.873,911.32 360.5,917C 354.999,921.784 353.832,927.618 357,934.5C 361.029,949.759 366.529,964.426 373.5,978.5C 368.493,979.894 363.826,979.061 359.5,976C 357,973.5 354.5,971 352,968.5C 350.649,975.015 346.816,979.015 340.5,980.5C 340.664,977.813 340.497,975.146 340,972.5C 339.692,971.692 339.192,971.025 338.5,970.5C 324.142,974.897 309.808,979.397 295.5,984C 291.912,991.709 286.412,997.542 279,1001.5C 281.811,986.893 275.978,980.726 261.5,983C 250.9,985.714 241.733,990.881 234,998.5C 232.747,989.499 235.58,981.999 242.5,976C 235.241,973.84 228.075,974.34 221,977.5C 220.5,977.167 220,976.833 219.5,976.5C 224.484,966.003 232.818,960.503 244.5,960C 240.565,954.361 235.232,950.694 228.5,949C 230.221,947.473 232.221,946.473 234.5,946C 238.5,945.333 242.5,945.333 246.5,946C 254.46,947.821 262.127,950.321 269.5,953.5C 282.773,952.68 295.44,949.513 307.5,944C 311.264,942.404 313.264,939.571 313.5,935.5C 311.372,926.097 307.706,917.431 302.5,909.5C 299.153,913.673 294.82,916.007 289.5,916.5C 289.207,912.563 289.54,908.73 290.5,905C 283.269,906.277 275.935,906.61 268.5,906C 263.883,905.361 260.216,903.194 257.5,899.5C 273.086,896.027 288.086,890.86 302.5,884C 325.084,873.199 346.751,861.033 367.5,847.5C 362.509,841.177 357.176,835.177 351.5,829.5C 336.534,833.325 321.534,836.991 306.5,840.5C 308.549,847.998 307.549,854.998 303.5,861.5C 301.864,854.699 297.864,849.865 291.5,847C 290.056,846.219 288.723,846.386 287.5,847.5C 285.929,853.405 282.263,857.405 276.5,859.5C 276.702,855.945 276.369,852.278 275.5,848.5C 260.839,847.666 246.172,847.832 231.5,849C 229.37,857.629 224.037,863.129 215.5,865.5C 215.167,864.833 214.833,864.167 214.5,863.5C 216.282,858.966 216.782,854.299 216,849.5C 213.236,845.233 209.236,843.233 204,843.5C 191.422,845.622 180.422,850.956 171,859.5C 169.871,850.219 172.705,842.385 179.5,836C 177.03,834.886 174.364,834.386 171.5,834.5C 166.372,834.292 161.539,835.292 157,837.5C 156.48,835.711 156.813,834.044 158,832.5C 164.537,825.148 172.703,820.814 182.5,819.5C 180.393,816.939 177.726,815.106 174.5,814C 170.351,812.263 166.017,811.263 161.5,811C 170.709,803.573 181.042,801.573 192.5,805C 200.648,807.271 208.648,809.938 216.5,813C 224.87,813.684 233.203,813.351 241.5,812C 265.53,806.602 288.197,797.769 309.5,785.5C 297.999,778.248 286.332,771.248 274.5,764.5C 271.732,772.444 266.565,778.444 259,782.5C 259.482,778.061 259.982,773.561 260.5,769C 260.381,764.692 259.548,760.525 258,756.5C 253.402,752.302 247.902,750.468 241.5,751C 244.256,747.573 247.59,744.907 251.5,743C 243.454,732.41 235.287,721.91 227,711.5C 220.3,715.199 213.133,716.366 205.5,715C 203.668,714.252 202.001,713.252 200.5,712C 214.168,706.837 219.668,697.004 217,682.5C 215.055,677.443 212.221,672.943 208.5,669C 203.344,664.586 197.677,660.919 191.5,658C 199.953,654.619 208.286,655.119 216.5,659.5C 217.541,655.526 216.707,651.859 214,648.5C 210.833,645.333 207.667,642.167 204.5,639C 218.601,637.802 227.768,643.969 232,657.5C 232.699,649.704 232.365,642.037 231,634.5C 241.758,640.843 246.925,650.343 246.5,663C 246.453,665.889 246.12,668.722 245.5,671.5C 256.316,695.421 274.316,711.255 299.5,719C 316.072,724.643 332.739,729.976 349.5,735C 357.745,736.9 364.912,735.067 371,729.5C 373.05,726.852 374.216,723.852 374.5,720.5 Z"/></g>
<g><path style="opacity:1" fill="#fdfbf7" d="M 369.5,636.5 C 376.998,636.125 383.998,637.791 390.5,641.5C 384.708,645.239 378.375,646.405 371.5,645C 365.75,643.261 365.083,640.427 369.5,636.5 Z"/></g>
<g><path style="opacity:1" fill="#d3b659" d="M 296.5,679.5 C 311.804,688.385 328.137,690.885 345.5,687C 352.54,684.76 359.54,682.76 366.5,681C 349.653,699.642 329.986,703.308 307.5,692C 302.543,688.882 298.876,684.715 296.5,679.5 Z"/></g>
<g><path style="opacity:1" fill="#e7d7a4" d="M 358.5,716.5 C 364.167,716.5 369.833,716.5 375.5,716.5C 375.768,718.099 375.434,719.432 374.5,720.5C 374.5,719.5 374.5,718.5 374.5,717.5C 368.974,717.821 363.64,717.488 358.5,716.5 Z"/></g>
<g><path style="opacity:1" fill="#77776f" d="M 928.5,924.5 C 928.5,924.167 928.5,923.833 928.5,923.5C 981.167,923.5 1033.83,923.5 1086.5,923.5C 1086.83,982.669 1086.5,1041.67 1085.5,1100.5C 1085.5,1100.17 1085.5,1099.83 1085.5,1099.5C 1085.5,1041.17 1085.5,982.833 1085.5,924.5C 1033.17,924.5 980.833,924.5 928.5,924.5 Z"/></g>
<g><path style="opacity:1" fill="#aa995f" d="M 732.5,546.5 C 732.833,546.5 733.167,546.5 733.5,546.5C 733.5,730.833 733.5,915.167 733.5,1099.5C 850.833,1099.5 968.167,1099.5 1085.5,1099.5C 1085.5,1099.83 1085.5,1100.17 1085.5,1100.5C 967.833,1100.5 850.167,1100.5 732.5,1100.5C 732.5,915.833 732.5,731.167 732.5,546.5 Z"/></g>
</svg>
