<?xml version="1.0" encoding="UTF-8"?>
<!DOCTYPE svg PUBLIC "-//W3C//DTD SVG 1.1//EN" "http://www.w3.org/Graphics/SVG/1.1/DTD/svg11.dtd">
<svg xmlns="http://www.w3.org/2000/svg" version="1.1" width="557px" height="549px" style="shape-rendering:geometricPrecision; text-rendering:geometricPrecision; image-rendering:optimizeQuality; fill-rule:evenodd; clip-rule:evenodd" xmlns:xlink="http://www.w3.org/1999/xlink">
<g><path style="opacity:0.098" fill="#fefffe" d="M 50.5,428.5 C 51.8333,429.167 51.8333,429.167 50.5,428.5 Z"/></g>
<g><path style="opacity:0.098" fill="#fefffe" d="M 142.5,511.5 C 141.833,512.167 141.833,512.167 142.5,511.5 Z"/></g>
<g><path style="opacity:0.667" fill="#f0f5f9" d="M 142.5,511.5 C 61.7237,462.694 16.2237,391.027 6,296.5C 0.607058,202.164 33.4404,124.33 104.5,63C 181.807,3.70765 267.474,-12.2924 361.5,15C 463.494,52.1503 524.994,123.984 546,230.5C 558.559,325.83 530.726,406.996 462.5,474C 397.553,530.678 323.886,554.011 241.5,544C 206.559,538.853 173.559,528.02 142.5,511.5 Z"/></g>
<g><path style="opacity:1" fill="#055195" d="M 263.5,3.5 C 355.248,1.63644 430.414,35.6364 489,105.5C 545.563,180.181 561.229,262.847 536,353.5C 508.376,436.126 454.209,493.959 373.5,527C 280.238,559.34 193.571,547.007 113.5,490C 48.4065,438.323 12.9065,370.823 7,287.5C 4.31787,198.829 36.1512,125.329 102.5,67C 149.293,28.6108 202.959,7.44411 263.5,3.5 Z"/></g>
<g><path style="opacity:1" fill="#f9fbfd" d="M 257.5,22.5 C 364.731,19.3458 445.231,63.6792 499,155.5C 532.945,222.172 537.611,290.838 513,361.5C 480.162,443.672 420.995,496.172 335.5,519C 235.733,539.076 151.9,511.576 84,436.5C 28.1565,365.819 12.1565,286.819 36,199.5C 61.6589,124.511 110.826,71.3441 183.5,40C 207.548,30.9862 232.215,25.1529 257.5,22.5 Z"/></g>
<g><path style="opacity:1" fill="#035096" d="M 252.5,33.5 C 345.489,28.0891 419.656,62.4224 475,136.5C 515.604,197.626 527.271,263.959 510,335.5C 488.124,410.037 441.957,463.537 371.5,496C 283.593,529.782 201.927,518.782 126.5,463C 59.981,406.751 30.1477,334.918 37,247.5C 48.7826,163.438 91.6159,100.938 165.5,60C 193.145,46.3443 222.145,37.511 252.5,33.5 Z"/></g>
<g><path style="opacity:1" fill="#f7fbfd" d="M 238.5,463.5 C 241.785,463.736 244.785,464.736 247.5,466.5C 246.829,467.946 245.662,468.612 244,468.5C 242.175,468.057 240.342,467.723 238.5,467.5C 238.5,466.167 238.5,464.833 238.5,463.5 Z"/></g>
<g><path style="opacity:1" fill="#f1f6fa" d="M 273.5,456.5 C 279.263,455.448 283.93,457.115 287.5,461.5C 287.167,462.5 286.5,463.167 285.5,463.5C 278.866,458.744 273.366,459.744 269,466.5C 269.03,475.852 273.53,479.019 282.5,476C 284.037,474.89 284.703,473.39 284.5,471.5C 282.167,471.5 279.833,471.5 277.5,471.5C 277.5,470.167 277.5,468.833 277.5,467.5C 281.167,467.5 284.833,467.5 288.5,467.5C 290.113,476.049 286.613,480.716 278,481.5C 265.964,479.427 262.297,472.76 267,461.5C 268.965,459.45 271.132,457.783 273.5,456.5 Z"/></g>
<g><path style="opacity:1" fill="#eff4f8" d="M 310.5,453.5 C 311.833,453.5 313.167,453.5 314.5,453.5C 314.773,455.451 314.107,456.951 312.5,458C 308.152,458.465 303.819,458.965 299.5,459.5C 299.5,461.167 299.5,462.833 299.5,464.5C 301.92,464.708 304.253,464.374 306.5,463.5C 307.833,464.833 307.833,466.167 306.5,467.5C 300.932,467.551 299.266,470.051 301.5,475C 306.786,474.557 312.119,474.057 317.5,473.5C 317.5,474.833 317.5,476.167 317.5,477.5C 310.823,478.073 304.157,478.74 297.5,479.5C 296.686,471.472 295.686,463.472 294.5,455.5C 300.034,455.332 305.367,454.665 310.5,453.5 Z"/></g>
<g><path style="opacity:1" fill="#f1f6fa" d="M 333.5,447.5 C 339.958,446.054 343.625,448.554 344.5,455C 344.166,457.175 343.166,459.008 341.5,460.5C 343.5,462.833 345.5,465.167 347.5,467.5C 347.113,468.72 346.28,469.387 345,469.5C 342.216,467.72 339.716,465.553 337.5,463C 334.808,462.57 332.141,462.737 329.5,463.5C 329.955,466.203 330.622,468.87 331.5,471.5C 331.281,473.915 329.948,474.915 327.5,474.5C 326.202,467.142 324.202,459.975 321.5,453C 325.249,450.567 329.249,448.734 333.5,447.5 Z"/></g>
<g><path style="opacity:1" fill="#1c5692" d="M 334.5,451.5 C 336.199,451.34 337.866,451.506 339.5,452C 340.517,453.049 340.684,454.216 340,455.5C 336.509,457.839 332.675,459.505 328.5,460.5C 327.352,458.577 326.852,456.577 327,454.5C 329.672,453.718 332.172,452.718 334.5,451.5 Z"/></g>
<g><path style="opacity:1" fill="#f0f5f9" d="M 207.5,443.5 C 213.696,445.898 220.029,447.898 226.5,449.5C 226.5,450.833 226.5,452.167 226.5,453.5C 223.687,453.452 221.021,452.785 218.5,451.5C 215.709,457.705 213.209,464.038 211,470.5C 209.795,469.929 208.628,469.262 207.5,468.5C 209.896,462.979 211.896,457.312 213.5,451.5C 213.167,450.833 212.833,450.167 212.5,449.5C 210.618,448.907 208.785,448.24 207,447.5C 206.805,446.181 206.972,444.847 207.5,443.5 Z"/></g>
<g><path style="opacity:1" fill="#f1f6fa" d="M 367.5,432.5 C 369.017,432.511 370.184,433.177 371,434.5C 373.912,440.658 377.079,446.658 380.5,452.5C 379.537,454.49 378.204,454.823 376.5,453.5C 374.079,449.66 371.912,445.66 370,441.5C 369.829,446.533 369.329,451.533 368.5,456.5C 365.086,454.043 361.586,451.709 358,449.5C 358.596,453.718 360.096,457.718 362.5,461.5C 362.113,462.72 361.28,463.387 360,463.5C 355.166,456.83 351.666,449.497 349.5,441.5C 351.199,441.34 352.866,441.506 354.5,442C 358.088,444.377 361.588,446.877 365,449.5C 364.949,443.548 365.782,437.882 367.5,432.5 Z"/></g>
<g><path style="opacity:1" fill="#f2f6fa" d="M 182.5,431.5 C 184.17,431.751 185.67,432.418 187,433.5C 188.04,440.309 189.373,446.976 191,453.5C 193.634,448.853 196.301,444.187 199,439.5C 200.158,439.998 200.991,440.831 201.5,442C 197.983,448.843 194.483,455.677 191,462.5C 190,461.833 189,461.167 188,460.5C 186.392,453.85 184.892,447.184 183.5,440.5C 180.918,445.333 178.085,450 175,454.5C 174.075,453.953 173.242,453.287 172.5,452.5C 176.139,445.558 179.473,438.558 182.5,431.5 Z"/></g>
<g><path style="opacity:1" fill="#eef4f8" d="M 172.5,425.5 C 174.103,425.312 175.437,425.812 176.5,427C 172.625,433.252 168.625,439.419 164.5,445.5C 160.508,446.539 159.675,445.205 162,441.5C 165.759,436.309 169.259,430.976 172.5,425.5 Z"/></g>
<g><path style="opacity:1" fill="#f5f8fb" d="M 384.5,421.5 C 391.816,425.806 399.149,430.139 406.5,434.5C 406,435.881 405,436.547 403.5,436.5C 401.02,435.758 398.687,434.758 396.5,433.5C 394.394,434.43 392.394,435.596 390.5,437C 389.196,437.804 388.529,438.971 388.5,440.5C 390.242,443.946 389.742,446.946 387,449.5C 385.094,441.373 383.261,433.207 381.5,425C 382.071,423.401 383.071,422.234 384.5,421.5 Z"/></g>
<g><path style="opacity:1" fill="#155286" d="M 386.5,427.5 C 388.636,428.403 390.636,429.569 392.5,431C 388.402,434.486 386.402,433.319 386.5,427.5 Z"/></g>
<g><path style="opacity:1" fill="#f1f6fa" d="M 156.5,412.5 C 158.595,412.76 159.928,413.926 160.5,416C 158.536,423.559 156.369,431.059 154,438.5C 151.875,439.851 150.708,439.185 150.5,436.5C 151.012,434.116 151.679,431.783 152.5,429.5C 150.35,427.851 148.35,426.018 146.5,424C 143.232,423.62 140.232,424.454 137.5,426.5C 136.354,425.855 135.354,425.022 134.5,424C 141.983,420.244 149.316,416.411 156.5,412.5 Z"/></g>
<g><path style="opacity:1" fill="#0e5089" d="M 153.5,418.5 C 154.376,418.369 155.043,418.702 155.5,419.5C 154.572,425.303 152.572,425.803 149.5,421C 151.066,420.392 152.4,419.558 153.5,418.5 Z"/></g>
<g><path style="opacity:1" fill="#f1f5f9" d="M 398.5,410.5 C 399.239,410.369 399.906,410.536 400.5,411C 405.268,416.524 410.268,421.857 415.5,427C 414.534,428.678 413.201,429.345 411.5,429C 407.033,423.532 402.2,418.365 397,413.5C 396.761,412.212 397.261,411.212 398.5,410.5 Z"/></g>
<g><path style="opacity:1" fill="#f4f8fb" d="M 419.5,388.5 C 425.655,393.422 431.655,398.589 437.5,404C 436.833,404.667 436.167,405.333 435.5,406C 428.482,406.331 421.482,406.331 414.5,406C 418.5,409.667 422.5,413.333 426.5,417C 425.646,418.022 424.646,418.855 423.5,419.5C 417.601,414.389 411.934,409.056 406.5,403.5C 406.709,402.914 407.043,402.414 407.5,402C 414.863,401.533 422.197,401.533 429.5,402C 425.5,398.333 421.5,394.667 417.5,391C 418.381,390.292 419.047,389.458 419.5,388.5 Z"/></g>
<g><path style="opacity:1" fill="#f2f6fa" d="M 127.5,388.5 C 137.366,388.871 142.866,393.871 144,403.5C 143.586,403.957 143.086,404.291 142.5,404.5C 140.454,399.95 137.454,396.117 133.5,393C 131.536,392.376 129.869,392.876 128.5,394.5C 130.802,398.633 133.302,402.633 136,406.5C 137.9,415.931 134.4,418.764 125.5,415C 120.6,411.436 117.266,406.769 115.5,401C 115.93,399.566 116.764,398.399 118,397.5C 119.987,403.478 123.487,408.312 128.5,412C 132.088,412.611 133.254,411.111 132,407.5C 128.705,403.242 126.205,398.575 124.5,393.5C 124.757,391.308 125.757,389.641 127.5,388.5 Z"/></g>
<g><path style="opacity:1" fill="#225a90" d="M 204.5,111.5 C 206.758,122.132 203.758,130.632 195.5,137C 194,137.5 192.5,138 191,138.5C 189.72,138.387 188.887,137.72 188.5,136.5C 189.114,132.033 189.78,127.7 190.5,123.5C 190.334,127.514 190.501,131.514 191,135.5C 194.722,132.937 198.555,130.603 202.5,128.5C 203.167,122.681 203.833,117.014 204.5,111.5 Z"/></g>
<g><path style="opacity:1" fill="#fbfbfc" d="M 261.5,126.5 C 332.292,123.861 383.125,154.194 414,217.5C 437.627,283.824 423.793,340.991 372.5,389C 329.633,422.869 281.966,431.869 229.5,416C 182.482,398.982 150.982,366.815 135,319.5C 118.532,256.506 134.366,203.339 182.5,160C 205.68,141.331 232.013,130.164 261.5,126.5 Z"/></g>
<g><path style="opacity:1" fill="#045095" d="M 267.5,319.5 C 299.28,316.957 321.113,330.29 333,359.5C 336.788,374.115 335.121,388.115 328,401.5C 321.107,405.69 313.607,408.524 305.5,410C 281.155,414.354 257.155,413.021 233.5,406C 227.289,404.116 223.456,399.95 222,393.5C 213.969,354.561 229.135,329.895 267.5,319.5 Z"/></g>
<g><path style="opacity:1" fill="#18528d" d="M 269.5,348.5 C 267.792,353.371 267.292,358.371 268,363.5C 270.962,369.087 273.628,374.754 276,380.5C 276.671,381.252 277.504,381.586 278.5,381.5C 277.737,382.268 276.737,382.768 275.5,383C 276.536,384.617 277.703,384.784 279,383.5C 280.771,384.304 282.271,385.471 283.5,387C 283.297,390.389 283.13,393.889 283,397.5C 280.263,398.61 277.429,398.777 274.5,398C 273.177,397.184 272.511,396.017 272.5,394.5C 276.772,398.914 279.772,398.08 281.5,392C 280.365,389.559 278.865,387.392 277,385.5C 275.158,387.215 273.325,388.882 271.5,390.5C 272.369,388.283 272.702,385.95 272.5,383.5C 271.209,383.737 270.209,383.404 269.5,382.5C 270.5,382.5 271.5,382.5 272.5,382.5C 270.647,374.474 265.981,368.641 258.5,365C 252.314,363.268 247.647,365.101 244.5,370.5C 243.908,367.359 244.908,365.026 247.5,363.5C 249.857,362.905 252.023,361.905 254,360.5C 254.915,361.328 255.581,362.328 256,363.5C 256.85,362.576 257.85,362.576 259,363.5C 260.44,361.631 262.107,359.965 264,358.5C 264.333,359.167 264.667,359.833 265,360.5C 266.064,359.056 266.564,357.389 266.5,355.5C 265.81,353.09 265.31,350.757 265,348.5C 265.333,349.167 265.667,349.833 266,350.5C 267.596,351.048 268.763,350.382 269.5,348.5 Z"/></g>
<g><path style="opacity:1" fill="#ae9966" d="M 272.5,394.5 C 272.167,393.167 271.833,391.833 271.5,390.5C 273.325,388.882 275.158,387.215 277,385.5C 278.865,387.392 280.365,389.559 281.5,392C 279.772,398.08 276.772,398.914 272.5,394.5 Z"/></g>
<g><path style="opacity:1" fill="#ef2e38" d="M 225.5,277.5 C 259.502,277.333 293.502,277.5 327.5,278C 345.032,305.706 366.366,330.206 391.5,351.5C 380.865,367.634 367.365,380.967 351,391.5C 352.05,351.796 333.55,325.963 295.5,314C 256.657,307.178 227.49,320.678 208,354.5C 203.325,366.539 201.491,378.872 202.5,391.5C 186.165,381.165 172.832,367.832 162.5,351.5C 181.176,334.654 198.343,316.321 214,296.5C 218.358,290.444 222.192,284.11 225.5,277.5 Z"/></g>
<g><path style="opacity:1" fill="#1c548b" d="M 302.5,383.5 C 303.598,384.397 303.598,385.23 302.5,386C 299.874,386.995 297.207,387.328 294.5,387C 293.91,385.491 293.244,383.991 292.5,382.5C 289.286,386.309 288.286,385.642 289.5,380.5C 288.643,379.575 287.643,378.908 286.5,378.5C 288.693,373.762 292.36,371.929 297.5,373C 299.182,376.092 298.349,378.259 295,379.5C 294.333,380.5 294.333,381.5 295,382.5C 297.381,383.435 299.881,383.768 302.5,383.5 Z"/></g>
<g><path style="opacity:1" fill="#3d6073" d="M 286.5,356.5 C 287.622,358.288 287.789,360.288 287,362.5C 286,365.167 285,367.833 284,370.5C 283.329,371.252 282.496,371.586 281.5,371.5C 282.128,368.91 283.295,366.577 285,364.5C 286.079,361.937 286.579,359.271 286.5,356.5 Z"/></g>
<g><path style="opacity:1" fill="#b1995e" d="M 304.5,366.5 C 306.335,367.122 307.502,368.456 308,370.5C 308.497,372.81 308.663,375.143 308.5,377.5C 307.5,380.5 305.5,382.5 302.5,383.5C 299.881,383.768 297.381,383.435 295,382.5C 294.333,381.5 294.333,380.5 295,379.5C 298.349,378.259 299.182,376.092 297.5,373C 292.36,371.929 288.693,373.762 286.5,378.5C 285.288,379.23 284.288,380.23 283.5,381.5C 282.369,379.926 282.202,378.259 283,376.5C 285.364,373.31 287.864,370.31 290.5,367.5C 295.181,366.086 299.847,365.752 304.5,366.5 Z"/></g>
<g><path style="opacity:1" fill="#ae9964" d="M 269.5,382.5 C 267.265,376.389 262.931,373.222 256.5,373C 254.219,374.482 254.219,376.149 256.5,378C 257.448,378.483 258.448,378.649 259.5,378.5C 259.579,379.93 259.246,381.264 258.5,382.5C 248.06,385.399 243.393,381.399 244.5,370.5C 247.647,365.101 252.314,363.268 258.5,365C 265.981,368.641 270.647,374.474 272.5,382.5C 271.5,382.5 270.5,382.5 269.5,382.5 Z"/></g>
<g><path style="opacity:1" fill="#45677f" d="M 303.5,364.5 C 305.39,364.297 306.89,364.963 308,366.5C 309.607,370.259 309.774,373.926 308.5,377.5C 308.663,375.143 308.497,372.81 308,370.5C 307.502,368.456 306.335,367.122 304.5,366.5C 304.167,365.833 303.833,365.167 303.5,364.5 Z"/></g>
<g><path style="opacity:1" fill="#9a9889" d="M 303.5,364.5 C 303.833,365.167 304.167,365.833 304.5,366.5C 299.847,365.752 295.181,366.086 290.5,367.5C 294.355,364.965 298.688,363.965 303.5,364.5 Z"/></g>
<g><path style="opacity:1" fill="#a19a87" d="M 280.5,342.5 C 283.129,346.377 284.796,350.71 285.5,355.5C 283.083,351.539 281.417,347.205 280.5,342.5 Z"/></g>
<g><path style="opacity:1" fill="#b1995c" d="M 280.5,342.5 C 281.417,347.205 283.083,351.539 285.5,355.5C 285.5,356.167 285.833,356.5 286.5,356.5C 286.579,359.271 286.079,361.937 285,364.5C 283.295,366.577 282.128,368.91 281.5,371.5C 279.924,374.655 278.924,377.988 278.5,381.5C 277.504,381.586 276.671,381.252 276,380.5C 273.628,374.754 270.962,369.087 268,363.5C 267.292,358.371 267.792,353.371 269.5,348.5C 271.211,344.093 273.711,340.093 277,336.5C 279.188,337.889 280.354,339.889 280.5,342.5 Z"/></g>
<g><path style="opacity:1" fill="#dba5a7" d="M 230.5,270.5 C 261.329,271.498 292.329,271.831 323.5,271.5C 292.331,272.83 260.997,272.83 229.5,271.5C 229.624,270.893 229.957,270.56 230.5,270.5 Z"/></g>
<g><path style="opacity:1" fill="#025096" d="M 254.5,138.5 C 254.021,198.744 234.187,252.078 195,298.5C 182.516,312.326 168.849,324.66 154,335.5C 143.588,316.793 138.754,296.627 139.5,275C 141.58,215.817 169.246,173.484 222.5,148C 232.958,143.676 243.625,140.509 254.5,138.5 Z"/></g>
<g><path style="opacity:1" fill="#025096" d="M 296.5,139.5 C 322.343,142.186 345.343,152.019 365.5,169C 408.055,207.689 422.888,255.189 410,311.5C 407.419,320.179 404.086,328.512 400,336.5C 336.049,286.609 301.549,220.942 296.5,139.5 Z"/></g>
<g><path style="opacity:1" fill="#ee2c37" d="M 323.5,271.5 C 292.329,271.831 261.329,271.498 230.5,270.5C 252.468,229.029 263.802,184.696 264.5,137.5C 272.833,137.5 281.167,137.5 289.5,137.5C 289.896,185.085 301.229,229.751 323.5,271.5 Z"/></g>
<g><path style="opacity:1" fill="#fafcfd" d="M 394.5,90.5 C 411.522,91.9981 424.689,99.9981 434,114.5C 435.444,117.055 436.611,119.721 437.5,122.5C 435.172,125.66 432.339,128.327 429,130.5C 423.811,116.807 414.311,107.807 400.5,103.5C 396.293,104.976 395.46,107.642 398,111.5C 403.333,117.5 408.667,123.5 414,129.5C 420.274,136.968 421.94,145.302 419,154.5C 413.175,162.105 405.675,164.272 396.5,161C 381.133,153.966 370.133,142.633 363.5,127C 366.5,124.5 369.5,122 372.5,119.5C 377.831,129.004 384.498,137.504 392.5,145C 395.346,147.173 398.512,148.673 402,149.5C 406.536,148.63 408.203,145.963 407,141.5C 406.333,140.167 405.667,138.833 405,137.5C 399.333,131.167 393.667,124.833 388,118.5C 380.075,106.367 382.242,97.0341 394.5,90.5 Z"/></g>
<g><path style="opacity:1" fill="#fbfcfd" d="M 147.5,87.5 C 166.485,87.3204 174.652,96.6537 172,115.5C 171,117.5 170,119.5 169,121.5C 162.647,128.352 156.481,135.352 150.5,142.5C 154.527,147.194 158.86,151.527 163.5,155.5C 160.833,158.833 157.833,161.833 154.5,164.5C 139.175,151.174 124.175,137.507 109.5,123.5C 118.686,113.482 127.686,103.315 136.5,93C 139.99,90.588 143.657,88.7547 147.5,87.5 Z"/></g>
<g><path style="opacity:1" fill="#075194" d="M 146.5,100.5 C 157.804,99.6329 161.97,104.633 159,115.5C 153.351,121.983 147.517,128.317 141.5,134.5C 136.009,130.842 131.342,126.342 127.5,121C 133.715,113.956 140.048,107.122 146.5,100.5 Z"/></g>
<g><path style="opacity:1" fill="#fafbfd" d="M 356.5,63.5 C 360.145,64.9873 363.812,66.4873 367.5,68C 368.022,68.5613 368.355,69.228 368.5,70C 360.609,88.9401 352.609,107.773 344.5,126.5C 340.155,124.994 336.155,122.994 332.5,120.5C 340.507,101.471 348.507,82.4709 356.5,63.5 Z"/></g>
<g><path style="opacity:1" fill="#fafbfd" d="M 204.5,111.5 C 203.833,117.014 203.167,122.681 202.5,128.5C 198.555,130.603 194.722,132.937 191,135.5C 190.501,131.514 190.334,127.514 190.5,123.5C 191.617,103.567 193.283,83.7338 195.5,64C 199.831,62.316 204.164,60.9827 208.5,60C 224.351,77.0169 240.018,94.1836 255.5,111.5C 254.975,112.192 254.308,112.692 253.5,113C 249.181,113.905 244.848,114.238 240.5,114C 236.65,110.451 233.15,106.617 230,102.5C 221.407,105.198 212.907,108.198 204.5,111.5 Z"/></g>
<g><path style="opacity:1" fill="#145393" d="M 205.5,74.5 C 210.934,80.5016 216.267,86.6682 221.5,93C 216.39,95.6495 211.057,97.8162 205.5,99.5C 205.119,91.2118 205.119,82.8784 205.5,74.5 Z"/></g>
<g><path style="opacity:1" fill="#fbfcfd" d="M 263.5,49.5 C 278.225,49.0679 292.892,49.5679 307.5,51C 322.667,58.8283 325.834,69.995 317,84.5C 313.707,87.7869 309.873,90.2869 305.5,92C 310.833,100.333 316.167,108.667 321.5,117C 316.107,116.655 310.773,115.655 305.5,114C 300.441,107.272 295.774,100.272 291.5,93C 286.511,92.5007 281.511,92.3341 276.5,92.5C 276.5,98.8333 276.5,105.167 276.5,111.5C 272.167,111.5 267.833,111.5 263.5,111.5C 263.5,90.8333 263.5,70.1667 263.5,49.5 Z"/></g>
<g><path style="opacity:1" fill="#0f5295" d="M 276.5,60.5 C 284.507,60.3336 292.507,60.5003 300.5,61C 308.412,63.605 310.579,68.7716 307,76.5C 305.786,78.0488 304.286,79.2155 302.5,80C 293.84,80.4998 285.173,80.6664 276.5,80.5C 276.5,73.8333 276.5,67.1667 276.5,60.5 Z"/></g>
</svg>
