<?xml version="1.0" encoding="UTF-8"?>
<!DOCTYPE svg PUBLIC "-//W3C//DTD SVG 1.1//EN" "http://www.w3.org/Graphics/SVG/1.1/DTD/svg11.dtd">
<svg xmlns="http://www.w3.org/2000/svg" version="1.1" width="2500px" height="2500px" style="shape-rendering:geometricPrecision; text-rendering:geometricPrecision; image-rendering:optimizeQuality; fill-rule:evenodd; clip-rule:evenodd" xmlns:xlink="http://www.w3.org/1999/xlink">
<g><path style="opacity:0.974" fill="#fffefe" d="M 555.5,-0.5 C 557.833,-0.5 560.167,-0.5 562.5,-0.5C 659.548,24.5042 757.881,43.6708 857.5,57C 1148.48,94.8621 1438.81,90.5287 1728.5,44C 1798.64,32.2942 1867.97,17.4609 1936.5,-0.5C 1939.17,-0.5 1941.83,-0.5 1944.5,-0.5C 1946.09,2.26817 1947.92,4.93484 1950,7.5C 2028.54,96.2721 2106.37,185.605 2183.5,275.5C 2169.14,305.343 2153.31,334.343 2136,362.5C 2125.47,381.562 2117.14,401.562 2111,422.5C 2109.28,428.752 2107.95,435.086 2107,441.5C 2106.33,458.833 2106.33,476.167 2107,493.5C 2112.9,562.775 2122.9,631.441 2137,699.5C 2146.49,744.264 2155.99,788.764 2165.5,833C 2198.09,962.522 2227.92,1092.69 2255,1223.5C 2269.15,1295.23 2278.82,1367.56 2284,1440.5C 2298.46,1712.84 2188.29,1916 1953.5,2050C 1908.77,2073.24 1862.77,2093.58 1815.5,2111C 1739.32,2136.5 1663.99,2164.17 1589.5,2194C 1536.9,2216.46 1486.56,2242.8 1438.5,2273C 1399.07,2298.42 1363.9,2328.92 1333,2364.5C 1320.93,2380.31 1309.59,2396.64 1299,2413.5C 1282.56,2442.06 1266.39,2470.73 1250.5,2499.5C 1249.83,2499.5 1249.17,2499.5 1248.5,2499.5C 1231.94,2469.39 1215.11,2439.39 1198,2409.5C 1176.45,2373.62 1149.62,2342.12 1117.5,2315C 1079.41,2283.78 1038.41,2256.78 994.5,2234C 941.977,2207.07 887.977,2183.41 832.5,2163C 774.08,2142.53 715.747,2121.86 657.5,2101C 574.705,2070.29 499.372,2027.29 431.5,1972C 298.725,1859.28 226.892,1715.45 216,1540.5C 215.333,1505.83 215.333,1471.17 216,1436.5C 221.13,1366.26 230.463,1296.59 244,1227.5C 250.482,1194.79 257.149,1162.13 264,1129.5C 290.13,1016.87 316.63,904.369 343.5,792C 357.358,727.029 369.858,661.529 381,595.5C 386.59,558.098 390.756,520.598 393.5,483C 395.976,453.976 391.809,425.81 381,398.5C 374.939,385.377 368.606,372.377 362,359.5C 346.167,331.833 330.333,304.167 314.5,276.5C 394.512,183.826 474.845,91.4927 555.5,-0.5 Z"/></g>
<g><path style="opacity:1" fill="#fed81c" d="M 565.5,31.5 C 839.998,97.2819 1118.33,122.782 1400.5,108C 1580.01,99.3653 1757.01,73.8653 1931.5,31.5C 1933.73,32.2186 1935.56,33.552 1937,35.5C 2007.65,116.981 2078.48,198.315 2149.5,279.5C 2137.84,301.49 2125.67,323.157 2113,344.5C 2098.75,368.667 2088.08,394.334 2081,421.5C 2078.4,433.87 2076.9,446.37 2076.5,459C 2080.19,531.797 2089.02,603.964 2103,675.5C 2111.28,717.255 2119.95,758.921 2129,800.5C 2156.16,916.147 2183.16,1031.81 2210,1147.5C 2226.79,1224.22 2240.12,1301.55 2250,1379.5C 2261.8,1469.21 2258.13,1558.21 2239,1646.5C 2204.67,1782.41 2131.17,1891.57 2018.5,1974C 1975.87,2005.16 1930.21,2031.49 1881.5,2053C 1856.61,2063.28 1831.61,2073.28 1806.5,2083C 1755.46,2100.79 1704.46,2118.79 1653.5,2137C 1577.86,2164.66 1505.53,2198.99 1436.5,2240C 1395.87,2265.28 1358.7,2295.11 1325,2329.5C 1314.62,2341.54 1304.62,2353.88 1295,2366.5C 1279.07,2390.7 1263.9,2415.37 1249.5,2440.5C 1231.16,2406.47 1210.33,2374.13 1187,2343.5C 1150.26,2302.41 1108.42,2267.58 1061.5,2239C 1012.61,2209.39 961.612,2183.72 908.5,2162C 877.691,2149.4 846.691,2137.4 815.5,2126C 769.697,2110.26 724.03,2094.26 678.5,2078C 605.311,2051.58 537.644,2015.58 475.5,1970C 328.493,1856.5 251.327,1706.34 244,1519.5C 242.679,1466.63 245.345,1413.96 252,1361.5C 261.603,1289.28 274.269,1217.61 290,1146.5C 315.154,1036.73 340.82,927.068 367,817.5C 386.008,735.126 401.675,652.126 414,568.5C 419.728,527.685 422.394,486.685 422,445.5C 420.45,424.634 415.45,404.634 407,385.5C 401.256,373.013 395.256,360.68 389,348.5C 375.78,325.893 362.946,303.06 350.5,280C 351.317,278.51 352.15,277.01 353,275.5C 424.415,194.591 495.249,113.257 565.5,31.5 Z"/></g>
<g><path style="opacity:1" fill="#000000" d="M 827.5,142.5 C 832.269,143.889 837.269,144.556 842.5,144.5C 858.282,147.139 874.282,149.139 890.5,150.5C 895.598,151.957 900.931,152.624 906.5,152.5C 922.953,154.871 939.62,156.538 956.5,157.5C 974.615,159.983 992.948,161.65 1011.5,162.5C 1090.53,168.979 1169.87,171.979 1249.5,171.5C 1249.5,219.833 1249.5,268.167 1249.5,316.5C 1173.5,316.333 1097.5,316.5 1021.5,317C 932.32,407.68 842.987,498.18 753.5,588.5C 752.333,738.832 752.167,889.166 753,1039.5C 845.167,1133.67 937.333,1227.83 1029.5,1322C 1102.83,1322.5 1176.17,1322.67 1249.5,1322.5C 1249.5,1369.5 1249.5,1416.5 1249.5,1463.5C 1240.25,1455.88 1229.58,1451.55 1217.5,1450.5C 1196.66,1449.17 1175.66,1449.17 1154.5,1450.5C 1154.62,1451.11 1154.96,1451.44 1155.5,1451.5C 1161.97,1454.77 1165.14,1460.11 1165,1467.5C 1165.67,1506.83 1165.67,1546.17 1165,1585.5C 1164.62,1592.62 1161.45,1597.95 1155.5,1601.5C 1154.96,1601.56 1154.62,1601.89 1154.5,1602.5C 1169.66,1603.83 1184.66,1603.83 1199.5,1602.5C 1194.22,1599.36 1191.05,1594.7 1190,1588.5C 1189.17,1547.83 1189.33,1507.16 1190.5,1466.5C 1204.98,1461.77 1217.81,1464.44 1229,1474.5C 1238.45,1491.55 1234.95,1505.38 1218.5,1516C 1210.65,1519.29 1202.65,1521.96 1194.5,1524C 1210.8,1550.12 1229.14,1574.62 1249.5,1597.5C 1249.5,1655.17 1249.5,1712.83 1249.5,1770.5C 1236.11,1740.71 1222.94,1710.71 1210,1680.5C 1205.55,1679.2 1201.05,1679.2 1196.5,1680.5C 1182.83,1711.83 1169.17,1743.17 1155.5,1774.5C 1161.5,1775.83 1167.5,1775.83 1173.5,1774.5C 1177.04,1765.93 1180.7,1757.43 1184.5,1749C 1197.18,1748.17 1209.85,1748.33 1222.5,1749.5C 1226.04,1758.12 1229.37,1766.79 1232.5,1775.5C 1238.17,1775.5 1243.83,1775.5 1249.5,1775.5C 1249.83,1959 1249.5,2142.33 1248.5,2325.5C 1216.88,2284.05 1179.88,2248.21 1137.5,2218C 1087.47,2182.81 1034.47,2152.47 978.5,2127C 930.844,2106.46 882.844,2087.12 834.5,2069C 793.167,2054.67 751.833,2040.33 710.5,2026C 647.273,2003.72 587.939,1974.05 532.5,1937C 466.544,1891.72 413.044,1834.88 372,1766.5C 339.058,1707.17 318.225,1643.84 309.5,1576.5C 309.23,1571.97 308.563,1567.64 307.5,1563.5C 303.513,1524.25 302.513,1484.92 304.5,1445.5C 305.444,1439.01 306.111,1432.34 306.5,1425.5C 307.963,1405.06 309.963,1384.73 312.5,1364.5C 314.031,1359.75 314.698,1354.75 314.5,1349.5C 321.722,1296.17 330.889,1243.17 342,1190.5C 351.608,1148.27 360.941,1105.93 370,1063.5C 401.361,938.393 430.028,812.727 456,686.5C 459.275,667.512 462.441,648.512 465.5,629.5C 466.581,626.373 467.247,623.04 467.5,619.5C 475.376,567.453 480.709,515.119 483.5,462.5C 483.423,429.946 477.256,398.613 465,368.5C 452.896,340.957 439.229,314.291 424,288.5C 423.333,287.5 423.333,286.5 424,285.5C 478.382,223.24 532.882,161.073 587.5,99C 626.716,107.301 666.049,115.301 705.5,123C 745.98,130.691 786.647,137.191 827.5,142.5 Z"/></g>
<g><path style="opacity:1" fill="#e13327" d="M 1251.5,2324.5 C 1250.5,2141.09 1250.17,1957.76 1250.5,1774.5C 1250.17,1773.17 1249.83,1771.83 1249.5,1770.5C 1249.5,1712.83 1249.5,1655.17 1249.5,1597.5C 1252.69,1599.26 1256.02,1600.76 1259.5,1602C 1300.17,1602.5 1340.83,1602.67 1381.5,1602.5C 1384.26,1592.4 1387.09,1582.4 1390,1572.5C 1376.4,1583.44 1360.9,1587.94 1343.5,1586C 1334.99,1585.02 1326.66,1583.86 1318.5,1582.5C 1318.5,1564.83 1318.5,1547.17 1318.5,1529.5C 1327.83,1529.5 1337.17,1529.5 1346.5,1529.5C 1350.24,1529.87 1353.24,1531.54 1355.5,1534.5C 1356.5,1526.53 1356.83,1518.53 1356.5,1510.5C 1343.86,1511.42 1331.2,1511.75 1318.5,1511.5C 1318.17,1497.15 1318.5,1482.82 1319.5,1468.5C 1330.45,1467.36 1341.45,1467.19 1352.5,1468C 1358.77,1468.64 1364.11,1471.14 1368.5,1475.5C 1368.56,1476.04 1368.89,1476.38 1369.5,1476.5C 1370.5,1467.19 1370.83,1457.86 1370.5,1448.5C 1369.21,1448.26 1368.21,1448.6 1367.5,1449.5C 1366.83,1449.5 1366.17,1449.5 1365.5,1449.5C 1338.16,1449.17 1310.83,1449.5 1283.5,1450.5C 1283.62,1451.11 1283.96,1451.44 1284.5,1451.5C 1290.25,1454.77 1293.42,1459.77 1294,1466.5C 1294.97,1507.87 1294.64,1549.2 1293,1590.5C 1292.28,1592.95 1291.28,1595.28 1290,1597.5C 1289.16,1599.01 1288,1599.51 1286.5,1599C 1271.65,1589.31 1259.31,1577.15 1249.5,1562.5C 1249.5,1545.5 1249.5,1528.5 1249.5,1511.5C 1260.14,1495.39 1260.14,1479.39 1249.5,1463.5C 1249.5,1416.5 1249.5,1369.5 1249.5,1322.5C 1323.17,1322.83 1396.84,1322.5 1470.5,1321.5C 1562.35,1227.75 1654.18,1134.08 1746,1040.5C 1746.67,889.833 1746.67,739.167 1746,588.5C 1656.92,497.748 1567.42,407.248 1477.5,317C 1401.5,316.5 1325.5,316.333 1249.5,316.5C 1249.5,268.167 1249.5,219.833 1249.5,171.5C 1472.16,172.153 1691.99,147.82 1909,98.5C 1912.39,98.8687 1915.06,100.535 1917,103.5C 1969.63,164.463 2022.63,225.129 2076,285.5C 2075.91,288.702 2074.91,291.702 2073,294.5C 2056.97,320.224 2043.3,347.224 2032,375.5C 2022.06,402.585 2016.89,430.585 2016.5,459.5C 2017.76,486.536 2019.6,513.536 2022,540.5C 2029.63,604.623 2039.97,668.29 2053,731.5C 2080.1,855.885 2108.76,979.885 2139,1103.5C 2160.04,1192.7 2176.71,1282.7 2189,1373.5C 2229.7,1694.73 2098.86,1911.23 1796.5,2023C 1744.5,2041.55 1692.5,2059.89 1640.5,2078C 1572.1,2103.37 1505.76,2133.37 1441.5,2168C 1384.93,2199.23 1333.43,2237.39 1287,2282.5C 1274.2,2295.79 1262.37,2309.79 1251.5,2324.5 Z"/></g>
<g><path style="opacity:1" fill="#ac9313" d="M 827.5,142.5 C 832.75,142.302 837.75,142.969 842.5,144.5C 837.269,144.556 832.269,143.889 827.5,142.5 Z"/></g>
<g><path style="opacity:1" fill="#a88f12" d="M 890.5,150.5 C 896.051,150.527 901.384,151.194 906.5,152.5C 900.931,152.624 895.598,151.957 890.5,150.5 Z"/></g>
<g><path style="opacity:1" fill="#dbbd17" d="M 956.5,157.5 C 969.151,157.119 981.818,157.619 994.5,159C 1000.48,159.281 1006.15,160.448 1011.5,162.5C 992.948,161.65 974.615,159.983 956.5,157.5 Z"/></g>
<g><path style="opacity:1" fill="#fbfafa" d="M 1249.5,316.5 C 1325.5,316.333 1401.5,316.5 1477.5,317C 1567.42,407.248 1656.92,497.748 1746,588.5C 1746.67,739.167 1746.67,889.833 1746,1040.5C 1654.18,1134.08 1562.35,1227.75 1470.5,1321.5C 1396.84,1322.5 1323.17,1322.83 1249.5,1322.5C 1176.17,1322.67 1102.83,1322.5 1029.5,1322C 937.333,1227.83 845.167,1133.67 753,1039.5C 752.167,889.166 752.333,738.832 753.5,588.5C 842.987,498.18 932.32,407.68 1021.5,317C 1097.5,316.5 1173.5,316.333 1249.5,316.5 Z"/></g>
<g><path style="opacity:1" fill="#e6574b" d="M 1027.5,328.5 C 1099.33,327.501 1171.33,327.167 1243.5,327.5C 1243.5,404.833 1243.5,482.167 1243.5,559.5C 1242.17,559.5 1240.83,559.5 1239.5,559.5C 1240.21,558.596 1241.21,558.263 1242.5,558.5C 1242.5,481.833 1242.5,405.167 1242.5,328.5C 1170.83,328.5 1099.17,328.5 1027.5,328.5 Z"/></g>
<g><path style="opacity:1" fill="#010101" d="M 1472.5,328.5 C 1559.85,416.687 1647.02,505.02 1734,593.5C 1734.67,740.833 1734.67,888.167 1734,1035.5C 1644.86,1126.97 1555.36,1218.14 1465.5,1309C 1395.33,1309.83 1325.33,1309.67 1255.5,1308.5C 1256.5,1126.67 1256.83,944.667 1256.5,762.5C 1259.06,762.802 1261.39,762.468 1263.5,761.5C 1300.49,755.033 1326.99,734.699 1343,700.5C 1359.44,655.268 1350.27,616.101 1315.5,583C 1305.1,575.132 1293.77,568.798 1281.5,564C 1272.44,562.367 1263.77,560.2 1255.5,557.5C 1256.5,481.335 1256.83,405.002 1256.5,328.5C 1328.5,328.5 1400.5,328.5 1472.5,328.5 Z"/></g>
<g><path style="opacity:1" fill="#e13327" d="M 1027.5,328.5 C 1099.17,328.5 1170.83,328.5 1242.5,328.5C 1242.5,405.167 1242.5,481.833 1242.5,558.5C 1241.21,558.263 1240.21,558.596 1239.5,559.5C 1189.72,567.481 1159.55,596.148 1149,645.5C 1144.91,694.009 1164.08,729.842 1206.5,753C 1217.85,758.671 1229.85,761.504 1242.5,761.5C 1242.5,761.833 1242.5,762.167 1242.5,762.5C 1240.14,762.337 1237.81,762.503 1235.5,763C 1237.47,763.495 1239.47,763.662 1241.5,763.5C 1241.5,945.167 1241.5,1126.83 1241.5,1308.5C 1172.5,1308.5 1103.5,1308.5 1034.5,1308.5C 944.082,1217.75 854.415,1126.42 765.5,1034.5C 766.333,888.001 766.833,741.334 767,594.5C 768.167,593.333 769.333,592.167 770.5,591C 770.272,590.601 769.938,590.435 769.5,590.5C 769.987,589.527 770.487,588.527 771,587.5C 856.675,501.325 942.175,414.992 1027.5,328.5 Z"/></g>
<g><path style="opacity:1" fill="#2a2a2a" d="M 1472.5,328.5 C 1400.5,328.5 1328.5,328.5 1256.5,328.5C 1256.83,405.002 1256.5,481.335 1255.5,557.5C 1255.5,480.833 1255.5,404.167 1255.5,327.5C 1328,327.167 1400.34,327.501 1472.5,328.5 Z"/></g>
<g><path style="opacity:1" fill="#fefefe" d="M 1209.5,812.5 C 1207.49,811.076 1205.15,810.41 1202.5,810.5C 1173.94,800.974 1148.11,786.641 1125,767.5C 1119.59,776.249 1112.75,783.749 1104.5,790C 1088.03,802.738 1071.03,814.738 1053.5,826C 1044.39,835.037 1037.39,845.537 1032.5,857.5C 1060.74,879.311 1078.91,907.645 1087,942.5C 1090.18,970.751 1085.18,997.418 1072,1022.5C 1057.59,1044.25 1040.93,1064.25 1022,1082.5C 1012.93,1092.3 1005.6,1103.3 1000,1115.5C 995.202,1128.85 994.202,1142.52 997,1156.5C 1005.59,1190.02 1021.26,1219.69 1044,1245.5C 1050.97,1253.47 1058.3,1261.14 1066,1268.5C 1067.3,1270.36 1067.63,1272.36 1067,1274.5C 1063.93,1275.62 1060.76,1275.78 1057.5,1275C 1040.49,1269.99 1023.83,1264.16 1007.5,1257.5C 980.754,1208.34 953.754,1159.34 926.5,1110.5C 940.37,1100.46 951.204,1087.79 959,1072.5C 965.519,1054.88 964.852,1037.54 957,1020.5C 945.218,998.707 929.718,979.874 910.5,964C 896.445,953.618 883.279,942.118 871,929.5C 847.176,896.355 836.51,859.355 839,818.5C 843.856,775.551 850.523,732.884 859,690.5C 861.384,678.858 861.718,667.191 860,655.5C 856.833,641.498 848.333,633.164 834.5,630.5C 832.548,617.748 831.882,604.748 832.5,591.5C 834.5,591.5 836.5,591.5 838.5,591.5C 872.942,593.768 894.108,611.768 902,645.5C 905.86,668.383 906.527,691.383 904,714.5C 896.96,749.121 890.293,783.788 884,818.5C 880.708,838.955 882.375,858.955 889,878.5C 892.171,885.338 896.505,891.338 902,896.5C 904.295,843.289 919.628,794.289 948,749.5C 961.622,732.209 975.622,715.209 990,698.5C 1005.67,677.843 1019.34,655.843 1031,632.5C 1044.89,602.6 1039.39,577.1 1014.5,556C 990.611,541.689 964.611,534.189 936.5,533.5C 925.012,532.505 913.345,532.172 901.5,532.5C 901.737,531.209 901.404,530.209 900.5,529.5C 899.22,521.101 897.554,512.768 895.5,504.5C 895.833,503.833 896.167,503.167 896.5,502.5C 924.58,492.465 950.247,478.298 973.5,460C 988.546,447.239 998.213,431.239 1002.5,412C 1003.91,411.685 1005.24,412.018 1006.5,413C 1011.24,417.448 1016.41,421.282 1022,424.5C 1026,420.364 1028.16,415.364 1028.5,409.5C 1035.88,412.027 1042.55,415.861 1048.5,421C 1067.48,439.641 1082.98,460.807 1095,484.5C 1104.04,503.243 1112.54,522.243 1120.5,541.5C 1149.28,518.295 1182.12,506.962 1219,507.5C 1219.87,519.17 1220.7,530.837 1221.5,542.5C 1183.28,551.687 1155.11,573.687 1137,608.5C 1127.98,628.929 1124.98,650.262 1128,672.5C 1135.13,727.969 1165.63,763.469 1219.5,779C 1223.75,780.195 1228.08,780.695 1232.5,780.5C 1230.84,791.81 1227.17,802.477 1221.5,812.5C 1217.52,813.505 1213.52,813.505 1209.5,812.5 Z"/></g>
<g><path style="opacity:1" fill="#fdfdfd" d="M 1598.5,532.5 C 1584.83,532.333 1571.16,532.5 1557.5,533C 1555.29,533.191 1553.29,533.691 1551.5,534.5C 1536.43,535.687 1521.76,538.854 1507.5,544C 1463.14,562.567 1450.97,593.733 1471,637.5C 1482.09,658.569 1494.75,678.569 1509,697.5C 1523.38,714.209 1537.38,731.209 1551,748.5C 1579.62,793.597 1595.28,842.93 1598,896.5C 1607.7,886.433 1613.7,874.433 1616,860.5C 1618.06,842.425 1617.39,824.425 1614,806.5C 1606.91,772.947 1600.58,739.28 1595,705.5C 1594.11,688.465 1594.44,671.465 1596,654.5C 1598.51,633.629 1607.68,616.463 1623.5,603C 1634.09,595.858 1645.76,592.025 1658.5,591.5C 1661.5,591.5 1664.5,591.5 1667.5,591.5C 1667.5,604.5 1667.5,617.5 1667.5,630.5C 1652.96,632.196 1643.8,640.196 1640,654.5C 1638.98,658.932 1638.48,663.432 1638.5,668C 1641.88,696.311 1646.38,724.477 1652,752.5C 1655.32,771.405 1657.99,790.405 1660,809.5C 1662.84,830.055 1661.84,850.389 1657,870.5C 1651.02,890.459 1642.35,909.126 1631,926.5C 1625.87,932.635 1620.37,938.469 1614.5,944C 1588.33,962.167 1566.17,984.333 1548,1010.5C 1532.06,1037.05 1532.73,1063.05 1550,1088.5C 1556.9,1096.73 1564.4,1104.23 1572.5,1111C 1545.68,1159.82 1518.85,1208.66 1492,1257.5C 1475.68,1263.74 1459.18,1269.58 1442.5,1275C 1439.5,1275.67 1436.5,1275.67 1433.5,1275C 1431.18,1273.51 1431.01,1271.68 1433,1269.5C 1457.55,1246.39 1477.21,1219.73 1492,1189.5C 1501.73,1169.21 1505.39,1147.87 1503,1125.5C 1497.23,1107.94 1487.89,1092.61 1475,1079.5C 1457.86,1063.5 1442.86,1045.84 1430,1026.5C 1414.6,1000.19 1408.94,971.855 1413,941.5C 1420.61,907.593 1438.28,880.259 1466,859.5C 1463.12,846.925 1456.96,836.092 1447.5,827C 1430.22,815.389 1413.22,803.389 1396.5,791C 1387.91,784.417 1380.75,776.584 1375,767.5C 1349.13,788.852 1319.96,804.019 1287.5,813C 1284.24,813.784 1281.07,813.617 1278,812.5C 1271.99,802.624 1268.49,791.958 1267.5,780.5C 1305.49,774.437 1334.99,755.437 1356,723.5C 1377.45,681.935 1377.79,640.269 1357,598.5C 1337.93,569.374 1311.43,550.707 1277.5,542.5C 1278.06,530.46 1279.06,518.46 1280.5,506.5C 1317.26,507.64 1350.26,519.307 1379.5,541.5C 1393.15,503.513 1411.99,468.513 1436,436.5C 1445.31,425.006 1456.48,416.006 1469.5,409.5C 1471.54,414.09 1473.71,418.757 1476,423.5C 1476.56,424.022 1477.23,424.355 1478,424.5C 1483.75,420.703 1489.25,416.536 1494.5,412C 1495.5,411.333 1496.5,411.333 1497.5,412C 1501.97,432.272 1512.3,448.938 1528.5,462C 1551.37,479.939 1576.71,493.439 1604.5,502.5C 1602.37,512.467 1600.37,522.467 1598.5,532.5 Z"/></g>
<g><path style="opacity:1" fill="#e86156" d="M 900.5,529.5 C 901.404,530.209 901.737,531.209 901.5,532.5C 913.345,532.172 925.012,532.505 936.5,533.5C 924.5,533.5 912.5,533.5 900.5,533.5C 900.5,532.167 900.5,530.833 900.5,529.5 Z"/></g>
<g><path style="opacity:1" fill="#393939" d="M 1598.5,532.5 C 1583,533.323 1567.33,533.989 1551.5,534.5C 1553.29,533.691 1555.29,533.191 1557.5,533C 1571.16,532.5 1584.83,532.333 1598.5,532.5 Z"/></g>
<g><path style="opacity:1" fill="#f7c5c1" d="M 838.5,591.5 C 836.5,591.5 834.5,591.5 832.5,591.5C 831.882,604.748 832.548,617.748 834.5,630.5C 833.5,630.5 832.5,630.5 831.5,630.5C 831.5,617.167 831.5,603.833 831.5,590.5C 834.059,590.198 836.393,590.532 838.5,591.5 Z"/></g>
<g><path style="opacity:1" fill="#797979" d="M 1658.5,591.5 C 1661.62,590.521 1664.96,590.187 1668.5,590.5C 1668.83,604.01 1668.5,617.344 1667.5,630.5C 1667.5,617.5 1667.5,604.5 1667.5,591.5C 1664.5,591.5 1661.5,591.5 1658.5,591.5 Z"/></g>
<g><path style="opacity:1" fill="#e34232" d="M 769.5,590.5 C 769.938,590.435 770.272,590.601 770.5,591C 769.333,592.167 768.167,593.333 767,594.5C 766.833,741.334 766.333,888.001 765.5,1034.5C 764.334,888.001 764.167,741.334 765,594.5C 766.371,592.959 767.871,591.625 769.5,590.5 Z"/></g>
<g><path style="opacity:1" fill="#917b10" d="M 467.5,619.5 C 467.247,623.04 466.581,626.373 465.5,629.5C 465.159,625.84 465.825,622.507 467.5,619.5 Z"/></g>
<g><path style="opacity:1" fill="#f9d6d3" d="M 1242.5,762.5 C 1242.5,762.167 1242.5,761.833 1242.5,761.5C 1243.83,852.498 1244.5,943.831 1244.5,1035.5C 1244.5,1127 1244.17,1218.33 1243.5,1309.5C 1243.83,1127 1243.5,944.666 1242.5,762.5 Z"/></g>
<g><path style="opacity:1" fill="#e03022" d="M 1242.5,762.5 C 1243.5,944.666 1243.83,1127 1243.5,1309.5C 1173.66,1309.83 1104,1309.5 1034.5,1308.5C 1103.5,1308.5 1172.5,1308.5 1241.5,1308.5C 1241.5,1126.83 1241.5,945.167 1241.5,763.5C 1239.47,763.662 1237.47,763.495 1235.5,763C 1237.81,762.503 1240.14,762.337 1242.5,762.5 Z"/></g>
<g><path style="opacity:1" fill="#1b1b1b" d="M 1263.5,761.5 C 1261.39,762.468 1259.06,762.802 1256.5,762.5C 1256.83,944.667 1256.5,1126.67 1255.5,1308.5C 1255.5,1126.17 1255.5,943.833 1255.5,761.5C 1258.17,761.5 1260.83,761.5 1263.5,761.5 Z"/></g>
<g><path style="opacity:1" fill="#f3a19a" d="M 1202.5,810.5 C 1205.15,810.41 1207.49,811.076 1209.5,812.5C 1206.85,812.59 1204.51,811.924 1202.5,810.5 Z"/></g>
<g><path style="opacity:1" fill="#fefdfd" d="M 1190.5,945.5 C 1191.26,956.817 1191.59,968.15 1191.5,979.5C 1188.7,1003.1 1179.86,1024.1 1165,1042.5C 1152.67,1056.83 1140.33,1071.17 1128,1085.5C 1121.04,1094.74 1116.88,1105.07 1115.5,1116.5C 1117.7,1130.24 1122.2,1143.24 1129,1155.5C 1148.19,1182.36 1168.52,1208.36 1190,1233.5C 1190.76,1235.77 1190.59,1237.94 1189.5,1240C 1184.13,1240.48 1178.8,1240.15 1173.5,1239C 1161.04,1237.2 1148.71,1234.87 1136.5,1232C 1108.8,1192.76 1081.46,1153.26 1054.5,1113.5C 1064.58,1107.37 1074.08,1100.37 1083,1092.5C 1097.47,1077.98 1100.8,1061.31 1093,1042.5C 1090,1038.83 1087,1035.17 1084,1031.5C 1082.89,1029.61 1082.05,1027.61 1081.5,1025.5C 1085.68,1016.47 1089.85,1007.47 1094,998.5C 1106.1,949.572 1094.77,906.905 1060,870.5C 1055.99,865.228 1056.82,861.061 1062.5,858C 1099.53,853.898 1131.86,864.232 1159.5,889C 1175.45,904.742 1185.79,923.575 1190.5,945.5 Z"/></g>
<g><path style="opacity:1" fill="#fdfdfd" d="M 1416.5,856.5 C 1446.54,854.309 1450.37,862.975 1428,882.5C 1395.4,927.956 1391.9,975.456 1417.5,1025C 1417.2,1026.89 1416.7,1028.72 1416,1030.5C 1401.1,1045.49 1398.44,1062.49 1408,1081.5C 1418.22,1094.89 1430.72,1105.56 1445.5,1113.5C 1418.36,1153.14 1391.03,1192.64 1363.5,1232C 1345.92,1235.58 1328.26,1238.25 1310.5,1240C 1308.02,1237.72 1307.85,1235.22 1310,1232.5C 1331.81,1207.03 1352.48,1180.69 1372,1153.5C 1378.18,1141.83 1382.01,1129.5 1383.5,1116.5C 1383.26,1107.01 1380.43,1098.34 1375,1090.5C 1360.71,1072.54 1346.04,1054.87 1331,1037.5C 1306.85,1003.75 1301.19,967.086 1314,927.5C 1334.63,884.375 1368.8,860.708 1416.5,856.5 Z"/></g>
<g><path style="opacity:1" fill="#f8c9c5" d="M 1190.5,945.5 C 1192.02,951.93 1192.69,958.596 1192.5,965.5C 1192.5,970.346 1192.17,975.012 1191.5,979.5C 1191.59,968.15 1191.26,956.817 1190.5,945.5 Z"/></g>
<g><path style="opacity:1" fill="#38300d" d="M 314.5,1349.5 C 314.698,1354.75 314.031,1359.75 312.5,1364.5C 312.444,1359.27 313.111,1354.27 314.5,1349.5 Z"/></g>
<g><path style="opacity:1" fill="#b39813" d="M 306.5,1425.5 C 306.111,1432.34 305.444,1439.01 304.5,1445.5C 304.334,1439.82 304.501,1434.16 305,1428.5C 305.232,1427.26 305.732,1426.26 306.5,1425.5 Z"/></g>
<g><path style="opacity:1" fill="#fbfbfb" d="M 552.5,1451.5 C 552.826,1460.02 552.493,1468.35 551.5,1476.5C 533.975,1462.47 514.975,1459.97 494.5,1469C 484.295,1478.65 483.961,1488.65 493.5,1499C 496.833,1501.33 500.167,1503.67 503.5,1506C 519.502,1513.44 535.169,1521.44 550.5,1530C 570.814,1547.95 571.814,1567.12 553.5,1587.5C 541.916,1598.12 528.249,1604.12 512.5,1605.5C 501.815,1605.61 491.148,1605.28 480.5,1604.5C 474.36,1603.84 468.526,1602.17 463,1599.5C 460.166,1590.2 458.333,1580.87 457.5,1571.5C 466.195,1578.35 475.862,1583.35 486.5,1586.5C 488.515,1587.92 490.848,1588.59 493.5,1588.5C 506.175,1591.04 518.175,1589.21 529.5,1583C 541.995,1572.08 542.662,1560.58 531.5,1548.5C 528.5,1546.33 525.5,1544.17 522.5,1542C 510.5,1536.33 498.5,1530.67 486.5,1525C 461.315,1511.82 454.482,1492.32 466,1466.5C 480.184,1451.99 497.517,1445.32 518,1446.5C 529.855,1446.68 541.355,1448.35 552.5,1451.5 Z"/></g>
<g><path style="opacity:1" fill="#fefbfb" d="M 1985.5,1446.5 C 2000.67,1445.61 2015.5,1447.28 2030,1451.5C 2030.83,1460.19 2030.67,1468.85 2029.5,1477.5C 2016.6,1466.35 2001.6,1461.85 1984.5,1464C 1966.14,1467.98 1960.64,1478.48 1968,1495.5C 1970.87,1498.7 1974.04,1501.54 1977.5,1504C 1989.5,1510.56 2001.84,1516.56 2014.5,1522C 2025.2,1527.37 2034.03,1534.87 2041,1544.5C 2046.72,1566.67 2039.89,1583.84 2020.5,1596C 2003.36,1605.69 1985.03,1609.02 1965.5,1606C 1956.62,1605.16 1948.12,1602.99 1940,1599.5C 1936.98,1589.79 1934.82,1580.12 1933.5,1570.5C 1951.09,1585.97 1971.42,1591.81 1994.5,1588C 2010.88,1584.69 2018.05,1574.86 2016,1558.5C 2014.02,1554.04 2011.19,1550.21 2007.5,1547C 1994.06,1538.95 1980.06,1531.95 1965.5,1526C 1956.79,1521.28 1949.29,1515.12 1943,1507.5C 1931.19,1480.89 1938.69,1462.06 1965.5,1451C 1972.22,1449.17 1978.88,1447.67 1985.5,1446.5 Z"/></g>
<g><path style="opacity:1" fill="#fafafa" d="M 642.5,1600.5 C 642.611,1601.12 642.944,1601.62 643.5,1602C 628.328,1602.83 613.328,1602.66 598.5,1601.5C 604.291,1598.26 607.291,1593.26 607.5,1586.5C 608.499,1546.67 608.832,1506.67 608.5,1466.5C 598.652,1466.17 588.986,1466.51 579.5,1467.5C 572.273,1468.61 565.94,1471.61 560.5,1476.5C 560.167,1476.17 559.833,1475.83 559.5,1475.5C 562.05,1466.28 565.05,1457.28 568.5,1448.5C 570.115,1449.15 571.782,1449.65 573.5,1450C 590.833,1450.17 608.167,1450.33 625.5,1450.5C 643.946,1450.46 662.279,1449.79 680.5,1448.5C 678.316,1457.97 675.816,1467.3 673,1476.5C 670.578,1471.74 666.745,1468.91 661.5,1468C 651.891,1466.64 642.224,1466.14 632.5,1466.5C 632.333,1506.17 632.5,1545.83 633,1585.5C 633.645,1592.13 636.812,1597.13 642.5,1600.5 Z"/></g>
<g><path style="opacity:1" fill="#6d6d6d" d="M 750.5,1450.5 C 738.322,1450.17 726.322,1450.5 714.5,1451.5C 713.957,1451.44 713.624,1451.11 713.5,1450.5C 725.994,1449.18 738.327,1449.18 750.5,1450.5 Z"/></g>
<g><path style="opacity:1" fill="#6b6b6b" d="M 895.5,1450.5 C 873.327,1450.17 851.327,1450.5 829.5,1451.5C 828.957,1451.44 828.624,1451.11 828.5,1450.5C 850.996,1449.17 873.33,1449.17 895.5,1450.5 Z"/></g>
<g><path style="opacity:1" fill="#6f6f6f" d="M 1065.5,1449.5 C 1037.83,1450.17 1010.17,1450.83 982.5,1451.5C 981.957,1451.44 981.624,1451.11 981.5,1450.5C 1009.49,1449.5 1037.49,1449.17 1065.5,1449.5 Z"/></g>
<g><path style="opacity:1" fill="#fbfbfb" d="M 1065.5,1449.5 C 1066.83,1453.45 1067.49,1457.78 1067.5,1462.5C 1067.5,1467.01 1067.17,1471.35 1066.5,1475.5C 1062.11,1471.14 1056.77,1468.64 1050.5,1468C 1039.14,1467.28 1027.81,1467.45 1016.5,1468.5C 1016.5,1482.83 1016.5,1497.17 1016.5,1511.5C 1028.87,1511.77 1041.2,1511.44 1053.5,1510.5C 1054.83,1518.5 1054.83,1526.5 1053.5,1534.5C 1051.49,1531.16 1048.49,1529.32 1044.5,1529C 1035.17,1528.5 1025.84,1528.33 1016.5,1528.5C 1015.83,1537.49 1015.5,1546.66 1015.5,1556C 1015.5,1565.53 1016.17,1574.69 1017.5,1583.5C 1025.53,1584 1033.53,1584.84 1041.5,1586C 1059.01,1587.87 1074.68,1583.37 1088.5,1572.5C 1088.83,1572.83 1089.17,1573.17 1089.5,1573.5C 1085.62,1583.14 1081.95,1592.81 1078.5,1602.5C 1046.33,1602.83 1014.33,1602.5 982.5,1601.5C 988.085,1599.02 991.252,1594.69 992,1588.5C 992.667,1546.83 992.667,1505.17 992,1463.5C 990.838,1457.85 987.671,1453.85 982.5,1451.5C 1010.17,1450.83 1037.83,1450.17 1065.5,1449.5 Z"/></g>
<g><path style="opacity:1" fill="#6b6b6b" d="M 1217.5,1450.5 C 1196.66,1450.17 1175.99,1450.5 1155.5,1451.5C 1154.96,1451.44 1154.62,1451.11 1154.5,1450.5C 1175.66,1449.17 1196.66,1449.17 1217.5,1450.5 Z"/></g>
<g><path style="opacity:1" fill="#ee8b84" d="M 1365.5,1449.5 C 1338.5,1450.17 1311.5,1450.83 1284.5,1451.5C 1283.96,1451.44 1283.62,1451.11 1283.5,1450.5C 1310.83,1449.5 1338.16,1449.17 1365.5,1449.5 Z"/></g>
<g><path style="opacity:1" fill="#fdfcfc" d="M 1365.5,1449.5 C 1366.17,1449.5 1366.83,1449.5 1367.5,1449.5C 1368.83,1453.45 1369.49,1457.78 1369.5,1462.5C 1369.5,1467.01 1369.17,1471.35 1368.5,1475.5C 1364.11,1471.14 1358.77,1468.64 1352.5,1468C 1341.45,1467.19 1330.45,1467.36 1319.5,1468.5C 1318.5,1482.82 1318.17,1497.15 1318.5,1511.5C 1331.2,1511.75 1343.86,1511.42 1356.5,1510.5C 1356.83,1518.53 1356.5,1526.53 1355.5,1534.5C 1353.24,1531.54 1350.24,1529.87 1346.5,1529.5C 1337.01,1528.51 1327.35,1528.17 1317.5,1528.5C 1317.17,1546.67 1317.5,1564.67 1318.5,1582.5C 1326.66,1583.86 1334.99,1585.02 1343.5,1586C 1360.9,1587.94 1376.4,1583.44 1390,1572.5C 1387.09,1582.4 1384.26,1592.4 1381.5,1602.5C 1340.83,1602.67 1300.17,1602.5 1259.5,1602C 1256.02,1600.76 1252.69,1599.26 1249.5,1597.5C 1229.14,1574.62 1210.8,1550.12 1194.5,1524C 1202.65,1521.96 1210.65,1519.29 1218.5,1516C 1234.95,1505.38 1238.45,1491.55 1229,1474.5C 1217.81,1464.44 1204.98,1461.77 1190.5,1466.5C 1189.33,1507.16 1189.17,1547.83 1190,1588.5C 1191.05,1594.7 1194.22,1599.36 1199.5,1602.5C 1184.66,1602.83 1169.99,1602.5 1155.5,1601.5C 1161.45,1597.95 1164.62,1592.62 1165,1585.5C 1165.67,1546.17 1165.67,1506.83 1165,1467.5C 1165.14,1460.11 1161.97,1454.77 1155.5,1451.5C 1175.99,1450.5 1196.66,1450.17 1217.5,1450.5C 1229.58,1451.55 1240.25,1455.88 1249.5,1463.5C 1260.14,1479.39 1260.14,1495.39 1249.5,1511.5C 1246.37,1514.13 1243.37,1516.96 1240.5,1520C 1234.65,1523.43 1228.65,1526.59 1222.5,1529.5C 1231.18,1540.83 1240.18,1551.83 1249.5,1562.5C 1259.31,1577.15 1271.65,1589.31 1286.5,1599C 1288,1599.51 1289.16,1599.01 1290,1597.5C 1291.28,1595.28 1292.28,1592.95 1293,1590.5C 1294.64,1549.2 1294.97,1507.87 1294,1466.5C 1293.42,1459.77 1290.25,1454.77 1284.5,1451.5C 1311.5,1450.83 1338.5,1450.17 1365.5,1449.5 Z"/></g>
<g><path style="opacity:1" fill="#ee8d85" d="M 1431.5,1451.5 C 1420.07,1450.18 1408.74,1450.18 1397.5,1451.5C 1396.96,1451.44 1396.62,1451.11 1396.5,1450.5C 1402.33,1450.17 1408.17,1449.83 1414,1449.5C 1420.21,1449.5 1426.04,1450.17 1431.5,1451.5 Z"/></g>
<g><path style="opacity:1" fill="#ee8c85" d="M 1550.5,1450.5 C 1536.99,1450.17 1523.66,1450.5 1510.5,1451.5C 1509.96,1451.44 1509.62,1451.11 1509.5,1450.5C 1523.33,1449.17 1536.99,1449.17 1550.5,1450.5 Z"/></g>
<g><path style="opacity:1" fill="#ee8c86" d="M 1591.5,1450.5 C 1580.32,1450.17 1569.32,1450.51 1558.5,1451.5C 1557.96,1451.44 1557.62,1451.11 1557.5,1450.5C 1568.99,1449.18 1580.33,1449.18 1591.5,1450.5 Z"/></g>
<g><path style="opacity:1" fill="#ee8c85" d="M 1711.5,1450.5 C 1697.99,1450.17 1684.66,1450.5 1671.5,1451.5C 1670.96,1451.44 1670.62,1451.11 1670.5,1450.5C 1684.33,1449.17 1697.99,1449.17 1711.5,1450.5 Z"/></g>
<g><path style="opacity:1" fill="#ee8c85" d="M 1806.5,1450.5 C 1794.32,1450.17 1782.32,1450.5 1770.5,1451.5C 1769.96,1451.44 1769.62,1451.11 1769.5,1450.5C 1781.99,1449.18 1794.33,1449.18 1806.5,1450.5 Z"/></g>
<g><path style="opacity:1" fill="#ed8b84" d="M 1928.5,1451.5 C 1914.17,1450.17 1899.83,1450.17 1885.5,1451.5C 1884.96,1451.44 1884.62,1451.11 1884.5,1450.5C 1899.5,1449.17 1914.5,1449.17 1929.5,1450.5C 1929.38,1451.11 1929.04,1451.44 1928.5,1451.5 Z"/></g>
<g><path style="opacity:1" fill="#fbfbfb" d="M 714.5,1451.5 C 726.322,1450.5 738.322,1450.17 750.5,1450.5C 768.6,1493.95 786.434,1537.61 804,1581.5C 805.902,1585.74 808.235,1589.74 811,1593.5C 814.292,1596.87 817.792,1599.87 821.5,1602.5C 805.658,1602.83 789.991,1602.5 774.5,1601.5C 779.069,1600.43 781.735,1597.6 782.5,1593C 777.064,1577.36 771.23,1561.86 765,1546.5C 745.565,1545.17 726.065,1545.17 706.5,1546.5C 700.368,1561.23 695.035,1576.23 690.5,1591.5C 690.803,1596.79 693.47,1600.13 698.5,1601.5C 684.677,1602.5 670.677,1602.83 656.5,1602.5C 664.639,1597.52 670.472,1590.52 674,1581.5C 689.39,1541.72 705.056,1502.05 721,1462.5C 722.018,1457.01 719.852,1453.34 714.5,1451.5 Z"/></g>
<g><path style="opacity:1" fill="#fbfbfb" d="M 829.5,1451.5 C 851.327,1450.5 873.327,1450.17 895.5,1450.5C 952.007,1456.17 976.84,1487.17 970,1543.5C 960.209,1575.62 938.709,1594.78 905.5,1601C 900.882,1601.99 896.215,1602.49 891.5,1602.5C 870.66,1602.83 849.993,1602.5 829.5,1601.5C 835.238,1597.37 838.405,1591.7 839,1584.5C 839.667,1544.5 839.667,1504.5 839,1464.5C 838.321,1458.32 835.154,1453.99 829.5,1451.5 Z"/></g>
<g><path style="opacity:1" fill="#a5a5a5" d="M 1065.5,1449.5 C 1066.21,1448.6 1067.21,1448.26 1068.5,1448.5C 1068.83,1457.86 1068.5,1467.19 1067.5,1476.5C 1066.89,1476.38 1066.56,1476.04 1066.5,1475.5C 1067.17,1471.35 1067.5,1467.01 1067.5,1462.5C 1067.49,1457.78 1066.83,1453.45 1065.5,1449.5 Z"/></g>
<g><path style="opacity:1" fill="#f4b1ad" d="M 1367.5,1449.5 C 1368.21,1448.6 1369.21,1448.26 1370.5,1448.5C 1370.83,1457.86 1370.5,1467.19 1369.5,1476.5C 1368.89,1476.38 1368.56,1476.04 1368.5,1475.5C 1369.17,1471.35 1369.5,1467.01 1369.5,1462.5C 1369.49,1457.78 1368.83,1453.45 1367.5,1449.5 Z"/></g>
<g><path style="opacity:1" fill="#fefbfb" d="M 1431.5,1451.5 C 1460.68,1489.86 1490.35,1527.86 1520.5,1565.5C 1520.56,1566.04 1520.89,1566.38 1521.5,1566.5C 1522.83,1533.67 1522.83,1501 1521.5,1468.5C 1520.65,1460.99 1516.99,1455.32 1510.5,1451.5C 1523.66,1450.5 1536.99,1450.17 1550.5,1450.5C 1545.04,1454.07 1541.54,1459.07 1540,1465.5C 1539.5,1513.5 1539.33,1561.5 1539.5,1609.5C 1527.5,1606.68 1517.66,1600.35 1510,1590.5C 1482,1555.17 1454,1519.83 1426,1484.5C 1425.33,1517.5 1425.33,1550.5 1426,1583.5C 1426.66,1591.66 1430.5,1597.83 1437.5,1602C 1423.83,1602.67 1410.17,1602.67 1396.5,1602C 1402.93,1598.29 1406.77,1592.79 1408,1585.5C 1408.67,1545.5 1408.67,1505.5 1408,1465.5C 1406.17,1459.51 1402.67,1454.85 1397.5,1451.5C 1408.74,1450.18 1420.07,1450.18 1431.5,1451.5 Z"/></g>
<g><path style="opacity:1" fill="#fefcfc" d="M 1591.5,1450.5 C 1621.25,1488.98 1651.25,1527.31 1681.5,1565.5C 1681.37,1566.38 1681.7,1567.04 1682.5,1567.5C 1683.83,1534 1683.83,1500.67 1682.5,1467.5C 1681.31,1460.44 1677.64,1455.11 1671.5,1451.5C 1684.66,1450.5 1697.99,1450.17 1711.5,1450.5C 1707.86,1453.31 1704.7,1456.64 1702,1460.5C 1700.92,1463.06 1700.42,1465.73 1700.5,1468.5C 1700.17,1515.68 1699.17,1562.68 1697.5,1609.5C 1687.05,1605.52 1678.22,1599.18 1671,1590.5C 1643,1555.17 1615,1519.83 1587,1484.5C 1586.33,1517.83 1586.33,1551.17 1587,1584.5C 1588.44,1591.93 1592.27,1597.77 1598.5,1602C 1584.83,1602.67 1571.17,1602.67 1557.5,1602C 1563.93,1598.29 1567.77,1592.79 1569,1585.5C 1569.67,1545.17 1569.67,1504.83 1569,1464.5C 1566.74,1459.08 1563.24,1454.75 1558.5,1451.5C 1569.32,1450.51 1580.32,1450.17 1591.5,1450.5 Z"/></g>
<g><path style="opacity:1" fill="#fefbfb" d="M 1770.5,1451.5 C 1782.32,1450.5 1794.32,1450.17 1806.5,1450.5C 1823.93,1492.61 1841.1,1534.95 1858,1577.5C 1861.54,1588.1 1868.04,1596.27 1877.5,1602C 1861.5,1602.67 1845.5,1602.67 1829.5,1602C 1832.27,1600.53 1834.77,1598.7 1837,1596.5C 1837.67,1594.17 1837.67,1591.83 1837,1589.5C 1831.99,1574.96 1826.49,1560.63 1820.5,1546.5C 1810.84,1545.83 1801.01,1545.5 1791,1545.5C 1780.81,1545.5 1770.98,1546.17 1761.5,1547.5C 1756.4,1560.7 1751.57,1574.03 1747,1587.5C 1746.33,1590.17 1746.33,1592.83 1747,1595.5C 1749.01,1598.41 1751.51,1600.75 1754.5,1602.5C 1740.32,1602.83 1726.32,1602.5 1712.5,1601.5C 1720.67,1596.49 1726.5,1589.49 1730,1580.5C 1742.77,1547.18 1756.1,1514.18 1770,1481.5C 1772.67,1474.31 1774.84,1466.98 1776.5,1459.5C 1776.43,1455.42 1774.43,1452.76 1770.5,1451.5 Z"/></g>
<g><path style="opacity:1" fill="#fefafa" d="M 1885.5,1451.5 C 1899.83,1450.17 1914.17,1450.17 1928.5,1451.5C 1923.48,1453.85 1920.65,1457.85 1920,1463.5C 1919.33,1505.5 1919.33,1547.5 1920,1589.5C 1921.48,1595.14 1924.65,1599.47 1929.5,1602.5C 1914.66,1602.83 1899.99,1602.5 1885.5,1601.5C 1891.15,1598.22 1894.32,1593.22 1895,1586.5C 1895.67,1546.17 1895.67,1505.83 1895,1465.5C 1894.05,1459.24 1890.88,1454.58 1885.5,1451.5 Z"/></g>
<g><path style="opacity:1" fill="#7f7f7f" d="M 552.5,1451.5 C 553.821,1460.01 553.821,1468.68 552.5,1477.5C 551.893,1477.38 551.56,1477.04 551.5,1476.5C 552.493,1468.35 552.826,1460.02 552.5,1451.5 Z"/></g>
<g><path style="opacity:1" fill="#010101" d="M 876.5,1466.5 C 924.627,1464.46 947.46,1487.46 945,1535.5C 940.474,1564.36 923.641,1580.86 894.5,1585C 884.182,1586.72 873.849,1586.89 863.5,1585.5C 863.5,1546.5 863.5,1507.5 863.5,1468.5C 867.993,1468.02 872.327,1467.36 876.5,1466.5 Z"/></g>
<g><path style="opacity:1" fill="#636363" d="M 579.5,1467.5 C 588.986,1466.51 598.652,1466.17 608.5,1466.5C 608.832,1506.67 608.499,1546.67 607.5,1586.5C 607.5,1546.83 607.5,1507.17 607.5,1467.5C 598.167,1467.5 588.833,1467.5 579.5,1467.5 Z"/></g>
<g><path style="opacity:1" fill="#060606" d="M 757.5,1527.5 C 742.676,1528.5 727.676,1528.83 712.5,1528.5C 719.643,1508.89 727.309,1489.56 735.5,1470.5C 743.22,1489.32 750.554,1508.32 757.5,1527.5 Z"/></g>
<g><path style="opacity:1" fill="#f3a7a2" d="M 1521.5,1468.5 C 1522.83,1501 1522.83,1533.67 1521.5,1566.5C 1520.89,1566.38 1520.56,1566.04 1520.5,1565.5C 1521.5,1533.34 1521.83,1501 1521.5,1468.5 Z"/></g>
<g><path style="opacity:1" fill="#f2a6a1" d="M 1682.5,1467.5 C 1683.83,1500.67 1683.83,1534 1682.5,1567.5C 1681.7,1567.04 1681.37,1566.38 1681.5,1565.5C 1682.5,1533 1682.83,1500.34 1682.5,1467.5 Z"/></g>
<g><path style="opacity:1" fill="#eb746c" d="M 1700.5,1468.5 C 1700.5,1515.83 1700.5,1563.17 1700.5,1610.5C 1699.21,1610.74 1698.21,1610.4 1697.5,1609.5C 1699.17,1562.68 1700.17,1515.68 1700.5,1468.5 Z"/></g>
<g><path style="opacity:1" fill="#e13528" d="M 1813.5,1528.5 C 1798.32,1528.83 1783.32,1528.5 1768.5,1527.5C 1775.58,1508.25 1783.25,1489.25 1791.5,1470.5C 1799.4,1489.63 1806.73,1508.96 1813.5,1528.5 Z"/></g>
<g><path style="opacity:1" fill="#5a5a5a" d="M 1053.5,1510.5 C 1053.56,1509.96 1053.89,1509.62 1054.5,1509.5C 1055.83,1518.17 1055.83,1526.83 1054.5,1535.5C 1053.89,1535.38 1053.56,1535.04 1053.5,1534.5C 1054.83,1526.5 1054.83,1518.5 1053.5,1510.5 Z"/></g>
<g><path style="opacity:1" fill="#050505" d="M 1249.5,1511.5 C 1249.5,1528.5 1249.5,1545.5 1249.5,1562.5C 1240.18,1551.83 1231.18,1540.83 1222.5,1529.5C 1228.65,1526.59 1234.65,1523.43 1240.5,1520C 1243.37,1516.96 1246.37,1514.13 1249.5,1511.5 Z"/></g>
<g><path style="opacity:1" fill="#b4b4b4" d="M 757.5,1527.5 C 758.043,1527.56 758.376,1527.89 758.5,1528.5C 743.005,1529.83 727.672,1529.83 712.5,1528.5C 727.676,1528.83 742.676,1528.5 757.5,1527.5 Z"/></g>
<g><path style="opacity:1" fill="#f6c3c0" d="M 1768.5,1527.5 C 1783.32,1528.5 1798.32,1528.83 1813.5,1528.5C 1798.33,1529.83 1782.99,1529.83 1767.5,1528.5C 1767.62,1527.89 1767.96,1527.56 1768.5,1527.5 Z"/></g>
<g><path style="opacity:1" fill="#a2a2a2" d="M 1016.5,1528.5 C 1016.18,1546.91 1016.51,1565.24 1017.5,1583.5C 1016.17,1574.69 1015.5,1565.53 1015.5,1556C 1015.5,1546.66 1015.83,1537.49 1016.5,1528.5 Z"/></g>
<g><path style="opacity:1" fill="#f19b94" d="M 1346.5,1529.5 C 1337.17,1529.5 1327.83,1529.5 1318.5,1529.5C 1318.5,1547.17 1318.5,1564.83 1318.5,1582.5C 1317.5,1564.67 1317.17,1546.67 1317.5,1528.5C 1327.35,1528.17 1337.01,1528.51 1346.5,1529.5 Z"/></g>
<g><path style="opacity:1" fill="#e54e43" d="M 1820.5,1546.5 C 1800.76,1546.18 1781.09,1546.51 1761.5,1547.5C 1770.98,1546.17 1780.81,1545.5 1791,1545.5C 1801.01,1545.5 1810.84,1545.83 1820.5,1546.5 Z"/></g>
<g><path style="opacity:1" fill="#957e10" d="M 307.5,1563.5 C 308.563,1567.64 309.23,1571.97 309.5,1576.5C 307.823,1572.46 307.156,1568.12 307.5,1563.5 Z"/></g>
<g><path style="opacity:1" fill="#626262" d="M 486.5,1586.5 C 489.152,1586.41 491.485,1587.08 493.5,1588.5C 490.848,1588.59 488.515,1587.92 486.5,1586.5 Z"/></g>
<g><path style="opacity:1" fill="#4a4a4a" d="M 642.5,1600.5 C 644.048,1600.82 644.715,1601.82 644.5,1603.5C 628.819,1603.83 613.152,1603.5 597.5,1602.5C 597.624,1601.89 597.957,1601.56 598.5,1601.5C 613.328,1602.66 628.328,1602.83 643.5,1602C 642.944,1601.62 642.611,1601.12 642.5,1600.5 Z"/></g>
<g><path style="opacity:1" fill="#4c4c4c" d="M 698.5,1601.5 C 699.043,1601.56 699.376,1601.89 699.5,1602.5C 685.006,1603.83 670.672,1603.83 656.5,1602.5C 670.677,1602.83 684.677,1602.5 698.5,1601.5 Z"/></g>
<g><path style="opacity:1" fill="#4b4b4b" d="M 774.5,1601.5 C 789.991,1602.5 805.658,1602.83 821.5,1602.5C 805.662,1603.83 789.662,1603.83 773.5,1602.5C 773.624,1601.89 773.957,1601.56 774.5,1601.5 Z"/></g>
<g><path style="opacity:1" fill="#4b4b4b" d="M 829.5,1601.5 C 849.993,1602.5 870.66,1602.83 891.5,1602.5C 870.663,1603.83 849.663,1603.83 828.5,1602.5C 828.624,1601.89 828.957,1601.56 829.5,1601.5 Z"/></g>
<g><path style="opacity:1" fill="#4b4b4b" d="M 982.5,1601.5 C 1014.33,1602.5 1046.33,1602.83 1078.5,1602.5C 1046.33,1603.83 1014,1603.83 981.5,1602.5C 981.624,1601.89 981.957,1601.56 982.5,1601.5 Z"/></g>
<g><path style="opacity:1" fill="#4b4b4b" d="M 1155.5,1601.5 C 1169.99,1602.5 1184.66,1602.83 1199.5,1602.5C 1184.66,1603.83 1169.66,1603.83 1154.5,1602.5C 1154.62,1601.89 1154.96,1601.56 1155.5,1601.5 Z"/></g>
<g><path style="opacity:1" fill="#ea7067" d="M 1712.5,1601.5 C 1726.32,1602.5 1740.32,1602.83 1754.5,1602.5C 1740.33,1603.83 1725.99,1603.83 1711.5,1602.5C 1711.62,1601.89 1711.96,1601.56 1712.5,1601.5 Z"/></g>
<g><path style="opacity:1" fill="#ea6f66" d="M 1885.5,1601.5 C 1899.99,1602.5 1914.66,1602.83 1929.5,1602.5C 1914.66,1603.83 1899.66,1603.83 1884.5,1602.5C 1884.62,1601.89 1884.96,1601.56 1885.5,1601.5 Z"/></g>
<g><path style="opacity:1" fill="#bbbbbb" d="M 480.5,1604.5 C 491.148,1605.28 501.815,1605.61 512.5,1605.5C 508.514,1606.17 504.347,1606.5 500,1606.5C 493.269,1606.65 486.769,1605.98 480.5,1604.5 Z"/></g>
<g><path style="opacity:1" fill="#767676" d="M 707.5,1679.5 C 725.993,1678.5 744.659,1678.17 763.5,1678.5C 763.5,1683.83 763.5,1689.17 763.5,1694.5C 763.167,1694.5 762.833,1694.5 762.5,1694.5C 762.5,1689.5 762.5,1684.5 762.5,1679.5C 744.167,1679.5 725.833,1679.5 707.5,1679.5 Z"/></g>
<g><path style="opacity:1" fill="#f9f9f9" d="M 815.5,1677.5 C 843.875,1675.42 863.375,1687.42 874,1713.5C 879.052,1744.9 866.552,1765.73 836.5,1776C 813.413,1780.36 794.913,1773.2 781,1754.5C 765.426,1720.96 774.259,1696.12 807.5,1680C 810.31,1679.22 812.977,1678.38 815.5,1677.5 Z"/></g>
<g><path style="opacity:1" fill="#f8f8f8" d="M 928.5,1677.5 C 958.77,1676.03 978.27,1689.7 987,1718.5C 988.881,1747.6 976.048,1766.77 948.5,1776C 917.514,1780.93 896.68,1768.76 886,1739.5C 882.102,1706.26 896.269,1685.6 928.5,1677.5 Z"/></g>
<g><path style="opacity:1" fill="#757575" d="M 992.5,1679.5 C 1020.66,1678.5 1049,1678.17 1077.5,1678.5C 1077.5,1684.17 1077.5,1689.83 1077.5,1695.5C 1066.17,1695.5 1054.83,1695.5 1043.5,1695.5C 1054.32,1694.51 1065.32,1694.17 1076.5,1694.5C 1076.5,1689.5 1076.5,1684.5 1076.5,1679.5C 1048.5,1679.5 1020.5,1679.5 992.5,1679.5 Z"/></g>
<g><path style="opacity:1" fill="#fefaf9" d="M 1538.5,1685.5 C 1538.82,1691.69 1538.49,1697.69 1537.5,1703.5C 1523.81,1695.24 1509.14,1692.74 1493.5,1696C 1471.4,1705.95 1465.24,1722.12 1475,1744.5C 1484.45,1757.75 1497.28,1762.92 1513.5,1760C 1523.04,1758.06 1531.71,1754.23 1539.5,1748.5C 1540.66,1754.81 1540.83,1761.14 1540,1767.5C 1522.74,1776.89 1504.57,1779.05 1485.5,1774C 1461.1,1763.05 1450.27,1744.22 1453,1717.5C 1460.96,1692.37 1478.13,1679.04 1504.5,1677.5C 1516.43,1677.75 1527.77,1680.42 1538.5,1685.5 Z"/></g>
<g><path style="opacity:1" fill="#f9f9f9" d="M 707.5,1679.5 C 725.833,1679.5 744.167,1679.5 762.5,1679.5C 762.5,1684.5 762.5,1689.5 762.5,1694.5C 749.5,1694.5 736.5,1694.5 723.5,1694.5C 723.5,1702.5 723.5,1710.5 723.5,1718.5C 736.167,1718.5 748.833,1718.5 761.5,1718.5C 761.5,1723.5 761.5,1728.5 761.5,1733.5C 748.833,1733.5 736.167,1733.5 723.5,1733.5C 723.5,1747.5 723.5,1761.5 723.5,1775.5C 717.833,1775.5 712.167,1775.5 706.5,1775.5C 706.168,1743.33 706.502,1711.33 707.5,1679.5 Z"/></g>
<g><path style="opacity:1" fill="#fafafa" d="M 992.5,1679.5 C 1020.5,1679.5 1048.5,1679.5 1076.5,1679.5C 1076.5,1684.5 1076.5,1689.5 1076.5,1694.5C 1065.32,1694.17 1054.32,1694.51 1043.5,1695.5C 1043.5,1722.17 1043.5,1748.83 1043.5,1775.5C 1037.83,1775.5 1032.17,1775.5 1026.5,1775.5C 1026.5,1748.5 1026.5,1721.5 1026.5,1694.5C 1015.17,1694.5 1003.83,1694.5 992.5,1694.5C 992.5,1689.5 992.5,1684.5 992.5,1679.5 Z"/></g>
<g><path style="opacity:1" fill="#fbfbfb" d="M 1122.5,1679.5 C 1140.43,1681.59 1148.6,1691.59 1147,1709.5C 1145.95,1715.78 1142.78,1720.62 1137.5,1724C 1155.32,1732.82 1159.49,1745.99 1150,1763.5C 1144.78,1770.19 1137.94,1773.86 1129.5,1774.5C 1115.83,1774.5 1102.17,1774.5 1088.5,1774.5C 1088.5,1742.83 1088.5,1711.17 1088.5,1679.5C 1099.83,1679.5 1111.17,1679.5 1122.5,1679.5 Z"/></g>
<g><path style="opacity:1" fill="#f9f9f9" d="M 1249.5,1770.5 C 1249.83,1771.83 1250.17,1773.17 1250.5,1774.5C 1250.5,1775.17 1250.17,1775.5 1249.5,1775.5C 1243.83,1775.5 1238.17,1775.5 1232.5,1775.5C 1229.37,1766.79 1226.04,1758.12 1222.5,1749.5C 1209.85,1748.33 1197.18,1748.17 1184.5,1749C 1180.7,1757.43 1177.04,1765.93 1173.5,1774.5C 1167.5,1775.83 1161.5,1775.83 1155.5,1774.5C 1169.17,1743.17 1182.83,1711.83 1196.5,1680.5C 1201.05,1679.2 1205.55,1679.2 1210,1680.5C 1222.94,1710.71 1236.11,1740.71 1249.5,1770.5 Z"/></g>
<g><path style="opacity:1" fill="#fefdfd" d="M 1273.5,1679.5 C 1273.5,1706.5 1273.5,1733.5 1273.5,1760.5C 1288.17,1760.5 1302.83,1760.5 1317.5,1760.5C 1317.5,1765.5 1317.5,1770.5 1317.5,1775.5C 1297.5,1775.5 1277.5,1775.5 1257.5,1775.5C 1257.5,1743.5 1257.5,1711.5 1257.5,1679.5C 1262.83,1679.5 1268.17,1679.5 1273.5,1679.5 Z"/></g>
<g><path style="opacity:1" fill="#fefefe" d="M 1556.5,1679.5 C 1561.5,1679.5 1566.5,1679.5 1571.5,1679.5C 1571.17,1706.34 1571.5,1733.01 1572.5,1759.5C 1586.66,1760.5 1600.99,1760.83 1615.5,1760.5C 1615.5,1765.17 1615.5,1769.83 1615.5,1774.5C 1595.83,1774.5 1576.17,1774.5 1556.5,1774.5C 1556.5,1742.83 1556.5,1711.17 1556.5,1679.5 Z"/></g>
<g><path style="opacity:1" fill="#fefcfc" d="M 1623.5,1679.5 C 1628.83,1679.5 1634.17,1679.5 1639.5,1679.5C 1639.17,1700.67 1639.5,1721.67 1640.5,1742.5C 1642.03,1750.54 1646.69,1756.04 1654.5,1759C 1665.68,1762.28 1675.84,1760.45 1685,1753.5C 1687.19,1750.45 1688.86,1747.11 1690,1743.5C 1690.5,1722.17 1690.67,1700.84 1690.5,1679.5C 1695.83,1679.5 1701.17,1679.5 1706.5,1679.5C 1706.67,1702.5 1706.5,1725.5 1706,1748.5C 1702.72,1761.78 1694.56,1770.61 1681.5,1775C 1662.01,1780.64 1645.17,1776.47 1631,1762.5C 1627.29,1757.41 1624.96,1751.74 1624,1745.5C 1623.5,1723.5 1623.33,1701.5 1623.5,1679.5 Z"/></g>
<g><path style="opacity:1" fill="#fefcfc" d="M 1761.5,1679.5 C 1782.31,1683.83 1789.48,1696.16 1783,1716.5C 1781.17,1719.67 1778.67,1722.17 1775.5,1724C 1792.06,1731.31 1796.9,1743.48 1790,1760.5C 1784.96,1768.95 1777.46,1773.78 1767.5,1775C 1753.84,1775.5 1740.17,1775.67 1726.5,1775.5C 1726.5,1743.5 1726.5,1711.5 1726.5,1679.5C 1738.17,1679.5 1749.83,1679.5 1761.5,1679.5 Z"/></g>
<g><path style="opacity:1" fill="#c1c1c1" d="M 1122.5,1679.5 C 1111.17,1679.5 1099.83,1679.5 1088.5,1679.5C 1088.5,1711.17 1088.5,1742.83 1088.5,1774.5C 1102.17,1774.5 1115.83,1774.5 1129.5,1774.5C 1115.68,1775.5 1101.68,1775.83 1087.5,1775.5C 1087.5,1743.17 1087.5,1710.83 1087.5,1678.5C 1099.35,1678.17 1111.01,1678.51 1122.5,1679.5 Z"/></g>
<g><path style="opacity:1" fill="#f6beba" d="M 1555.5,1679.5 C 1560.98,1678.51 1566.64,1678.18 1572.5,1678.5C 1572.5,1705.5 1572.5,1732.5 1572.5,1759.5C 1571.5,1733.01 1571.17,1706.34 1571.5,1679.5C 1566.5,1679.5 1561.5,1679.5 1556.5,1679.5C 1556.17,1679.5 1555.83,1679.5 1555.5,1679.5 Z"/></g>
<g><path style="opacity:1" fill="#f6bfbb" d="M 1623.5,1679.5 C 1628.98,1678.51 1634.64,1678.18 1640.5,1678.5C 1640.5,1699.83 1640.5,1721.17 1640.5,1742.5C 1639.5,1721.67 1639.17,1700.67 1639.5,1679.5C 1634.17,1679.5 1628.83,1679.5 1623.5,1679.5 Z"/></g>
<g><path style="opacity:1" fill="#f3a9a3" d="M 1761.5,1679.5 C 1749.83,1679.5 1738.17,1679.5 1726.5,1679.5C 1726.5,1711.5 1726.5,1743.5 1726.5,1775.5C 1725.5,1743.34 1725.17,1711 1725.5,1678.5C 1737.68,1678.17 1749.68,1678.5 1761.5,1679.5 Z"/></g>
<g><path style="opacity:1" fill="#f4b3af" d="M 1538.5,1685.5 C 1539.82,1691.68 1539.82,1698.01 1538.5,1704.5C 1537.89,1704.38 1537.56,1704.04 1537.5,1703.5C 1538.49,1697.69 1538.82,1691.69 1538.5,1685.5 Z"/></g>
<g><path style="opacity:1" fill="#020202" d="M 815.5,1694.5 C 844.831,1692.66 858.664,1706.33 857,1735.5C 849.898,1754.81 836.065,1762.98 815.5,1760C 797.333,1753.19 789.166,1740.02 791,1720.5C 794.96,1707.71 803.127,1699.04 815.5,1694.5 Z"/></g>
<g><path style="opacity:1" fill="#020202" d="M 926.5,1694.5 C 946.065,1691.2 959.899,1698.53 968,1716.5C 972.469,1742.58 961.636,1757.25 935.5,1760.5C 911.64,1757.45 900.807,1743.78 903,1719.5C 906.554,1707.11 914.387,1698.78 926.5,1694.5 Z"/></g>
<g><path style="opacity:1" fill="#868686" d="M 1122.5,1695.5 C 1116.5,1695.5 1110.5,1695.5 1104.5,1695.5C 1104.5,1703.17 1104.5,1710.83 1104.5,1718.5C 1108.17,1718.5 1111.83,1718.5 1115.5,1718.5C 1111.7,1719.48 1107.7,1719.82 1103.5,1719.5C 1103.5,1711.17 1103.5,1702.83 1103.5,1694.5C 1110.02,1694.18 1116.36,1694.51 1122.5,1695.5 Z"/></g>
<g><path style="opacity:1" fill="#020202" d="M 1122.5,1695.5 C 1129.16,1698.32 1131.33,1703.32 1129,1710.5C 1126.42,1716.23 1121.92,1718.89 1115.5,1718.5C 1111.83,1718.5 1108.17,1718.5 1104.5,1718.5C 1104.5,1710.83 1104.5,1703.17 1104.5,1695.5C 1110.5,1695.5 1116.5,1695.5 1122.5,1695.5 Z"/></g>
<g><path style="opacity:1" fill="#444444" d="M 992.5,1694.5 C 1003.83,1694.5 1015.17,1694.5 1026.5,1694.5C 1026.5,1721.5 1026.5,1748.5 1026.5,1775.5C 1025.5,1749.01 1025.17,1722.34 1025.5,1695.5C 1014.32,1695.83 1003.32,1695.49 992.5,1694.5 Z"/></g>
<g><path style="opacity:1" fill="#e9675c" d="M 1760.5,1695.5 C 1754.83,1695.5 1749.17,1695.5 1743.5,1695.5C 1743.5,1703.17 1743.5,1710.83 1743.5,1718.5C 1746.83,1718.5 1750.17,1718.5 1753.5,1718.5C 1750.04,1719.48 1746.37,1719.81 1742.5,1719.5C 1742.5,1711.17 1742.5,1702.83 1742.5,1694.5C 1748.69,1694.18 1754.69,1694.51 1760.5,1695.5 Z"/></g>
<g><path style="opacity:1" fill="#e13326" d="M 1760.5,1695.5 C 1763.28,1696.31 1765.44,1697.98 1767,1700.5C 1769.84,1712.15 1765.34,1718.15 1753.5,1718.5C 1750.17,1718.5 1746.83,1718.5 1743.5,1718.5C 1743.5,1710.83 1743.5,1703.17 1743.5,1695.5C 1749.17,1695.5 1754.83,1695.5 1760.5,1695.5 Z"/></g>
<g><path style="opacity:1" fill="#090909" d="M 1202.5,1706.5 C 1207.24,1714.35 1211.24,1722.68 1214.5,1731.5C 1206.83,1732.83 1199.17,1732.83 1191.5,1731.5C 1195.37,1723.22 1199.03,1714.89 1202.5,1706.5 Z"/></g>
<g><path style="opacity:1" fill="#363636" d="M 762.5,1694.5 C 762.833,1694.5 763.167,1694.5 763.5,1694.5C 750.677,1695.5 737.677,1695.83 724.5,1695.5C 724.5,1702.83 724.5,1710.17 724.5,1717.5C 737.011,1717.17 749.345,1717.5 761.5,1718.5C 748.833,1718.5 736.167,1718.5 723.5,1718.5C 723.5,1710.5 723.5,1702.5 723.5,1694.5C 736.5,1694.5 749.5,1694.5 762.5,1694.5 Z"/></g>
<g><path style="opacity:1" fill="#616161" d="M 761.5,1733.5 C 749.345,1734.5 737.011,1734.83 724.5,1734.5C 724.829,1748.34 724.496,1762.01 723.5,1775.5C 723.5,1761.5 723.5,1747.5 723.5,1733.5C 736.167,1733.5 748.833,1733.5 761.5,1733.5 Z"/></g>
<g><path style="opacity:1" fill="#030303" d="M 1104.5,1734.5 C 1111.84,1734.33 1119.17,1734.5 1126.5,1735C 1130.21,1735.94 1133.37,1737.77 1136,1740.5C 1136.83,1745.59 1136.49,1750.59 1135,1755.5C 1133.58,1756.46 1132.08,1757.29 1130.5,1758C 1121.9,1759.38 1113.24,1759.88 1104.5,1759.5C 1104.5,1751.17 1104.5,1742.83 1104.5,1734.5 Z"/></g>
<g><path style="opacity:1" fill="#e96257" d="M 1764.5,1735.5 C 1757.5,1735.5 1750.5,1735.5 1743.5,1735.5C 1743.5,1743.5 1743.5,1751.5 1743.5,1759.5C 1748.83,1759.5 1754.17,1759.5 1759.5,1759.5C 1754.02,1760.49 1748.36,1760.82 1742.5,1760.5C 1742.5,1751.83 1742.5,1743.17 1742.5,1734.5C 1750.02,1734.18 1757.35,1734.51 1764.5,1735.5 Z"/></g>
<g><path style="opacity:1" fill="#e13326" d="M 1764.5,1735.5 C 1775.59,1738.87 1778.26,1745.7 1772.5,1756C 1768.62,1758.86 1764.29,1760.03 1759.5,1759.5C 1754.17,1759.5 1748.83,1759.5 1743.5,1759.5C 1743.5,1751.5 1743.5,1743.5 1743.5,1735.5C 1750.5,1735.5 1757.5,1735.5 1764.5,1735.5 Z"/></g>
<g><path style="opacity:1" fill="#f4aca5" d="M 1273.5,1679.5 C 1274.5,1705.99 1274.83,1732.66 1274.5,1759.5C 1289.01,1759.17 1303.34,1759.5 1317.5,1760.5C 1302.83,1760.5 1288.17,1760.5 1273.5,1760.5C 1273.5,1733.5 1273.5,1706.5 1273.5,1679.5 Z"/></g>
<g><path style="opacity:1" fill="#f8ccc9" d="M 1345.5,1759.5 C 1360.17,1759.5 1374.83,1759.5 1389.5,1759.5C 1389.5,1764.83 1389.5,1770.17 1389.5,1775.5C 1369.17,1775.5 1348.83,1775.5 1328.5,1775.5C 1328.5,1743.17 1328.5,1710.83 1328.5,1678.5C 1334.17,1678.5 1339.83,1678.5 1345.5,1678.5C 1345.5,1705.5 1345.5,1732.5 1345.5,1759.5 Z"/></g>
<g><path style="opacity:1" fill="#fefefe" d="M 1345.5,1759.5 C 1359.66,1760.5 1373.99,1760.83 1388.5,1760.5C 1388.5,1765.17 1388.5,1769.83 1388.5,1774.5C 1368.83,1774.5 1349.17,1774.5 1329.5,1774.5C 1329.5,1742.83 1329.5,1711.17 1329.5,1679.5C 1334.5,1679.5 1339.5,1679.5 1344.5,1679.5C 1344.17,1706.34 1344.5,1733.01 1345.5,1759.5 Z"/></g>
<g><path style="opacity:1" fill="#f9d7d5" d="M 1555.5,1679.5 C 1555.83,1679.5 1556.17,1679.5 1556.5,1679.5C 1556.5,1711.17 1556.5,1742.83 1556.5,1774.5C 1576.17,1774.5 1595.83,1774.5 1615.5,1774.5C 1615.5,1769.83 1615.5,1765.17 1615.5,1760.5C 1600.99,1760.83 1586.66,1760.5 1572.5,1759.5C 1587.17,1759.5 1601.83,1759.5 1616.5,1759.5C 1616.5,1764.83 1616.5,1770.17 1616.5,1775.5C 1596.17,1775.5 1575.83,1775.5 1555.5,1775.5C 1555.5,1743.5 1555.5,1711.5 1555.5,1679.5 Z"/></g>
<g><path style="opacity:1" fill="#d43025" d="M 1250.5,1774.5 C 1250.17,1957.76 1250.5,2141.09 1251.5,2324.5C 1250.78,2326.38 1249.78,2326.72 1248.5,2325.5C 1249.5,2142.33 1249.83,1959 1249.5,1775.5C 1250.17,1775.5 1250.5,1775.17 1250.5,1774.5 Z"/></g>
<g><path style="opacity:1" fill="#fad61a" d="M 1133.5,1964.5 C 1133.5,1966.17 1133.5,1967.83 1133.5,1969.5C 1129.83,1969.5 1126.17,1969.5 1122.5,1969.5C 1115.5,1969.5 1108.5,1969.5 1101.5,1969.5C 1096.5,1969.5 1091.5,1969.5 1086.5,1969.5C 1086.5,1968.17 1086.5,1966.83 1086.5,1965.5C 1091.22,1963.78 1096.05,1962.11 1101,1960.5C 1101.38,1941.66 1101.88,1922.83 1102.5,1904C 1102.17,1899.5 1101.83,1895 1101.5,1890.5C 1095.6,1894.58 1089.26,1897.92 1082.5,1900.5C 1081.25,1899 1080.25,1897.33 1079.5,1895.5C 1085.61,1891.9 1091.61,1888.06 1097.5,1884C 1101.17,1881.67 1104.17,1878.67 1106.5,1875C 1111.15,1874.5 1115.82,1874.33 1120.5,1874.5C 1120.21,1903.17 1120.04,1931.84 1120,1960.5C 1120.5,1961.67 1121.33,1962.5 1122.5,1963C 1126.11,1963.94 1129.78,1964.44 1133.5,1964.5 Z"/></g>
<g><path style="opacity:1" fill="#f9d61a" d="M 1191.5,1874.5 C 1213.31,1872.15 1227.14,1881.49 1233,1902.5C 1236.97,1933.4 1225.14,1955.57 1197.5,1969C 1190.73,1971.78 1183.73,1972.78 1176.5,1972C 1175.14,1970.06 1175.47,1968.4 1177.5,1967C 1196.58,1961.93 1208.08,1949.76 1212,1930.5C 1213.4,1918.86 1213.73,1907.2 1213,1895.5C 1212.2,1888.39 1208.7,1883.23 1202.5,1880C 1199.12,1879.06 1196.12,1879.73 1193.5,1882C 1190.71,1885.08 1188.54,1888.58 1187,1892.5C 1185.41,1902.94 1186.74,1912.94 1191,1922.5C 1191.9,1923.7 1193.07,1924.53 1194.5,1925C 1198.24,1925.5 1201.91,1925.5 1205.5,1925C 1207.57,1929.29 1206.23,1931.96 1201.5,1933C 1186.51,1935.59 1175.68,1930.09 1169,1916.5C 1163.73,1895.35 1171.23,1881.35 1191.5,1874.5 Z"/></g>
<g><path style="opacity:1" fill="#fed81b" d="M 1291.5,1874.5 C 1310.17,1872.76 1322.67,1880.76 1329,1898.5C 1333.75,1915.23 1333.42,1931.9 1328,1948.5C 1319.18,1970.67 1304.02,1976.83 1282.5,1967C 1273.16,1957.83 1268,1946.66 1267,1933.5C 1264.54,1915.69 1268.2,1899.36 1278,1884.5C 1282.12,1880.53 1286.62,1877.2 1291.5,1874.5 Z"/></g>
<g><path style="opacity:1" fill="#fed91a" d="M 1392.5,1874.5 C 1397.17,1874.5 1401.83,1874.5 1406.5,1874.5C 1405.4,1903.49 1405.23,1932.49 1406,1961.5C 1406.5,1962 1407,1962.5 1407.5,1963C 1411.5,1963.67 1415.5,1964.33 1419.5,1965C 1420.38,1966.36 1420.71,1967.86 1420.5,1969.5C 1404.5,1969.5 1388.5,1969.5 1372.5,1969.5C 1372.5,1967.83 1372.5,1966.17 1372.5,1964.5C 1377.7,1964.39 1382.54,1963.05 1387,1960.5C 1388.76,1937.19 1388.93,1913.86 1387.5,1890.5C 1381.77,1894.03 1375.77,1897.03 1369.5,1899.5C 1367.73,1898.64 1366.4,1897.31 1365.5,1895.5C 1371.13,1892.01 1376.8,1888.51 1382.5,1885C 1386.71,1882.29 1390.05,1878.79 1392.5,1874.5 Z"/></g>
<g><path style="opacity:1" fill="#e13526" d="M 1295.5,1880.5 C 1302.55,1879.34 1307.39,1882 1310,1888.5C 1310.67,1891.17 1311.33,1893.83 1312,1896.5C 1312.87,1915.2 1312.54,1933.86 1311,1952.5C 1309.38,1962.15 1303.88,1966.31 1294.5,1965C 1289.58,1961.94 1287.08,1957.44 1287,1951.5C 1286.33,1932.17 1286.33,1912.83 1287,1893.5C 1287.85,1887.77 1290.69,1883.44 1295.5,1880.5 Z"/></g>
<g><path style="opacity:1" fill="#70600c" d="M 1086.5,1965.5 C 1086.5,1966.83 1086.5,1968.17 1086.5,1969.5C 1091.5,1969.5 1096.5,1969.5 1101.5,1969.5C 1096.36,1970.49 1091.03,1970.82 1085.5,1970.5C 1085.22,1968.59 1085.55,1966.92 1086.5,1965.5 Z"/></g>
<g><path style="opacity:1" fill="#9c8510" d="M 1133.5,1964.5 C 1134.46,1966.26 1134.79,1968.26 1134.5,1970.5C 1130.3,1970.82 1126.3,1970.48 1122.5,1969.5C 1126.17,1969.5 1129.83,1969.5 1133.5,1969.5C 1133.5,1967.83 1133.5,1966.17 1133.5,1964.5 Z"/></g>
</svg>
