<?xml version="1.0" encoding="UTF-8"?>
<!DOCTYPE svg PUBLIC "-//W3C//DTD SVG 1.1//EN" "http://www.w3.org/Graphics/SVG/1.1/DTD/svg11.dtd">
<svg xmlns="http://www.w3.org/2000/svg" version="1.1" width="2243px" height="2362px" style="shape-rendering:geometricPrecision; text-rendering:geometricPrecision; image-rendering:optimizeQuality; fill-rule:evenodd; clip-rule:evenodd" xmlns:xlink="http://www.w3.org/1999/xlink">
<g><path style="opacity:0.992" fill="#020101" d="M 1094.5,-0.5 C 1112.17,-0.5 1129.83,-0.5 1147.5,-0.5C 1259.89,11.3424 1347.89,63.6757 1411.5,156.5C 1656.33,225.31 1856.5,359.643 2012,559.5C 2154.29,747.9 2231.13,960.567 2242.5,1197.5C 2242.5,1225.83 2242.5,1254.17 2242.5,1282.5C 2228.02,1564.65 2124.85,1808.32 1933,2013.5C 1725.3,2226.76 1472.14,2342.76 1173.5,2361.5C 1138.5,2361.5 1103.5,2361.5 1068.5,2361.5C 780.177,2343.92 533.51,2234.59 328.5,2033.5C 125.862,1826.8 16.1957,1578.14 -0.5,1287.5C -0.5,1255.83 -0.5,1224.17 -0.5,1192.5C 14.8746,917.87 114.708,679.536 299,477.5C 445.677,321.605 622.677,214.605 830,156.5C 893.83,63.8109 981.997,11.4776 1094.5,-0.5 Z M 854.5,571.5 C 855.873,571.343 857.207,571.51 858.5,572C 879.964,597.385 904.63,619.052 932.5,637C 864.833,637.667 797.167,637.667 729.5,637C 769.177,611.493 810.844,589.66 854.5,571.5 Z M 1383.5,571.5 C 1429.02,588.594 1472.02,610.427 1512.5,637C 1444.83,637.667 1377.17,637.667 1309.5,637C 1337.22,618.636 1361.89,596.803 1383.5,571.5 Z M 659.5,1790.5 C 552.262,1700.45 477.095,1588.45 434,1454.5C 380.157,1274.13 393.157,1098.8 473,928.5C 494.399,885.474 519.399,844.808 548,806.5C 548.333,1027.17 548.667,1247.83 549,1468.5C 554.135,1587.08 590.968,1694.41 659.5,1790.5 Z M 1582.5,1790.5 C 1651.89,1692.5 1688.72,1583.17 1693,1462.5C 1693.33,1243.83 1693.67,1025.17 1694,806.5C 1807.28,958.736 1854.61,1129.74 1836,1319.5C 1813.79,1495.41 1738.96,1644.25 1611.5,1766C 1601.96,1774.38 1592.29,1782.54 1582.5,1790.5 Z"/></g>
<g><path style="opacity:1" fill="#fdfdfd" d="M 1095.5,12.5 C 1144.63,9.49418 1192.29,16.3275 1238.5,33C 1247.8,36.6525 1256.8,40.8192 1265.5,45.5C 1251.35,62.1478 1237.02,78.6478 1222.5,95C 1155.47,88.9415 1088.47,82.2748 1021.5,75C 1009.17,64.6667 996.833,54.3333 984.5,44C 983.167,43 983.167,42 984.5,41C 1020.12,25.6787 1057.12,16.1787 1095.5,12.5 Z"/></g>
<g><path style="opacity:1" fill="#fefefe" d="M 1023.5,87.5 C 1088.92,93.9174 1154.26,100.917 1219.5,108.5C 1228.65,128.623 1237.65,148.79 1246.5,169C 1222.69,200.975 1198.69,232.808 1174.5,264.5C 1138.83,265.833 1103.17,265.833 1067.5,264.5C 1043.86,233.025 1020.03,201.691 996,170.5C 995.333,168.833 995.333,167.167 996,165.5C 1005.47,139.578 1014.64,113.578 1023.5,87.5 Z"/></g>
<g><path style="opacity:1" fill="#fdfdfd" d="M 867.5,128.5 C 876.481,145.129 884.981,162.129 893,179.5C 893.667,180.833 893.667,182.167 893,183.5C 867.961,249.697 842.627,315.697 817,381.5C 809,390.167 801,398.833 793,407.5C 775.245,302.835 800.079,209.835 867.5,128.5 Z"/></g>
<g><path style="opacity:1" fill="#fdfdfd" d="M 1372.5,128.5 C 1374.72,129.203 1376.55,130.536 1378,132.5C 1442.49,213.103 1465.99,304.437 1448.5,406.5C 1441.85,399.348 1435.01,392.348 1428,385.5C 1425.94,383.099 1424.27,380.433 1423,377.5C 1398.17,313.16 1373.51,248.826 1349,184.5C 1348.33,182.833 1348.33,181.167 1349,179.5C 1357.32,162.687 1365.16,145.687 1372.5,128.5 Z"/></g>
<g><path style="opacity:1" fill="#fefefe" d="M 977.5,176.5 C 980.518,176.335 983.518,176.502 986.5,177C 1010.36,207.898 1033.86,239.065 1057,270.5C 1057.67,272.5 1057.67,274.5 1057,276.5C 1046.05,313.409 1035.55,350.409 1025.5,387.5C 989.841,398.831 954.174,410.164 918.5,421.5C 889.224,407.195 860.224,392.362 831.5,377C 855.593,314.889 879.593,252.723 903.5,190.5C 928.386,186.284 953.053,181.618 977.5,176.5 Z"/></g>
<g><path style="opacity:1" fill="#fefefe" d="M 1255.5,176.5 C 1283.43,180.487 1311.1,185.487 1338.5,191.5C 1362.1,252.461 1385.6,313.461 1409,374.5C 1409.78,375.944 1409.61,377.277 1408.5,378.5C 1380.83,392.667 1353.17,406.833 1325.5,421C 1321.4,421.198 1317.4,420.531 1313.5,419C 1281.46,408.599 1249.46,398.099 1217.5,387.5C 1205.87,349.453 1194.54,311.286 1183.5,273C 1206.93,240.402 1230.93,208.235 1255.5,176.5 Z"/></g>
<g><path style="opacity:1" fill="#13549e" d="M 813.5,182.5 C 814.376,182.369 815.043,182.702 815.5,183.5C 768.335,275.803 762.169,370.803 797,468.5C 808.901,498.982 824.401,527.315 843.5,553.5C 789.818,575.776 739.484,603.609 692.5,637C 644.834,637.5 597.168,637.667 549.5,637.5C 549.667,681.835 549.5,726.168 549,770.5C 414.653,938.958 360.986,1130.62 388,1345.5C 421.463,1551.38 521.297,1716.22 687.5,1840C 700.228,1849.06 713.228,1857.73 726.5,1866C 848.02,1981.52 993.02,2034.86 1161.5,2026C 1298.81,2014.28 1416.81,1960.94 1515.5,1866C 1677.49,1761.01 1784.66,1615.18 1837,1428.5C 1886.72,1227.24 1859.39,1037.24 1755,858.5C 1736.27,828.109 1715.61,799.109 1693,771.5C 1692.5,726.835 1692.33,682.168 1692.5,637.5C 1644.83,637.667 1597.17,637.5 1549.5,637C 1502.47,603.81 1452.13,576.31 1398.5,554.5C 1412.47,533.912 1424.97,512.246 1436,489.5C 1473.2,404.259 1476.86,317.592 1447,229.5C 1440.54,213.606 1433.88,197.94 1427,182.5C 1676.41,258.348 1876.08,402.348 2026,614.5C 2182.69,845.498 2245.02,1100.16 2213,1378.5C 2173.57,1658.6 2048.07,1891.1 1836.5,2076C 1610.83,2265.11 1350.17,2352.78 1054.5,2339C 789.391,2319.83 560.058,2220.49 366.5,2041C 185.406,1868.02 74.2394,1657.19 33,1408.5C -3.19512,1159.99 38.8049,925.66 159,705.5C 295.8,466.721 493.3,299.221 751.5,203C 772.238,196.031 792.905,189.198 813.5,182.5 Z M 854.5,571.5 C 810.844,589.66 769.177,611.493 729.5,637C 797.167,637.667 864.833,637.667 932.5,637C 904.63,619.052 879.964,597.385 858.5,572C 857.207,571.51 855.873,571.343 854.5,571.5 Z M 1383.5,571.5 C 1361.89,596.803 1337.22,618.636 1309.5,637C 1377.17,637.667 1444.83,637.667 1512.5,637C 1472.02,610.427 1429.02,588.594 1383.5,571.5 Z M 659.5,1790.5 C 590.968,1694.41 554.135,1587.08 549,1468.5C 548.667,1247.83 548.333,1027.17 548,806.5C 519.399,844.808 494.399,885.474 473,928.5C 393.157,1098.8 380.157,1274.13 434,1454.5C 477.095,1588.45 552.262,1700.45 659.5,1790.5 Z M 1582.5,1790.5 C 1592.29,1782.54 1601.96,1774.38 1611.5,1766C 1738.96,1644.25 1813.79,1495.41 1836,1319.5C 1854.61,1129.74 1807.28,958.736 1694,806.5C 1693.67,1025.17 1693.33,1243.83 1693,1462.5C 1688.72,1583.17 1651.89,1692.5 1582.5,1790.5 Z"/></g>
<g><path style="opacity:1" fill="#fefefe" d="M 1025.5,399.5 C 1055.21,422.79 1084.71,446.456 1114,470.5C 1114.67,500.5 1114.67,530.5 1114,560.5C 1088.92,578.623 1063.75,596.623 1038.5,614.5C 999.554,586.887 960.887,558.887 922.5,530.5C 922.167,525.833 921.833,521.167 921.5,516.5C 922.594,488.83 923.761,461.164 925,433.5C 958.569,422.236 992.069,410.903 1025.5,399.5 Z"/></g>
<g><path style="opacity:1" fill="#fefefe" d="M 1214.5,399.5 C 1248.1,410.651 1281.77,421.651 1315.5,432.5C 1318.17,464.776 1319.67,497.11 1320,529.5C 1281.6,558.234 1242.94,586.567 1204,614.5C 1178.09,597.098 1152.59,579.098 1127.5,560.5C 1126.33,530.839 1126.17,501.172 1127,471.5C 1156.36,447.636 1185.52,423.636 1214.5,399.5 Z"/></g>
<g><path style="opacity:1" fill="#fdfdfd" d="M 907.5,537.5 C 909.199,537.34 910.866,537.506 912.5,538C 953.422,568.045 994.256,598.211 1035,628.5C 1040.29,643.191 1044.79,657.858 1048.5,672.5C 969.968,654.079 905.968,613.245 856.5,550C 873.528,545.499 890.528,541.332 907.5,537.5 Z"/></g>
<g><path style="opacity:1" fill="#fdfdfd" d="M 1329.5,537.5 C 1348.38,540.922 1367.05,545.089 1385.5,550C 1335.72,612.744 1271.72,653.577 1193.5,672.5C 1193.17,672 1192.83,671.5 1192.5,671C 1197.14,656.759 1201.97,642.592 1207,628.5C 1208.17,627.333 1209.33,626.167 1210.5,625C 1250.35,595.97 1290.02,566.803 1329.5,537.5 Z"/></g>
<g><path style="opacity:1" fill="#e20612" d="M 569.5,658.5 C 633.642,658.004 697.642,658.504 761.5,660C 760.763,737.772 760.763,815.772 761.5,894C 760.751,895.734 760.251,897.567 760,899.5C 750.562,890.947 739.562,885.614 727,883.5C 726.5,884 726,884.5 725.5,885C 740.299,925.028 750.632,966.194 756.5,1008.5C 756.564,1010.39 756.064,1012.06 755,1013.5C 693.473,1013.11 631.806,1013.11 570,1013.5C 569.5,895.167 569.333,776.834 569.5,658.5 Z"/></g>
<g><path style="opacity:1" fill="#f9dd00" d="M 917.5,658.5 C 917.833,729.002 917.499,799.335 916.5,869.5C 913.287,856.026 908.787,843.026 903,830.5C 893.33,857.511 883.663,884.511 874,911.5C 864.923,884.998 850.09,862.331 829.5,843.5C 829.167,843.833 828.833,844.167 828.5,844.5C 830.88,867.144 830.714,889.811 828,912.5C 814.82,893.981 799.486,877.314 782,862.5C 781.5,794.501 781.333,726.501 781.5,658.5C 826.833,658.5 872.167,658.5 917.5,658.5 Z"/></g>
<g><path style="opacity:1" fill="#a48d07" d="M 917.5,658.5 C 918.666,729.999 918.832,801.665 918,873.5C 917.59,872.099 917.09,870.766 916.5,869.5C 917.499,799.335 917.833,729.002 917.5,658.5 Z"/></g>
<g><path style="opacity:0.992" fill="#25170e" d="M 938.5,658.5 C 938.167,742.668 938.501,826.668 939.5,910.5C 939.607,912.379 939.107,912.712 938,911.5C 937.168,826.999 937.334,742.666 938.5,658.5 Z"/></g>
<g><path style="opacity:1" fill="#e20612" d="M 938.5,658.5 C 949.838,658.333 961.172,658.5 972.5,659C 1016.4,679.643 1062.4,690.81 1110.5,692.5C 1110.83,799.57 1110.5,906.57 1109.5,1013.5C 1052.58,1013.66 995.584,1013.33 938.5,1012.5C 938.334,1008.15 938.501,1003.82 939,999.5C 953.42,966.398 957.586,932.064 951.5,896.5C 946.758,900.572 942.758,905.239 939.5,910.5C 938.501,826.668 938.167,742.668 938.5,658.5 Z"/></g>
<g><path style="opacity:1" fill="#00944f" d="M 1268.5,658.5 C 1305.51,658.167 1342.51,658.5 1379.5,659.5C 1377.87,663.633 1374.87,666.133 1370.5,667C 1354.09,668.742 1337.75,671.075 1321.5,674C 1313.1,676.861 1306.1,681.694 1300.5,688.5C 1305.23,698.398 1312.23,706.231 1321.5,712C 1335.1,718.645 1349.1,724.311 1363.5,729C 1366.8,730.224 1369.63,732.058 1372,734.5C 1372.36,742.676 1372.86,750.843 1373.5,759C 1372.61,770.014 1368.77,779.847 1362,788.5C 1357.17,794 1352.33,799.5 1347.5,805C 1383.5,805.833 1419.5,805.667 1455.5,804.5C 1444.59,794.338 1436.42,782.338 1431,768.5C 1430.2,756.798 1430.53,745.132 1432,733.5C 1434.25,731.623 1436.75,730.123 1439.5,729C 1454.65,724.173 1469.32,718.173 1483.5,711C 1492.35,705.821 1498.68,698.488 1502.5,689C 1495.21,679.512 1485.54,673.845 1473.5,672C 1459.78,670.638 1446.12,668.971 1432.5,667C 1428.06,665.947 1425.06,663.28 1423.5,659C 1499.17,658.167 1574.84,658.333 1650.5,659.5C 1648.87,663.633 1645.87,666.133 1641.5,667C 1625.09,668.742 1608.75,671.075 1592.5,674C 1583.86,676.811 1576.86,681.811 1571.5,689C 1576.42,698.582 1583.42,706.248 1592.5,712C 1606.1,718.645 1620.1,724.311 1634.5,729C 1637.25,730.123 1639.75,731.623 1642,733.5C 1647.89,753.391 1644.89,771.725 1633,788.5C 1628.17,794 1623.33,799.5 1618.5,805C 1636.5,805.5 1654.5,805.667 1672.5,805.5C 1672.83,867.504 1672.5,929.504 1671.5,991.5C 1657.84,1000.64 1650.51,1013.47 1649.5,1030C 1654.68,1045.35 1649.34,1053.68 1633.5,1055C 1620.36,1055.62 1607.36,1057.29 1594.5,1060C 1585.08,1062.59 1577.41,1067.76 1571.5,1075.5C 1577.82,1088.65 1587.82,1097.82 1601.5,1103C 1613.06,1107.61 1624.72,1111.94 1636.5,1116C 1638.33,1117.17 1640.17,1118.33 1642,1119.5C 1647.92,1139.43 1644.92,1157.76 1633,1174.5C 1628.35,1179.98 1623.52,1185.32 1618.5,1190.5C 1636.49,1191.5 1654.49,1191.83 1672.5,1191.5C 1672.83,1253.5 1672.5,1315.5 1671.5,1377.5C 1657.98,1386.54 1650.64,1399.21 1649.5,1415.5C 1654.78,1430.47 1649.78,1438.97 1634.5,1441C 1621.03,1441.63 1607.69,1443.3 1594.5,1446C 1585.08,1448.59 1577.41,1453.76 1571.5,1461.5C 1577.42,1473.92 1586.76,1482.75 1599.5,1488C 1613.97,1493.15 1628.13,1498.98 1642,1505.5C 1647.3,1523.45 1645.3,1540.45 1636,1556.5C 1630.54,1563.63 1624.71,1570.46 1618.5,1577C 1631.16,1577.5 1643.83,1577.67 1656.5,1577.5C 1651.47,1602.3 1643.97,1626.3 1634,1649.5C 1627.42,1643.96 1619.92,1640.13 1611.5,1638C 1599.56,1636.12 1587.56,1634.78 1575.5,1634C 1570.92,1633.44 1566.58,1632.1 1562.5,1630C 1561.3,1629.1 1560.47,1627.93 1560,1626.5C 1564.02,1602.51 1556.35,1583.51 1537,1569.5C 1517.7,1583.6 1510.04,1602.6 1514,1626.5C 1511.83,1630.01 1508.66,1632.18 1504.5,1633C 1489.4,1634.29 1474.4,1636.29 1459.5,1639C 1450.4,1641.44 1442.9,1646.27 1437,1653.5C 1437.18,1657.2 1438.51,1660.53 1441,1663.5C 1445.58,1668.75 1450.74,1673.25 1456.5,1677C 1473.08,1684.46 1489.75,1691.63 1506.5,1698.5C 1508.87,1711.15 1509.03,1723.82 1507,1736.5C 1505.19,1741.45 1502.86,1746.11 1500,1750.5C 1494.88,1757.29 1489.38,1763.79 1483.5,1770C 1512.5,1770.33 1541.5,1770.67 1570.5,1771C 1549.92,1799.6 1527.08,1826.43 1502,1851.5C 1502.5,1849.47 1502.33,1847.47 1501.5,1845.5C 1494.47,1837.82 1485.8,1832.98 1475.5,1831C 1463.55,1829.26 1451.55,1827.93 1439.5,1827C 1435.72,1826.41 1432.06,1825.41 1428.5,1824C 1426.19,1822.36 1424.69,1820.2 1424,1817.5C 1427.8,1794.56 1420.47,1776.22 1402,1762.5C 1382.25,1776.37 1374.58,1795.37 1379,1819.5C 1376.66,1822.84 1373.49,1825 1369.5,1826C 1357.54,1827.66 1345.54,1829 1333.5,1830C 1320.2,1831.65 1309.2,1837.48 1300.5,1847.5C 1304.87,1857.04 1311.54,1864.54 1320.5,1870C 1333.94,1877.04 1347.94,1882.7 1362.5,1887C 1365.91,1888.45 1369.08,1890.29 1372,1892.5C 1377.84,1915.68 1372.67,1935.85 1356.5,1953C 1285.46,1987.34 1210.46,2005.18 1131.5,2006.5C 1131.5,1992.17 1131.5,1977.83 1131.5,1963.5C 1149.17,1963.67 1166.84,1963.5 1184.5,1963C 1174.76,1953.59 1166.93,1942.75 1161,1930.5C 1159.03,1917.49 1159.19,1904.49 1161.5,1891.5C 1164,1889.75 1166.67,1888.25 1169.5,1887C 1184.68,1882.16 1199.35,1876.16 1213.5,1869C 1221.33,1863.51 1227.33,1856.51 1231.5,1848C 1225.86,1839.99 1218.19,1834.66 1208.5,1832C 1195.28,1829.45 1181.95,1827.79 1168.5,1827C 1162.82,1826.56 1157.99,1824.39 1154,1820.5C 1153.67,1819.17 1153.33,1817.83 1153,1816.5C 1156.79,1794.43 1149.79,1776.76 1132,1763.5C 1131.5,1701.5 1131.33,1639.5 1131.5,1577.5C 1149.18,1577.83 1166.85,1577.5 1184.5,1576.5C 1174.21,1567.26 1166.38,1556.26 1161,1543.5C 1159.2,1530.86 1159.2,1518.19 1161,1505.5C 1177.82,1498.34 1194.65,1491.17 1211.5,1484C 1220.5,1478.51 1227.16,1471.01 1231.5,1461.5C 1225.86,1454.16 1218.53,1448.99 1209.5,1446C 1194.26,1443.39 1178.92,1441.39 1163.5,1440C 1157.71,1439.21 1154.21,1436.04 1153,1430.5C 1156.96,1408.36 1149.96,1390.7 1132,1377.5C 1131.5,1315.5 1131.33,1253.5 1131.5,1191.5C 1149.18,1191.83 1166.85,1191.5 1184.5,1190.5C 1178.44,1184.61 1172.94,1178.28 1168,1171.5C 1161.52,1162.73 1158.69,1152.9 1159.5,1142C 1159.65,1134.48 1160.15,1126.98 1161,1119.5C 1177.78,1112.35 1194.62,1105.18 1211.5,1098C 1220.5,1092.51 1227.16,1085.01 1231.5,1075.5C 1229.39,1071.55 1226.39,1068.39 1222.5,1066C 1218.29,1063.73 1213.95,1061.73 1209.5,1060C 1194.59,1057.4 1179.59,1055.4 1164.5,1054C 1158.3,1053.51 1154.47,1050.34 1153,1044.5C 1156.96,1022.36 1149.96,1004.69 1132,991.5C 1131.5,929.501 1131.33,867.501 1131.5,805.5C 1149.18,805.833 1166.85,805.5 1184.5,804.5C 1179.81,799.649 1175.31,794.649 1171,789.5C 1166.83,783.99 1163.5,777.99 1161,771.5C 1159.16,758.86 1159.16,746.193 1161,733.5C 1163.25,731.623 1165.75,730.123 1168.5,729C 1183.65,724.173 1198.32,718.173 1212.5,711C 1221.35,705.821 1227.68,698.488 1231.5,689C 1228.46,684.297 1224.46,680.631 1219.5,678C 1236.6,673.107 1252.93,666.607 1268.5,658.5 Z"/></g>
<g><path style="opacity:1" fill="#fdfdfd" d="M 1389.5,658.5 C 1397.5,658.5 1405.5,658.5 1413.5,658.5C 1413.74,666.907 1417.74,672.74 1425.5,676C 1428.83,677 1432.17,678 1435.5,679C 1449.63,679.702 1463.63,681.368 1477.5,684C 1482.39,685.112 1486.72,687.279 1490.5,690.5C 1487.59,695.459 1483.59,699.292 1478.5,702C 1465.62,708.441 1452.28,713.774 1438.5,718C 1432.81,720.373 1427.64,723.54 1423,727.5C 1422.33,728.833 1421.67,730.167 1421,731.5C 1419.83,743.15 1419.5,754.817 1420,766.5C 1421.98,776.949 1426.48,786.116 1433.5,794C 1412.17,794.667 1390.83,794.667 1369.5,794C 1376.48,786.868 1380.98,778.368 1383,768.5C 1383.61,755.813 1383.28,743.146 1382,730.5C 1378.01,725.189 1372.84,721.355 1366.5,719C 1352.94,714.22 1339.61,708.887 1326.5,703C 1321.2,700.034 1316.87,696.034 1313.5,691C 1314.34,689.233 1315.67,687.899 1317.5,687C 1322.64,684.731 1327.97,683.065 1333.5,682C 1344.83,680.949 1356.16,679.949 1367.5,679C 1371.88,677.822 1376.21,676.488 1380.5,675C 1386.73,671.267 1389.73,665.767 1389.5,658.5 Z"/></g>
<g><path style="opacity:1" fill="#fdfdfd" d="M 1660.5,658.5 C 1664.5,658.5 1668.5,658.5 1672.5,658.5C 1672.5,703.833 1672.5,749.167 1672.5,794.5C 1661.83,794.667 1651.16,794.5 1640.5,794C 1654.05,778.634 1658.55,760.8 1654,740.5C 1655.29,732.583 1652.46,726.75 1645.5,723C 1642.83,721.667 1640.17,720.333 1637.5,719C 1621.34,714.134 1606.01,707.467 1591.5,699C 1588.78,696.618 1586.45,693.951 1584.5,691C 1588.41,686.544 1593.41,683.877 1599.5,683C 1612.45,681.209 1625.45,679.876 1638.5,679C 1645.54,677.884 1651.7,675.051 1657,670.5C 1659.29,666.813 1660.45,662.813 1660.5,658.5 Z"/></g>
<g><path style="opacity:1" fill="#fdfcfc" d="M 1200.5,682.5 C 1207.52,683.615 1213.85,686.282 1219.5,690.5C 1213.46,697.7 1206.13,703.2 1197.5,707C 1183.91,711.798 1170.58,717.131 1157.5,723C 1153.96,724.907 1151.46,727.74 1150,731.5C 1148.41,744.854 1148.41,758.187 1150,771.5C 1152.49,779.984 1156.66,787.484 1162.5,794C 1152.17,794.5 1141.84,794.666 1131.5,794.5C 1131.5,760.167 1131.5,725.833 1131.5,691.5C 1155.05,691.583 1178.05,688.583 1200.5,682.5 Z"/></g>
<g><path style="opacity:0.992" fill="#25170e" d="M 1110.5,692.5 C 1111.17,745.832 1111.5,799.332 1111.5,853C 1111.5,906.838 1110.83,960.338 1109.5,1013.5C 1110.5,906.57 1110.83,799.57 1110.5,692.5 Z"/></g>
<g><path style="opacity:1" fill="#050404" d="M 1319.5,997.5 C 1284,997.832 1248.66,997.498 1213.5,996.5C 1222.75,987.077 1230.25,976.41 1236,964.5C 1237.72,951.865 1237.72,939.198 1236,926.5C 1233.75,924.623 1231.25,923.123 1228.5,922C 1212.41,917.416 1197.07,911.082 1182.5,903C 1174.69,897.522 1168.69,890.522 1164.5,882C 1171.26,873.619 1179.92,868.285 1190.5,866C 1204.12,863.974 1217.79,862.307 1231.5,861C 1239.68,860.425 1244.02,856.091 1244.5,848C 1240.79,826.266 1248.12,809.432 1266.5,797.5C 1285.81,811.574 1293.31,830.574 1289,854.5C 1292.02,858.092 1295.85,860.258 1300.5,861C 1312.5,862.333 1324.5,863.667 1336.5,865C 1349.05,866.772 1359.38,872.438 1367.5,882C 1360.26,895.902 1349.26,905.568 1334.5,911C 1325.31,914.731 1315.97,918.064 1306.5,921C 1302.58,922.54 1299.08,924.707 1296,927.5C 1295.52,935.335 1295.02,943.168 1294.5,951C 1294.47,962.106 1297.97,971.94 1305,980.5C 1310.04,986.039 1314.88,991.706 1319.5,997.5 Z"/></g>
<g><path style="opacity:1" fill="#060605" d="M 1536.5,797.5 C 1548.39,804.569 1555.89,814.903 1559,828.5C 1559.33,837.167 1559.67,845.833 1560,854.5C 1562.98,858.076 1566.81,860.242 1571.5,861C 1585.21,862.307 1598.88,863.974 1612.5,866C 1623.08,868.285 1631.74,873.619 1638.5,882C 1633.6,891.567 1626.6,899.234 1617.5,905C 1600.8,912.546 1583.96,919.713 1567,926.5C 1566.43,934.496 1565.93,942.496 1565.5,950.5C 1565.17,959.172 1567.33,967.172 1572,974.5C 1576.78,981.719 1582.28,988.386 1588.5,994.5C 1589.83,995.62 1590.33,996.953 1590,998.5C 1554.7,998.818 1519.2,998.485 1483.5,997.5C 1493.31,987.873 1501.14,976.873 1507,964.5C 1508.87,951.857 1508.87,939.191 1507,926.5C 1504.75,924.623 1502.25,923.123 1499.5,922C 1483.41,917.416 1468.07,911.082 1453.5,903C 1445.61,897.775 1439.94,890.775 1436.5,882C 1441.86,874.811 1448.86,869.811 1457.5,867C 1472.39,864.222 1487.39,862.222 1502.5,861C 1507.49,860.687 1511.32,858.521 1514,854.5C 1510.11,830.629 1517.61,811.629 1536.5,797.5 Z"/></g>
<g><path style="opacity:1" fill="#fdfdfd" d="M 1265.5,811.5 C 1274.16,817.317 1278.49,825.484 1278.5,836C 1276.51,845.131 1277.35,853.964 1281,862.5C 1286.23,868.198 1292.73,871.365 1300.5,872C 1314.58,873.008 1328.58,874.675 1342.5,877C 1346.95,878.39 1350.95,880.556 1354.5,883.5C 1351.64,888.526 1347.64,892.359 1342.5,895C 1327.57,902.31 1312.24,908.643 1296.5,914C 1287.65,917.529 1283.82,924.029 1285,933.5C 1280.73,953.519 1284.89,971.352 1297.5,987C 1276.5,987.667 1255.5,987.667 1234.5,987C 1244.04,976.743 1248.71,964.577 1248.5,950.5C 1248.17,941.069 1247.34,931.736 1246,922.5C 1242.31,917.487 1237.48,913.987 1231.5,912C 1217.07,907.452 1203.07,901.785 1189.5,895C 1184.66,892.247 1180.66,888.58 1177.5,884C 1183.77,878.589 1191.11,875.589 1199.5,875C 1210.84,874.051 1222.17,873.051 1233.5,872C 1244,870.81 1250.84,865.31 1254,855.5C 1254.1,845.108 1254.77,834.775 1256,824.5C 1258.23,819.447 1261.39,815.114 1265.5,811.5 Z"/></g>
<g><path style="opacity:1" fill="#fdfdfd" d="M 1536.5,811.5 C 1545.3,817.432 1549.63,825.765 1549.5,836.5C 1547.58,845.46 1548.41,854.127 1552,862.5C 1557.23,868.198 1563.73,871.365 1571.5,872C 1585.25,872.955 1598.92,874.622 1612.5,877C 1617.39,878.112 1621.72,880.279 1625.5,883.5C 1622.64,888.526 1618.64,892.359 1613.5,895C 1599.16,901.782 1584.49,907.782 1569.5,913C 1565.04,914.979 1561.21,917.813 1558,921.5C 1556.1,932.051 1554.94,942.718 1554.5,953.5C 1555.38,966.305 1560.04,977.471 1568.5,987C 1547.5,987.667 1526.5,987.667 1505.5,987C 1514.28,977.014 1518.94,965.348 1519.5,952C 1519.11,942.098 1518.28,932.265 1517,922.5C 1513.29,917.454 1508.45,913.954 1502.5,912C 1486.9,907.034 1471.9,900.7 1457.5,893C 1454.02,890.266 1451.02,887.099 1448.5,883.5C 1452.37,880.483 1456.7,878.316 1461.5,877C 1475.72,874.521 1490.06,872.854 1504.5,872C 1510.27,870.633 1515.6,868.3 1520.5,865C 1522.76,862.228 1524.26,859.062 1525,855.5C 1525.33,846.167 1525.67,836.833 1526,827.5C 1527.06,824.382 1528.39,821.382 1530,818.5C 1532.37,816.297 1534.54,813.963 1536.5,811.5 Z"/></g>
<g><path style="opacity:1" fill="#e20612" d="M 903.5,870.5 C 905.346,874.868 906.513,879.535 907,884.5C 908.021,893.902 908.854,903.068 909.5,912C 908.111,932.608 905.944,953.108 903,973.5C 917.415,962.42 929.748,949.42 940,934.5C 940.318,944.28 939.318,953.946 937,963.5C 933.464,976.773 929.131,989.773 924,1002.5C 923.333,1006.17 923.333,1009.83 924,1013.5C 925.973,1019.45 928.973,1024.78 933,1029.5C 940.793,1039.29 949.293,1048.46 958.5,1057C 887.793,1056.88 824.626,1057.05 769,1057.5C 768.5,1057 768,1056.5 767.5,1056C 769.919,1046.36 770.919,1036.53 770.5,1026.5C 769.87,999.792 766.37,973.458 760,947.5C 756.498,934.011 752.831,920.678 749,907.5C 757.042,914.874 764.375,922.874 771,931.5C 780.395,944.719 789.561,958.052 798.5,971.5C 800.008,963.251 800.675,954.917 800.5,946.5C 799.902,929.097 798.735,911.763 797,894.5C 812.756,912.612 825.756,932.612 836,954.5C 840.023,930.798 842.19,907.298 842.5,884C 843.227,882.601 843.727,881.101 844,879.5C 856.136,901.237 865.136,924.237 871,948.5C 884.318,923.531 895.152,897.531 903.5,870.5 Z"/></g>
<g><path style="opacity:1" fill="#a48d07" d="M 783.5,899.5 C 782.508,907.316 782.174,915.316 782.5,923.5C 781.341,913.008 781.175,902.341 782,891.5C 782.395,894.207 782.895,896.873 783.5,899.5 Z"/></g>
<g><path style="opacity:1" fill="#ecd102" d="M 783.5,899.5 C 784.668,909.51 785.501,919.51 786,929.5C 784.579,927.595 783.412,925.595 782.5,923.5C 782.174,915.316 782.508,907.316 783.5,899.5 Z"/></g>
<g><path style="opacity:1" fill="#050504" d="M 1454.5,1189.5 C 1419.34,1190.5 1384,1190.83 1348.5,1190.5C 1354.17,1184 1359.67,1177.33 1365,1170.5C 1370.12,1162.96 1372.96,1154.63 1373.5,1145.5C 1372.83,1137.18 1372.33,1128.84 1372,1120.5C 1370.27,1118.38 1368.1,1116.88 1365.5,1116C 1350.84,1111.17 1336.51,1105.5 1322.5,1099C 1312.58,1093.58 1305.25,1085.75 1300.5,1075.5C 1306.41,1067.76 1314.08,1062.59 1323.5,1060C 1338.4,1057.29 1353.4,1055.29 1368.5,1054C 1373.42,1053.4 1376.92,1050.9 1379,1046.5C 1374.81,1022.69 1382.48,1004.02 1402,990.5C 1420.66,1004.17 1427.99,1022.51 1424,1045.5C 1424.35,1047.85 1425.51,1049.68 1427.5,1051C 1431.58,1053.1 1435.92,1054.44 1440.5,1055C 1455.06,1055.52 1469.39,1057.52 1483.5,1061C 1490.44,1064.05 1496.61,1068.22 1502,1073.5C 1502.67,1074.83 1502.67,1076.17 1502,1077.5C 1497.21,1085.95 1490.71,1092.79 1482.5,1098C 1465.8,1105.56 1448.97,1112.73 1432,1119.5C 1430.57,1131.13 1430.23,1142.8 1431,1154.5C 1432.86,1160.56 1435.53,1166.23 1439,1171.5C 1443.63,1177.96 1448.8,1183.96 1454.5,1189.5 Z"/></g>
<g><path style="opacity:1" fill="#182f2a" d="M 1213.5,996.5 C 1248.66,997.498 1284,997.832 1319.5,997.5C 1284,998.83 1248.33,998.83 1212.5,997.5C 1212.62,996.893 1212.96,996.56 1213.5,996.5 Z"/></g>
<g><path style="opacity:1" fill="#fdfdfd" d="M 1400.5,1004.5 C 1406.8,1008.06 1410.96,1013.39 1413,1020.5C 1413.33,1030.17 1413.67,1039.83 1414,1049.5C 1414.94,1053.21 1416.77,1056.37 1419.5,1059C 1424.08,1061.97 1429.08,1063.97 1434.5,1065C 1448.61,1065.79 1462.61,1067.45 1476.5,1070C 1481.72,1071.28 1486.39,1073.61 1490.5,1077C 1483.98,1084.61 1475.98,1090.27 1466.5,1094C 1456.58,1097.86 1446.58,1101.53 1436.5,1105C 1431.41,1106.96 1426.91,1109.79 1423,1113.5C 1422.33,1114.83 1421.67,1116.17 1421,1117.5C 1419.79,1129.82 1419.46,1142.15 1420,1154.5C 1422.05,1164.31 1426.55,1172.81 1433.5,1180C 1412.17,1180.67 1390.83,1180.67 1369.5,1180C 1382.55,1166 1387.05,1149.5 1383,1130.5C 1384.95,1118.21 1380.11,1110.05 1368.5,1106C 1354.15,1101.24 1340.15,1095.58 1326.5,1089C 1321.2,1086.03 1316.87,1082.03 1313.5,1077C 1314.86,1075.31 1316.52,1073.98 1318.5,1073C 1322.39,1071.36 1326.39,1070.03 1330.5,1069C 1343.12,1067.26 1355.79,1065.93 1368.5,1065C 1382.84,1063.33 1390.18,1055.33 1390.5,1041C 1388.26,1031.01 1389.42,1021.51 1394,1012.5C 1396.41,1009.99 1398.58,1007.32 1400.5,1004.5 Z"/></g>
<g><path style="opacity:1" fill="#fdfdfd" d="M 1131.5,1005.5 C 1135.85,1008.52 1139.02,1012.52 1141,1017.5C 1142.24,1028.44 1142.91,1039.44 1143,1050.5C 1146.04,1057.94 1151.54,1062.44 1159.5,1064C 1175.22,1065.62 1190.88,1067.62 1206.5,1070C 1211.28,1071.56 1215.61,1073.89 1219.5,1077C 1216.34,1081.58 1212.34,1085.25 1207.5,1088C 1193.98,1094.88 1179.98,1100.55 1165.5,1105C 1159.91,1107.39 1155.07,1110.89 1151,1115.5C 1148.97,1128.38 1148.31,1141.38 1149,1154.5C 1151.55,1164.09 1156.05,1172.59 1162.5,1180C 1152.17,1180.5 1141.84,1180.67 1131.5,1180.5C 1131.5,1122.17 1131.5,1063.83 1131.5,1005.5 Z"/></g>
<g><path style="opacity:1" fill="#fdfdfd" d="M 1671.5,1004.5 C 1672.5,1063 1672.83,1121.66 1672.5,1180.5C 1661.83,1180.67 1651.16,1180.5 1640.5,1180C 1653.81,1164.58 1658.31,1146.74 1654,1126.5C 1653.86,1122.38 1653.19,1118.38 1652,1114.5C 1648.38,1110.88 1644.21,1108.05 1639.5,1106C 1622.76,1100.63 1606.76,1093.63 1591.5,1085C 1588.78,1082.62 1586.45,1079.95 1584.5,1077C 1586.27,1074.61 1588.61,1072.94 1591.5,1072C 1607.2,1067.83 1623.2,1065.5 1639.5,1065C 1653.6,1063.4 1660.93,1055.57 1661.5,1041.5C 1657.55,1027.1 1660.88,1014.77 1671.5,1004.5 Z"/></g>
<g><path style="opacity:1" fill="#f8dc00" d="M 569.5,1033.5 C 631.833,1033.5 694.167,1033.5 756.5,1033.5C 756.634,1041.36 755.467,1049.03 753,1056.5C 747,1067.83 741,1079.17 735,1090.5C 724.768,1117.14 725.268,1143.64 736.5,1170C 680.834,1170.5 625.168,1170.67 569.5,1170.5C 569.5,1124.83 569.5,1079.17 569.5,1033.5 Z"/></g>
<g><path style="opacity:1" fill="#f8dc00" d="M 954.5,1034.5 C 1006.33,1033.5 1058.33,1033.17 1110.5,1033.5C 1110.5,1079.17 1110.5,1124.83 1110.5,1170.5C 1072.17,1170.5 1033.83,1170.5 995.5,1170.5C 1002.33,1142.45 1002.17,1114.45 995,1086.5C 991.529,1076.88 986.529,1068.22 980,1060.5C 971.995,1051.33 963.495,1042.66 954.5,1034.5 Z"/></g>
<g><path style="opacity:1" fill="#f8dc00" d="M 761.5,1069.5 C 831.162,1070.25 900.829,1070.75 970.5,1071C 977.344,1077.86 981.678,1086.02 983.5,1095.5C 902.19,1082.52 821.856,1086.85 742.5,1108.5C 746.973,1094.56 753.306,1081.56 761.5,1069.5 Z"/></g>
<g><path style="opacity:1" fill="#f7db00" d="M 868.5,1101.5 C 907.346,1101.2 946.013,1103.7 984.5,1109C 986.166,1111.48 986.999,1114.31 987,1117.5C 987.667,1122.17 987.667,1126.83 987,1131.5C 904.971,1114.61 823.804,1118.28 743.5,1142.5C 741.869,1140.94 741.036,1138.94 741,1136.5C 740.501,1131.85 740.334,1127.18 740.5,1122.5C 782.559,1110.93 825.226,1103.93 868.5,1101.5 Z"/></g>
<g><path style="opacity:1" fill="#fefefe" d="M 2094.5,1127.5 C 2116.04,1124.25 2130.87,1132.59 2139,1152.5C 2142.68,1174.32 2134.18,1188.82 2113.5,1196C 2093.27,1199.64 2079.11,1192.14 2071,1173.5C 2066.42,1151.66 2074.25,1136.33 2094.5,1127.5 Z"/></g>
<g><path style="opacity:1" fill="#f7db00" d="M 880.5,1133.5 C 916.656,1133.13 952.323,1136.96 987.5,1145C 986.629,1149.45 985.796,1153.95 985,1158.5C 984.112,1163.17 982.445,1167.5 980,1171.5C 920.853,1154.85 861.019,1152.02 800.5,1163C 784.791,1166.26 769.458,1170.76 754.5,1176.5C 753.201,1175.91 752.368,1174.91 752,1173.5C 749.254,1167.35 747.087,1161.01 745.5,1154.5C 789.805,1142.17 834.805,1135.17 880.5,1133.5 Z"/></g>
<g><path style="opacity:1" fill="#fefefe" d="M 185.5,1160.5 C 228.767,1155.89 262.267,1171.56 286,1207.5C 299.756,1232.77 305.09,1259.77 302,1288.5C 300.216,1308.14 295.382,1326.97 287.5,1345C 272.167,1345.67 256.833,1345.67 241.5,1345C 252.431,1323.11 256.931,1299.94 255,1275.5C 247.59,1242.77 227.09,1227.6 193.5,1230C 165.554,1234.95 150.554,1251.62 148.5,1280C 149.269,1285.56 150.269,1291.06 151.5,1296.5C 158.803,1297.5 166.137,1297.83 173.5,1297.5C 173.5,1289.5 173.5,1281.5 173.5,1273.5C 187.167,1273.5 200.833,1273.5 214.5,1273.5C 214.659,1297.84 214.992,1322.17 215.5,1346.5C 182.167,1347.14 148.834,1347.31 115.5,1347C 98.7918,1308.88 95.6252,1269.71 106,1229.5C 119.693,1191.45 146.193,1168.45 185.5,1160.5 Z"/></g>
<g><path style="opacity:1" fill="#e20612" d="M 848.5,1169.5 C 890.862,1167.54 932.862,1172.37 974.5,1184C 949.396,1230.61 916.063,1270.45 874.5,1303.5C 849.675,1281.51 824.675,1259.68 799.5,1238C 783.323,1223.67 769.989,1207.17 759.5,1188.5C 788.377,1177.93 818.044,1171.59 848.5,1169.5 Z"/></g>
<g><path style="opacity:1" fill="#050404" d="M 1265.5,1183.5 C 1277.1,1190.35 1284.6,1200.35 1288,1213.5C 1288.33,1222.5 1288.67,1231.5 1289,1240.5C 1291.72,1244.53 1295.55,1246.69 1300.5,1247C 1314.2,1248.43 1327.86,1250.09 1341.5,1252C 1352.08,1254.29 1360.74,1259.62 1367.5,1268C 1362.6,1277.57 1355.6,1285.23 1346.5,1291C 1332.9,1297.64 1318.9,1303.31 1304.5,1308C 1301.24,1309.21 1298.41,1311.04 1296,1313.5C 1295.52,1321.33 1295.02,1329.17 1294.5,1337C 1294.47,1348.1 1297.97,1357.94 1305,1366.5C 1310.17,1372.33 1315.33,1378.17 1320.5,1384C 1284.5,1384.83 1248.5,1384.67 1212.5,1383.5C 1222.31,1373.87 1230.14,1362.87 1236,1350.5C 1237.72,1337.87 1237.72,1325.2 1236,1312.5C 1234.17,1311.33 1232.33,1310.17 1230.5,1309C 1213.98,1303.5 1197.98,1296.83 1182.5,1289C 1174.69,1283.52 1168.69,1276.52 1164.5,1268C 1170.7,1260.74 1178.36,1255.74 1187.5,1253C 1202.4,1250.29 1217.4,1248.29 1232.5,1247C 1240.32,1246.18 1244.32,1241.85 1244.5,1234C 1240.93,1212.66 1247.93,1195.82 1265.5,1183.5 Z"/></g>
<g><path style="opacity:1" fill="#070605" d="M 1536.5,1183.5 C 1548.39,1190.57 1555.89,1200.9 1559,1214.5C 1559.33,1223.17 1559.67,1231.83 1560,1240.5C 1562.68,1244.52 1566.51,1246.69 1571.5,1247C 1585.2,1248.43 1598.86,1250.09 1612.5,1252C 1623.08,1254.29 1631.74,1259.62 1638.5,1268C 1633.6,1277.57 1626.6,1285.23 1617.5,1291C 1600.65,1298.17 1583.82,1305.34 1567,1312.5C 1566.43,1320.5 1565.93,1328.5 1565.5,1336.5C 1565.32,1347.79 1568.82,1357.79 1576,1366.5C 1581.17,1372.33 1586.33,1378.17 1591.5,1384C 1555.5,1384.83 1519.5,1384.67 1483.5,1383.5C 1493.31,1373.87 1501.14,1362.87 1507,1350.5C 1508.87,1337.86 1508.87,1325.19 1507,1312.5C 1505.08,1311.46 1503.25,1310.29 1501.5,1309C 1487.01,1303.73 1472.67,1298.06 1458.5,1292C 1449.33,1286.83 1442.17,1279.67 1437,1270.5C 1436.33,1269.17 1436.33,1267.83 1437,1266.5C 1445.18,1257.54 1455.34,1252.38 1467.5,1251C 1479.5,1249.67 1491.5,1248.33 1503.5,1247C 1508.1,1246.46 1511.6,1244.29 1514,1240.5C 1510.11,1216.63 1517.61,1197.63 1536.5,1183.5 Z"/></g>
<g><path style="opacity:1" fill="#182f2a" d="M 1454.5,1189.5 C 1455.04,1189.56 1455.38,1189.89 1455.5,1190.5C 1437.5,1190.83 1419.5,1191.17 1401.5,1191.5C 1383.09,1191.51 1365.43,1191.17 1348.5,1190.5C 1384,1190.83 1419.34,1190.5 1454.5,1189.5 Z"/></g>
<g><path style="opacity:1" fill="#e20612" d="M 569.5,1190.5 C 628.168,1190.33 686.834,1190.5 745.5,1191C 750.865,1200.08 756.198,1209.08 761.5,1218C 760.916,1431.04 760.916,1646.37 761.5,1864C 760.751,1865.73 760.251,1867.57 760,1869.5C 642.027,1761.71 578.527,1627.88 569.5,1468C 569.509,1375.62 569.509,1283.12 569.5,1190.5 Z"/></g>
<g><path style="opacity:1" fill="#e20612" d="M 985.5,1190.5 C 1027.17,1190.5 1068.83,1190.5 1110.5,1190.5C 1110.5,1462.5 1110.5,1734.5 1110.5,2006.5C 1052.28,2005.66 995.277,1995.33 939.5,1975.5C 938.333,1736.83 938.167,1498.17 939,1259.5C 957.097,1238.24 972.597,1215.24 985.5,1190.5 Z"/></g>
<g><path style="opacity:1" fill="#fdfdfd" d="M 1297.5,1372.5 C 1276.67,1373.5 1255.67,1373.83 1234.5,1373.5C 1241.97,1364.89 1246.47,1354.89 1248,1343.5C 1248.19,1332.83 1247.85,1322.16 1247,1311.5C 1246.53,1309.75 1245.86,1308.09 1245,1306.5C 1241.09,1302.79 1236.59,1299.96 1231.5,1298C 1217.02,1293.42 1203.02,1287.75 1189.5,1281C 1184.66,1278.25 1180.66,1274.58 1177.5,1270C 1180.88,1266.64 1184.88,1264.31 1189.5,1263C 1203.73,1260.51 1218.07,1258.84 1232.5,1258C 1242.86,1257.09 1250.03,1251.92 1254,1242.5C 1254.1,1231.78 1254.76,1221.11 1256,1210.5C 1258.2,1205.13 1261.7,1200.8 1266.5,1197.5C 1274.37,1203.74 1278.37,1211.9 1278.5,1222C 1276.51,1231.13 1277.35,1239.96 1281,1248.5C 1284.83,1253 1289.66,1255.83 1295.5,1257C 1309.83,1258.67 1324.17,1260.33 1338.5,1262C 1344.67,1263.16 1350.01,1265.82 1354.5,1270C 1351.85,1273.99 1348.51,1277.32 1344.5,1280C 1329.62,1287.44 1314.29,1293.77 1298.5,1299C 1288.73,1302.43 1284.23,1309.26 1285,1319.5C 1284.33,1329.5 1284.33,1339.5 1285,1349.5C 1287.12,1358.41 1291.29,1366.08 1297.5,1372.5 Z"/></g>
<g><path style="opacity:1" fill="#fdfdfd" d="M 1536.5,1197.5 C 1545.27,1203.38 1549.61,1211.71 1549.5,1222.5C 1547.58,1231.46 1548.41,1240.13 1552,1248.5C 1555.83,1253 1560.66,1255.83 1566.5,1257C 1582.23,1258.54 1597.9,1260.54 1613.5,1263C 1618.12,1264.31 1622.12,1266.64 1625.5,1270C 1622.45,1274.72 1618.45,1278.38 1613.5,1281C 1599.29,1288.11 1584.62,1294.11 1569.5,1299C 1565.04,1300.98 1561.21,1303.81 1558,1307.5C 1556.1,1318.05 1554.94,1328.72 1554.5,1339.5C 1555.75,1352.17 1560.42,1363.33 1568.5,1373C 1547.5,1373.67 1526.5,1373.67 1505.5,1373C 1514.28,1363.01 1518.94,1351.35 1519.5,1338C 1519.14,1328.07 1518.31,1318.24 1517,1308.5C 1513.33,1303.52 1508.5,1300.02 1502.5,1298C 1488.06,1293.45 1474.06,1287.78 1460.5,1281C 1456.04,1277.78 1452.04,1274.11 1448.5,1270C 1453.48,1266 1459.14,1263.33 1465.5,1262C 1478.12,1260.23 1490.78,1258.89 1503.5,1258C 1513.86,1257.09 1521.03,1251.92 1525,1242.5C 1525.07,1231.43 1525.73,1220.43 1527,1209.5C 1529.62,1205.05 1532.79,1201.05 1536.5,1197.5 Z"/></g>
<g><path style="opacity:1" fill="#fefefe" d="M 2024.5,1214.5 C 2080.68,1211.55 2116.85,1236.88 2133,1290.5C 2134.83,1300.76 2136,1311.09 2136.5,1321.5C 2133.75,1358.53 2130.75,1395.53 2127.5,1432.5C 2062.19,1427.25 1996.85,1422.25 1931.5,1417.5C 1934.67,1378.48 1938.17,1339.48 1942,1300.5C 1949.75,1262.42 1971.25,1235.25 2006.5,1219C 2012.58,1217.29 2018.58,1215.79 2024.5,1214.5 Z"/></g>
<g><path style="opacity:1" fill="#a48d07" d="M 783.5,1240.5 C 782.5,1456 782.167,1671.67 782.5,1887.5C 781.167,1671.67 781.167,1455.67 782.5,1239.5C 783.107,1239.62 783.44,1239.96 783.5,1240.5 Z"/></g>
<g><path style="opacity:1" fill="#f9dd00" d="M 783.5,1240.5 C 809.595,1263.09 835.261,1286.26 860.5,1310C 870.767,1317.56 880.767,1317.23 890.5,1309C 899.671,1300.66 908.671,1292.16 917.5,1283.5C 917.833,1511.33 917.5,1739 916.5,1966.5C 867.639,1946.76 822.973,1920.42 782.5,1887.5C 782.167,1671.67 782.5,1456 783.5,1240.5 Z"/></g>
<g><path style="opacity:1" fill="#a48d07" d="M 916.5,1966.5 C 917.5,1739 917.833,1511.33 917.5,1283.5C 918.168,1396.6 918.501,1510.43 918.5,1625C 918.167,1739.17 917.833,1853.33 917.5,1967.5C 916.893,1967.38 916.56,1967.04 916.5,1966.5 Z"/></g>
<g><path style="opacity:1" fill="#16549f" d="M 2026.5,1284.5 C 2046.6,1281.72 2063.44,1287.72 2077,1302.5C 2081.03,1308.24 2083.69,1314.57 2085,1321.5C 2085,1334.51 2084.5,1347.51 2083.5,1360.5C 2051.51,1357.72 2019.51,1355.06 1987.5,1352.5C 1988.11,1342.49 1988.95,1332.49 1990,1322.5C 1994.58,1302.42 2006.75,1289.76 2026.5,1284.5 Z"/></g>
<g><path style="opacity:1" fill="#74483f" d="M 1297.5,1372.5 C 1298.04,1372.56 1298.38,1372.89 1298.5,1373.5C 1277,1374.83 1255.67,1374.83 1234.5,1373.5C 1255.67,1373.83 1276.67,1373.5 1297.5,1372.5 Z"/></g>
<g><path style="opacity:1" fill="#050404" d="M 1401.5,1376.5 C 1420.78,1389.82 1428.28,1408.15 1424,1431.5C 1425.78,1436.32 1429.28,1439.16 1434.5,1440C 1446.8,1441.59 1459.14,1442.92 1471.5,1444C 1481.62,1445.56 1490.62,1449.56 1498.5,1456C 1500.58,1457.5 1501.92,1459.5 1502.5,1462C 1496,1474.83 1486,1483.83 1472.5,1489C 1458.7,1493.82 1445.2,1499.32 1432,1505.5C 1430.13,1518.52 1430.13,1531.52 1432,1544.5C 1437.9,1556.73 1445.73,1567.56 1455.5,1577C 1419.5,1577.67 1383.5,1577.67 1347.5,1577C 1356.82,1568.52 1364.32,1558.68 1370,1547.5C 1372.06,1542.19 1373.23,1536.69 1373.5,1531C 1372.86,1522.84 1372.36,1514.68 1372,1506.5C 1370.59,1505.21 1369.09,1504.05 1367.5,1503C 1351.01,1497.42 1335.01,1490.75 1319.5,1483C 1310.87,1477.87 1304.53,1470.7 1300.5,1461.5C 1306.41,1453.76 1314.08,1448.59 1323.5,1446C 1336.69,1443.3 1350.03,1441.63 1363.5,1441C 1368.18,1440.39 1372.51,1438.89 1376.5,1436.5C 1377.58,1435.33 1378.42,1434 1379,1432.5C 1374.92,1408.86 1382.42,1390.19 1401.5,1376.5 Z"/></g>
<g><path style="opacity:1" fill="#fefefe" d="M 305.5,1378.5 C 306.822,1378.33 307.989,1378.66 309,1379.5C 319.984,1425.43 330.317,1471.43 340,1517.5C 326.581,1521.06 313.081,1524.4 299.5,1527.5C 293.321,1502.78 287.154,1478.12 281,1453.5C 270.162,1456.25 259.329,1459.08 248.5,1462C 254.274,1485.32 259.941,1508.65 265.5,1532C 251.942,1535.61 238.275,1538.78 224.5,1541.5C 219.919,1517.51 214.252,1493.85 207.5,1470.5C 197.214,1473.15 186.881,1475.65 176.5,1478C 175.484,1478.52 174.818,1479.35 174.5,1480.5C 180.703,1505.39 186.37,1530.39 191.5,1555.5C 177.501,1558.5 163.501,1561.5 149.5,1564.5C 138.674,1516.86 128.008,1469.2 117.5,1421.5C 180.449,1407.79 243.116,1393.46 305.5,1378.5 Z"/></g>
<g><path style="opacity:1" fill="#fdfdfd" d="M 1131.5,1391.5 C 1135.85,1394.52 1139.02,1398.52 1141,1403.5C 1142.24,1414.11 1142.9,1424.78 1143,1435.5C 1143.94,1439.21 1145.77,1442.37 1148.5,1445C 1153.08,1447.97 1158.08,1449.97 1163.5,1451C 1179.02,1451.68 1194.35,1453.68 1209.5,1457C 1213.16,1458.5 1216.5,1460.5 1219.5,1463C 1216.45,1467.72 1212.45,1471.38 1207.5,1474C 1192.57,1481.31 1177.24,1487.64 1161.5,1493C 1157.42,1495.08 1153.92,1497.91 1151,1501.5C 1148.49,1515.75 1148.15,1530.09 1150,1544.5C 1152.76,1552.54 1156.93,1559.7 1162.5,1566C 1152.17,1566.5 1141.84,1566.67 1131.5,1566.5C 1131.5,1508.17 1131.5,1449.83 1131.5,1391.5 Z"/></g>
<g><path style="opacity:1" fill="#fdfdfd" d="M 1400.5,1390.5 C 1403.06,1391.54 1405.22,1393.21 1407,1395.5C 1409.78,1398.72 1411.78,1402.38 1413,1406.5C 1413.33,1416.17 1413.67,1425.83 1414,1435.5C 1414.94,1439.21 1416.77,1442.37 1419.5,1445C 1424.08,1447.97 1429.08,1449.97 1434.5,1451C 1450.03,1451.69 1465.36,1453.69 1480.5,1457C 1484.16,1458.5 1487.5,1460.5 1490.5,1463C 1487.45,1467.72 1483.45,1471.38 1478.5,1474C 1464.29,1481.11 1449.62,1487.11 1434.5,1492C 1428.72,1494.45 1424.22,1498.29 1421,1503.5C 1419.81,1515.48 1419.48,1527.48 1420,1539.5C 1421.73,1549.8 1426.23,1558.63 1433.5,1566C 1412.17,1566.67 1390.83,1566.67 1369.5,1566C 1376.6,1558.9 1381.1,1550.4 1383,1540.5C 1383.64,1528.14 1383.3,1515.81 1382,1503.5C 1379.06,1497.93 1374.56,1494.1 1368.5,1492C 1352.19,1486.68 1336.53,1480.01 1321.5,1472C 1318.45,1469.29 1315.78,1466.29 1313.5,1463C 1316.85,1459.66 1320.85,1457.32 1325.5,1456C 1339.42,1453.67 1353.42,1452.01 1367.5,1451C 1382.37,1449.8 1390.03,1441.8 1390.5,1427C 1388.26,1417.01 1389.42,1407.51 1394,1398.5C 1396.76,1396.25 1398.93,1393.58 1400.5,1390.5 Z"/></g>
<g><path style="opacity:1" fill="#fcfcfc" d="M 1671.5,1390.5 C 1675.28,1449.57 1671.28,1508.24 1659.5,1566.5C 1653.16,1566.67 1646.82,1566.5 1640.5,1566C 1654.1,1550.67 1658.6,1532.83 1654,1512.5C 1653.86,1508.38 1653.19,1504.38 1652,1500.5C 1648.27,1497.05 1644.1,1494.21 1639.5,1492C 1624.47,1486.91 1609.8,1480.91 1595.5,1474C 1591.15,1470.99 1587.49,1467.32 1584.5,1463C 1587.85,1459.66 1591.85,1457.32 1596.5,1456C 1610.41,1453.67 1624.41,1452.01 1638.5,1451C 1653.14,1449.86 1660.8,1442.03 1661.5,1427.5C 1657.94,1413.21 1661.27,1400.87 1671.5,1390.5 Z"/></g>
<g><path style="opacity:1" fill="#fdfdfe" d="M 2062.5,1483.5 C 2081.54,1482.74 2094.71,1491.07 2102,1508.5C 2106.09,1527.27 2099.92,1541.44 2083.5,1551C 2064.08,1558.36 2048.58,1553.52 2037,1536.5C 2027.4,1509.98 2035.9,1492.31 2062.5,1483.5 Z"/></g>
<g><path style="opacity:1" fill="#fefefe" d="M 353.5,1549.5 C 354.496,1549.41 355.329,1549.75 356,1550.5C 386.846,1605.87 416.846,1661.53 446,1717.5C 431.58,1725.63 417.08,1733.63 402.5,1741.5C 392.75,1724.34 383.25,1707 374,1689.5C 373.439,1688.98 372.772,1688.64 372,1688.5C 332.276,1709.61 292.776,1731.11 253.5,1753C 250.702,1754.91 247.702,1755.91 244.5,1756C 233.96,1736.42 223.294,1716.92 212.5,1697.5C 254.794,1674.37 296.961,1651.03 339,1627.5C 330.295,1609.59 321.128,1591.76 311.5,1574C 325.37,1565.57 339.37,1557.4 353.5,1549.5 Z"/></g>
<g><path style="opacity:1" fill="#060504" d="M 1265.5,1569.5 C 1285.27,1583.24 1293.1,1602.24 1289,1626.5C 1292.85,1631.44 1298.02,1633.94 1304.5,1634C 1317.97,1634.68 1331.3,1636.34 1344.5,1639C 1353.9,1641.69 1361.56,1646.86 1367.5,1654.5C 1359.7,1668.79 1348.03,1678.62 1332.5,1684C 1323.58,1687.53 1314.58,1690.86 1305.5,1694C 1302.09,1695.45 1298.92,1697.29 1296,1699.5C 1295.52,1707.33 1295.02,1715.17 1294.5,1723C 1294.47,1733.57 1297.63,1743.07 1304,1751.5C 1308.91,1758.14 1314.41,1764.3 1320.5,1770C 1284.5,1770.67 1248.5,1770.67 1212.5,1770C 1222.68,1760.46 1230.52,1749.3 1236,1736.5C 1237.88,1723.83 1237.72,1711.17 1235.5,1698.5C 1218.75,1691.63 1202.08,1684.46 1185.5,1677C 1176.72,1671.55 1170.05,1664.22 1165.5,1655C 1171.14,1646.99 1178.81,1641.66 1188.5,1639C 1203.4,1636.29 1218.4,1634.29 1233.5,1633C 1240.82,1631.68 1244.49,1627.35 1244.5,1620C 1241.72,1605.89 1244.56,1593.05 1253,1581.5C 1257.06,1577.27 1261.23,1573.27 1265.5,1569.5 Z"/></g>
<g><path style="opacity:1" fill="#fdfdfd" d="M 1536.5,1583.5 C 1543.15,1588.12 1547.32,1594.45 1549,1602.5C 1548.9,1610.5 1548.9,1618.5 1549,1626.5C 1551.32,1636.78 1557.82,1642.61 1568.5,1644C 1583.24,1645.12 1597.9,1646.78 1612.5,1649C 1617.49,1650.49 1621.82,1652.99 1625.5,1656.5C 1621.93,1661.23 1617.6,1665.07 1612.5,1668C 1598.9,1674.64 1584.9,1680.31 1570.5,1685C 1565.79,1687.05 1561.62,1689.88 1558,1693.5C 1556.09,1704.21 1554.92,1715.05 1554.5,1726C 1555.34,1738.67 1560.01,1749.67 1568.5,1759C 1547.5,1759.67 1526.5,1759.67 1505.5,1759C 1512.82,1750.86 1517.32,1741.36 1519,1730.5C 1519.12,1719.83 1518.79,1709.17 1518,1698.5C 1515.05,1690.89 1509.55,1686.06 1501.5,1684C 1488.48,1679.91 1475.82,1674.91 1463.5,1669C 1457.49,1665.83 1452.49,1661.49 1448.5,1656C 1452.62,1652.61 1457.29,1650.27 1462.5,1649C 1478.13,1646.8 1493.8,1644.8 1509.5,1643C 1518.04,1641.13 1523.2,1635.96 1525,1627.5C 1525.1,1617.11 1525.77,1606.77 1527,1596.5C 1529.23,1591.45 1532.39,1587.11 1536.5,1583.5 Z"/></g>
<g><path style="opacity:1" fill="#fdfdfd" d="M 1265.5,1583.5 C 1273.92,1589.83 1278.25,1598.33 1278.5,1609C 1276.57,1617.8 1277.41,1626.3 1281,1634.5C 1285.21,1639.86 1290.71,1643.02 1297.5,1644C 1310.52,1645.17 1323.52,1646.5 1336.5,1648C 1340.89,1649.13 1345.23,1650.46 1349.5,1652C 1351.59,1653.04 1353.25,1654.54 1354.5,1656.5C 1350.93,1661.23 1346.6,1665.07 1341.5,1668C 1327.9,1674.64 1313.9,1680.31 1299.5,1685C 1294.79,1687.05 1290.62,1689.88 1287,1693.5C 1285.81,1697.38 1285.14,1701.38 1285,1705.5C 1284.33,1715.17 1284.33,1724.83 1285,1734.5C 1286.92,1743.85 1291.09,1752.02 1297.5,1759C 1276.5,1759.67 1255.5,1759.67 1234.5,1759C 1242.05,1751.39 1246.55,1742.23 1248,1731.5C 1248.48,1719.09 1247.81,1706.75 1246,1694.5C 1242.46,1689.98 1237.96,1686.81 1232.5,1685C 1215.75,1679.62 1199.75,1672.62 1184.5,1664C 1181.79,1661.63 1179.46,1658.96 1177.5,1656C 1181.37,1652.8 1185.7,1650.46 1190.5,1649C 1204.45,1646.91 1218.45,1645.25 1232.5,1644C 1239.69,1643.28 1245.86,1640.44 1251,1635.5C 1252.56,1633.04 1253.56,1630.38 1254,1627.5C 1254.33,1618.17 1254.67,1608.83 1255,1599.5C 1257.51,1593.49 1261.01,1588.16 1265.5,1583.5 Z"/></g>
<g><path style="opacity:1" fill="#fefefe" d="M 1857.5,1598.5 C 1929.49,1601.97 2001.49,1605.47 2073.5,1609C 2063.42,1629.16 2053.09,1649.16 2042.5,1669C 2032,1668.53 2021.5,1667.7 2011,1666.5C 2009.17,1666.83 2007.33,1667.17 2005.5,1667.5C 1992.76,1693.32 1979.76,1718.99 1966.5,1744.5C 1974.2,1753.86 1981.87,1763.19 1989.5,1772.5C 1979.69,1792.78 1969.36,1812.78 1958.5,1832.5C 1913.7,1776.23 1869.36,1719.57 1825.5,1662.5C 1836.19,1641.11 1846.86,1619.78 1857.5,1598.5 Z"/></g>
<g><path style="opacity:1" fill="#1855a0" d="M 1889.5,1655.5 C 1889.92,1654.88 1890.58,1654.54 1891.5,1654.5C 1916.12,1657.36 1940.78,1659.69 1965.5,1661.5C 1957.65,1678.87 1948.98,1695.87 1939.5,1712.5C 1922.81,1693.48 1906.14,1674.48 1889.5,1655.5 Z"/></g>
<g><path style="opacity:1" fill="#00934f" d="M 1624.5,1671.5 C 1625.04,1671.56 1625.38,1671.89 1625.5,1672.5C 1612.82,1701.54 1597.82,1729.21 1580.5,1755.5C 1580,1756.52 1579.33,1756.69 1578.5,1756C 1572.62,1748.74 1568.46,1740.58 1566,1731.5C 1565.52,1720.82 1565.85,1710.15 1567,1699.5C 1569.92,1697.29 1573.09,1695.45 1576.5,1694C 1587.91,1689.86 1599.24,1685.53 1610.5,1681C 1615.75,1678.55 1620.42,1675.39 1624.5,1671.5 Z"/></g>
<g><path style="opacity:1" fill="#fefefe" d="M 477.5,1755.5 C 479.604,1755.2 481.604,1755.53 483.5,1756.5C 498.312,1774.48 513.312,1792.31 528.5,1810C 497.205,1874.76 466.038,1939.59 435,2004.5C 420.142,1987.28 405.642,1969.78 391.5,1952C 397.167,1941.67 402.833,1931.33 408.5,1921C 390.21,1898.37 371.543,1876.04 352.5,1854C 350.833,1853.33 349.167,1853.33 347.5,1854C 337.211,1857.49 326.877,1860.49 316.5,1863C 301.978,1845.98 287.645,1828.81 273.5,1811.5C 273.709,1810.91 274.043,1810.41 274.5,1810C 342.536,1792.5 410.203,1774.34 477.5,1755.5 Z"/></g>
<g><path style="opacity:1" fill="#fdfdfd" d="M 1401.5,1776.5 C 1405.52,1780.36 1409.02,1784.69 1412,1789.5C 1413.24,1800.11 1413.9,1810.78 1414,1821.5C 1416.77,1830.5 1422.94,1835.67 1432.5,1837C 1447.21,1838.31 1461.88,1839.98 1476.5,1842C 1481.68,1843.39 1486.34,1845.72 1490.5,1849C 1487.12,1854.05 1482.79,1858.05 1477.5,1861C 1460.83,1868 1444.17,1875 1427.5,1882C 1424.96,1884.2 1422.79,1886.7 1421,1889.5C 1420.42,1898.84 1419.76,1908.17 1419,1917.5C 1405.67,1926.34 1392,1934.67 1378,1942.5C 1380.15,1937.48 1381.81,1932.15 1383,1926.5C 1383.64,1914.14 1383.3,1901.81 1382,1889.5C 1379.37,1884.76 1375.54,1881.26 1370.5,1879C 1355.84,1874.11 1341.5,1868.45 1327.5,1862C 1322.01,1858.67 1317.35,1854.51 1313.5,1849.5C 1316.28,1846.6 1319.62,1844.43 1323.5,1843C 1338.7,1840.15 1354.04,1838.15 1369.5,1837C 1378.34,1835.83 1384.84,1831.33 1389,1823.5C 1389.38,1812.5 1390.04,1801.5 1391,1790.5C 1393.56,1785.11 1397.06,1780.44 1401.5,1776.5 Z"/></g>
<g><path style="opacity:1" fill="#fdfdfd" d="M 1161.5,1951.5 C 1151.68,1952.49 1141.68,1952.83 1131.5,1952.5C 1131.33,1894.17 1131.5,1835.83 1132,1777.5C 1135.38,1781.22 1138.38,1785.22 1141,1789.5C 1142.21,1800.45 1142.88,1811.45 1143,1822.5C 1146.37,1830.78 1152.54,1835.62 1161.5,1837C 1176.21,1838.31 1190.88,1839.98 1205.5,1842C 1210.68,1843.39 1215.34,1845.72 1219.5,1849C 1216.12,1854.05 1211.79,1858.05 1206.5,1861C 1193.49,1867.12 1180.15,1872.45 1166.5,1877C 1160.38,1879.14 1155.21,1882.64 1151,1887.5C 1149.05,1899.76 1148.38,1912.09 1149,1924.5C 1150.49,1934.81 1154.66,1943.81 1161.5,1951.5 Z"/></g>
<g><path style="opacity:1" fill="#1a56a0" d="M 463.5,1816.5 C 464.525,1816.9 464.692,1817.56 464,1818.5C 452,1840.5 440,1862.5 428,1884.5C 414.802,1870.16 402.636,1855.16 391.5,1839.5C 415.718,1832.2 439.718,1824.54 463.5,1816.5 Z"/></g>
<g><path style="opacity:1" fill="#fefefe" d="M 1700.5,1838.5 C 1704.18,1838.33 1707.85,1838.5 1711.5,1839C 1722.69,1851.35 1733.69,1863.85 1744.5,1876.5C 1728.97,1876.65 1713.97,1879.48 1699.5,1885C 1693.47,1888.03 1688.3,1892.2 1684,1897.5C 1678.74,1909.6 1682.74,1916.26 1696,1917.5C 1713.47,1914.21 1730.97,1911.04 1748.5,1908C 1770.06,1904.87 1787.23,1912.04 1800,1929.5C 1812.38,1945.8 1814.71,1963.47 1807,1982.5C 1791.46,2012.37 1767.96,2033.54 1736.5,2046C 1731.59,2047.8 1726.59,2049.3 1721.5,2050.5C 1719.27,2049.78 1717.44,2048.45 1716,2046.5C 1706.02,2034.35 1695.85,2022.35 1685.5,2010.5C 1693.81,2008.61 1702.14,2006.77 1710.5,2005C 1722.72,2002.14 1733.22,1996.31 1742,1987.5C 1747.36,1981.77 1748.36,1975.43 1745,1968.5C 1741.8,1966.05 1738.13,1964.72 1734,1964.5C 1722.13,1966.43 1710.29,1968.59 1698.5,1971C 1679.19,1975.34 1661.19,1972.34 1644.5,1962C 1624.17,1944.88 1617.67,1923.38 1625,1897.5C 1633.53,1877.3 1647.36,1861.8 1666.5,1851C 1677.22,1844.79 1688.55,1840.62 1700.5,1838.5 Z"/></g>
<g><path style="opacity:1" fill="#fefefe" d="M 1866.5,1838.5 C 1888.48,1835.73 1902.98,1844.73 1910,1865.5C 1912.91,1885.53 1905.08,1899.36 1886.5,1907C 1865.35,1911.82 1850.51,1904.32 1842,1884.5C 1837.32,1862.18 1845.49,1846.84 1866.5,1838.5 Z"/></g>
<g><path style="opacity:1" fill="#fefefe" d="M 596.5,1874.5 C 635.621,1902.45 674.621,1930.61 713.5,1959C 704.878,1970.41 696.378,1981.91 688,1993.5C 667.667,1978.5 647.333,1963.5 627,1948.5C 619.972,1958.03 613.139,1967.69 606.5,1977.5C 625.206,1991.61 644.039,2005.61 663,2019.5C 656.256,2030.79 648.756,2041.79 640.5,2052.5C 639.998,2053.52 639.332,2053.69 638.5,2053C 619.5,2039.17 600.5,2025.33 581.5,2011.5C 566.256,2031.66 551.256,2051.99 536.5,2072.5C 518.167,2059.33 499.833,2046.17 481.5,2033C 520.439,1980.57 558.772,1927.73 596.5,1874.5 Z"/></g>
<g><path style="opacity:1" fill="#00914e" d="M 1472.5,1874.5 C 1475.97,1874.71 1475.97,1875.88 1472.5,1878C 1459.12,1889.11 1445.28,1899.61 1431,1909.5C 1430.37,1903.42 1430.87,1897.42 1432.5,1891.5C 1435,1889.75 1437.67,1888.25 1440.5,1887C 1451.54,1883.49 1462.21,1879.33 1472.5,1874.5 Z"/></g>
<g><path style="opacity:1" fill="#aca4a1" d="M 1161.5,1951.5 C 1162.04,1951.56 1162.38,1951.89 1162.5,1952.5C 1152.01,1953.82 1141.67,1953.82 1131.5,1952.5C 1141.68,1952.83 1151.68,1952.49 1161.5,1951.5 Z"/></g>
<g><path style="opacity:1" fill="#fefefe" d="M 745.5,1970.5 C 789.389,1989.78 832.723,2010.11 875.5,2031.5C 869.59,2044.32 863.423,2056.99 857,2069.5C 835.122,2059.48 813.289,2049.31 791.5,2039C 790.5,2038.33 789.5,2038.33 788.5,2039C 784.205,2047.76 780.038,2056.59 776,2065.5C 775.333,2066.5 775.333,2067.5 776,2068.5C 797.423,2079.13 818.923,2089.63 840.5,2100C 835.026,2112.09 829.36,2124.09 823.5,2136C 817.545,2133.9 811.545,2131.56 805.5,2129C 789.789,2121.4 773.955,2113.9 758,2106.5C 752.778,2115.13 748.111,2124.13 744,2133.5C 743.598,2134.87 743.098,2136.21 742.5,2137.5C 766.038,2148.96 789.705,2160.12 813.5,2171C 807.265,2183.3 801.431,2195.8 796,2208.5C 795.439,2209.02 794.772,2209.36 794,2209.5C 750.047,2189.28 706.214,2168.61 662.5,2147.5C 690.373,2088.52 718.04,2029.52 745.5,1970.5 Z"/></g>
<g><path style="opacity:1" fill="#fefefe" d="M 1450.5,1995.5 C 1453.48,1995.24 1455.31,1996.57 1456,1999.5C 1459.43,2011.14 1463.27,2022.64 1467.5,2034C 1465.55,2035.88 1463.22,2037.22 1460.5,2038C 1439.02,2045.21 1417.69,2052.71 1396.5,2060.5C 1400,2070.83 1403.5,2081.17 1407,2091.5C 1407.72,2092.06 1408.56,2092.39 1409.5,2092.5C 1431.73,2084.76 1454.07,2077.42 1476.5,2070.5C 1480.53,2083.44 1484.87,2096.27 1489.5,2109C 1467.06,2117.54 1444.39,2125.37 1421.5,2132.5C 1429.09,2156.27 1437.09,2179.94 1445.5,2203.5C 1445.18,2204.65 1444.52,2205.48 1443.5,2206C 1422.97,2213.35 1402.3,2220.18 1381.5,2226.5C 1360.5,2164.5 1339.5,2102.5 1318.5,2040.5C 1362.86,2026.27 1406.86,2011.27 1450.5,1995.5 Z"/></g>
<g><path style="opacity:1" fill="#fefefe" d="M 1092.5,2057.5 C 1122.84,2055.7 1151.5,2061.7 1178.5,2075.5C 1179.67,2093.52 1179.34,2111.52 1177.5,2129.5C 1153.47,2113.08 1127.14,2107.24 1098.5,2112C 1069.34,2123.49 1058.5,2144.66 1066,2175.5C 1075.93,2198.65 1093.6,2209.65 1119,2208.5C 1139.37,2208.53 1158.21,2203.2 1175.5,2192.5C 1175.83,2195.5 1176.17,2198.5 1176.5,2201.5C 1175.84,2216.16 1175.34,2230.83 1175,2245.5C 1141.42,2261.01 1106.59,2264.51 1070.5,2256C 1011.16,2233.49 987.656,2190.99 1000,2128.5C 1016.47,2086.21 1047.3,2062.54 1092.5,2057.5 Z"/></g>
<g><path style="opacity:1" fill="#fdfdfe" d="M 1545.5,2092.5 C 1573.34,2093.58 1586.51,2107.91 1585,2135.5C 1581.83,2150.67 1572.67,2159.83 1557.5,2163C 1536.14,2165.23 1522.3,2156.07 1516,2135.5C 1513.92,2112.78 1523.75,2098.45 1545.5,2092.5 Z"/></g>
<g><path style="opacity:1" fill="#fdfefe" d="M 1261.5,2180.5 C 1283.52,2178.91 1297.69,2188.58 1304,2209.5C 1305.69,2224.96 1300.19,2237.13 1287.5,2246C 1268.09,2255.21 1251.92,2251.38 1239,2234.5C 1229.47,2215.47 1232.97,2199.3 1249.5,2186C 1253.48,2183.85 1257.48,2182.02 1261.5,2180.5 Z"/></g>
</svg>
