<?xml version="1.0" encoding="UTF-8"?>
<!DOCTYPE svg PUBLIC "-//W3C//DTD SVG 1.1//EN" "http://www.w3.org/Graphics/SVG/1.1/DTD/svg11.dtd">
<svg xmlns="http://www.w3.org/2000/svg" version="1.1" width="2500px" height="2500px" style="shape-rendering:geometricPrecision; text-rendering:geometricPrecision; image-rendering:optimizeQuality; fill-rule:evenodd; clip-rule:evenodd" xmlns:xlink="http://www.w3.org/1999/xlink">
<g><path style="opacity:0.988" fill="#fffefe" d="M 171.5,-0.5 C 890.167,-0.5 1608.83,-0.5 2327.5,-0.5C 2327.67,453.167 2327.5,906.833 2327,1360.5C 2291.82,1641.47 2177.82,1884.14 1985,2088.5C 1846.21,2232.5 1685.37,2345.34 1502.5,2427C 1448.64,2450.96 1393.3,2470.96 1336.5,2487C 1315.58,2492.28 1294.58,2496.45 1273.5,2499.5C 1266.17,2499.5 1258.83,2499.5 1251.5,2499.5C 961.16,2421.3 711.66,2274.97 503,2060.5C 402.843,1955.6 322.509,1836.94 262,1704.5C 209.367,1584.69 179.367,1459.36 172,1328.5C 171.5,885.5 171.333,442.5 171.5,-0.5 Z"/></g>
<g><path style="opacity:1" fill="#fef106" d="M 2288.5,1352.5 C 2255.8,1624.85 2145.96,1860.19 1959,2058.5C 1794.95,2228 1601.12,2351.83 1377.5,2430C 1339.29,2442.84 1300.12,2451.34 1260,2455.5C 1213.34,2445.04 1167.51,2431.54 1122.5,2415C 890.879,2330.9 690.379,2200.06 521,2022.5C 425.598,1921.13 349.598,1806.46 293,1678.5C 243.543,1563.61 216.043,1443.61 210.5,1318.5C 210.5,893.833 210.5,469.167 210.5,44.5C 903.167,44.5 1595.83,44.5 2288.5,44.5C 2288.5,480.5 2288.5,916.5 2288.5,1352.5 Z"/></g>
<g><path style="opacity:1" fill="#fff76b" d="M 2288.5,1352.5 C 2288.5,916.5 2288.5,480.5 2288.5,44.5C 1595.83,44.5 903.167,44.5 210.5,44.5C 210.5,469.167 210.5,893.833 210.5,1318.5C 209.5,893.667 209.167,468.667 209.5,43.5C 902.833,43.5 1596.17,43.5 2289.5,43.5C 2289.83,480 2289.5,916.334 2288.5,1352.5 Z"/></g>
<g><path style="opacity:1" fill="#93d2ee" d="M 2199.5,129.5 C 2200.49,129.328 2201.16,129.662 2201.5,130.5C 2201.5,535.167 2201.5,939.833 2201.5,1344.5C 2200.89,1345.39 2200.56,1346.39 2200.5,1347.5C 2199.5,942.334 2199.17,537 2199.5,131.5C 1566.17,131.5 932.833,131.5 299.5,131.5C 299.833,524.667 299.5,917.667 298.5,1310.5C 298.384,1307.14 298.051,1303.81 297.5,1300.5C 297.5,910.5 297.5,520.5 297.5,130.5C 931.667,130.833 1565.67,130.5 2199.5,129.5 Z"/></g>
<g><path style="opacity:1" fill="#8cd1f3" d="M 2200.5,1347.5 C 2170.67,1591.78 2072.5,1803.45 1906,1982.5C 1785.36,2109.14 1646.2,2210.3 1488.5,2286C 1422.71,2318.38 1354.37,2344.04 1283.5,2363C 1270.91,2367.04 1258.25,2367.38 1245.5,2364C 1018.84,2298.06 819.51,2185.73 647.5,2027C 554.679,1939.91 477.512,1841.08 416,1730.5C 354.283,1617.35 316.283,1496.68 302,1368.5C 300.11,1349.21 298.944,1329.88 298.5,1310.5C 299.5,917.667 299.833,524.667 299.5,131.5C 932.833,131.5 1566.17,131.5 2199.5,131.5C 2199.17,537 2199.5,942.334 2200.5,1347.5 Z"/></g>
<g><path style="opacity:1" fill="#f9ef0a" d="M 1233.5,162.5 C 1233.5,169.167 1233.5,175.833 1233.5,182.5C 1232.06,188.043 1230.06,193.376 1227.5,198.5C 1226.55,199.452 1225.55,200.452 1224.5,201.5C 1226.57,202.857 1228.57,204.19 1230.5,205.5C 1222.83,211.167 1216.17,217.833 1210.5,225.5C 1206.33,228.088 1201.99,230.421 1197.5,232.5C 1196.54,232.047 1195.71,231.381 1195,230.5C 1192.73,213.431 1196.23,197.764 1205.5,183.5C 1210.83,184.167 1213.17,181.833 1212.5,176.5C 1218.44,170.231 1225.44,165.564 1233.5,162.5 Z"/></g>
<g><path style="opacity:1" fill="#262026" d="M 1234.5,165.5 C 1235.59,165.62 1236.25,166.287 1236.5,167.5C 1236.97,169.307 1237.31,171.14 1237.5,173C 1237.69,174.973 1237.02,176.473 1235.5,177.5C 1234.51,173.555 1234.18,169.555 1234.5,165.5 Z"/></g>
<g><path style="opacity:1" fill="#f8ca68" d="M 1212.5,176.5 C 1213.17,181.833 1210.83,184.167 1205.5,183.5C 1206.83,180.167 1209.17,177.833 1212.5,176.5 Z"/></g>
<g><path style="opacity:1" fill="#101125" d="M 1233.5,162.5 C 1225.44,165.564 1218.44,170.231 1212.5,176.5C 1209.17,177.833 1206.83,180.167 1205.5,183.5C 1196.23,197.764 1192.73,213.431 1195,230.5C 1195.71,231.381 1196.54,232.047 1197.5,232.5C 1195.71,233.391 1193.88,234.391 1192,235.5C 1191.51,233.866 1191.34,232.199 1191.5,230.5C 1190.42,214.725 1193.26,199.725 1200,185.5C 1208.94,173.068 1220.44,163.734 1234.5,157.5C 1236.22,158.668 1236.88,160.335 1236.5,162.5C 1235.5,162.5 1234.5,162.5 1233.5,162.5 Z"/></g>
<g><path style="opacity:1" fill="#0f1226" d="M 1219.5,220.5 C 1216.67,222.417 1213.67,224.083 1210.5,225.5C 1216.17,217.833 1222.83,211.167 1230.5,205.5C 1240.49,199.503 1250.82,194.003 1261.5,189C 1258.83,188.333 1256.17,188.333 1253.5,189C 1245.04,192.647 1236.54,196.147 1228,199.5C 1227.6,199.272 1227.43,198.938 1227.5,198.5C 1230.06,193.376 1232.06,188.043 1233.5,182.5C 1234.82,181.15 1235.82,181.317 1236.5,183C 1234.89,186.536 1234.23,190.036 1234.5,193.5C 1248.87,186.493 1263.87,182.493 1279.5,181.5C 1278.69,182.814 1277.69,183.981 1276.5,185C 1261.83,191.772 1247.5,199.105 1233.5,207C 1230.5,209.333 1227.5,211.667 1224.5,214C 1222.21,215.777 1220.54,217.944 1219.5,220.5 Z"/></g>
<g><path style="opacity:1" fill="#f0c152" d="M 1230.5,205.5 C 1228.57,204.19 1226.57,202.857 1224.5,201.5C 1225.55,200.452 1226.55,199.452 1227.5,198.5C 1227.43,198.938 1227.6,199.272 1228,199.5C 1236.54,196.147 1245.04,192.647 1253.5,189C 1256.17,188.333 1258.83,188.333 1261.5,189C 1250.82,194.003 1240.49,199.503 1230.5,205.5 Z"/></g>
<g><path style="opacity:1" fill="#fcf001" d="M 1280.5,296.5 C 1279.1,300.591 1278.27,304.924 1278,309.5C 1277.5,317.159 1277.33,324.826 1277.5,332.5C 1283.07,334.247 1288.74,335.581 1294.5,336.5C 1295.83,336.5 1297.17,336.5 1298.5,336.5C 1315.99,344.076 1331.65,354.409 1345.5,367.5C 1345.33,373.656 1348.33,376.323 1354.5,375.5C 1355.83,376.167 1356.83,377.167 1357.5,378.5C 1357.02,385.016 1360.02,388.349 1366.5,388.5C 1368.83,391.833 1371.17,395.167 1373.5,398.5C 1373.35,403.048 1375.18,406.381 1379,408.5C 1379.9,408.257 1380.74,407.923 1381.5,407.5C 1384.54,410.547 1387.88,413.213 1391.5,415.5C 1391.03,417.288 1390.7,419.122 1390.5,421C 1390.31,423.008 1390.97,424.508 1392.5,425.5C 1400.63,430.821 1409.46,434.488 1419,436.5C 1418.25,439.445 1416.42,441.778 1413.5,443.5C 1412.61,444.325 1412.28,445.325 1412.5,446.5C 1411.83,447.833 1410.83,448.833 1409.5,449.5C 1406.43,449.632 1403.43,449.299 1400.5,448.5C 1396.82,446.75 1392.82,446.083 1388.5,446.5C 1385.21,444.025 1381.55,442.358 1377.5,441.5C 1377.5,442.833 1377.5,444.167 1377.5,445.5C 1377.5,446.5 1377.5,447.5 1377.5,448.5C 1362.54,450.704 1348.88,456.038 1336.5,464.5C 1314.22,462.028 1294.56,453.528 1277.5,439C 1276.55,438.517 1275.55,438.351 1274.5,438.5C 1266.49,438.666 1258.49,438.5 1250.5,438C 1248.05,437.275 1245.72,436.275 1243.5,435C 1229.33,420.505 1218.83,403.672 1212,384.5C 1209.29,365.952 1211.95,348.285 1220,331.5C 1233.87,315.102 1243.53,296.435 1249,275.5C 1250.02,269.29 1249.52,263.29 1247.5,257.5C 1247.83,251.833 1245.17,249.167 1239.5,249.5C 1237.72,249.107 1236.05,248.441 1234.5,247.5C 1229.04,239.661 1225.71,230.994 1224.5,221.5C 1232.69,218.046 1241.03,214.879 1249.5,212C 1270.19,208.597 1285.02,216.43 1294,235.5C 1294.67,241.167 1294.67,246.833 1294,252.5C 1289.21,267.083 1284.71,281.75 1280.5,296.5 Z"/></g>
<g><path style="opacity:1" fill="#271f07" d="M 1261.5,220.5 C 1262.71,221.88 1262.37,223.047 1260.5,224C 1256.85,224.499 1253.18,224.665 1249.5,224.5C 1248.52,223.185 1247.52,221.852 1246.5,220.5C 1251.49,217.914 1256.49,217.914 1261.5,220.5 Z"/></g>
<g><path style="opacity:1" fill="#690539" d="M 1219.5,220.5 C 1220.17,220.5 1220.83,220.5 1221.5,220.5C 1222.61,220.557 1223.61,220.89 1224.5,221.5C 1225.71,230.994 1229.04,239.661 1234.5,247.5C 1233.66,247.842 1233.33,248.508 1233.5,249.5C 1229.19,247.679 1224.85,245.846 1220.5,244C 1214.29,242.979 1208.29,243.479 1202.5,245.5C 1200.42,245.971 1198.42,246.637 1196.5,247.5C 1195.17,247.833 1193.83,248.167 1192.5,248.5C 1189.58,247.705 1186.91,246.372 1184.5,244.5C 1185.76,243.618 1186.93,242.618 1188,241.5C 1189.03,237.667 1190.2,234.001 1191.5,230.5C 1191.34,232.199 1191.51,233.866 1192,235.5C 1193.88,234.391 1195.71,233.391 1197.5,232.5C 1201.99,230.421 1206.33,228.088 1210.5,225.5C 1213.67,224.083 1216.67,222.417 1219.5,220.5 Z"/></g>
<g><path style="opacity:1" fill="#a7971e" d="M 1261.5,220.5 C 1262.55,220.351 1263.55,220.517 1264.5,221C 1261.59,226.091 1257.26,227.757 1251.5,226C 1250.58,225.722 1249.92,225.222 1249.5,224.5C 1253.18,224.665 1256.85,224.499 1260.5,224C 1262.37,223.047 1262.71,221.88 1261.5,220.5 Z"/></g>
<g><path style="opacity:1" fill="#101428" d="M 1202.5,245.5 C 1200.71,248.259 1200.21,251.259 1201,254.5C 1210.03,269.081 1209.53,283.248 1199.5,297C 1197.63,297.711 1196.13,297.211 1195,295.5C 1194.1,289.119 1193.1,282.785 1192,276.5C 1187.89,282.391 1184.55,288.724 1182,295.5C 1177.29,302.589 1171.46,308.589 1164.5,313.5C 1164.03,300.304 1165.86,287.304 1170,274.5C 1174.76,267.407 1179.1,260.074 1183,252.5C 1184.58,251.139 1186.42,250.472 1188.5,250.5C 1187.12,252.978 1186.12,255.645 1185.5,258.5C 1182.45,260.549 1180.12,263.216 1178.5,266.5C 1174.98,270.881 1172.48,275.881 1171,281.5C 1168.9,289.476 1168.07,297.476 1168.5,305.5C 1177.75,297.9 1183.75,288.233 1186.5,276.5C 1189.04,274.06 1192.04,272.394 1195.5,271.5C 1195.96,278.889 1196.79,286.222 1198,293.5C 1204.27,285.453 1205.94,276.453 1203,266.5C 1201.26,262.016 1199.26,257.683 1197,253.5C 1196.5,251.527 1196.34,249.527 1196.5,247.5C 1198.42,246.637 1200.42,245.971 1202.5,245.5 Z"/></g>
<g><path style="opacity:1" fill="#f2c150" d="M 1239.5,249.5 C 1245.17,249.167 1247.83,251.833 1247.5,257.5C 1243.81,255.812 1241.14,253.145 1239.5,249.5 Z"/></g>
<g><path style="opacity:1" fill="#f3ea0a" d="M 1196.5,247.5 C 1196.34,249.527 1196.5,251.527 1197,253.5C 1199.26,257.683 1201.26,262.016 1203,266.5C 1205.94,276.453 1204.27,285.453 1198,293.5C 1196.79,286.222 1195.96,278.889 1195.5,271.5C 1192.87,267.638 1190.03,267.638 1187,271.5C 1186.51,273.134 1186.34,274.801 1186.5,276.5C 1183.75,288.233 1177.75,297.9 1168.5,305.5C 1168.07,297.476 1168.9,289.476 1171,281.5C 1172.48,275.881 1174.98,270.881 1178.5,266.5C 1184.02,266.849 1186.35,264.183 1185.5,258.5C 1186.12,255.645 1187.12,252.978 1188.5,250.5C 1190.15,250.34 1191.49,249.674 1192.5,248.5C 1193.83,248.167 1195.17,247.833 1196.5,247.5 Z"/></g>
<g><path style="opacity:1" fill="#f9c648" d="M 1185.5,258.5 C 1186.35,264.183 1184.02,266.849 1178.5,266.5C 1180.12,263.216 1182.45,260.549 1185.5,258.5 Z"/></g>
<g><path style="opacity:1" fill="#101225" d="M 1282.5,300.5 C 1280.82,299.817 1280.16,298.483 1280.5,296.5C 1284.71,281.75 1289.21,267.083 1294,252.5C 1294.67,246.833 1294.67,241.167 1294,235.5C 1285.02,216.43 1270.19,208.597 1249.5,212C 1241.03,214.879 1232.69,218.046 1224.5,221.5C 1223.61,220.89 1222.61,220.557 1221.5,220.5C 1232.87,213.658 1245.21,209.324 1258.5,207.5C 1271.65,208.156 1282.48,213.489 1291,223.5C 1297.03,231.914 1299.03,241.248 1297,251.5C 1292.24,267.935 1287.41,284.268 1282.5,300.5 Z"/></g>
<g><path style="opacity:1" fill="#f2c565" d="M 1195.5,271.5 C 1192.04,272.394 1189.04,274.06 1186.5,276.5C 1186.34,274.801 1186.51,273.134 1187,271.5C 1190.03,267.638 1192.87,267.638 1195.5,271.5 Z"/></g>
<g><path style="opacity:1" fill="#3c382f" d="M 1280.5,296.5 C 1280.16,298.483 1280.82,299.817 1282.5,300.5C 1281.47,310.174 1281.47,319.84 1282.5,329.5C 1287.05,331.11 1291.71,332.276 1296.5,333C 1295.69,334.113 1295.03,335.279 1294.5,336.5C 1288.74,335.581 1283.07,334.247 1277.5,332.5C 1277.33,324.826 1277.5,317.159 1278,309.5C 1278.27,304.924 1279.1,300.591 1280.5,296.5 Z"/></g>
<g><path style="opacity:1" fill="#9d8d28" d="M 1259.5,350.5 C 1257.86,350.714 1256.36,350.38 1255,349.5C 1254.5,354.489 1254.33,359.489 1254.5,364.5C 1253.73,363.737 1253.23,362.737 1253,361.5C 1252.5,357.179 1252.33,352.846 1252.5,348.5C 1255.39,347.99 1257.72,348.656 1259.5,350.5 Z"/></g>
<g><path style="opacity:1" fill="#111325" d="M 1412.5,446.5 C 1412.28,445.325 1412.61,444.325 1413.5,443.5C 1416.42,441.778 1418.25,439.445 1419,436.5C 1409.46,434.488 1400.63,430.821 1392.5,425.5C 1395.15,423.441 1395.98,420.775 1395,417.5C 1394.18,416.177 1393.02,415.511 1391.5,415.5C 1387.88,413.213 1384.54,410.547 1381.5,407.5C 1379.57,403.9 1376.9,400.9 1373.5,398.5C 1371.17,395.167 1368.83,391.833 1366.5,388.5C 1364.21,384.544 1361.21,381.211 1357.5,378.5C 1356.83,377.167 1355.83,376.167 1354.5,375.5C 1352.56,371.689 1349.56,369.022 1345.5,367.5C 1331.65,354.409 1315.99,344.076 1298.5,336.5C 1299.15,335.188 1300.15,334.188 1301.5,333.5C 1324.39,345.215 1344.89,360.215 1363,378.5C 1374.3,395.962 1388.46,410.628 1405.5,422.5C 1403.5,423.167 1401.5,423.833 1399.5,424.5C 1405.74,428.973 1412.74,431.807 1420.5,433C 1422.98,435.284 1423.15,437.784 1421,440.5C 1418.92,443.003 1417.08,445.669 1415.5,448.5C 1414.73,447.388 1413.73,446.721 1412.5,446.5 Z"/></g>
<g><path style="opacity:1" fill="#90802c" d="M 1259.5,356.5 C 1260.81,359.354 1261.81,362.354 1262.5,365.5C 1261.95,368.817 1261.61,372.15 1261.5,375.5C 1262.5,375.5 1263.5,375.5 1264.5,375.5C 1264.5,377.833 1264.5,380.167 1264.5,382.5C 1263.2,381.013 1262.03,379.346 1261,377.5C 1260.48,372.103 1259.64,366.769 1258.5,361.5C 1258.51,359.631 1258.84,357.964 1259.5,356.5 Z"/></g>
<g><path style="opacity:1" fill="#90802e" d="M 1254.5,365.5 C 1257.06,368.627 1258.06,372.294 1257.5,376.5C 1256.28,375.972 1255.11,375.305 1254,374.5C 1253.37,371.445 1253.53,368.445 1254.5,365.5 Z"/></g>
<g><path style="opacity:1" fill="#f5c054" d="M 1345.5,367.5 C 1349.56,369.022 1352.56,371.689 1354.5,375.5C 1348.33,376.323 1345.33,373.656 1345.5,367.5 Z"/></g>
<g><path style="opacity:1" fill="#fac048" d="M 1357.5,378.5 C 1361.21,381.211 1364.21,384.544 1366.5,388.5C 1360.02,388.349 1357.02,385.016 1357.5,378.5 Z"/></g>
<g><path style="opacity:1" fill="#111327" d="M 1234.5,247.5 C 1236.05,248.441 1237.72,249.107 1239.5,249.5C 1241.14,253.145 1243.81,255.812 1247.5,257.5C 1249.52,263.29 1250.02,269.29 1249,275.5C 1243.53,296.435 1233.87,315.102 1220,331.5C 1211.95,348.285 1209.29,365.952 1212,384.5C 1218.83,403.672 1229.33,420.505 1243.5,435C 1245.72,436.275 1248.05,437.275 1250.5,438C 1258.49,438.5 1266.49,438.666 1274.5,438.5C 1266.02,439.493 1257.35,439.826 1248.5,439.5C 1246.01,439.702 1243.68,439.202 1241.5,438C 1225.29,421.787 1214.13,402.621 1208,380.5C 1207.33,373.167 1207.33,365.833 1208,358.5C 1210.59,357.186 1211.09,355.186 1209.5,352.5C 1210.32,343.848 1213.15,335.848 1218,328.5C 1229.83,313.839 1238.83,297.506 1245,279.5C 1246.3,273.881 1246.63,268.214 1246,262.5C 1242.3,257.638 1238.14,253.304 1233.5,249.5C 1233.33,248.508 1233.66,247.842 1234.5,247.5 Z"/></g>
<g><path style="opacity:1" fill="#91841e" d="M 1264.5,395.5 C 1268.27,396.938 1270.61,399.605 1271.5,403.5C 1266.42,403.38 1264.09,400.713 1264.5,395.5 Z"/></g>
<g><path style="opacity:1" fill="#ecba46" d="M 1373.5,398.5 C 1376.9,400.9 1379.57,403.9 1381.5,407.5C 1380.74,407.923 1379.9,408.257 1379,408.5C 1375.18,406.381 1373.35,403.048 1373.5,398.5 Z"/></g>
<g><path style="opacity:1" fill="#261c04" d="M 1259.5,350.5 C 1259.5,352.5 1259.5,354.5 1259.5,356.5C 1258.84,357.964 1258.51,359.631 1258.5,361.5C 1259.64,366.769 1260.48,372.103 1261,377.5C 1262.03,379.346 1263.2,381.013 1264.5,382.5C 1267.11,387.611 1269.94,392.611 1273,397.5C 1278.17,401.333 1282.67,405.833 1286.5,411C 1292.18,415.349 1298.35,418.849 1305,421.5C 1307,420.167 1309,418.833 1311,417.5C 1314.31,419.323 1317.48,421.323 1320.5,423.5C 1321.44,423.392 1322.28,423.059 1323,422.5C 1323.23,420.22 1324.07,418.22 1325.5,416.5C 1328.23,419.956 1331.4,422.956 1335,425.5C 1337.15,424.68 1338.65,423.18 1339.5,421C 1341.2,420.616 1342.86,420.782 1344.5,421.5C 1344.61,422.117 1344.94,422.617 1345.5,423C 1343.29,425.037 1341.29,427.203 1339.5,429.5C 1311.8,434.483 1289.14,425.817 1271.5,403.5C 1270.61,399.605 1268.27,396.938 1264.5,395.5C 1260.23,389.938 1257.89,383.605 1257.5,376.5C 1258.06,372.294 1257.06,368.627 1254.5,365.5C 1254.5,365.167 1254.5,364.833 1254.5,364.5C 1254.33,359.489 1254.5,354.489 1255,349.5C 1256.36,350.38 1257.86,350.714 1259.5,350.5 Z"/></g>
<g><path style="opacity:1" fill="#f0c971" d="M 1391.5,415.5 C 1393.02,415.511 1394.18,416.177 1395,417.5C 1395.98,420.775 1395.15,423.441 1392.5,425.5C 1390.97,424.508 1390.31,423.008 1390.5,421C 1390.7,419.122 1391.03,417.288 1391.5,415.5 Z"/></g>
<g><path style="opacity:1" fill="#d3c11e" d="M 1344.5,421.5 C 1347.95,423.479 1348.28,425.979 1345.5,429C 1343.53,429.495 1341.53,429.662 1339.5,429.5C 1341.29,427.203 1343.29,425.037 1345.5,423C 1344.94,422.617 1344.61,422.117 1344.5,421.5 Z"/></g>
<g><path style="opacity:1" fill="#690139" d="M 1274.5,438.5 C 1275.55,438.351 1276.55,438.517 1277.5,439C 1294.56,453.528 1314.22,462.028 1336.5,464.5C 1338.5,464.5 1340.5,464.5 1342.5,464.5C 1344.27,476.036 1346.94,487.369 1350.5,498.5C 1343.28,504.706 1336.11,511.039 1329,517.5C 1322.94,525.222 1317.28,533.222 1312,541.5C 1314.32,547.144 1316.98,552.81 1320,558.5C 1320.74,559.574 1321.74,560.241 1323,560.5C 1338.92,555.73 1354.75,550.73 1370.5,545.5C 1374.48,548.325 1377.65,551.992 1380,556.5C 1395.16,574.874 1411.66,576.208 1429.5,560.5C 1435.08,569.816 1441.75,578.316 1449.5,586C 1473.5,586.333 1497.5,586.667 1521.5,587C 1549.95,593.778 1562.12,611.611 1558,640.5C 1552.72,659.615 1540.22,670.282 1520.5,672.5C 1475.17,672.5 1429.83,672.5 1384.5,672.5C 1384.7,670.011 1384.2,667.677 1383,665.5C 1377.63,659.9 1371.46,655.4 1364.5,652C 1355.09,644.664 1355.76,638.164 1366.5,632.5C 1386.03,643.094 1405.36,653.927 1424.5,665C 1431.46,668.375 1438.79,670.208 1446.5,670.5C 1446.83,666.116 1446.49,661.783 1445.5,657.5C 1439.51,654.84 1433.84,651.674 1428.5,648C 1412.71,634.278 1396.38,621.278 1379.5,609C 1364.5,599.61 1348.16,595.444 1330.5,596.5C 1318.05,596.478 1305.72,597.645 1293.5,600C 1287.94,601.504 1286.11,605.004 1288,610.5C 1290.46,613.965 1293.3,617.131 1296.5,620C 1307.47,626.402 1317.63,633.902 1327,642.5C 1328.63,644.917 1330.13,647.417 1331.5,650C 1335.33,651.746 1338.99,653.746 1342.5,656C 1349.45,662.133 1356.78,667.633 1364.5,672.5C 1329.17,672.5 1293.83,672.5 1258.5,672.5C 1258.82,667.968 1258.48,663.634 1257.5,659.5C 1237.47,629.639 1211.14,607.139 1178.5,592C 1167.23,590.007 1155.9,589.34 1144.5,590C 1137.94,590.964 1131.94,593.297 1126.5,597C 1121.72,600.573 1121.22,604.74 1125,609.5C 1130.4,616.286 1136.9,621.786 1144.5,626C 1156.14,637.975 1168.14,649.642 1180.5,661C 1185.64,664.904 1191.31,667.738 1197.5,669.5C 1202.35,670.814 1207.35,670.814 1212.5,669.5C 1212.38,668.893 1212.04,668.56 1211.5,668.5C 1210.09,666.02 1208.42,663.687 1206.5,661.5C 1213.19,656.957 1220.19,656.457 1227.5,660C 1234.79,664.169 1242.12,668.002 1249.5,671.5C 1228.19,672.455 1206.86,672.788 1185.5,672.5C 1159.5,672.5 1133.5,672.5 1107.5,672.5C 1069.17,672.5 1030.83,672.5 992.5,672.5C 967.898,664.025 956.731,646.692 959,620.5C 964.274,602.892 975.774,591.726 993.5,587C 1020.84,586.833 1048.17,586.333 1075.5,585.5C 1078.57,576.645 1081.07,567.645 1083,558.5C 1094.51,566.922 1106.51,574.588 1119,581.5C 1131.02,571.641 1142.69,561.308 1154,550.5C 1168.26,558.715 1182.76,566.548 1197.5,574C 1202,573.852 1206.17,572.352 1210,569.5C 1212.21,558.82 1214.38,548.153 1216.5,537.5C 1225.5,547.334 1235,556.668 1245,565.5C 1246.61,564.899 1247.94,563.899 1249,562.5C 1254.94,554.281 1261.1,546.281 1267.5,538.5C 1268.51,545.257 1269.84,551.924 1271.5,558.5C 1276.55,555.068 1281.05,551.068 1285,546.5C 1291.4,532.978 1296.4,518.978 1300,504.5C 1300.67,500.167 1300.67,495.833 1300,491.5C 1296.19,497.309 1291.69,502.476 1286.5,507C 1274.83,508.002 1263.83,505.669 1253.5,500C 1241.3,492.739 1229.3,485.239 1217.5,477.5C 1218.41,470.89 1216.91,464.89 1213,459.5C 1210.05,455.43 1206.55,451.93 1202.5,449C 1203.09,448.536 1203.76,448.369 1204.5,448.5C 1213,451.083 1220.66,455.249 1227.5,461C 1239.46,468.309 1252.46,471.476 1266.5,470.5C 1262.3,459.091 1256.3,448.758 1248.5,439.5C 1257.35,439.826 1266.02,439.493 1274.5,438.5 Z"/></g>
<g><path style="opacity:1" fill="#0f1327" d="M 1388.5,446.5 C 1391.96,450.7 1395.96,451.367 1400.5,448.5C 1403.43,449.299 1406.43,449.632 1409.5,449.5C 1410.06,450.79 1411.06,451.623 1412.5,452C 1402.98,454.735 1393.98,453.568 1385.5,448.5C 1384,449.752 1382.33,450.752 1380.5,451.5C 1379.48,449.406 1378.48,447.406 1377.5,445.5C 1377.5,444.167 1377.5,442.833 1377.5,441.5C 1381.55,442.358 1385.21,444.025 1388.5,446.5 Z"/></g>
<g><path style="opacity:1" fill="#a8a041" d="M 1388.5,446.5 C 1392.82,446.083 1396.82,446.75 1400.5,448.5C 1395.96,451.367 1391.96,450.7 1388.5,446.5 Z"/></g>
<g><path style="opacity:1" fill="#0f1227" d="M 1204.5,448.5 C 1203.76,448.369 1203.09,448.536 1202.5,449C 1206.55,451.93 1210.05,455.43 1213,459.5C 1216.91,464.89 1218.41,470.89 1217.5,477.5C 1213.01,493.835 1202.67,505.002 1186.5,511C 1173.28,516.127 1159.61,517.794 1145.5,516C 1126.39,510.914 1118.55,498.747 1122,479.5C 1128.29,465.879 1138.46,456.379 1152.5,451C 1164.01,445.954 1176.01,444.287 1188.5,446C 1193.96,446.945 1199.29,447.778 1204.5,448.5 Z"/></g>
<g><path style="opacity:1" fill="#fcf005" d="M 1203.5,455.5 C 1204.04,460.376 1206.71,463.376 1211.5,464.5C 1213.95,466.684 1214.95,469.517 1214.5,473C 1213.34,483.506 1208.68,492.173 1200.5,499C 1180.92,513.82 1159.58,517.153 1136.5,509C 1121.79,498.739 1119.62,486.239 1130,471.5C 1149.1,450.6 1172.26,444.1 1199.5,452C 1201.35,452.69 1202.68,453.856 1203.5,455.5 Z"/></g>
<g><path style="opacity:1" fill="#121325" d="M 1377.5,448.5 C 1377.43,450.411 1376.43,451.578 1374.5,452C 1363.01,454.324 1352.35,458.49 1342.5,464.5C 1340.5,464.5 1338.5,464.5 1336.5,464.5C 1348.88,456.038 1362.54,450.704 1377.5,448.5 Z"/></g>
<g><path style="opacity:1" fill="#f8c354" d="M 1203.5,455.5 C 1208.29,456.624 1210.96,459.624 1211.5,464.5C 1206.71,463.376 1204.04,460.376 1203.5,455.5 Z"/></g>
<g><path style="opacity:1" fill="#04a9e6" d="M 1257.5,659.5 C 1257.5,663.5 1257.5,667.5 1257.5,671.5C 1254.83,671.5 1252.17,671.5 1249.5,671.5C 1242.12,668.002 1234.79,664.169 1227.5,660C 1220.19,656.457 1213.19,656.957 1206.5,661.5C 1208.42,663.687 1210.09,666.02 1211.5,668.5C 1207.03,669.486 1202.36,669.819 1197.5,669.5C 1191.31,667.738 1185.64,664.904 1180.5,661C 1168.14,649.642 1156.14,637.975 1144.5,626C 1136.9,621.786 1130.4,616.286 1125,609.5C 1121.22,604.74 1121.72,600.573 1126.5,597C 1131.94,593.297 1137.94,590.964 1144.5,590C 1155.9,589.34 1167.23,590.007 1178.5,592C 1211.14,607.139 1237.47,629.639 1257.5,659.5 Z"/></g>
<g><path style="opacity:1" fill="#06a9e6" d="M 1384.5,672.5 C 1377.83,672.5 1371.17,672.5 1364.5,672.5C 1356.78,667.633 1349.45,662.133 1342.5,656C 1338.99,653.746 1335.33,651.746 1331.5,650C 1330.13,647.417 1328.63,644.917 1327,642.5C 1317.63,633.902 1307.47,626.402 1296.5,620C 1293.3,617.131 1290.46,613.965 1288,610.5C 1286.11,605.004 1287.94,601.504 1293.5,600C 1305.72,597.645 1318.05,596.478 1330.5,596.5C 1348.16,595.444 1364.5,599.61 1379.5,609C 1396.38,621.278 1412.71,634.278 1428.5,648C 1433.84,651.674 1439.51,654.84 1445.5,657.5C 1446.49,661.783 1446.83,666.116 1446.5,670.5C 1438.79,670.208 1431.46,668.375 1424.5,665C 1405.36,653.927 1386.03,643.094 1366.5,632.5C 1355.76,638.164 1355.09,644.664 1364.5,652C 1371.46,655.4 1377.63,659.9 1383,665.5C 1384.2,667.677 1384.7,670.011 1384.5,672.5 Z"/></g>
<g><path style="opacity:1" fill="#06a8e5" d="M 1016.5,601.5 C 1027.13,600.207 1037.13,602.04 1046.5,607C 1053.97,614.288 1060.97,621.954 1067.5,630C 1075.66,634.15 1082.66,639.817 1088.5,647C 1094.56,649.729 1099.4,653.896 1103,659.5C 1104.54,664.12 1103.04,667.287 1098.5,669C 1088.52,670.255 1079.52,667.922 1071.5,662C 1065.83,656.333 1060.17,650.667 1054.5,645C 1045.85,640.391 1037.18,640.391 1028.5,645C 1025.69,648.294 1026.02,651.294 1029.5,654C 1033.93,656.529 1038.59,658.362 1043.5,659.5C 1043.5,662.167 1043.5,664.833 1043.5,667.5C 1039.91,668.457 1036.24,669.124 1032.5,669.5C 1029.74,669.458 1027.07,668.958 1024.5,668C 1017.29,661.785 1009.79,655.951 1002,650.5C 994.261,630.233 999.094,613.9 1016.5,601.5 Z"/></g>
<g><path style="opacity:1" fill="#11a6e3" d="M 1496.5,602.5 C 1512.48,604.96 1519.48,614.127 1517.5,630C 1510.68,631.945 1505.18,630.112 1501,624.5C 1497.87,620.571 1495.54,616.237 1494,611.5C 1493.13,608.007 1493.96,605.007 1496.5,602.5 Z"/></g>
<g><path style="opacity:1" fill="#493d73" d="M 1211.5,668.5 C 1212.04,668.56 1212.38,668.893 1212.5,669.5C 1207.35,670.814 1202.35,670.814 1197.5,669.5C 1202.36,669.819 1207.03,669.486 1211.5,668.5 Z"/></g>
<g><path style="opacity:1" fill="#ba7f72" d="M 1257.5,659.5 C 1258.48,663.634 1258.82,667.968 1258.5,672.5C 1293.83,672.5 1329.17,672.5 1364.5,672.5C 1371.17,672.5 1377.83,672.5 1384.5,672.5C 1429.83,672.5 1475.17,672.5 1520.5,672.5C 1520.5,672.833 1520.5,673.167 1520.5,673.5C 1506.5,673.5 1492.5,673.5 1478.5,673.5C 1471.5,673.5 1464.5,673.5 1457.5,673.5C 1428.17,673.5 1398.83,673.5 1369.5,673.5C 1310.5,673.5 1251.5,673.5 1192.5,673.5C 1189.94,673.802 1187.61,673.468 1185.5,672.5C 1206.86,672.788 1228.19,672.455 1249.5,671.5C 1252.17,671.5 1254.83,671.5 1257.5,671.5C 1257.5,667.5 1257.5,663.5 1257.5,659.5 Z"/></g>
<g><path style="opacity:1" fill="#fcba2f" d="M 992.5,672.5 C 1030.83,672.5 1069.17,672.5 1107.5,672.5C 1107.24,676.853 1106.74,681.187 1106,685.5C 1103.66,686.127 1101.49,687.127 1099.5,688.5C 1100.63,689.262 1101.79,689.929 1103,690.5C 1103.2,694.753 1103.7,698.92 1104.5,703C 1001,703.167 897.666,703.667 794.5,704.5C 792.5,704.5 790.5,704.5 788.5,704.5C 788.5,732.167 788.5,759.833 788.5,787.5C 788.5,852.5 788.5,917.5 788.5,982.5C 788.5,982.833 788.5,983.167 788.5,983.5C 788.5,983.833 788.5,984.167 788.5,984.5C 788.357,1115.5 788.857,1246.5 790,1377.5C 790.249,1398.73 792.416,1419.73 796.5,1440.5C 804.833,1440.5 813.167,1440.5 821.5,1440.5C 821.17,1419.99 821.503,1399.66 822.5,1379.5C 822.667,1400.17 822.5,1420.84 822,1441.5C 813.585,1442.48 805.085,1442.82 796.5,1442.5C 801.977,1474.41 811.477,1505.07 825,1534.5C 840.756,1535.49 856.589,1535.82 872.5,1535.5C 857.328,1536.17 841.995,1536.83 826.5,1537.5C 845.439,1576.25 869.272,1611.58 898,1643.5C 912.395,1658.06 926.895,1672.4 941.5,1686.5C 940.356,1690.96 939.69,1695.63 939.5,1700.5C 940.675,1700.28 941.675,1700.61 942.5,1701.5C 940.808,1703.36 939.308,1705.36 938,1707.5C 937.503,1709.81 937.337,1712.14 937.5,1714.5C 940.727,1714.78 943.393,1716.11 945.5,1718.5C 943.667,1718.83 941.833,1719.17 940,1719.5C 935.814,1719.06 931.981,1718.39 928.5,1717.5C 862.659,1663.5 814.159,1596.83 783,1517.5C 764.054,1464.16 755.388,1409.16 757,1352.5C 756.325,1125.83 756.659,899.165 758,672.5C 836.097,671.915 914.263,671.915 992.5,672.5 Z"/></g>
<g><path style="opacity:1" fill="#fbbc3f" d="M 1107.5,672.5 C 1133.5,672.5 1159.5,672.5 1185.5,672.5C 1187.61,673.468 1189.94,673.802 1192.5,673.5C 1207.32,674.496 1222.32,674.829 1237.5,674.5C 1238.29,681.471 1238.62,688.471 1238.5,695.5C 1235.94,695.39 1233.61,696.056 1231.5,697.5C 1232.98,699.483 1234.65,701.316 1236.5,703C 1231.98,703.175 1227.65,703.675 1223.5,704.5C 1080.5,704.5 937.5,704.5 794.5,704.5C 897.666,703.667 1001,703.167 1104.5,703C 1103.7,698.92 1103.2,694.753 1103,690.5C 1101.79,689.929 1100.63,689.262 1099.5,688.5C 1101.49,687.127 1103.66,686.127 1106,685.5C 1106.74,681.187 1107.24,676.853 1107.5,672.5 Z"/></g>
<g><path style="opacity:1" fill="#fdd081" d="M 1192.5,673.5 C 1251.5,673.5 1310.5,673.5 1369.5,673.5C 1370.92,674.451 1372.59,674.784 1374.5,674.5C 1375.18,682.152 1374.02,689.485 1371,696.5C 1370.5,699.146 1370.34,701.813 1370.5,704.5C 1349.5,704.5 1328.5,704.5 1307.5,704.5C 1309.18,694.478 1310.84,684.478 1312.5,674.5C 1287.5,674.5 1262.5,674.5 1237.5,674.5C 1222.32,674.829 1207.32,674.496 1192.5,673.5 Z"/></g>
<g><path style="opacity:1" fill="#fedd9e" d="M 1374.5,674.5 C 1380.83,674.5 1387.17,674.5 1393.5,674.5C 1394.1,684.773 1392.76,694.773 1389.5,704.5C 1383.17,704.5 1376.83,704.5 1370.5,704.5C 1370.34,701.813 1370.5,699.146 1371,696.5C 1374.02,689.485 1375.18,682.152 1374.5,674.5 Z"/></g>
<g><path style="opacity:1" fill="#ffe2af" d="M 1393.5,674.5 C 1400.17,674.5 1406.83,674.5 1413.5,674.5C 1412.13,684.628 1410.13,694.628 1407.5,704.5C 1401.5,704.5 1395.5,704.5 1389.5,704.5C 1392.76,694.773 1394.1,684.773 1393.5,674.5 Z"/></g>
<g><path style="opacity:1" fill="#fce5bd" d="M 1369.5,673.5 C 1398.83,673.5 1428.17,673.5 1457.5,673.5C 1457.5,673.833 1457.5,674.167 1457.5,674.5C 1448.81,674.169 1440.14,674.502 1431.5,675.5C 1429.27,683.716 1427.44,692.05 1426,700.5C 1425.34,701.984 1424.5,703.317 1423.5,704.5C 1418.17,704.5 1412.83,704.5 1407.5,704.5C 1410.13,694.628 1412.13,684.628 1413.5,674.5C 1406.83,674.5 1400.17,674.5 1393.5,674.5C 1387.17,674.5 1380.83,674.5 1374.5,674.5C 1372.59,674.784 1370.92,674.451 1369.5,673.5 Z"/></g>
<g><path style="opacity:1" fill="#fef1d9" d="M 1457.5,674.5 C 1456.01,684.44 1454.67,694.44 1453.5,704.5C 1443.5,704.5 1433.5,704.5 1423.5,704.5C 1424.5,703.317 1425.34,701.984 1426,700.5C 1427.44,692.05 1429.27,683.716 1431.5,675.5C 1440.14,674.502 1448.81,674.169 1457.5,674.5 Z"/></g>
<g><path style="opacity:1" fill="#fee6be" d="M 1478.5,674.5 C 1478.5,674.167 1478.5,673.833 1478.5,673.5C 1492.5,673.5 1506.5,673.5 1520.5,673.5C 1519.93,683.946 1518.59,694.279 1516.5,704.5C 1505.83,704.5 1495.17,704.5 1484.5,704.5C 1487.43,694.752 1489.1,684.752 1489.5,674.5C 1485.83,674.5 1482.17,674.5 1478.5,674.5 Z"/></g>
<g><path style="opacity:1" fill="#fedda2" d="M 1520.5,673.5 C 1526.5,673.5 1532.5,673.5 1538.5,673.5C 1539.05,676.116 1539.39,678.783 1539.5,681.5C 1538.12,689.101 1537.45,696.768 1537.5,704.5C 1530.5,704.5 1523.5,704.5 1516.5,704.5C 1518.59,694.279 1519.93,683.946 1520.5,673.5 Z"/></g>
<g><path style="opacity:1" fill="#fdc660" d="M 1237.5,674.5 C 1262.5,674.5 1287.5,674.5 1312.5,674.5C 1310.84,684.478 1309.18,694.478 1307.5,704.5C 1279.5,704.5 1251.5,704.5 1223.5,704.5C 1227.65,703.675 1231.98,703.175 1236.5,703C 1234.65,701.316 1232.98,699.483 1231.5,697.5C 1233.61,696.056 1235.94,695.39 1238.5,695.5C 1238.62,688.471 1238.29,681.471 1237.5,674.5 Z"/></g>
<g><path style="opacity:1" fill="#fefbf7" d="M 1457.5,673.5 C 1464.5,673.5 1471.5,673.5 1478.5,673.5C 1478.5,673.833 1478.5,674.167 1478.5,674.5C 1476.27,684.409 1474.61,694.409 1473.5,704.5C 1466.83,704.5 1460.17,704.5 1453.5,704.5C 1454.67,694.44 1456.01,684.44 1457.5,674.5C 1457.5,674.167 1457.5,673.833 1457.5,673.5 Z"/></g>
<g><path style="opacity:1" fill="#fed58b" d="M 1538.5,673.5 C 1559.17,673.5 1579.83,673.5 1600.5,673.5C 1596.37,674.485 1592.03,674.818 1587.5,674.5C 1579.83,674.5 1572.17,674.5 1564.5,674.5C 1561.87,684.337 1560.21,694.337 1559.5,704.5C 1552.17,704.5 1544.83,704.5 1537.5,704.5C 1537.45,696.768 1538.12,689.101 1539.5,681.5C 1539.39,678.783 1539.05,676.116 1538.5,673.5 Z"/></g>
<g><path style="opacity:1" fill="#fece79" d="M 1587.5,674.5 C 1588.6,678.747 1588.77,683.08 1588,687.5C 1586.89,693.201 1585.73,698.868 1584.5,704.5C 1576.17,704.5 1567.83,704.5 1559.5,704.5C 1560.21,694.337 1561.87,684.337 1564.5,674.5C 1572.17,674.5 1579.83,674.5 1587.5,674.5 Z"/></g>
<g><path style="opacity:1" fill="#fac45b" d="M 1600.5,673.5 C 1656.67,673.168 1712.67,673.501 1768.5,674.5C 1725.66,674.168 1683,674.501 1640.5,675.5C 1638.17,684.84 1635.83,694.173 1633.5,703.5C 1664.17,703.5 1694.83,703.5 1725.5,703.5C 1727.1,703.232 1728.43,703.566 1729.5,704.5C 1681.17,704.5 1632.83,704.5 1584.5,704.5C 1585.73,698.868 1586.89,693.201 1588,687.5C 1588.77,683.08 1588.6,678.747 1587.5,674.5C 1592.03,674.818 1596.37,674.485 1600.5,673.5 Z"/></g>
<g><path style="opacity:1" fill="#febf41" d="M 1640.5,675.5 C 1667.5,675.5 1694.5,675.5 1721.5,675.5C 1721.2,680.43 1721.53,685.263 1722.5,690C 1720.53,690.495 1718.53,690.662 1716.5,690.5C 1716.3,692.989 1716.8,695.323 1718,697.5C 1720.48,699.639 1722.98,701.639 1725.5,703.5C 1694.83,703.5 1664.17,703.5 1633.5,703.5C 1635.83,694.173 1638.17,684.84 1640.5,675.5 Z"/></g>
<g><path style="opacity:1" fill="#faba31" d="M 1640.5,675.5 C 1683,674.501 1725.66,674.168 1768.5,674.5C 1767.81,895.848 1765.64,1117.18 1762,1338.5C 1767.91,1466.82 1727.57,1577.82 1641,1671.5C 1600.9,1713.81 1556.06,1749.81 1506.5,1779.5C 1504.72,1778.25 1502.89,1778.25 1501,1779.5C 1498.37,1778.79 1495.87,1777.79 1493.5,1776.5C 1494.63,1775.74 1495.79,1775.07 1497,1774.5C 1497.83,1768.83 1498.67,1763.17 1499.5,1757.5C 1499.41,1755.77 1499.08,1754.11 1498.5,1752.5C 1500.92,1750.87 1503.59,1749.54 1506.5,1748.5C 1504.05,1747.13 1502.71,1745.46 1502.5,1743.5C 1551.51,1712.36 1595.68,1675.02 1635,1631.5C 1657.33,1605.16 1676.5,1576.66 1692.5,1546C 1674.66,1545.83 1657,1545.33 1639.5,1544.5C 1657.74,1544.83 1675.91,1544.49 1694,1543.5C 1707.65,1515.73 1717.81,1486.73 1724.5,1456.5C 1715.52,1455.5 1706.52,1455.17 1697.5,1455.5C 1697.5,1455.17 1697.5,1454.83 1697.5,1454.5C 1706.52,1454.83 1715.52,1454.5 1724.5,1453.5C 1726.58,1442.56 1728.41,1431.56 1730,1420.5C 1731.47,1275.18 1731.97,1129.84 1731.5,984.5C 1417.33,983.5 1103,983.167 788.5,983.5C 788.5,983.167 788.5,982.833 788.5,982.5C 1102.83,982.5 1417.17,982.5 1731.5,982.5C 1731.83,889.998 1731.5,797.665 1730.5,705.5C 1730.5,704.833 1730.17,704.5 1729.5,704.5C 1728.43,703.566 1727.1,703.232 1725.5,703.5C 1722.98,701.639 1720.48,699.639 1718,697.5C 1716.8,695.323 1716.3,692.989 1716.5,690.5C 1718.53,690.662 1720.53,690.495 1722.5,690C 1721.53,685.263 1721.2,680.43 1721.5,675.5C 1694.5,675.5 1667.5,675.5 1640.5,675.5 Z"/></g>
<g><path style="opacity:1" fill="#fff3e1" d="M 1478.5,674.5 C 1482.17,674.5 1485.83,674.5 1489.5,674.5C 1489.1,684.752 1487.43,694.752 1484.5,704.5C 1480.83,704.5 1477.17,704.5 1473.5,704.5C 1474.61,694.409 1476.27,684.409 1478.5,674.5 Z"/></g>
<g><path style="opacity:1" fill="#6c6154" d="M 794.5,704.5 C 937.5,704.5 1080.5,704.5 1223.5,704.5C 1251.5,704.5 1279.5,704.5 1307.5,704.5C 1328.5,704.5 1349.5,704.5 1370.5,704.5C 1376.83,704.5 1383.17,704.5 1389.5,704.5C 1395.5,704.5 1401.5,704.5 1407.5,704.5C 1412.83,704.5 1418.17,704.5 1423.5,704.5C 1433.5,704.5 1443.5,704.5 1453.5,704.5C 1460.17,704.5 1466.83,704.5 1473.5,704.5C 1477.17,704.5 1480.83,704.5 1484.5,704.5C 1495.17,704.5 1505.83,704.5 1516.5,704.5C 1523.5,704.5 1530.5,704.5 1537.5,704.5C 1544.83,704.5 1552.17,704.5 1559.5,704.5C 1567.83,704.5 1576.17,704.5 1584.5,704.5C 1632.83,704.5 1681.17,704.5 1729.5,704.5C 1730.17,704.5 1730.5,704.833 1730.5,705.5C 1581.83,705.5 1433.17,705.5 1284.5,705.5C 1119.5,705.5 954.5,705.5 789.5,705.5C 789.5,719.833 789.5,734.167 789.5,748.5C 789.829,761.677 789.495,774.677 788.5,787.5C 788.5,759.833 788.5,732.167 788.5,704.5C 790.5,704.5 792.5,704.5 794.5,704.5 Z"/></g>
<g><path style="opacity:1" fill="#242337" d="M 1284.5,705.5 C 1120,706.5 955.334,706.833 790.5,706.5C 790.829,720.677 790.496,734.677 789.5,748.5C 789.5,734.167 789.5,719.833 789.5,705.5C 954.5,705.5 1119.5,705.5 1284.5,705.5 Z"/></g>
<g><path style="opacity:1" fill="#000525" d="M 1284.5,705.5 C 1433.17,705.5 1581.83,705.5 1730.5,705.5C 1731.5,797.665 1731.83,889.998 1731.5,982.5C 1417.17,982.5 1102.83,982.5 788.5,982.5C 788.5,917.5 788.5,852.5 788.5,787.5C 789.495,774.677 789.829,761.677 789.5,748.5C 790.496,734.677 790.829,720.677 790.5,706.5C 955.334,706.833 1120,706.5 1284.5,705.5 Z"/></g>
<g><path style="opacity:1" fill="#fbef06" d="M 1048.5,785.5 C 1061.82,784.694 1075.15,784.361 1088.5,784.5C 1094.59,784.808 1099.76,787.141 1104,791.5C 1104.6,795.053 1103.93,798.386 1102,801.5C 1091.44,813.054 1078.94,821.888 1064.5,828C 1074.79,833.73 1084.29,840.564 1093,848.5C 1100.38,855.315 1100.21,861.815 1092.5,868C 1087.07,870.365 1081.41,871.699 1075.5,872C 1066.17,872.667 1056.83,872.667 1047.5,872C 1035.81,870.913 1024.14,869.747 1012.5,868.5C 1012.34,871.187 1012.5,873.854 1013,876.5C 1019.75,888.996 1026.75,901.329 1034,913.5C 1035.91,916.298 1036.91,919.298 1037,922.5C 1035.18,925.991 1032.35,927.157 1028.5,926C 1023.93,919.092 1019.77,911.926 1016,904.5C 1013.91,901.319 1011.57,898.319 1009,895.5C 1006.3,908.283 1001.63,920.283 995,931.5C 992.167,934.333 989.333,937.167 986.5,940C 976.575,944.646 968.075,942.812 961,934.5C 957.828,930.159 955.161,925.492 953,920.5C 950.725,913.674 948.058,907.007 945,900.5C 939.586,910.331 933.919,919.998 928,929.5C 921.471,930.972 918.804,928.305 920,921.5C 927,909.167 934,896.833 941,884.5C 941.767,880.442 941.6,876.442 940.5,872.5C 939.5,872.167 938.5,871.833 937.5,871.5C 918.518,875.269 899.351,877.602 880,878.5C 871.748,879.145 863.915,877.645 856.5,874C 852.212,870.229 851.379,865.729 854,860.5C 866.364,847.973 880.531,837.973 896.5,830.5C 883.197,824.604 871.364,816.604 861,806.5C 852.275,794.42 855.442,786.92 870.5,784C 895.394,781.723 920.061,783.223 944.5,788.5C 945.008,785.824 945.175,783.157 945,780.5C 940.838,772.172 936.171,764.172 931,756.5C 929.201,752.93 927.701,749.263 926.5,745.5C 926.5,743.5 926.5,741.5 926.5,739.5C 928.011,737.559 930.011,737.059 932.5,738C 938.96,747.082 944.794,756.582 950,766.5C 954.056,758.217 959.223,750.717 965.5,744C 975.87,737.113 985.037,738.613 993,748.5C 997.655,754.15 1000.99,760.483 1003,767.5C 1003.69,768.357 1004.52,769.023 1005.5,769.5C 1010.83,761.322 1016,752.988 1021,744.5C 1024.33,740.5 1027.67,740.5 1031,744.5C 1031.67,745.833 1031.67,747.167 1031,748.5C 1024,761.167 1017,773.833 1010,786.5C 1009.23,788.955 1010.06,790.622 1012.5,791.5C 1024.33,788.418 1036.33,786.418 1048.5,785.5 Z"/></g>
<g><path style="opacity:1" fill="#f7ed07" d="M 1259.5,737.5 C 1266.19,738.025 1269.69,741.692 1270,748.5C 1269.84,769.156 1269.51,789.823 1269,810.5C 1265.7,814.165 1261.54,815.498 1256.5,814.5C 1253.92,793.283 1252.75,771.949 1253,750.5C 1254.13,745.582 1256.29,741.248 1259.5,737.5 Z"/></g>
<g><path style="opacity:1" fill="#fbef06" d="M 1611.5,786.5 C 1627.78,784.796 1644.11,784.129 1660.5,784.5C 1666.22,785.017 1671.05,787.35 1675,791.5C 1675.65,794.594 1675.32,797.594 1674,800.5C 1670.5,805.333 1666.33,809.5 1661.5,813C 1653.33,818.252 1645,823.252 1636.5,828C 1643.83,833 1651.17,838 1658.5,843C 1663.94,847.236 1667.6,852.569 1669.5,859C 1669.62,861.544 1668.78,863.711 1667,865.5C 1663.64,868.263 1659.81,870.097 1655.5,871C 1631.96,873.631 1608.62,872.464 1585.5,867.5C 1584.74,870.157 1584.07,872.823 1583.5,875.5C 1591.92,890.005 1600.09,904.672 1608,919.5C 1608.7,923.651 1606.86,925.984 1602.5,926.5C 1600.62,926.124 1599.12,925.124 1598,923.5C 1592.08,913.998 1586.41,904.331 1581,894.5C 1577.98,909.534 1571.98,923.201 1563,935.5C 1551.35,945.623 1540.69,944.623 1531,932.5C 1524.79,922.537 1520.12,911.87 1517,900.5C 1510.94,909.57 1505.27,918.903 1500,928.5C 1496.71,931.311 1493.71,930.978 1491,927.5C 1490.33,925.833 1490.33,924.167 1491,922.5C 1498.25,909.005 1505.75,895.671 1513.5,882.5C 1512.57,878.906 1512.24,875.24 1512.5,871.5C 1495.58,874.115 1478.58,876.282 1461.5,878C 1454.5,878.667 1447.5,878.667 1440.5,878C 1433.91,877.789 1428.41,875.289 1424,870.5C 1423.09,866.548 1423.76,862.881 1426,859.5C 1428.83,856.667 1431.67,853.833 1434.5,851C 1444.84,843.177 1455.84,836.343 1467.5,830.5C 1455.05,824.206 1443.55,816.54 1433,807.5C 1422.79,794.717 1425.96,786.883 1442.5,784C 1467,782.316 1491.34,783.816 1515.5,788.5C 1515.59,786.323 1516.25,784.323 1517.5,782.5C 1509.78,769.559 1502.45,756.393 1495.5,743C 1497.25,738.21 1500.42,736.71 1505,738.5C 1510.67,747.833 1516.33,757.167 1522,766.5C 1525.94,754.908 1533.11,746.075 1543.5,740C 1548.07,739.113 1552.41,739.78 1556.5,742C 1566.35,749.509 1572.85,759.342 1576,771.5C 1581.59,762.665 1586.92,753.665 1592,744.5C 1595.33,740.5 1598.67,740.5 1602,744.5C 1602.67,745.833 1602.67,747.167 1602,748.5C 1595.43,761.401 1588.43,774.068 1581,786.5C 1580.51,788.134 1580.34,789.801 1580.5,791.5C 1590.8,789.706 1601.14,788.039 1611.5,786.5 Z"/></g>
<g><path style="opacity:1" fill="#d8e585" d="M 2199.5,129.5 C 1565.67,130.5 931.667,130.833 297.5,130.5C 297.5,520.5 297.5,910.5 297.5,1300.5C 296.5,910.334 296.167,520 296.5,129.5C 930.833,129.5 1565.17,129.5 2199.5,129.5 Z"/></g>
<g><path style="opacity:1" fill="#898443" d="M 926.5,739.5 C 926.5,741.5 926.5,743.5 926.5,745.5C 924.748,745.582 923.748,744.749 923.5,743C 924.371,741.636 925.371,740.47 926.5,739.5 Z"/></g>
<g><path style="opacity:1" fill="#f6ee46" d="M 2201.5,130.5 C 2202.22,130.918 2202.72,131.584 2203,132.5C 2203.67,526.5 2203.67,920.5 2203,1314.5C 2202.83,1324.68 2202.33,1334.68 2201.5,1344.5C 2201.5,939.833 2201.5,535.167 2201.5,130.5 Z"/></g>
<g><path style="opacity:1" fill="#efe60a" d="M 1244.5,748.5 C 1245.66,750.855 1246.66,753.188 1247.5,755.5C 1248.63,774.802 1248.8,794.136 1248,813.5C 1244.41,816.53 1240.24,817.864 1235.5,817.5C 1234.12,812.585 1232.96,807.585 1232,802.5C 1231.33,789.5 1231.33,776.5 1232,763.5C 1232.53,756.087 1235.87,750.421 1242,746.5C 1243.3,746.639 1244.13,747.305 1244.5,748.5 Z"/></g>
<g><path style="opacity:1" fill="#f1e808" d="M 1282.5,747.5 C 1285.32,747.081 1287.49,748.081 1289,750.5C 1289.67,769.167 1289.67,787.833 1289,806.5C 1287.86,809.432 1287.02,812.432 1286.5,815.5C 1283.31,815.98 1280.48,815.314 1278,813.5C 1277.09,809.205 1276.42,804.872 1276,800.5C 1275.33,786.5 1275.33,772.5 1276,758.5C 1276.73,753.95 1278.89,750.284 1282.5,747.5 Z"/></g>
<g><path style="opacity:1" fill="#817d31" d="M 1244.5,748.5 C 1245.5,748.414 1246.33,748.748 1247,749.5C 1247.5,751.473 1247.66,753.473 1247.5,755.5C 1246.66,753.188 1245.66,750.855 1244.5,748.5 Z"/></g>
<g><path style="opacity:1" fill="#030624" d="M 1545.5,753.5 C 1551.94,752.971 1557.11,755.305 1561,760.5C 1564.87,766.241 1567.04,772.575 1567.5,779.5C 1554.15,779.833 1540.82,779.499 1527.5,778.5C 1529.75,767.281 1535.75,758.948 1545.5,753.5 Z"/></g>
<g><path style="opacity:1" fill="#020525" d="M 996.5,779.5 C 982.99,779.829 969.656,779.496 956.5,778.5C 958.125,765.55 965.125,757.216 977.5,753.5C 985.334,755.829 990.834,760.829 994,768.5C 994.737,772.207 995.571,775.873 996.5,779.5 Z"/></g>
<g><path style="opacity:1" fill="#faef06" d="M 1220.5,763.5 C 1222.17,763.751 1223.67,764.418 1225,765.5C 1225.82,767.788 1226.49,770.122 1227,772.5C 1227.67,783.833 1227.67,795.167 1227,806.5C 1225.67,811.401 1225.17,816.401 1225.5,821.5C 1215.87,822.381 1214.54,825.881 1221.5,832C 1222.87,832.875 1224.37,833.375 1226,833.5C 1242,830.235 1258.17,828.235 1274.5,827.5C 1281.09,826.423 1286.75,828.09 1291.5,832.5C 1289.98,834.858 1287.98,836.691 1285.5,838C 1273.62,840.402 1262.29,844.235 1251.5,849.5C 1250.03,861.243 1250.37,872.91 1252.5,884.5C 1253.82,884.67 1254.99,884.337 1256,883.5C 1256.33,875.833 1256.67,868.167 1257,860.5C 1257.69,857.804 1259.19,855.637 1261.5,854C 1270.87,848.823 1280.87,845.49 1291.5,844C 1293.96,842.688 1296.46,841.522 1299,840.5C 1298.72,830.51 1298.72,820.51 1299,810.5C 1299.66,805.84 1302.16,803.34 1306.5,803C 1309.26,807.179 1312.26,811.179 1315.5,815C 1316.79,815.49 1318.13,815.657 1319.5,815.5C 1318.74,835.817 1318.24,856.15 1318,876.5C 1313.24,892.6 1302.74,902.433 1286.5,906C 1280.83,910.205 1281.5,913.205 1288.5,915C 1291.49,923.358 1290.99,931.524 1287,939.5C 1279.06,940.574 1271.23,942.24 1263.5,944.5C 1252.98,942.026 1242.31,941.026 1231.5,941.5C 1232.06,932.016 1231.23,922.683 1229,913.5C 1224.92,908.751 1220.26,904.751 1215,901.5C 1210.56,878.701 1208.9,855.701 1210,832.5C 1211.83,813.848 1213.5,795.182 1215,776.5C 1216.16,771.829 1218,767.496 1220.5,763.5 Z"/></g>
<g><path style="opacity:1" fill="#847f14" d="M 956.5,778.5 C 969.656,779.496 982.99,779.829 996.5,779.5C 982.994,780.826 969.328,780.826 955.5,779.5C 955.624,778.893 955.957,778.56 956.5,778.5 Z"/></g>
<g><path style="opacity:1" fill="#989715" d="M 1088.5,784.5 C 1075.15,784.361 1061.82,784.694 1048.5,785.5C 1056.11,783.973 1063.94,783.307 1072,783.5C 1077.68,783.501 1083.18,783.834 1088.5,784.5 Z"/></g>
<g><path style="opacity:1" fill="#8f8e17" d="M 1660.5,784.5 C 1644.11,784.129 1627.78,784.796 1611.5,786.5C 1615.97,785.356 1620.64,784.523 1625.5,784C 1637.34,783.174 1649.01,783.341 1660.5,784.5 Z"/></g>
<g><path style="opacity:1" fill="#040725" d="M 978.5,860.5 C 987.58,861.883 996.58,863.716 1005.5,866C 1007.32,868.456 1007.99,871.289 1007.5,874.5C 996.177,876.165 984.843,877.831 973.5,879.5C 964.526,878.199 955.526,877.199 946.5,876.5C 946.5,873.833 946.5,871.167 946.5,868.5C 950.22,868.436 953.886,867.936 957.5,867C 964.603,864.76 971.603,862.593 978.5,860.5 Z"/></g>
<g><path style="opacity:1" fill="#060925" d="M 1571.5,864.5 C 1573.61,865.468 1575.94,865.802 1578.5,865.5C 1578.5,868.5 1578.5,871.5 1578.5,874.5C 1567.64,876.226 1556.81,877.893 1546,879.5C 1536.95,877.918 1527.78,877.251 1518.5,877.5C 1518.71,875.08 1518.37,872.747 1517.5,870.5C 1528.88,866.213 1540.55,862.879 1552.5,860.5C 1558.83,861.943 1565.16,863.276 1571.5,864.5 Z"/></g>
<g><path style="opacity:1" fill="#b1aa14" d="M 1571.5,864.5 C 1574.17,864.5 1576.83,864.5 1579.5,864.5C 1579.81,868.042 1579.48,871.375 1578.5,874.5C 1578.5,871.5 1578.5,868.5 1578.5,865.5C 1575.94,865.802 1573.61,865.468 1571.5,864.5 Z"/></g>
<g><path style="opacity:1" fill="#070925" d="M 1574.5,887.5 C 1575.03,895.239 1573.36,902.739 1569.5,910C 1555.17,913.303 1540.83,913.303 1526.5,910C 1523.29,903.225 1521.62,896.058 1521.5,888.5C 1539.34,892.592 1557.01,892.258 1574.5,887.5 Z"/></g>
<g><path style="opacity:1" fill="#020525" d="M 949.5,888.5 C 966.954,892.471 984.454,892.471 1002,888.5C 1002.83,888.833 1003.67,889.167 1004.5,889.5C 1003.06,896.525 1001.06,903.359 998.5,910C 983.872,911.775 969.206,911.941 954.5,910.5C 952.833,903.167 951.167,895.833 949.5,888.5 Z"/></g>
<g><path style="opacity:1" fill="#928e48" d="M 965.5,921.5 C 963.585,921.216 961.919,921.549 960.5,922.5C 959.711,922.217 959.044,921.717 958.5,921C 961.375,917.489 963.709,917.656 965.5,921.5 Z"/></g>
<g><path style="opacity:1" fill="#6c6e49" d="M 1537.5,921.5 C 1535.33,921.75 1533.66,922.75 1532.5,924.5C 1530.42,923.415 1530.08,921.915 1531.5,920C 1533.99,919.059 1535.99,919.559 1537.5,921.5 Z"/></g>
<g><path style="opacity:1" fill="#999137" d="M 1564.5,922.5 C 1563.43,921.566 1562.1,921.232 1560.5,921.5C 1561.55,919.744 1563.22,919.077 1565.5,919.5C 1565.74,920.791 1565.4,921.791 1564.5,922.5 Z"/></g>
<g><path style="opacity:1" fill="#0b0f27" d="M 960.5,922.5 C 961.919,921.549 963.585,921.216 965.5,921.5C 966.568,922.434 967.901,922.768 969.5,922.5C 972.017,923.973 974.85,924.64 978,924.5C 980.866,924.7 983.366,924.033 985.5,922.5C 988.546,921.816 991.546,921.316 994.5,921C 989.36,932.782 980.36,936.782 967.5,933C 964.784,929.729 962.451,926.229 960.5,922.5 Z"/></g>
<g><path style="opacity:1" fill="#3c4543" d="M 985.5,922.5 C 983.366,924.033 980.866,924.7 978,924.5C 974.85,924.64 972.017,923.973 969.5,922.5C 974.833,921.167 980.167,921.167 985.5,922.5 Z"/></g>
<g><path style="opacity:1" fill="#050a29" d="M 1537.5,921.5 C 1538.71,922.234 1540.04,922.567 1541.5,922.5C 1546.56,925.089 1551.56,925.089 1556.5,922.5C 1558.1,922.768 1559.43,922.434 1560.5,921.5C 1562.1,921.232 1563.43,921.566 1564.5,922.5C 1563.42,924.996 1562.09,927.33 1560.5,929.5C 1556.3,930.965 1551.97,931.965 1547.5,932.5C 1543.31,931.737 1539.31,930.404 1535.5,928.5C 1534.51,927.205 1533.51,925.872 1532.5,924.5C 1533.66,922.75 1535.33,921.75 1537.5,921.5 Z"/></g>
<g><path style="opacity:1" fill="#3f4844" d="M 1541.5,922.5 C 1546.35,921.381 1551.35,921.381 1556.5,922.5C 1551.56,925.089 1546.56,925.089 1541.5,922.5 Z"/></g>
<g><path style="opacity:1" fill="#3d403b" d="M 1535.5,928.5 C 1539.31,930.404 1543.31,931.737 1547.5,932.5C 1551.97,931.965 1556.3,930.965 1560.5,929.5C 1558.1,933.475 1554.43,935.141 1549.5,934.5C 1543.3,935.729 1538.64,933.729 1535.5,928.5 Z"/></g>
<g><path style="opacity:1" fill="#fffe01" d="M 788.5,984.5 C 788.5,984.167 788.5,983.833 788.5,983.5C 1103,983.167 1417.33,983.5 1731.5,984.5C 1417.37,984.502 1103.04,984.502 788.5,984.5 Z"/></g>
<g><path style="opacity:1" fill="#fef105" d="M 788.5,984.5 C 1103.04,984.502 1417.37,984.502 1731.5,984.5C 1731.97,1129.84 1731.47,1275.18 1730,1420.5C 1728.41,1431.56 1726.58,1442.56 1724.5,1453.5C 1715.52,1454.5 1706.52,1454.83 1697.5,1454.5C 1697.5,1430.17 1697.5,1405.83 1697.5,1381.5C 1674.5,1381.5 1651.5,1381.5 1628.5,1381.5C 1628.5,1361.17 1628.5,1340.83 1628.5,1320.5C 1607.17,1320.5 1585.83,1320.5 1564.5,1320.5C 1564.5,1296.83 1564.5,1273.17 1564.5,1249.5C 1544.83,1249.5 1525.17,1249.5 1505.5,1249.5C 1505.5,1228.5 1505.5,1207.5 1505.5,1186.5C 1485.01,1185.5 1464.34,1185.17 1443.5,1185.5C 1443.83,1167.33 1443.5,1149.33 1442.5,1131.5C 1420.67,1130.5 1398.67,1130.17 1376.5,1130.5C 1376.82,1122.98 1376.49,1115.65 1375.5,1108.5C 1375.5,1092.5 1375.5,1076.5 1375.5,1060.5C 1351.82,1060.83 1328.16,1060.5 1304.5,1059.5C 1291.18,1041.52 1277.52,1023.86 1263.5,1006.5C 1251.71,1023.91 1240.04,1041.41 1228.5,1059C 1203.53,1060.4 1178.53,1060.9 1153.5,1060.5C 1153.67,1082.5 1153.5,1104.5 1153,1126.5C 1152.62,1127.06 1152.12,1127.39 1151.5,1127.5C 1125.5,1127.5 1099.5,1127.5 1073.5,1127.5C 1073.5,1148.83 1073.5,1170.17 1073.5,1191.5C 1050.83,1191.5 1028.17,1191.5 1005.5,1191.5C 1005.5,1211.83 1005.5,1232.17 1005.5,1252.5C 983.167,1252.5 960.833,1252.5 938.5,1252.5C 938.5,1275.17 938.5,1297.83 938.5,1320.5C 915.833,1320.5 893.167,1320.5 870.5,1320.5C 870.5,1340.17 870.5,1359.83 870.5,1379.5C 854.5,1379.5 838.5,1379.5 822.5,1379.5C 821.503,1399.66 821.17,1419.99 821.5,1440.5C 813.167,1440.5 804.833,1440.5 796.5,1440.5C 792.416,1419.73 790.249,1398.73 790,1377.5C 788.857,1246.5 788.357,1115.5 788.5,984.5 Z"/></g>
<g><path style="opacity:1" fill="#690039" d="M 1375.5,1108.5 C 1375.5,1116.17 1375.5,1123.83 1375.5,1131.5C 1397.83,1131.5 1420.17,1131.5 1442.5,1131.5C 1442.5,1149.83 1442.5,1168.17 1442.5,1186.5C 1463.5,1186.5 1484.5,1186.5 1505.5,1186.5C 1505.5,1207.5 1505.5,1228.5 1505.5,1249.5C 1525.17,1249.5 1544.83,1249.5 1564.5,1249.5C 1564.5,1273.17 1564.5,1296.83 1564.5,1320.5C 1585.83,1320.5 1607.17,1320.5 1628.5,1320.5C 1628.5,1340.83 1628.5,1361.17 1628.5,1381.5C 1650.99,1382.5 1673.66,1382.83 1696.5,1382.5C 1696.17,1407.01 1696.5,1431.34 1697.5,1455.5C 1706.52,1455.17 1715.52,1455.5 1724.5,1456.5C 1717.81,1486.73 1707.65,1515.73 1694,1543.5C 1675.91,1544.49 1657.74,1544.83 1639.5,1544.5C 1639.5,1518.83 1639.5,1493.17 1639.5,1467.5C 1612.01,1466.5 1584.34,1466.17 1556.5,1466.5C 1556.5,1443.5 1556.5,1420.5 1556.5,1397.5C 1534.5,1397.5 1512.5,1397.5 1490.5,1397.5C 1490.5,1375.83 1490.5,1354.17 1490.5,1332.5C 1468.17,1332.5 1445.83,1332.5 1423.5,1332.5C 1423.5,1310.5 1423.5,1288.5 1423.5,1266.5C 1401.83,1266.5 1380.17,1266.5 1358.5,1266.5C 1358.5,1244.17 1358.5,1221.83 1358.5,1199.5C 1338.17,1199.5 1317.83,1199.5 1297.5,1199.5C 1297.5,1177.5 1297.5,1155.5 1297.5,1133.5C 1272.5,1133.5 1247.5,1133.5 1222.5,1133.5C 1222.5,1154.83 1222.5,1176.17 1222.5,1197.5C 1199.83,1197.5 1177.17,1197.5 1154.5,1197.5C 1154.5,1220.17 1154.5,1242.83 1154.5,1265.5C 1130.83,1265.5 1107.17,1265.5 1083.5,1265.5C 1083.5,1287.5 1083.5,1309.5 1083.5,1331.5C 1078.17,1331.5 1072.83,1331.5 1067.5,1331.5C 1050.5,1331.5 1033.5,1331.5 1016.5,1331.5C 1016.5,1350.5 1016.5,1369.5 1016.5,1388.5C 1016.5,1392.17 1016.5,1395.83 1016.5,1399.5C 992.5,1399.5 968.5,1399.5 944.5,1399.5C 944.5,1422.5 944.5,1445.5 944.5,1468.5C 923.167,1468.5 901.833,1468.5 880.5,1468.5C 880.5,1490.83 880.5,1513.17 880.5,1535.5C 877.833,1535.5 875.167,1535.5 872.5,1535.5C 856.589,1535.82 840.756,1535.49 825,1534.5C 811.477,1505.07 801.977,1474.41 796.5,1442.5C 805.085,1442.82 813.585,1442.48 822,1441.5C 822.5,1420.84 822.667,1400.17 822.5,1379.5C 838.5,1379.5 854.5,1379.5 870.5,1379.5C 870.5,1359.83 870.5,1340.17 870.5,1320.5C 893.167,1320.5 915.833,1320.5 938.5,1320.5C 938.5,1297.83 938.5,1275.17 938.5,1252.5C 960.833,1252.5 983.167,1252.5 1005.5,1252.5C 1005.5,1232.17 1005.5,1211.83 1005.5,1191.5C 1028.17,1191.5 1050.83,1191.5 1073.5,1191.5C 1074.5,1170.67 1074.83,1149.67 1074.5,1128.5C 1100.34,1128.83 1126.01,1128.5 1151.5,1127.5C 1152.12,1127.39 1152.62,1127.06 1153,1126.5C 1153.5,1104.5 1153.67,1082.5 1153.5,1060.5C 1178.53,1060.9 1203.53,1060.4 1228.5,1059C 1240.04,1041.41 1251.71,1023.91 1263.5,1006.5C 1277.52,1023.86 1291.18,1041.52 1304.5,1059.5C 1328.16,1060.5 1351.82,1060.83 1375.5,1060.5C 1375.5,1076.5 1375.5,1092.5 1375.5,1108.5 Z"/></g>
<g><path style="opacity:1" fill="#010525" d="M 1629.5,1020.5 C 1646.27,1047.87 1662.94,1075.37 1679.5,1103C 1663.42,1134.59 1647.09,1166.09 1630.5,1197.5C 1613.06,1166.73 1596.06,1135.73 1579.5,1104.5C 1595.66,1076.18 1612.33,1048.18 1629.5,1020.5 Z"/></g>
<g><path style="opacity:1" fill="#010525" d="M 907.5,1025.5 C 924.273,1052.87 940.94,1080.37 957.5,1108C 941.42,1139.74 924.92,1171.24 908,1202.5C 890.491,1171.5 873.658,1140.17 857.5,1108.5C 873.911,1080.68 890.578,1053.01 907.5,1025.5 Z"/></g>
<g><path style="opacity:1" fill="#984c29" d="M 1151.5,1127.5 C 1126.01,1128.5 1100.34,1128.83 1074.5,1128.5C 1074.83,1149.67 1074.5,1170.67 1073.5,1191.5C 1073.5,1170.17 1073.5,1148.83 1073.5,1127.5C 1099.5,1127.5 1125.5,1127.5 1151.5,1127.5 Z"/></g>
<g><path style="opacity:1" fill="#cea416" d="M 1375.5,1108.5 C 1376.49,1115.65 1376.82,1122.98 1376.5,1130.5C 1398.67,1130.17 1420.67,1130.5 1442.5,1131.5C 1420.17,1131.5 1397.83,1131.5 1375.5,1131.5C 1375.5,1123.83 1375.5,1116.17 1375.5,1108.5 Z"/></g>
<g><path style="opacity:1" fill="#fef105" d="M 1358.5,1266.5 C 1379.66,1267.5 1400.99,1267.83 1422.5,1267.5C 1422.17,1289.34 1422.5,1311.01 1423.5,1332.5C 1445.83,1332.5 1468.17,1332.5 1490.5,1332.5C 1490.5,1354.17 1490.5,1375.83 1490.5,1397.5C 1511.99,1398.5 1533.66,1398.83 1555.5,1398.5C 1555.5,1421.5 1555.5,1444.5 1555.5,1467.5C 1583.5,1467.5 1611.5,1467.5 1639.5,1467.5C 1639.5,1493.17 1639.5,1518.83 1639.5,1544.5C 1657,1545.33 1674.66,1545.83 1692.5,1546C 1676.5,1576.66 1657.33,1605.16 1635,1631.5C 1595.68,1675.02 1551.51,1712.36 1502.5,1743.5C 1481.29,1756.94 1459.62,1769.61 1437.5,1781.5C 1416.63,1791.89 1395.63,1801.89 1374.5,1811.5C 1357.77,1818.21 1341.1,1824.87 1324.5,1831.5C 1319.87,1832.6 1315.53,1834.26 1311.5,1836.5C 1304.82,1837.73 1298.49,1839.73 1292.5,1842.5C 1285.21,1844.26 1278.21,1846.6 1271.5,1849.5C 1264.57,1851.55 1257.57,1851.88 1250.5,1850.5C 1245.37,1848.46 1240.03,1846.79 1234.5,1845.5C 1227.05,1842.46 1219.38,1839.79 1211.5,1837.5C 1205.07,1834.8 1198.4,1832.47 1191.5,1830.5C 1177.58,1824.85 1163.58,1819.19 1149.5,1813.5C 1133.57,1806.2 1117.57,1798.87 1101.5,1791.5C 1090.91,1785.85 1080.24,1780.18 1069.5,1774.5C 1058.2,1767.85 1046.87,1761.18 1035.5,1754.5C 1002.79,1733.8 971.457,1711.14 941.5,1686.5C 926.895,1672.4 912.395,1658.06 898,1643.5C 869.272,1611.58 845.439,1576.25 826.5,1537.5C 841.995,1536.83 857.328,1536.17 872.5,1535.5C 875.167,1535.5 877.833,1535.5 880.5,1535.5C 880.5,1513.17 880.5,1490.83 880.5,1468.5C 901.833,1468.5 923.167,1468.5 944.5,1468.5C 944.5,1445.5 944.5,1422.5 944.5,1399.5C 968.5,1399.5 992.5,1399.5 1016.5,1399.5C 1016.5,1395.83 1016.5,1392.17 1016.5,1388.5C 1017.5,1370.01 1017.83,1351.34 1017.5,1332.5C 1034.34,1332.83 1051.01,1332.5 1067.5,1331.5C 1072.83,1331.5 1078.17,1331.5 1083.5,1331.5C 1083.5,1309.5 1083.5,1287.5 1083.5,1265.5C 1107.17,1265.5 1130.83,1265.5 1154.5,1265.5C 1154.5,1242.83 1154.5,1220.17 1154.5,1197.5C 1177.17,1197.5 1199.83,1197.5 1222.5,1197.5C 1222.5,1176.17 1222.5,1154.83 1222.5,1133.5C 1247.5,1133.5 1272.5,1133.5 1297.5,1133.5C 1297.5,1155.5 1297.5,1177.5 1297.5,1199.5C 1317.83,1199.5 1338.17,1199.5 1358.5,1199.5C 1358.5,1221.83 1358.5,1244.17 1358.5,1266.5 Z"/></g>
<g><path style="opacity:1" fill="#d9b712" d="M 1442.5,1131.5 C 1443.5,1149.33 1443.83,1167.33 1443.5,1185.5C 1464.34,1185.17 1485.01,1185.5 1505.5,1186.5C 1484.5,1186.5 1463.5,1186.5 1442.5,1186.5C 1442.5,1168.17 1442.5,1149.83 1442.5,1131.5 Z"/></g>
<g><path style="opacity:1" fill="#e1c30f" d="M 1358.5,1266.5 C 1380.17,1266.5 1401.83,1266.5 1423.5,1266.5C 1423.5,1288.5 1423.5,1310.5 1423.5,1332.5C 1422.5,1311.01 1422.17,1289.34 1422.5,1267.5C 1400.99,1267.83 1379.66,1267.5 1358.5,1266.5 Z"/></g>
<g><path style="opacity:1" fill="#f9ba2f" d="M 520.5,1282.5 C 538.555,1280.8 554.888,1285.3 569.5,1296C 589.625,1310.45 603.792,1329.28 612,1352.5C 613.05,1375.1 611.05,1397.44 606,1419.5C 605.295,1438.18 605.461,1456.85 606.5,1475.5C 629.101,1477.66 651.101,1482.49 672.5,1490C 690.947,1498.78 706.78,1510.95 720,1526.5C 727.025,1536.75 729.858,1548.08 728.5,1560.5C 727.942,1588.35 724.608,1615.85 718.5,1643C 718.645,1643.77 718.978,1644.44 719.5,1645C 761.63,1662.72 800.963,1685.06 837.5,1712C 902.133,1766.48 969.8,1816.81 1040.5,1863C 1078.52,1886.85 1118.19,1907.85 1159.5,1926C 1187.83,1937.8 1217.16,1945.8 1247.5,1950C 1275.03,1951.88 1302.03,1948.88 1328.5,1941C 1384.92,1922.98 1438.58,1898.98 1489.5,1869C 1527.38,1846.9 1563.72,1822.56 1598.5,1796C 1650.22,1751.6 1704.22,1710.27 1760.5,1672C 1771.17,1665 1782.17,1658.5 1793.5,1652.5C 1793.83,1651.83 1794.17,1651.17 1794.5,1650.5C 1786.51,1617.3 1783.01,1583.64 1784,1549.5C 1787.43,1535.39 1794.93,1523.89 1806.5,1515C 1820.31,1503.76 1835.64,1495.09 1852.5,1489C 1870.01,1484.64 1887.68,1481.14 1905.5,1478.5C 1906.67,1459.51 1906.83,1440.51 1906,1421.5C 1900.79,1400.8 1898.79,1379.8 1900,1358.5C 1906.9,1336.54 1919.4,1318.38 1937.5,1304C 1947,1296.25 1957.67,1290.58 1969.5,1287C 1986.28,1284.71 2001.61,1288.37 2015.5,1298C 2034.39,1311.23 2048.56,1328.4 2058,1349.5C 2059.76,1354.71 2061.09,1360.04 2062,1365.5C 2062.41,1383.51 2062.41,1401.51 2062,1419.5C 2071.11,1459.39 2071.78,1499.39 2064,1539.5C 2056.84,1564.66 2047.5,1588.99 2036,1612.5C 2035.33,1615.17 2035.33,1617.83 2036,1620.5C 2045.73,1643.29 2048.73,1666.96 2045,1691.5C 2040.19,1726.92 2029.19,1760.25 2012,1791.5C 2003.54,1805.49 1991.04,1812.99 1974.5,1814C 1951.55,1816.92 1928.88,1821.26 1906.5,1827C 1890.64,1831.76 1875.64,1838.43 1861.5,1847C 1776.71,1901.1 1697.04,1962.1 1622.5,2030C 1552.77,2085.35 1473.77,2121.02 1385.5,2137C 1322.15,2148.39 1258.48,2150.72 1194.5,2144C 1127.48,2133.66 1063.48,2113.66 1002.5,2084C 943.318,2054.93 887.651,2020.6 835.5,1981C 775.876,1929.68 711.543,1885.01 642.5,1847C 617.885,1833.69 592.551,1822.02 566.5,1812C 549.56,1807.18 532.56,1802.51 515.5,1798C 507.464,1795.24 500.297,1791.07 494,1785.5C 484.753,1774 478.419,1761 475,1746.5C 463.705,1710.69 458.372,1674.03 459,1636.5C 461.899,1622.9 465.733,1609.57 470.5,1596.5C 460.041,1573.29 451.874,1549.29 446,1524.5C 440.503,1488.24 441.836,1452.24 450,1416.5C 449.742,1399.84 449.742,1383.17 450,1366.5C 450.488,1358.57 452.155,1350.9 455,1343.5C 469.056,1314.6 490.889,1294.27 520.5,1282.5 Z"/></g>
<g><path style="opacity:1" fill="#010525" d="M 522.5,1298.5 C 534.761,1297.53 546.094,1300.36 556.5,1307C 573.642,1318.14 586.475,1332.97 595,1351.5C 596.774,1365.18 596.608,1378.85 594.5,1392.5C 570.37,1390.4 548.037,1395.57 527.5,1408C 516.535,1417.96 506.702,1428.79 498,1440.5C 487.135,1433.31 477.135,1424.98 468,1415.5C 455.543,1361.77 473.71,1322.77 522.5,1298.5 Z"/></g>
<g><path style="opacity:1" fill="#010525" d="M 1972.5,1302.5 C 1983.24,1301.25 1993.24,1303.41 2002.5,1309C 2042.95,1335.81 2056.78,1372.98 2044,1420.5C 2034.6,1429.07 2024.77,1437.07 2014.5,1444.5C 2004.17,1430.67 1992.17,1418.51 1978.5,1408C 1971.71,1404.74 1964.71,1402.07 1957.5,1400C 1944.23,1397.89 1930.89,1396.39 1917.5,1395.5C 1915.44,1382.51 1915.28,1369.51 1917,1356.5C 1928.5,1331.17 1947,1313.17 1972.5,1302.5 Z"/></g>
<g><path style="opacity:1" fill="#020625" d="M 1284.5,1458.5 C 1283.83,1455.17 1283.17,1451.83 1282.5,1448.5C 1282.5,1445.16 1281,1442.82 1278,1441.5C 1270.92,1445.79 1263.42,1449.12 1255.5,1451.5C 1254.5,1451.17 1253.5,1450.83 1252.5,1450.5C 1255.08,1444.28 1256.91,1437.95 1258,1431.5C 1256.82,1429.64 1255.15,1428.64 1253,1428.5C 1248.11,1430.03 1243.27,1431.7 1238.5,1433.5C 1236.01,1433.76 1234.35,1432.76 1233.5,1430.5C 1238.6,1415.56 1248.6,1405.4 1263.5,1400C 1270.69,1397.74 1278.02,1396.07 1285.5,1395C 1291.82,1393.01 1296.66,1389.17 1300,1383.5C 1300.5,1380.85 1300.66,1378.19 1300.5,1375.5C 1299.45,1375.35 1298.45,1375.52 1297.5,1376C 1294.96,1378.91 1292.8,1382.07 1291,1385.5C 1282.81,1392.21 1274.64,1392.05 1266.5,1385C 1270.12,1383.51 1273.78,1382.18 1277.5,1381C 1279.05,1379.79 1280.22,1378.29 1281,1376.5C 1282.03,1368.56 1281.03,1360.89 1278,1353.5C 1277.31,1352.64 1276.48,1351.98 1275.5,1351.5C 1267.18,1355.16 1258.51,1356.32 1249.5,1355C 1248.3,1354.1 1247.47,1352.93 1247,1351.5C 1246.17,1347.13 1246.34,1342.8 1247.5,1338.5C 1252.83,1335 1258.49,1332.34 1264.5,1330.5C 1266.58,1330.69 1268.58,1331.19 1270.5,1332C 1274.49,1335.33 1278.82,1338.16 1283.5,1340.5C 1289.51,1336.49 1295.84,1332.99 1302.5,1330C 1300.4,1326.88 1297.57,1325.04 1294,1324.5C 1288.28,1326.1 1282.45,1326.76 1276.5,1326.5C 1277.09,1323.39 1278.76,1320.89 1281.5,1319C 1292.85,1320 1304.19,1319.67 1315.5,1318C 1322.56,1316.32 1329.56,1314.48 1336.5,1312.5C 1340.18,1313.17 1343.84,1313.84 1347.5,1314.5C 1346.67,1318.48 1346.5,1322.48 1347,1326.5C 1349.61,1334.39 1353.28,1341.72 1358,1348.5C 1359.39,1353.09 1359.73,1357.76 1359,1362.5C 1347.88,1382 1342.88,1403 1344,1425.5C 1335.21,1421.29 1331.88,1423.95 1334,1433.5C 1335.9,1436.92 1336.74,1440.59 1336.5,1444.5C 1328.11,1443.05 1325.45,1446.21 1328.5,1454C 1330.06,1463.65 1326.72,1466.32 1318.5,1462C 1314.13,1457.44 1310.63,1452.27 1308,1446.5C 1307.26,1445.43 1306.26,1444.76 1305,1444.5C 1300.51,1448.32 1296.01,1452.15 1291.5,1456C 1289.26,1457.14 1286.92,1457.97 1284.5,1458.5 Z"/></g>
<g><path style="opacity:1" fill="#020625" d="M 1208.5,1488.5 C 1209.04,1488.44 1209.38,1488.11 1209.5,1487.5C 1206.69,1486.2 1204.02,1486.2 1201.5,1487.5C 1185.66,1489.5 1170.99,1486.33 1157.5,1478C 1158.82,1474.01 1161.49,1471.35 1165.5,1470C 1169.73,1467.67 1170.4,1464.67 1167.5,1461C 1162.77,1458.79 1157.93,1456.96 1153,1455.5C 1152.48,1453.71 1152.81,1452.04 1154,1450.5C 1163.88,1441.73 1162.72,1436.23 1150.5,1434C 1148.7,1433.03 1147.03,1431.86 1145.5,1430.5C 1150.67,1425.17 1154.84,1419.17 1158,1412.5C 1159.54,1406.25 1159.87,1399.92 1159,1393.5C 1150,1385.83 1141,1378.17 1132,1370.5C 1129.5,1366.52 1128.34,1362.18 1128.5,1357.5C 1136.71,1357.73 1144.71,1358.89 1152.5,1361C 1151.74,1359.49 1150.74,1358.15 1149.5,1357C 1145.72,1354.89 1142.22,1352.39 1139,1349.5C 1138.71,1344.95 1140.88,1342.28 1145.5,1341.5C 1151.54,1341.83 1157.54,1341.5 1163.5,1340.5C 1163.38,1339.89 1163.04,1339.56 1162.5,1339.5C 1159.4,1336.87 1155.9,1334.87 1152,1333.5C 1150.78,1328.03 1152.95,1324.53 1158.5,1323C 1170.59,1321.14 1181.09,1324.31 1190,1332.5C 1191,1334.17 1192,1335.83 1193,1337.5C 1195.62,1351.19 1194.28,1364.52 1189,1377.5C 1187.42,1389.33 1189.08,1400.66 1194,1411.5C 1197.39,1417.62 1200.23,1423.95 1202.5,1430.5C 1197.31,1441.55 1192.64,1452.89 1188.5,1464.5C 1189.61,1465.89 1190.94,1467.06 1192.5,1468C 1199.83,1468.5 1207.16,1468.67 1214.5,1468.5C 1214.5,1472.17 1214.5,1475.83 1214.5,1479.5C 1221.96,1478.63 1229.29,1477.46 1236.5,1476C 1237.33,1476.83 1238.17,1477.67 1239,1478.5C 1239.94,1486.21 1242.44,1493.38 1246.5,1500C 1247.17,1500.67 1247.83,1500.67 1248.5,1500C 1252.17,1496.33 1255.83,1492.67 1259.5,1489C 1261.7,1487.63 1264.03,1487.29 1266.5,1488C 1271.7,1494.71 1277.36,1501.04 1283.5,1507C 1285.97,1509.02 1288.14,1508.86 1290,1506.5C 1290.56,1501.19 1292.06,1496.19 1294.5,1491.5C 1297.83,1493.17 1301.17,1494.83 1304.5,1496.5C 1304.83,1498.5 1305.17,1500.5 1305.5,1502.5C 1304.02,1512.15 1302.52,1521.82 1301,1531.5C 1300.19,1543.53 1300.53,1555.53 1302,1567.5C 1304.2,1574.23 1307.2,1580.56 1311,1586.5C 1317.67,1594.5 1324.33,1602.5 1331,1610.5C 1335.62,1620.25 1341.12,1629.41 1347.5,1638C 1362.18,1641.07 1374.34,1636.9 1384,1625.5C 1389.88,1611.27 1388.05,1598.1 1378.5,1586C 1376.51,1584.25 1374.18,1583.25 1371.5,1583C 1357.95,1584.74 1345.78,1581.57 1335,1573.5C 1333.99,1571.98 1333.49,1570.31 1333.5,1568.5C 1338.47,1569.32 1343.47,1569.99 1348.5,1570.5C 1350.5,1570.33 1352.5,1570.17 1354.5,1570C 1356.29,1569.8 1357.62,1568.97 1358.5,1567.5C 1352.52,1562.51 1346.18,1558.01 1339.5,1554C 1333.39,1549.61 1329.39,1543.78 1327.5,1536.5C 1327.83,1536.17 1328.17,1535.83 1328.5,1535.5C 1336.45,1542.07 1345.45,1544.4 1355.5,1542.5C 1350.86,1536.02 1346.03,1529.69 1341,1523.5C 1337.14,1518.06 1335.47,1512.06 1336,1505.5C 1338.75,1507.46 1341.58,1509.29 1344.5,1511C 1346.26,1511.8 1347.93,1511.63 1349.5,1510.5C 1352.2,1498.67 1353.7,1486.67 1354,1474.5C 1359.6,1456.95 1366.6,1439.95 1375,1423.5C 1383.18,1410.65 1394.35,1401.48 1408.5,1396C 1421.17,1391.11 1431,1394.28 1438,1405.5C 1443.37,1417.97 1445.37,1430.97 1444,1444.5C 1442.85,1452.94 1441.18,1461.27 1439,1469.5C 1431.76,1488.31 1424.26,1506.98 1416.5,1525.5C 1415.42,1524.33 1414.58,1523 1414,1521.5C 1412.94,1516.9 1412.27,1512.23 1412,1507.5C 1411.5,1507 1411,1506.5 1410.5,1506C 1407.52,1505.5 1404.52,1505.34 1401.5,1505.5C 1401.31,1501.08 1401.81,1496.75 1403,1492.5C 1406.83,1484.84 1411.16,1477.5 1416,1470.5C 1417.41,1468.35 1418.24,1466.02 1418.5,1463.5C 1415.81,1463.34 1413.15,1463.5 1410.5,1464C 1399.53,1471.26 1397.36,1469.43 1404,1458.5C 1410.71,1452.13 1417.71,1446.13 1425,1440.5C 1431.33,1432.17 1432,1423.5 1427,1414.5C 1422.13,1409.64 1416.29,1407.48 1409.5,1408C 1390.6,1416.62 1377.76,1430.78 1371,1450.5C 1358.03,1482.7 1358.36,1514.7 1372,1546.5C 1379.51,1558.84 1386.51,1571.51 1393,1584.5C 1402.19,1609.24 1397.69,1631.07 1379.5,1650C 1370.76,1655.75 1361.1,1658.75 1350.5,1659C 1344.36,1666.09 1341.36,1674.42 1341.5,1684C 1341.44,1688.62 1342.11,1693.12 1343.5,1697.5C 1345.34,1698.92 1347.34,1700.09 1349.5,1701C 1354.66,1701.33 1359.16,1703.17 1363,1706.5C 1365.16,1715.78 1365.66,1725.11 1364.5,1734.5C 1359.35,1734.93 1354.68,1733.59 1350.5,1730.5C 1349.03,1731.38 1348.2,1732.71 1348,1734.5C 1347.67,1744.86 1349.84,1754.69 1354.5,1764C 1350.17,1764.33 1345.83,1764.67 1341.5,1765C 1341,1765.5 1340.5,1766 1340,1766.5C 1339.33,1770.5 1339.33,1774.5 1340,1778.5C 1341.95,1784.43 1343.45,1790.43 1344.5,1796.5C 1339.83,1796.82 1335.33,1796.15 1331,1794.5C 1327.13,1795.38 1325.29,1797.88 1325.5,1802C 1327.53,1807.6 1327.86,1813.27 1326.5,1819C 1319.5,1818.94 1312.5,1818.94 1305.5,1819C 1294.5,1830.5 1281.17,1834.67 1265.5,1831.5C 1265.3,1829.01 1265.8,1826.68 1267,1824.5C 1270.14,1821.27 1273.48,1818.27 1277,1815.5C 1277.48,1814.55 1277.65,1813.55 1277.5,1812.5C 1275.14,1812.34 1272.81,1812.5 1270.5,1813C 1265.84,1815.91 1261.01,1818.41 1256,1820.5C 1244.75,1817.24 1243.58,1811.74 1252.5,1804C 1254.5,1803 1256.5,1802 1258.5,1801C 1263.36,1800.97 1268.03,1800.14 1272.5,1798.5C 1264.94,1794.77 1257.27,1794.6 1249.5,1798C 1238.89,1799.2 1236.89,1795.53 1243.5,1787C 1247.67,1784.41 1252.01,1782.08 1256.5,1780C 1260.5,1779.33 1264.5,1779.33 1268.5,1780C 1276.46,1783.32 1284.62,1785.82 1293,1787.5C 1297.04,1787.9 1300.54,1786.73 1303.5,1784C 1306.67,1780.83 1309.83,1777.67 1313,1774.5C 1315.13,1758.89 1315.79,1743.22 1315,1727.5C 1312.59,1718.19 1307.76,1710.35 1300.5,1704C 1289.37,1696.68 1278.87,1688.51 1269,1679.5C 1263,1671.86 1260.67,1663.2 1262,1653.5C 1264.23,1644.25 1267.23,1635.25 1271,1626.5C 1271.69,1611.9 1267.19,1599.07 1257.5,1588C 1256.21,1587.51 1254.87,1587.34 1253.5,1587.5C 1253.66,1590.19 1253.5,1592.85 1253,1595.5C 1243.1,1587.87 1233.77,1579.54 1225,1570.5C 1222.73,1566.96 1220.73,1563.29 1219,1559.5C 1218.33,1557.5 1218.33,1555.5 1219,1553.5C 1223.85,1551 1228.68,1548.5 1233.5,1546C 1237.89,1538.73 1240.06,1530.9 1240,1522.5C 1239,1521.5 1238,1520.5 1237,1519.5C 1235.13,1525.82 1233.13,1532.15 1231,1538.5C 1229.13,1540.71 1226.96,1542.54 1224.5,1544C 1218.88,1546.15 1213.22,1548.15 1207.5,1550C 1204.49,1555.03 1201.49,1560.03 1198.5,1565C 1193.72,1566.03 1189.39,1565.03 1185.5,1562C 1183.87,1561.51 1182.2,1561.34 1180.5,1561.5C 1180.67,1565.51 1180.5,1569.51 1180,1573.5C 1179.42,1575.85 1177.92,1576.85 1175.5,1576.5C 1173.21,1576.38 1171.21,1575.54 1169.5,1574C 1166.65,1569.82 1163.15,1566.32 1159,1563.5C 1157.23,1564.34 1155.9,1565.67 1155,1567.5C 1154.22,1570.51 1153.05,1573.35 1151.5,1576C 1149.5,1576.67 1147.5,1576.67 1145.5,1576C 1141.89,1572.55 1137.89,1569.72 1133.5,1567.5C 1126.05,1571.82 1118.05,1573.66 1109.5,1573C 1108.92,1572.11 1108.59,1571.11 1108.5,1570C 1110.16,1565.01 1111.83,1560.01 1113.5,1555C 1113.17,1554.5 1112.83,1554 1112.5,1553.5C 1107.45,1558.36 1101.45,1561.03 1094.5,1561.5C 1094.34,1559.14 1094.5,1556.81 1095,1554.5C 1099.13,1549.54 1101.63,1543.88 1102.5,1537.5C 1101.13,1537.34 1099.79,1537.51 1098.5,1538C 1095.5,1541.67 1092.5,1545.33 1089.5,1549C 1087.5,1549.67 1085.5,1549.67 1083.5,1549C 1082.32,1545.18 1082.49,1541.35 1084,1537.5C 1092.48,1526.23 1103.65,1522.06 1117.5,1525C 1124.75,1528.2 1132.09,1531.2 1139.5,1534C 1148.96,1534.88 1157.29,1532.22 1164.5,1526C 1179.06,1513.26 1193.73,1500.76 1208.5,1488.5 Z"/></g>
<g><path style="opacity:1" fill="#e2c70d" d="M 1067.5,1331.5 C 1051.01,1332.5 1034.34,1332.83 1017.5,1332.5C 1017.83,1351.34 1017.5,1370.01 1016.5,1388.5C 1016.5,1369.5 1016.5,1350.5 1016.5,1331.5C 1033.5,1331.5 1050.5,1331.5 1067.5,1331.5 Z"/></g>
<g><path style="opacity:1" fill="#323021" d="M 1162.5,1339.5 C 1163.04,1339.56 1163.38,1339.89 1163.5,1340.5C 1157.54,1341.5 1151.54,1341.83 1145.5,1341.5C 1151.17,1340.83 1156.83,1340.17 1162.5,1339.5 Z"/></g>
<g><path style="opacity:1" fill="#a36325" d="M 1628.5,1381.5 C 1651.5,1381.5 1674.5,1381.5 1697.5,1381.5C 1697.5,1405.83 1697.5,1430.17 1697.5,1454.5C 1697.5,1454.83 1697.5,1455.17 1697.5,1455.5C 1696.5,1431.34 1696.17,1407.01 1696.5,1382.5C 1673.66,1382.83 1650.99,1382.5 1628.5,1381.5 Z"/></g>
<g><path style="opacity:1" fill="#d1a817" d="M 1490.5,1397.5 C 1512.5,1397.5 1534.5,1397.5 1556.5,1397.5C 1556.5,1420.5 1556.5,1443.5 1556.5,1466.5C 1584.34,1466.17 1612.01,1466.5 1639.5,1467.5C 1611.5,1467.5 1583.5,1467.5 1555.5,1467.5C 1555.5,1444.5 1555.5,1421.5 1555.5,1398.5C 1533.66,1398.83 1511.99,1398.5 1490.5,1397.5 Z"/></g>
<g><path style="opacity:1" fill="#020625" d="M 588.5,1407.5 C 588.492,1428.64 588.825,1449.97 589.5,1471.5C 567.098,1468.42 545.098,1463.59 523.5,1457C 519.296,1455.4 515.629,1453.07 512.5,1450C 514.2,1446.77 516.034,1443.6 518,1440.5C 525.204,1431.63 533.371,1423.8 542.5,1417C 557.311,1410.76 572.645,1407.6 588.5,1407.5 Z"/></g>
<g><path style="opacity:1" fill="#010424" d="M 1922.5,1412.5 C 1939.55,1412.1 1955.88,1415.27 1971.5,1422C 1983.02,1430.85 1992.36,1441.52 1999.5,1454C 1992.06,1459.55 1983.72,1463.22 1974.5,1465C 1957.26,1469.04 1939.93,1472.54 1922.5,1475.5C 1923.67,1454.48 1923.67,1433.48 1922.5,1412.5 Z"/></g>
<g><path style="opacity:1" fill="#040725" d="M 1220.5,1426.5 C 1221.83,1426.5 1223.17,1426.5 1224.5,1426.5C 1223.49,1430.51 1222.49,1434.51 1221.5,1438.5C 1221.12,1441.32 1222.12,1443.49 1224.5,1445C 1228.97,1443.43 1233.64,1442.1 1238.5,1441C 1241.23,1440.18 1243.89,1440.35 1246.5,1441.5C 1244.08,1445.34 1241.91,1449.34 1240,1453.5C 1239.28,1455.11 1239.45,1456.61 1240.5,1458C 1245.08,1459.48 1249.74,1459.81 1254.5,1459C 1260.32,1457.96 1265.99,1456.46 1271.5,1454.5C 1271.5,1458.83 1271.5,1463.17 1271.5,1467.5C 1275.92,1467.69 1280.25,1467.19 1284.5,1466C 1291.15,1463.67 1297.48,1460.84 1303.5,1457.5C 1305.3,1457.58 1306.97,1458.08 1308.5,1459C 1312.33,1462.83 1316.17,1466.67 1320,1470.5C 1320.49,1471.79 1320.66,1473.13 1320.5,1474.5C 1316.76,1474.24 1313.09,1474.57 1309.5,1475.5C 1308.83,1479.83 1308.17,1484.17 1307.5,1488.5C 1302.01,1484.84 1296.18,1481.84 1290,1479.5C 1288.52,1480.44 1287.52,1481.78 1287,1483.5C 1286.26,1487.39 1284.93,1491.05 1283,1494.5C 1281,1497.17 1279,1497.17 1277,1494.5C 1274.67,1489.83 1272.33,1485.17 1270,1480.5C 1268.98,1479.31 1267.81,1478.31 1266.5,1477.5C 1261.03,1481.14 1255.69,1484.97 1250.5,1489C 1249.36,1489.75 1248.36,1489.58 1247.5,1488.5C 1246.08,1483.28 1245.24,1477.94 1245,1472.5C 1244.55,1470.48 1243.72,1468.65 1242.5,1467C 1238.16,1467.83 1233.83,1469 1229.5,1470.5C 1225.84,1470.05 1224.17,1467.88 1224.5,1464C 1225.11,1460.86 1225.44,1457.69 1225.5,1454.5C 1222.81,1454.34 1220.15,1454.5 1217.5,1455C 1212.11,1457.74 1206.44,1459.57 1200.5,1460.5C 1199.66,1454.22 1201.16,1448.55 1205,1443.5C 1208.64,1436.36 1213.81,1430.69 1220.5,1426.5 Z"/></g>
<g><path style="opacity:1" fill="#000525" d="M 463.5,1434.5 C 473.272,1441.76 482.939,1449.26 492.5,1457C 508.507,1469.12 526.507,1476.79 546.5,1480C 581.873,1486.68 617.206,1493.35 652.5,1500C 673.21,1507.1 691.043,1518.6 706,1534.5C 708.804,1538.44 710.804,1542.78 712,1547.5C 712.132,1573.99 710.132,1600.32 706,1626.5C 705.021,1630.57 703.854,1634.57 702.5,1638.5C 632.128,1611.89 559.461,1594.73 484.5,1587C 465.475,1549.4 456.975,1509.57 459,1467.5C 460.257,1456.44 461.757,1445.44 463.5,1434.5 Z"/></g>
<g><path style="opacity:1" fill="#010525" d="M 2046.5,1438.5 C 2048.48,1439.85 2049.65,1441.85 2050,1444.5C 2057.18,1483.36 2054.18,1521.36 2041,1558.5C 2035.66,1573.51 2029.49,1588.18 2022.5,1602.5C 1999.84,1603.33 1977.17,1603.83 1954.5,1604C 1912.53,1606.58 1872.2,1615.91 1833.5,1632C 1825.59,1636.44 1817.59,1639.94 1809.5,1642.5C 1802.9,1613.21 1799.74,1583.54 1800,1553.5C 1800.19,1549.12 1801.52,1545.12 1804,1541.5C 1819.75,1523.1 1839.25,1510.27 1862.5,1503C 1896.53,1496.79 1930.53,1490.46 1964.5,1484C 1984.1,1480.58 2002.1,1473.24 2018.5,1462C 2028.32,1454.68 2037.65,1446.84 2046.5,1438.5 Z"/></g>
<g><path style="opacity:1" fill="#5d5b1a" d="M 1282.5,1448.5 C 1283.17,1451.83 1283.83,1455.17 1284.5,1458.5C 1284.44,1459.04 1284.11,1459.38 1283.5,1459.5C 1282.51,1455.89 1282.18,1452.23 1282.5,1448.5 Z"/></g>
<g><path style="opacity:1" fill="#828216" d="M 1201.5,1487.5 C 1204.02,1486.2 1206.69,1486.2 1209.5,1487.5C 1209.38,1488.11 1209.04,1488.44 1208.5,1488.5C 1206.39,1487.53 1204.06,1487.2 1201.5,1487.5 Z"/></g>
<g><path style="opacity:1" fill="#010624" d="M 477.5,1685.5 C 477.556,1680.27 476.889,1675.27 475.5,1670.5C 472.309,1646.96 475.975,1624.62 486.5,1603.5C 572.301,1612.35 654.634,1634.19 733.5,1669C 766.925,1684.48 798.258,1703.15 827.5,1725C 889.818,1777.32 954.818,1825.98 1022.5,1871C 1070.1,1901.97 1120.44,1927.97 1173.5,1949C 1207.33,1962.03 1242.33,1968.03 1278.5,1967C 1307.37,1963.89 1335.37,1957.22 1362.5,1947C 1441.89,1916.32 1515.89,1876.32 1584.5,1827C 1619.79,1799.38 1654.79,1771.38 1689.5,1743C 1723.79,1716.38 1759.46,1691.72 1796.5,1669C 1856.07,1633.7 1920.57,1617.2 1990,1619.5C 1999.17,1619.83 2008.33,1620.17 2017.5,1620.5C 2027.17,1639 2031.33,1658.67 2030,1679.5C 2026.18,1716.3 2015.51,1750.97 1998,1783.5C 1994.11,1790.39 1988.28,1794.55 1980.5,1796C 1953.19,1799.76 1926.19,1805.09 1899.5,1812C 1884.31,1816.43 1869.98,1822.76 1856.5,1831C 1772.14,1884.54 1692.8,1944.87 1618.5,2012C 1544.77,2072.35 1460.44,2109.68 1365.5,2124C 1315.72,2131.37 1265.72,2133.37 1215.5,2130C 1145.61,2121.76 1078.94,2102.42 1015.5,2072C 951.64,2041.26 891.973,2004.26 836.5,1961C 764.956,1899.53 686.29,1848.53 600.5,1808C 575.213,1797.46 549.213,1789.13 522.5,1783C 508.693,1778.53 499.526,1769.36 495,1755.5C 487.278,1732.61 481.445,1709.28 477.5,1685.5 Z"/></g>
<g><path style="opacity:1" fill="#020625" d="M 1201.5,1604.5 C 1217.85,1605.1 1234.18,1606.1 1250.5,1607.5C 1251.04,1613.95 1252.21,1620.29 1254,1626.5C 1256.57,1628 1259.41,1629 1262.5,1629.5C 1257.54,1641.39 1254.2,1653.73 1252.5,1666.5C 1242.86,1665.98 1233.36,1664.64 1224,1662.5C 1217.46,1662.2 1213.3,1665.2 1211.5,1671.5C 1214.61,1678.05 1217.44,1684.71 1220,1691.5C 1221.44,1698.11 1221.77,1704.78 1221,1711.5C 1215.57,1708.62 1209.9,1706.28 1204,1704.5C 1203.23,1704.64 1202.56,1704.98 1202,1705.5C 1201.33,1708.17 1201.33,1710.83 1202,1713.5C 1202.99,1718.13 1204.16,1722.63 1205.5,1727C 1205.98,1731.22 1204.31,1734.06 1200.5,1735.5C 1197.2,1734.18 1194.2,1732.35 1191.5,1730C 1188.97,1729.1 1186.81,1729.6 1185,1731.5C 1184.81,1736.42 1184.31,1741.25 1183.5,1746C 1179.52,1746.72 1175.69,1746.22 1172,1744.5C 1162.35,1756.22 1149.85,1761.22 1134.5,1759.5C 1134.34,1756.81 1134.5,1754.15 1135,1751.5C 1137.78,1747.05 1140.95,1742.88 1144.5,1739C 1142.5,1738.33 1140.5,1738.33 1138.5,1739C 1132.8,1743.18 1126.47,1745.68 1119.5,1746.5C 1119.21,1743.35 1119.71,1740.35 1121,1737.5C 1124.78,1733.72 1128.61,1729.89 1132.5,1726C 1125.95,1725.13 1119.95,1726.63 1114.5,1730.5C 1113.06,1727.21 1113.73,1724.38 1116.5,1722C 1121.34,1719.05 1126.51,1716.89 1132,1715.5C 1149.97,1722.51 1164.64,1718.17 1176,1702.5C 1178.59,1695.74 1180.25,1688.74 1181,1681.5C 1181.64,1668.66 1181.48,1655.82 1180.5,1643C 1180.05,1630.08 1184.21,1618.91 1193,1609.5C 1195.53,1607.1 1198.36,1605.43 1201.5,1604.5 Z"/></g>
<g><path style="opacity:1" fill="#a17b2d" d="M 475.5,1670.5 C 476.889,1675.27 477.556,1680.27 477.5,1685.5C 476.111,1680.73 475.444,1675.73 475.5,1670.5 Z"/></g>
<g><path style="opacity:1" fill="#8ad1f2" d="M 598.5,1675.5 C 616.592,1681.92 634.259,1689.42 651.5,1698C 658.037,1703.76 660.203,1710.92 658,1719.5C 655.432,1726.4 650.598,1730.9 643.5,1733C 650.978,1742.01 651.478,1751.51 645,1761.5C 636.602,1770.48 626.436,1773.31 614.5,1770C 602.5,1765.33 590.5,1760.67 578.5,1756C 574.827,1754.62 571.494,1752.79 568.5,1750.5C 578.792,1725.59 588.792,1700.59 598.5,1675.5 Z"/></g>
<g><path style="opacity:1" fill="#8ad1f2" d="M 1887.5,1678.5 C 1897.15,1677.1 1904.98,1680.1 1911,1687.5C 1914.37,1694.6 1914.2,1701.6 1910.5,1708.5C 1929.28,1715.71 1934.44,1728.38 1926,1746.5C 1923.13,1749.7 1919.96,1752.54 1916.5,1755C 1899.88,1761.98 1882.88,1767.81 1865.5,1772.5C 1857.02,1747.07 1848.36,1721.73 1839.5,1696.5C 1855.5,1690.28 1871.5,1684.28 1887.5,1678.5 Z"/></g>
<g><path style="opacity:1" fill="#fdbe40" d="M 941.5,1686.5 C 971.457,1711.14 1002.79,1733.8 1035.5,1754.5C 1032.33,1758.49 1031,1763.16 1031.5,1768.5C 1025.28,1766.98 1020.95,1769.14 1018.5,1775C 1016.31,1775.93 1014.31,1777.09 1012.5,1778.5C 982.721,1760.61 954.721,1740.28 928.5,1717.5C 931.981,1718.39 935.814,1719.06 940,1719.5C 941.833,1719.17 943.667,1718.83 945.5,1718.5C 943.393,1716.11 940.727,1714.78 937.5,1714.5C 937.337,1712.14 937.503,1709.81 938,1707.5C 939.308,1705.36 940.808,1703.36 942.5,1701.5C 941.675,1700.61 940.675,1700.28 939.5,1700.5C 939.69,1695.63 940.356,1690.96 941.5,1686.5 Z"/></g>
<g><path style="opacity:1" fill="#040923" d="M 1880.5,1701.5 C 1883.52,1701.34 1886.52,1701.5 1889.5,1702C 1894.08,1707.06 1893.08,1710.72 1886.5,1713C 1882.29,1714.85 1877.96,1715.85 1873.5,1716C 1871.79,1712.71 1870.79,1709.21 1870.5,1705.5C 1874.12,1704.69 1877.45,1703.35 1880.5,1701.5 Z"/></g>
<g><path style="opacity:1" fill="#050b24" d="M 614.5,1703.5 C 620.915,1705.2 626.915,1707.86 632.5,1711.5C 633.895,1715.32 632.895,1718.49 629.5,1721C 623.35,1719.85 617.516,1717.68 612,1714.5C 612.192,1710.75 613.025,1707.08 614.5,1703.5 Z"/></g>
<g><path style="opacity:1" fill="#8ad1f2" d="M 1819.5,1704.5 C 1820.82,1704.33 1821.99,1704.66 1823,1705.5C 1833.77,1722.71 1843.77,1740.38 1853,1758.5C 1854.45,1766.66 1853.12,1774.33 1849,1781.5C 1836.88,1796.15 1821.38,1802.98 1802.5,1802C 1797.44,1800.05 1792.94,1797.22 1789,1793.5C 1778.5,1776.5 1768,1759.5 1757.5,1742.5C 1764.71,1737.23 1772.37,1733.07 1780.5,1730C 1789.54,1745.25 1798.71,1760.42 1808,1775.5C 1815.18,1780.18 1821.51,1779.18 1827,1772.5C 1827.67,1769.5 1827.67,1766.5 1827,1763.5C 1818.54,1748.07 1809.71,1732.9 1800.5,1718C 1800.64,1717.23 1800.98,1716.56 1801.5,1716C 1807.73,1712.39 1813.73,1708.56 1819.5,1704.5 Z"/></g>
<g><path style="opacity:1" fill="#8ad1f2" d="M 674.5,1706.5 C 683.055,1708.78 690.722,1712.61 697.5,1718C 689.922,1733.66 682.755,1749.49 676,1765.5C 675.66,1776.81 681.16,1781.31 692.5,1779C 693.667,1777.83 694.833,1776.67 696,1775.5C 704.222,1759.49 712.055,1743.32 719.5,1727C 727.592,1729.77 735.259,1733.6 742.5,1738.5C 733.984,1756.2 725.484,1773.86 717,1791.5C 705.171,1804.43 691.338,1806.93 675.5,1799C 664.1,1794.93 655.934,1787.43 651,1776.5C 648.658,1768.26 649.325,1760.26 653,1752.5C 660.454,1737.26 667.621,1721.93 674.5,1706.5 Z"/></g>
<g><path style="opacity:1" fill="#030623" d="M 1892.5,1726.5 C 1901.27,1724.44 1905.1,1727.77 1904,1736.5C 1903.5,1738.33 1902.33,1739.5 1900.5,1740C 1895.41,1742.03 1890.24,1743.86 1885,1745.5C 1884.05,1745.09 1883.39,1744.43 1883,1743.5C 1881.56,1739.85 1880.56,1736.18 1880,1732.5C 1884.06,1730.05 1888.23,1728.05 1892.5,1726.5 Z"/></g>
<g><path style="opacity:1" fill="#050a25" d="M 604.5,1729.5 C 610.655,1731.16 616.655,1733.33 622.5,1736C 625.961,1738.99 626.461,1742.49 624,1746.5C 622.406,1748.3 620.406,1749.3 618,1749.5C 612.246,1748.19 606.746,1746.19 601.5,1743.5C 601.203,1738.68 602.203,1734.02 604.5,1729.5 Z"/></g>
<g><path style="opacity:1" fill="#fdc047" d="M 1502.5,1743.5 C 1502.71,1745.46 1504.05,1747.13 1506.5,1748.5C 1503.59,1749.54 1500.92,1750.87 1498.5,1752.5C 1499.08,1754.11 1499.41,1755.77 1499.5,1757.5C 1498.67,1763.17 1497.83,1768.83 1497,1774.5C 1495.79,1775.07 1494.63,1775.74 1493.5,1776.5C 1495.87,1777.79 1498.37,1778.79 1501,1779.5C 1502.89,1778.25 1504.72,1778.25 1506.5,1779.5C 1484.81,1793.68 1462.14,1806.35 1438.5,1817.5C 1437.5,1817.53 1436.84,1817.03 1436.5,1816C 1437.43,1805.67 1439.09,1795.5 1441.5,1785.5C 1440.48,1783.81 1439.15,1782.48 1437.5,1781.5C 1459.62,1769.61 1481.29,1756.94 1502.5,1743.5 Z"/></g>
<g><path style="opacity:1" fill="#8ad1f2" d="M 752.5,1743.5 C 770.132,1751.73 786.965,1761.4 803,1772.5C 810.854,1782.29 811.521,1792.62 805,1803.5C 800.565,1809.3 794.732,1812.3 787.5,1812.5C 789.278,1817 789.778,1821.67 789,1826.5C 786.091,1835.3 782.425,1843.64 778,1851.5C 771.273,1848.22 764.773,1844.55 758.5,1840.5C 757.369,1838.93 757.202,1837.26 758,1835.5C 762.678,1828.48 764.678,1820.81 764,1812.5C 759.688,1808.17 754.688,1804.84 749,1802.5C 744.365,1810.63 739.532,1818.63 734.5,1826.5C 727.167,1822.17 719.833,1817.83 712.5,1813.5C 726.363,1790.44 739.696,1767.1 752.5,1743.5 Z"/></g>
<g><path style="opacity:1" fill="#fdc353" d="M 1035.5,1754.5 C 1046.87,1761.18 1058.2,1767.85 1069.5,1774.5C 1067.52,1774.38 1065.85,1775.05 1064.5,1776.5C 1066.39,1777.6 1068.06,1778.94 1069.5,1780.5C 1069.73,1789.71 1067.73,1798.38 1063.5,1806.5C 1063.04,1807.3 1062.38,1807.63 1061.5,1807.5C 1044.36,1798.99 1028.03,1789.33 1012.5,1778.5C 1014.31,1777.09 1016.31,1775.93 1018.5,1775C 1020.95,1769.14 1025.28,1766.98 1031.5,1768.5C 1031,1763.16 1032.33,1758.49 1035.5,1754.5 Z"/></g>
<g><path style="opacity:1" fill="#8ad1f2" d="M 1718.5,1771.5 C 1719.24,1771.37 1719.91,1771.54 1720.5,1772C 1732.5,1787.33 1744.5,1802.67 1756.5,1818C 1758.28,1817.96 1759.95,1817.29 1761.5,1816C 1769.26,1810.04 1777.09,1804.21 1785,1798.5C 1790.95,1803.09 1795.29,1808.76 1798,1815.5C 1782.23,1826.97 1766.73,1838.8 1751.5,1851C 1750.5,1851.67 1749.5,1851.67 1748.5,1851C 1733.05,1829.88 1717.22,1809.05 1701,1788.5C 1700.25,1787.36 1700.42,1786.36 1701.5,1785.5C 1707.79,1781.53 1713.46,1776.86 1718.5,1771.5 Z"/></g>
<g><path style="opacity:1" fill="#030724" d="M 764.5,1773.5 C 772.925,1775.71 779.591,1780.37 784.5,1787.5C 782.776,1791.22 780.109,1793.89 776.5,1795.5C 770.423,1793.77 764.756,1791.1 759.5,1787.5C 758.417,1786.64 758.251,1785.64 759,1784.5C 761.372,1781.09 763.205,1777.42 764.5,1773.5 Z"/></g>
<g><path style="opacity:1" fill="#fdc763" d="M 1069.5,1774.5 C 1080.24,1780.18 1090.91,1785.85 1101.5,1791.5C 1099.85,1792.97 1098.02,1794.3 1096,1795.5C 1095.19,1797.58 1095.36,1799.58 1096.5,1801.5C 1097.48,1801.02 1098.31,1800.36 1099,1799.5C 1098.85,1801.81 1098.35,1804.15 1097.5,1806.5C 1098.97,1809.72 1099.47,1813.06 1099,1816.5C 1096.72,1819.38 1093.89,1821.38 1090.5,1822.5C 1080.7,1817.77 1071.03,1812.77 1061.5,1807.5C 1062.38,1807.63 1063.04,1807.3 1063.5,1806.5C 1067.73,1798.38 1069.73,1789.71 1069.5,1780.5C 1068.06,1778.94 1066.39,1777.6 1064.5,1776.5C 1065.85,1775.05 1067.52,1774.38 1069.5,1774.5 Z"/></g>
<g><path style="opacity:1" fill="#fec763" d="M 1437.5,1781.5 C 1439.15,1782.48 1440.48,1783.81 1441.5,1785.5C 1439.09,1795.5 1437.43,1805.67 1436.5,1816C 1436.84,1817.03 1437.5,1817.53 1438.5,1817.5C 1419.52,1827.82 1399.85,1836.82 1379.5,1844.5C 1378.1,1844.03 1376.77,1843.36 1375.5,1842.5C 1376.71,1833.65 1378.04,1824.81 1379.5,1816C 1379.14,1813.14 1377.48,1811.64 1374.5,1811.5C 1395.63,1801.89 1416.63,1791.89 1437.5,1781.5 Z"/></g>
<g><path style="opacity:1" fill="#8ad1f2" d="M 831.5,1789.5 C 839.028,1794.44 846.028,1800.11 852.5,1806.5C 848.819,1821.35 846.319,1836.35 845,1851.5C 853.311,1841.02 861.811,1830.69 870.5,1820.5C 877.015,1825.26 883.348,1830.26 889.5,1835.5C 872.239,1857.02 854.739,1878.35 837,1899.5C 831.292,1894.12 825.292,1889.12 819,1884.5C 821.004,1868.49 823.004,1852.49 825,1836.5C 816.686,1847.15 808.019,1857.48 799,1867.5C 792.675,1862.67 786.508,1857.67 780.5,1852.5C 797.269,1831.29 814.269,1810.29 831.5,1789.5 Z"/></g>
<g><path style="opacity:1" fill="#8bd1f2" d="M 1683.5,1802.5 C 1696.08,1801.63 1706.41,1805.96 1714.5,1815.5C 1708.47,1819.52 1702.8,1824.02 1697.5,1829C 1696.17,1829.67 1694.83,1829.67 1693.5,1829C 1685.41,1823.48 1678.91,1824.98 1674,1833.5C 1672.06,1838.59 1672.39,1843.59 1675,1848.5C 1679.28,1857.79 1686.28,1863.79 1696,1866.5C 1701.93,1866.37 1706.27,1863.7 1709,1858.5C 1709.54,1853.37 1709.21,1848.37 1708,1843.5C 1714.02,1838.64 1720.19,1833.97 1726.5,1829.5C 1733.11,1837.67 1735.28,1847.01 1733,1857.5C 1727.33,1875.51 1715.16,1886.01 1696.5,1889C 1691.44,1889.66 1686.44,1889.33 1681.5,1888C 1657.39,1877.6 1646.89,1859.44 1650,1833.5C 1656.09,1817.56 1667.26,1807.23 1683.5,1802.5 Z"/></g>
<g><path style="opacity:1" fill="#fecf79" d="M 1101.5,1791.5 C 1117.57,1798.87 1133.57,1806.2 1149.5,1813.5C 1148.24,1823.96 1146.24,1834.3 1143.5,1844.5C 1143.04,1845.3 1142.38,1845.63 1141.5,1845.5C 1123.98,1838.78 1106.98,1831.11 1090.5,1822.5C 1093.89,1821.38 1096.72,1819.38 1099,1816.5C 1099.47,1813.06 1098.97,1809.72 1097.5,1806.5C 1098.35,1804.15 1098.85,1801.81 1099,1799.5C 1098.31,1800.36 1097.48,1801.02 1096.5,1801.5C 1095.36,1799.58 1095.19,1797.58 1096,1795.5C 1098.02,1794.3 1099.85,1792.97 1101.5,1791.5 Z"/></g>
<g><path style="opacity:1" fill="#fed489" d="M 1374.5,1811.5 C 1377.48,1811.64 1379.14,1813.14 1379.5,1816C 1378.04,1824.81 1376.71,1833.65 1375.5,1842.5C 1376.77,1843.36 1378.1,1844.03 1379.5,1844.5C 1361.65,1853.45 1342.99,1860.45 1323.5,1865.5C 1325.9,1854.63 1327.07,1843.63 1327,1832.5C 1326.33,1831.75 1325.5,1831.41 1324.5,1831.5C 1341.1,1824.87 1357.77,1818.21 1374.5,1811.5 Z"/></g>
<g><path style="opacity:1" fill="#fed793" d="M 1149.5,1813.5 C 1163.58,1819.19 1177.58,1824.85 1191.5,1830.5C 1186.91,1831.11 1186.24,1833.11 1189.5,1836.5C 1185.8,1843.84 1184.8,1851.51 1186.5,1859.5C 1186,1860.92 1185,1861.59 1183.5,1861.5C 1168.8,1857.81 1154.8,1852.47 1141.5,1845.5C 1142.38,1845.63 1143.04,1845.3 1143.5,1844.5C 1146.24,1834.3 1148.24,1823.96 1149.5,1813.5 Z"/></g>
<g><path style="opacity:1" fill="#fee1b0" d="M 1191.5,1830.5 C 1198.4,1832.47 1205.07,1834.8 1211.5,1837.5C 1210.76,1837.37 1210.09,1837.54 1209.5,1838C 1210.52,1838.52 1211.18,1839.35 1211.5,1840.5C 1209.28,1850.56 1207.62,1860.56 1206.5,1870.5C 1199.76,1868.65 1193.09,1866.48 1186.5,1864C 1185.06,1863.62 1184.06,1862.79 1183.5,1861.5C 1185,1861.59 1186,1860.92 1186.5,1859.5C 1184.8,1851.51 1185.8,1843.84 1189.5,1836.5C 1186.24,1833.11 1186.91,1831.11 1191.5,1830.5 Z"/></g>
<g><path style="opacity:1" fill="#fedfa8" d="M 1324.5,1831.5 C 1325.5,1831.41 1326.33,1831.75 1327,1832.5C 1327.07,1843.63 1325.9,1854.63 1323.5,1865.5C 1322.25,1867.14 1320.58,1868.3 1318.5,1869C 1314.89,1870.15 1311.22,1870.98 1307.5,1871.5C 1308.84,1860.33 1310.5,1849.16 1312.5,1838C 1312.43,1837.24 1312.1,1836.74 1311.5,1836.5C 1315.53,1834.26 1319.87,1832.6 1324.5,1831.5 Z"/></g>
<g><path style="opacity:1" fill="#fee5ba" d="M 1311.5,1836.5 C 1312.1,1836.74 1312.43,1837.24 1312.5,1838C 1310.5,1849.16 1308.84,1860.33 1307.5,1871.5C 1302.92,1874.14 1297.92,1875.8 1292.5,1876.5C 1291.05,1875.87 1290.39,1874.7 1290.5,1873C 1293.46,1864.83 1295.79,1856.49 1297.5,1848C 1296.3,1845.64 1294.63,1843.8 1292.5,1842.5C 1298.49,1839.73 1304.82,1837.73 1311.5,1836.5 Z"/></g>
<g><path style="opacity:1" fill="#fee9c5" d="M 1211.5,1837.5 C 1219.38,1839.79 1227.05,1842.46 1234.5,1845.5C 1233.21,1846.84 1232.37,1848.51 1232,1850.5C 1230.33,1858.5 1228.67,1866.5 1227,1874.5C 1226.58,1875.76 1225.75,1876.42 1224.5,1876.5C 1218.32,1874.79 1212.32,1872.79 1206.5,1870.5C 1207.62,1860.56 1209.28,1850.56 1211.5,1840.5C 1211.18,1839.35 1210.52,1838.52 1209.5,1838C 1210.09,1837.54 1210.76,1837.37 1211.5,1837.5 Z"/></g>
<g><path style="opacity:1" fill="#8ad1f2" d="M 894.5,1841.5 C 901.885,1846.04 908.885,1851.21 915.5,1857C 903.103,1872.39 891.103,1888.06 879.5,1904C 880.101,1905.61 881.101,1906.94 882.5,1908C 890.788,1913.95 898.788,1920.29 906.5,1927C 902.357,1932.64 898.024,1938.14 893.5,1943.5C 877.188,1931.18 861.188,1918.52 845.5,1905.5C 861.857,1884.15 878.191,1862.81 894.5,1841.5 Z"/></g>
<g><path style="opacity:1" fill="#feefd5" d="M 1292.5,1842.5 C 1294.63,1843.8 1296.3,1845.64 1297.5,1848C 1295.79,1856.49 1293.46,1864.83 1290.5,1873C 1290.39,1874.7 1291.05,1875.87 1292.5,1876.5C 1283.74,1879.66 1274.74,1882.33 1265.5,1884.5C 1268.22,1873.77 1270.56,1862.94 1272.5,1852C 1272.47,1850.93 1272.14,1850.1 1271.5,1849.5C 1278.21,1846.6 1285.21,1844.26 1292.5,1842.5 Z"/></g>
<g><path style="opacity:1" fill="#fef1dc" d="M 1234.5,1845.5 C 1240.03,1846.79 1245.37,1848.46 1250.5,1850.5C 1249.88,1850.61 1249.38,1850.94 1249,1851.5C 1246.89,1861.42 1245.39,1871.42 1244.5,1881.5C 1243.5,1881.5 1242.5,1881.5 1241.5,1881.5C 1235.67,1880.07 1230.01,1878.4 1224.5,1876.5C 1225.75,1876.42 1226.58,1875.76 1227,1874.5C 1228.67,1866.5 1230.33,1858.5 1232,1850.5C 1232.37,1848.51 1233.21,1846.84 1234.5,1845.5 Z"/></g>
<g><path style="opacity:1" fill="#fefaf5" d="M 1271.5,1849.5 C 1272.14,1850.1 1272.47,1850.93 1272.5,1852C 1270.56,1862.94 1268.22,1873.77 1265.5,1884.5C 1257.17,1886.33 1249.17,1885.33 1241.5,1881.5C 1242.5,1881.5 1243.5,1881.5 1244.5,1881.5C 1245.39,1871.42 1246.89,1861.42 1249,1851.5C 1249.38,1850.94 1249.88,1850.61 1250.5,1850.5C 1257.57,1851.88 1264.57,1851.55 1271.5,1849.5 Z"/></g>
<g><path style="opacity:1" fill="#8ad1f2" d="M 945.5,1880.5 C 969.769,1896.98 994.436,1912.98 1019.5,1928.5C 1019.77,1939.23 1019.77,1949.9 1019.5,1960.5C 1028.01,1954.75 1036.34,1948.75 1044.5,1942.5C 1052.85,1946 1060.52,1950.5 1067.5,1956C 1067.24,1957.26 1066.57,1958.26 1065.5,1959C 1050.17,1968.33 1034.83,1977.67 1019.5,1987C 1014.28,1995.95 1008.94,2004.79 1003.5,2013.5C 997.833,2010.33 992.167,2007.17 986.5,2004C 984.673,2003.1 983.34,2001.77 982.5,2000C 987.12,1991.93 991.62,1983.76 996,1975.5C 996.833,1959.82 996.666,1944.16 995.5,1928.5C 993.727,1931.06 991.727,1933.39 989.5,1935.5C 977.821,1928.33 966.488,1920.66 955.5,1912.5C 953.23,1914.6 951.563,1917.1 950.5,1920C 959.295,1926.57 968.295,1932.9 977.5,1939C 978.99,1939.75 979.99,1940.91 980.5,1942.5C 977.625,1948.21 974.125,1953.55 970,1958.5C 959.636,1951.3 949.136,1944.3 938.5,1937.5C 936.588,1939.66 934.921,1941.99 933.5,1944.5C 944.913,1952.62 956.413,1960.62 968,1968.5C 965.472,1975.2 961.639,1981.2 956.5,1986.5C 937.258,1974.25 918.591,1961.25 900.5,1947.5C 915.262,1924.97 930.262,1902.63 945.5,1880.5 Z"/></g>
<g><path style="opacity:1" fill="#8ad1f3" d="M 1578.5,1881.5 C 1591.3,1896.82 1603.63,1912.65 1615.5,1929C 1625.46,1922.92 1635.13,1916.08 1644.5,1908.5C 1649.19,1913.86 1653.52,1919.52 1657.5,1925.5C 1641.35,1938.08 1625.01,1950.41 1608.5,1962.5C 1592.41,1940.65 1576.08,1918.99 1559.5,1897.5C 1565.85,1892.14 1572.19,1886.81 1578.5,1881.5 Z"/></g>
<g><path style="opacity:1" fill="#8ad1f3" d="M 1526.5,1918.5 C 1538.2,1934.86 1549.7,1951.53 1561,1968.5C 1570.7,1961.97 1580.53,1955.64 1590.5,1949.5C 1594.61,1954.87 1598.61,1960.37 1602.5,1966C 1585.85,1978 1568.85,1989.5 1551.5,2000.5C 1536.12,1978.24 1521.12,1955.74 1506.5,1933C 1513.03,1927.91 1519.69,1923.08 1526.5,1918.5 Z"/></g>
<g><path style="opacity:1" fill="#8ad1f2" d="M 1481.5,1945.5 C 1484.14,1945.95 1486.47,1947.12 1488.5,1949C 1508.04,1967.38 1527.71,1985.55 1547.5,2003.5C 1540.08,2007.96 1532.58,2012.29 1525,2016.5C 1522.17,2013.67 1519.33,2010.83 1516.5,2008C 1509.37,2010.9 1502.37,2014.4 1495.5,2018.5C 1495.32,2023.03 1494.98,2027.53 1494.5,2032C 1487.71,2035.3 1481.04,2038.8 1474.5,2042.5C 1473.02,2037.58 1471.85,2032.58 1471,2027.5C 1468.14,2004.62 1464.97,1981.79 1461.5,1959C 1461.59,1957.89 1461.92,1956.89 1462.5,1956C 1468.9,1952.47 1475.23,1948.97 1481.5,1945.5 Z"/></g>
<g><path style="opacity:1" fill="#8ad1f2" d="M 1090.5,1966.5 C 1111.32,1972.11 1131.65,1979.11 1151.5,1987.5C 1149.21,1994.03 1146.55,2000.36 1143.5,2006.5C 1131.54,2002.29 1119.54,1998.29 1107.5,1994.5C 1107.45,1997.31 1106.79,1999.98 1105.5,2002.5C 1115.26,2006.71 1125.26,2010.38 1135.5,2013.5C 1134.26,2020.41 1131.76,2026.74 1128,2032.5C 1118.54,2029.07 1109.04,2025.73 1099.5,2022.5C 1095.54,2031.53 1091.88,2040.7 1088.5,2050C 1080.16,2048.83 1072.16,2046.33 1064.5,2042.5C 1073.39,2017.16 1082.06,1991.83 1090.5,1966.5 Z"/></g>
<g><path style="opacity:1" fill="#8bd1f2" d="M 1423.5,1973.5 C 1438.76,1971.27 1447.76,1977.61 1450.5,1992.5C 1450.26,1996.72 1448.93,2000.55 1446.5,2004C 1461.73,2007.92 1468.23,2017.75 1466,2033.5C 1463.98,2040.05 1460.15,2045.21 1454.5,2049C 1437.44,2056.08 1420.1,2062.24 1402.5,2067.5C 1394.11,2042.32 1385.11,2017.32 1375.5,1992.5C 1378.35,1989.91 1381.68,1988.07 1385.5,1987C 1398.37,1982.71 1411.04,1978.21 1423.5,1973.5 Z"/></g>
<g><path style="opacity:1" fill="#040823" d="M 1486.5,1977.5 C 1492.15,1982.48 1497.48,1987.81 1502.5,1993.5C 1498.86,1996.32 1494.86,1998.66 1490.5,2000.5C 1488.9,1992.83 1487.57,1985.17 1486.5,1977.5 Z"/></g>
<g><path style="opacity:1" fill="#8ad1f2" d="M 1171.5,1991.5 C 1195.67,1989.16 1212.17,1999.16 1221,2021.5C 1224.2,2039.9 1219.36,2055.73 1206.5,2069C 1184.32,2082.46 1164.15,2079.96 1146,2061.5C 1133.34,2038.18 1136.5,2017.34 1155.5,1999C 1160.54,1995.64 1165.88,1993.14 1171.5,1991.5 Z"/></g>
<g><path style="opacity:1" fill="#8bd0f2" d="M 1365.5,1992.5 C 1368.5,1992.5 1371.5,1992.5 1374.5,1992.5C 1374.96,1999.58 1375.96,2006.58 1377.5,2013.5C 1370.18,2014.26 1362.84,2014.93 1355.5,2015.5C 1358.34,2035.85 1361.34,2056.19 1364.5,2076.5C 1356.15,2077.75 1347.82,2079.08 1339.5,2080.5C 1336.57,2060.34 1332.91,2040.34 1328.5,2020.5C 1321.2,2022 1313.87,2023.33 1306.5,2024.5C 1305.87,2017.11 1304.87,2009.78 1303.5,2002.5C 1324.45,2000.01 1345.12,1996.67 1365.5,1992.5 Z"/></g>
<g><path style="opacity:1" fill="#050924" d="M 1419.5,1995.5 C 1426.33,1994.83 1429.16,1997.83 1428,2004.5C 1426.42,2006.04 1424.59,2007.21 1422.5,2008C 1418.38,2009.21 1414.38,2010.71 1410.5,2012.5C 1408.58,2008.67 1407.25,2004.67 1406.5,2000.5C 1411.13,1999.4 1415.47,1997.74 1419.5,1995.5 Z"/></g>
<g><path style="opacity:1" fill="#8bd1f2" d="M 1258.5,2000.5 C 1293.45,2000.28 1309.61,2017.62 1307,2052.5C 1300.01,2078.26 1283.18,2089.42 1256.5,2086C 1239.59,2081.42 1229.09,2070.59 1225,2053.5C 1221.86,2032.96 1228.69,2016.8 1245.5,2005C 1249.85,2003.16 1254.18,2001.66 1258.5,2000.5 Z"/></g>
<g><path style="opacity:1" fill="#020825" d="M 1176.5,2012.5 C 1189.59,2011.19 1196.25,2017.02 1196.5,2030C 1197.02,2040.31 1193.36,2048.65 1185.5,2055C 1171.61,2058.13 1164.27,2052.46 1163.5,2038C 1163.39,2027.11 1167.73,2018.61 1176.5,2012.5 Z"/></g>
<g><path style="opacity:1" fill="#040a25" d="M 1431.5,2020.5 C 1439.55,2020.96 1442.39,2024.96 1440,2032.5C 1433.69,2036.44 1426.86,2039.1 1419.5,2040.5C 1418.74,2035.65 1417.4,2030.98 1415.5,2026.5C 1421.11,2025.02 1426.44,2023.02 1431.5,2020.5 Z"/></g>
<g><path style="opacity:1" fill="#030825" d="M 1261.5,2021.5 C 1275.66,2021.49 1282.66,2028.66 1282.5,2043C 1282.17,2050.67 1279.5,2057.33 1274.5,2063C 1265.96,2068.55 1258.79,2067.05 1253,2058.5C 1247.75,2047.39 1248.42,2036.72 1255,2026.5C 1257.33,2024.93 1259.49,2023.27 1261.5,2021.5 Z"/></g>
</svg>
