<?xml version="1.0" encoding="UTF-8"?>
<!DOCTYPE svg PUBLIC "-//W3C//DTD SVG 1.1//EN" "http://www.w3.org/Graphics/SVG/1.1/DTD/svg11.dtd">
<svg xmlns="http://www.w3.org/2000/svg" version="1.1" width="4331px" height="5000px" style="shape-rendering:geometricPrecision; text-rendering:geometricPrecision; image-rendering:optimizeQuality; fill-rule:evenodd; clip-rule:evenodd" xmlns:xlink="http://www.w3.org/1999/xlink">
<g><path style="opacity:0.993" fill="#fefefe" d="M 625.5,118.5 C 1643.17,118.5 2660.83,118.5 3678.5,118.5C 3678.36,978.835 3678.53,1839.17 3679,2699.5C 3675.27,2836.27 3659.43,2971.6 3631.5,3105.5C 3675.79,3098.96 3719.79,3100.46 3763.5,3110C 3804.24,3121.36 3840.24,3141.03 3871.5,3169C 3891.83,3188 3912.17,3207 3932.5,3226C 3997.17,3282.33 4061.83,3338.67 4126.5,3395C 4160.53,3426.21 4184.03,3464.04 4197,3508.5C 4208.37,3557.91 4201.37,3604.58 4176,3648.5C 4151.44,3688.03 4120.94,3722.53 4084.5,3752C 4060.65,3771.84 4035.15,3789.34 4008,3804.5C 3977.17,3780.33 3946.33,3756.17 3915.5,3732C 3882.26,3717.88 3849.93,3719.55 3818.5,3737C 3801.78,3748.9 3790.28,3764.74 3784,3784.5C 3780.6,3794.05 3777.6,3803.71 3775,3813.5C 3770.44,3835.36 3765.94,3857.19 3761.5,3879C 3790.52,3903.7 3819.19,3928.7 3847.5,3954C 3800.07,4026.69 3749.57,4097.19 3696,4165.5C 3627.52,4248 3554.02,4326.16 3475.5,4400C 3330.51,4534.21 3169.18,4645.21 2991.5,4733C 2726.33,4860.24 2446.49,4923.07 2152,4921.5C 1719.88,4921.35 1332.04,4792.18 988.5,4534C 815.232,4401.74 664.732,4247.57 537,4071.5C 509.761,4032.6 482.928,3993.43 456.5,3954C 485.517,3927.98 514.85,3902.32 544.5,3877C 540.751,3859.59 537.251,3842.09 534,3824.5C 529.695,3801.92 522.029,3780.58 511,3760.5C 497.277,3740.7 478.443,3728.54 454.5,3724C 431.951,3720.65 410.284,3723.65 389.5,3733C 359.53,3757.32 329.196,3781.15 298.5,3804.5C 244.628,3773.81 197.461,3734.81 157,3687.5C 132.351,3657.53 115.684,3623.53 107,3585.5C 99.1417,3535.79 108.808,3489.79 136,3447.5C 147.944,3429.21 161.777,3412.38 177.5,3397C 269.439,3317.84 360.439,3237.51 450.5,3156C 506.999,3113.62 570.665,3095.62 641.5,3102C 651.898,3102.69 662.232,3103.86 672.5,3105.5C 644.64,2971.93 628.807,2836.93 625,2700.5C 625.469,1839.83 625.636,979.168 625.5,118.5 Z"/></g>
<g><path style="opacity:1" fill="#1b449c" d="M 687.5,181.5 C 1663.5,181.5 2639.5,181.5 3615.5,181.5C 3615.17,981 3615.5,1780.33 3616.5,2579.5C 3621.67,2773.86 3601.5,2965.53 3556,3154.5C 3522.07,3290.26 3469.74,3418.59 3399,3539.5C 3385,3562.99 3370.83,3586.32 3356.5,3609.5C 3356.67,3610.17 3356.83,3610.83 3357,3611.5C 3492.83,3729.33 3628.67,3847.17 3764.5,3965C 3712.65,4043.2 3655.82,4117.7 3594,4188.5C 3486.18,4311.02 3366.68,4419.85 3235.5,4515C 2910.3,4745.05 2547.46,4859.88 2147,4859.5C 1767.86,4858.7 1421.7,4753.2 1108.5,4543C 965.047,4444.61 835.214,4329.77 719,4198.5C 653.594,4124.64 593.761,4046.64 539.5,3964.5C 675.622,3846.88 811.622,3729.05 947.5,3611C 889.959,3521.09 841.459,3426.26 802,3326.5C 767.936,3234.93 741.936,3140.93 724,3044.5C 699.015,2906.18 686.515,2766.68 686.5,2626C 687.488,1811.17 687.821,996.334 687.5,181.5 Z"/></g>
<g><path style="opacity:1" fill="#fefefe" d="M 821.5,315.5 C 1708.5,315.5 2595.5,315.5 3482.5,315.5C 3482.67,1111.83 3482.5,1908.17 3482,2704.5C 3477.38,2869.52 3452.38,3031.19 3407,3189.5C 3380.4,3277.18 3344.73,3361.18 3300,3441.5C 3210.71,3604.19 3097.21,3748.36 2959.5,3874C 2667.67,4130.94 2328.33,4229.94 1941.5,4171C 1751.38,4136.91 1580.04,4061.57 1427.5,3945C 1311,3854.5 1209.5,3749.67 1123,3630.5C 1052.02,3532.93 992.022,3428.59 943,3317.5C 933.868,3295.26 925.201,3272.93 917,3250.5C 871.519,3114.77 842.519,2975.44 830,2832.5C 825.583,2783.25 822.583,2733.92 821,2684.5C 821.474,1894.84 821.64,1105.17 821.5,315.5 Z"/></g>
<g><path style="opacity:1" fill="#e03a3e" d="M 952.5,893.5 C 952.171,879.656 952.504,865.99 953.5,852.5C 977.331,884.835 1007.33,909.669 1043.5,927C 1074.2,941.43 1105.53,943.097 1137.5,932C 1167.23,919.697 1181.06,897.53 1179,865.5C 1173.75,848.913 1163.91,835.747 1149.5,826C 1122.43,809.128 1094.43,793.795 1065.5,780C 1036.62,765.07 1009.62,747.403 984.5,727C 938.325,685.508 926.491,635.675 949,577.5C 960.066,553.768 976.232,534.268 997.5,519C 1032.78,496.127 1071.45,482.793 1113.5,479C 1170.16,472.961 1225.83,477.794 1280.5,493.5C 1281.86,537.826 1282.36,582.159 1282,626.5C 1254.42,592.291 1219.92,567.791 1178.5,553C 1159.48,547.401 1140.14,546.068 1120.5,549C 1097.3,553.512 1080.47,566.346 1070,587.5C 1064.47,604.364 1067.13,619.697 1078,633.5C 1082.5,638 1087,642.5 1091.5,647C 1108.36,659.517 1126.03,670.85 1144.5,681C 1177.2,698.681 1209.86,716.348 1242.5,734C 1269.95,749.784 1291.78,771.284 1308,798.5C 1319.1,821.37 1322.44,845.37 1318,870.5C 1306.06,930.464 1271.89,972.631 1215.5,997C 1161.04,1018.02 1104.71,1025.35 1046.5,1019C 1014.83,1016.3 983.834,1010.47 953.5,1001.5C 952.847,965.504 952.514,929.504 952.5,893.5 Z"/></g>
<g><path style="opacity:1" fill="#e03a3e" d="M 2055.5,476.5 C 2151.1,472.069 2230.6,505.402 2294,576.5C 2343.23,637.752 2363.56,707.752 2355,786.5C 2341.48,897.657 2281.98,971.49 2176.5,1008C 2100.09,1029.99 2024.75,1026.99 1950.5,999C 1878.59,967.758 1831.42,914.591 1809,839.5C 1794.7,785.652 1794.03,731.652 1807,677.5C 1837.34,582.159 1900.17,518.993 1995.5,488C 2015.31,482.534 2035.31,478.701 2055.5,476.5 Z"/></g>
<g><path style="opacity:1" fill="#f3b5b7" d="M 1352.5,480.5 C 1511.33,479.167 1670.33,479.167 1829.5,480.5C 1829.38,481.107 1829.04,481.44 1828.5,481.5C 1670,480.5 1511.33,480.167 1352.5,480.5 Z"/></g>
<g><path style="opacity:1" fill="#f3b5b7" d="M 2581.5,481.5 C 2518.83,480.167 2456.17,480.167 2393.5,481.5C 2392.96,481.44 2392.62,481.107 2392.5,480.5C 2455.83,479.167 2519.17,479.167 2582.5,480.5C 2582.38,481.107 2582.04,481.44 2581.5,481.5 Z"/></g>
<g><path style="opacity:1" fill="#f2b4b6" d="M 2952.5,481.5 C 2883,480.501 2813.34,480.167 2743.5,480.5C 2743.5,481.833 2743.5,483.167 2743.5,484.5C 2742.55,483.081 2742.22,481.415 2742.5,479.5C 2812.84,479.167 2883.17,479.5 2953.5,480.5C 2953.38,481.107 2953.04,481.44 2952.5,481.5 Z"/></g>
<g><path style="opacity:1" fill="#f3b4b6" d="M 3353.5,482.5 C 3293.17,481.167 3232.5,480.5 3171.5,480.5C 3110.5,480.5 3049.83,481.167 2989.5,482.5C 2988.6,481.791 2988.26,480.791 2988.5,479.5C 3110.5,479.5 3232.5,479.5 3354.5,479.5C 3354.74,480.791 3354.4,481.791 3353.5,482.5 Z"/></g>
<g><path style="opacity:1" fill="#e03a3e" d="M 1352.5,480.5 C 1511.33,480.167 1670,480.5 1828.5,481.5C 1811.25,516.326 1794.25,551.326 1777.5,586.5C 1734.93,565.702 1689.93,555.035 1642.5,554.5C 1640.74,553.539 1638.74,553.205 1636.5,553.5C 1636.17,668.335 1636.5,783.001 1637.5,897.5C 1638.65,938.601 1647.32,977.934 1663.5,1015.5C 1600.83,1016.83 1538.17,1016.83 1475.5,1015.5C 1491.78,977.968 1500.44,938.634 1501.5,897.5C 1502.5,783.001 1502.83,668.335 1502.5,553.5C 1500.9,553.232 1499.57,553.566 1498.5,554.5C 1434.53,557.743 1373.53,572.743 1315.5,599.5C 1315.17,599 1314.83,598.5 1314.5,598C 1327.35,558.915 1340.02,519.749 1352.5,480.5 Z"/></g>
<g><path style="opacity:1" fill="#e03a3e" d="M 2581.5,481.5 C 2564.93,517.995 2556.27,556.329 2555.5,596.5C 2554.34,638.665 2554.17,680.998 2555,723.5C 2555.72,722.956 2556.22,722.289 2556.5,721.5C 2612.43,657.73 2668.6,594.063 2725,530.5C 2730.83,522.671 2735.83,514.337 2740,505.5C 2742.39,498.699 2743.56,491.699 2743.5,484.5C 2743.5,483.167 2743.5,481.833 2743.5,480.5C 2813.34,480.167 2883,480.501 2952.5,481.5C 2918.59,501.624 2886.59,524.457 2856.5,550C 2803.1,606.065 2750.43,662.731 2698.5,720C 2764.33,797.833 2830.17,875.667 2896,953.5C 2916.8,975.468 2938.63,996.135 2961.5,1015.5C 2892,1016.5 2822.34,1016.83 2752.5,1016.5C 2756.7,991.975 2751.2,969.975 2736,950.5C 2676.4,878.285 2616.56,806.285 2556.5,734.5C 2556.44,733.957 2556.11,733.624 2555.5,733.5C 2554.17,788.665 2554.17,843.665 2555.5,898.5C 2556.25,939.731 2564.92,979.064 2581.5,1016.5C 2518.66,1016.83 2456,1016.5 2393.5,1015.5C 2409.06,980.191 2417.56,943.191 2419,904.5C 2419.67,800.167 2419.67,695.833 2419,591.5C 2417.81,553.047 2409.31,516.381 2393.5,481.5C 2456.17,480.167 2518.83,480.167 2581.5,481.5 Z"/></g>
<g><path style="opacity:1" fill="#e03a3e" d="M 3353.5,482.5 C 3333.48,516.025 3313.81,549.858 3294.5,584C 3274.91,577.876 3254.91,572.876 3234.5,569C 3207.02,564.357 3179.36,561.857 3151.5,561.5C 3150.5,610.664 3150.17,659.997 3150.5,709.5C 3212.34,709.168 3274,709.501 3335.5,710.5C 3312.52,742.433 3289.52,774.433 3266.5,806.5C 3245.45,794.401 3222.79,787.235 3198.5,785C 3188.53,783.946 3178.53,783.446 3168.5,783.5C 3162.69,782.51 3156.69,782.177 3150.5,782.5C 3150.5,834.167 3150.5,885.833 3150.5,937.5C 3154.5,937.5 3158.5,937.5 3162.5,937.5C 3228.88,941.065 3294.55,935.898 3359.5,922C 3371.77,918.576 3383.94,914.743 3396,910.5C 3396.5,910.833 3397,911.167 3397.5,911.5C 3380.55,946.4 3363.88,981.4 3347.5,1016.5C 3228,1016.83 3108.67,1016.5 2989.5,1015.5C 3003.86,981.739 3012.36,946.406 3015,909.5C 3015.67,802.833 3015.67,696.167 3015,589.5C 3013.32,552.022 3004.82,516.355 2989.5,482.5C 3049.83,481.167 3110.5,480.5 3171.5,480.5C 3232.5,480.5 3293.17,481.167 3353.5,482.5 Z"/></g>
<g><path style="opacity:1" fill="#fefefe" d="M 2067.5,540.5 C 2114.91,540.09 2149.74,560.756 2172,602.5C 2190.48,639.28 2200.81,678.28 2203,719.5C 2206.67,768.127 2200.67,815.46 2185,861.5C 2177.36,883.431 2166.03,903.098 2151,920.5C 2119.92,951.051 2083.42,959.884 2041.5,947C 2018.81,937.653 2000.98,922.487 1988,901.5C 1968.12,867.124 1956.12,830.124 1952,790.5C 1945.65,737.365 1950.65,685.365 1967,634.5C 1976.89,604.169 1994.06,579.002 2018.5,559C 2033.42,548.862 2049.76,542.695 2067.5,540.5 Z"/></g>
<g><path style="opacity:1" fill="#f0a6a8" d="M 1498.5,554.5 C 1499.57,553.566 1500.9,553.232 1502.5,553.5C 1502.83,668.335 1502.5,783.001 1501.5,897.5C 1501.5,783.167 1501.5,668.833 1501.5,554.5C 1500.5,554.5 1499.5,554.5 1498.5,554.5 Z"/></g>
<g><path style="opacity:1" fill="#f0a7a9" d="M 1642.5,554.5 C 1640.83,554.5 1639.17,554.5 1637.5,554.5C 1637.5,668.833 1637.5,783.167 1637.5,897.5C 1636.5,783.001 1636.17,668.335 1636.5,553.5C 1638.74,553.205 1640.74,553.539 1642.5,554.5 Z"/></g>
<g><path style="opacity:1" fill="#f2afb1" d="M 2555.5,596.5 C 2555.17,638.337 2555.5,680.003 2556.5,721.5C 2556.22,722.289 2555.72,722.956 2555,723.5C 2554.17,680.998 2554.34,638.665 2555.5,596.5 Z"/></g>
<g><path style="opacity:1" fill="#f7d1d2" d="M 3151.5,561.5 C 3151.5,610.5 3151.5,659.5 3151.5,708.5C 3213.17,708.167 3274.84,708.5 3336.5,709.5C 3336.38,710.107 3336.04,710.44 3335.5,710.5C 3274,709.501 3212.34,709.168 3150.5,709.5C 3150.17,659.997 3150.5,610.664 3151.5,561.5 Z"/></g>
<g><path style="opacity:1" fill="#f2b0b2" d="M 2556.5,734.5 C 2555.5,788.997 2555.17,843.664 2555.5,898.5C 2554.17,843.665 2554.17,788.665 2555.5,733.5C 2556.11,733.624 2556.44,733.957 2556.5,734.5 Z"/></g>
<g><path style="opacity:1" fill="#f8d3d4" d="M 3168.5,783.5 C 3162.83,783.5 3157.17,783.5 3151.5,783.5C 3151.5,834.5 3151.5,885.5 3151.5,936.5C 3155.37,936.185 3159.04,936.518 3162.5,937.5C 3158.5,937.5 3154.5,937.5 3150.5,937.5C 3150.5,885.833 3150.5,834.167 3150.5,782.5C 3156.69,782.177 3162.69,782.51 3168.5,783.5 Z"/></g>
<g><path style="opacity:1" fill="#ed8b8d" d="M 953.5,852.5 C 952.504,865.99 952.171,879.656 952.5,893.5C 951.339,879.339 951.173,865.006 952,850.5C 952.717,851.044 953.217,851.711 953.5,852.5 Z"/></g>
<g><path style="opacity:1" fill="#ec8587" d="M 1475.5,1015.5 C 1538.17,1016.83 1600.83,1016.83 1663.5,1015.5C 1664.04,1015.56 1664.38,1015.89 1664.5,1016.5C 1601.17,1017.83 1537.83,1017.83 1474.5,1016.5C 1474.62,1015.89 1474.96,1015.56 1475.5,1015.5 Z"/></g>
<g><path style="opacity:1" fill="#ec8486" d="M 2393.5,1015.5 C 2456,1016.5 2518.66,1016.83 2581.5,1016.5C 2518.67,1017.83 2455.67,1017.83 2392.5,1016.5C 2392.62,1015.89 2392.96,1015.56 2393.5,1015.5 Z"/></g>
<g><path style="opacity:1" fill="#ec8486" d="M 2961.5,1015.5 C 2962.29,1015.78 2962.96,1016.28 2963.5,1017C 2893,1017.83 2822.67,1017.67 2752.5,1016.5C 2822.34,1016.83 2892,1016.5 2961.5,1015.5 Z"/></g>
<g><path style="opacity:1" fill="#ec8486" d="M 2989.5,1015.5 C 3108.67,1016.5 3228,1016.83 3347.5,1016.5C 3228,1017.83 3108.33,1017.83 2988.5,1016.5C 2988.62,1015.89 2988.96,1015.56 2989.5,1015.5 Z"/></g>
<g><path style="opacity:1" fill="#4764ad" d="M 687.5,181.5 C 1663.67,180.5 2640,180.167 3616.5,180.5C 3616.5,980.167 3616.5,1779.83 3616.5,2579.5C 3615.5,1780.33 3615.17,981 3615.5,181.5C 2639.5,181.5 1663.5,181.5 687.5,181.5 Z"/></g>
<g><path style="opacity:1" fill="#e03a3e" d="M 956.5,1130.5 C 1117.17,1130.5 1277.83,1130.5 1438.5,1130.5C 1439.23,2013.83 1439.4,2897.17 1439,3780.5C 1336.55,3688.77 1248.88,3585.1 1176,3469.5C 1122.7,3386.66 1078.7,3298.99 1044,3206.5C 1004.34,3088.17 978.341,2966.83 966,2842.5C 960.768,2791.3 957.435,2739.96 956,2688.5C 956.454,2169.17 956.621,1649.84 956.5,1130.5 Z"/></g>
<g><path style="opacity:1" fill="#e03a3e" d="M 1750.5,1130.5 C 1790,1129.45 1828.67,1134.45 1866.5,1145.5C 1866.83,1178.51 1866.5,1211.51 1865.5,1244.5C 1839.42,1219.96 1808.75,1204.12 1773.5,1197C 1732.73,1189.75 1696.4,1199.08 1664.5,1225C 1633.43,1257.41 1621.93,1295.91 1630,1340.5C 1639.69,1388.86 1668.19,1420.02 1715.5,1434C 1749.67,1442.4 1783.34,1440.73 1816.5,1429C 1829.53,1423.29 1841.53,1415.95 1852.5,1407C 1859.67,1399.83 1866.83,1392.67 1874,1385.5C 1869.79,1416.77 1865.63,1448.11 1861.5,1479.5C 1807.41,1499.01 1751.75,1505.84 1694.5,1500C 1637.83,1492.43 1591.67,1466.6 1556,1422.5C 1533.86,1389.96 1524.2,1353.96 1527,1314.5C 1533,1258.66 1558.5,1214.16 1603.5,1181C 1647.79,1150.29 1696.79,1133.46 1750.5,1130.5 Z"/></g>
<g><path style="opacity:1" fill="#e03a3e" d="M 2865.5,1130.5 C 3026.17,1130.5 3186.83,1130.5 3347.5,1130.5C 3347.38,1649.17 3347.55,2167.84 3348,2686.5C 3344.65,2837.51 3323.31,2985.84 3284,3131.5C 3264.79,3197.12 3240.46,3260.78 3211,3322.5C 3135.89,3473.55 3039.06,3609.05 2920.5,3729C 2902.48,3746.75 2883.98,3763.91 2865,3780.5C 2864.52,2897.17 2864.69,2013.83 2865.5,1130.5 Z"/></g>
<g><path style="opacity:1" fill="#e86e71" d="M 2409.5,1135.5 C 2304.93,1134.17 2200.26,1134.17 2095.5,1135.5C 2147.66,1134.17 2200.16,1133.5 2253,1133.5C 2305.5,1133.83 2358,1134.17 2410.5,1134.5C 2410.38,1135.11 2410.04,1135.44 2409.5,1135.5 Z"/></g>
<g><path style="opacity:1" fill="#e86f72" d="M 2552.5,1134.5 C 2508.33,1134.17 2464.33,1134.5 2420.5,1135.5C 2419.71,1135.22 2419.04,1134.72 2418.5,1134C 2463.9,1133.17 2508.57,1133.34 2552.5,1134.5 Z"/></g>
<g><path style="opacity:1" fill="#e86e71" d="M 2670.5,1134.5 C 2711.66,1133.34 2753,1133.17 2794.5,1134C 2793.96,1134.72 2793.29,1135.22 2792.5,1135.5C 2752,1134.5 2711.34,1134.17 2670.5,1134.5 Z"/></g>
<g><path style="opacity:1" fill="#e03a3e" d="M 1914.5,1134.5 C 1959,1133.34 2003.66,1133.17 2048.5,1134C 2038.39,1153.59 2032.22,1174.43 2030,1196.5C 2028.88,1236.82 2028.38,1277.15 2028.5,1317.5C 2028.37,1356.52 2028.87,1395.52 2030,1434.5C 2032.53,1456.76 2038.7,1477.93 2048.5,1498C 2003.83,1498.67 1959.17,1498.67 1914.5,1498C 1924.31,1477.59 1930.48,1456.09 1933,1433.5C 1934.1,1393.01 1934.6,1352.51 1934.5,1312C 1934.63,1273.82 1934.13,1235.65 1933,1197.5C 1930.99,1181.13 1927.33,1165.13 1922,1149.5C 1919.98,1144.13 1917.48,1139.13 1914.5,1134.5 Z"/></g>
<g><path style="opacity:1" fill="#e03a3e" d="M 2409.5,1135.5 C 2397.84,1161.48 2385.68,1187.14 2373,1212.5C 2345.52,1198.51 2316.35,1191.18 2285.5,1190.5C 2285.33,1269.17 2285.5,1347.83 2286,1426.5C 2288.06,1450.83 2293.89,1474.16 2303.5,1496.5C 2259.83,1497.83 2216.17,1497.83 2172.5,1496.5C 2183.81,1471.78 2189.98,1445.78 2191,1418.5C 2191.5,1342.5 2191.67,1266.5 2191.5,1190.5C 2148.54,1193.07 2107.87,1204.07 2069.5,1223.5C 2069.17,1223 2068.83,1222.5 2068.5,1222C 2077.43,1193.11 2086.43,1164.27 2095.5,1135.5C 2200.26,1134.17 2304.93,1134.17 2409.5,1135.5 Z"/></g>
<g><path style="opacity:1" fill="#e03a3e" d="M 2420.5,1135.5 C 2464.33,1134.5 2508.33,1134.17 2552.5,1134.5C 2550.66,1144.13 2551.5,1153.47 2555,1162.5C 2574.94,1192.77 2595.28,1222.77 2616,1252.5C 2633.4,1224.76 2650.4,1196.76 2667,1168.5C 2671.44,1157.51 2672.61,1146.17 2670.5,1134.5C 2711.34,1134.17 2752,1134.5 2792.5,1135.5C 2775.85,1150.65 2760.35,1166.98 2746,1184.5C 2716.75,1227.33 2687.75,1270.33 2659,1313.5C 2658.1,1352.18 2658.43,1390.85 2660,1429.5C 2661.72,1452.97 2667.56,1475.3 2677.5,1496.5C 2633.83,1497.83 2590.17,1497.83 2546.5,1496.5C 2554.62,1477.92 2560.12,1458.59 2563,1438.5C 2564.59,1401.52 2564.92,1364.52 2564,1327.5C 2533.67,1284.17 2503.33,1240.83 2473,1197.5C 2457.14,1175.47 2439.64,1154.8 2420.5,1135.5 Z"/></g>
<g><path style="opacity:1" fill="#ed8c8e" d="M 2172.5,1496.5 C 2216.17,1497.83 2259.83,1497.83 2303.5,1496.5C 2304.04,1496.56 2304.38,1496.89 2304.5,1497.5C 2260.17,1498.83 2215.83,1498.83 2171.5,1497.5C 2171.62,1496.89 2171.96,1496.56 2172.5,1496.5 Z"/></g>
<g><path style="opacity:1" fill="#ed8c8f" d="M 2546.5,1496.5 C 2590.17,1497.83 2633.83,1497.83 2677.5,1496.5C 2678.04,1496.56 2678.38,1496.89 2678.5,1497.5C 2634.17,1498.83 2589.83,1498.83 2545.5,1497.5C 2545.62,1496.89 2545.96,1496.56 2546.5,1496.5 Z"/></g>
<g><path style="opacity:1" fill="#df3a3d" d="M 1905.5,1603.5 C 2068.83,1603.5 2232.17,1603.5 2395.5,1603.5C 2395.5,2242.83 2395.5,2882.17 2395.5,3521.5C 2232.17,3521.5 2068.83,3521.5 1905.5,3521.5C 1905.5,2882.17 1905.5,2242.83 1905.5,1603.5 Z"/></g>
<g><path style="opacity:1" fill="#eb8082" d="M 1905.5,1603.5 C 2069,1602.5 2232.67,1602.17 2396.5,1602.5C 2396.5,2242.5 2396.5,2882.5 2396.5,3522.5C 2232.67,3522.83 2069,3522.5 1905.5,3521.5C 2068.83,3521.5 2232.17,3521.5 2395.5,3521.5C 2395.5,2882.17 2395.5,2242.83 2395.5,1603.5C 2232.17,1603.5 2068.83,1603.5 1905.5,1603.5 Z"/></g>
<g><path style="opacity:1" fill="#e03a3e" d="M 3673.5,3156.5 C 3732.1,3153.39 3779.93,3174.39 3817,3219.5C 3838.23,3247.64 3850.9,3279.31 3855,3314.5C 3860.18,3362.31 3842.34,3398.48 3801.5,3423C 3774,3437.94 3745,3448.94 3714.5,3456C 3671.94,3464.86 3628.94,3470.36 3585.5,3472.5C 3672.69,3542.19 3760.02,3611.69 3847.5,3681C 3810.59,3670.85 3779.42,3680.02 3754,3708.5C 3741.72,3724.39 3732.06,3741.72 3725,3760.5C 3717.22,3784.01 3711.39,3808.01 3707.5,3832.5C 3624.69,3761.52 3542.02,3690.35 3459.5,3619C 3451.66,3611.99 3443.99,3604.82 3436.5,3597.5C 3518.08,3463.58 3577.92,3320.58 3616,3168.5C 3634.72,3161.99 3653.89,3157.99 3673.5,3156.5 Z"/></g>
<g><path style="opacity:1" fill="#e03a3e" d="M 592.5,3159.5 C 625.209,3157.45 657.209,3161.11 688.5,3170.5C 720.695,3302.27 769.862,3427.27 836,3545.5C 846.381,3563.76 856.881,3581.93 867.5,3600C 777.639,3678.61 687.306,3756.78 596.5,3834.5C 591.836,3798.66 581.336,3764.66 565,3732.5C 554.142,3713.64 539.308,3698.81 520.5,3688C 500.05,3678.69 479.05,3677.03 457.5,3683C 544.318,3613.43 631.318,3544.09 718.5,3475C 681.914,3473.15 645.581,3469.15 609.5,3463C 576.864,3457.01 545.531,3447.01 515.5,3433C 459.821,3404.8 438.654,3359.96 452,3298.5C 462.323,3248.53 488.823,3209.7 531.5,3182C 550.351,3170.22 570.684,3162.72 592.5,3159.5 Z"/></g>
<g><path style="opacity:1" fill="#1b449c" d="M 3893.5,3260.5 C 3951,3311.16 4008.67,3361.66 4066.5,3412C 4079.63,3423.47 4092.47,3435.3 4105,3447.5C 4155.18,3503.27 4161.18,3563.61 4123,3628.5C 4100.04,3663.13 4071.88,3692.96 4038.5,3718C 4026.94,3726.56 4015.11,3734.72 4003,3742.5C 3898.67,3660.99 3794.5,3579.33 3690.5,3497.5C 3731.76,3494.68 3771.76,3486.18 3810.5,3472C 3892.1,3436.32 3922.93,3374.82 3903,3287.5C 3900.51,3278.21 3897.35,3269.21 3893.5,3260.5 Z"/></g>
<g><path style="opacity:1" fill="#1b449c" d="M 408.5,3263.5 C 409.239,3263.37 409.906,3263.54 410.5,3264C 397.478,3293.82 392.644,3324.98 396,3357.5C 403.652,3405.48 428.819,3440.98 471.5,3464C 495.899,3476.58 521.566,3485.58 548.5,3491C 570.058,3494.74 591.724,3497.74 613.5,3500C 509.322,3581.51 405.156,3663.01 301,3744.5C 256.062,3717.57 218.062,3682.9 187,3640.5C 141.305,3571.03 146.639,3506.03 203,3445.5C 268.833,3387.67 334.667,3329.83 400.5,3272C 403.421,3269.25 406.088,3266.42 408.5,3263.5 Z"/></g>
<g><path style="opacity:1" fill="#1c449c" d="M 2504.5,3600.5 C 2534.65,3597.21 2562.65,3603.37 2588.5,3619C 2619.65,3642.11 2630.82,3672.61 2622,3710.5C 2618.67,3718.99 2613.5,3726.16 2606.5,3732C 2597.83,3738.67 2588.5,3744.34 2578.5,3749C 2617.82,3747.54 2643.32,3765.37 2655,3802.5C 2671.66,3869.63 2653.16,3924.8 2599.5,3968C 2568.89,3989.13 2535.22,4003.46 2498.5,4011C 2468.47,4017.42 2438.13,4020.59 2407.5,4020.5C 2415.69,4011.46 2421.86,4001.12 2426,3989.5C 2431.92,3972.16 2436.42,3954.49 2439.5,3936.5C 2443.17,3935.16 2446.84,3933.83 2450.5,3932.5C 2465.58,3954.2 2486.25,3963.04 2512.5,3959C 2530.39,3953.44 2542.89,3941.94 2550,3924.5C 2559.94,3897.73 2563.94,3870.06 2562,3841.5C 2558.38,3812.88 2542.21,3797.71 2513.5,3796C 2492.74,3796.21 2472.07,3797.71 2451.5,3800.5C 2452.22,3783.51 2452.56,3766.51 2452.5,3749.5C 2476.1,3750.75 2498.1,3745.58 2518.5,3734C 2533.4,3720.15 2540.4,3702.99 2539.5,3682.5C 2540.08,3656.42 2527.42,3643.09 2501.5,3642.5C 2484.38,3642.37 2470.22,3648.7 2459,3661.5C 2451.83,3671.83 2445.17,3682.5 2439,3693.5C 2438.44,3694.02 2437.77,3694.36 2437,3694.5C 2434.11,3693.3 2431.27,3691.97 2428.5,3690.5C 2425.88,3671.57 2424.38,3652.57 2424,3633.5C 2437.22,3620.13 2453.06,3611.3 2471.5,3607C 2482.47,3603.97 2493.47,3601.81 2504.5,3600.5 Z"/></g>
<g><path style="opacity:1" fill="#1c449c" d="M 1793.5,3607.5 C 1798.13,3609.77 1802.8,3612.11 1807.5,3614.5C 1807.83,3617 1808.17,3619.5 1808.5,3622C 1807.36,3694.83 1807.19,3767.66 1808,3840.5C 1810.87,3894.74 1814.87,3948.41 1820,4001.5C 1781.53,3986.27 1744.2,3968.6 1708,3948.5C 1716.7,3865.43 1720.03,3782.1 1718,3698.5C 1717.83,3694.13 1717.33,3689.8 1716.5,3685.5C 1706.05,3687.81 1696.55,3692.14 1688,3698.5C 1679.17,3685 1670.33,3671.5 1661.5,3658C 1689.73,3648.48 1718.06,3639.15 1746.5,3630C 1762.78,3623.53 1778.44,3616.03 1793.5,3607.5 Z"/></g>
<g><path style="opacity:1" fill="#1c449c" d="M 1970.5,3609.5 C 2001.13,3606.77 2030.13,3612.27 2057.5,3626C 2079.6,3640.35 2093.1,3660.51 2098,3686.5C 2104.14,3717.77 2098.81,3746.77 2082,3773.5C 2071.79,3786.52 2058.96,3796.02 2043.5,3802C 2063.09,3810.92 2078.26,3824.76 2089,3843.5C 2115.86,3891.24 2121.19,3941.24 2105,3993.5C 2092.67,4022.76 2070.84,4040.26 2039.5,4046C 1991.16,4049.72 1945.83,4039.72 1903.5,4016C 1873.34,3996.1 1856.84,3967.94 1854,3931.5C 1850.84,3901.62 1855.84,3873.29 1869,3846.5C 1881.61,3824.93 1899.77,3810.1 1923.5,3802C 1884.47,3783.65 1865.8,3752.65 1867.5,3709C 1869.36,3665.49 1890.36,3635.49 1930.5,3619C 1943.64,3614.48 1956.97,3611.31 1970.5,3609.5 Z"/></g>
<g><path style="opacity:1" fill="#1c449c" d="M 2265.5,3609.5 C 2281.53,3609.25 2297.53,3609.75 2313.5,3611C 2327.23,3613.34 2340.89,3616.01 2354.5,3619C 2359.58,3620.8 2364.58,3622.8 2369.5,3625C 2370.02,3625.56 2370.36,3626.23 2370.5,3627C 2366.87,3648.36 2364.21,3669.86 2362.5,3691.5C 2359.77,3693.55 2356.77,3694.38 2353.5,3694C 2346.26,3680.76 2336.26,3670.1 2323.5,3662C 2301.48,3652.39 2282.64,3656.56 2267,3674.5C 2253.88,3694.51 2245.88,3716.51 2243,3740.5C 2239.6,3761.72 2238.27,3783.05 2239,3804.5C 2260.78,3785.05 2286.28,3777.22 2315.5,3781C 2357.18,3787.34 2384.01,3810.84 2396,3851.5C 2402.06,3874.43 2404.06,3897.77 2402,3921.5C 2398.33,3986.14 2365.83,4028.3 2304.5,4048C 2281.25,4054.87 2257.58,4057.2 2233.5,4055C 2202.09,4048.89 2178.93,4031.72 2164,4003.5C 2152.18,3979.88 2145.18,3954.88 2143,3928.5C 2138.94,3868.78 2141.94,3809.45 2152,3750.5C 2158.38,3712.98 2172.72,3678.98 2195,3648.5C 2213.77,3626.7 2237.27,3613.7 2265.5,3609.5 Z"/></g>
<g><path style="opacity:1" fill="#fdfdfe" d="M 1975.5,3650.5 C 1998.25,3647.42 2012.09,3657.09 2017,3679.5C 2022.9,3708.97 2021.24,3737.97 2012,3766.5C 2003.54,3781.84 1990.7,3787.34 1973.5,3783C 1963.18,3778.68 1956.34,3771.18 1953,3760.5C 1947.8,3739.48 1946.13,3718.14 1948,3696.5C 1948.82,3680.71 1954.65,3667.21 1965.5,3656C 1968.77,3653.87 1972.1,3652.04 1975.5,3650.5 Z"/></g>
<g><path style="opacity:1" fill="#fdfdfe" d="M 965.5,3780.5 C 967.371,3780.86 968.871,3781.86 970,3783.5C 992.602,3809.11 1015.6,3834.44 1039,3859.5C 1064.35,3884.35 1089.85,3909.02 1115.5,3933.5C 1104.54,3942.62 1094.38,3952.62 1085,3963.5C 1071.14,3944.64 1055.97,3926.81 1039.5,3910C 1038.5,3909.33 1037.5,3909.33 1036.5,3910C 970.655,3970.68 907.321,4033.85 846.5,4099.5C 839.842,4092.01 833.342,4084.34 827,4076.5C 815.958,4065.95 804.791,4055.62 793.5,4045.5C 861.569,3986.94 926.735,3924.94 989,3859.5C 989.667,3858.83 989.667,3858.17 989,3857.5C 972.01,3840.77 954.177,3825.11 935.5,3810.5C 946.521,3801.48 956.521,3791.48 965.5,3780.5 Z"/></g>
<g><path style="opacity:1" fill="#fdfdfe" d="M 3300.5,3819.5 C 3301.5,3819.41 3302.33,3819.75 3303,3820.5C 3313.05,3838.11 3324.22,3854.94 3336.5,3871C 3335.31,3872.35 3333.98,3873.52 3332.5,3874.5C 3318.48,3868.23 3303.81,3865.73 3288.5,3867C 3270.08,3872.42 3256.91,3883.92 3249,3901.5C 3242.7,3926.06 3251.2,3943.23 3274.5,3953C 3281.22,3953.71 3287.88,3953.38 3294.5,3952C 3320.22,3942.98 3345.88,3933.98 3371.5,3925C 3396.59,3917 3420.59,3919.33 3443.5,3932C 3496.15,3968.11 3507.99,4014.61 3479,4071.5C 3459.99,4102.17 3434.33,4125.51 3402,4141.5C 3386.36,4122.93 3370.69,4104.26 3355,4085.5C 3354.1,4082.21 3355.27,4079.87 3358.5,4078.5C 3396.47,4102.01 3427.3,4095.01 3451,4057.5C 3461.74,4029.13 3453.24,4008.63 3425.5,3996C 3414.34,3993.79 3403.34,3994.45 3392.5,3998C 3369.44,4006.8 3346.11,4014.8 3322.5,4022C 3293.59,4029.35 3267.92,4023.35 3245.5,4004C 3206.39,3968.48 3199.55,3927.64 3225,3881.5C 3243.24,3852.17 3268.4,3831.5 3300.5,3819.5 Z"/></g>
<g><path style="opacity:1" fill="#fdfdfe" d="M 1976.5,3825.5 C 1990.12,3823.31 2000.95,3827.64 2009,3838.5C 2017.84,3855 2022.5,3872.67 2023,3891.5C 2024.17,3914.64 2022.84,3937.64 2019,3960.5C 2016.63,3972.74 2011.46,3983.57 2003.5,3993C 1992.66,4001.3 1980.99,4002.63 1968.5,3997C 1958.71,3989.95 1952.55,3980.45 1950,3968.5C 1942.81,3931.81 1942.81,3895.15 1950,3858.5C 1952.78,3846.42 1958.95,3836.58 1968.5,3829C 1971.16,3827.52 1973.82,3826.36 1976.5,3825.5 Z"/></g>
<g><path style="opacity:1" fill="#fdfdfe" d="M 2265.5,3834.5 C 2278.76,3831.73 2289.26,3835.73 2297,3846.5C 2305.28,3864.19 2309.28,3882.86 2309,3902.5C 2310.29,3930.51 2307.96,3958.17 2302,3985.5C 2299.21,3994.62 2294.38,4002.45 2287.5,4009C 2273.78,4015.88 2262.61,4013.05 2254,4000.5C 2250.78,3994.74 2248.12,3988.74 2246,3982.5C 2239.79,3952.14 2237.79,3921.47 2240,3890.5C 2240.88,3874.96 2244.88,3860.29 2252,3846.5C 2255.45,3841.21 2259.95,3837.21 2265.5,3834.5 Z"/></g>
<g><path style="opacity:1" fill="#fdfdfe" d="M 1157.5,3983.5 C 1167.61,3992.44 1177.61,4001.61 1187.5,4011C 1196.72,4017.73 1206.05,4024.23 1215.5,4030.5C 1188.55,4060.28 1162.55,4090.78 1137.5,4122C 1163.86,4148.06 1192.2,4171.39 1222.5,4192C 1248.48,4161.03 1273.31,4129.19 1297,4096.5C 1313.68,4115.56 1332.85,4131.39 1354.5,4144C 1284.51,4219.91 1219.17,4299.41 1158.5,4382.5C 1149.02,4374.18 1139.68,4365.68 1130.5,4357C 1120.5,4349.67 1110.5,4342.33 1100.5,4335C 1134,4298.84 1166,4261.51 1196.5,4223C 1169.76,4198.81 1142.09,4175.81 1113.5,4154C 1112.5,4153.33 1111.5,4153.33 1110.5,4154C 1078.8,4191.18 1048.47,4229.35 1019.5,4268.5C 1003.3,4252.09 985.638,4237.59 966.5,4225C 964.981,4223.65 963.648,4222.15 962.5,4220.5C 1032.05,4144.97 1097.05,4065.97 1157.5,3983.5 Z"/></g>
<g><path style="opacity:1" fill="#fdfdfe" d="M 3122.5,4015.5 C 3142.68,4014.06 3160.34,4019.89 3175.5,4033C 3192.13,4047.43 3203.3,4065.27 3209,4086.5C 3213,4109.82 3206.67,4129.82 3190,4146.5C 3189.25,4147.64 3189.42,4148.64 3190.5,4149.5C 3243.57,4174.21 3297.57,4196.38 3352.5,4216C 3329.23,4230.93 3307.4,4247.77 3287,4266.5C 3239.44,4240.64 3190.28,4218.47 3139.5,4200C 3168.38,4237.88 3198.38,4274.88 3229.5,4311C 3209.58,4323.91 3191.08,4338.74 3174,4355.5C 3116.02,4270.42 3052.86,4189.26 2984.5,4112C 3009.26,4094.92 3032.6,4075.92 3054.5,4055C 3069.15,4042.02 3085.15,4031.02 3102.5,4022C 3109.14,4019.51 3115.8,4017.35 3122.5,4015.5 Z"/></g>
<g><path style="opacity:1" fill="#1d459c" d="M 3093.5,4069.5 C 3105.92,4068.52 3116.92,4072.02 3126.5,4080C 3139.06,4091.63 3148.23,4105.46 3154,4121.5C 3157.01,4137.79 3153.01,4152.13 3142,4164.5C 3136.62,4170.39 3130.78,4175.72 3124.5,4180.5C 3101.02,4150.86 3078.02,4120.86 3055.5,4090.5C 3062.66,4085.09 3069.99,4079.92 3077.5,4075C 3082.72,4072.43 3088.05,4070.6 3093.5,4069.5 Z"/></g>
<g><path style="opacity:1" fill="#fdfdfe" d="M 2930.5,4156.5 C 2931.82,4156.33 2932.99,4156.66 2934,4157.5C 2938.74,4169.49 2944.91,4180.65 2952.5,4191C 2924.58,4202.29 2898.25,4216.12 2873.5,4232.5C 2886.72,4259.27 2900.72,4285.61 2915.5,4311.5C 2940.17,4296.5 2964.83,4281.5 2989.5,4266.5C 2993.18,4272.52 2996.34,4278.85 2999,4285.5C 3002.88,4290.76 3006.38,4296.26 3009.5,4302C 3009.17,4302.5 3008.83,4303 3008.5,4303.5C 2982.28,4315.28 2956.61,4328.11 2931.5,4342C 2948.78,4374.07 2966.95,4405.57 2986,4436.5C 3011.17,4422.16 3035.67,4406.82 3059.5,4390.5C 3065.08,4403.5 3072.08,4415.67 3080.5,4427C 3049.8,4443.02 3019.14,4459.02 2988.5,4475C 2972.04,4484.63 2955.7,4494.47 2939.5,4504.5C 2902.41,4426.66 2861.91,4350.66 2818,4276.5C 2809.08,4262.33 2799.92,4248.33 2790.5,4234.5C 2818.01,4220.08 2845.67,4205.58 2873.5,4191C 2892.9,4179.98 2911.9,4168.48 2930.5,4156.5 Z"/></g>
<g><path style="opacity:1" fill="#fdfdfe" d="M 1416.5,4183.5 C 1439.18,4197.51 1462.18,4211.01 1485.5,4224C 1510.08,4236.79 1534.75,4249.29 1559.5,4261.5C 1551.86,4272.44 1545.53,4284.11 1540.5,4296.5C 1516.45,4280.47 1491.45,4265.97 1465.5,4253C 1464.5,4252.33 1463.5,4252.33 1462.5,4253C 1447.52,4278.46 1433.18,4304.3 1419.5,4330.5C 1445.47,4343.48 1471.47,4356.48 1497.5,4369.5C 1494.33,4374.5 1491.17,4379.5 1488,4384.5C 1484.58,4391.62 1481.08,4398.62 1477.5,4405.5C 1453.89,4390.4 1429.89,4375.9 1405.5,4362C 1404.5,4361.33 1403.5,4361.33 1402.5,4362C 1386.95,4390.26 1371.78,4418.76 1357,4447.5C 1355.16,4451.01 1354.16,4454.68 1354,4458.5C 1379.22,4472.02 1405.05,4484.36 1431.5,4495.5C 1423.12,4506.89 1416.45,4519.22 1411.5,4532.5C 1365.31,4505.08 1318.31,4479.24 1270.5,4455C 1282.04,4437.44 1293.2,4419.6 1304,4401.5C 1335.38,4345.41 1365.71,4288.74 1395,4231.5C 1402.47,4215.56 1409.64,4199.56 1416.5,4183.5 Z"/></g>
<g><path style="opacity:1" fill="#fdfdfe" d="M 2738.5,4269.5 C 2739.5,4269.41 2740.33,4269.75 2741,4270.5C 2744.41,4283.89 2748.91,4296.89 2754.5,4309.5C 2731.93,4314.59 2709.6,4320.75 2687.5,4328C 2686.57,4328.39 2685.91,4329.05 2685.5,4330C 2711.56,4413.86 2741.4,4496.36 2775,4577.5C 2775.98,4579.74 2776.48,4582.07 2776.5,4584.5C 2752.13,4589.51 2728.8,4597.51 2706.5,4608.5C 2681.25,4522.08 2652.25,4437.08 2619.5,4353.5C 2619,4353.17 2618.5,4352.83 2618,4352.5C 2612.98,4354.76 2607.82,4356.59 2602.5,4358C 2585.5,4365.5 2568.5,4373 2551.5,4380.5C 2548.88,4366.79 2544.54,4353.63 2538.5,4341C 2568.19,4330.77 2598.19,4321.11 2628.5,4312C 2665.61,4298.6 2702.27,4284.43 2738.5,4269.5 Z"/></g>
<g><path style="opacity:1" fill="#fdfdfe" d="M 1719.5,4327.5 C 1730.49,4330.99 1741.49,4334.49 1752.5,4338C 1777.15,4343.33 1801.82,4348.66 1826.5,4354C 1843.67,4358.75 1859.34,4366.42 1873.5,4377C 1891.85,4394.63 1898.68,4416.13 1894,4441.5C 1882.38,4510.74 1841.88,4539.24 1772.5,4527C 1763.04,4524.94 1753.71,4522.44 1744.5,4519.5C 1731.79,4560.4 1722.13,4602.06 1715.5,4644.5C 1701.47,4640.44 1687.47,4636.27 1673.5,4632C 1663.16,4630.17 1652.83,4628.33 1642.5,4626.5C 1673.69,4528.27 1699.35,4428.6 1719.5,4327.5 Z"/></g>
<g><path style="opacity:1" fill="#fdfdfe" d="M 2486.5,4355.5 C 2488.83,4355.5 2491.17,4355.5 2493.5,4355.5C 2493.98,4369.72 2495.98,4383.72 2499.5,4397.5C 2475.64,4398.15 2451.98,4400.48 2428.5,4404.5C 2440.73,4494.2 2456.73,4583.2 2476.5,4671.5C 2464.15,4672.4 2451.81,4673.56 2439.5,4675C 2426.84,4677.94 2414.17,4680.78 2401.5,4683.5C 2397.78,4641.65 2392.62,4599.98 2386,4558.5C 2377.79,4511.01 2368.96,4463.68 2359.5,4416.5C 2335.48,4420.75 2311.81,4426.42 2288.5,4433.5C 2287.72,4418.91 2285.38,4404.57 2281.5,4390.5C 2350.71,4383.31 2419.05,4371.65 2486.5,4355.5 Z"/></g>
<g><path style="opacity:1" fill="#1d459c" d="M 1780.5,4376.5 C 1795.81,4376.75 1808.98,4382.08 1820,4392.5C 1827.71,4403.34 1830.38,4415.34 1828,4428.5C 1825.5,4445.33 1819.84,4460.99 1811,4475.5C 1798.72,4489.77 1783.22,4494.93 1764.5,4491C 1761.12,4490.55 1757.79,4489.88 1754.5,4489C 1753.34,4487.99 1752.68,4486.66 1752.5,4485C 1761.71,4448.76 1771.05,4412.59 1780.5,4376.5 Z"/></g>
<g><path style="opacity:1" fill="#fdfdfe" d="M 2093.5,4383.5 C 2125.93,4382.02 2156.6,4388.52 2185.5,4403C 2220.62,4424.01 2241.78,4454.85 2249,4495.5C 2256.76,4539.48 2252.43,4582.15 2236,4623.5C 2217.61,4663.14 2187.11,4688.31 2144.5,4699C 2112.26,4705.96 2079.92,4706.3 2047.5,4700C 1994.47,4686.3 1961.63,4652.8 1949,4599.5C 1944.68,4574.35 1943.35,4549.02 1945,4523.5C 1947.95,4480.31 1965.45,4444.48 1997.5,4416C 2015.36,4402.41 2035.36,4393.08 2057.5,4388C 2069.57,4385.86 2081.57,4384.36 2093.5,4383.5 Z"/></g>
<g><path style="opacity:1" fill="#1c449c" d="M 2087.5,4413.5 C 2123.3,4411.16 2148.8,4426.16 2164,4458.5C 2178.45,4495.83 2183.12,4534.49 2178,4574.5C 2176.15,4601.13 2167.82,4625.46 2153,4647.5C 2130.7,4673.93 2103.2,4681.43 2070.5,4670C 2057.2,4663.6 2046.7,4654.1 2039,4641.5C 2027.53,4620.66 2020.53,4598.33 2018,4574.5C 2012.97,4534.88 2017.63,4496.55 2032,4459.5C 2042.94,4434.7 2061.44,4419.37 2087.5,4413.5 Z"/></g>
</svg>
