<?xml version="1.0" encoding="UTF-8"?>
<!DOCTYPE svg PUBLIC "-//W3C//DTD SVG 1.1//EN" "http://www.w3.org/Graphics/SVG/1.1/DTD/svg11.dtd">
<svg xmlns="http://www.w3.org/2000/svg" version="1.1" width="1000px" height="1000px" style="shape-rendering:geometricPrecision; text-rendering:geometricPrecision; image-rendering:optimizeQuality; fill-rule:evenodd; clip-rule:evenodd" xmlns:xlink="http://www.w3.org/1999/xlink">
<g><path style="opacity:1" fill="#2f2a2b" d="M 510.5,999.5 C 503.167,999.5 495.833,999.5 488.5,999.5C 348.874,993.59 230.707,940.59 134,840.5C 24.4031,717.525 -17.5969,574.192 8,410.5C 34.3313,277.629 101.831,171.463 210.5,92C 326.611,12.3977 454.278,-15.2689 593.5,9C 747.632,41.8712 863.132,126.705 940,263.5C 1001,381.526 1014.67,504.859 981,633.5C 936.5,781.326 844.666,888.493 705.5,955C 643.316,982.632 578.316,997.465 510.5,999.5 Z"/></g>
<g><path style="opacity:1" fill="#fefefe" d="M 465.5,7.5 C 622.397,0.564822 754.897,53.5648 863,166.5C 961.988,278.326 1003.99,408.993 989,558.5C 968.588,703.445 899.422,818.612 781.5,904C 650.767,991.017 509.433,1013.68 357.5,972C 212.426,924.726 108.592,831.559 46,692.5C 6.07326,595.808 -3.26007,496.142 18,393.5C 50.0518,258.822 124.218,154.322 240.5,80C 309.783,38.0958 384.783,13.9291 465.5,7.5 Z"/></g>
<g><path style="opacity:1" fill="#241f20" d="M 720.5,690.5 C 720.167,690.5 719.833,690.5 719.5,690.5C 740.706,670.111 755.539,645.778 764,617.5C 769.488,583.951 759.321,556.118 733.5,534C 720.532,523.178 706.532,513.845 691.5,506C 640.436,482.805 591.77,455.472 545.5,424C 525.137,408.917 507.637,391.084 493,370.5C 472.875,338.559 468.875,304.559 481,268.5C 496.384,225.898 526.55,202.065 571.5,197C 623.191,193.503 672.524,202.503 719.5,224C 729.386,229.552 736.886,237.386 742,247.5C 744.347,259.776 741.514,270.776 733.5,280.5C 740.51,292.517 747.01,304.851 753,317.5C 753.498,320.817 753.665,324.15 753.5,327.5C 748.713,328.03 744.38,326.863 740.5,324C 704.28,292.375 663.947,267.042 619.5,248C 603.958,242.298 587.958,240.298 571.5,242C 545.818,249.798 533.152,267.298 533.5,294.5C 534.525,318.051 544.192,337.217 562.5,352C 573.661,360.084 585.328,367.417 597.5,374C 635.731,393.897 673.731,414.231 711.5,435C 743.093,451.588 770.926,473.088 795,499.5C 807.95,515.064 816.95,532.731 822,552.5C 825.824,574.201 822.157,594.534 811,613.5C 801.473,628.017 789.973,640.851 776.5,652C 758.674,666.078 740.007,678.911 720.5,690.5 Z"/></g>
<g><path style="opacity:1" fill="#241f20" d="M 425.5,450.5 C 462.417,448.464 493.75,460.631 519.5,487C 499.6,491.451 481.266,499.451 464.5,511C 436.207,531.625 412.373,556.459 393,585.5C 384.839,599.989 375.506,613.656 365,626.5C 342.466,649.184 315.3,663.018 283.5,668C 233.906,673.677 186.239,666.677 140.5,647C 173.791,645.101 204.125,634.767 231.5,616C 237.302,611.2 242.802,606.033 248,600.5C 272.586,567.562 299.419,536.395 328.5,507C 345.08,491.414 363.08,477.747 382.5,466C 396.343,459.06 410.676,453.894 425.5,450.5 Z"/></g>
<g><path style="opacity:1" fill="#241f20" d="M 529.5,515.5 C 566.395,513.408 597.728,525.575 623.5,552C 602.17,556.434 582.836,565.101 565.5,578C 546.073,592.759 528.573,609.592 513,628.5C 499.259,646.979 486.259,665.979 474,685.5C 451.131,711.858 422.297,727.691 387.5,733C 337.844,738.662 290.177,731.662 244.5,712C 276.427,710.022 305.76,700.356 332.5,683C 339.262,678.242 345.429,672.742 351,666.5C 370.535,640.626 391.201,615.626 413,591.5C 434.881,567.934 459.381,547.767 486.5,531C 500.079,523.311 514.412,518.144 529.5,515.5 Z"/></g>
<g><path style="opacity:1" fill="#241f20" d="M 646.5,574.5 C 681.126,573.821 710.459,585.821 734.5,610.5C 700.898,621.222 671.731,639.222 647,664.5C 638.333,674.5 629.667,684.5 621,694.5C 608.667,712.5 596.333,730.5 584,748.5C 552.103,781.413 513.103,796.746 467,794.5C 429.063,794.032 392.563,786.532 357.5,772C 388.421,769.471 417.088,760.137 443.5,744C 451.959,737.542 459.792,730.376 467,722.5C 494.888,684.934 526.054,650.101 560.5,618C 579.204,601.65 600.204,588.984 623.5,580C 631.177,577.702 638.844,575.869 646.5,574.5 Z"/></g>
<g><path style="opacity:1" fill="#2a2526" d="M 850.5,683.5 C 853.093,684.754 855.427,686.42 857.5,688.5C 842.881,699.526 840.715,712.526 851,727.5C 862.498,737.321 874.498,737.988 887,729.5C 890.966,723.901 894.132,717.901 896.5,711.5C 898.413,712.373 900.247,713.373 902,714.5C 899.711,730.136 890.878,740.303 875.5,745C 855.66,746.166 842.493,737.333 836,718.5C 834.793,704.258 839.626,692.591 850.5,683.5 Z"/></g>
<g><path style="opacity:1" fill="#2b2627" d="M 138.5,685.5 C 149.567,685.395 157.4,690.395 162,700.5C 163.727,703.618 164.561,706.951 164.5,710.5C 162.063,710.756 159.729,711.423 157.5,712.5C 156.456,705.91 153.456,700.41 148.5,696C 143.498,693.399 139.665,694.566 137,699.5C 136.667,707.5 136.333,715.5 136,723.5C 132.969,731.852 126.969,736.519 118,737.5C 109.909,736.759 103.909,732.759 100,725.5C 97.3802,720.697 96.2135,715.697 96.5,710.5C 98.7294,709.423 101.063,708.756 103.5,708.5C 103.54,716.126 106.54,722.293 112.5,727C 116.295,727.837 119.961,727.504 123.5,726C 124.893,724.829 125.727,723.329 126,721.5C 126.085,712.425 126.752,703.425 128,694.5C 130.505,690.189 134.005,687.189 138.5,685.5 Z"/></g>
<g><path style="opacity:1" fill="#979696" d="M 719.5,690.5 C 719.833,690.5 720.167,690.5 720.5,690.5C 719.335,692.416 717.668,693.249 715.5,693C 716.471,691.519 717.804,690.685 719.5,690.5 Z"/></g>
<g><path style="opacity:1" fill="#2a2526" d="M 168.5,719.5 C 170.75,721.244 172.917,723.244 175,725.5C 175.667,726.5 175.667,727.5 175,728.5C 164.673,742.486 154.839,756.819 145.5,771.5C 145.833,771.833 146.167,772.167 146.5,772.5C 162.181,764.409 178.014,756.742 194,749.5C 197.147,752.317 199.98,755.484 202.5,759C 191.961,773.904 181.295,788.738 170.5,803.5C 170.833,803.833 171.167,804.167 171.5,804.5C 187.789,796.44 204.289,788.773 221,781.5C 223.281,783.619 225.448,785.952 227.5,788.5C 207.44,797.276 187.274,805.943 167,814.5C 164.688,812.188 162.355,809.855 160,807.5C 159.333,806.5 159.333,805.5 160,804.5C 170.711,789.578 181.544,774.745 192.5,760C 175.949,766.771 159.615,774.437 143.5,783C 142.167,783.667 140.833,783.667 139.5,783C 137.486,780.323 135.486,777.656 133.5,775C 145.307,756.545 156.974,738.045 168.5,719.5 Z"/></g>
<g><path style="opacity:1" fill="#2a2526" d="M 817.5,732.5 C 820.075,733.728 822.408,735.395 824.5,737.5C 819.119,743.546 814.119,749.879 809.5,756.5C 813.551,760.718 818.051,764.385 823,767.5C 828.162,762.381 832.996,756.881 837.5,751C 839.417,751.027 841.084,751.861 842.5,753.5C 843.614,754.723 843.781,756.056 843,757.5C 838.44,762.389 834.274,767.555 830.5,773C 836.978,779.136 843.811,784.969 851,790.5C 851.667,791.5 851.667,792.5 851,793.5C 849.315,795.017 847.815,796.684 846.5,798.5C 829.944,785.395 813.61,772.062 797.5,758.5C 804.574,750.1 811.24,741.433 817.5,732.5 Z"/></g>
<g><path style="opacity:1" fill="#292425" d="M 769.5,786.5 C 771.927,786.523 774.26,787.023 776.5,788C 795.159,796.937 813.825,805.77 832.5,814.5C 830.798,817.037 828.631,819.037 826,820.5C 821.657,819.079 817.491,817.246 813.5,815C 812.167,814.333 810.833,814.333 809.5,815C 801.935,821.401 794.935,828.234 788.5,835.5C 789.936,840.407 791.602,845.24 793.5,850C 792.037,852.631 790.037,854.798 787.5,856.5C 779.176,835.704 771.509,814.537 764.5,793C 765.681,790.423 767.348,788.257 769.5,786.5 Z"/></g>
<g><path style="opacity:1" fill="#f7f7f7" d="M 773.5,796.5 C 783.469,800.316 793.136,804.983 802.5,810.5C 796.86,815.805 791.193,821.139 785.5,826.5C 780.927,816.693 776.927,806.693 773.5,796.5 Z"/></g>
<g><path style="opacity:1" fill="#2a2526" d="M 250.5,806.5 C 254.151,807.634 257.151,809.801 259.5,813C 253.708,835.002 247.375,856.835 240.5,878.5C 237.952,876.448 235.619,874.281 233.5,872C 235.534,866.596 236.7,861.096 237,855.5C 229.833,849.667 222.667,843.833 215.5,838C 209.487,839.332 203.82,841.832 198.5,845.5C 196.142,843.471 193.808,841.471 191.5,839.5C 211.391,828.726 231.057,817.726 250.5,806.5 Z"/></g>
<g><path style="opacity:1" fill="#f6f6f6" d="M 248.5,816.5 C 249.124,816.917 249.457,817.584 249.5,818.5C 246.052,827.96 243.385,837.627 241.5,847.5C 233.829,843.981 227.162,838.981 221.5,832.5C 230.539,827.104 239.539,821.771 248.5,816.5 Z"/></g>
<g><path style="opacity:1" fill="#2c2728" d="M 715.5,829.5 C 716.5,829.5 717.5,829.5 718.5,829.5C 717.26,844.491 716.426,859.491 716,874.5C 719.714,881.43 723.547,888.263 727.5,895C 725.991,897.769 723.657,899.603 720.5,900.5C 716.04,893.082 711.707,885.582 707.5,878C 694.261,870.881 680.927,864.047 667.5,857.5C 670.267,855.701 673.101,854.034 676,852.5C 686.228,857.364 696.395,862.364 706.5,867.5C 707.426,856.16 708.426,844.826 709.5,833.5C 711.911,832.639 713.911,831.306 715.5,829.5 Z"/></g>
<g><path style="opacity:1" fill="#282324" d="M 301.5,840.5 C 301.167,859.845 301.5,879.178 302.5,898.5C 303.107,898.376 303.44,898.043 303.5,897.5C 310.743,882.675 318.743,868.341 327.5,854.5C 329.487,856.327 331.821,857.327 334.5,857.5C 324.887,876.721 314.721,895.721 304,914.5C 300.885,912.693 297.719,911.027 294.5,909.5C 294.833,889.489 294.5,869.489 293.5,849.5C 292.893,849.624 292.56,849.957 292.5,850.5C 285.1,864.965 277.434,879.299 269.5,893.5C 266.572,894.788 264.072,894.121 262,891.5C 261.333,890.5 261.333,889.5 262,888.5C 271.328,870.508 281.161,852.841 291.5,835.5C 294.86,837.18 298.193,838.847 301.5,840.5 Z"/></g>
<g><path style="opacity:1" fill="#908e8e" d="M 301.5,840.5 C 302.167,859.5 302.833,878.5 303.5,897.5C 303.44,898.043 303.107,898.376 302.5,898.5C 301.5,879.178 301.167,859.845 301.5,840.5 Z"/></g>
<g><path style="opacity:1" fill="#7b7979" d="M 292.5,850.5 C 292.56,849.957 292.893,849.624 293.5,849.5C 294.5,869.489 294.833,889.489 294.5,909.5C 293.833,889.833 293.167,870.167 292.5,850.5 Z"/></g>
<g><path style="opacity:1" fill="#2b2627" d="M 660.5,859.5 C 661.822,859.33 662.989,859.663 664,860.5C 664.837,862.351 665.671,864.184 666.5,866C 660.7,868.656 654.7,870.823 648.5,872.5C 654.101,889.882 660.435,907.049 667.5,924C 665.053,926.557 662.053,928.057 658.5,928.5C 652.643,911.752 646.476,895.085 640,878.5C 638.612,877.446 637.112,877.28 635.5,878C 630.886,879.647 626.386,881.48 622,883.5C 616.833,879.352 617.333,876.185 623.5,874C 636.017,869.225 648.35,864.391 660.5,859.5 Z"/></g>
<g><path style="opacity:1" fill="#292425" d="M 353.5,868.5 C 359.345,868.151 365.012,868.984 370.5,871C 374.046,872.267 377.046,874.267 379.5,877C 378.299,879.234 376.965,881.401 375.5,883.5C 369.677,878.614 363.011,876.448 355.5,877C 352.208,879.412 351.041,882.579 352,886.5C 357,892.833 362,899.167 367,905.5C 370.128,924.707 361.962,933.207 342.5,931C 336.501,929.522 331.834,926.355 328.5,921.5C 328.97,919.226 329.97,917.226 331.5,915.5C 336.142,919.904 341.642,922.571 348,923.5C 356.017,922.153 359.351,917.486 358,909.5C 353.333,904.167 348.667,898.833 344,893.5C 338.835,881.851 342.001,873.518 353.5,868.5 Z"/></g>
<g><path style="opacity:1" fill="#2b2627" d="M 601.5,879.5 C 603.833,879.5 606.167,879.5 608.5,879.5C 613.516,899.561 618.849,919.561 624.5,939.5C 621.957,940.803 619.29,941.803 616.5,942.5C 610.541,922.785 604.874,902.952 599.5,883C 599.862,881.566 600.528,880.399 601.5,879.5 Z"/></g>
<g><path style="opacity:1" fill="#2a2526" d="M 396.5,880.5 C 407.475,882.997 418.475,885.497 429.5,888C 430.516,888.519 431.182,889.353 431.5,890.5C 430.954,892.135 430.62,893.801 430.5,895.5C 422.045,894.476 413.712,892.809 405.5,890.5C 404.914,890.709 404.414,891.043 404,891.5C 402.665,897.178 401.665,902.845 401,908.5C 408.402,910.54 415.902,912.207 423.5,913.5C 423.425,916.206 423.092,918.873 422.5,921.5C 414.5,919.833 406.5,918.167 398.5,916.5C 397.058,923.488 395.724,930.488 394.5,937.5C 402.872,939.01 411.205,940.677 419.5,942.5C 419.896,945.482 419.229,948.149 417.5,950.5C 406.587,947.688 395.587,945.355 384.5,943.5C 388.027,922.397 392.027,901.397 396.5,880.5 Z"/></g>
<g><path style="opacity:1" fill="#292425" d="M 571.5,885.5 C 576.87,885.392 582.203,885.725 587.5,886.5C 587.5,889.167 587.5,891.833 587.5,894.5C 571.234,890.548 560.067,896.215 554,911.5C 552.559,922.845 556.059,932.345 564.5,940C 574.694,944.814 584.694,944.314 594.5,938.5C 596.129,941.266 596.795,944.266 596.5,947.5C 592.156,948.558 587.823,949.724 583.5,951C 558.867,953.698 545.867,942.698 544.5,918C 543.889,907.222 547.889,898.555 556.5,892C 561.367,889.226 566.367,887.059 571.5,885.5 Z"/></g>
<g><path style="opacity:1" fill="#2b2627" d="M 468.5,892.5 C 471.833,892.5 475.167,892.5 478.5,892.5C 485.427,914.28 492.76,935.947 500.5,957.5C 497.232,958.487 493.898,958.82 490.5,958.5C 489.146,953.087 487.479,947.753 485.5,942.5C 474.889,940.371 464.222,939.704 453.5,940.5C 451.294,945.079 448.961,949.579 446.5,954C 443.518,954.498 440.518,954.665 437.5,954.5C 447.287,933.592 457.621,912.925 468.5,892.5 Z"/></g>
<g><path style="opacity:1" fill="#f6f5f5" d="M 471.5,902.5 C 473.141,905.276 474.641,908.276 476,911.5C 478.171,918.853 480.337,926.186 482.5,933.5C 474.126,933.354 465.793,932.688 457.5,931.5C 462.453,921.929 467.119,912.262 471.5,902.5 Z"/></g>
</svg>
